%TF.GenerationSoftware,KiCad,Pcbnew,(5.1.0)-1*%
%TF.CreationDate,2022-07-09T20:49:55+03:00*%
%TF.ProjectId,octaver,6f637461-7665-4722-9e6b-696361645f70,rev?*%
%TF.SameCoordinates,Original*%
%TF.FileFunction,Paste,Top*%
%TF.FilePolarity,Positive*%
%FSLAX46Y46*%
G04 Gerber Fmt 4.6, Leading zero omitted, Abs format (unit mm)*
G04 Created by KiCad (PCBNEW (5.1.0)-1) date 2022-07-09 20:49:55*
%MOMM*%
%LPD*%
G04 APERTURE LIST*
%ADD10R,0.650000X1.525000*%
%ADD11R,1.525000X0.650000*%
%ADD12R,1.500000X2.000000*%
%ADD13R,3.800000X2.000000*%
%ADD14R,1.100000X0.600000*%
%ADD15C,0.100000*%
%ADD16C,1.425000*%
G04 APERTURE END LIST*
D10*
%TO.C,U2*%
X184861200Y-95763800D03*
X186131200Y-95763800D03*
X187401200Y-95763800D03*
X188671200Y-95763800D03*
X188671200Y-101187800D03*
X187401200Y-101187800D03*
X186131200Y-101187800D03*
X184861200Y-101187800D03*
%TD*%
%TO.C,U9*%
X164592000Y-98343000D03*
X165862000Y-98343000D03*
X167132000Y-98343000D03*
X168402000Y-98343000D03*
X168402000Y-92919000D03*
X167132000Y-92919000D03*
X165862000Y-92919000D03*
X164592000Y-92919000D03*
%TD*%
%TO.C,U5*%
X170942000Y-110535000D03*
X169672000Y-110535000D03*
X168402000Y-110535000D03*
X167132000Y-110535000D03*
X167132000Y-105111000D03*
X168402000Y-105111000D03*
X169672000Y-105111000D03*
X170942000Y-105111000D03*
%TD*%
D11*
%TO.C,U4*%
X146182800Y-113461800D03*
X146182800Y-114731800D03*
X146182800Y-116001800D03*
X146182800Y-117271800D03*
X151606800Y-117271800D03*
X151606800Y-116001800D03*
X151606800Y-114731800D03*
X151606800Y-113461800D03*
%TD*%
D10*
%TO.C,U3*%
X106680000Y-106000000D03*
X105410000Y-106000000D03*
X104140000Y-106000000D03*
X102870000Y-106000000D03*
X102870000Y-111424000D03*
X104140000Y-111424000D03*
X105410000Y-111424000D03*
X106680000Y-111424000D03*
%TD*%
%TO.C,U1*%
X133985000Y-115652000D03*
X132715000Y-115652000D03*
X131445000Y-115652000D03*
X130175000Y-115652000D03*
X130175000Y-121076000D03*
X131445000Y-121076000D03*
X132715000Y-121076000D03*
X133985000Y-121076000D03*
%TD*%
D12*
%TO.C,U6*%
X115810000Y-135230000D03*
X120410000Y-135230000D03*
X118110000Y-135230000D03*
D13*
X118110000Y-128930000D03*
%TD*%
D14*
%TO.C,IC2*%
X121582000Y-110236000D03*
X123782000Y-109286000D03*
X123782000Y-111186000D03*
%TD*%
D15*
%TO.C,C2*%
G36*
X132094504Y-111520204D02*
G01*
X132118773Y-111523804D01*
X132142571Y-111529765D01*
X132165671Y-111538030D01*
X132187849Y-111548520D01*
X132208893Y-111561133D01*
X132228598Y-111575747D01*
X132246777Y-111592223D01*
X132263253Y-111610402D01*
X132277867Y-111630107D01*
X132290480Y-111651151D01*
X132300970Y-111673329D01*
X132309235Y-111696429D01*
X132315196Y-111720227D01*
X132318796Y-111744496D01*
X132320000Y-111769000D01*
X132320000Y-112694000D01*
X132318796Y-112718504D01*
X132315196Y-112742773D01*
X132309235Y-112766571D01*
X132300970Y-112789671D01*
X132290480Y-112811849D01*
X132277867Y-112832893D01*
X132263253Y-112852598D01*
X132246777Y-112870777D01*
X132228598Y-112887253D01*
X132208893Y-112901867D01*
X132187849Y-112914480D01*
X132165671Y-112924970D01*
X132142571Y-112933235D01*
X132118773Y-112939196D01*
X132094504Y-112942796D01*
X132070000Y-112944000D01*
X130820000Y-112944000D01*
X130795496Y-112942796D01*
X130771227Y-112939196D01*
X130747429Y-112933235D01*
X130724329Y-112924970D01*
X130702151Y-112914480D01*
X130681107Y-112901867D01*
X130661402Y-112887253D01*
X130643223Y-112870777D01*
X130626747Y-112852598D01*
X130612133Y-112832893D01*
X130599520Y-112811849D01*
X130589030Y-112789671D01*
X130580765Y-112766571D01*
X130574804Y-112742773D01*
X130571204Y-112718504D01*
X130570000Y-112694000D01*
X130570000Y-111769000D01*
X130571204Y-111744496D01*
X130574804Y-111720227D01*
X130580765Y-111696429D01*
X130589030Y-111673329D01*
X130599520Y-111651151D01*
X130612133Y-111630107D01*
X130626747Y-111610402D01*
X130643223Y-111592223D01*
X130661402Y-111575747D01*
X130681107Y-111561133D01*
X130702151Y-111548520D01*
X130724329Y-111538030D01*
X130747429Y-111529765D01*
X130771227Y-111523804D01*
X130795496Y-111520204D01*
X130820000Y-111519000D01*
X132070000Y-111519000D01*
X132094504Y-111520204D01*
X132094504Y-111520204D01*
G37*
D16*
X131445000Y-112231500D03*
D15*
G36*
X132094504Y-108545204D02*
G01*
X132118773Y-108548804D01*
X132142571Y-108554765D01*
X132165671Y-108563030D01*
X132187849Y-108573520D01*
X132208893Y-108586133D01*
X132228598Y-108600747D01*
X132246777Y-108617223D01*
X132263253Y-108635402D01*
X132277867Y-108655107D01*
X132290480Y-108676151D01*
X132300970Y-108698329D01*
X132309235Y-108721429D01*
X132315196Y-108745227D01*
X132318796Y-108769496D01*
X132320000Y-108794000D01*
X132320000Y-109719000D01*
X132318796Y-109743504D01*
X132315196Y-109767773D01*
X132309235Y-109791571D01*
X132300970Y-109814671D01*
X132290480Y-109836849D01*
X132277867Y-109857893D01*
X132263253Y-109877598D01*
X132246777Y-109895777D01*
X132228598Y-109912253D01*
X132208893Y-109926867D01*
X132187849Y-109939480D01*
X132165671Y-109949970D01*
X132142571Y-109958235D01*
X132118773Y-109964196D01*
X132094504Y-109967796D01*
X132070000Y-109969000D01*
X130820000Y-109969000D01*
X130795496Y-109967796D01*
X130771227Y-109964196D01*
X130747429Y-109958235D01*
X130724329Y-109949970D01*
X130702151Y-109939480D01*
X130681107Y-109926867D01*
X130661402Y-109912253D01*
X130643223Y-109895777D01*
X130626747Y-109877598D01*
X130612133Y-109857893D01*
X130599520Y-109836849D01*
X130589030Y-109814671D01*
X130580765Y-109791571D01*
X130574804Y-109767773D01*
X130571204Y-109743504D01*
X130570000Y-109719000D01*
X130570000Y-108794000D01*
X130571204Y-108769496D01*
X130574804Y-108745227D01*
X130580765Y-108721429D01*
X130589030Y-108698329D01*
X130599520Y-108676151D01*
X130612133Y-108655107D01*
X130626747Y-108635402D01*
X130643223Y-108617223D01*
X130661402Y-108600747D01*
X130681107Y-108586133D01*
X130702151Y-108573520D01*
X130724329Y-108563030D01*
X130747429Y-108554765D01*
X130771227Y-108548804D01*
X130795496Y-108545204D01*
X130820000Y-108544000D01*
X132070000Y-108544000D01*
X132094504Y-108545204D01*
X132094504Y-108545204D01*
G37*
D16*
X131445000Y-109256500D03*
%TD*%
D15*
%TO.C,C3*%
G36*
X114696504Y-108727204D02*
G01*
X114720773Y-108730804D01*
X114744571Y-108736765D01*
X114767671Y-108745030D01*
X114789849Y-108755520D01*
X114810893Y-108768133D01*
X114830598Y-108782747D01*
X114848777Y-108799223D01*
X114865253Y-108817402D01*
X114879867Y-108837107D01*
X114892480Y-108858151D01*
X114902970Y-108880329D01*
X114911235Y-108903429D01*
X114917196Y-108927227D01*
X114920796Y-108951496D01*
X114922000Y-108976000D01*
X114922000Y-110226000D01*
X114920796Y-110250504D01*
X114917196Y-110274773D01*
X114911235Y-110298571D01*
X114902970Y-110321671D01*
X114892480Y-110343849D01*
X114879867Y-110364893D01*
X114865253Y-110384598D01*
X114848777Y-110402777D01*
X114830598Y-110419253D01*
X114810893Y-110433867D01*
X114789849Y-110446480D01*
X114767671Y-110456970D01*
X114744571Y-110465235D01*
X114720773Y-110471196D01*
X114696504Y-110474796D01*
X114672000Y-110476000D01*
X113747000Y-110476000D01*
X113722496Y-110474796D01*
X113698227Y-110471196D01*
X113674429Y-110465235D01*
X113651329Y-110456970D01*
X113629151Y-110446480D01*
X113608107Y-110433867D01*
X113588402Y-110419253D01*
X113570223Y-110402777D01*
X113553747Y-110384598D01*
X113539133Y-110364893D01*
X113526520Y-110343849D01*
X113516030Y-110321671D01*
X113507765Y-110298571D01*
X113501804Y-110274773D01*
X113498204Y-110250504D01*
X113497000Y-110226000D01*
X113497000Y-108976000D01*
X113498204Y-108951496D01*
X113501804Y-108927227D01*
X113507765Y-108903429D01*
X113516030Y-108880329D01*
X113526520Y-108858151D01*
X113539133Y-108837107D01*
X113553747Y-108817402D01*
X113570223Y-108799223D01*
X113588402Y-108782747D01*
X113608107Y-108768133D01*
X113629151Y-108755520D01*
X113651329Y-108745030D01*
X113674429Y-108736765D01*
X113698227Y-108730804D01*
X113722496Y-108727204D01*
X113747000Y-108726000D01*
X114672000Y-108726000D01*
X114696504Y-108727204D01*
X114696504Y-108727204D01*
G37*
D16*
X114209500Y-109601000D03*
D15*
G36*
X117671504Y-108727204D02*
G01*
X117695773Y-108730804D01*
X117719571Y-108736765D01*
X117742671Y-108745030D01*
X117764849Y-108755520D01*
X117785893Y-108768133D01*
X117805598Y-108782747D01*
X117823777Y-108799223D01*
X117840253Y-108817402D01*
X117854867Y-108837107D01*
X117867480Y-108858151D01*
X117877970Y-108880329D01*
X117886235Y-108903429D01*
X117892196Y-108927227D01*
X117895796Y-108951496D01*
X117897000Y-108976000D01*
X117897000Y-110226000D01*
X117895796Y-110250504D01*
X117892196Y-110274773D01*
X117886235Y-110298571D01*
X117877970Y-110321671D01*
X117867480Y-110343849D01*
X117854867Y-110364893D01*
X117840253Y-110384598D01*
X117823777Y-110402777D01*
X117805598Y-110419253D01*
X117785893Y-110433867D01*
X117764849Y-110446480D01*
X117742671Y-110456970D01*
X117719571Y-110465235D01*
X117695773Y-110471196D01*
X117671504Y-110474796D01*
X117647000Y-110476000D01*
X116722000Y-110476000D01*
X116697496Y-110474796D01*
X116673227Y-110471196D01*
X116649429Y-110465235D01*
X116626329Y-110456970D01*
X116604151Y-110446480D01*
X116583107Y-110433867D01*
X116563402Y-110419253D01*
X116545223Y-110402777D01*
X116528747Y-110384598D01*
X116514133Y-110364893D01*
X116501520Y-110343849D01*
X116491030Y-110321671D01*
X116482765Y-110298571D01*
X116476804Y-110274773D01*
X116473204Y-110250504D01*
X116472000Y-110226000D01*
X116472000Y-108976000D01*
X116473204Y-108951496D01*
X116476804Y-108927227D01*
X116482765Y-108903429D01*
X116491030Y-108880329D01*
X116501520Y-108858151D01*
X116514133Y-108837107D01*
X116528747Y-108817402D01*
X116545223Y-108799223D01*
X116563402Y-108782747D01*
X116583107Y-108768133D01*
X116604151Y-108755520D01*
X116626329Y-108745030D01*
X116649429Y-108736765D01*
X116673227Y-108730804D01*
X116697496Y-108727204D01*
X116722000Y-108726000D01*
X117647000Y-108726000D01*
X117671504Y-108727204D01*
X117671504Y-108727204D01*
G37*
D16*
X117184500Y-109601000D03*
%TD*%
D15*
%TO.C,C4*%
G36*
X187902504Y-102631204D02*
G01*
X187926773Y-102634804D01*
X187950571Y-102640765D01*
X187973671Y-102649030D01*
X187995849Y-102659520D01*
X188016893Y-102672133D01*
X188036598Y-102686747D01*
X188054777Y-102703223D01*
X188071253Y-102721402D01*
X188085867Y-102741107D01*
X188098480Y-102762151D01*
X188108970Y-102784329D01*
X188117235Y-102807429D01*
X188123196Y-102831227D01*
X188126796Y-102855496D01*
X188128000Y-102880000D01*
X188128000Y-104130000D01*
X188126796Y-104154504D01*
X188123196Y-104178773D01*
X188117235Y-104202571D01*
X188108970Y-104225671D01*
X188098480Y-104247849D01*
X188085867Y-104268893D01*
X188071253Y-104288598D01*
X188054777Y-104306777D01*
X188036598Y-104323253D01*
X188016893Y-104337867D01*
X187995849Y-104350480D01*
X187973671Y-104360970D01*
X187950571Y-104369235D01*
X187926773Y-104375196D01*
X187902504Y-104378796D01*
X187878000Y-104380000D01*
X186953000Y-104380000D01*
X186928496Y-104378796D01*
X186904227Y-104375196D01*
X186880429Y-104369235D01*
X186857329Y-104360970D01*
X186835151Y-104350480D01*
X186814107Y-104337867D01*
X186794402Y-104323253D01*
X186776223Y-104306777D01*
X186759747Y-104288598D01*
X186745133Y-104268893D01*
X186732520Y-104247849D01*
X186722030Y-104225671D01*
X186713765Y-104202571D01*
X186707804Y-104178773D01*
X186704204Y-104154504D01*
X186703000Y-104130000D01*
X186703000Y-102880000D01*
X186704204Y-102855496D01*
X186707804Y-102831227D01*
X186713765Y-102807429D01*
X186722030Y-102784329D01*
X186732520Y-102762151D01*
X186745133Y-102741107D01*
X186759747Y-102721402D01*
X186776223Y-102703223D01*
X186794402Y-102686747D01*
X186814107Y-102672133D01*
X186835151Y-102659520D01*
X186857329Y-102649030D01*
X186880429Y-102640765D01*
X186904227Y-102634804D01*
X186928496Y-102631204D01*
X186953000Y-102630000D01*
X187878000Y-102630000D01*
X187902504Y-102631204D01*
X187902504Y-102631204D01*
G37*
D16*
X187415500Y-103505000D03*
D15*
G36*
X184927504Y-102631204D02*
G01*
X184951773Y-102634804D01*
X184975571Y-102640765D01*
X184998671Y-102649030D01*
X185020849Y-102659520D01*
X185041893Y-102672133D01*
X185061598Y-102686747D01*
X185079777Y-102703223D01*
X185096253Y-102721402D01*
X185110867Y-102741107D01*
X185123480Y-102762151D01*
X185133970Y-102784329D01*
X185142235Y-102807429D01*
X185148196Y-102831227D01*
X185151796Y-102855496D01*
X185153000Y-102880000D01*
X185153000Y-104130000D01*
X185151796Y-104154504D01*
X185148196Y-104178773D01*
X185142235Y-104202571D01*
X185133970Y-104225671D01*
X185123480Y-104247849D01*
X185110867Y-104268893D01*
X185096253Y-104288598D01*
X185079777Y-104306777D01*
X185061598Y-104323253D01*
X185041893Y-104337867D01*
X185020849Y-104350480D01*
X184998671Y-104360970D01*
X184975571Y-104369235D01*
X184951773Y-104375196D01*
X184927504Y-104378796D01*
X184903000Y-104380000D01*
X183978000Y-104380000D01*
X183953496Y-104378796D01*
X183929227Y-104375196D01*
X183905429Y-104369235D01*
X183882329Y-104360970D01*
X183860151Y-104350480D01*
X183839107Y-104337867D01*
X183819402Y-104323253D01*
X183801223Y-104306777D01*
X183784747Y-104288598D01*
X183770133Y-104268893D01*
X183757520Y-104247849D01*
X183747030Y-104225671D01*
X183738765Y-104202571D01*
X183732804Y-104178773D01*
X183729204Y-104154504D01*
X183728000Y-104130000D01*
X183728000Y-102880000D01*
X183729204Y-102855496D01*
X183732804Y-102831227D01*
X183738765Y-102807429D01*
X183747030Y-102784329D01*
X183757520Y-102762151D01*
X183770133Y-102741107D01*
X183784747Y-102721402D01*
X183801223Y-102703223D01*
X183819402Y-102686747D01*
X183839107Y-102672133D01*
X183860151Y-102659520D01*
X183882329Y-102649030D01*
X183905429Y-102640765D01*
X183929227Y-102634804D01*
X183953496Y-102631204D01*
X183978000Y-102630000D01*
X184903000Y-102630000D01*
X184927504Y-102631204D01*
X184927504Y-102631204D01*
G37*
D16*
X184440500Y-103505000D03*
%TD*%
D15*
%TO.C,C5*%
G36*
X97224504Y-105806204D02*
G01*
X97248773Y-105809804D01*
X97272571Y-105815765D01*
X97295671Y-105824030D01*
X97317849Y-105834520D01*
X97338893Y-105847133D01*
X97358598Y-105861747D01*
X97376777Y-105878223D01*
X97393253Y-105896402D01*
X97407867Y-105916107D01*
X97420480Y-105937151D01*
X97430970Y-105959329D01*
X97439235Y-105982429D01*
X97445196Y-106006227D01*
X97448796Y-106030496D01*
X97450000Y-106055000D01*
X97450000Y-107305000D01*
X97448796Y-107329504D01*
X97445196Y-107353773D01*
X97439235Y-107377571D01*
X97430970Y-107400671D01*
X97420480Y-107422849D01*
X97407867Y-107443893D01*
X97393253Y-107463598D01*
X97376777Y-107481777D01*
X97358598Y-107498253D01*
X97338893Y-107512867D01*
X97317849Y-107525480D01*
X97295671Y-107535970D01*
X97272571Y-107544235D01*
X97248773Y-107550196D01*
X97224504Y-107553796D01*
X97200000Y-107555000D01*
X96275000Y-107555000D01*
X96250496Y-107553796D01*
X96226227Y-107550196D01*
X96202429Y-107544235D01*
X96179329Y-107535970D01*
X96157151Y-107525480D01*
X96136107Y-107512867D01*
X96116402Y-107498253D01*
X96098223Y-107481777D01*
X96081747Y-107463598D01*
X96067133Y-107443893D01*
X96054520Y-107422849D01*
X96044030Y-107400671D01*
X96035765Y-107377571D01*
X96029804Y-107353773D01*
X96026204Y-107329504D01*
X96025000Y-107305000D01*
X96025000Y-106055000D01*
X96026204Y-106030496D01*
X96029804Y-106006227D01*
X96035765Y-105982429D01*
X96044030Y-105959329D01*
X96054520Y-105937151D01*
X96067133Y-105916107D01*
X96081747Y-105896402D01*
X96098223Y-105878223D01*
X96116402Y-105861747D01*
X96136107Y-105847133D01*
X96157151Y-105834520D01*
X96179329Y-105824030D01*
X96202429Y-105815765D01*
X96226227Y-105809804D01*
X96250496Y-105806204D01*
X96275000Y-105805000D01*
X97200000Y-105805000D01*
X97224504Y-105806204D01*
X97224504Y-105806204D01*
G37*
D16*
X96737500Y-106680000D03*
D15*
G36*
X94249504Y-105806204D02*
G01*
X94273773Y-105809804D01*
X94297571Y-105815765D01*
X94320671Y-105824030D01*
X94342849Y-105834520D01*
X94363893Y-105847133D01*
X94383598Y-105861747D01*
X94401777Y-105878223D01*
X94418253Y-105896402D01*
X94432867Y-105916107D01*
X94445480Y-105937151D01*
X94455970Y-105959329D01*
X94464235Y-105982429D01*
X94470196Y-106006227D01*
X94473796Y-106030496D01*
X94475000Y-106055000D01*
X94475000Y-107305000D01*
X94473796Y-107329504D01*
X94470196Y-107353773D01*
X94464235Y-107377571D01*
X94455970Y-107400671D01*
X94445480Y-107422849D01*
X94432867Y-107443893D01*
X94418253Y-107463598D01*
X94401777Y-107481777D01*
X94383598Y-107498253D01*
X94363893Y-107512867D01*
X94342849Y-107525480D01*
X94320671Y-107535970D01*
X94297571Y-107544235D01*
X94273773Y-107550196D01*
X94249504Y-107553796D01*
X94225000Y-107555000D01*
X93300000Y-107555000D01*
X93275496Y-107553796D01*
X93251227Y-107550196D01*
X93227429Y-107544235D01*
X93204329Y-107535970D01*
X93182151Y-107525480D01*
X93161107Y-107512867D01*
X93141402Y-107498253D01*
X93123223Y-107481777D01*
X93106747Y-107463598D01*
X93092133Y-107443893D01*
X93079520Y-107422849D01*
X93069030Y-107400671D01*
X93060765Y-107377571D01*
X93054804Y-107353773D01*
X93051204Y-107329504D01*
X93050000Y-107305000D01*
X93050000Y-106055000D01*
X93051204Y-106030496D01*
X93054804Y-106006227D01*
X93060765Y-105982429D01*
X93069030Y-105959329D01*
X93079520Y-105937151D01*
X93092133Y-105916107D01*
X93106747Y-105896402D01*
X93123223Y-105878223D01*
X93141402Y-105861747D01*
X93161107Y-105847133D01*
X93182151Y-105834520D01*
X93204329Y-105824030D01*
X93227429Y-105815765D01*
X93251227Y-105809804D01*
X93275496Y-105806204D01*
X93300000Y-105805000D01*
X94225000Y-105805000D01*
X94249504Y-105806204D01*
X94249504Y-105806204D01*
G37*
D16*
X93762500Y-106680000D03*
%TD*%
D15*
%TO.C,C6*%
G36*
X97042504Y-114060204D02*
G01*
X97066773Y-114063804D01*
X97090571Y-114069765D01*
X97113671Y-114078030D01*
X97135849Y-114088520D01*
X97156893Y-114101133D01*
X97176598Y-114115747D01*
X97194777Y-114132223D01*
X97211253Y-114150402D01*
X97225867Y-114170107D01*
X97238480Y-114191151D01*
X97248970Y-114213329D01*
X97257235Y-114236429D01*
X97263196Y-114260227D01*
X97266796Y-114284496D01*
X97268000Y-114309000D01*
X97268000Y-115234000D01*
X97266796Y-115258504D01*
X97263196Y-115282773D01*
X97257235Y-115306571D01*
X97248970Y-115329671D01*
X97238480Y-115351849D01*
X97225867Y-115372893D01*
X97211253Y-115392598D01*
X97194777Y-115410777D01*
X97176598Y-115427253D01*
X97156893Y-115441867D01*
X97135849Y-115454480D01*
X97113671Y-115464970D01*
X97090571Y-115473235D01*
X97066773Y-115479196D01*
X97042504Y-115482796D01*
X97018000Y-115484000D01*
X95768000Y-115484000D01*
X95743496Y-115482796D01*
X95719227Y-115479196D01*
X95695429Y-115473235D01*
X95672329Y-115464970D01*
X95650151Y-115454480D01*
X95629107Y-115441867D01*
X95609402Y-115427253D01*
X95591223Y-115410777D01*
X95574747Y-115392598D01*
X95560133Y-115372893D01*
X95547520Y-115351849D01*
X95537030Y-115329671D01*
X95528765Y-115306571D01*
X95522804Y-115282773D01*
X95519204Y-115258504D01*
X95518000Y-115234000D01*
X95518000Y-114309000D01*
X95519204Y-114284496D01*
X95522804Y-114260227D01*
X95528765Y-114236429D01*
X95537030Y-114213329D01*
X95547520Y-114191151D01*
X95560133Y-114170107D01*
X95574747Y-114150402D01*
X95591223Y-114132223D01*
X95609402Y-114115747D01*
X95629107Y-114101133D01*
X95650151Y-114088520D01*
X95672329Y-114078030D01*
X95695429Y-114069765D01*
X95719227Y-114063804D01*
X95743496Y-114060204D01*
X95768000Y-114059000D01*
X97018000Y-114059000D01*
X97042504Y-114060204D01*
X97042504Y-114060204D01*
G37*
D16*
X96393000Y-114771500D03*
D15*
G36*
X97042504Y-111085204D02*
G01*
X97066773Y-111088804D01*
X97090571Y-111094765D01*
X97113671Y-111103030D01*
X97135849Y-111113520D01*
X97156893Y-111126133D01*
X97176598Y-111140747D01*
X97194777Y-111157223D01*
X97211253Y-111175402D01*
X97225867Y-111195107D01*
X97238480Y-111216151D01*
X97248970Y-111238329D01*
X97257235Y-111261429D01*
X97263196Y-111285227D01*
X97266796Y-111309496D01*
X97268000Y-111334000D01*
X97268000Y-112259000D01*
X97266796Y-112283504D01*
X97263196Y-112307773D01*
X97257235Y-112331571D01*
X97248970Y-112354671D01*
X97238480Y-112376849D01*
X97225867Y-112397893D01*
X97211253Y-112417598D01*
X97194777Y-112435777D01*
X97176598Y-112452253D01*
X97156893Y-112466867D01*
X97135849Y-112479480D01*
X97113671Y-112489970D01*
X97090571Y-112498235D01*
X97066773Y-112504196D01*
X97042504Y-112507796D01*
X97018000Y-112509000D01*
X95768000Y-112509000D01*
X95743496Y-112507796D01*
X95719227Y-112504196D01*
X95695429Y-112498235D01*
X95672329Y-112489970D01*
X95650151Y-112479480D01*
X95629107Y-112466867D01*
X95609402Y-112452253D01*
X95591223Y-112435777D01*
X95574747Y-112417598D01*
X95560133Y-112397893D01*
X95547520Y-112376849D01*
X95537030Y-112354671D01*
X95528765Y-112331571D01*
X95522804Y-112307773D01*
X95519204Y-112283504D01*
X95518000Y-112259000D01*
X95518000Y-111334000D01*
X95519204Y-111309496D01*
X95522804Y-111285227D01*
X95528765Y-111261429D01*
X95537030Y-111238329D01*
X95547520Y-111216151D01*
X95560133Y-111195107D01*
X95574747Y-111175402D01*
X95591223Y-111157223D01*
X95609402Y-111140747D01*
X95629107Y-111126133D01*
X95650151Y-111113520D01*
X95672329Y-111103030D01*
X95695429Y-111094765D01*
X95719227Y-111088804D01*
X95743496Y-111085204D01*
X95768000Y-111084000D01*
X97018000Y-111084000D01*
X97042504Y-111085204D01*
X97042504Y-111085204D01*
G37*
D16*
X96393000Y-111796500D03*
%TD*%
D15*
%TO.C,C7*%
G36*
X142127504Y-114949204D02*
G01*
X142151773Y-114952804D01*
X142175571Y-114958765D01*
X142198671Y-114967030D01*
X142220849Y-114977520D01*
X142241893Y-114990133D01*
X142261598Y-115004747D01*
X142279777Y-115021223D01*
X142296253Y-115039402D01*
X142310867Y-115059107D01*
X142323480Y-115080151D01*
X142333970Y-115102329D01*
X142342235Y-115125429D01*
X142348196Y-115149227D01*
X142351796Y-115173496D01*
X142353000Y-115198000D01*
X142353000Y-116123000D01*
X142351796Y-116147504D01*
X142348196Y-116171773D01*
X142342235Y-116195571D01*
X142333970Y-116218671D01*
X142323480Y-116240849D01*
X142310867Y-116261893D01*
X142296253Y-116281598D01*
X142279777Y-116299777D01*
X142261598Y-116316253D01*
X142241893Y-116330867D01*
X142220849Y-116343480D01*
X142198671Y-116353970D01*
X142175571Y-116362235D01*
X142151773Y-116368196D01*
X142127504Y-116371796D01*
X142103000Y-116373000D01*
X140853000Y-116373000D01*
X140828496Y-116371796D01*
X140804227Y-116368196D01*
X140780429Y-116362235D01*
X140757329Y-116353970D01*
X140735151Y-116343480D01*
X140714107Y-116330867D01*
X140694402Y-116316253D01*
X140676223Y-116299777D01*
X140659747Y-116281598D01*
X140645133Y-116261893D01*
X140632520Y-116240849D01*
X140622030Y-116218671D01*
X140613765Y-116195571D01*
X140607804Y-116171773D01*
X140604204Y-116147504D01*
X140603000Y-116123000D01*
X140603000Y-115198000D01*
X140604204Y-115173496D01*
X140607804Y-115149227D01*
X140613765Y-115125429D01*
X140622030Y-115102329D01*
X140632520Y-115080151D01*
X140645133Y-115059107D01*
X140659747Y-115039402D01*
X140676223Y-115021223D01*
X140694402Y-115004747D01*
X140714107Y-114990133D01*
X140735151Y-114977520D01*
X140757329Y-114967030D01*
X140780429Y-114958765D01*
X140804227Y-114952804D01*
X140828496Y-114949204D01*
X140853000Y-114948000D01*
X142103000Y-114948000D01*
X142127504Y-114949204D01*
X142127504Y-114949204D01*
G37*
D16*
X141478000Y-115660500D03*
D15*
G36*
X142127504Y-111974204D02*
G01*
X142151773Y-111977804D01*
X142175571Y-111983765D01*
X142198671Y-111992030D01*
X142220849Y-112002520D01*
X142241893Y-112015133D01*
X142261598Y-112029747D01*
X142279777Y-112046223D01*
X142296253Y-112064402D01*
X142310867Y-112084107D01*
X142323480Y-112105151D01*
X142333970Y-112127329D01*
X142342235Y-112150429D01*
X142348196Y-112174227D01*
X142351796Y-112198496D01*
X142353000Y-112223000D01*
X142353000Y-113148000D01*
X142351796Y-113172504D01*
X142348196Y-113196773D01*
X142342235Y-113220571D01*
X142333970Y-113243671D01*
X142323480Y-113265849D01*
X142310867Y-113286893D01*
X142296253Y-113306598D01*
X142279777Y-113324777D01*
X142261598Y-113341253D01*
X142241893Y-113355867D01*
X142220849Y-113368480D01*
X142198671Y-113378970D01*
X142175571Y-113387235D01*
X142151773Y-113393196D01*
X142127504Y-113396796D01*
X142103000Y-113398000D01*
X140853000Y-113398000D01*
X140828496Y-113396796D01*
X140804227Y-113393196D01*
X140780429Y-113387235D01*
X140757329Y-113378970D01*
X140735151Y-113368480D01*
X140714107Y-113355867D01*
X140694402Y-113341253D01*
X140676223Y-113324777D01*
X140659747Y-113306598D01*
X140645133Y-113286893D01*
X140632520Y-113265849D01*
X140622030Y-113243671D01*
X140613765Y-113220571D01*
X140607804Y-113196773D01*
X140604204Y-113172504D01*
X140603000Y-113148000D01*
X140603000Y-112223000D01*
X140604204Y-112198496D01*
X140607804Y-112174227D01*
X140613765Y-112150429D01*
X140622030Y-112127329D01*
X140632520Y-112105151D01*
X140645133Y-112084107D01*
X140659747Y-112064402D01*
X140676223Y-112046223D01*
X140694402Y-112029747D01*
X140714107Y-112015133D01*
X140735151Y-112002520D01*
X140757329Y-111992030D01*
X140780429Y-111983765D01*
X140804227Y-111977804D01*
X140828496Y-111974204D01*
X140853000Y-111973000D01*
X142103000Y-111973000D01*
X142127504Y-111974204D01*
X142127504Y-111974204D01*
G37*
D16*
X141478000Y-112685500D03*
%TD*%
D15*
%TO.C,C8*%
G36*
X158383504Y-116165204D02*
G01*
X158407773Y-116168804D01*
X158431571Y-116174765D01*
X158454671Y-116183030D01*
X158476849Y-116193520D01*
X158497893Y-116206133D01*
X158517598Y-116220747D01*
X158535777Y-116237223D01*
X158552253Y-116255402D01*
X158566867Y-116275107D01*
X158579480Y-116296151D01*
X158589970Y-116318329D01*
X158598235Y-116341429D01*
X158604196Y-116365227D01*
X158607796Y-116389496D01*
X158609000Y-116414000D01*
X158609000Y-117339000D01*
X158607796Y-117363504D01*
X158604196Y-117387773D01*
X158598235Y-117411571D01*
X158589970Y-117434671D01*
X158579480Y-117456849D01*
X158566867Y-117477893D01*
X158552253Y-117497598D01*
X158535777Y-117515777D01*
X158517598Y-117532253D01*
X158497893Y-117546867D01*
X158476849Y-117559480D01*
X158454671Y-117569970D01*
X158431571Y-117578235D01*
X158407773Y-117584196D01*
X158383504Y-117587796D01*
X158359000Y-117589000D01*
X157109000Y-117589000D01*
X157084496Y-117587796D01*
X157060227Y-117584196D01*
X157036429Y-117578235D01*
X157013329Y-117569970D01*
X156991151Y-117559480D01*
X156970107Y-117546867D01*
X156950402Y-117532253D01*
X156932223Y-117515777D01*
X156915747Y-117497598D01*
X156901133Y-117477893D01*
X156888520Y-117456849D01*
X156878030Y-117434671D01*
X156869765Y-117411571D01*
X156863804Y-117387773D01*
X156860204Y-117363504D01*
X156859000Y-117339000D01*
X156859000Y-116414000D01*
X156860204Y-116389496D01*
X156863804Y-116365227D01*
X156869765Y-116341429D01*
X156878030Y-116318329D01*
X156888520Y-116296151D01*
X156901133Y-116275107D01*
X156915747Y-116255402D01*
X156932223Y-116237223D01*
X156950402Y-116220747D01*
X156970107Y-116206133D01*
X156991151Y-116193520D01*
X157013329Y-116183030D01*
X157036429Y-116174765D01*
X157060227Y-116168804D01*
X157084496Y-116165204D01*
X157109000Y-116164000D01*
X158359000Y-116164000D01*
X158383504Y-116165204D01*
X158383504Y-116165204D01*
G37*
D16*
X157734000Y-116876500D03*
D15*
G36*
X158383504Y-119140204D02*
G01*
X158407773Y-119143804D01*
X158431571Y-119149765D01*
X158454671Y-119158030D01*
X158476849Y-119168520D01*
X158497893Y-119181133D01*
X158517598Y-119195747D01*
X158535777Y-119212223D01*
X158552253Y-119230402D01*
X158566867Y-119250107D01*
X158579480Y-119271151D01*
X158589970Y-119293329D01*
X158598235Y-119316429D01*
X158604196Y-119340227D01*
X158607796Y-119364496D01*
X158609000Y-119389000D01*
X158609000Y-120314000D01*
X158607796Y-120338504D01*
X158604196Y-120362773D01*
X158598235Y-120386571D01*
X158589970Y-120409671D01*
X158579480Y-120431849D01*
X158566867Y-120452893D01*
X158552253Y-120472598D01*
X158535777Y-120490777D01*
X158517598Y-120507253D01*
X158497893Y-120521867D01*
X158476849Y-120534480D01*
X158454671Y-120544970D01*
X158431571Y-120553235D01*
X158407773Y-120559196D01*
X158383504Y-120562796D01*
X158359000Y-120564000D01*
X157109000Y-120564000D01*
X157084496Y-120562796D01*
X157060227Y-120559196D01*
X157036429Y-120553235D01*
X157013329Y-120544970D01*
X156991151Y-120534480D01*
X156970107Y-120521867D01*
X156950402Y-120507253D01*
X156932223Y-120490777D01*
X156915747Y-120472598D01*
X156901133Y-120452893D01*
X156888520Y-120431849D01*
X156878030Y-120409671D01*
X156869765Y-120386571D01*
X156863804Y-120362773D01*
X156860204Y-120338504D01*
X156859000Y-120314000D01*
X156859000Y-119389000D01*
X156860204Y-119364496D01*
X156863804Y-119340227D01*
X156869765Y-119316429D01*
X156878030Y-119293329D01*
X156888520Y-119271151D01*
X156901133Y-119250107D01*
X156915747Y-119230402D01*
X156932223Y-119212223D01*
X156950402Y-119195747D01*
X156970107Y-119181133D01*
X156991151Y-119168520D01*
X157013329Y-119158030D01*
X157036429Y-119149765D01*
X157060227Y-119143804D01*
X157084496Y-119140204D01*
X157109000Y-119139000D01*
X158359000Y-119139000D01*
X158383504Y-119140204D01*
X158383504Y-119140204D01*
G37*
D16*
X157734000Y-119851500D03*
%TD*%
D15*
%TO.C,C9*%
G36*
X162883504Y-94503204D02*
G01*
X162907773Y-94506804D01*
X162931571Y-94512765D01*
X162954671Y-94521030D01*
X162976849Y-94531520D01*
X162997893Y-94544133D01*
X163017598Y-94558747D01*
X163035777Y-94575223D01*
X163052253Y-94593402D01*
X163066867Y-94613107D01*
X163079480Y-94634151D01*
X163089970Y-94656329D01*
X163098235Y-94679429D01*
X163104196Y-94703227D01*
X163107796Y-94727496D01*
X163109000Y-94752000D01*
X163109000Y-96002000D01*
X163107796Y-96026504D01*
X163104196Y-96050773D01*
X163098235Y-96074571D01*
X163089970Y-96097671D01*
X163079480Y-96119849D01*
X163066867Y-96140893D01*
X163052253Y-96160598D01*
X163035777Y-96178777D01*
X163017598Y-96195253D01*
X162997893Y-96209867D01*
X162976849Y-96222480D01*
X162954671Y-96232970D01*
X162931571Y-96241235D01*
X162907773Y-96247196D01*
X162883504Y-96250796D01*
X162859000Y-96252000D01*
X161934000Y-96252000D01*
X161909496Y-96250796D01*
X161885227Y-96247196D01*
X161861429Y-96241235D01*
X161838329Y-96232970D01*
X161816151Y-96222480D01*
X161795107Y-96209867D01*
X161775402Y-96195253D01*
X161757223Y-96178777D01*
X161740747Y-96160598D01*
X161726133Y-96140893D01*
X161713520Y-96119849D01*
X161703030Y-96097671D01*
X161694765Y-96074571D01*
X161688804Y-96050773D01*
X161685204Y-96026504D01*
X161684000Y-96002000D01*
X161684000Y-94752000D01*
X161685204Y-94727496D01*
X161688804Y-94703227D01*
X161694765Y-94679429D01*
X161703030Y-94656329D01*
X161713520Y-94634151D01*
X161726133Y-94613107D01*
X161740747Y-94593402D01*
X161757223Y-94575223D01*
X161775402Y-94558747D01*
X161795107Y-94544133D01*
X161816151Y-94531520D01*
X161838329Y-94521030D01*
X161861429Y-94512765D01*
X161885227Y-94506804D01*
X161909496Y-94503204D01*
X161934000Y-94502000D01*
X162859000Y-94502000D01*
X162883504Y-94503204D01*
X162883504Y-94503204D01*
G37*
D16*
X162396500Y-95377000D03*
D15*
G36*
X159908504Y-94503204D02*
G01*
X159932773Y-94506804D01*
X159956571Y-94512765D01*
X159979671Y-94521030D01*
X160001849Y-94531520D01*
X160022893Y-94544133D01*
X160042598Y-94558747D01*
X160060777Y-94575223D01*
X160077253Y-94593402D01*
X160091867Y-94613107D01*
X160104480Y-94634151D01*
X160114970Y-94656329D01*
X160123235Y-94679429D01*
X160129196Y-94703227D01*
X160132796Y-94727496D01*
X160134000Y-94752000D01*
X160134000Y-96002000D01*
X160132796Y-96026504D01*
X160129196Y-96050773D01*
X160123235Y-96074571D01*
X160114970Y-96097671D01*
X160104480Y-96119849D01*
X160091867Y-96140893D01*
X160077253Y-96160598D01*
X160060777Y-96178777D01*
X160042598Y-96195253D01*
X160022893Y-96209867D01*
X160001849Y-96222480D01*
X159979671Y-96232970D01*
X159956571Y-96241235D01*
X159932773Y-96247196D01*
X159908504Y-96250796D01*
X159884000Y-96252000D01*
X158959000Y-96252000D01*
X158934496Y-96250796D01*
X158910227Y-96247196D01*
X158886429Y-96241235D01*
X158863329Y-96232970D01*
X158841151Y-96222480D01*
X158820107Y-96209867D01*
X158800402Y-96195253D01*
X158782223Y-96178777D01*
X158765747Y-96160598D01*
X158751133Y-96140893D01*
X158738520Y-96119849D01*
X158728030Y-96097671D01*
X158719765Y-96074571D01*
X158713804Y-96050773D01*
X158710204Y-96026504D01*
X158709000Y-96002000D01*
X158709000Y-94752000D01*
X158710204Y-94727496D01*
X158713804Y-94703227D01*
X158719765Y-94679429D01*
X158728030Y-94656329D01*
X158738520Y-94634151D01*
X158751133Y-94613107D01*
X158765747Y-94593402D01*
X158782223Y-94575223D01*
X158800402Y-94558747D01*
X158820107Y-94544133D01*
X158841151Y-94531520D01*
X158863329Y-94521030D01*
X158886429Y-94512765D01*
X158910227Y-94506804D01*
X158934496Y-94503204D01*
X158959000Y-94502000D01*
X159884000Y-94502000D01*
X159908504Y-94503204D01*
X159908504Y-94503204D01*
G37*
D16*
X159421500Y-95377000D03*
%TD*%
D15*
%TO.C,C10*%
G36*
X174131504Y-106894204D02*
G01*
X174155773Y-106897804D01*
X174179571Y-106903765D01*
X174202671Y-106912030D01*
X174224849Y-106922520D01*
X174245893Y-106935133D01*
X174265598Y-106949747D01*
X174283777Y-106966223D01*
X174300253Y-106984402D01*
X174314867Y-107004107D01*
X174327480Y-107025151D01*
X174337970Y-107047329D01*
X174346235Y-107070429D01*
X174352196Y-107094227D01*
X174355796Y-107118496D01*
X174357000Y-107143000D01*
X174357000Y-108068000D01*
X174355796Y-108092504D01*
X174352196Y-108116773D01*
X174346235Y-108140571D01*
X174337970Y-108163671D01*
X174327480Y-108185849D01*
X174314867Y-108206893D01*
X174300253Y-108226598D01*
X174283777Y-108244777D01*
X174265598Y-108261253D01*
X174245893Y-108275867D01*
X174224849Y-108288480D01*
X174202671Y-108298970D01*
X174179571Y-108307235D01*
X174155773Y-108313196D01*
X174131504Y-108316796D01*
X174107000Y-108318000D01*
X172857000Y-108318000D01*
X172832496Y-108316796D01*
X172808227Y-108313196D01*
X172784429Y-108307235D01*
X172761329Y-108298970D01*
X172739151Y-108288480D01*
X172718107Y-108275867D01*
X172698402Y-108261253D01*
X172680223Y-108244777D01*
X172663747Y-108226598D01*
X172649133Y-108206893D01*
X172636520Y-108185849D01*
X172626030Y-108163671D01*
X172617765Y-108140571D01*
X172611804Y-108116773D01*
X172608204Y-108092504D01*
X172607000Y-108068000D01*
X172607000Y-107143000D01*
X172608204Y-107118496D01*
X172611804Y-107094227D01*
X172617765Y-107070429D01*
X172626030Y-107047329D01*
X172636520Y-107025151D01*
X172649133Y-107004107D01*
X172663747Y-106984402D01*
X172680223Y-106966223D01*
X172698402Y-106949747D01*
X172718107Y-106935133D01*
X172739151Y-106922520D01*
X172761329Y-106912030D01*
X172784429Y-106903765D01*
X172808227Y-106897804D01*
X172832496Y-106894204D01*
X172857000Y-106893000D01*
X174107000Y-106893000D01*
X174131504Y-106894204D01*
X174131504Y-106894204D01*
G37*
D16*
X173482000Y-107605500D03*
D15*
G36*
X174131504Y-109869204D02*
G01*
X174155773Y-109872804D01*
X174179571Y-109878765D01*
X174202671Y-109887030D01*
X174224849Y-109897520D01*
X174245893Y-109910133D01*
X174265598Y-109924747D01*
X174283777Y-109941223D01*
X174300253Y-109959402D01*
X174314867Y-109979107D01*
X174327480Y-110000151D01*
X174337970Y-110022329D01*
X174346235Y-110045429D01*
X174352196Y-110069227D01*
X174355796Y-110093496D01*
X174357000Y-110118000D01*
X174357000Y-111043000D01*
X174355796Y-111067504D01*
X174352196Y-111091773D01*
X174346235Y-111115571D01*
X174337970Y-111138671D01*
X174327480Y-111160849D01*
X174314867Y-111181893D01*
X174300253Y-111201598D01*
X174283777Y-111219777D01*
X174265598Y-111236253D01*
X174245893Y-111250867D01*
X174224849Y-111263480D01*
X174202671Y-111273970D01*
X174179571Y-111282235D01*
X174155773Y-111288196D01*
X174131504Y-111291796D01*
X174107000Y-111293000D01*
X172857000Y-111293000D01*
X172832496Y-111291796D01*
X172808227Y-111288196D01*
X172784429Y-111282235D01*
X172761329Y-111273970D01*
X172739151Y-111263480D01*
X172718107Y-111250867D01*
X172698402Y-111236253D01*
X172680223Y-111219777D01*
X172663747Y-111201598D01*
X172649133Y-111181893D01*
X172636520Y-111160849D01*
X172626030Y-111138671D01*
X172617765Y-111115571D01*
X172611804Y-111091773D01*
X172608204Y-111067504D01*
X172607000Y-111043000D01*
X172607000Y-110118000D01*
X172608204Y-110093496D01*
X172611804Y-110069227D01*
X172617765Y-110045429D01*
X172626030Y-110022329D01*
X172636520Y-110000151D01*
X172649133Y-109979107D01*
X172663747Y-109959402D01*
X172680223Y-109941223D01*
X172698402Y-109924747D01*
X172718107Y-109910133D01*
X172739151Y-109897520D01*
X172761329Y-109887030D01*
X172784429Y-109878765D01*
X172808227Y-109872804D01*
X172832496Y-109869204D01*
X172857000Y-109868000D01*
X174107000Y-109868000D01*
X174131504Y-109869204D01*
X174131504Y-109869204D01*
G37*
D16*
X173482000Y-110580500D03*
%TD*%
D15*
%TO.C,C11*%
G36*
X168925504Y-112410204D02*
G01*
X168949773Y-112413804D01*
X168973571Y-112419765D01*
X168996671Y-112428030D01*
X169018849Y-112438520D01*
X169039893Y-112451133D01*
X169059598Y-112465747D01*
X169077777Y-112482223D01*
X169094253Y-112500402D01*
X169108867Y-112520107D01*
X169121480Y-112541151D01*
X169131970Y-112563329D01*
X169140235Y-112586429D01*
X169146196Y-112610227D01*
X169149796Y-112634496D01*
X169151000Y-112659000D01*
X169151000Y-113909000D01*
X169149796Y-113933504D01*
X169146196Y-113957773D01*
X169140235Y-113981571D01*
X169131970Y-114004671D01*
X169121480Y-114026849D01*
X169108867Y-114047893D01*
X169094253Y-114067598D01*
X169077777Y-114085777D01*
X169059598Y-114102253D01*
X169039893Y-114116867D01*
X169018849Y-114129480D01*
X168996671Y-114139970D01*
X168973571Y-114148235D01*
X168949773Y-114154196D01*
X168925504Y-114157796D01*
X168901000Y-114159000D01*
X167976000Y-114159000D01*
X167951496Y-114157796D01*
X167927227Y-114154196D01*
X167903429Y-114148235D01*
X167880329Y-114139970D01*
X167858151Y-114129480D01*
X167837107Y-114116867D01*
X167817402Y-114102253D01*
X167799223Y-114085777D01*
X167782747Y-114067598D01*
X167768133Y-114047893D01*
X167755520Y-114026849D01*
X167745030Y-114004671D01*
X167736765Y-113981571D01*
X167730804Y-113957773D01*
X167727204Y-113933504D01*
X167726000Y-113909000D01*
X167726000Y-112659000D01*
X167727204Y-112634496D01*
X167730804Y-112610227D01*
X167736765Y-112586429D01*
X167745030Y-112563329D01*
X167755520Y-112541151D01*
X167768133Y-112520107D01*
X167782747Y-112500402D01*
X167799223Y-112482223D01*
X167817402Y-112465747D01*
X167837107Y-112451133D01*
X167858151Y-112438520D01*
X167880329Y-112428030D01*
X167903429Y-112419765D01*
X167927227Y-112413804D01*
X167951496Y-112410204D01*
X167976000Y-112409000D01*
X168901000Y-112409000D01*
X168925504Y-112410204D01*
X168925504Y-112410204D01*
G37*
D16*
X168438500Y-113284000D03*
D15*
G36*
X171900504Y-112410204D02*
G01*
X171924773Y-112413804D01*
X171948571Y-112419765D01*
X171971671Y-112428030D01*
X171993849Y-112438520D01*
X172014893Y-112451133D01*
X172034598Y-112465747D01*
X172052777Y-112482223D01*
X172069253Y-112500402D01*
X172083867Y-112520107D01*
X172096480Y-112541151D01*
X172106970Y-112563329D01*
X172115235Y-112586429D01*
X172121196Y-112610227D01*
X172124796Y-112634496D01*
X172126000Y-112659000D01*
X172126000Y-113909000D01*
X172124796Y-113933504D01*
X172121196Y-113957773D01*
X172115235Y-113981571D01*
X172106970Y-114004671D01*
X172096480Y-114026849D01*
X172083867Y-114047893D01*
X172069253Y-114067598D01*
X172052777Y-114085777D01*
X172034598Y-114102253D01*
X172014893Y-114116867D01*
X171993849Y-114129480D01*
X171971671Y-114139970D01*
X171948571Y-114148235D01*
X171924773Y-114154196D01*
X171900504Y-114157796D01*
X171876000Y-114159000D01*
X170951000Y-114159000D01*
X170926496Y-114157796D01*
X170902227Y-114154196D01*
X170878429Y-114148235D01*
X170855329Y-114139970D01*
X170833151Y-114129480D01*
X170812107Y-114116867D01*
X170792402Y-114102253D01*
X170774223Y-114085777D01*
X170757747Y-114067598D01*
X170743133Y-114047893D01*
X170730520Y-114026849D01*
X170720030Y-114004671D01*
X170711765Y-113981571D01*
X170705804Y-113957773D01*
X170702204Y-113933504D01*
X170701000Y-113909000D01*
X170701000Y-112659000D01*
X170702204Y-112634496D01*
X170705804Y-112610227D01*
X170711765Y-112586429D01*
X170720030Y-112563329D01*
X170730520Y-112541151D01*
X170743133Y-112520107D01*
X170757747Y-112500402D01*
X170774223Y-112482223D01*
X170792402Y-112465747D01*
X170812107Y-112451133D01*
X170833151Y-112438520D01*
X170855329Y-112428030D01*
X170878429Y-112419765D01*
X170902227Y-112413804D01*
X170926496Y-112410204D01*
X170951000Y-112409000D01*
X171876000Y-112409000D01*
X171900504Y-112410204D01*
X171900504Y-112410204D01*
G37*
D16*
X171413500Y-113284000D03*
%TD*%
D15*
%TO.C,C13*%
G36*
X107203504Y-113172204D02*
G01*
X107227773Y-113175804D01*
X107251571Y-113181765D01*
X107274671Y-113190030D01*
X107296849Y-113200520D01*
X107317893Y-113213133D01*
X107337598Y-113227747D01*
X107355777Y-113244223D01*
X107372253Y-113262402D01*
X107386867Y-113282107D01*
X107399480Y-113303151D01*
X107409970Y-113325329D01*
X107418235Y-113348429D01*
X107424196Y-113372227D01*
X107427796Y-113396496D01*
X107429000Y-113421000D01*
X107429000Y-114671000D01*
X107427796Y-114695504D01*
X107424196Y-114719773D01*
X107418235Y-114743571D01*
X107409970Y-114766671D01*
X107399480Y-114788849D01*
X107386867Y-114809893D01*
X107372253Y-114829598D01*
X107355777Y-114847777D01*
X107337598Y-114864253D01*
X107317893Y-114878867D01*
X107296849Y-114891480D01*
X107274671Y-114901970D01*
X107251571Y-114910235D01*
X107227773Y-114916196D01*
X107203504Y-114919796D01*
X107179000Y-114921000D01*
X106254000Y-114921000D01*
X106229496Y-114919796D01*
X106205227Y-114916196D01*
X106181429Y-114910235D01*
X106158329Y-114901970D01*
X106136151Y-114891480D01*
X106115107Y-114878867D01*
X106095402Y-114864253D01*
X106077223Y-114847777D01*
X106060747Y-114829598D01*
X106046133Y-114809893D01*
X106033520Y-114788849D01*
X106023030Y-114766671D01*
X106014765Y-114743571D01*
X106008804Y-114719773D01*
X106005204Y-114695504D01*
X106004000Y-114671000D01*
X106004000Y-113421000D01*
X106005204Y-113396496D01*
X106008804Y-113372227D01*
X106014765Y-113348429D01*
X106023030Y-113325329D01*
X106033520Y-113303151D01*
X106046133Y-113282107D01*
X106060747Y-113262402D01*
X106077223Y-113244223D01*
X106095402Y-113227747D01*
X106115107Y-113213133D01*
X106136151Y-113200520D01*
X106158329Y-113190030D01*
X106181429Y-113181765D01*
X106205227Y-113175804D01*
X106229496Y-113172204D01*
X106254000Y-113171000D01*
X107179000Y-113171000D01*
X107203504Y-113172204D01*
X107203504Y-113172204D01*
G37*
D16*
X106716500Y-114046000D03*
D15*
G36*
X110178504Y-113172204D02*
G01*
X110202773Y-113175804D01*
X110226571Y-113181765D01*
X110249671Y-113190030D01*
X110271849Y-113200520D01*
X110292893Y-113213133D01*
X110312598Y-113227747D01*
X110330777Y-113244223D01*
X110347253Y-113262402D01*
X110361867Y-113282107D01*
X110374480Y-113303151D01*
X110384970Y-113325329D01*
X110393235Y-113348429D01*
X110399196Y-113372227D01*
X110402796Y-113396496D01*
X110404000Y-113421000D01*
X110404000Y-114671000D01*
X110402796Y-114695504D01*
X110399196Y-114719773D01*
X110393235Y-114743571D01*
X110384970Y-114766671D01*
X110374480Y-114788849D01*
X110361867Y-114809893D01*
X110347253Y-114829598D01*
X110330777Y-114847777D01*
X110312598Y-114864253D01*
X110292893Y-114878867D01*
X110271849Y-114891480D01*
X110249671Y-114901970D01*
X110226571Y-114910235D01*
X110202773Y-114916196D01*
X110178504Y-114919796D01*
X110154000Y-114921000D01*
X109229000Y-114921000D01*
X109204496Y-114919796D01*
X109180227Y-114916196D01*
X109156429Y-114910235D01*
X109133329Y-114901970D01*
X109111151Y-114891480D01*
X109090107Y-114878867D01*
X109070402Y-114864253D01*
X109052223Y-114847777D01*
X109035747Y-114829598D01*
X109021133Y-114809893D01*
X109008520Y-114788849D01*
X108998030Y-114766671D01*
X108989765Y-114743571D01*
X108983804Y-114719773D01*
X108980204Y-114695504D01*
X108979000Y-114671000D01*
X108979000Y-113421000D01*
X108980204Y-113396496D01*
X108983804Y-113372227D01*
X108989765Y-113348429D01*
X108998030Y-113325329D01*
X109008520Y-113303151D01*
X109021133Y-113282107D01*
X109035747Y-113262402D01*
X109052223Y-113244223D01*
X109070402Y-113227747D01*
X109090107Y-113213133D01*
X109111151Y-113200520D01*
X109133329Y-113190030D01*
X109156429Y-113181765D01*
X109180227Y-113175804D01*
X109204496Y-113172204D01*
X109229000Y-113171000D01*
X110154000Y-113171000D01*
X110178504Y-113172204D01*
X110178504Y-113172204D01*
G37*
D16*
X109691500Y-114046000D03*
%TD*%
D15*
%TO.C,C14*%
G36*
X185308504Y-92471204D02*
G01*
X185332773Y-92474804D01*
X185356571Y-92480765D01*
X185379671Y-92489030D01*
X185401849Y-92499520D01*
X185422893Y-92512133D01*
X185442598Y-92526747D01*
X185460777Y-92543223D01*
X185477253Y-92561402D01*
X185491867Y-92581107D01*
X185504480Y-92602151D01*
X185514970Y-92624329D01*
X185523235Y-92647429D01*
X185529196Y-92671227D01*
X185532796Y-92695496D01*
X185534000Y-92720000D01*
X185534000Y-93970000D01*
X185532796Y-93994504D01*
X185529196Y-94018773D01*
X185523235Y-94042571D01*
X185514970Y-94065671D01*
X185504480Y-94087849D01*
X185491867Y-94108893D01*
X185477253Y-94128598D01*
X185460777Y-94146777D01*
X185442598Y-94163253D01*
X185422893Y-94177867D01*
X185401849Y-94190480D01*
X185379671Y-94200970D01*
X185356571Y-94209235D01*
X185332773Y-94215196D01*
X185308504Y-94218796D01*
X185284000Y-94220000D01*
X184359000Y-94220000D01*
X184334496Y-94218796D01*
X184310227Y-94215196D01*
X184286429Y-94209235D01*
X184263329Y-94200970D01*
X184241151Y-94190480D01*
X184220107Y-94177867D01*
X184200402Y-94163253D01*
X184182223Y-94146777D01*
X184165747Y-94128598D01*
X184151133Y-94108893D01*
X184138520Y-94087849D01*
X184128030Y-94065671D01*
X184119765Y-94042571D01*
X184113804Y-94018773D01*
X184110204Y-93994504D01*
X184109000Y-93970000D01*
X184109000Y-92720000D01*
X184110204Y-92695496D01*
X184113804Y-92671227D01*
X184119765Y-92647429D01*
X184128030Y-92624329D01*
X184138520Y-92602151D01*
X184151133Y-92581107D01*
X184165747Y-92561402D01*
X184182223Y-92543223D01*
X184200402Y-92526747D01*
X184220107Y-92512133D01*
X184241151Y-92499520D01*
X184263329Y-92489030D01*
X184286429Y-92480765D01*
X184310227Y-92474804D01*
X184334496Y-92471204D01*
X184359000Y-92470000D01*
X185284000Y-92470000D01*
X185308504Y-92471204D01*
X185308504Y-92471204D01*
G37*
D16*
X184821500Y-93345000D03*
D15*
G36*
X188283504Y-92471204D02*
G01*
X188307773Y-92474804D01*
X188331571Y-92480765D01*
X188354671Y-92489030D01*
X188376849Y-92499520D01*
X188397893Y-92512133D01*
X188417598Y-92526747D01*
X188435777Y-92543223D01*
X188452253Y-92561402D01*
X188466867Y-92581107D01*
X188479480Y-92602151D01*
X188489970Y-92624329D01*
X188498235Y-92647429D01*
X188504196Y-92671227D01*
X188507796Y-92695496D01*
X188509000Y-92720000D01*
X188509000Y-93970000D01*
X188507796Y-93994504D01*
X188504196Y-94018773D01*
X188498235Y-94042571D01*
X188489970Y-94065671D01*
X188479480Y-94087849D01*
X188466867Y-94108893D01*
X188452253Y-94128598D01*
X188435777Y-94146777D01*
X188417598Y-94163253D01*
X188397893Y-94177867D01*
X188376849Y-94190480D01*
X188354671Y-94200970D01*
X188331571Y-94209235D01*
X188307773Y-94215196D01*
X188283504Y-94218796D01*
X188259000Y-94220000D01*
X187334000Y-94220000D01*
X187309496Y-94218796D01*
X187285227Y-94215196D01*
X187261429Y-94209235D01*
X187238329Y-94200970D01*
X187216151Y-94190480D01*
X187195107Y-94177867D01*
X187175402Y-94163253D01*
X187157223Y-94146777D01*
X187140747Y-94128598D01*
X187126133Y-94108893D01*
X187113520Y-94087849D01*
X187103030Y-94065671D01*
X187094765Y-94042571D01*
X187088804Y-94018773D01*
X187085204Y-93994504D01*
X187084000Y-93970000D01*
X187084000Y-92720000D01*
X187085204Y-92695496D01*
X187088804Y-92671227D01*
X187094765Y-92647429D01*
X187103030Y-92624329D01*
X187113520Y-92602151D01*
X187126133Y-92581107D01*
X187140747Y-92561402D01*
X187157223Y-92543223D01*
X187175402Y-92526747D01*
X187195107Y-92512133D01*
X187216151Y-92499520D01*
X187238329Y-92489030D01*
X187261429Y-92480765D01*
X187285227Y-92474804D01*
X187309496Y-92471204D01*
X187334000Y-92470000D01*
X188259000Y-92470000D01*
X188283504Y-92471204D01*
X188283504Y-92471204D01*
G37*
D16*
X187796500Y-93345000D03*
%TD*%
D15*
%TO.C,C15*%
G36*
X155843504Y-112790204D02*
G01*
X155867773Y-112793804D01*
X155891571Y-112799765D01*
X155914671Y-112808030D01*
X155936849Y-112818520D01*
X155957893Y-112831133D01*
X155977598Y-112845747D01*
X155995777Y-112862223D01*
X156012253Y-112880402D01*
X156026867Y-112900107D01*
X156039480Y-112921151D01*
X156049970Y-112943329D01*
X156058235Y-112966429D01*
X156064196Y-112990227D01*
X156067796Y-113014496D01*
X156069000Y-113039000D01*
X156069000Y-113964000D01*
X156067796Y-113988504D01*
X156064196Y-114012773D01*
X156058235Y-114036571D01*
X156049970Y-114059671D01*
X156039480Y-114081849D01*
X156026867Y-114102893D01*
X156012253Y-114122598D01*
X155995777Y-114140777D01*
X155977598Y-114157253D01*
X155957893Y-114171867D01*
X155936849Y-114184480D01*
X155914671Y-114194970D01*
X155891571Y-114203235D01*
X155867773Y-114209196D01*
X155843504Y-114212796D01*
X155819000Y-114214000D01*
X154569000Y-114214000D01*
X154544496Y-114212796D01*
X154520227Y-114209196D01*
X154496429Y-114203235D01*
X154473329Y-114194970D01*
X154451151Y-114184480D01*
X154430107Y-114171867D01*
X154410402Y-114157253D01*
X154392223Y-114140777D01*
X154375747Y-114122598D01*
X154361133Y-114102893D01*
X154348520Y-114081849D01*
X154338030Y-114059671D01*
X154329765Y-114036571D01*
X154323804Y-114012773D01*
X154320204Y-113988504D01*
X154319000Y-113964000D01*
X154319000Y-113039000D01*
X154320204Y-113014496D01*
X154323804Y-112990227D01*
X154329765Y-112966429D01*
X154338030Y-112943329D01*
X154348520Y-112921151D01*
X154361133Y-112900107D01*
X154375747Y-112880402D01*
X154392223Y-112862223D01*
X154410402Y-112845747D01*
X154430107Y-112831133D01*
X154451151Y-112818520D01*
X154473329Y-112808030D01*
X154496429Y-112799765D01*
X154520227Y-112793804D01*
X154544496Y-112790204D01*
X154569000Y-112789000D01*
X155819000Y-112789000D01*
X155843504Y-112790204D01*
X155843504Y-112790204D01*
G37*
D16*
X155194000Y-113501500D03*
D15*
G36*
X155843504Y-109815204D02*
G01*
X155867773Y-109818804D01*
X155891571Y-109824765D01*
X155914671Y-109833030D01*
X155936849Y-109843520D01*
X155957893Y-109856133D01*
X155977598Y-109870747D01*
X155995777Y-109887223D01*
X156012253Y-109905402D01*
X156026867Y-109925107D01*
X156039480Y-109946151D01*
X156049970Y-109968329D01*
X156058235Y-109991429D01*
X156064196Y-110015227D01*
X156067796Y-110039496D01*
X156069000Y-110064000D01*
X156069000Y-110989000D01*
X156067796Y-111013504D01*
X156064196Y-111037773D01*
X156058235Y-111061571D01*
X156049970Y-111084671D01*
X156039480Y-111106849D01*
X156026867Y-111127893D01*
X156012253Y-111147598D01*
X155995777Y-111165777D01*
X155977598Y-111182253D01*
X155957893Y-111196867D01*
X155936849Y-111209480D01*
X155914671Y-111219970D01*
X155891571Y-111228235D01*
X155867773Y-111234196D01*
X155843504Y-111237796D01*
X155819000Y-111239000D01*
X154569000Y-111239000D01*
X154544496Y-111237796D01*
X154520227Y-111234196D01*
X154496429Y-111228235D01*
X154473329Y-111219970D01*
X154451151Y-111209480D01*
X154430107Y-111196867D01*
X154410402Y-111182253D01*
X154392223Y-111165777D01*
X154375747Y-111147598D01*
X154361133Y-111127893D01*
X154348520Y-111106849D01*
X154338030Y-111084671D01*
X154329765Y-111061571D01*
X154323804Y-111037773D01*
X154320204Y-111013504D01*
X154319000Y-110989000D01*
X154319000Y-110064000D01*
X154320204Y-110039496D01*
X154323804Y-110015227D01*
X154329765Y-109991429D01*
X154338030Y-109968329D01*
X154348520Y-109946151D01*
X154361133Y-109925107D01*
X154375747Y-109905402D01*
X154392223Y-109887223D01*
X154410402Y-109870747D01*
X154430107Y-109856133D01*
X154451151Y-109843520D01*
X154473329Y-109833030D01*
X154496429Y-109824765D01*
X154520227Y-109818804D01*
X154544496Y-109815204D01*
X154569000Y-109814000D01*
X155819000Y-109814000D01*
X155843504Y-109815204D01*
X155843504Y-109815204D01*
G37*
D16*
X155194000Y-110526500D03*
%TD*%
D15*
%TO.C,C16*%
G36*
X116727504Y-140730204D02*
G01*
X116751773Y-140733804D01*
X116775571Y-140739765D01*
X116798671Y-140748030D01*
X116820849Y-140758520D01*
X116841893Y-140771133D01*
X116861598Y-140785747D01*
X116879777Y-140802223D01*
X116896253Y-140820402D01*
X116910867Y-140840107D01*
X116923480Y-140861151D01*
X116933970Y-140883329D01*
X116942235Y-140906429D01*
X116948196Y-140930227D01*
X116951796Y-140954496D01*
X116953000Y-140979000D01*
X116953000Y-141904000D01*
X116951796Y-141928504D01*
X116948196Y-141952773D01*
X116942235Y-141976571D01*
X116933970Y-141999671D01*
X116923480Y-142021849D01*
X116910867Y-142042893D01*
X116896253Y-142062598D01*
X116879777Y-142080777D01*
X116861598Y-142097253D01*
X116841893Y-142111867D01*
X116820849Y-142124480D01*
X116798671Y-142134970D01*
X116775571Y-142143235D01*
X116751773Y-142149196D01*
X116727504Y-142152796D01*
X116703000Y-142154000D01*
X115453000Y-142154000D01*
X115428496Y-142152796D01*
X115404227Y-142149196D01*
X115380429Y-142143235D01*
X115357329Y-142134970D01*
X115335151Y-142124480D01*
X115314107Y-142111867D01*
X115294402Y-142097253D01*
X115276223Y-142080777D01*
X115259747Y-142062598D01*
X115245133Y-142042893D01*
X115232520Y-142021849D01*
X115222030Y-141999671D01*
X115213765Y-141976571D01*
X115207804Y-141952773D01*
X115204204Y-141928504D01*
X115203000Y-141904000D01*
X115203000Y-140979000D01*
X115204204Y-140954496D01*
X115207804Y-140930227D01*
X115213765Y-140906429D01*
X115222030Y-140883329D01*
X115232520Y-140861151D01*
X115245133Y-140840107D01*
X115259747Y-140820402D01*
X115276223Y-140802223D01*
X115294402Y-140785747D01*
X115314107Y-140771133D01*
X115335151Y-140758520D01*
X115357329Y-140748030D01*
X115380429Y-140739765D01*
X115404227Y-140733804D01*
X115428496Y-140730204D01*
X115453000Y-140729000D01*
X116703000Y-140729000D01*
X116727504Y-140730204D01*
X116727504Y-140730204D01*
G37*
D16*
X116078000Y-141441500D03*
D15*
G36*
X116727504Y-137755204D02*
G01*
X116751773Y-137758804D01*
X116775571Y-137764765D01*
X116798671Y-137773030D01*
X116820849Y-137783520D01*
X116841893Y-137796133D01*
X116861598Y-137810747D01*
X116879777Y-137827223D01*
X116896253Y-137845402D01*
X116910867Y-137865107D01*
X116923480Y-137886151D01*
X116933970Y-137908329D01*
X116942235Y-137931429D01*
X116948196Y-137955227D01*
X116951796Y-137979496D01*
X116953000Y-138004000D01*
X116953000Y-138929000D01*
X116951796Y-138953504D01*
X116948196Y-138977773D01*
X116942235Y-139001571D01*
X116933970Y-139024671D01*
X116923480Y-139046849D01*
X116910867Y-139067893D01*
X116896253Y-139087598D01*
X116879777Y-139105777D01*
X116861598Y-139122253D01*
X116841893Y-139136867D01*
X116820849Y-139149480D01*
X116798671Y-139159970D01*
X116775571Y-139168235D01*
X116751773Y-139174196D01*
X116727504Y-139177796D01*
X116703000Y-139179000D01*
X115453000Y-139179000D01*
X115428496Y-139177796D01*
X115404227Y-139174196D01*
X115380429Y-139168235D01*
X115357329Y-139159970D01*
X115335151Y-139149480D01*
X115314107Y-139136867D01*
X115294402Y-139122253D01*
X115276223Y-139105777D01*
X115259747Y-139087598D01*
X115245133Y-139067893D01*
X115232520Y-139046849D01*
X115222030Y-139024671D01*
X115213765Y-139001571D01*
X115207804Y-138977773D01*
X115204204Y-138953504D01*
X115203000Y-138929000D01*
X115203000Y-138004000D01*
X115204204Y-137979496D01*
X115207804Y-137955227D01*
X115213765Y-137931429D01*
X115222030Y-137908329D01*
X115232520Y-137886151D01*
X115245133Y-137865107D01*
X115259747Y-137845402D01*
X115276223Y-137827223D01*
X115294402Y-137810747D01*
X115314107Y-137796133D01*
X115335151Y-137783520D01*
X115357329Y-137773030D01*
X115380429Y-137764765D01*
X115404227Y-137758804D01*
X115428496Y-137755204D01*
X115453000Y-137754000D01*
X116703000Y-137754000D01*
X116727504Y-137755204D01*
X116727504Y-137755204D01*
G37*
D16*
X116078000Y-138466500D03*
%TD*%
D15*
%TO.C,C17*%
G36*
X124148504Y-112664204D02*
G01*
X124172773Y-112667804D01*
X124196571Y-112673765D01*
X124219671Y-112682030D01*
X124241849Y-112692520D01*
X124262893Y-112705133D01*
X124282598Y-112719747D01*
X124300777Y-112736223D01*
X124317253Y-112754402D01*
X124331867Y-112774107D01*
X124344480Y-112795151D01*
X124354970Y-112817329D01*
X124363235Y-112840429D01*
X124369196Y-112864227D01*
X124372796Y-112888496D01*
X124374000Y-112913000D01*
X124374000Y-114163000D01*
X124372796Y-114187504D01*
X124369196Y-114211773D01*
X124363235Y-114235571D01*
X124354970Y-114258671D01*
X124344480Y-114280849D01*
X124331867Y-114301893D01*
X124317253Y-114321598D01*
X124300777Y-114339777D01*
X124282598Y-114356253D01*
X124262893Y-114370867D01*
X124241849Y-114383480D01*
X124219671Y-114393970D01*
X124196571Y-114402235D01*
X124172773Y-114408196D01*
X124148504Y-114411796D01*
X124124000Y-114413000D01*
X123199000Y-114413000D01*
X123174496Y-114411796D01*
X123150227Y-114408196D01*
X123126429Y-114402235D01*
X123103329Y-114393970D01*
X123081151Y-114383480D01*
X123060107Y-114370867D01*
X123040402Y-114356253D01*
X123022223Y-114339777D01*
X123005747Y-114321598D01*
X122991133Y-114301893D01*
X122978520Y-114280849D01*
X122968030Y-114258671D01*
X122959765Y-114235571D01*
X122953804Y-114211773D01*
X122950204Y-114187504D01*
X122949000Y-114163000D01*
X122949000Y-112913000D01*
X122950204Y-112888496D01*
X122953804Y-112864227D01*
X122959765Y-112840429D01*
X122968030Y-112817329D01*
X122978520Y-112795151D01*
X122991133Y-112774107D01*
X123005747Y-112754402D01*
X123022223Y-112736223D01*
X123040402Y-112719747D01*
X123060107Y-112705133D01*
X123081151Y-112692520D01*
X123103329Y-112682030D01*
X123126429Y-112673765D01*
X123150227Y-112667804D01*
X123174496Y-112664204D01*
X123199000Y-112663000D01*
X124124000Y-112663000D01*
X124148504Y-112664204D01*
X124148504Y-112664204D01*
G37*
D16*
X123661500Y-113538000D03*
D15*
G36*
X121173504Y-112664204D02*
G01*
X121197773Y-112667804D01*
X121221571Y-112673765D01*
X121244671Y-112682030D01*
X121266849Y-112692520D01*
X121287893Y-112705133D01*
X121307598Y-112719747D01*
X121325777Y-112736223D01*
X121342253Y-112754402D01*
X121356867Y-112774107D01*
X121369480Y-112795151D01*
X121379970Y-112817329D01*
X121388235Y-112840429D01*
X121394196Y-112864227D01*
X121397796Y-112888496D01*
X121399000Y-112913000D01*
X121399000Y-114163000D01*
X121397796Y-114187504D01*
X121394196Y-114211773D01*
X121388235Y-114235571D01*
X121379970Y-114258671D01*
X121369480Y-114280849D01*
X121356867Y-114301893D01*
X121342253Y-114321598D01*
X121325777Y-114339777D01*
X121307598Y-114356253D01*
X121287893Y-114370867D01*
X121266849Y-114383480D01*
X121244671Y-114393970D01*
X121221571Y-114402235D01*
X121197773Y-114408196D01*
X121173504Y-114411796D01*
X121149000Y-114413000D01*
X120224000Y-114413000D01*
X120199496Y-114411796D01*
X120175227Y-114408196D01*
X120151429Y-114402235D01*
X120128329Y-114393970D01*
X120106151Y-114383480D01*
X120085107Y-114370867D01*
X120065402Y-114356253D01*
X120047223Y-114339777D01*
X120030747Y-114321598D01*
X120016133Y-114301893D01*
X120003520Y-114280849D01*
X119993030Y-114258671D01*
X119984765Y-114235571D01*
X119978804Y-114211773D01*
X119975204Y-114187504D01*
X119974000Y-114163000D01*
X119974000Y-112913000D01*
X119975204Y-112888496D01*
X119978804Y-112864227D01*
X119984765Y-112840429D01*
X119993030Y-112817329D01*
X120003520Y-112795151D01*
X120016133Y-112774107D01*
X120030747Y-112754402D01*
X120047223Y-112736223D01*
X120065402Y-112719747D01*
X120085107Y-112705133D01*
X120106151Y-112692520D01*
X120128329Y-112682030D01*
X120151429Y-112673765D01*
X120175227Y-112667804D01*
X120199496Y-112664204D01*
X120224000Y-112663000D01*
X121149000Y-112663000D01*
X121173504Y-112664204D01*
X121173504Y-112664204D01*
G37*
D16*
X120686500Y-113538000D03*
%TD*%
D15*
%TO.C,C18*%
G36*
X107583504Y-140730204D02*
G01*
X107607773Y-140733804D01*
X107631571Y-140739765D01*
X107654671Y-140748030D01*
X107676849Y-140758520D01*
X107697893Y-140771133D01*
X107717598Y-140785747D01*
X107735777Y-140802223D01*
X107752253Y-140820402D01*
X107766867Y-140840107D01*
X107779480Y-140861151D01*
X107789970Y-140883329D01*
X107798235Y-140906429D01*
X107804196Y-140930227D01*
X107807796Y-140954496D01*
X107809000Y-140979000D01*
X107809000Y-141904000D01*
X107807796Y-141928504D01*
X107804196Y-141952773D01*
X107798235Y-141976571D01*
X107789970Y-141999671D01*
X107779480Y-142021849D01*
X107766867Y-142042893D01*
X107752253Y-142062598D01*
X107735777Y-142080777D01*
X107717598Y-142097253D01*
X107697893Y-142111867D01*
X107676849Y-142124480D01*
X107654671Y-142134970D01*
X107631571Y-142143235D01*
X107607773Y-142149196D01*
X107583504Y-142152796D01*
X107559000Y-142154000D01*
X106309000Y-142154000D01*
X106284496Y-142152796D01*
X106260227Y-142149196D01*
X106236429Y-142143235D01*
X106213329Y-142134970D01*
X106191151Y-142124480D01*
X106170107Y-142111867D01*
X106150402Y-142097253D01*
X106132223Y-142080777D01*
X106115747Y-142062598D01*
X106101133Y-142042893D01*
X106088520Y-142021849D01*
X106078030Y-141999671D01*
X106069765Y-141976571D01*
X106063804Y-141952773D01*
X106060204Y-141928504D01*
X106059000Y-141904000D01*
X106059000Y-140979000D01*
X106060204Y-140954496D01*
X106063804Y-140930227D01*
X106069765Y-140906429D01*
X106078030Y-140883329D01*
X106088520Y-140861151D01*
X106101133Y-140840107D01*
X106115747Y-140820402D01*
X106132223Y-140802223D01*
X106150402Y-140785747D01*
X106170107Y-140771133D01*
X106191151Y-140758520D01*
X106213329Y-140748030D01*
X106236429Y-140739765D01*
X106260227Y-140733804D01*
X106284496Y-140730204D01*
X106309000Y-140729000D01*
X107559000Y-140729000D01*
X107583504Y-140730204D01*
X107583504Y-140730204D01*
G37*
D16*
X106934000Y-141441500D03*
D15*
G36*
X107583504Y-137755204D02*
G01*
X107607773Y-137758804D01*
X107631571Y-137764765D01*
X107654671Y-137773030D01*
X107676849Y-137783520D01*
X107697893Y-137796133D01*
X107717598Y-137810747D01*
X107735777Y-137827223D01*
X107752253Y-137845402D01*
X107766867Y-137865107D01*
X107779480Y-137886151D01*
X107789970Y-137908329D01*
X107798235Y-137931429D01*
X107804196Y-137955227D01*
X107807796Y-137979496D01*
X107809000Y-138004000D01*
X107809000Y-138929000D01*
X107807796Y-138953504D01*
X107804196Y-138977773D01*
X107798235Y-139001571D01*
X107789970Y-139024671D01*
X107779480Y-139046849D01*
X107766867Y-139067893D01*
X107752253Y-139087598D01*
X107735777Y-139105777D01*
X107717598Y-139122253D01*
X107697893Y-139136867D01*
X107676849Y-139149480D01*
X107654671Y-139159970D01*
X107631571Y-139168235D01*
X107607773Y-139174196D01*
X107583504Y-139177796D01*
X107559000Y-139179000D01*
X106309000Y-139179000D01*
X106284496Y-139177796D01*
X106260227Y-139174196D01*
X106236429Y-139168235D01*
X106213329Y-139159970D01*
X106191151Y-139149480D01*
X106170107Y-139136867D01*
X106150402Y-139122253D01*
X106132223Y-139105777D01*
X106115747Y-139087598D01*
X106101133Y-139067893D01*
X106088520Y-139046849D01*
X106078030Y-139024671D01*
X106069765Y-139001571D01*
X106063804Y-138977773D01*
X106060204Y-138953504D01*
X106059000Y-138929000D01*
X106059000Y-138004000D01*
X106060204Y-137979496D01*
X106063804Y-137955227D01*
X106069765Y-137931429D01*
X106078030Y-137908329D01*
X106088520Y-137886151D01*
X106101133Y-137865107D01*
X106115747Y-137845402D01*
X106132223Y-137827223D01*
X106150402Y-137810747D01*
X106170107Y-137796133D01*
X106191151Y-137783520D01*
X106213329Y-137773030D01*
X106236429Y-137764765D01*
X106260227Y-137758804D01*
X106284496Y-137755204D01*
X106309000Y-137754000D01*
X107559000Y-137754000D01*
X107583504Y-137755204D01*
X107583504Y-137755204D01*
G37*
D16*
X106934000Y-138466500D03*
%TD*%
D15*
%TO.C,C21*%
G36*
X121173504Y-115204204D02*
G01*
X121197773Y-115207804D01*
X121221571Y-115213765D01*
X121244671Y-115222030D01*
X121266849Y-115232520D01*
X121287893Y-115245133D01*
X121307598Y-115259747D01*
X121325777Y-115276223D01*
X121342253Y-115294402D01*
X121356867Y-115314107D01*
X121369480Y-115335151D01*
X121379970Y-115357329D01*
X121388235Y-115380429D01*
X121394196Y-115404227D01*
X121397796Y-115428496D01*
X121399000Y-115453000D01*
X121399000Y-116703000D01*
X121397796Y-116727504D01*
X121394196Y-116751773D01*
X121388235Y-116775571D01*
X121379970Y-116798671D01*
X121369480Y-116820849D01*
X121356867Y-116841893D01*
X121342253Y-116861598D01*
X121325777Y-116879777D01*
X121307598Y-116896253D01*
X121287893Y-116910867D01*
X121266849Y-116923480D01*
X121244671Y-116933970D01*
X121221571Y-116942235D01*
X121197773Y-116948196D01*
X121173504Y-116951796D01*
X121149000Y-116953000D01*
X120224000Y-116953000D01*
X120199496Y-116951796D01*
X120175227Y-116948196D01*
X120151429Y-116942235D01*
X120128329Y-116933970D01*
X120106151Y-116923480D01*
X120085107Y-116910867D01*
X120065402Y-116896253D01*
X120047223Y-116879777D01*
X120030747Y-116861598D01*
X120016133Y-116841893D01*
X120003520Y-116820849D01*
X119993030Y-116798671D01*
X119984765Y-116775571D01*
X119978804Y-116751773D01*
X119975204Y-116727504D01*
X119974000Y-116703000D01*
X119974000Y-115453000D01*
X119975204Y-115428496D01*
X119978804Y-115404227D01*
X119984765Y-115380429D01*
X119993030Y-115357329D01*
X120003520Y-115335151D01*
X120016133Y-115314107D01*
X120030747Y-115294402D01*
X120047223Y-115276223D01*
X120065402Y-115259747D01*
X120085107Y-115245133D01*
X120106151Y-115232520D01*
X120128329Y-115222030D01*
X120151429Y-115213765D01*
X120175227Y-115207804D01*
X120199496Y-115204204D01*
X120224000Y-115203000D01*
X121149000Y-115203000D01*
X121173504Y-115204204D01*
X121173504Y-115204204D01*
G37*
D16*
X120686500Y-116078000D03*
D15*
G36*
X124148504Y-115204204D02*
G01*
X124172773Y-115207804D01*
X124196571Y-115213765D01*
X124219671Y-115222030D01*
X124241849Y-115232520D01*
X124262893Y-115245133D01*
X124282598Y-115259747D01*
X124300777Y-115276223D01*
X124317253Y-115294402D01*
X124331867Y-115314107D01*
X124344480Y-115335151D01*
X124354970Y-115357329D01*
X124363235Y-115380429D01*
X124369196Y-115404227D01*
X124372796Y-115428496D01*
X124374000Y-115453000D01*
X124374000Y-116703000D01*
X124372796Y-116727504D01*
X124369196Y-116751773D01*
X124363235Y-116775571D01*
X124354970Y-116798671D01*
X124344480Y-116820849D01*
X124331867Y-116841893D01*
X124317253Y-116861598D01*
X124300777Y-116879777D01*
X124282598Y-116896253D01*
X124262893Y-116910867D01*
X124241849Y-116923480D01*
X124219671Y-116933970D01*
X124196571Y-116942235D01*
X124172773Y-116948196D01*
X124148504Y-116951796D01*
X124124000Y-116953000D01*
X123199000Y-116953000D01*
X123174496Y-116951796D01*
X123150227Y-116948196D01*
X123126429Y-116942235D01*
X123103329Y-116933970D01*
X123081151Y-116923480D01*
X123060107Y-116910867D01*
X123040402Y-116896253D01*
X123022223Y-116879777D01*
X123005747Y-116861598D01*
X122991133Y-116841893D01*
X122978520Y-116820849D01*
X122968030Y-116798671D01*
X122959765Y-116775571D01*
X122953804Y-116751773D01*
X122950204Y-116727504D01*
X122949000Y-116703000D01*
X122949000Y-115453000D01*
X122950204Y-115428496D01*
X122953804Y-115404227D01*
X122959765Y-115380429D01*
X122968030Y-115357329D01*
X122978520Y-115335151D01*
X122991133Y-115314107D01*
X123005747Y-115294402D01*
X123022223Y-115276223D01*
X123040402Y-115259747D01*
X123060107Y-115245133D01*
X123081151Y-115232520D01*
X123103329Y-115222030D01*
X123126429Y-115213765D01*
X123150227Y-115207804D01*
X123174496Y-115204204D01*
X123199000Y-115203000D01*
X124124000Y-115203000D01*
X124148504Y-115204204D01*
X124148504Y-115204204D01*
G37*
D16*
X123661500Y-116078000D03*
%TD*%
D15*
%TO.C,C22*%
G36*
X126887504Y-111520204D02*
G01*
X126911773Y-111523804D01*
X126935571Y-111529765D01*
X126958671Y-111538030D01*
X126980849Y-111548520D01*
X127001893Y-111561133D01*
X127021598Y-111575747D01*
X127039777Y-111592223D01*
X127056253Y-111610402D01*
X127070867Y-111630107D01*
X127083480Y-111651151D01*
X127093970Y-111673329D01*
X127102235Y-111696429D01*
X127108196Y-111720227D01*
X127111796Y-111744496D01*
X127113000Y-111769000D01*
X127113000Y-112694000D01*
X127111796Y-112718504D01*
X127108196Y-112742773D01*
X127102235Y-112766571D01*
X127093970Y-112789671D01*
X127083480Y-112811849D01*
X127070867Y-112832893D01*
X127056253Y-112852598D01*
X127039777Y-112870777D01*
X127021598Y-112887253D01*
X127001893Y-112901867D01*
X126980849Y-112914480D01*
X126958671Y-112924970D01*
X126935571Y-112933235D01*
X126911773Y-112939196D01*
X126887504Y-112942796D01*
X126863000Y-112944000D01*
X125613000Y-112944000D01*
X125588496Y-112942796D01*
X125564227Y-112939196D01*
X125540429Y-112933235D01*
X125517329Y-112924970D01*
X125495151Y-112914480D01*
X125474107Y-112901867D01*
X125454402Y-112887253D01*
X125436223Y-112870777D01*
X125419747Y-112852598D01*
X125405133Y-112832893D01*
X125392520Y-112811849D01*
X125382030Y-112789671D01*
X125373765Y-112766571D01*
X125367804Y-112742773D01*
X125364204Y-112718504D01*
X125363000Y-112694000D01*
X125363000Y-111769000D01*
X125364204Y-111744496D01*
X125367804Y-111720227D01*
X125373765Y-111696429D01*
X125382030Y-111673329D01*
X125392520Y-111651151D01*
X125405133Y-111630107D01*
X125419747Y-111610402D01*
X125436223Y-111592223D01*
X125454402Y-111575747D01*
X125474107Y-111561133D01*
X125495151Y-111548520D01*
X125517329Y-111538030D01*
X125540429Y-111529765D01*
X125564227Y-111523804D01*
X125588496Y-111520204D01*
X125613000Y-111519000D01*
X126863000Y-111519000D01*
X126887504Y-111520204D01*
X126887504Y-111520204D01*
G37*
D16*
X126238000Y-112231500D03*
D15*
G36*
X126887504Y-108545204D02*
G01*
X126911773Y-108548804D01*
X126935571Y-108554765D01*
X126958671Y-108563030D01*
X126980849Y-108573520D01*
X127001893Y-108586133D01*
X127021598Y-108600747D01*
X127039777Y-108617223D01*
X127056253Y-108635402D01*
X127070867Y-108655107D01*
X127083480Y-108676151D01*
X127093970Y-108698329D01*
X127102235Y-108721429D01*
X127108196Y-108745227D01*
X127111796Y-108769496D01*
X127113000Y-108794000D01*
X127113000Y-109719000D01*
X127111796Y-109743504D01*
X127108196Y-109767773D01*
X127102235Y-109791571D01*
X127093970Y-109814671D01*
X127083480Y-109836849D01*
X127070867Y-109857893D01*
X127056253Y-109877598D01*
X127039777Y-109895777D01*
X127021598Y-109912253D01*
X127001893Y-109926867D01*
X126980849Y-109939480D01*
X126958671Y-109949970D01*
X126935571Y-109958235D01*
X126911773Y-109964196D01*
X126887504Y-109967796D01*
X126863000Y-109969000D01*
X125613000Y-109969000D01*
X125588496Y-109967796D01*
X125564227Y-109964196D01*
X125540429Y-109958235D01*
X125517329Y-109949970D01*
X125495151Y-109939480D01*
X125474107Y-109926867D01*
X125454402Y-109912253D01*
X125436223Y-109895777D01*
X125419747Y-109877598D01*
X125405133Y-109857893D01*
X125392520Y-109836849D01*
X125382030Y-109814671D01*
X125373765Y-109791571D01*
X125367804Y-109767773D01*
X125364204Y-109743504D01*
X125363000Y-109719000D01*
X125363000Y-108794000D01*
X125364204Y-108769496D01*
X125367804Y-108745227D01*
X125373765Y-108721429D01*
X125382030Y-108698329D01*
X125392520Y-108676151D01*
X125405133Y-108655107D01*
X125419747Y-108635402D01*
X125436223Y-108617223D01*
X125454402Y-108600747D01*
X125474107Y-108586133D01*
X125495151Y-108573520D01*
X125517329Y-108563030D01*
X125540429Y-108554765D01*
X125564227Y-108548804D01*
X125588496Y-108545204D01*
X125613000Y-108544000D01*
X126863000Y-108544000D01*
X126887504Y-108545204D01*
X126887504Y-108545204D01*
G37*
D16*
X126238000Y-109256500D03*
%TD*%
D15*
%TO.C,C23*%
G36*
X123713504Y-127904204D02*
G01*
X123737773Y-127907804D01*
X123761571Y-127913765D01*
X123784671Y-127922030D01*
X123806849Y-127932520D01*
X123827893Y-127945133D01*
X123847598Y-127959747D01*
X123865777Y-127976223D01*
X123882253Y-127994402D01*
X123896867Y-128014107D01*
X123909480Y-128035151D01*
X123919970Y-128057329D01*
X123928235Y-128080429D01*
X123934196Y-128104227D01*
X123937796Y-128128496D01*
X123939000Y-128153000D01*
X123939000Y-129403000D01*
X123937796Y-129427504D01*
X123934196Y-129451773D01*
X123928235Y-129475571D01*
X123919970Y-129498671D01*
X123909480Y-129520849D01*
X123896867Y-129541893D01*
X123882253Y-129561598D01*
X123865777Y-129579777D01*
X123847598Y-129596253D01*
X123827893Y-129610867D01*
X123806849Y-129623480D01*
X123784671Y-129633970D01*
X123761571Y-129642235D01*
X123737773Y-129648196D01*
X123713504Y-129651796D01*
X123689000Y-129653000D01*
X122764000Y-129653000D01*
X122739496Y-129651796D01*
X122715227Y-129648196D01*
X122691429Y-129642235D01*
X122668329Y-129633970D01*
X122646151Y-129623480D01*
X122625107Y-129610867D01*
X122605402Y-129596253D01*
X122587223Y-129579777D01*
X122570747Y-129561598D01*
X122556133Y-129541893D01*
X122543520Y-129520849D01*
X122533030Y-129498671D01*
X122524765Y-129475571D01*
X122518804Y-129451773D01*
X122515204Y-129427504D01*
X122514000Y-129403000D01*
X122514000Y-128153000D01*
X122515204Y-128128496D01*
X122518804Y-128104227D01*
X122524765Y-128080429D01*
X122533030Y-128057329D01*
X122543520Y-128035151D01*
X122556133Y-128014107D01*
X122570747Y-127994402D01*
X122587223Y-127976223D01*
X122605402Y-127959747D01*
X122625107Y-127945133D01*
X122646151Y-127932520D01*
X122668329Y-127922030D01*
X122691429Y-127913765D01*
X122715227Y-127907804D01*
X122739496Y-127904204D01*
X122764000Y-127903000D01*
X123689000Y-127903000D01*
X123713504Y-127904204D01*
X123713504Y-127904204D01*
G37*
D16*
X123226500Y-128778000D03*
D15*
G36*
X126688504Y-127904204D02*
G01*
X126712773Y-127907804D01*
X126736571Y-127913765D01*
X126759671Y-127922030D01*
X126781849Y-127932520D01*
X126802893Y-127945133D01*
X126822598Y-127959747D01*
X126840777Y-127976223D01*
X126857253Y-127994402D01*
X126871867Y-128014107D01*
X126884480Y-128035151D01*
X126894970Y-128057329D01*
X126903235Y-128080429D01*
X126909196Y-128104227D01*
X126912796Y-128128496D01*
X126914000Y-128153000D01*
X126914000Y-129403000D01*
X126912796Y-129427504D01*
X126909196Y-129451773D01*
X126903235Y-129475571D01*
X126894970Y-129498671D01*
X126884480Y-129520849D01*
X126871867Y-129541893D01*
X126857253Y-129561598D01*
X126840777Y-129579777D01*
X126822598Y-129596253D01*
X126802893Y-129610867D01*
X126781849Y-129623480D01*
X126759671Y-129633970D01*
X126736571Y-129642235D01*
X126712773Y-129648196D01*
X126688504Y-129651796D01*
X126664000Y-129653000D01*
X125739000Y-129653000D01*
X125714496Y-129651796D01*
X125690227Y-129648196D01*
X125666429Y-129642235D01*
X125643329Y-129633970D01*
X125621151Y-129623480D01*
X125600107Y-129610867D01*
X125580402Y-129596253D01*
X125562223Y-129579777D01*
X125545747Y-129561598D01*
X125531133Y-129541893D01*
X125518520Y-129520849D01*
X125508030Y-129498671D01*
X125499765Y-129475571D01*
X125493804Y-129451773D01*
X125490204Y-129427504D01*
X125489000Y-129403000D01*
X125489000Y-128153000D01*
X125490204Y-128128496D01*
X125493804Y-128104227D01*
X125499765Y-128080429D01*
X125508030Y-128057329D01*
X125518520Y-128035151D01*
X125531133Y-128014107D01*
X125545747Y-127994402D01*
X125562223Y-127976223D01*
X125580402Y-127959747D01*
X125600107Y-127945133D01*
X125621151Y-127932520D01*
X125643329Y-127922030D01*
X125666429Y-127913765D01*
X125690227Y-127907804D01*
X125714496Y-127904204D01*
X125739000Y-127903000D01*
X126664000Y-127903000D01*
X126688504Y-127904204D01*
X126688504Y-127904204D01*
G37*
D16*
X126201500Y-128778000D03*
%TD*%
D15*
%TO.C,C28*%
G36*
X131460504Y-122824204D02*
G01*
X131484773Y-122827804D01*
X131508571Y-122833765D01*
X131531671Y-122842030D01*
X131553849Y-122852520D01*
X131574893Y-122865133D01*
X131594598Y-122879747D01*
X131612777Y-122896223D01*
X131629253Y-122914402D01*
X131643867Y-122934107D01*
X131656480Y-122955151D01*
X131666970Y-122977329D01*
X131675235Y-123000429D01*
X131681196Y-123024227D01*
X131684796Y-123048496D01*
X131686000Y-123073000D01*
X131686000Y-124323000D01*
X131684796Y-124347504D01*
X131681196Y-124371773D01*
X131675235Y-124395571D01*
X131666970Y-124418671D01*
X131656480Y-124440849D01*
X131643867Y-124461893D01*
X131629253Y-124481598D01*
X131612777Y-124499777D01*
X131594598Y-124516253D01*
X131574893Y-124530867D01*
X131553849Y-124543480D01*
X131531671Y-124553970D01*
X131508571Y-124562235D01*
X131484773Y-124568196D01*
X131460504Y-124571796D01*
X131436000Y-124573000D01*
X130511000Y-124573000D01*
X130486496Y-124571796D01*
X130462227Y-124568196D01*
X130438429Y-124562235D01*
X130415329Y-124553970D01*
X130393151Y-124543480D01*
X130372107Y-124530867D01*
X130352402Y-124516253D01*
X130334223Y-124499777D01*
X130317747Y-124481598D01*
X130303133Y-124461893D01*
X130290520Y-124440849D01*
X130280030Y-124418671D01*
X130271765Y-124395571D01*
X130265804Y-124371773D01*
X130262204Y-124347504D01*
X130261000Y-124323000D01*
X130261000Y-123073000D01*
X130262204Y-123048496D01*
X130265804Y-123024227D01*
X130271765Y-123000429D01*
X130280030Y-122977329D01*
X130290520Y-122955151D01*
X130303133Y-122934107D01*
X130317747Y-122914402D01*
X130334223Y-122896223D01*
X130352402Y-122879747D01*
X130372107Y-122865133D01*
X130393151Y-122852520D01*
X130415329Y-122842030D01*
X130438429Y-122833765D01*
X130462227Y-122827804D01*
X130486496Y-122824204D01*
X130511000Y-122823000D01*
X131436000Y-122823000D01*
X131460504Y-122824204D01*
X131460504Y-122824204D01*
G37*
D16*
X130973500Y-123698000D03*
D15*
G36*
X134435504Y-122824204D02*
G01*
X134459773Y-122827804D01*
X134483571Y-122833765D01*
X134506671Y-122842030D01*
X134528849Y-122852520D01*
X134549893Y-122865133D01*
X134569598Y-122879747D01*
X134587777Y-122896223D01*
X134604253Y-122914402D01*
X134618867Y-122934107D01*
X134631480Y-122955151D01*
X134641970Y-122977329D01*
X134650235Y-123000429D01*
X134656196Y-123024227D01*
X134659796Y-123048496D01*
X134661000Y-123073000D01*
X134661000Y-124323000D01*
X134659796Y-124347504D01*
X134656196Y-124371773D01*
X134650235Y-124395571D01*
X134641970Y-124418671D01*
X134631480Y-124440849D01*
X134618867Y-124461893D01*
X134604253Y-124481598D01*
X134587777Y-124499777D01*
X134569598Y-124516253D01*
X134549893Y-124530867D01*
X134528849Y-124543480D01*
X134506671Y-124553970D01*
X134483571Y-124562235D01*
X134459773Y-124568196D01*
X134435504Y-124571796D01*
X134411000Y-124573000D01*
X133486000Y-124573000D01*
X133461496Y-124571796D01*
X133437227Y-124568196D01*
X133413429Y-124562235D01*
X133390329Y-124553970D01*
X133368151Y-124543480D01*
X133347107Y-124530867D01*
X133327402Y-124516253D01*
X133309223Y-124499777D01*
X133292747Y-124481598D01*
X133278133Y-124461893D01*
X133265520Y-124440849D01*
X133255030Y-124418671D01*
X133246765Y-124395571D01*
X133240804Y-124371773D01*
X133237204Y-124347504D01*
X133236000Y-124323000D01*
X133236000Y-123073000D01*
X133237204Y-123048496D01*
X133240804Y-123024227D01*
X133246765Y-123000429D01*
X133255030Y-122977329D01*
X133265520Y-122955151D01*
X133278133Y-122934107D01*
X133292747Y-122914402D01*
X133309223Y-122896223D01*
X133327402Y-122879747D01*
X133347107Y-122865133D01*
X133368151Y-122852520D01*
X133390329Y-122842030D01*
X133413429Y-122833765D01*
X133437227Y-122827804D01*
X133461496Y-122824204D01*
X133486000Y-122823000D01*
X134411000Y-122823000D01*
X134435504Y-122824204D01*
X134435504Y-122824204D01*
G37*
D16*
X133948500Y-123698000D03*
%TD*%
D15*
%TO.C,R1*%
G36*
X129554504Y-108545204D02*
G01*
X129578773Y-108548804D01*
X129602571Y-108554765D01*
X129625671Y-108563030D01*
X129647849Y-108573520D01*
X129668893Y-108586133D01*
X129688598Y-108600747D01*
X129706777Y-108617223D01*
X129723253Y-108635402D01*
X129737867Y-108655107D01*
X129750480Y-108676151D01*
X129760970Y-108698329D01*
X129769235Y-108721429D01*
X129775196Y-108745227D01*
X129778796Y-108769496D01*
X129780000Y-108794000D01*
X129780000Y-109719000D01*
X129778796Y-109743504D01*
X129775196Y-109767773D01*
X129769235Y-109791571D01*
X129760970Y-109814671D01*
X129750480Y-109836849D01*
X129737867Y-109857893D01*
X129723253Y-109877598D01*
X129706777Y-109895777D01*
X129688598Y-109912253D01*
X129668893Y-109926867D01*
X129647849Y-109939480D01*
X129625671Y-109949970D01*
X129602571Y-109958235D01*
X129578773Y-109964196D01*
X129554504Y-109967796D01*
X129530000Y-109969000D01*
X128280000Y-109969000D01*
X128255496Y-109967796D01*
X128231227Y-109964196D01*
X128207429Y-109958235D01*
X128184329Y-109949970D01*
X128162151Y-109939480D01*
X128141107Y-109926867D01*
X128121402Y-109912253D01*
X128103223Y-109895777D01*
X128086747Y-109877598D01*
X128072133Y-109857893D01*
X128059520Y-109836849D01*
X128049030Y-109814671D01*
X128040765Y-109791571D01*
X128034804Y-109767773D01*
X128031204Y-109743504D01*
X128030000Y-109719000D01*
X128030000Y-108794000D01*
X128031204Y-108769496D01*
X128034804Y-108745227D01*
X128040765Y-108721429D01*
X128049030Y-108698329D01*
X128059520Y-108676151D01*
X128072133Y-108655107D01*
X128086747Y-108635402D01*
X128103223Y-108617223D01*
X128121402Y-108600747D01*
X128141107Y-108586133D01*
X128162151Y-108573520D01*
X128184329Y-108563030D01*
X128207429Y-108554765D01*
X128231227Y-108548804D01*
X128255496Y-108545204D01*
X128280000Y-108544000D01*
X129530000Y-108544000D01*
X129554504Y-108545204D01*
X129554504Y-108545204D01*
G37*
D16*
X128905000Y-109256500D03*
D15*
G36*
X129554504Y-111520204D02*
G01*
X129578773Y-111523804D01*
X129602571Y-111529765D01*
X129625671Y-111538030D01*
X129647849Y-111548520D01*
X129668893Y-111561133D01*
X129688598Y-111575747D01*
X129706777Y-111592223D01*
X129723253Y-111610402D01*
X129737867Y-111630107D01*
X129750480Y-111651151D01*
X129760970Y-111673329D01*
X129769235Y-111696429D01*
X129775196Y-111720227D01*
X129778796Y-111744496D01*
X129780000Y-111769000D01*
X129780000Y-112694000D01*
X129778796Y-112718504D01*
X129775196Y-112742773D01*
X129769235Y-112766571D01*
X129760970Y-112789671D01*
X129750480Y-112811849D01*
X129737867Y-112832893D01*
X129723253Y-112852598D01*
X129706777Y-112870777D01*
X129688598Y-112887253D01*
X129668893Y-112901867D01*
X129647849Y-112914480D01*
X129625671Y-112924970D01*
X129602571Y-112933235D01*
X129578773Y-112939196D01*
X129554504Y-112942796D01*
X129530000Y-112944000D01*
X128280000Y-112944000D01*
X128255496Y-112942796D01*
X128231227Y-112939196D01*
X128207429Y-112933235D01*
X128184329Y-112924970D01*
X128162151Y-112914480D01*
X128141107Y-112901867D01*
X128121402Y-112887253D01*
X128103223Y-112870777D01*
X128086747Y-112852598D01*
X128072133Y-112832893D01*
X128059520Y-112811849D01*
X128049030Y-112789671D01*
X128040765Y-112766571D01*
X128034804Y-112742773D01*
X128031204Y-112718504D01*
X128030000Y-112694000D01*
X128030000Y-111769000D01*
X128031204Y-111744496D01*
X128034804Y-111720227D01*
X128040765Y-111696429D01*
X128049030Y-111673329D01*
X128059520Y-111651151D01*
X128072133Y-111630107D01*
X128086747Y-111610402D01*
X128103223Y-111592223D01*
X128121402Y-111575747D01*
X128141107Y-111561133D01*
X128162151Y-111548520D01*
X128184329Y-111538030D01*
X128207429Y-111529765D01*
X128231227Y-111523804D01*
X128255496Y-111520204D01*
X128280000Y-111519000D01*
X129530000Y-111519000D01*
X129554504Y-111520204D01*
X129554504Y-111520204D01*
G37*
D16*
X128905000Y-112231500D03*
%TD*%
D15*
%TO.C,R2*%
G36*
X94502504Y-111085204D02*
G01*
X94526773Y-111088804D01*
X94550571Y-111094765D01*
X94573671Y-111103030D01*
X94595849Y-111113520D01*
X94616893Y-111126133D01*
X94636598Y-111140747D01*
X94654777Y-111157223D01*
X94671253Y-111175402D01*
X94685867Y-111195107D01*
X94698480Y-111216151D01*
X94708970Y-111238329D01*
X94717235Y-111261429D01*
X94723196Y-111285227D01*
X94726796Y-111309496D01*
X94728000Y-111334000D01*
X94728000Y-112259000D01*
X94726796Y-112283504D01*
X94723196Y-112307773D01*
X94717235Y-112331571D01*
X94708970Y-112354671D01*
X94698480Y-112376849D01*
X94685867Y-112397893D01*
X94671253Y-112417598D01*
X94654777Y-112435777D01*
X94636598Y-112452253D01*
X94616893Y-112466867D01*
X94595849Y-112479480D01*
X94573671Y-112489970D01*
X94550571Y-112498235D01*
X94526773Y-112504196D01*
X94502504Y-112507796D01*
X94478000Y-112509000D01*
X93228000Y-112509000D01*
X93203496Y-112507796D01*
X93179227Y-112504196D01*
X93155429Y-112498235D01*
X93132329Y-112489970D01*
X93110151Y-112479480D01*
X93089107Y-112466867D01*
X93069402Y-112452253D01*
X93051223Y-112435777D01*
X93034747Y-112417598D01*
X93020133Y-112397893D01*
X93007520Y-112376849D01*
X92997030Y-112354671D01*
X92988765Y-112331571D01*
X92982804Y-112307773D01*
X92979204Y-112283504D01*
X92978000Y-112259000D01*
X92978000Y-111334000D01*
X92979204Y-111309496D01*
X92982804Y-111285227D01*
X92988765Y-111261429D01*
X92997030Y-111238329D01*
X93007520Y-111216151D01*
X93020133Y-111195107D01*
X93034747Y-111175402D01*
X93051223Y-111157223D01*
X93069402Y-111140747D01*
X93089107Y-111126133D01*
X93110151Y-111113520D01*
X93132329Y-111103030D01*
X93155429Y-111094765D01*
X93179227Y-111088804D01*
X93203496Y-111085204D01*
X93228000Y-111084000D01*
X94478000Y-111084000D01*
X94502504Y-111085204D01*
X94502504Y-111085204D01*
G37*
D16*
X93853000Y-111796500D03*
D15*
G36*
X94502504Y-114060204D02*
G01*
X94526773Y-114063804D01*
X94550571Y-114069765D01*
X94573671Y-114078030D01*
X94595849Y-114088520D01*
X94616893Y-114101133D01*
X94636598Y-114115747D01*
X94654777Y-114132223D01*
X94671253Y-114150402D01*
X94685867Y-114170107D01*
X94698480Y-114191151D01*
X94708970Y-114213329D01*
X94717235Y-114236429D01*
X94723196Y-114260227D01*
X94726796Y-114284496D01*
X94728000Y-114309000D01*
X94728000Y-115234000D01*
X94726796Y-115258504D01*
X94723196Y-115282773D01*
X94717235Y-115306571D01*
X94708970Y-115329671D01*
X94698480Y-115351849D01*
X94685867Y-115372893D01*
X94671253Y-115392598D01*
X94654777Y-115410777D01*
X94636598Y-115427253D01*
X94616893Y-115441867D01*
X94595849Y-115454480D01*
X94573671Y-115464970D01*
X94550571Y-115473235D01*
X94526773Y-115479196D01*
X94502504Y-115482796D01*
X94478000Y-115484000D01*
X93228000Y-115484000D01*
X93203496Y-115482796D01*
X93179227Y-115479196D01*
X93155429Y-115473235D01*
X93132329Y-115464970D01*
X93110151Y-115454480D01*
X93089107Y-115441867D01*
X93069402Y-115427253D01*
X93051223Y-115410777D01*
X93034747Y-115392598D01*
X93020133Y-115372893D01*
X93007520Y-115351849D01*
X92997030Y-115329671D01*
X92988765Y-115306571D01*
X92982804Y-115282773D01*
X92979204Y-115258504D01*
X92978000Y-115234000D01*
X92978000Y-114309000D01*
X92979204Y-114284496D01*
X92982804Y-114260227D01*
X92988765Y-114236429D01*
X92997030Y-114213329D01*
X93007520Y-114191151D01*
X93020133Y-114170107D01*
X93034747Y-114150402D01*
X93051223Y-114132223D01*
X93069402Y-114115747D01*
X93089107Y-114101133D01*
X93110151Y-114088520D01*
X93132329Y-114078030D01*
X93155429Y-114069765D01*
X93179227Y-114063804D01*
X93203496Y-114060204D01*
X93228000Y-114059000D01*
X94478000Y-114059000D01*
X94502504Y-114060204D01*
X94502504Y-114060204D01*
G37*
D16*
X93853000Y-114771500D03*
%TD*%
D15*
%TO.C,R3*%
G36*
X187902504Y-105044204D02*
G01*
X187926773Y-105047804D01*
X187950571Y-105053765D01*
X187973671Y-105062030D01*
X187995849Y-105072520D01*
X188016893Y-105085133D01*
X188036598Y-105099747D01*
X188054777Y-105116223D01*
X188071253Y-105134402D01*
X188085867Y-105154107D01*
X188098480Y-105175151D01*
X188108970Y-105197329D01*
X188117235Y-105220429D01*
X188123196Y-105244227D01*
X188126796Y-105268496D01*
X188128000Y-105293000D01*
X188128000Y-106543000D01*
X188126796Y-106567504D01*
X188123196Y-106591773D01*
X188117235Y-106615571D01*
X188108970Y-106638671D01*
X188098480Y-106660849D01*
X188085867Y-106681893D01*
X188071253Y-106701598D01*
X188054777Y-106719777D01*
X188036598Y-106736253D01*
X188016893Y-106750867D01*
X187995849Y-106763480D01*
X187973671Y-106773970D01*
X187950571Y-106782235D01*
X187926773Y-106788196D01*
X187902504Y-106791796D01*
X187878000Y-106793000D01*
X186953000Y-106793000D01*
X186928496Y-106791796D01*
X186904227Y-106788196D01*
X186880429Y-106782235D01*
X186857329Y-106773970D01*
X186835151Y-106763480D01*
X186814107Y-106750867D01*
X186794402Y-106736253D01*
X186776223Y-106719777D01*
X186759747Y-106701598D01*
X186745133Y-106681893D01*
X186732520Y-106660849D01*
X186722030Y-106638671D01*
X186713765Y-106615571D01*
X186707804Y-106591773D01*
X186704204Y-106567504D01*
X186703000Y-106543000D01*
X186703000Y-105293000D01*
X186704204Y-105268496D01*
X186707804Y-105244227D01*
X186713765Y-105220429D01*
X186722030Y-105197329D01*
X186732520Y-105175151D01*
X186745133Y-105154107D01*
X186759747Y-105134402D01*
X186776223Y-105116223D01*
X186794402Y-105099747D01*
X186814107Y-105085133D01*
X186835151Y-105072520D01*
X186857329Y-105062030D01*
X186880429Y-105053765D01*
X186904227Y-105047804D01*
X186928496Y-105044204D01*
X186953000Y-105043000D01*
X187878000Y-105043000D01*
X187902504Y-105044204D01*
X187902504Y-105044204D01*
G37*
D16*
X187415500Y-105918000D03*
D15*
G36*
X184927504Y-105044204D02*
G01*
X184951773Y-105047804D01*
X184975571Y-105053765D01*
X184998671Y-105062030D01*
X185020849Y-105072520D01*
X185041893Y-105085133D01*
X185061598Y-105099747D01*
X185079777Y-105116223D01*
X185096253Y-105134402D01*
X185110867Y-105154107D01*
X185123480Y-105175151D01*
X185133970Y-105197329D01*
X185142235Y-105220429D01*
X185148196Y-105244227D01*
X185151796Y-105268496D01*
X185153000Y-105293000D01*
X185153000Y-106543000D01*
X185151796Y-106567504D01*
X185148196Y-106591773D01*
X185142235Y-106615571D01*
X185133970Y-106638671D01*
X185123480Y-106660849D01*
X185110867Y-106681893D01*
X185096253Y-106701598D01*
X185079777Y-106719777D01*
X185061598Y-106736253D01*
X185041893Y-106750867D01*
X185020849Y-106763480D01*
X184998671Y-106773970D01*
X184975571Y-106782235D01*
X184951773Y-106788196D01*
X184927504Y-106791796D01*
X184903000Y-106793000D01*
X183978000Y-106793000D01*
X183953496Y-106791796D01*
X183929227Y-106788196D01*
X183905429Y-106782235D01*
X183882329Y-106773970D01*
X183860151Y-106763480D01*
X183839107Y-106750867D01*
X183819402Y-106736253D01*
X183801223Y-106719777D01*
X183784747Y-106701598D01*
X183770133Y-106681893D01*
X183757520Y-106660849D01*
X183747030Y-106638671D01*
X183738765Y-106615571D01*
X183732804Y-106591773D01*
X183729204Y-106567504D01*
X183728000Y-106543000D01*
X183728000Y-105293000D01*
X183729204Y-105268496D01*
X183732804Y-105244227D01*
X183738765Y-105220429D01*
X183747030Y-105197329D01*
X183757520Y-105175151D01*
X183770133Y-105154107D01*
X183784747Y-105134402D01*
X183801223Y-105116223D01*
X183819402Y-105099747D01*
X183839107Y-105085133D01*
X183860151Y-105072520D01*
X183882329Y-105062030D01*
X183905429Y-105053765D01*
X183929227Y-105047804D01*
X183953496Y-105044204D01*
X183978000Y-105043000D01*
X184903000Y-105043000D01*
X184927504Y-105044204D01*
X184927504Y-105044204D01*
G37*
D16*
X184440500Y-105918000D03*
%TD*%
D15*
%TO.C,R4*%
G36*
X97224504Y-108346204D02*
G01*
X97248773Y-108349804D01*
X97272571Y-108355765D01*
X97295671Y-108364030D01*
X97317849Y-108374520D01*
X97338893Y-108387133D01*
X97358598Y-108401747D01*
X97376777Y-108418223D01*
X97393253Y-108436402D01*
X97407867Y-108456107D01*
X97420480Y-108477151D01*
X97430970Y-108499329D01*
X97439235Y-108522429D01*
X97445196Y-108546227D01*
X97448796Y-108570496D01*
X97450000Y-108595000D01*
X97450000Y-109845000D01*
X97448796Y-109869504D01*
X97445196Y-109893773D01*
X97439235Y-109917571D01*
X97430970Y-109940671D01*
X97420480Y-109962849D01*
X97407867Y-109983893D01*
X97393253Y-110003598D01*
X97376777Y-110021777D01*
X97358598Y-110038253D01*
X97338893Y-110052867D01*
X97317849Y-110065480D01*
X97295671Y-110075970D01*
X97272571Y-110084235D01*
X97248773Y-110090196D01*
X97224504Y-110093796D01*
X97200000Y-110095000D01*
X96275000Y-110095000D01*
X96250496Y-110093796D01*
X96226227Y-110090196D01*
X96202429Y-110084235D01*
X96179329Y-110075970D01*
X96157151Y-110065480D01*
X96136107Y-110052867D01*
X96116402Y-110038253D01*
X96098223Y-110021777D01*
X96081747Y-110003598D01*
X96067133Y-109983893D01*
X96054520Y-109962849D01*
X96044030Y-109940671D01*
X96035765Y-109917571D01*
X96029804Y-109893773D01*
X96026204Y-109869504D01*
X96025000Y-109845000D01*
X96025000Y-108595000D01*
X96026204Y-108570496D01*
X96029804Y-108546227D01*
X96035765Y-108522429D01*
X96044030Y-108499329D01*
X96054520Y-108477151D01*
X96067133Y-108456107D01*
X96081747Y-108436402D01*
X96098223Y-108418223D01*
X96116402Y-108401747D01*
X96136107Y-108387133D01*
X96157151Y-108374520D01*
X96179329Y-108364030D01*
X96202429Y-108355765D01*
X96226227Y-108349804D01*
X96250496Y-108346204D01*
X96275000Y-108345000D01*
X97200000Y-108345000D01*
X97224504Y-108346204D01*
X97224504Y-108346204D01*
G37*
D16*
X96737500Y-109220000D03*
D15*
G36*
X94249504Y-108346204D02*
G01*
X94273773Y-108349804D01*
X94297571Y-108355765D01*
X94320671Y-108364030D01*
X94342849Y-108374520D01*
X94363893Y-108387133D01*
X94383598Y-108401747D01*
X94401777Y-108418223D01*
X94418253Y-108436402D01*
X94432867Y-108456107D01*
X94445480Y-108477151D01*
X94455970Y-108499329D01*
X94464235Y-108522429D01*
X94470196Y-108546227D01*
X94473796Y-108570496D01*
X94475000Y-108595000D01*
X94475000Y-109845000D01*
X94473796Y-109869504D01*
X94470196Y-109893773D01*
X94464235Y-109917571D01*
X94455970Y-109940671D01*
X94445480Y-109962849D01*
X94432867Y-109983893D01*
X94418253Y-110003598D01*
X94401777Y-110021777D01*
X94383598Y-110038253D01*
X94363893Y-110052867D01*
X94342849Y-110065480D01*
X94320671Y-110075970D01*
X94297571Y-110084235D01*
X94273773Y-110090196D01*
X94249504Y-110093796D01*
X94225000Y-110095000D01*
X93300000Y-110095000D01*
X93275496Y-110093796D01*
X93251227Y-110090196D01*
X93227429Y-110084235D01*
X93204329Y-110075970D01*
X93182151Y-110065480D01*
X93161107Y-110052867D01*
X93141402Y-110038253D01*
X93123223Y-110021777D01*
X93106747Y-110003598D01*
X93092133Y-109983893D01*
X93079520Y-109962849D01*
X93069030Y-109940671D01*
X93060765Y-109917571D01*
X93054804Y-109893773D01*
X93051204Y-109869504D01*
X93050000Y-109845000D01*
X93050000Y-108595000D01*
X93051204Y-108570496D01*
X93054804Y-108546227D01*
X93060765Y-108522429D01*
X93069030Y-108499329D01*
X93079520Y-108477151D01*
X93092133Y-108456107D01*
X93106747Y-108436402D01*
X93123223Y-108418223D01*
X93141402Y-108401747D01*
X93161107Y-108387133D01*
X93182151Y-108374520D01*
X93204329Y-108364030D01*
X93227429Y-108355765D01*
X93251227Y-108349804D01*
X93275496Y-108346204D01*
X93300000Y-108345000D01*
X94225000Y-108345000D01*
X94249504Y-108346204D01*
X94249504Y-108346204D01*
G37*
D16*
X93762500Y-109220000D03*
%TD*%
D15*
%TO.C,R5*%
G36*
X99582504Y-111085204D02*
G01*
X99606773Y-111088804D01*
X99630571Y-111094765D01*
X99653671Y-111103030D01*
X99675849Y-111113520D01*
X99696893Y-111126133D01*
X99716598Y-111140747D01*
X99734777Y-111157223D01*
X99751253Y-111175402D01*
X99765867Y-111195107D01*
X99778480Y-111216151D01*
X99788970Y-111238329D01*
X99797235Y-111261429D01*
X99803196Y-111285227D01*
X99806796Y-111309496D01*
X99808000Y-111334000D01*
X99808000Y-112259000D01*
X99806796Y-112283504D01*
X99803196Y-112307773D01*
X99797235Y-112331571D01*
X99788970Y-112354671D01*
X99778480Y-112376849D01*
X99765867Y-112397893D01*
X99751253Y-112417598D01*
X99734777Y-112435777D01*
X99716598Y-112452253D01*
X99696893Y-112466867D01*
X99675849Y-112479480D01*
X99653671Y-112489970D01*
X99630571Y-112498235D01*
X99606773Y-112504196D01*
X99582504Y-112507796D01*
X99558000Y-112509000D01*
X98308000Y-112509000D01*
X98283496Y-112507796D01*
X98259227Y-112504196D01*
X98235429Y-112498235D01*
X98212329Y-112489970D01*
X98190151Y-112479480D01*
X98169107Y-112466867D01*
X98149402Y-112452253D01*
X98131223Y-112435777D01*
X98114747Y-112417598D01*
X98100133Y-112397893D01*
X98087520Y-112376849D01*
X98077030Y-112354671D01*
X98068765Y-112331571D01*
X98062804Y-112307773D01*
X98059204Y-112283504D01*
X98058000Y-112259000D01*
X98058000Y-111334000D01*
X98059204Y-111309496D01*
X98062804Y-111285227D01*
X98068765Y-111261429D01*
X98077030Y-111238329D01*
X98087520Y-111216151D01*
X98100133Y-111195107D01*
X98114747Y-111175402D01*
X98131223Y-111157223D01*
X98149402Y-111140747D01*
X98169107Y-111126133D01*
X98190151Y-111113520D01*
X98212329Y-111103030D01*
X98235429Y-111094765D01*
X98259227Y-111088804D01*
X98283496Y-111085204D01*
X98308000Y-111084000D01*
X99558000Y-111084000D01*
X99582504Y-111085204D01*
X99582504Y-111085204D01*
G37*
D16*
X98933000Y-111796500D03*
D15*
G36*
X99582504Y-114060204D02*
G01*
X99606773Y-114063804D01*
X99630571Y-114069765D01*
X99653671Y-114078030D01*
X99675849Y-114088520D01*
X99696893Y-114101133D01*
X99716598Y-114115747D01*
X99734777Y-114132223D01*
X99751253Y-114150402D01*
X99765867Y-114170107D01*
X99778480Y-114191151D01*
X99788970Y-114213329D01*
X99797235Y-114236429D01*
X99803196Y-114260227D01*
X99806796Y-114284496D01*
X99808000Y-114309000D01*
X99808000Y-115234000D01*
X99806796Y-115258504D01*
X99803196Y-115282773D01*
X99797235Y-115306571D01*
X99788970Y-115329671D01*
X99778480Y-115351849D01*
X99765867Y-115372893D01*
X99751253Y-115392598D01*
X99734777Y-115410777D01*
X99716598Y-115427253D01*
X99696893Y-115441867D01*
X99675849Y-115454480D01*
X99653671Y-115464970D01*
X99630571Y-115473235D01*
X99606773Y-115479196D01*
X99582504Y-115482796D01*
X99558000Y-115484000D01*
X98308000Y-115484000D01*
X98283496Y-115482796D01*
X98259227Y-115479196D01*
X98235429Y-115473235D01*
X98212329Y-115464970D01*
X98190151Y-115454480D01*
X98169107Y-115441867D01*
X98149402Y-115427253D01*
X98131223Y-115410777D01*
X98114747Y-115392598D01*
X98100133Y-115372893D01*
X98087520Y-115351849D01*
X98077030Y-115329671D01*
X98068765Y-115306571D01*
X98062804Y-115282773D01*
X98059204Y-115258504D01*
X98058000Y-115234000D01*
X98058000Y-114309000D01*
X98059204Y-114284496D01*
X98062804Y-114260227D01*
X98068765Y-114236429D01*
X98077030Y-114213329D01*
X98087520Y-114191151D01*
X98100133Y-114170107D01*
X98114747Y-114150402D01*
X98131223Y-114132223D01*
X98149402Y-114115747D01*
X98169107Y-114101133D01*
X98190151Y-114088520D01*
X98212329Y-114078030D01*
X98235429Y-114069765D01*
X98259227Y-114063804D01*
X98283496Y-114060204D01*
X98308000Y-114059000D01*
X99558000Y-114059000D01*
X99582504Y-114060204D01*
X99582504Y-114060204D01*
G37*
D16*
X98933000Y-114771500D03*
%TD*%
D15*
%TO.C,R6*%
G36*
X109362504Y-106314204D02*
G01*
X109386773Y-106317804D01*
X109410571Y-106323765D01*
X109433671Y-106332030D01*
X109455849Y-106342520D01*
X109476893Y-106355133D01*
X109496598Y-106369747D01*
X109514777Y-106386223D01*
X109531253Y-106404402D01*
X109545867Y-106424107D01*
X109558480Y-106445151D01*
X109568970Y-106467329D01*
X109577235Y-106490429D01*
X109583196Y-106514227D01*
X109586796Y-106538496D01*
X109588000Y-106563000D01*
X109588000Y-107813000D01*
X109586796Y-107837504D01*
X109583196Y-107861773D01*
X109577235Y-107885571D01*
X109568970Y-107908671D01*
X109558480Y-107930849D01*
X109545867Y-107951893D01*
X109531253Y-107971598D01*
X109514777Y-107989777D01*
X109496598Y-108006253D01*
X109476893Y-108020867D01*
X109455849Y-108033480D01*
X109433671Y-108043970D01*
X109410571Y-108052235D01*
X109386773Y-108058196D01*
X109362504Y-108061796D01*
X109338000Y-108063000D01*
X108413000Y-108063000D01*
X108388496Y-108061796D01*
X108364227Y-108058196D01*
X108340429Y-108052235D01*
X108317329Y-108043970D01*
X108295151Y-108033480D01*
X108274107Y-108020867D01*
X108254402Y-108006253D01*
X108236223Y-107989777D01*
X108219747Y-107971598D01*
X108205133Y-107951893D01*
X108192520Y-107930849D01*
X108182030Y-107908671D01*
X108173765Y-107885571D01*
X108167804Y-107861773D01*
X108164204Y-107837504D01*
X108163000Y-107813000D01*
X108163000Y-106563000D01*
X108164204Y-106538496D01*
X108167804Y-106514227D01*
X108173765Y-106490429D01*
X108182030Y-106467329D01*
X108192520Y-106445151D01*
X108205133Y-106424107D01*
X108219747Y-106404402D01*
X108236223Y-106386223D01*
X108254402Y-106369747D01*
X108274107Y-106355133D01*
X108295151Y-106342520D01*
X108317329Y-106332030D01*
X108340429Y-106323765D01*
X108364227Y-106317804D01*
X108388496Y-106314204D01*
X108413000Y-106313000D01*
X109338000Y-106313000D01*
X109362504Y-106314204D01*
X109362504Y-106314204D01*
G37*
D16*
X108875500Y-107188000D03*
D15*
G36*
X112337504Y-106314204D02*
G01*
X112361773Y-106317804D01*
X112385571Y-106323765D01*
X112408671Y-106332030D01*
X112430849Y-106342520D01*
X112451893Y-106355133D01*
X112471598Y-106369747D01*
X112489777Y-106386223D01*
X112506253Y-106404402D01*
X112520867Y-106424107D01*
X112533480Y-106445151D01*
X112543970Y-106467329D01*
X112552235Y-106490429D01*
X112558196Y-106514227D01*
X112561796Y-106538496D01*
X112563000Y-106563000D01*
X112563000Y-107813000D01*
X112561796Y-107837504D01*
X112558196Y-107861773D01*
X112552235Y-107885571D01*
X112543970Y-107908671D01*
X112533480Y-107930849D01*
X112520867Y-107951893D01*
X112506253Y-107971598D01*
X112489777Y-107989777D01*
X112471598Y-108006253D01*
X112451893Y-108020867D01*
X112430849Y-108033480D01*
X112408671Y-108043970D01*
X112385571Y-108052235D01*
X112361773Y-108058196D01*
X112337504Y-108061796D01*
X112313000Y-108063000D01*
X111388000Y-108063000D01*
X111363496Y-108061796D01*
X111339227Y-108058196D01*
X111315429Y-108052235D01*
X111292329Y-108043970D01*
X111270151Y-108033480D01*
X111249107Y-108020867D01*
X111229402Y-108006253D01*
X111211223Y-107989777D01*
X111194747Y-107971598D01*
X111180133Y-107951893D01*
X111167520Y-107930849D01*
X111157030Y-107908671D01*
X111148765Y-107885571D01*
X111142804Y-107861773D01*
X111139204Y-107837504D01*
X111138000Y-107813000D01*
X111138000Y-106563000D01*
X111139204Y-106538496D01*
X111142804Y-106514227D01*
X111148765Y-106490429D01*
X111157030Y-106467329D01*
X111167520Y-106445151D01*
X111180133Y-106424107D01*
X111194747Y-106404402D01*
X111211223Y-106386223D01*
X111229402Y-106369747D01*
X111249107Y-106355133D01*
X111270151Y-106342520D01*
X111292329Y-106332030D01*
X111315429Y-106323765D01*
X111339227Y-106317804D01*
X111363496Y-106314204D01*
X111388000Y-106313000D01*
X112313000Y-106313000D01*
X112337504Y-106314204D01*
X112337504Y-106314204D01*
G37*
D16*
X111850500Y-107188000D03*
%TD*%
D15*
%TO.C,R7*%
G36*
X139642504Y-114823204D02*
G01*
X139666773Y-114826804D01*
X139690571Y-114832765D01*
X139713671Y-114841030D01*
X139735849Y-114851520D01*
X139756893Y-114864133D01*
X139776598Y-114878747D01*
X139794777Y-114895223D01*
X139811253Y-114913402D01*
X139825867Y-114933107D01*
X139838480Y-114954151D01*
X139848970Y-114976329D01*
X139857235Y-114999429D01*
X139863196Y-115023227D01*
X139866796Y-115047496D01*
X139868000Y-115072000D01*
X139868000Y-116322000D01*
X139866796Y-116346504D01*
X139863196Y-116370773D01*
X139857235Y-116394571D01*
X139848970Y-116417671D01*
X139838480Y-116439849D01*
X139825867Y-116460893D01*
X139811253Y-116480598D01*
X139794777Y-116498777D01*
X139776598Y-116515253D01*
X139756893Y-116529867D01*
X139735849Y-116542480D01*
X139713671Y-116552970D01*
X139690571Y-116561235D01*
X139666773Y-116567196D01*
X139642504Y-116570796D01*
X139618000Y-116572000D01*
X138693000Y-116572000D01*
X138668496Y-116570796D01*
X138644227Y-116567196D01*
X138620429Y-116561235D01*
X138597329Y-116552970D01*
X138575151Y-116542480D01*
X138554107Y-116529867D01*
X138534402Y-116515253D01*
X138516223Y-116498777D01*
X138499747Y-116480598D01*
X138485133Y-116460893D01*
X138472520Y-116439849D01*
X138462030Y-116417671D01*
X138453765Y-116394571D01*
X138447804Y-116370773D01*
X138444204Y-116346504D01*
X138443000Y-116322000D01*
X138443000Y-115072000D01*
X138444204Y-115047496D01*
X138447804Y-115023227D01*
X138453765Y-114999429D01*
X138462030Y-114976329D01*
X138472520Y-114954151D01*
X138485133Y-114933107D01*
X138499747Y-114913402D01*
X138516223Y-114895223D01*
X138534402Y-114878747D01*
X138554107Y-114864133D01*
X138575151Y-114851520D01*
X138597329Y-114841030D01*
X138620429Y-114832765D01*
X138644227Y-114826804D01*
X138668496Y-114823204D01*
X138693000Y-114822000D01*
X139618000Y-114822000D01*
X139642504Y-114823204D01*
X139642504Y-114823204D01*
G37*
D16*
X139155500Y-115697000D03*
D15*
G36*
X136667504Y-114823204D02*
G01*
X136691773Y-114826804D01*
X136715571Y-114832765D01*
X136738671Y-114841030D01*
X136760849Y-114851520D01*
X136781893Y-114864133D01*
X136801598Y-114878747D01*
X136819777Y-114895223D01*
X136836253Y-114913402D01*
X136850867Y-114933107D01*
X136863480Y-114954151D01*
X136873970Y-114976329D01*
X136882235Y-114999429D01*
X136888196Y-115023227D01*
X136891796Y-115047496D01*
X136893000Y-115072000D01*
X136893000Y-116322000D01*
X136891796Y-116346504D01*
X136888196Y-116370773D01*
X136882235Y-116394571D01*
X136873970Y-116417671D01*
X136863480Y-116439849D01*
X136850867Y-116460893D01*
X136836253Y-116480598D01*
X136819777Y-116498777D01*
X136801598Y-116515253D01*
X136781893Y-116529867D01*
X136760849Y-116542480D01*
X136738671Y-116552970D01*
X136715571Y-116561235D01*
X136691773Y-116567196D01*
X136667504Y-116570796D01*
X136643000Y-116572000D01*
X135718000Y-116572000D01*
X135693496Y-116570796D01*
X135669227Y-116567196D01*
X135645429Y-116561235D01*
X135622329Y-116552970D01*
X135600151Y-116542480D01*
X135579107Y-116529867D01*
X135559402Y-116515253D01*
X135541223Y-116498777D01*
X135524747Y-116480598D01*
X135510133Y-116460893D01*
X135497520Y-116439849D01*
X135487030Y-116417671D01*
X135478765Y-116394571D01*
X135472804Y-116370773D01*
X135469204Y-116346504D01*
X135468000Y-116322000D01*
X135468000Y-115072000D01*
X135469204Y-115047496D01*
X135472804Y-115023227D01*
X135478765Y-114999429D01*
X135487030Y-114976329D01*
X135497520Y-114954151D01*
X135510133Y-114933107D01*
X135524747Y-114913402D01*
X135541223Y-114895223D01*
X135559402Y-114878747D01*
X135579107Y-114864133D01*
X135600151Y-114851520D01*
X135622329Y-114841030D01*
X135645429Y-114832765D01*
X135669227Y-114826804D01*
X135693496Y-114823204D01*
X135718000Y-114822000D01*
X136643000Y-114822000D01*
X136667504Y-114823204D01*
X136667504Y-114823204D01*
G37*
D16*
X136180500Y-115697000D03*
%TD*%
D15*
%TO.C,R8*%
G36*
X149113504Y-118760204D02*
G01*
X149137773Y-118763804D01*
X149161571Y-118769765D01*
X149184671Y-118778030D01*
X149206849Y-118788520D01*
X149227893Y-118801133D01*
X149247598Y-118815747D01*
X149265777Y-118832223D01*
X149282253Y-118850402D01*
X149296867Y-118870107D01*
X149309480Y-118891151D01*
X149319970Y-118913329D01*
X149328235Y-118936429D01*
X149334196Y-118960227D01*
X149337796Y-118984496D01*
X149339000Y-119009000D01*
X149339000Y-120259000D01*
X149337796Y-120283504D01*
X149334196Y-120307773D01*
X149328235Y-120331571D01*
X149319970Y-120354671D01*
X149309480Y-120376849D01*
X149296867Y-120397893D01*
X149282253Y-120417598D01*
X149265777Y-120435777D01*
X149247598Y-120452253D01*
X149227893Y-120466867D01*
X149206849Y-120479480D01*
X149184671Y-120489970D01*
X149161571Y-120498235D01*
X149137773Y-120504196D01*
X149113504Y-120507796D01*
X149089000Y-120509000D01*
X148164000Y-120509000D01*
X148139496Y-120507796D01*
X148115227Y-120504196D01*
X148091429Y-120498235D01*
X148068329Y-120489970D01*
X148046151Y-120479480D01*
X148025107Y-120466867D01*
X148005402Y-120452253D01*
X147987223Y-120435777D01*
X147970747Y-120417598D01*
X147956133Y-120397893D01*
X147943520Y-120376849D01*
X147933030Y-120354671D01*
X147924765Y-120331571D01*
X147918804Y-120307773D01*
X147915204Y-120283504D01*
X147914000Y-120259000D01*
X147914000Y-119009000D01*
X147915204Y-118984496D01*
X147918804Y-118960227D01*
X147924765Y-118936429D01*
X147933030Y-118913329D01*
X147943520Y-118891151D01*
X147956133Y-118870107D01*
X147970747Y-118850402D01*
X147987223Y-118832223D01*
X148005402Y-118815747D01*
X148025107Y-118801133D01*
X148046151Y-118788520D01*
X148068329Y-118778030D01*
X148091429Y-118769765D01*
X148115227Y-118763804D01*
X148139496Y-118760204D01*
X148164000Y-118759000D01*
X149089000Y-118759000D01*
X149113504Y-118760204D01*
X149113504Y-118760204D01*
G37*
D16*
X148626500Y-119634000D03*
D15*
G36*
X152088504Y-118760204D02*
G01*
X152112773Y-118763804D01*
X152136571Y-118769765D01*
X152159671Y-118778030D01*
X152181849Y-118788520D01*
X152202893Y-118801133D01*
X152222598Y-118815747D01*
X152240777Y-118832223D01*
X152257253Y-118850402D01*
X152271867Y-118870107D01*
X152284480Y-118891151D01*
X152294970Y-118913329D01*
X152303235Y-118936429D01*
X152309196Y-118960227D01*
X152312796Y-118984496D01*
X152314000Y-119009000D01*
X152314000Y-120259000D01*
X152312796Y-120283504D01*
X152309196Y-120307773D01*
X152303235Y-120331571D01*
X152294970Y-120354671D01*
X152284480Y-120376849D01*
X152271867Y-120397893D01*
X152257253Y-120417598D01*
X152240777Y-120435777D01*
X152222598Y-120452253D01*
X152202893Y-120466867D01*
X152181849Y-120479480D01*
X152159671Y-120489970D01*
X152136571Y-120498235D01*
X152112773Y-120504196D01*
X152088504Y-120507796D01*
X152064000Y-120509000D01*
X151139000Y-120509000D01*
X151114496Y-120507796D01*
X151090227Y-120504196D01*
X151066429Y-120498235D01*
X151043329Y-120489970D01*
X151021151Y-120479480D01*
X151000107Y-120466867D01*
X150980402Y-120452253D01*
X150962223Y-120435777D01*
X150945747Y-120417598D01*
X150931133Y-120397893D01*
X150918520Y-120376849D01*
X150908030Y-120354671D01*
X150899765Y-120331571D01*
X150893804Y-120307773D01*
X150890204Y-120283504D01*
X150889000Y-120259000D01*
X150889000Y-119009000D01*
X150890204Y-118984496D01*
X150893804Y-118960227D01*
X150899765Y-118936429D01*
X150908030Y-118913329D01*
X150918520Y-118891151D01*
X150931133Y-118870107D01*
X150945747Y-118850402D01*
X150962223Y-118832223D01*
X150980402Y-118815747D01*
X151000107Y-118801133D01*
X151021151Y-118788520D01*
X151043329Y-118778030D01*
X151066429Y-118769765D01*
X151090227Y-118763804D01*
X151114496Y-118760204D01*
X151139000Y-118759000D01*
X152064000Y-118759000D01*
X152088504Y-118760204D01*
X152088504Y-118760204D01*
G37*
D16*
X151601500Y-119634000D03*
%TD*%
D15*
%TO.C,R9*%
G36*
X147969504Y-106767204D02*
G01*
X147993773Y-106770804D01*
X148017571Y-106776765D01*
X148040671Y-106785030D01*
X148062849Y-106795520D01*
X148083893Y-106808133D01*
X148103598Y-106822747D01*
X148121777Y-106839223D01*
X148138253Y-106857402D01*
X148152867Y-106877107D01*
X148165480Y-106898151D01*
X148175970Y-106920329D01*
X148184235Y-106943429D01*
X148190196Y-106967227D01*
X148193796Y-106991496D01*
X148195000Y-107016000D01*
X148195000Y-107941000D01*
X148193796Y-107965504D01*
X148190196Y-107989773D01*
X148184235Y-108013571D01*
X148175970Y-108036671D01*
X148165480Y-108058849D01*
X148152867Y-108079893D01*
X148138253Y-108099598D01*
X148121777Y-108117777D01*
X148103598Y-108134253D01*
X148083893Y-108148867D01*
X148062849Y-108161480D01*
X148040671Y-108171970D01*
X148017571Y-108180235D01*
X147993773Y-108186196D01*
X147969504Y-108189796D01*
X147945000Y-108191000D01*
X146695000Y-108191000D01*
X146670496Y-108189796D01*
X146646227Y-108186196D01*
X146622429Y-108180235D01*
X146599329Y-108171970D01*
X146577151Y-108161480D01*
X146556107Y-108148867D01*
X146536402Y-108134253D01*
X146518223Y-108117777D01*
X146501747Y-108099598D01*
X146487133Y-108079893D01*
X146474520Y-108058849D01*
X146464030Y-108036671D01*
X146455765Y-108013571D01*
X146449804Y-107989773D01*
X146446204Y-107965504D01*
X146445000Y-107941000D01*
X146445000Y-107016000D01*
X146446204Y-106991496D01*
X146449804Y-106967227D01*
X146455765Y-106943429D01*
X146464030Y-106920329D01*
X146474520Y-106898151D01*
X146487133Y-106877107D01*
X146501747Y-106857402D01*
X146518223Y-106839223D01*
X146536402Y-106822747D01*
X146556107Y-106808133D01*
X146577151Y-106795520D01*
X146599329Y-106785030D01*
X146622429Y-106776765D01*
X146646227Y-106770804D01*
X146670496Y-106767204D01*
X146695000Y-106766000D01*
X147945000Y-106766000D01*
X147969504Y-106767204D01*
X147969504Y-106767204D01*
G37*
D16*
X147320000Y-107478500D03*
D15*
G36*
X147969504Y-109742204D02*
G01*
X147993773Y-109745804D01*
X148017571Y-109751765D01*
X148040671Y-109760030D01*
X148062849Y-109770520D01*
X148083893Y-109783133D01*
X148103598Y-109797747D01*
X148121777Y-109814223D01*
X148138253Y-109832402D01*
X148152867Y-109852107D01*
X148165480Y-109873151D01*
X148175970Y-109895329D01*
X148184235Y-109918429D01*
X148190196Y-109942227D01*
X148193796Y-109966496D01*
X148195000Y-109991000D01*
X148195000Y-110916000D01*
X148193796Y-110940504D01*
X148190196Y-110964773D01*
X148184235Y-110988571D01*
X148175970Y-111011671D01*
X148165480Y-111033849D01*
X148152867Y-111054893D01*
X148138253Y-111074598D01*
X148121777Y-111092777D01*
X148103598Y-111109253D01*
X148083893Y-111123867D01*
X148062849Y-111136480D01*
X148040671Y-111146970D01*
X148017571Y-111155235D01*
X147993773Y-111161196D01*
X147969504Y-111164796D01*
X147945000Y-111166000D01*
X146695000Y-111166000D01*
X146670496Y-111164796D01*
X146646227Y-111161196D01*
X146622429Y-111155235D01*
X146599329Y-111146970D01*
X146577151Y-111136480D01*
X146556107Y-111123867D01*
X146536402Y-111109253D01*
X146518223Y-111092777D01*
X146501747Y-111074598D01*
X146487133Y-111054893D01*
X146474520Y-111033849D01*
X146464030Y-111011671D01*
X146455765Y-110988571D01*
X146449804Y-110964773D01*
X146446204Y-110940504D01*
X146445000Y-110916000D01*
X146445000Y-109991000D01*
X146446204Y-109966496D01*
X146449804Y-109942227D01*
X146455765Y-109918429D01*
X146464030Y-109895329D01*
X146474520Y-109873151D01*
X146487133Y-109852107D01*
X146501747Y-109832402D01*
X146518223Y-109814223D01*
X146536402Y-109797747D01*
X146556107Y-109783133D01*
X146577151Y-109770520D01*
X146599329Y-109760030D01*
X146622429Y-109751765D01*
X146646227Y-109745804D01*
X146670496Y-109742204D01*
X146695000Y-109741000D01*
X147945000Y-109741000D01*
X147969504Y-109742204D01*
X147969504Y-109742204D01*
G37*
D16*
X147320000Y-110453500D03*
%TD*%
D15*
%TO.C,R10*%
G36*
X150509504Y-106767204D02*
G01*
X150533773Y-106770804D01*
X150557571Y-106776765D01*
X150580671Y-106785030D01*
X150602849Y-106795520D01*
X150623893Y-106808133D01*
X150643598Y-106822747D01*
X150661777Y-106839223D01*
X150678253Y-106857402D01*
X150692867Y-106877107D01*
X150705480Y-106898151D01*
X150715970Y-106920329D01*
X150724235Y-106943429D01*
X150730196Y-106967227D01*
X150733796Y-106991496D01*
X150735000Y-107016000D01*
X150735000Y-107941000D01*
X150733796Y-107965504D01*
X150730196Y-107989773D01*
X150724235Y-108013571D01*
X150715970Y-108036671D01*
X150705480Y-108058849D01*
X150692867Y-108079893D01*
X150678253Y-108099598D01*
X150661777Y-108117777D01*
X150643598Y-108134253D01*
X150623893Y-108148867D01*
X150602849Y-108161480D01*
X150580671Y-108171970D01*
X150557571Y-108180235D01*
X150533773Y-108186196D01*
X150509504Y-108189796D01*
X150485000Y-108191000D01*
X149235000Y-108191000D01*
X149210496Y-108189796D01*
X149186227Y-108186196D01*
X149162429Y-108180235D01*
X149139329Y-108171970D01*
X149117151Y-108161480D01*
X149096107Y-108148867D01*
X149076402Y-108134253D01*
X149058223Y-108117777D01*
X149041747Y-108099598D01*
X149027133Y-108079893D01*
X149014520Y-108058849D01*
X149004030Y-108036671D01*
X148995765Y-108013571D01*
X148989804Y-107989773D01*
X148986204Y-107965504D01*
X148985000Y-107941000D01*
X148985000Y-107016000D01*
X148986204Y-106991496D01*
X148989804Y-106967227D01*
X148995765Y-106943429D01*
X149004030Y-106920329D01*
X149014520Y-106898151D01*
X149027133Y-106877107D01*
X149041747Y-106857402D01*
X149058223Y-106839223D01*
X149076402Y-106822747D01*
X149096107Y-106808133D01*
X149117151Y-106795520D01*
X149139329Y-106785030D01*
X149162429Y-106776765D01*
X149186227Y-106770804D01*
X149210496Y-106767204D01*
X149235000Y-106766000D01*
X150485000Y-106766000D01*
X150509504Y-106767204D01*
X150509504Y-106767204D01*
G37*
D16*
X149860000Y-107478500D03*
D15*
G36*
X150509504Y-109742204D02*
G01*
X150533773Y-109745804D01*
X150557571Y-109751765D01*
X150580671Y-109760030D01*
X150602849Y-109770520D01*
X150623893Y-109783133D01*
X150643598Y-109797747D01*
X150661777Y-109814223D01*
X150678253Y-109832402D01*
X150692867Y-109852107D01*
X150705480Y-109873151D01*
X150715970Y-109895329D01*
X150724235Y-109918429D01*
X150730196Y-109942227D01*
X150733796Y-109966496D01*
X150735000Y-109991000D01*
X150735000Y-110916000D01*
X150733796Y-110940504D01*
X150730196Y-110964773D01*
X150724235Y-110988571D01*
X150715970Y-111011671D01*
X150705480Y-111033849D01*
X150692867Y-111054893D01*
X150678253Y-111074598D01*
X150661777Y-111092777D01*
X150643598Y-111109253D01*
X150623893Y-111123867D01*
X150602849Y-111136480D01*
X150580671Y-111146970D01*
X150557571Y-111155235D01*
X150533773Y-111161196D01*
X150509504Y-111164796D01*
X150485000Y-111166000D01*
X149235000Y-111166000D01*
X149210496Y-111164796D01*
X149186227Y-111161196D01*
X149162429Y-111155235D01*
X149139329Y-111146970D01*
X149117151Y-111136480D01*
X149096107Y-111123867D01*
X149076402Y-111109253D01*
X149058223Y-111092777D01*
X149041747Y-111074598D01*
X149027133Y-111054893D01*
X149014520Y-111033849D01*
X149004030Y-111011671D01*
X148995765Y-110988571D01*
X148989804Y-110964773D01*
X148986204Y-110940504D01*
X148985000Y-110916000D01*
X148985000Y-109991000D01*
X148986204Y-109966496D01*
X148989804Y-109942227D01*
X148995765Y-109918429D01*
X149004030Y-109895329D01*
X149014520Y-109873151D01*
X149027133Y-109852107D01*
X149041747Y-109832402D01*
X149058223Y-109814223D01*
X149076402Y-109797747D01*
X149096107Y-109783133D01*
X149117151Y-109770520D01*
X149139329Y-109760030D01*
X149162429Y-109751765D01*
X149186227Y-109745804D01*
X149210496Y-109742204D01*
X149235000Y-109741000D01*
X150485000Y-109741000D01*
X150509504Y-109742204D01*
X150509504Y-109742204D01*
G37*
D16*
X149860000Y-110453500D03*
%TD*%
D15*
%TO.C,R11*%
G36*
X179974504Y-99329204D02*
G01*
X179998773Y-99332804D01*
X180022571Y-99338765D01*
X180045671Y-99347030D01*
X180067849Y-99357520D01*
X180088893Y-99370133D01*
X180108598Y-99384747D01*
X180126777Y-99401223D01*
X180143253Y-99419402D01*
X180157867Y-99439107D01*
X180170480Y-99460151D01*
X180180970Y-99482329D01*
X180189235Y-99505429D01*
X180195196Y-99529227D01*
X180198796Y-99553496D01*
X180200000Y-99578000D01*
X180200000Y-100828000D01*
X180198796Y-100852504D01*
X180195196Y-100876773D01*
X180189235Y-100900571D01*
X180180970Y-100923671D01*
X180170480Y-100945849D01*
X180157867Y-100966893D01*
X180143253Y-100986598D01*
X180126777Y-101004777D01*
X180108598Y-101021253D01*
X180088893Y-101035867D01*
X180067849Y-101048480D01*
X180045671Y-101058970D01*
X180022571Y-101067235D01*
X179998773Y-101073196D01*
X179974504Y-101076796D01*
X179950000Y-101078000D01*
X179025000Y-101078000D01*
X179000496Y-101076796D01*
X178976227Y-101073196D01*
X178952429Y-101067235D01*
X178929329Y-101058970D01*
X178907151Y-101048480D01*
X178886107Y-101035867D01*
X178866402Y-101021253D01*
X178848223Y-101004777D01*
X178831747Y-100986598D01*
X178817133Y-100966893D01*
X178804520Y-100945849D01*
X178794030Y-100923671D01*
X178785765Y-100900571D01*
X178779804Y-100876773D01*
X178776204Y-100852504D01*
X178775000Y-100828000D01*
X178775000Y-99578000D01*
X178776204Y-99553496D01*
X178779804Y-99529227D01*
X178785765Y-99505429D01*
X178794030Y-99482329D01*
X178804520Y-99460151D01*
X178817133Y-99439107D01*
X178831747Y-99419402D01*
X178848223Y-99401223D01*
X178866402Y-99384747D01*
X178886107Y-99370133D01*
X178907151Y-99357520D01*
X178929329Y-99347030D01*
X178952429Y-99338765D01*
X178976227Y-99332804D01*
X179000496Y-99329204D01*
X179025000Y-99328000D01*
X179950000Y-99328000D01*
X179974504Y-99329204D01*
X179974504Y-99329204D01*
G37*
D16*
X179487500Y-100203000D03*
D15*
G36*
X182949504Y-99329204D02*
G01*
X182973773Y-99332804D01*
X182997571Y-99338765D01*
X183020671Y-99347030D01*
X183042849Y-99357520D01*
X183063893Y-99370133D01*
X183083598Y-99384747D01*
X183101777Y-99401223D01*
X183118253Y-99419402D01*
X183132867Y-99439107D01*
X183145480Y-99460151D01*
X183155970Y-99482329D01*
X183164235Y-99505429D01*
X183170196Y-99529227D01*
X183173796Y-99553496D01*
X183175000Y-99578000D01*
X183175000Y-100828000D01*
X183173796Y-100852504D01*
X183170196Y-100876773D01*
X183164235Y-100900571D01*
X183155970Y-100923671D01*
X183145480Y-100945849D01*
X183132867Y-100966893D01*
X183118253Y-100986598D01*
X183101777Y-101004777D01*
X183083598Y-101021253D01*
X183063893Y-101035867D01*
X183042849Y-101048480D01*
X183020671Y-101058970D01*
X182997571Y-101067235D01*
X182973773Y-101073196D01*
X182949504Y-101076796D01*
X182925000Y-101078000D01*
X182000000Y-101078000D01*
X181975496Y-101076796D01*
X181951227Y-101073196D01*
X181927429Y-101067235D01*
X181904329Y-101058970D01*
X181882151Y-101048480D01*
X181861107Y-101035867D01*
X181841402Y-101021253D01*
X181823223Y-101004777D01*
X181806747Y-100986598D01*
X181792133Y-100966893D01*
X181779520Y-100945849D01*
X181769030Y-100923671D01*
X181760765Y-100900571D01*
X181754804Y-100876773D01*
X181751204Y-100852504D01*
X181750000Y-100828000D01*
X181750000Y-99578000D01*
X181751204Y-99553496D01*
X181754804Y-99529227D01*
X181760765Y-99505429D01*
X181769030Y-99482329D01*
X181779520Y-99460151D01*
X181792133Y-99439107D01*
X181806747Y-99419402D01*
X181823223Y-99401223D01*
X181841402Y-99384747D01*
X181861107Y-99370133D01*
X181882151Y-99357520D01*
X181904329Y-99347030D01*
X181927429Y-99338765D01*
X181951227Y-99332804D01*
X181975496Y-99329204D01*
X182000000Y-99328000D01*
X182925000Y-99328000D01*
X182949504Y-99329204D01*
X182949504Y-99329204D01*
G37*
D16*
X182462500Y-100203000D03*
%TD*%
D15*
%TO.C,R12*%
G36*
X179974504Y-96789204D02*
G01*
X179998773Y-96792804D01*
X180022571Y-96798765D01*
X180045671Y-96807030D01*
X180067849Y-96817520D01*
X180088893Y-96830133D01*
X180108598Y-96844747D01*
X180126777Y-96861223D01*
X180143253Y-96879402D01*
X180157867Y-96899107D01*
X180170480Y-96920151D01*
X180180970Y-96942329D01*
X180189235Y-96965429D01*
X180195196Y-96989227D01*
X180198796Y-97013496D01*
X180200000Y-97038000D01*
X180200000Y-98288000D01*
X180198796Y-98312504D01*
X180195196Y-98336773D01*
X180189235Y-98360571D01*
X180180970Y-98383671D01*
X180170480Y-98405849D01*
X180157867Y-98426893D01*
X180143253Y-98446598D01*
X180126777Y-98464777D01*
X180108598Y-98481253D01*
X180088893Y-98495867D01*
X180067849Y-98508480D01*
X180045671Y-98518970D01*
X180022571Y-98527235D01*
X179998773Y-98533196D01*
X179974504Y-98536796D01*
X179950000Y-98538000D01*
X179025000Y-98538000D01*
X179000496Y-98536796D01*
X178976227Y-98533196D01*
X178952429Y-98527235D01*
X178929329Y-98518970D01*
X178907151Y-98508480D01*
X178886107Y-98495867D01*
X178866402Y-98481253D01*
X178848223Y-98464777D01*
X178831747Y-98446598D01*
X178817133Y-98426893D01*
X178804520Y-98405849D01*
X178794030Y-98383671D01*
X178785765Y-98360571D01*
X178779804Y-98336773D01*
X178776204Y-98312504D01*
X178775000Y-98288000D01*
X178775000Y-97038000D01*
X178776204Y-97013496D01*
X178779804Y-96989227D01*
X178785765Y-96965429D01*
X178794030Y-96942329D01*
X178804520Y-96920151D01*
X178817133Y-96899107D01*
X178831747Y-96879402D01*
X178848223Y-96861223D01*
X178866402Y-96844747D01*
X178886107Y-96830133D01*
X178907151Y-96817520D01*
X178929329Y-96807030D01*
X178952429Y-96798765D01*
X178976227Y-96792804D01*
X179000496Y-96789204D01*
X179025000Y-96788000D01*
X179950000Y-96788000D01*
X179974504Y-96789204D01*
X179974504Y-96789204D01*
G37*
D16*
X179487500Y-97663000D03*
D15*
G36*
X182949504Y-96789204D02*
G01*
X182973773Y-96792804D01*
X182997571Y-96798765D01*
X183020671Y-96807030D01*
X183042849Y-96817520D01*
X183063893Y-96830133D01*
X183083598Y-96844747D01*
X183101777Y-96861223D01*
X183118253Y-96879402D01*
X183132867Y-96899107D01*
X183145480Y-96920151D01*
X183155970Y-96942329D01*
X183164235Y-96965429D01*
X183170196Y-96989227D01*
X183173796Y-97013496D01*
X183175000Y-97038000D01*
X183175000Y-98288000D01*
X183173796Y-98312504D01*
X183170196Y-98336773D01*
X183164235Y-98360571D01*
X183155970Y-98383671D01*
X183145480Y-98405849D01*
X183132867Y-98426893D01*
X183118253Y-98446598D01*
X183101777Y-98464777D01*
X183083598Y-98481253D01*
X183063893Y-98495867D01*
X183042849Y-98508480D01*
X183020671Y-98518970D01*
X182997571Y-98527235D01*
X182973773Y-98533196D01*
X182949504Y-98536796D01*
X182925000Y-98538000D01*
X182000000Y-98538000D01*
X181975496Y-98536796D01*
X181951227Y-98533196D01*
X181927429Y-98527235D01*
X181904329Y-98518970D01*
X181882151Y-98508480D01*
X181861107Y-98495867D01*
X181841402Y-98481253D01*
X181823223Y-98464777D01*
X181806747Y-98446598D01*
X181792133Y-98426893D01*
X181779520Y-98405849D01*
X181769030Y-98383671D01*
X181760765Y-98360571D01*
X181754804Y-98336773D01*
X181751204Y-98312504D01*
X181750000Y-98288000D01*
X181750000Y-97038000D01*
X181751204Y-97013496D01*
X181754804Y-96989227D01*
X181760765Y-96965429D01*
X181769030Y-96942329D01*
X181779520Y-96920151D01*
X181792133Y-96899107D01*
X181806747Y-96879402D01*
X181823223Y-96861223D01*
X181841402Y-96844747D01*
X181861107Y-96830133D01*
X181882151Y-96817520D01*
X181904329Y-96807030D01*
X181927429Y-96798765D01*
X181951227Y-96792804D01*
X181975496Y-96789204D01*
X182000000Y-96788000D01*
X182925000Y-96788000D01*
X182949504Y-96789204D01*
X182949504Y-96789204D01*
G37*
D16*
X182462500Y-97663000D03*
%TD*%
D15*
%TO.C,R13*%
G36*
X144540504Y-111974204D02*
G01*
X144564773Y-111977804D01*
X144588571Y-111983765D01*
X144611671Y-111992030D01*
X144633849Y-112002520D01*
X144654893Y-112015133D01*
X144674598Y-112029747D01*
X144692777Y-112046223D01*
X144709253Y-112064402D01*
X144723867Y-112084107D01*
X144736480Y-112105151D01*
X144746970Y-112127329D01*
X144755235Y-112150429D01*
X144761196Y-112174227D01*
X144764796Y-112198496D01*
X144766000Y-112223000D01*
X144766000Y-113148000D01*
X144764796Y-113172504D01*
X144761196Y-113196773D01*
X144755235Y-113220571D01*
X144746970Y-113243671D01*
X144736480Y-113265849D01*
X144723867Y-113286893D01*
X144709253Y-113306598D01*
X144692777Y-113324777D01*
X144674598Y-113341253D01*
X144654893Y-113355867D01*
X144633849Y-113368480D01*
X144611671Y-113378970D01*
X144588571Y-113387235D01*
X144564773Y-113393196D01*
X144540504Y-113396796D01*
X144516000Y-113398000D01*
X143266000Y-113398000D01*
X143241496Y-113396796D01*
X143217227Y-113393196D01*
X143193429Y-113387235D01*
X143170329Y-113378970D01*
X143148151Y-113368480D01*
X143127107Y-113355867D01*
X143107402Y-113341253D01*
X143089223Y-113324777D01*
X143072747Y-113306598D01*
X143058133Y-113286893D01*
X143045520Y-113265849D01*
X143035030Y-113243671D01*
X143026765Y-113220571D01*
X143020804Y-113196773D01*
X143017204Y-113172504D01*
X143016000Y-113148000D01*
X143016000Y-112223000D01*
X143017204Y-112198496D01*
X143020804Y-112174227D01*
X143026765Y-112150429D01*
X143035030Y-112127329D01*
X143045520Y-112105151D01*
X143058133Y-112084107D01*
X143072747Y-112064402D01*
X143089223Y-112046223D01*
X143107402Y-112029747D01*
X143127107Y-112015133D01*
X143148151Y-112002520D01*
X143170329Y-111992030D01*
X143193429Y-111983765D01*
X143217227Y-111977804D01*
X143241496Y-111974204D01*
X143266000Y-111973000D01*
X144516000Y-111973000D01*
X144540504Y-111974204D01*
X144540504Y-111974204D01*
G37*
D16*
X143891000Y-112685500D03*
D15*
G36*
X144540504Y-114949204D02*
G01*
X144564773Y-114952804D01*
X144588571Y-114958765D01*
X144611671Y-114967030D01*
X144633849Y-114977520D01*
X144654893Y-114990133D01*
X144674598Y-115004747D01*
X144692777Y-115021223D01*
X144709253Y-115039402D01*
X144723867Y-115059107D01*
X144736480Y-115080151D01*
X144746970Y-115102329D01*
X144755235Y-115125429D01*
X144761196Y-115149227D01*
X144764796Y-115173496D01*
X144766000Y-115198000D01*
X144766000Y-116123000D01*
X144764796Y-116147504D01*
X144761196Y-116171773D01*
X144755235Y-116195571D01*
X144746970Y-116218671D01*
X144736480Y-116240849D01*
X144723867Y-116261893D01*
X144709253Y-116281598D01*
X144692777Y-116299777D01*
X144674598Y-116316253D01*
X144654893Y-116330867D01*
X144633849Y-116343480D01*
X144611671Y-116353970D01*
X144588571Y-116362235D01*
X144564773Y-116368196D01*
X144540504Y-116371796D01*
X144516000Y-116373000D01*
X143266000Y-116373000D01*
X143241496Y-116371796D01*
X143217227Y-116368196D01*
X143193429Y-116362235D01*
X143170329Y-116353970D01*
X143148151Y-116343480D01*
X143127107Y-116330867D01*
X143107402Y-116316253D01*
X143089223Y-116299777D01*
X143072747Y-116281598D01*
X143058133Y-116261893D01*
X143045520Y-116240849D01*
X143035030Y-116218671D01*
X143026765Y-116195571D01*
X143020804Y-116171773D01*
X143017204Y-116147504D01*
X143016000Y-116123000D01*
X143016000Y-115198000D01*
X143017204Y-115173496D01*
X143020804Y-115149227D01*
X143026765Y-115125429D01*
X143035030Y-115102329D01*
X143045520Y-115080151D01*
X143058133Y-115059107D01*
X143072747Y-115039402D01*
X143089223Y-115021223D01*
X143107402Y-115004747D01*
X143127107Y-114990133D01*
X143148151Y-114977520D01*
X143170329Y-114967030D01*
X143193429Y-114958765D01*
X143217227Y-114952804D01*
X143241496Y-114949204D01*
X143266000Y-114948000D01*
X144516000Y-114948000D01*
X144540504Y-114949204D01*
X144540504Y-114949204D01*
G37*
D16*
X143891000Y-115660500D03*
%TD*%
D15*
%TO.C,R14*%
G36*
X155843504Y-119140204D02*
G01*
X155867773Y-119143804D01*
X155891571Y-119149765D01*
X155914671Y-119158030D01*
X155936849Y-119168520D01*
X155957893Y-119181133D01*
X155977598Y-119195747D01*
X155995777Y-119212223D01*
X156012253Y-119230402D01*
X156026867Y-119250107D01*
X156039480Y-119271151D01*
X156049970Y-119293329D01*
X156058235Y-119316429D01*
X156064196Y-119340227D01*
X156067796Y-119364496D01*
X156069000Y-119389000D01*
X156069000Y-120314000D01*
X156067796Y-120338504D01*
X156064196Y-120362773D01*
X156058235Y-120386571D01*
X156049970Y-120409671D01*
X156039480Y-120431849D01*
X156026867Y-120452893D01*
X156012253Y-120472598D01*
X155995777Y-120490777D01*
X155977598Y-120507253D01*
X155957893Y-120521867D01*
X155936849Y-120534480D01*
X155914671Y-120544970D01*
X155891571Y-120553235D01*
X155867773Y-120559196D01*
X155843504Y-120562796D01*
X155819000Y-120564000D01*
X154569000Y-120564000D01*
X154544496Y-120562796D01*
X154520227Y-120559196D01*
X154496429Y-120553235D01*
X154473329Y-120544970D01*
X154451151Y-120534480D01*
X154430107Y-120521867D01*
X154410402Y-120507253D01*
X154392223Y-120490777D01*
X154375747Y-120472598D01*
X154361133Y-120452893D01*
X154348520Y-120431849D01*
X154338030Y-120409671D01*
X154329765Y-120386571D01*
X154323804Y-120362773D01*
X154320204Y-120338504D01*
X154319000Y-120314000D01*
X154319000Y-119389000D01*
X154320204Y-119364496D01*
X154323804Y-119340227D01*
X154329765Y-119316429D01*
X154338030Y-119293329D01*
X154348520Y-119271151D01*
X154361133Y-119250107D01*
X154375747Y-119230402D01*
X154392223Y-119212223D01*
X154410402Y-119195747D01*
X154430107Y-119181133D01*
X154451151Y-119168520D01*
X154473329Y-119158030D01*
X154496429Y-119149765D01*
X154520227Y-119143804D01*
X154544496Y-119140204D01*
X154569000Y-119139000D01*
X155819000Y-119139000D01*
X155843504Y-119140204D01*
X155843504Y-119140204D01*
G37*
D16*
X155194000Y-119851500D03*
D15*
G36*
X155843504Y-116165204D02*
G01*
X155867773Y-116168804D01*
X155891571Y-116174765D01*
X155914671Y-116183030D01*
X155936849Y-116193520D01*
X155957893Y-116206133D01*
X155977598Y-116220747D01*
X155995777Y-116237223D01*
X156012253Y-116255402D01*
X156026867Y-116275107D01*
X156039480Y-116296151D01*
X156049970Y-116318329D01*
X156058235Y-116341429D01*
X156064196Y-116365227D01*
X156067796Y-116389496D01*
X156069000Y-116414000D01*
X156069000Y-117339000D01*
X156067796Y-117363504D01*
X156064196Y-117387773D01*
X156058235Y-117411571D01*
X156049970Y-117434671D01*
X156039480Y-117456849D01*
X156026867Y-117477893D01*
X156012253Y-117497598D01*
X155995777Y-117515777D01*
X155977598Y-117532253D01*
X155957893Y-117546867D01*
X155936849Y-117559480D01*
X155914671Y-117569970D01*
X155891571Y-117578235D01*
X155867773Y-117584196D01*
X155843504Y-117587796D01*
X155819000Y-117589000D01*
X154569000Y-117589000D01*
X154544496Y-117587796D01*
X154520227Y-117584196D01*
X154496429Y-117578235D01*
X154473329Y-117569970D01*
X154451151Y-117559480D01*
X154430107Y-117546867D01*
X154410402Y-117532253D01*
X154392223Y-117515777D01*
X154375747Y-117497598D01*
X154361133Y-117477893D01*
X154348520Y-117456849D01*
X154338030Y-117434671D01*
X154329765Y-117411571D01*
X154323804Y-117387773D01*
X154320204Y-117363504D01*
X154319000Y-117339000D01*
X154319000Y-116414000D01*
X154320204Y-116389496D01*
X154323804Y-116365227D01*
X154329765Y-116341429D01*
X154338030Y-116318329D01*
X154348520Y-116296151D01*
X154361133Y-116275107D01*
X154375747Y-116255402D01*
X154392223Y-116237223D01*
X154410402Y-116220747D01*
X154430107Y-116206133D01*
X154451151Y-116193520D01*
X154473329Y-116183030D01*
X154496429Y-116174765D01*
X154520227Y-116168804D01*
X154544496Y-116165204D01*
X154569000Y-116164000D01*
X155819000Y-116164000D01*
X155843504Y-116165204D01*
X155843504Y-116165204D01*
G37*
D16*
X155194000Y-116876500D03*
%TD*%
D15*
%TO.C,R15*%
G36*
X177869504Y-96789204D02*
G01*
X177893773Y-96792804D01*
X177917571Y-96798765D01*
X177940671Y-96807030D01*
X177962849Y-96817520D01*
X177983893Y-96830133D01*
X178003598Y-96844747D01*
X178021777Y-96861223D01*
X178038253Y-96879402D01*
X178052867Y-96899107D01*
X178065480Y-96920151D01*
X178075970Y-96942329D01*
X178084235Y-96965429D01*
X178090196Y-96989227D01*
X178093796Y-97013496D01*
X178095000Y-97038000D01*
X178095000Y-98288000D01*
X178093796Y-98312504D01*
X178090196Y-98336773D01*
X178084235Y-98360571D01*
X178075970Y-98383671D01*
X178065480Y-98405849D01*
X178052867Y-98426893D01*
X178038253Y-98446598D01*
X178021777Y-98464777D01*
X178003598Y-98481253D01*
X177983893Y-98495867D01*
X177962849Y-98508480D01*
X177940671Y-98518970D01*
X177917571Y-98527235D01*
X177893773Y-98533196D01*
X177869504Y-98536796D01*
X177845000Y-98538000D01*
X176920000Y-98538000D01*
X176895496Y-98536796D01*
X176871227Y-98533196D01*
X176847429Y-98527235D01*
X176824329Y-98518970D01*
X176802151Y-98508480D01*
X176781107Y-98495867D01*
X176761402Y-98481253D01*
X176743223Y-98464777D01*
X176726747Y-98446598D01*
X176712133Y-98426893D01*
X176699520Y-98405849D01*
X176689030Y-98383671D01*
X176680765Y-98360571D01*
X176674804Y-98336773D01*
X176671204Y-98312504D01*
X176670000Y-98288000D01*
X176670000Y-97038000D01*
X176671204Y-97013496D01*
X176674804Y-96989227D01*
X176680765Y-96965429D01*
X176689030Y-96942329D01*
X176699520Y-96920151D01*
X176712133Y-96899107D01*
X176726747Y-96879402D01*
X176743223Y-96861223D01*
X176761402Y-96844747D01*
X176781107Y-96830133D01*
X176802151Y-96817520D01*
X176824329Y-96807030D01*
X176847429Y-96798765D01*
X176871227Y-96792804D01*
X176895496Y-96789204D01*
X176920000Y-96788000D01*
X177845000Y-96788000D01*
X177869504Y-96789204D01*
X177869504Y-96789204D01*
G37*
D16*
X177382500Y-97663000D03*
D15*
G36*
X174894504Y-96789204D02*
G01*
X174918773Y-96792804D01*
X174942571Y-96798765D01*
X174965671Y-96807030D01*
X174987849Y-96817520D01*
X175008893Y-96830133D01*
X175028598Y-96844747D01*
X175046777Y-96861223D01*
X175063253Y-96879402D01*
X175077867Y-96899107D01*
X175090480Y-96920151D01*
X175100970Y-96942329D01*
X175109235Y-96965429D01*
X175115196Y-96989227D01*
X175118796Y-97013496D01*
X175120000Y-97038000D01*
X175120000Y-98288000D01*
X175118796Y-98312504D01*
X175115196Y-98336773D01*
X175109235Y-98360571D01*
X175100970Y-98383671D01*
X175090480Y-98405849D01*
X175077867Y-98426893D01*
X175063253Y-98446598D01*
X175046777Y-98464777D01*
X175028598Y-98481253D01*
X175008893Y-98495867D01*
X174987849Y-98508480D01*
X174965671Y-98518970D01*
X174942571Y-98527235D01*
X174918773Y-98533196D01*
X174894504Y-98536796D01*
X174870000Y-98538000D01*
X173945000Y-98538000D01*
X173920496Y-98536796D01*
X173896227Y-98533196D01*
X173872429Y-98527235D01*
X173849329Y-98518970D01*
X173827151Y-98508480D01*
X173806107Y-98495867D01*
X173786402Y-98481253D01*
X173768223Y-98464777D01*
X173751747Y-98446598D01*
X173737133Y-98426893D01*
X173724520Y-98405849D01*
X173714030Y-98383671D01*
X173705765Y-98360571D01*
X173699804Y-98336773D01*
X173696204Y-98312504D01*
X173695000Y-98288000D01*
X173695000Y-97038000D01*
X173696204Y-97013496D01*
X173699804Y-96989227D01*
X173705765Y-96965429D01*
X173714030Y-96942329D01*
X173724520Y-96920151D01*
X173737133Y-96899107D01*
X173751747Y-96879402D01*
X173768223Y-96861223D01*
X173786402Y-96844747D01*
X173806107Y-96830133D01*
X173827151Y-96817520D01*
X173849329Y-96807030D01*
X173872429Y-96798765D01*
X173896227Y-96792804D01*
X173920496Y-96789204D01*
X173945000Y-96788000D01*
X174870000Y-96788000D01*
X174894504Y-96789204D01*
X174894504Y-96789204D01*
G37*
D16*
X174407500Y-97663000D03*
%TD*%
D15*
%TO.C,R16*%
G36*
X162829504Y-101234204D02*
G01*
X162853773Y-101237804D01*
X162877571Y-101243765D01*
X162900671Y-101252030D01*
X162922849Y-101262520D01*
X162943893Y-101275133D01*
X162963598Y-101289747D01*
X162981777Y-101306223D01*
X162998253Y-101324402D01*
X163012867Y-101344107D01*
X163025480Y-101365151D01*
X163035970Y-101387329D01*
X163044235Y-101410429D01*
X163050196Y-101434227D01*
X163053796Y-101458496D01*
X163055000Y-101483000D01*
X163055000Y-102733000D01*
X163053796Y-102757504D01*
X163050196Y-102781773D01*
X163044235Y-102805571D01*
X163035970Y-102828671D01*
X163025480Y-102850849D01*
X163012867Y-102871893D01*
X162998253Y-102891598D01*
X162981777Y-102909777D01*
X162963598Y-102926253D01*
X162943893Y-102940867D01*
X162922849Y-102953480D01*
X162900671Y-102963970D01*
X162877571Y-102972235D01*
X162853773Y-102978196D01*
X162829504Y-102981796D01*
X162805000Y-102983000D01*
X161880000Y-102983000D01*
X161855496Y-102981796D01*
X161831227Y-102978196D01*
X161807429Y-102972235D01*
X161784329Y-102963970D01*
X161762151Y-102953480D01*
X161741107Y-102940867D01*
X161721402Y-102926253D01*
X161703223Y-102909777D01*
X161686747Y-102891598D01*
X161672133Y-102871893D01*
X161659520Y-102850849D01*
X161649030Y-102828671D01*
X161640765Y-102805571D01*
X161634804Y-102781773D01*
X161631204Y-102757504D01*
X161630000Y-102733000D01*
X161630000Y-101483000D01*
X161631204Y-101458496D01*
X161634804Y-101434227D01*
X161640765Y-101410429D01*
X161649030Y-101387329D01*
X161659520Y-101365151D01*
X161672133Y-101344107D01*
X161686747Y-101324402D01*
X161703223Y-101306223D01*
X161721402Y-101289747D01*
X161741107Y-101275133D01*
X161762151Y-101262520D01*
X161784329Y-101252030D01*
X161807429Y-101243765D01*
X161831227Y-101237804D01*
X161855496Y-101234204D01*
X161880000Y-101233000D01*
X162805000Y-101233000D01*
X162829504Y-101234204D01*
X162829504Y-101234204D01*
G37*
D16*
X162342500Y-102108000D03*
D15*
G36*
X165804504Y-101234204D02*
G01*
X165828773Y-101237804D01*
X165852571Y-101243765D01*
X165875671Y-101252030D01*
X165897849Y-101262520D01*
X165918893Y-101275133D01*
X165938598Y-101289747D01*
X165956777Y-101306223D01*
X165973253Y-101324402D01*
X165987867Y-101344107D01*
X166000480Y-101365151D01*
X166010970Y-101387329D01*
X166019235Y-101410429D01*
X166025196Y-101434227D01*
X166028796Y-101458496D01*
X166030000Y-101483000D01*
X166030000Y-102733000D01*
X166028796Y-102757504D01*
X166025196Y-102781773D01*
X166019235Y-102805571D01*
X166010970Y-102828671D01*
X166000480Y-102850849D01*
X165987867Y-102871893D01*
X165973253Y-102891598D01*
X165956777Y-102909777D01*
X165938598Y-102926253D01*
X165918893Y-102940867D01*
X165897849Y-102953480D01*
X165875671Y-102963970D01*
X165852571Y-102972235D01*
X165828773Y-102978196D01*
X165804504Y-102981796D01*
X165780000Y-102983000D01*
X164855000Y-102983000D01*
X164830496Y-102981796D01*
X164806227Y-102978196D01*
X164782429Y-102972235D01*
X164759329Y-102963970D01*
X164737151Y-102953480D01*
X164716107Y-102940867D01*
X164696402Y-102926253D01*
X164678223Y-102909777D01*
X164661747Y-102891598D01*
X164647133Y-102871893D01*
X164634520Y-102850849D01*
X164624030Y-102828671D01*
X164615765Y-102805571D01*
X164609804Y-102781773D01*
X164606204Y-102757504D01*
X164605000Y-102733000D01*
X164605000Y-101483000D01*
X164606204Y-101458496D01*
X164609804Y-101434227D01*
X164615765Y-101410429D01*
X164624030Y-101387329D01*
X164634520Y-101365151D01*
X164647133Y-101344107D01*
X164661747Y-101324402D01*
X164678223Y-101306223D01*
X164696402Y-101289747D01*
X164716107Y-101275133D01*
X164737151Y-101262520D01*
X164759329Y-101252030D01*
X164782429Y-101243765D01*
X164806227Y-101237804D01*
X164830496Y-101234204D01*
X164855000Y-101233000D01*
X165780000Y-101233000D01*
X165804504Y-101234204D01*
X165804504Y-101234204D01*
G37*
D16*
X165317500Y-102108000D03*
%TD*%
D15*
%TO.C,R17*%
G36*
X109362504Y-108727204D02*
G01*
X109386773Y-108730804D01*
X109410571Y-108736765D01*
X109433671Y-108745030D01*
X109455849Y-108755520D01*
X109476893Y-108768133D01*
X109496598Y-108782747D01*
X109514777Y-108799223D01*
X109531253Y-108817402D01*
X109545867Y-108837107D01*
X109558480Y-108858151D01*
X109568970Y-108880329D01*
X109577235Y-108903429D01*
X109583196Y-108927227D01*
X109586796Y-108951496D01*
X109588000Y-108976000D01*
X109588000Y-110226000D01*
X109586796Y-110250504D01*
X109583196Y-110274773D01*
X109577235Y-110298571D01*
X109568970Y-110321671D01*
X109558480Y-110343849D01*
X109545867Y-110364893D01*
X109531253Y-110384598D01*
X109514777Y-110402777D01*
X109496598Y-110419253D01*
X109476893Y-110433867D01*
X109455849Y-110446480D01*
X109433671Y-110456970D01*
X109410571Y-110465235D01*
X109386773Y-110471196D01*
X109362504Y-110474796D01*
X109338000Y-110476000D01*
X108413000Y-110476000D01*
X108388496Y-110474796D01*
X108364227Y-110471196D01*
X108340429Y-110465235D01*
X108317329Y-110456970D01*
X108295151Y-110446480D01*
X108274107Y-110433867D01*
X108254402Y-110419253D01*
X108236223Y-110402777D01*
X108219747Y-110384598D01*
X108205133Y-110364893D01*
X108192520Y-110343849D01*
X108182030Y-110321671D01*
X108173765Y-110298571D01*
X108167804Y-110274773D01*
X108164204Y-110250504D01*
X108163000Y-110226000D01*
X108163000Y-108976000D01*
X108164204Y-108951496D01*
X108167804Y-108927227D01*
X108173765Y-108903429D01*
X108182030Y-108880329D01*
X108192520Y-108858151D01*
X108205133Y-108837107D01*
X108219747Y-108817402D01*
X108236223Y-108799223D01*
X108254402Y-108782747D01*
X108274107Y-108768133D01*
X108295151Y-108755520D01*
X108317329Y-108745030D01*
X108340429Y-108736765D01*
X108364227Y-108730804D01*
X108388496Y-108727204D01*
X108413000Y-108726000D01*
X109338000Y-108726000D01*
X109362504Y-108727204D01*
X109362504Y-108727204D01*
G37*
D16*
X108875500Y-109601000D03*
D15*
G36*
X112337504Y-108727204D02*
G01*
X112361773Y-108730804D01*
X112385571Y-108736765D01*
X112408671Y-108745030D01*
X112430849Y-108755520D01*
X112451893Y-108768133D01*
X112471598Y-108782747D01*
X112489777Y-108799223D01*
X112506253Y-108817402D01*
X112520867Y-108837107D01*
X112533480Y-108858151D01*
X112543970Y-108880329D01*
X112552235Y-108903429D01*
X112558196Y-108927227D01*
X112561796Y-108951496D01*
X112563000Y-108976000D01*
X112563000Y-110226000D01*
X112561796Y-110250504D01*
X112558196Y-110274773D01*
X112552235Y-110298571D01*
X112543970Y-110321671D01*
X112533480Y-110343849D01*
X112520867Y-110364893D01*
X112506253Y-110384598D01*
X112489777Y-110402777D01*
X112471598Y-110419253D01*
X112451893Y-110433867D01*
X112430849Y-110446480D01*
X112408671Y-110456970D01*
X112385571Y-110465235D01*
X112361773Y-110471196D01*
X112337504Y-110474796D01*
X112313000Y-110476000D01*
X111388000Y-110476000D01*
X111363496Y-110474796D01*
X111339227Y-110471196D01*
X111315429Y-110465235D01*
X111292329Y-110456970D01*
X111270151Y-110446480D01*
X111249107Y-110433867D01*
X111229402Y-110419253D01*
X111211223Y-110402777D01*
X111194747Y-110384598D01*
X111180133Y-110364893D01*
X111167520Y-110343849D01*
X111157030Y-110321671D01*
X111148765Y-110298571D01*
X111142804Y-110274773D01*
X111139204Y-110250504D01*
X111138000Y-110226000D01*
X111138000Y-108976000D01*
X111139204Y-108951496D01*
X111142804Y-108927227D01*
X111148765Y-108903429D01*
X111157030Y-108880329D01*
X111167520Y-108858151D01*
X111180133Y-108837107D01*
X111194747Y-108817402D01*
X111211223Y-108799223D01*
X111229402Y-108782747D01*
X111249107Y-108768133D01*
X111270151Y-108755520D01*
X111292329Y-108745030D01*
X111315429Y-108736765D01*
X111339227Y-108730804D01*
X111363496Y-108727204D01*
X111388000Y-108726000D01*
X112313000Y-108726000D01*
X112337504Y-108727204D01*
X112337504Y-108727204D01*
G37*
D16*
X111850500Y-109601000D03*
%TD*%
D15*
%TO.C,R18*%
G36*
X142127504Y-109742204D02*
G01*
X142151773Y-109745804D01*
X142175571Y-109751765D01*
X142198671Y-109760030D01*
X142220849Y-109770520D01*
X142241893Y-109783133D01*
X142261598Y-109797747D01*
X142279777Y-109814223D01*
X142296253Y-109832402D01*
X142310867Y-109852107D01*
X142323480Y-109873151D01*
X142333970Y-109895329D01*
X142342235Y-109918429D01*
X142348196Y-109942227D01*
X142351796Y-109966496D01*
X142353000Y-109991000D01*
X142353000Y-110916000D01*
X142351796Y-110940504D01*
X142348196Y-110964773D01*
X142342235Y-110988571D01*
X142333970Y-111011671D01*
X142323480Y-111033849D01*
X142310867Y-111054893D01*
X142296253Y-111074598D01*
X142279777Y-111092777D01*
X142261598Y-111109253D01*
X142241893Y-111123867D01*
X142220849Y-111136480D01*
X142198671Y-111146970D01*
X142175571Y-111155235D01*
X142151773Y-111161196D01*
X142127504Y-111164796D01*
X142103000Y-111166000D01*
X140853000Y-111166000D01*
X140828496Y-111164796D01*
X140804227Y-111161196D01*
X140780429Y-111155235D01*
X140757329Y-111146970D01*
X140735151Y-111136480D01*
X140714107Y-111123867D01*
X140694402Y-111109253D01*
X140676223Y-111092777D01*
X140659747Y-111074598D01*
X140645133Y-111054893D01*
X140632520Y-111033849D01*
X140622030Y-111011671D01*
X140613765Y-110988571D01*
X140607804Y-110964773D01*
X140604204Y-110940504D01*
X140603000Y-110916000D01*
X140603000Y-109991000D01*
X140604204Y-109966496D01*
X140607804Y-109942227D01*
X140613765Y-109918429D01*
X140622030Y-109895329D01*
X140632520Y-109873151D01*
X140645133Y-109852107D01*
X140659747Y-109832402D01*
X140676223Y-109814223D01*
X140694402Y-109797747D01*
X140714107Y-109783133D01*
X140735151Y-109770520D01*
X140757329Y-109760030D01*
X140780429Y-109751765D01*
X140804227Y-109745804D01*
X140828496Y-109742204D01*
X140853000Y-109741000D01*
X142103000Y-109741000D01*
X142127504Y-109742204D01*
X142127504Y-109742204D01*
G37*
D16*
X141478000Y-110453500D03*
D15*
G36*
X142127504Y-106767204D02*
G01*
X142151773Y-106770804D01*
X142175571Y-106776765D01*
X142198671Y-106785030D01*
X142220849Y-106795520D01*
X142241893Y-106808133D01*
X142261598Y-106822747D01*
X142279777Y-106839223D01*
X142296253Y-106857402D01*
X142310867Y-106877107D01*
X142323480Y-106898151D01*
X142333970Y-106920329D01*
X142342235Y-106943429D01*
X142348196Y-106967227D01*
X142351796Y-106991496D01*
X142353000Y-107016000D01*
X142353000Y-107941000D01*
X142351796Y-107965504D01*
X142348196Y-107989773D01*
X142342235Y-108013571D01*
X142333970Y-108036671D01*
X142323480Y-108058849D01*
X142310867Y-108079893D01*
X142296253Y-108099598D01*
X142279777Y-108117777D01*
X142261598Y-108134253D01*
X142241893Y-108148867D01*
X142220849Y-108161480D01*
X142198671Y-108171970D01*
X142175571Y-108180235D01*
X142151773Y-108186196D01*
X142127504Y-108189796D01*
X142103000Y-108191000D01*
X140853000Y-108191000D01*
X140828496Y-108189796D01*
X140804227Y-108186196D01*
X140780429Y-108180235D01*
X140757329Y-108171970D01*
X140735151Y-108161480D01*
X140714107Y-108148867D01*
X140694402Y-108134253D01*
X140676223Y-108117777D01*
X140659747Y-108099598D01*
X140645133Y-108079893D01*
X140632520Y-108058849D01*
X140622030Y-108036671D01*
X140613765Y-108013571D01*
X140607804Y-107989773D01*
X140604204Y-107965504D01*
X140603000Y-107941000D01*
X140603000Y-107016000D01*
X140604204Y-106991496D01*
X140607804Y-106967227D01*
X140613765Y-106943429D01*
X140622030Y-106920329D01*
X140632520Y-106898151D01*
X140645133Y-106877107D01*
X140659747Y-106857402D01*
X140676223Y-106839223D01*
X140694402Y-106822747D01*
X140714107Y-106808133D01*
X140735151Y-106795520D01*
X140757329Y-106785030D01*
X140780429Y-106776765D01*
X140804227Y-106770804D01*
X140828496Y-106767204D01*
X140853000Y-106766000D01*
X142103000Y-106766000D01*
X142127504Y-106767204D01*
X142127504Y-106767204D01*
G37*
D16*
X141478000Y-107478500D03*
%TD*%
D15*
%TO.C,R19*%
G36*
X158383504Y-109742204D02*
G01*
X158407773Y-109745804D01*
X158431571Y-109751765D01*
X158454671Y-109760030D01*
X158476849Y-109770520D01*
X158497893Y-109783133D01*
X158517598Y-109797747D01*
X158535777Y-109814223D01*
X158552253Y-109832402D01*
X158566867Y-109852107D01*
X158579480Y-109873151D01*
X158589970Y-109895329D01*
X158598235Y-109918429D01*
X158604196Y-109942227D01*
X158607796Y-109966496D01*
X158609000Y-109991000D01*
X158609000Y-110916000D01*
X158607796Y-110940504D01*
X158604196Y-110964773D01*
X158598235Y-110988571D01*
X158589970Y-111011671D01*
X158579480Y-111033849D01*
X158566867Y-111054893D01*
X158552253Y-111074598D01*
X158535777Y-111092777D01*
X158517598Y-111109253D01*
X158497893Y-111123867D01*
X158476849Y-111136480D01*
X158454671Y-111146970D01*
X158431571Y-111155235D01*
X158407773Y-111161196D01*
X158383504Y-111164796D01*
X158359000Y-111166000D01*
X157109000Y-111166000D01*
X157084496Y-111164796D01*
X157060227Y-111161196D01*
X157036429Y-111155235D01*
X157013329Y-111146970D01*
X156991151Y-111136480D01*
X156970107Y-111123867D01*
X156950402Y-111109253D01*
X156932223Y-111092777D01*
X156915747Y-111074598D01*
X156901133Y-111054893D01*
X156888520Y-111033849D01*
X156878030Y-111011671D01*
X156869765Y-110988571D01*
X156863804Y-110964773D01*
X156860204Y-110940504D01*
X156859000Y-110916000D01*
X156859000Y-109991000D01*
X156860204Y-109966496D01*
X156863804Y-109942227D01*
X156869765Y-109918429D01*
X156878030Y-109895329D01*
X156888520Y-109873151D01*
X156901133Y-109852107D01*
X156915747Y-109832402D01*
X156932223Y-109814223D01*
X156950402Y-109797747D01*
X156970107Y-109783133D01*
X156991151Y-109770520D01*
X157013329Y-109760030D01*
X157036429Y-109751765D01*
X157060227Y-109745804D01*
X157084496Y-109742204D01*
X157109000Y-109741000D01*
X158359000Y-109741000D01*
X158383504Y-109742204D01*
X158383504Y-109742204D01*
G37*
D16*
X157734000Y-110453500D03*
D15*
G36*
X158383504Y-106767204D02*
G01*
X158407773Y-106770804D01*
X158431571Y-106776765D01*
X158454671Y-106785030D01*
X158476849Y-106795520D01*
X158497893Y-106808133D01*
X158517598Y-106822747D01*
X158535777Y-106839223D01*
X158552253Y-106857402D01*
X158566867Y-106877107D01*
X158579480Y-106898151D01*
X158589970Y-106920329D01*
X158598235Y-106943429D01*
X158604196Y-106967227D01*
X158607796Y-106991496D01*
X158609000Y-107016000D01*
X158609000Y-107941000D01*
X158607796Y-107965504D01*
X158604196Y-107989773D01*
X158598235Y-108013571D01*
X158589970Y-108036671D01*
X158579480Y-108058849D01*
X158566867Y-108079893D01*
X158552253Y-108099598D01*
X158535777Y-108117777D01*
X158517598Y-108134253D01*
X158497893Y-108148867D01*
X158476849Y-108161480D01*
X158454671Y-108171970D01*
X158431571Y-108180235D01*
X158407773Y-108186196D01*
X158383504Y-108189796D01*
X158359000Y-108191000D01*
X157109000Y-108191000D01*
X157084496Y-108189796D01*
X157060227Y-108186196D01*
X157036429Y-108180235D01*
X157013329Y-108171970D01*
X156991151Y-108161480D01*
X156970107Y-108148867D01*
X156950402Y-108134253D01*
X156932223Y-108117777D01*
X156915747Y-108099598D01*
X156901133Y-108079893D01*
X156888520Y-108058849D01*
X156878030Y-108036671D01*
X156869765Y-108013571D01*
X156863804Y-107989773D01*
X156860204Y-107965504D01*
X156859000Y-107941000D01*
X156859000Y-107016000D01*
X156860204Y-106991496D01*
X156863804Y-106967227D01*
X156869765Y-106943429D01*
X156878030Y-106920329D01*
X156888520Y-106898151D01*
X156901133Y-106877107D01*
X156915747Y-106857402D01*
X156932223Y-106839223D01*
X156950402Y-106822747D01*
X156970107Y-106808133D01*
X156991151Y-106795520D01*
X157013329Y-106785030D01*
X157036429Y-106776765D01*
X157060227Y-106770804D01*
X157084496Y-106767204D01*
X157109000Y-106766000D01*
X158359000Y-106766000D01*
X158383504Y-106767204D01*
X158383504Y-106767204D01*
G37*
D16*
X157734000Y-107478500D03*
%TD*%
D15*
%TO.C,R20*%
G36*
X162193504Y-109742204D02*
G01*
X162217773Y-109745804D01*
X162241571Y-109751765D01*
X162264671Y-109760030D01*
X162286849Y-109770520D01*
X162307893Y-109783133D01*
X162327598Y-109797747D01*
X162345777Y-109814223D01*
X162362253Y-109832402D01*
X162376867Y-109852107D01*
X162389480Y-109873151D01*
X162399970Y-109895329D01*
X162408235Y-109918429D01*
X162414196Y-109942227D01*
X162417796Y-109966496D01*
X162419000Y-109991000D01*
X162419000Y-110916000D01*
X162417796Y-110940504D01*
X162414196Y-110964773D01*
X162408235Y-110988571D01*
X162399970Y-111011671D01*
X162389480Y-111033849D01*
X162376867Y-111054893D01*
X162362253Y-111074598D01*
X162345777Y-111092777D01*
X162327598Y-111109253D01*
X162307893Y-111123867D01*
X162286849Y-111136480D01*
X162264671Y-111146970D01*
X162241571Y-111155235D01*
X162217773Y-111161196D01*
X162193504Y-111164796D01*
X162169000Y-111166000D01*
X160919000Y-111166000D01*
X160894496Y-111164796D01*
X160870227Y-111161196D01*
X160846429Y-111155235D01*
X160823329Y-111146970D01*
X160801151Y-111136480D01*
X160780107Y-111123867D01*
X160760402Y-111109253D01*
X160742223Y-111092777D01*
X160725747Y-111074598D01*
X160711133Y-111054893D01*
X160698520Y-111033849D01*
X160688030Y-111011671D01*
X160679765Y-110988571D01*
X160673804Y-110964773D01*
X160670204Y-110940504D01*
X160669000Y-110916000D01*
X160669000Y-109991000D01*
X160670204Y-109966496D01*
X160673804Y-109942227D01*
X160679765Y-109918429D01*
X160688030Y-109895329D01*
X160698520Y-109873151D01*
X160711133Y-109852107D01*
X160725747Y-109832402D01*
X160742223Y-109814223D01*
X160760402Y-109797747D01*
X160780107Y-109783133D01*
X160801151Y-109770520D01*
X160823329Y-109760030D01*
X160846429Y-109751765D01*
X160870227Y-109745804D01*
X160894496Y-109742204D01*
X160919000Y-109741000D01*
X162169000Y-109741000D01*
X162193504Y-109742204D01*
X162193504Y-109742204D01*
G37*
D16*
X161544000Y-110453500D03*
D15*
G36*
X162193504Y-106767204D02*
G01*
X162217773Y-106770804D01*
X162241571Y-106776765D01*
X162264671Y-106785030D01*
X162286849Y-106795520D01*
X162307893Y-106808133D01*
X162327598Y-106822747D01*
X162345777Y-106839223D01*
X162362253Y-106857402D01*
X162376867Y-106877107D01*
X162389480Y-106898151D01*
X162399970Y-106920329D01*
X162408235Y-106943429D01*
X162414196Y-106967227D01*
X162417796Y-106991496D01*
X162419000Y-107016000D01*
X162419000Y-107941000D01*
X162417796Y-107965504D01*
X162414196Y-107989773D01*
X162408235Y-108013571D01*
X162399970Y-108036671D01*
X162389480Y-108058849D01*
X162376867Y-108079893D01*
X162362253Y-108099598D01*
X162345777Y-108117777D01*
X162327598Y-108134253D01*
X162307893Y-108148867D01*
X162286849Y-108161480D01*
X162264671Y-108171970D01*
X162241571Y-108180235D01*
X162217773Y-108186196D01*
X162193504Y-108189796D01*
X162169000Y-108191000D01*
X160919000Y-108191000D01*
X160894496Y-108189796D01*
X160870227Y-108186196D01*
X160846429Y-108180235D01*
X160823329Y-108171970D01*
X160801151Y-108161480D01*
X160780107Y-108148867D01*
X160760402Y-108134253D01*
X160742223Y-108117777D01*
X160725747Y-108099598D01*
X160711133Y-108079893D01*
X160698520Y-108058849D01*
X160688030Y-108036671D01*
X160679765Y-108013571D01*
X160673804Y-107989773D01*
X160670204Y-107965504D01*
X160669000Y-107941000D01*
X160669000Y-107016000D01*
X160670204Y-106991496D01*
X160673804Y-106967227D01*
X160679765Y-106943429D01*
X160688030Y-106920329D01*
X160698520Y-106898151D01*
X160711133Y-106877107D01*
X160725747Y-106857402D01*
X160742223Y-106839223D01*
X160760402Y-106822747D01*
X160780107Y-106808133D01*
X160801151Y-106795520D01*
X160823329Y-106785030D01*
X160846429Y-106776765D01*
X160870227Y-106770804D01*
X160894496Y-106767204D01*
X160919000Y-106766000D01*
X162169000Y-106766000D01*
X162193504Y-106767204D01*
X162193504Y-106767204D01*
G37*
D16*
X161544000Y-107478500D03*
%TD*%
D15*
%TO.C,R21*%
G36*
X162883504Y-92090204D02*
G01*
X162907773Y-92093804D01*
X162931571Y-92099765D01*
X162954671Y-92108030D01*
X162976849Y-92118520D01*
X162997893Y-92131133D01*
X163017598Y-92145747D01*
X163035777Y-92162223D01*
X163052253Y-92180402D01*
X163066867Y-92200107D01*
X163079480Y-92221151D01*
X163089970Y-92243329D01*
X163098235Y-92266429D01*
X163104196Y-92290227D01*
X163107796Y-92314496D01*
X163109000Y-92339000D01*
X163109000Y-93589000D01*
X163107796Y-93613504D01*
X163104196Y-93637773D01*
X163098235Y-93661571D01*
X163089970Y-93684671D01*
X163079480Y-93706849D01*
X163066867Y-93727893D01*
X163052253Y-93747598D01*
X163035777Y-93765777D01*
X163017598Y-93782253D01*
X162997893Y-93796867D01*
X162976849Y-93809480D01*
X162954671Y-93819970D01*
X162931571Y-93828235D01*
X162907773Y-93834196D01*
X162883504Y-93837796D01*
X162859000Y-93839000D01*
X161934000Y-93839000D01*
X161909496Y-93837796D01*
X161885227Y-93834196D01*
X161861429Y-93828235D01*
X161838329Y-93819970D01*
X161816151Y-93809480D01*
X161795107Y-93796867D01*
X161775402Y-93782253D01*
X161757223Y-93765777D01*
X161740747Y-93747598D01*
X161726133Y-93727893D01*
X161713520Y-93706849D01*
X161703030Y-93684671D01*
X161694765Y-93661571D01*
X161688804Y-93637773D01*
X161685204Y-93613504D01*
X161684000Y-93589000D01*
X161684000Y-92339000D01*
X161685204Y-92314496D01*
X161688804Y-92290227D01*
X161694765Y-92266429D01*
X161703030Y-92243329D01*
X161713520Y-92221151D01*
X161726133Y-92200107D01*
X161740747Y-92180402D01*
X161757223Y-92162223D01*
X161775402Y-92145747D01*
X161795107Y-92131133D01*
X161816151Y-92118520D01*
X161838329Y-92108030D01*
X161861429Y-92099765D01*
X161885227Y-92093804D01*
X161909496Y-92090204D01*
X161934000Y-92089000D01*
X162859000Y-92089000D01*
X162883504Y-92090204D01*
X162883504Y-92090204D01*
G37*
D16*
X162396500Y-92964000D03*
D15*
G36*
X159908504Y-92090204D02*
G01*
X159932773Y-92093804D01*
X159956571Y-92099765D01*
X159979671Y-92108030D01*
X160001849Y-92118520D01*
X160022893Y-92131133D01*
X160042598Y-92145747D01*
X160060777Y-92162223D01*
X160077253Y-92180402D01*
X160091867Y-92200107D01*
X160104480Y-92221151D01*
X160114970Y-92243329D01*
X160123235Y-92266429D01*
X160129196Y-92290227D01*
X160132796Y-92314496D01*
X160134000Y-92339000D01*
X160134000Y-93589000D01*
X160132796Y-93613504D01*
X160129196Y-93637773D01*
X160123235Y-93661571D01*
X160114970Y-93684671D01*
X160104480Y-93706849D01*
X160091867Y-93727893D01*
X160077253Y-93747598D01*
X160060777Y-93765777D01*
X160042598Y-93782253D01*
X160022893Y-93796867D01*
X160001849Y-93809480D01*
X159979671Y-93819970D01*
X159956571Y-93828235D01*
X159932773Y-93834196D01*
X159908504Y-93837796D01*
X159884000Y-93839000D01*
X158959000Y-93839000D01*
X158934496Y-93837796D01*
X158910227Y-93834196D01*
X158886429Y-93828235D01*
X158863329Y-93819970D01*
X158841151Y-93809480D01*
X158820107Y-93796867D01*
X158800402Y-93782253D01*
X158782223Y-93765777D01*
X158765747Y-93747598D01*
X158751133Y-93727893D01*
X158738520Y-93706849D01*
X158728030Y-93684671D01*
X158719765Y-93661571D01*
X158713804Y-93637773D01*
X158710204Y-93613504D01*
X158709000Y-93589000D01*
X158709000Y-92339000D01*
X158710204Y-92314496D01*
X158713804Y-92290227D01*
X158719765Y-92266429D01*
X158728030Y-92243329D01*
X158738520Y-92221151D01*
X158751133Y-92200107D01*
X158765747Y-92180402D01*
X158782223Y-92162223D01*
X158800402Y-92145747D01*
X158820107Y-92131133D01*
X158841151Y-92118520D01*
X158863329Y-92108030D01*
X158886429Y-92099765D01*
X158910227Y-92093804D01*
X158934496Y-92090204D01*
X158959000Y-92089000D01*
X159884000Y-92089000D01*
X159908504Y-92090204D01*
X159908504Y-92090204D01*
G37*
D16*
X159421500Y-92964000D03*
%TD*%
D15*
%TO.C,R22*%
G36*
X164733504Y-106767204D02*
G01*
X164757773Y-106770804D01*
X164781571Y-106776765D01*
X164804671Y-106785030D01*
X164826849Y-106795520D01*
X164847893Y-106808133D01*
X164867598Y-106822747D01*
X164885777Y-106839223D01*
X164902253Y-106857402D01*
X164916867Y-106877107D01*
X164929480Y-106898151D01*
X164939970Y-106920329D01*
X164948235Y-106943429D01*
X164954196Y-106967227D01*
X164957796Y-106991496D01*
X164959000Y-107016000D01*
X164959000Y-107941000D01*
X164957796Y-107965504D01*
X164954196Y-107989773D01*
X164948235Y-108013571D01*
X164939970Y-108036671D01*
X164929480Y-108058849D01*
X164916867Y-108079893D01*
X164902253Y-108099598D01*
X164885777Y-108117777D01*
X164867598Y-108134253D01*
X164847893Y-108148867D01*
X164826849Y-108161480D01*
X164804671Y-108171970D01*
X164781571Y-108180235D01*
X164757773Y-108186196D01*
X164733504Y-108189796D01*
X164709000Y-108191000D01*
X163459000Y-108191000D01*
X163434496Y-108189796D01*
X163410227Y-108186196D01*
X163386429Y-108180235D01*
X163363329Y-108171970D01*
X163341151Y-108161480D01*
X163320107Y-108148867D01*
X163300402Y-108134253D01*
X163282223Y-108117777D01*
X163265747Y-108099598D01*
X163251133Y-108079893D01*
X163238520Y-108058849D01*
X163228030Y-108036671D01*
X163219765Y-108013571D01*
X163213804Y-107989773D01*
X163210204Y-107965504D01*
X163209000Y-107941000D01*
X163209000Y-107016000D01*
X163210204Y-106991496D01*
X163213804Y-106967227D01*
X163219765Y-106943429D01*
X163228030Y-106920329D01*
X163238520Y-106898151D01*
X163251133Y-106877107D01*
X163265747Y-106857402D01*
X163282223Y-106839223D01*
X163300402Y-106822747D01*
X163320107Y-106808133D01*
X163341151Y-106795520D01*
X163363329Y-106785030D01*
X163386429Y-106776765D01*
X163410227Y-106770804D01*
X163434496Y-106767204D01*
X163459000Y-106766000D01*
X164709000Y-106766000D01*
X164733504Y-106767204D01*
X164733504Y-106767204D01*
G37*
D16*
X164084000Y-107478500D03*
D15*
G36*
X164733504Y-109742204D02*
G01*
X164757773Y-109745804D01*
X164781571Y-109751765D01*
X164804671Y-109760030D01*
X164826849Y-109770520D01*
X164847893Y-109783133D01*
X164867598Y-109797747D01*
X164885777Y-109814223D01*
X164902253Y-109832402D01*
X164916867Y-109852107D01*
X164929480Y-109873151D01*
X164939970Y-109895329D01*
X164948235Y-109918429D01*
X164954196Y-109942227D01*
X164957796Y-109966496D01*
X164959000Y-109991000D01*
X164959000Y-110916000D01*
X164957796Y-110940504D01*
X164954196Y-110964773D01*
X164948235Y-110988571D01*
X164939970Y-111011671D01*
X164929480Y-111033849D01*
X164916867Y-111054893D01*
X164902253Y-111074598D01*
X164885777Y-111092777D01*
X164867598Y-111109253D01*
X164847893Y-111123867D01*
X164826849Y-111136480D01*
X164804671Y-111146970D01*
X164781571Y-111155235D01*
X164757773Y-111161196D01*
X164733504Y-111164796D01*
X164709000Y-111166000D01*
X163459000Y-111166000D01*
X163434496Y-111164796D01*
X163410227Y-111161196D01*
X163386429Y-111155235D01*
X163363329Y-111146970D01*
X163341151Y-111136480D01*
X163320107Y-111123867D01*
X163300402Y-111109253D01*
X163282223Y-111092777D01*
X163265747Y-111074598D01*
X163251133Y-111054893D01*
X163238520Y-111033849D01*
X163228030Y-111011671D01*
X163219765Y-110988571D01*
X163213804Y-110964773D01*
X163210204Y-110940504D01*
X163209000Y-110916000D01*
X163209000Y-109991000D01*
X163210204Y-109966496D01*
X163213804Y-109942227D01*
X163219765Y-109918429D01*
X163228030Y-109895329D01*
X163238520Y-109873151D01*
X163251133Y-109852107D01*
X163265747Y-109832402D01*
X163282223Y-109814223D01*
X163300402Y-109797747D01*
X163320107Y-109783133D01*
X163341151Y-109770520D01*
X163363329Y-109760030D01*
X163386429Y-109751765D01*
X163410227Y-109745804D01*
X163434496Y-109742204D01*
X163459000Y-109741000D01*
X164709000Y-109741000D01*
X164733504Y-109742204D01*
X164733504Y-109742204D01*
G37*
D16*
X164084000Y-110453500D03*
%TD*%
D15*
%TO.C,R23*%
G36*
X168925504Y-114823204D02*
G01*
X168949773Y-114826804D01*
X168973571Y-114832765D01*
X168996671Y-114841030D01*
X169018849Y-114851520D01*
X169039893Y-114864133D01*
X169059598Y-114878747D01*
X169077777Y-114895223D01*
X169094253Y-114913402D01*
X169108867Y-114933107D01*
X169121480Y-114954151D01*
X169131970Y-114976329D01*
X169140235Y-114999429D01*
X169146196Y-115023227D01*
X169149796Y-115047496D01*
X169151000Y-115072000D01*
X169151000Y-116322000D01*
X169149796Y-116346504D01*
X169146196Y-116370773D01*
X169140235Y-116394571D01*
X169131970Y-116417671D01*
X169121480Y-116439849D01*
X169108867Y-116460893D01*
X169094253Y-116480598D01*
X169077777Y-116498777D01*
X169059598Y-116515253D01*
X169039893Y-116529867D01*
X169018849Y-116542480D01*
X168996671Y-116552970D01*
X168973571Y-116561235D01*
X168949773Y-116567196D01*
X168925504Y-116570796D01*
X168901000Y-116572000D01*
X167976000Y-116572000D01*
X167951496Y-116570796D01*
X167927227Y-116567196D01*
X167903429Y-116561235D01*
X167880329Y-116552970D01*
X167858151Y-116542480D01*
X167837107Y-116529867D01*
X167817402Y-116515253D01*
X167799223Y-116498777D01*
X167782747Y-116480598D01*
X167768133Y-116460893D01*
X167755520Y-116439849D01*
X167745030Y-116417671D01*
X167736765Y-116394571D01*
X167730804Y-116370773D01*
X167727204Y-116346504D01*
X167726000Y-116322000D01*
X167726000Y-115072000D01*
X167727204Y-115047496D01*
X167730804Y-115023227D01*
X167736765Y-114999429D01*
X167745030Y-114976329D01*
X167755520Y-114954151D01*
X167768133Y-114933107D01*
X167782747Y-114913402D01*
X167799223Y-114895223D01*
X167817402Y-114878747D01*
X167837107Y-114864133D01*
X167858151Y-114851520D01*
X167880329Y-114841030D01*
X167903429Y-114832765D01*
X167927227Y-114826804D01*
X167951496Y-114823204D01*
X167976000Y-114822000D01*
X168901000Y-114822000D01*
X168925504Y-114823204D01*
X168925504Y-114823204D01*
G37*
D16*
X168438500Y-115697000D03*
D15*
G36*
X171900504Y-114823204D02*
G01*
X171924773Y-114826804D01*
X171948571Y-114832765D01*
X171971671Y-114841030D01*
X171993849Y-114851520D01*
X172014893Y-114864133D01*
X172034598Y-114878747D01*
X172052777Y-114895223D01*
X172069253Y-114913402D01*
X172083867Y-114933107D01*
X172096480Y-114954151D01*
X172106970Y-114976329D01*
X172115235Y-114999429D01*
X172121196Y-115023227D01*
X172124796Y-115047496D01*
X172126000Y-115072000D01*
X172126000Y-116322000D01*
X172124796Y-116346504D01*
X172121196Y-116370773D01*
X172115235Y-116394571D01*
X172106970Y-116417671D01*
X172096480Y-116439849D01*
X172083867Y-116460893D01*
X172069253Y-116480598D01*
X172052777Y-116498777D01*
X172034598Y-116515253D01*
X172014893Y-116529867D01*
X171993849Y-116542480D01*
X171971671Y-116552970D01*
X171948571Y-116561235D01*
X171924773Y-116567196D01*
X171900504Y-116570796D01*
X171876000Y-116572000D01*
X170951000Y-116572000D01*
X170926496Y-116570796D01*
X170902227Y-116567196D01*
X170878429Y-116561235D01*
X170855329Y-116552970D01*
X170833151Y-116542480D01*
X170812107Y-116529867D01*
X170792402Y-116515253D01*
X170774223Y-116498777D01*
X170757747Y-116480598D01*
X170743133Y-116460893D01*
X170730520Y-116439849D01*
X170720030Y-116417671D01*
X170711765Y-116394571D01*
X170705804Y-116370773D01*
X170702204Y-116346504D01*
X170701000Y-116322000D01*
X170701000Y-115072000D01*
X170702204Y-115047496D01*
X170705804Y-115023227D01*
X170711765Y-114999429D01*
X170720030Y-114976329D01*
X170730520Y-114954151D01*
X170743133Y-114933107D01*
X170757747Y-114913402D01*
X170774223Y-114895223D01*
X170792402Y-114878747D01*
X170812107Y-114864133D01*
X170833151Y-114851520D01*
X170855329Y-114841030D01*
X170878429Y-114832765D01*
X170902227Y-114826804D01*
X170926496Y-114823204D01*
X170951000Y-114822000D01*
X171876000Y-114822000D01*
X171900504Y-114823204D01*
X171900504Y-114823204D01*
G37*
D16*
X171413500Y-115697000D03*
%TD*%
D15*
%TO.C,R24*%
G36*
X124601504Y-87390204D02*
G01*
X124625773Y-87393804D01*
X124649571Y-87399765D01*
X124672671Y-87408030D01*
X124694849Y-87418520D01*
X124715893Y-87431133D01*
X124735598Y-87445747D01*
X124753777Y-87462223D01*
X124770253Y-87480402D01*
X124784867Y-87500107D01*
X124797480Y-87521151D01*
X124807970Y-87543329D01*
X124816235Y-87566429D01*
X124822196Y-87590227D01*
X124825796Y-87614496D01*
X124827000Y-87639000D01*
X124827000Y-88564000D01*
X124825796Y-88588504D01*
X124822196Y-88612773D01*
X124816235Y-88636571D01*
X124807970Y-88659671D01*
X124797480Y-88681849D01*
X124784867Y-88702893D01*
X124770253Y-88722598D01*
X124753777Y-88740777D01*
X124735598Y-88757253D01*
X124715893Y-88771867D01*
X124694849Y-88784480D01*
X124672671Y-88794970D01*
X124649571Y-88803235D01*
X124625773Y-88809196D01*
X124601504Y-88812796D01*
X124577000Y-88814000D01*
X123327000Y-88814000D01*
X123302496Y-88812796D01*
X123278227Y-88809196D01*
X123254429Y-88803235D01*
X123231329Y-88794970D01*
X123209151Y-88784480D01*
X123188107Y-88771867D01*
X123168402Y-88757253D01*
X123150223Y-88740777D01*
X123133747Y-88722598D01*
X123119133Y-88702893D01*
X123106520Y-88681849D01*
X123096030Y-88659671D01*
X123087765Y-88636571D01*
X123081804Y-88612773D01*
X123078204Y-88588504D01*
X123077000Y-88564000D01*
X123077000Y-87639000D01*
X123078204Y-87614496D01*
X123081804Y-87590227D01*
X123087765Y-87566429D01*
X123096030Y-87543329D01*
X123106520Y-87521151D01*
X123119133Y-87500107D01*
X123133747Y-87480402D01*
X123150223Y-87462223D01*
X123168402Y-87445747D01*
X123188107Y-87431133D01*
X123209151Y-87418520D01*
X123231329Y-87408030D01*
X123254429Y-87399765D01*
X123278227Y-87393804D01*
X123302496Y-87390204D01*
X123327000Y-87389000D01*
X124577000Y-87389000D01*
X124601504Y-87390204D01*
X124601504Y-87390204D01*
G37*
D16*
X123952000Y-88101500D03*
D15*
G36*
X124601504Y-84415204D02*
G01*
X124625773Y-84418804D01*
X124649571Y-84424765D01*
X124672671Y-84433030D01*
X124694849Y-84443520D01*
X124715893Y-84456133D01*
X124735598Y-84470747D01*
X124753777Y-84487223D01*
X124770253Y-84505402D01*
X124784867Y-84525107D01*
X124797480Y-84546151D01*
X124807970Y-84568329D01*
X124816235Y-84591429D01*
X124822196Y-84615227D01*
X124825796Y-84639496D01*
X124827000Y-84664000D01*
X124827000Y-85589000D01*
X124825796Y-85613504D01*
X124822196Y-85637773D01*
X124816235Y-85661571D01*
X124807970Y-85684671D01*
X124797480Y-85706849D01*
X124784867Y-85727893D01*
X124770253Y-85747598D01*
X124753777Y-85765777D01*
X124735598Y-85782253D01*
X124715893Y-85796867D01*
X124694849Y-85809480D01*
X124672671Y-85819970D01*
X124649571Y-85828235D01*
X124625773Y-85834196D01*
X124601504Y-85837796D01*
X124577000Y-85839000D01*
X123327000Y-85839000D01*
X123302496Y-85837796D01*
X123278227Y-85834196D01*
X123254429Y-85828235D01*
X123231329Y-85819970D01*
X123209151Y-85809480D01*
X123188107Y-85796867D01*
X123168402Y-85782253D01*
X123150223Y-85765777D01*
X123133747Y-85747598D01*
X123119133Y-85727893D01*
X123106520Y-85706849D01*
X123096030Y-85684671D01*
X123087765Y-85661571D01*
X123081804Y-85637773D01*
X123078204Y-85613504D01*
X123077000Y-85589000D01*
X123077000Y-84664000D01*
X123078204Y-84639496D01*
X123081804Y-84615227D01*
X123087765Y-84591429D01*
X123096030Y-84568329D01*
X123106520Y-84546151D01*
X123119133Y-84525107D01*
X123133747Y-84505402D01*
X123150223Y-84487223D01*
X123168402Y-84470747D01*
X123188107Y-84456133D01*
X123209151Y-84443520D01*
X123231329Y-84433030D01*
X123254429Y-84424765D01*
X123278227Y-84418804D01*
X123302496Y-84415204D01*
X123327000Y-84414000D01*
X124577000Y-84414000D01*
X124601504Y-84415204D01*
X124601504Y-84415204D01*
G37*
D16*
X123952000Y-85126500D03*
%TD*%
D15*
%TO.C,C31*%
G36*
X168090504Y-89423204D02*
G01*
X168114773Y-89426804D01*
X168138571Y-89432765D01*
X168161671Y-89441030D01*
X168183849Y-89451520D01*
X168204893Y-89464133D01*
X168224598Y-89478747D01*
X168242777Y-89495223D01*
X168259253Y-89513402D01*
X168273867Y-89533107D01*
X168286480Y-89554151D01*
X168296970Y-89576329D01*
X168305235Y-89599429D01*
X168311196Y-89623227D01*
X168314796Y-89647496D01*
X168316000Y-89672000D01*
X168316000Y-90922000D01*
X168314796Y-90946504D01*
X168311196Y-90970773D01*
X168305235Y-90994571D01*
X168296970Y-91017671D01*
X168286480Y-91039849D01*
X168273867Y-91060893D01*
X168259253Y-91080598D01*
X168242777Y-91098777D01*
X168224598Y-91115253D01*
X168204893Y-91129867D01*
X168183849Y-91142480D01*
X168161671Y-91152970D01*
X168138571Y-91161235D01*
X168114773Y-91167196D01*
X168090504Y-91170796D01*
X168066000Y-91172000D01*
X167141000Y-91172000D01*
X167116496Y-91170796D01*
X167092227Y-91167196D01*
X167068429Y-91161235D01*
X167045329Y-91152970D01*
X167023151Y-91142480D01*
X167002107Y-91129867D01*
X166982402Y-91115253D01*
X166964223Y-91098777D01*
X166947747Y-91080598D01*
X166933133Y-91060893D01*
X166920520Y-91039849D01*
X166910030Y-91017671D01*
X166901765Y-90994571D01*
X166895804Y-90970773D01*
X166892204Y-90946504D01*
X166891000Y-90922000D01*
X166891000Y-89672000D01*
X166892204Y-89647496D01*
X166895804Y-89623227D01*
X166901765Y-89599429D01*
X166910030Y-89576329D01*
X166920520Y-89554151D01*
X166933133Y-89533107D01*
X166947747Y-89513402D01*
X166964223Y-89495223D01*
X166982402Y-89478747D01*
X167002107Y-89464133D01*
X167023151Y-89451520D01*
X167045329Y-89441030D01*
X167068429Y-89432765D01*
X167092227Y-89426804D01*
X167116496Y-89423204D01*
X167141000Y-89422000D01*
X168066000Y-89422000D01*
X168090504Y-89423204D01*
X168090504Y-89423204D01*
G37*
D16*
X167603500Y-90297000D03*
D15*
G36*
X165115504Y-89423204D02*
G01*
X165139773Y-89426804D01*
X165163571Y-89432765D01*
X165186671Y-89441030D01*
X165208849Y-89451520D01*
X165229893Y-89464133D01*
X165249598Y-89478747D01*
X165267777Y-89495223D01*
X165284253Y-89513402D01*
X165298867Y-89533107D01*
X165311480Y-89554151D01*
X165321970Y-89576329D01*
X165330235Y-89599429D01*
X165336196Y-89623227D01*
X165339796Y-89647496D01*
X165341000Y-89672000D01*
X165341000Y-90922000D01*
X165339796Y-90946504D01*
X165336196Y-90970773D01*
X165330235Y-90994571D01*
X165321970Y-91017671D01*
X165311480Y-91039849D01*
X165298867Y-91060893D01*
X165284253Y-91080598D01*
X165267777Y-91098777D01*
X165249598Y-91115253D01*
X165229893Y-91129867D01*
X165208849Y-91142480D01*
X165186671Y-91152970D01*
X165163571Y-91161235D01*
X165139773Y-91167196D01*
X165115504Y-91170796D01*
X165091000Y-91172000D01*
X164166000Y-91172000D01*
X164141496Y-91170796D01*
X164117227Y-91167196D01*
X164093429Y-91161235D01*
X164070329Y-91152970D01*
X164048151Y-91142480D01*
X164027107Y-91129867D01*
X164007402Y-91115253D01*
X163989223Y-91098777D01*
X163972747Y-91080598D01*
X163958133Y-91060893D01*
X163945520Y-91039849D01*
X163935030Y-91017671D01*
X163926765Y-90994571D01*
X163920804Y-90970773D01*
X163917204Y-90946504D01*
X163916000Y-90922000D01*
X163916000Y-89672000D01*
X163917204Y-89647496D01*
X163920804Y-89623227D01*
X163926765Y-89599429D01*
X163935030Y-89576329D01*
X163945520Y-89554151D01*
X163958133Y-89533107D01*
X163972747Y-89513402D01*
X163989223Y-89495223D01*
X164007402Y-89478747D01*
X164027107Y-89464133D01*
X164048151Y-89451520D01*
X164070329Y-89441030D01*
X164093429Y-89432765D01*
X164117227Y-89426804D01*
X164141496Y-89423204D01*
X164166000Y-89422000D01*
X165091000Y-89422000D01*
X165115504Y-89423204D01*
X165115504Y-89423204D01*
G37*
D16*
X164628500Y-90297000D03*
%TD*%
D15*
%TO.C,R25*%
G36*
X100217504Y-137755204D02*
G01*
X100241773Y-137758804D01*
X100265571Y-137764765D01*
X100288671Y-137773030D01*
X100310849Y-137783520D01*
X100331893Y-137796133D01*
X100351598Y-137810747D01*
X100369777Y-137827223D01*
X100386253Y-137845402D01*
X100400867Y-137865107D01*
X100413480Y-137886151D01*
X100423970Y-137908329D01*
X100432235Y-137931429D01*
X100438196Y-137955227D01*
X100441796Y-137979496D01*
X100443000Y-138004000D01*
X100443000Y-138929000D01*
X100441796Y-138953504D01*
X100438196Y-138977773D01*
X100432235Y-139001571D01*
X100423970Y-139024671D01*
X100413480Y-139046849D01*
X100400867Y-139067893D01*
X100386253Y-139087598D01*
X100369777Y-139105777D01*
X100351598Y-139122253D01*
X100331893Y-139136867D01*
X100310849Y-139149480D01*
X100288671Y-139159970D01*
X100265571Y-139168235D01*
X100241773Y-139174196D01*
X100217504Y-139177796D01*
X100193000Y-139179000D01*
X98943000Y-139179000D01*
X98918496Y-139177796D01*
X98894227Y-139174196D01*
X98870429Y-139168235D01*
X98847329Y-139159970D01*
X98825151Y-139149480D01*
X98804107Y-139136867D01*
X98784402Y-139122253D01*
X98766223Y-139105777D01*
X98749747Y-139087598D01*
X98735133Y-139067893D01*
X98722520Y-139046849D01*
X98712030Y-139024671D01*
X98703765Y-139001571D01*
X98697804Y-138977773D01*
X98694204Y-138953504D01*
X98693000Y-138929000D01*
X98693000Y-138004000D01*
X98694204Y-137979496D01*
X98697804Y-137955227D01*
X98703765Y-137931429D01*
X98712030Y-137908329D01*
X98722520Y-137886151D01*
X98735133Y-137865107D01*
X98749747Y-137845402D01*
X98766223Y-137827223D01*
X98784402Y-137810747D01*
X98804107Y-137796133D01*
X98825151Y-137783520D01*
X98847329Y-137773030D01*
X98870429Y-137764765D01*
X98894227Y-137758804D01*
X98918496Y-137755204D01*
X98943000Y-137754000D01*
X100193000Y-137754000D01*
X100217504Y-137755204D01*
X100217504Y-137755204D01*
G37*
D16*
X99568000Y-138466500D03*
D15*
G36*
X100217504Y-140730204D02*
G01*
X100241773Y-140733804D01*
X100265571Y-140739765D01*
X100288671Y-140748030D01*
X100310849Y-140758520D01*
X100331893Y-140771133D01*
X100351598Y-140785747D01*
X100369777Y-140802223D01*
X100386253Y-140820402D01*
X100400867Y-140840107D01*
X100413480Y-140861151D01*
X100423970Y-140883329D01*
X100432235Y-140906429D01*
X100438196Y-140930227D01*
X100441796Y-140954496D01*
X100443000Y-140979000D01*
X100443000Y-141904000D01*
X100441796Y-141928504D01*
X100438196Y-141952773D01*
X100432235Y-141976571D01*
X100423970Y-141999671D01*
X100413480Y-142021849D01*
X100400867Y-142042893D01*
X100386253Y-142062598D01*
X100369777Y-142080777D01*
X100351598Y-142097253D01*
X100331893Y-142111867D01*
X100310849Y-142124480D01*
X100288671Y-142134970D01*
X100265571Y-142143235D01*
X100241773Y-142149196D01*
X100217504Y-142152796D01*
X100193000Y-142154000D01*
X98943000Y-142154000D01*
X98918496Y-142152796D01*
X98894227Y-142149196D01*
X98870429Y-142143235D01*
X98847329Y-142134970D01*
X98825151Y-142124480D01*
X98804107Y-142111867D01*
X98784402Y-142097253D01*
X98766223Y-142080777D01*
X98749747Y-142062598D01*
X98735133Y-142042893D01*
X98722520Y-142021849D01*
X98712030Y-141999671D01*
X98703765Y-141976571D01*
X98697804Y-141952773D01*
X98694204Y-141928504D01*
X98693000Y-141904000D01*
X98693000Y-140979000D01*
X98694204Y-140954496D01*
X98697804Y-140930227D01*
X98703765Y-140906429D01*
X98712030Y-140883329D01*
X98722520Y-140861151D01*
X98735133Y-140840107D01*
X98749747Y-140820402D01*
X98766223Y-140802223D01*
X98784402Y-140785747D01*
X98804107Y-140771133D01*
X98825151Y-140758520D01*
X98847329Y-140748030D01*
X98870429Y-140739765D01*
X98894227Y-140733804D01*
X98918496Y-140730204D01*
X98943000Y-140729000D01*
X100193000Y-140729000D01*
X100217504Y-140730204D01*
X100217504Y-140730204D01*
G37*
D16*
X99568000Y-141441500D03*
%TD*%
D15*
%TO.C,R27*%
G36*
X149747504Y-144540204D02*
G01*
X149771773Y-144543804D01*
X149795571Y-144549765D01*
X149818671Y-144558030D01*
X149840849Y-144568520D01*
X149861893Y-144581133D01*
X149881598Y-144595747D01*
X149899777Y-144612223D01*
X149916253Y-144630402D01*
X149930867Y-144650107D01*
X149943480Y-144671151D01*
X149953970Y-144693329D01*
X149962235Y-144716429D01*
X149968196Y-144740227D01*
X149971796Y-144764496D01*
X149973000Y-144789000D01*
X149973000Y-145714000D01*
X149971796Y-145738504D01*
X149968196Y-145762773D01*
X149962235Y-145786571D01*
X149953970Y-145809671D01*
X149943480Y-145831849D01*
X149930867Y-145852893D01*
X149916253Y-145872598D01*
X149899777Y-145890777D01*
X149881598Y-145907253D01*
X149861893Y-145921867D01*
X149840849Y-145934480D01*
X149818671Y-145944970D01*
X149795571Y-145953235D01*
X149771773Y-145959196D01*
X149747504Y-145962796D01*
X149723000Y-145964000D01*
X148473000Y-145964000D01*
X148448496Y-145962796D01*
X148424227Y-145959196D01*
X148400429Y-145953235D01*
X148377329Y-145944970D01*
X148355151Y-145934480D01*
X148334107Y-145921867D01*
X148314402Y-145907253D01*
X148296223Y-145890777D01*
X148279747Y-145872598D01*
X148265133Y-145852893D01*
X148252520Y-145831849D01*
X148242030Y-145809671D01*
X148233765Y-145786571D01*
X148227804Y-145762773D01*
X148224204Y-145738504D01*
X148223000Y-145714000D01*
X148223000Y-144789000D01*
X148224204Y-144764496D01*
X148227804Y-144740227D01*
X148233765Y-144716429D01*
X148242030Y-144693329D01*
X148252520Y-144671151D01*
X148265133Y-144650107D01*
X148279747Y-144630402D01*
X148296223Y-144612223D01*
X148314402Y-144595747D01*
X148334107Y-144581133D01*
X148355151Y-144568520D01*
X148377329Y-144558030D01*
X148400429Y-144549765D01*
X148424227Y-144543804D01*
X148448496Y-144540204D01*
X148473000Y-144539000D01*
X149723000Y-144539000D01*
X149747504Y-144540204D01*
X149747504Y-144540204D01*
G37*
D16*
X149098000Y-145251500D03*
D15*
G36*
X149747504Y-141565204D02*
G01*
X149771773Y-141568804D01*
X149795571Y-141574765D01*
X149818671Y-141583030D01*
X149840849Y-141593520D01*
X149861893Y-141606133D01*
X149881598Y-141620747D01*
X149899777Y-141637223D01*
X149916253Y-141655402D01*
X149930867Y-141675107D01*
X149943480Y-141696151D01*
X149953970Y-141718329D01*
X149962235Y-141741429D01*
X149968196Y-141765227D01*
X149971796Y-141789496D01*
X149973000Y-141814000D01*
X149973000Y-142739000D01*
X149971796Y-142763504D01*
X149968196Y-142787773D01*
X149962235Y-142811571D01*
X149953970Y-142834671D01*
X149943480Y-142856849D01*
X149930867Y-142877893D01*
X149916253Y-142897598D01*
X149899777Y-142915777D01*
X149881598Y-142932253D01*
X149861893Y-142946867D01*
X149840849Y-142959480D01*
X149818671Y-142969970D01*
X149795571Y-142978235D01*
X149771773Y-142984196D01*
X149747504Y-142987796D01*
X149723000Y-142989000D01*
X148473000Y-142989000D01*
X148448496Y-142987796D01*
X148424227Y-142984196D01*
X148400429Y-142978235D01*
X148377329Y-142969970D01*
X148355151Y-142959480D01*
X148334107Y-142946867D01*
X148314402Y-142932253D01*
X148296223Y-142915777D01*
X148279747Y-142897598D01*
X148265133Y-142877893D01*
X148252520Y-142856849D01*
X148242030Y-142834671D01*
X148233765Y-142811571D01*
X148227804Y-142787773D01*
X148224204Y-142763504D01*
X148223000Y-142739000D01*
X148223000Y-141814000D01*
X148224204Y-141789496D01*
X148227804Y-141765227D01*
X148233765Y-141741429D01*
X148242030Y-141718329D01*
X148252520Y-141696151D01*
X148265133Y-141675107D01*
X148279747Y-141655402D01*
X148296223Y-141637223D01*
X148314402Y-141620747D01*
X148334107Y-141606133D01*
X148355151Y-141593520D01*
X148377329Y-141583030D01*
X148400429Y-141574765D01*
X148424227Y-141568804D01*
X148448496Y-141565204D01*
X148473000Y-141564000D01*
X149723000Y-141564000D01*
X149747504Y-141565204D01*
X149747504Y-141565204D01*
G37*
D16*
X149098000Y-142276500D03*
%TD*%
M02*
