%TF.GenerationSoftware,KiCad,Pcbnew,(5.1.0)-1*%
%TF.CreationDate,2022-07-09T20:49:55+03:00*%
%TF.ProjectId,octaver,6f637461-7665-4722-9e6b-696361645f70,rev?*%
%TF.SameCoordinates,Original*%
%TF.FileFunction,Soldermask,Bot*%
%TF.FilePolarity,Negative*%
%FSLAX46Y46*%
G04 Gerber Fmt 4.6, Leading zero omitted, Abs format (unit mm)*
G04 Created by KiCad (PCBNEW (5.1.0)-1) date 2022-07-09 20:49:55*
%MOMM*%
%LPD*%
G04 APERTURE LIST*
%ADD10C,0.100000*%
%ADD11C,1.525000*%
%ADD12C,1.624000*%
%ADD13R,2.100000X1.600000*%
%ADD14R,2.100000X3.900000*%
%ADD15C,3.100000*%
%ADD16R,3.100000X3.100000*%
%ADD17C,9.100000*%
%ADD18R,1.625000X0.800000*%
%ADD19C,2.200000*%
%ADD20R,1.800000X1.800000*%
%ADD21O,1.800000X1.800000*%
%ADD22R,1.700000X1.700000*%
%ADD23C,1.700000*%
G04 APERTURE END LIST*
D10*
%TO.C,C20*%
G36*
X189460680Y-121504288D02*
G01*
X189486651Y-121508141D01*
X189512120Y-121514520D01*
X189536841Y-121523366D01*
X189560575Y-121534591D01*
X189583095Y-121548089D01*
X189604184Y-121563730D01*
X189623638Y-121581362D01*
X189641270Y-121600816D01*
X189656911Y-121621905D01*
X189670409Y-121644425D01*
X189681634Y-121668159D01*
X189690480Y-121692880D01*
X189696859Y-121718349D01*
X189700712Y-121744320D01*
X189702000Y-121770544D01*
X189702000Y-123085456D01*
X189700712Y-123111680D01*
X189696859Y-123137651D01*
X189690480Y-123163120D01*
X189681634Y-123187841D01*
X189670409Y-123211575D01*
X189656911Y-123234095D01*
X189641270Y-123255184D01*
X189623638Y-123274638D01*
X189604184Y-123292270D01*
X189583095Y-123307911D01*
X189560575Y-123321409D01*
X189536841Y-123332634D01*
X189512120Y-123341480D01*
X189486651Y-123347859D01*
X189460680Y-123351712D01*
X189434456Y-123353000D01*
X188444544Y-123353000D01*
X188418320Y-123351712D01*
X188392349Y-123347859D01*
X188366880Y-123341480D01*
X188342159Y-123332634D01*
X188318425Y-123321409D01*
X188295905Y-123307911D01*
X188274816Y-123292270D01*
X188255362Y-123274638D01*
X188237730Y-123255184D01*
X188222089Y-123234095D01*
X188208591Y-123211575D01*
X188197366Y-123187841D01*
X188188520Y-123163120D01*
X188182141Y-123137651D01*
X188178288Y-123111680D01*
X188177000Y-123085456D01*
X188177000Y-121770544D01*
X188178288Y-121744320D01*
X188182141Y-121718349D01*
X188188520Y-121692880D01*
X188197366Y-121668159D01*
X188208591Y-121644425D01*
X188222089Y-121621905D01*
X188237730Y-121600816D01*
X188255362Y-121581362D01*
X188274816Y-121563730D01*
X188295905Y-121548089D01*
X188318425Y-121534591D01*
X188342159Y-121523366D01*
X188366880Y-121514520D01*
X188392349Y-121508141D01*
X188418320Y-121504288D01*
X188444544Y-121503000D01*
X189434456Y-121503000D01*
X189460680Y-121504288D01*
X189460680Y-121504288D01*
G37*
D11*
X188939500Y-122428000D03*
D10*
G36*
X186485680Y-121504288D02*
G01*
X186511651Y-121508141D01*
X186537120Y-121514520D01*
X186561841Y-121523366D01*
X186585575Y-121534591D01*
X186608095Y-121548089D01*
X186629184Y-121563730D01*
X186648638Y-121581362D01*
X186666270Y-121600816D01*
X186681911Y-121621905D01*
X186695409Y-121644425D01*
X186706634Y-121668159D01*
X186715480Y-121692880D01*
X186721859Y-121718349D01*
X186725712Y-121744320D01*
X186727000Y-121770544D01*
X186727000Y-123085456D01*
X186725712Y-123111680D01*
X186721859Y-123137651D01*
X186715480Y-123163120D01*
X186706634Y-123187841D01*
X186695409Y-123211575D01*
X186681911Y-123234095D01*
X186666270Y-123255184D01*
X186648638Y-123274638D01*
X186629184Y-123292270D01*
X186608095Y-123307911D01*
X186585575Y-123321409D01*
X186561841Y-123332634D01*
X186537120Y-123341480D01*
X186511651Y-123347859D01*
X186485680Y-123351712D01*
X186459456Y-123353000D01*
X185469544Y-123353000D01*
X185443320Y-123351712D01*
X185417349Y-123347859D01*
X185391880Y-123341480D01*
X185367159Y-123332634D01*
X185343425Y-123321409D01*
X185320905Y-123307911D01*
X185299816Y-123292270D01*
X185280362Y-123274638D01*
X185262730Y-123255184D01*
X185247089Y-123234095D01*
X185233591Y-123211575D01*
X185222366Y-123187841D01*
X185213520Y-123163120D01*
X185207141Y-123137651D01*
X185203288Y-123111680D01*
X185202000Y-123085456D01*
X185202000Y-121770544D01*
X185203288Y-121744320D01*
X185207141Y-121718349D01*
X185213520Y-121692880D01*
X185222366Y-121668159D01*
X185233591Y-121644425D01*
X185247089Y-121621905D01*
X185262730Y-121600816D01*
X185280362Y-121581362D01*
X185299816Y-121563730D01*
X185320905Y-121548089D01*
X185343425Y-121534591D01*
X185367159Y-121523366D01*
X185391880Y-121514520D01*
X185417349Y-121508141D01*
X185443320Y-121504288D01*
X185469544Y-121503000D01*
X186459456Y-121503000D01*
X186485680Y-121504288D01*
X186485680Y-121504288D01*
G37*
D11*
X185964500Y-122428000D03*
%TD*%
D12*
%TO.C,U8*%
X154305000Y-75438000D03*
X159385000Y-77978000D03*
X182245000Y-75438000D03*
X161925000Y-75438000D03*
X161925000Y-77978000D03*
X182245000Y-77978000D03*
X169545000Y-77978000D03*
X174625000Y-77978000D03*
X179705000Y-77978000D03*
X151765000Y-77978000D03*
X184785000Y-75438000D03*
X172085000Y-75438000D03*
X159385000Y-75438000D03*
X144145000Y-75438000D03*
X144145000Y-77978000D03*
X146685000Y-77978000D03*
X174625000Y-75438000D03*
X189865000Y-75438000D03*
X167005000Y-75438000D03*
X149225000Y-77978000D03*
X172085000Y-77978000D03*
X177165000Y-77978000D03*
X164465000Y-75438000D03*
X151765000Y-75438000D03*
X184785000Y-77978000D03*
X167005000Y-77978000D03*
X189865000Y-77978000D03*
X187325000Y-77978000D03*
X149225000Y-75438000D03*
X164465000Y-77978000D03*
X179705000Y-75438000D03*
X169545000Y-75438000D03*
X187325000Y-75438000D03*
X177165000Y-75438000D03*
X156845000Y-75438000D03*
X146685000Y-75438000D03*
X154305000Y-77978000D03*
X156845000Y-77978000D03*
X164465000Y-138938000D03*
X187325000Y-138938000D03*
X184785000Y-138938000D03*
X189865000Y-138938000D03*
X179705000Y-138938000D03*
X177165000Y-138938000D03*
X174625000Y-138938000D03*
X172085000Y-138938000D03*
X169545000Y-138938000D03*
X182245000Y-138938000D03*
X167005000Y-138938000D03*
X161925000Y-138938000D03*
X156845000Y-138938000D03*
X159385000Y-138938000D03*
X154305000Y-138938000D03*
X151765000Y-138938000D03*
X149225000Y-138938000D03*
X146685000Y-138938000D03*
X144145000Y-138938000D03*
X144145000Y-136398000D03*
X146685000Y-136398000D03*
X149225000Y-136398000D03*
X151765000Y-136398000D03*
X154305000Y-136398000D03*
X156845000Y-136398000D03*
X159385000Y-136398000D03*
X161925000Y-136398000D03*
X164465000Y-136398000D03*
X167005000Y-136398000D03*
X169545000Y-136398000D03*
X172085000Y-136398000D03*
X174625000Y-136398000D03*
X177165000Y-136398000D03*
X179705000Y-136398000D03*
X182245000Y-136398000D03*
X184785000Y-136398000D03*
X187325000Y-136398000D03*
X189865000Y-136398000D03*
%TD*%
D13*
%TO.C,U7*%
X188824000Y-115048000D03*
X188824000Y-119648000D03*
X188824000Y-117348000D03*
D14*
X182524000Y-117348000D03*
%TD*%
D15*
%TO.C,J5*%
X132842000Y-141224000D03*
D16*
X127762000Y-141224000D03*
%TD*%
D17*
%TO.C,H4*%
X196850000Y-143510000D03*
%TD*%
%TO.C,H3*%
X196850000Y-77470000D03*
%TD*%
%TO.C,H2*%
X90170000Y-143510000D03*
%TD*%
%TO.C,H1*%
X90170000Y-77470000D03*
%TD*%
D18*
%TO.C,IC1*%
X145116000Y-90805000D03*
X145116000Y-89535000D03*
X145116000Y-88265000D03*
X145116000Y-86995000D03*
X150540000Y-86995000D03*
X150540000Y-88265000D03*
X150540000Y-89535000D03*
X150540000Y-90805000D03*
%TD*%
D19*
%TO.C,J1*%
X90583800Y-117970600D03*
X103283800Y-117970600D03*
X103283800Y-134200600D03*
X90583800Y-134200600D03*
%TD*%
%TO.C,J2*%
X90787000Y-100012200D03*
X103487000Y-100012200D03*
X103487000Y-83782200D03*
X90787000Y-83782200D03*
%TD*%
D20*
%TO.C,J3*%
X90538300Y-114808000D03*
D21*
X87998300Y-114808000D03*
%TD*%
%TO.C,J4*%
X146177000Y-99568000D03*
X143637000Y-99568000D03*
D20*
X141097000Y-99568000D03*
%TD*%
%TO.C,TP1*%
X115062000Y-106426000D03*
%TD*%
%TO.C,TP2*%
X159385000Y-86614000D03*
%TD*%
%TO.C,TP3*%
X171323000Y-118872000D03*
%TD*%
D22*
%TO.C,C25*%
X102616000Y-143510000D03*
D23*
X102616000Y-138510000D03*
%TD*%
%TO.C,C26*%
X120396000Y-138510000D03*
D22*
X120396000Y-143510000D03*
%TD*%
%TO.C,C27*%
X111506000Y-143510000D03*
D23*
X111506000Y-138510000D03*
%TD*%
%TO.C,C12*%
X115189000Y-95297000D03*
D22*
X115189000Y-90297000D03*
%TD*%
%TO.C,C29*%
X123952000Y-90297000D03*
D23*
X123952000Y-95297000D03*
%TD*%
D22*
%TO.C,C30*%
X132715000Y-90297000D03*
D23*
X132715000Y-95297000D03*
%TD*%
D10*
%TO.C,C1*%
G36*
X151052680Y-92040288D02*
G01*
X151078651Y-92044141D01*
X151104120Y-92050520D01*
X151128841Y-92059366D01*
X151152575Y-92070591D01*
X151175095Y-92084089D01*
X151196184Y-92099730D01*
X151215638Y-92117362D01*
X151233270Y-92136816D01*
X151248911Y-92157905D01*
X151262409Y-92180425D01*
X151273634Y-92204159D01*
X151282480Y-92228880D01*
X151288859Y-92254349D01*
X151292712Y-92280320D01*
X151294000Y-92306544D01*
X151294000Y-93621456D01*
X151292712Y-93647680D01*
X151288859Y-93673651D01*
X151282480Y-93699120D01*
X151273634Y-93723841D01*
X151262409Y-93747575D01*
X151248911Y-93770095D01*
X151233270Y-93791184D01*
X151215638Y-93810638D01*
X151196184Y-93828270D01*
X151175095Y-93843911D01*
X151152575Y-93857409D01*
X151128841Y-93868634D01*
X151104120Y-93877480D01*
X151078651Y-93883859D01*
X151052680Y-93887712D01*
X151026456Y-93889000D01*
X150036544Y-93889000D01*
X150010320Y-93887712D01*
X149984349Y-93883859D01*
X149958880Y-93877480D01*
X149934159Y-93868634D01*
X149910425Y-93857409D01*
X149887905Y-93843911D01*
X149866816Y-93828270D01*
X149847362Y-93810638D01*
X149829730Y-93791184D01*
X149814089Y-93770095D01*
X149800591Y-93747575D01*
X149789366Y-93723841D01*
X149780520Y-93699120D01*
X149774141Y-93673651D01*
X149770288Y-93647680D01*
X149769000Y-93621456D01*
X149769000Y-92306544D01*
X149770288Y-92280320D01*
X149774141Y-92254349D01*
X149780520Y-92228880D01*
X149789366Y-92204159D01*
X149800591Y-92180425D01*
X149814089Y-92157905D01*
X149829730Y-92136816D01*
X149847362Y-92117362D01*
X149866816Y-92099730D01*
X149887905Y-92084089D01*
X149910425Y-92070591D01*
X149934159Y-92059366D01*
X149958880Y-92050520D01*
X149984349Y-92044141D01*
X150010320Y-92040288D01*
X150036544Y-92039000D01*
X151026456Y-92039000D01*
X151052680Y-92040288D01*
X151052680Y-92040288D01*
G37*
D11*
X150531500Y-92964000D03*
D10*
G36*
X154027680Y-92040288D02*
G01*
X154053651Y-92044141D01*
X154079120Y-92050520D01*
X154103841Y-92059366D01*
X154127575Y-92070591D01*
X154150095Y-92084089D01*
X154171184Y-92099730D01*
X154190638Y-92117362D01*
X154208270Y-92136816D01*
X154223911Y-92157905D01*
X154237409Y-92180425D01*
X154248634Y-92204159D01*
X154257480Y-92228880D01*
X154263859Y-92254349D01*
X154267712Y-92280320D01*
X154269000Y-92306544D01*
X154269000Y-93621456D01*
X154267712Y-93647680D01*
X154263859Y-93673651D01*
X154257480Y-93699120D01*
X154248634Y-93723841D01*
X154237409Y-93747575D01*
X154223911Y-93770095D01*
X154208270Y-93791184D01*
X154190638Y-93810638D01*
X154171184Y-93828270D01*
X154150095Y-93843911D01*
X154127575Y-93857409D01*
X154103841Y-93868634D01*
X154079120Y-93877480D01*
X154053651Y-93883859D01*
X154027680Y-93887712D01*
X154001456Y-93889000D01*
X153011544Y-93889000D01*
X152985320Y-93887712D01*
X152959349Y-93883859D01*
X152933880Y-93877480D01*
X152909159Y-93868634D01*
X152885425Y-93857409D01*
X152862905Y-93843911D01*
X152841816Y-93828270D01*
X152822362Y-93810638D01*
X152804730Y-93791184D01*
X152789089Y-93770095D01*
X152775591Y-93747575D01*
X152764366Y-93723841D01*
X152755520Y-93699120D01*
X152749141Y-93673651D01*
X152745288Y-93647680D01*
X152744000Y-93621456D01*
X152744000Y-92306544D01*
X152745288Y-92280320D01*
X152749141Y-92254349D01*
X152755520Y-92228880D01*
X152764366Y-92204159D01*
X152775591Y-92180425D01*
X152789089Y-92157905D01*
X152804730Y-92136816D01*
X152822362Y-92117362D01*
X152841816Y-92099730D01*
X152862905Y-92084089D01*
X152885425Y-92070591D01*
X152909159Y-92059366D01*
X152933880Y-92050520D01*
X152959349Y-92044141D01*
X152985320Y-92040288D01*
X153011544Y-92039000D01*
X154001456Y-92039000D01*
X154027680Y-92040288D01*
X154027680Y-92040288D01*
G37*
D11*
X153506500Y-92964000D03*
%TD*%
D10*
%TO.C,C19*%
G36*
X180135680Y-124044288D02*
G01*
X180161651Y-124048141D01*
X180187120Y-124054520D01*
X180211841Y-124063366D01*
X180235575Y-124074591D01*
X180258095Y-124088089D01*
X180279184Y-124103730D01*
X180298638Y-124121362D01*
X180316270Y-124140816D01*
X180331911Y-124161905D01*
X180345409Y-124184425D01*
X180356634Y-124208159D01*
X180365480Y-124232880D01*
X180371859Y-124258349D01*
X180375712Y-124284320D01*
X180377000Y-124310544D01*
X180377000Y-125625456D01*
X180375712Y-125651680D01*
X180371859Y-125677651D01*
X180365480Y-125703120D01*
X180356634Y-125727841D01*
X180345409Y-125751575D01*
X180331911Y-125774095D01*
X180316270Y-125795184D01*
X180298638Y-125814638D01*
X180279184Y-125832270D01*
X180258095Y-125847911D01*
X180235575Y-125861409D01*
X180211841Y-125872634D01*
X180187120Y-125881480D01*
X180161651Y-125887859D01*
X180135680Y-125891712D01*
X180109456Y-125893000D01*
X179119544Y-125893000D01*
X179093320Y-125891712D01*
X179067349Y-125887859D01*
X179041880Y-125881480D01*
X179017159Y-125872634D01*
X178993425Y-125861409D01*
X178970905Y-125847911D01*
X178949816Y-125832270D01*
X178930362Y-125814638D01*
X178912730Y-125795184D01*
X178897089Y-125774095D01*
X178883591Y-125751575D01*
X178872366Y-125727841D01*
X178863520Y-125703120D01*
X178857141Y-125677651D01*
X178853288Y-125651680D01*
X178852000Y-125625456D01*
X178852000Y-124310544D01*
X178853288Y-124284320D01*
X178857141Y-124258349D01*
X178863520Y-124232880D01*
X178872366Y-124208159D01*
X178883591Y-124184425D01*
X178897089Y-124161905D01*
X178912730Y-124140816D01*
X178930362Y-124121362D01*
X178949816Y-124103730D01*
X178970905Y-124088089D01*
X178993425Y-124074591D01*
X179017159Y-124063366D01*
X179041880Y-124054520D01*
X179067349Y-124048141D01*
X179093320Y-124044288D01*
X179119544Y-124043000D01*
X180109456Y-124043000D01*
X180135680Y-124044288D01*
X180135680Y-124044288D01*
G37*
D11*
X179614500Y-124968000D03*
D10*
G36*
X183110680Y-124044288D02*
G01*
X183136651Y-124048141D01*
X183162120Y-124054520D01*
X183186841Y-124063366D01*
X183210575Y-124074591D01*
X183233095Y-124088089D01*
X183254184Y-124103730D01*
X183273638Y-124121362D01*
X183291270Y-124140816D01*
X183306911Y-124161905D01*
X183320409Y-124184425D01*
X183331634Y-124208159D01*
X183340480Y-124232880D01*
X183346859Y-124258349D01*
X183350712Y-124284320D01*
X183352000Y-124310544D01*
X183352000Y-125625456D01*
X183350712Y-125651680D01*
X183346859Y-125677651D01*
X183340480Y-125703120D01*
X183331634Y-125727841D01*
X183320409Y-125751575D01*
X183306911Y-125774095D01*
X183291270Y-125795184D01*
X183273638Y-125814638D01*
X183254184Y-125832270D01*
X183233095Y-125847911D01*
X183210575Y-125861409D01*
X183186841Y-125872634D01*
X183162120Y-125881480D01*
X183136651Y-125887859D01*
X183110680Y-125891712D01*
X183084456Y-125893000D01*
X182094544Y-125893000D01*
X182068320Y-125891712D01*
X182042349Y-125887859D01*
X182016880Y-125881480D01*
X181992159Y-125872634D01*
X181968425Y-125861409D01*
X181945905Y-125847911D01*
X181924816Y-125832270D01*
X181905362Y-125814638D01*
X181887730Y-125795184D01*
X181872089Y-125774095D01*
X181858591Y-125751575D01*
X181847366Y-125727841D01*
X181838520Y-125703120D01*
X181832141Y-125677651D01*
X181828288Y-125651680D01*
X181827000Y-125625456D01*
X181827000Y-124310544D01*
X181828288Y-124284320D01*
X181832141Y-124258349D01*
X181838520Y-124232880D01*
X181847366Y-124208159D01*
X181858591Y-124184425D01*
X181872089Y-124161905D01*
X181887730Y-124140816D01*
X181905362Y-124121362D01*
X181924816Y-124103730D01*
X181945905Y-124088089D01*
X181968425Y-124074591D01*
X181992159Y-124063366D01*
X182016880Y-124054520D01*
X182042349Y-124048141D01*
X182068320Y-124044288D01*
X182094544Y-124043000D01*
X183084456Y-124043000D01*
X183110680Y-124044288D01*
X183110680Y-124044288D01*
G37*
D11*
X182589500Y-124968000D03*
%TD*%
D10*
%TO.C,C24*%
G36*
X180135680Y-121504288D02*
G01*
X180161651Y-121508141D01*
X180187120Y-121514520D01*
X180211841Y-121523366D01*
X180235575Y-121534591D01*
X180258095Y-121548089D01*
X180279184Y-121563730D01*
X180298638Y-121581362D01*
X180316270Y-121600816D01*
X180331911Y-121621905D01*
X180345409Y-121644425D01*
X180356634Y-121668159D01*
X180365480Y-121692880D01*
X180371859Y-121718349D01*
X180375712Y-121744320D01*
X180377000Y-121770544D01*
X180377000Y-123085456D01*
X180375712Y-123111680D01*
X180371859Y-123137651D01*
X180365480Y-123163120D01*
X180356634Y-123187841D01*
X180345409Y-123211575D01*
X180331911Y-123234095D01*
X180316270Y-123255184D01*
X180298638Y-123274638D01*
X180279184Y-123292270D01*
X180258095Y-123307911D01*
X180235575Y-123321409D01*
X180211841Y-123332634D01*
X180187120Y-123341480D01*
X180161651Y-123347859D01*
X180135680Y-123351712D01*
X180109456Y-123353000D01*
X179119544Y-123353000D01*
X179093320Y-123351712D01*
X179067349Y-123347859D01*
X179041880Y-123341480D01*
X179017159Y-123332634D01*
X178993425Y-123321409D01*
X178970905Y-123307911D01*
X178949816Y-123292270D01*
X178930362Y-123274638D01*
X178912730Y-123255184D01*
X178897089Y-123234095D01*
X178883591Y-123211575D01*
X178872366Y-123187841D01*
X178863520Y-123163120D01*
X178857141Y-123137651D01*
X178853288Y-123111680D01*
X178852000Y-123085456D01*
X178852000Y-121770544D01*
X178853288Y-121744320D01*
X178857141Y-121718349D01*
X178863520Y-121692880D01*
X178872366Y-121668159D01*
X178883591Y-121644425D01*
X178897089Y-121621905D01*
X178912730Y-121600816D01*
X178930362Y-121581362D01*
X178949816Y-121563730D01*
X178970905Y-121548089D01*
X178993425Y-121534591D01*
X179017159Y-121523366D01*
X179041880Y-121514520D01*
X179067349Y-121508141D01*
X179093320Y-121504288D01*
X179119544Y-121503000D01*
X180109456Y-121503000D01*
X180135680Y-121504288D01*
X180135680Y-121504288D01*
G37*
D11*
X179614500Y-122428000D03*
D10*
G36*
X183110680Y-121504288D02*
G01*
X183136651Y-121508141D01*
X183162120Y-121514520D01*
X183186841Y-121523366D01*
X183210575Y-121534591D01*
X183233095Y-121548089D01*
X183254184Y-121563730D01*
X183273638Y-121581362D01*
X183291270Y-121600816D01*
X183306911Y-121621905D01*
X183320409Y-121644425D01*
X183331634Y-121668159D01*
X183340480Y-121692880D01*
X183346859Y-121718349D01*
X183350712Y-121744320D01*
X183352000Y-121770544D01*
X183352000Y-123085456D01*
X183350712Y-123111680D01*
X183346859Y-123137651D01*
X183340480Y-123163120D01*
X183331634Y-123187841D01*
X183320409Y-123211575D01*
X183306911Y-123234095D01*
X183291270Y-123255184D01*
X183273638Y-123274638D01*
X183254184Y-123292270D01*
X183233095Y-123307911D01*
X183210575Y-123321409D01*
X183186841Y-123332634D01*
X183162120Y-123341480D01*
X183136651Y-123347859D01*
X183110680Y-123351712D01*
X183084456Y-123353000D01*
X182094544Y-123353000D01*
X182068320Y-123351712D01*
X182042349Y-123347859D01*
X182016880Y-123341480D01*
X181992159Y-123332634D01*
X181968425Y-123321409D01*
X181945905Y-123307911D01*
X181924816Y-123292270D01*
X181905362Y-123274638D01*
X181887730Y-123255184D01*
X181872089Y-123234095D01*
X181858591Y-123211575D01*
X181847366Y-123187841D01*
X181838520Y-123163120D01*
X181832141Y-123137651D01*
X181828288Y-123111680D01*
X181827000Y-123085456D01*
X181827000Y-121770544D01*
X181828288Y-121744320D01*
X181832141Y-121718349D01*
X181838520Y-121692880D01*
X181847366Y-121668159D01*
X181858591Y-121644425D01*
X181872089Y-121621905D01*
X181887730Y-121600816D01*
X181905362Y-121581362D01*
X181924816Y-121563730D01*
X181945905Y-121548089D01*
X181968425Y-121534591D01*
X181992159Y-121523366D01*
X182016880Y-121514520D01*
X182042349Y-121508141D01*
X182068320Y-121504288D01*
X182094544Y-121503000D01*
X183084456Y-121503000D01*
X183110680Y-121504288D01*
X183110680Y-121504288D01*
G37*
D11*
X182589500Y-122428000D03*
%TD*%
D20*
%TO.C,J6*%
X96520000Y-139954000D03*
D21*
X96520000Y-137414000D03*
%TD*%
D20*
%TO.C,J7*%
X188722000Y-127508000D03*
D21*
X191262000Y-127508000D03*
%TD*%
%TO.C,J8*%
X154686000Y-145288000D03*
D20*
X152146000Y-145288000D03*
%TD*%
D10*
%TO.C,R26*%
G36*
X183183680Y-126584288D02*
G01*
X183209651Y-126588141D01*
X183235120Y-126594520D01*
X183259841Y-126603366D01*
X183283575Y-126614591D01*
X183306095Y-126628089D01*
X183327184Y-126643730D01*
X183346638Y-126661362D01*
X183364270Y-126680816D01*
X183379911Y-126701905D01*
X183393409Y-126724425D01*
X183404634Y-126748159D01*
X183413480Y-126772880D01*
X183419859Y-126798349D01*
X183423712Y-126824320D01*
X183425000Y-126850544D01*
X183425000Y-128165456D01*
X183423712Y-128191680D01*
X183419859Y-128217651D01*
X183413480Y-128243120D01*
X183404634Y-128267841D01*
X183393409Y-128291575D01*
X183379911Y-128314095D01*
X183364270Y-128335184D01*
X183346638Y-128354638D01*
X183327184Y-128372270D01*
X183306095Y-128387911D01*
X183283575Y-128401409D01*
X183259841Y-128412634D01*
X183235120Y-128421480D01*
X183209651Y-128427859D01*
X183183680Y-128431712D01*
X183157456Y-128433000D01*
X182167544Y-128433000D01*
X182141320Y-128431712D01*
X182115349Y-128427859D01*
X182089880Y-128421480D01*
X182065159Y-128412634D01*
X182041425Y-128401409D01*
X182018905Y-128387911D01*
X181997816Y-128372270D01*
X181978362Y-128354638D01*
X181960730Y-128335184D01*
X181945089Y-128314095D01*
X181931591Y-128291575D01*
X181920366Y-128267841D01*
X181911520Y-128243120D01*
X181905141Y-128217651D01*
X181901288Y-128191680D01*
X181900000Y-128165456D01*
X181900000Y-126850544D01*
X181901288Y-126824320D01*
X181905141Y-126798349D01*
X181911520Y-126772880D01*
X181920366Y-126748159D01*
X181931591Y-126724425D01*
X181945089Y-126701905D01*
X181960730Y-126680816D01*
X181978362Y-126661362D01*
X181997816Y-126643730D01*
X182018905Y-126628089D01*
X182041425Y-126614591D01*
X182065159Y-126603366D01*
X182089880Y-126594520D01*
X182115349Y-126588141D01*
X182141320Y-126584288D01*
X182167544Y-126583000D01*
X183157456Y-126583000D01*
X183183680Y-126584288D01*
X183183680Y-126584288D01*
G37*
D11*
X182662500Y-127508000D03*
D10*
G36*
X186158680Y-126584288D02*
G01*
X186184651Y-126588141D01*
X186210120Y-126594520D01*
X186234841Y-126603366D01*
X186258575Y-126614591D01*
X186281095Y-126628089D01*
X186302184Y-126643730D01*
X186321638Y-126661362D01*
X186339270Y-126680816D01*
X186354911Y-126701905D01*
X186368409Y-126724425D01*
X186379634Y-126748159D01*
X186388480Y-126772880D01*
X186394859Y-126798349D01*
X186398712Y-126824320D01*
X186400000Y-126850544D01*
X186400000Y-128165456D01*
X186398712Y-128191680D01*
X186394859Y-128217651D01*
X186388480Y-128243120D01*
X186379634Y-128267841D01*
X186368409Y-128291575D01*
X186354911Y-128314095D01*
X186339270Y-128335184D01*
X186321638Y-128354638D01*
X186302184Y-128372270D01*
X186281095Y-128387911D01*
X186258575Y-128401409D01*
X186234841Y-128412634D01*
X186210120Y-128421480D01*
X186184651Y-128427859D01*
X186158680Y-128431712D01*
X186132456Y-128433000D01*
X185142544Y-128433000D01*
X185116320Y-128431712D01*
X185090349Y-128427859D01*
X185064880Y-128421480D01*
X185040159Y-128412634D01*
X185016425Y-128401409D01*
X184993905Y-128387911D01*
X184972816Y-128372270D01*
X184953362Y-128354638D01*
X184935730Y-128335184D01*
X184920089Y-128314095D01*
X184906591Y-128291575D01*
X184895366Y-128267841D01*
X184886520Y-128243120D01*
X184880141Y-128217651D01*
X184876288Y-128191680D01*
X184875000Y-128165456D01*
X184875000Y-126850544D01*
X184876288Y-126824320D01*
X184880141Y-126798349D01*
X184886520Y-126772880D01*
X184895366Y-126748159D01*
X184906591Y-126724425D01*
X184920089Y-126701905D01*
X184935730Y-126680816D01*
X184953362Y-126661362D01*
X184972816Y-126643730D01*
X184993905Y-126628089D01*
X185016425Y-126614591D01*
X185040159Y-126603366D01*
X185064880Y-126594520D01*
X185090349Y-126588141D01*
X185116320Y-126584288D01*
X185142544Y-126583000D01*
X186132456Y-126583000D01*
X186158680Y-126584288D01*
X186158680Y-126584288D01*
G37*
D11*
X185637500Y-127508000D03*
%TD*%
M02*
