%TF.GenerationSoftware,KiCad,Pcbnew,(5.1.0)-1*%
%TF.CreationDate,2022-07-09T20:49:55+03:00*%
%TF.ProjectId,octaver,6f637461-7665-4722-9e6b-696361645f70,rev?*%
%TF.SameCoordinates,Original*%
%TF.FileFunction,Legend,Top*%
%TF.FilePolarity,Positive*%
%FSLAX46Y46*%
G04 Gerber Fmt 4.6, Leading zero omitted, Abs format (unit mm)*
G04 Created by KiCad (PCBNEW (5.1.0)-1) date 2022-07-09 20:49:55*
%MOMM*%
%LPD*%
G04 APERTURE LIST*
%ADD10C,0.120000*%
%ADD11C,0.100000*%
%ADD12C,0.300000*%
%ADD13C,0.200000*%
%ADD14C,0.254000*%
%ADD15C,0.150000*%
G04 APERTURE END LIST*
D10*
X171450000Y-125730000D02*
X135890000Y-125730000D01*
X171450000Y-130810000D02*
X171450000Y-125730000D01*
X135890000Y-130810000D02*
X171450000Y-130810000D01*
X135890000Y-125730000D02*
X135890000Y-130810000D01*
D11*
X157518303Y-129482857D02*
X157627827Y-129520952D01*
X157661160Y-129559047D01*
X157689732Y-129635238D01*
X157675446Y-129749523D01*
X157627827Y-129825714D01*
X157584970Y-129863809D01*
X157504017Y-129901904D01*
X157199255Y-129901904D01*
X157299255Y-129101904D01*
X157565922Y-129101904D01*
X157637351Y-129140000D01*
X157670684Y-129178095D01*
X157699255Y-129254285D01*
X157689732Y-129330476D01*
X157642113Y-129406666D01*
X157599255Y-129444761D01*
X157518303Y-129482857D01*
X157251636Y-129482857D01*
X157989732Y-129368571D02*
X158113541Y-129901904D01*
X158370684Y-129368571D02*
X158113541Y-129901904D01*
X158013541Y-130092380D01*
X157970684Y-130130476D01*
X157889732Y-130168571D01*
X159684970Y-129825714D02*
X159642113Y-129863809D01*
X159523065Y-129901904D01*
X159446875Y-129901904D01*
X159337351Y-129863809D01*
X159270684Y-129787619D01*
X159242113Y-129711428D01*
X159223065Y-129559047D01*
X159237351Y-129444761D01*
X159294494Y-129292380D01*
X159342113Y-129216190D01*
X159427827Y-129140000D01*
X159546875Y-129101904D01*
X159623065Y-129101904D01*
X159732589Y-129140000D01*
X159765922Y-129178095D01*
X160018303Y-129901904D02*
X160118303Y-129101904D01*
X160361160Y-129901904D02*
X160413541Y-129482857D01*
X160384970Y-129406666D01*
X160313541Y-129368571D01*
X160199255Y-129368571D01*
X160118303Y-129406666D01*
X160075446Y-129444761D01*
X160742113Y-129901904D02*
X160808779Y-129368571D01*
X160789732Y-129520952D02*
X160837351Y-129444761D01*
X160880208Y-129406666D01*
X160961160Y-129368571D01*
X161037351Y-129368571D01*
X161237351Y-129901904D02*
X161304017Y-129368571D01*
X161337351Y-129101904D02*
X161294494Y-129140000D01*
X161327827Y-129178095D01*
X161370684Y-129140000D01*
X161337351Y-129101904D01*
X161327827Y-129178095D01*
X161584970Y-129863809D02*
X161656398Y-129901904D01*
X161808779Y-129901904D01*
X161889732Y-129863809D01*
X161937351Y-129787619D01*
X161942113Y-129749523D01*
X161913541Y-129673333D01*
X161842113Y-129635238D01*
X161727827Y-129635238D01*
X161656398Y-129597142D01*
X161627827Y-129520952D01*
X161632589Y-129482857D01*
X161680208Y-129406666D01*
X161761160Y-129368571D01*
X161875446Y-129368571D01*
X161946875Y-129406666D01*
X162875446Y-129901904D02*
X162975446Y-129101904D01*
X163332589Y-129901904D02*
X163046875Y-129444761D01*
X163432589Y-129101904D02*
X162918303Y-129559047D01*
X163789732Y-129901904D02*
X163718303Y-129863809D01*
X163684970Y-129825714D01*
X163656398Y-129749523D01*
X163684970Y-129520952D01*
X163732589Y-129444761D01*
X163775446Y-129406666D01*
X163856398Y-129368571D01*
X163970684Y-129368571D01*
X164042113Y-129406666D01*
X164075446Y-129444761D01*
X164104017Y-129520952D01*
X164075446Y-129749523D01*
X164027827Y-129825714D01*
X163984970Y-129863809D01*
X163904017Y-129901904D01*
X163789732Y-129901904D01*
X164465922Y-129368571D02*
X164399255Y-129901904D01*
X164456398Y-129444761D02*
X164499255Y-129406666D01*
X164580208Y-129368571D01*
X164694494Y-129368571D01*
X164765922Y-129406666D01*
X164794494Y-129482857D01*
X164742113Y-129901904D01*
X165089732Y-129863809D02*
X165161160Y-129901904D01*
X165313541Y-129901904D01*
X165394494Y-129863809D01*
X165442113Y-129787619D01*
X165446875Y-129749523D01*
X165418303Y-129673333D01*
X165346875Y-129635238D01*
X165232589Y-129635238D01*
X165161160Y-129597142D01*
X165132589Y-129520952D01*
X165137351Y-129482857D01*
X165184970Y-129406666D01*
X165265922Y-129368571D01*
X165380208Y-129368571D01*
X165451636Y-129406666D01*
X165723065Y-129368571D02*
X166027827Y-129368571D01*
X165870684Y-129101904D02*
X165784970Y-129787619D01*
X165813541Y-129863809D01*
X165884970Y-129901904D01*
X165961160Y-129901904D01*
X166570684Y-129901904D02*
X166623065Y-129482857D01*
X166594494Y-129406666D01*
X166523065Y-129368571D01*
X166370684Y-129368571D01*
X166289732Y-129406666D01*
X166575446Y-129863809D02*
X166494494Y-129901904D01*
X166304017Y-129901904D01*
X166232589Y-129863809D01*
X166204017Y-129787619D01*
X166213541Y-129711428D01*
X166261160Y-129635238D01*
X166342113Y-129597142D01*
X166532589Y-129597142D01*
X166613541Y-129559047D01*
X167018303Y-129368571D02*
X166951636Y-129901904D01*
X167008779Y-129444761D02*
X167051636Y-129406666D01*
X167132589Y-129368571D01*
X167246875Y-129368571D01*
X167318303Y-129406666D01*
X167346875Y-129482857D01*
X167294494Y-129901904D01*
X167627827Y-129368571D02*
X167932589Y-129368571D01*
X167775446Y-129101904D02*
X167689732Y-129787619D01*
X167718303Y-129863809D01*
X167789732Y-129901904D01*
X167865922Y-129901904D01*
X168132589Y-129901904D02*
X168199255Y-129368571D01*
X168232589Y-129101904D02*
X168189732Y-129140000D01*
X168223065Y-129178095D01*
X168265922Y-129140000D01*
X168232589Y-129101904D01*
X168223065Y-129178095D01*
X168580208Y-129368571D02*
X168513541Y-129901904D01*
X168570684Y-129444761D02*
X168613541Y-129406666D01*
X168694494Y-129368571D01*
X168808779Y-129368571D01*
X168880208Y-129406666D01*
X168908779Y-129482857D01*
X168856398Y-129901904D01*
X169351636Y-129901904D02*
X169280208Y-129863809D01*
X169246875Y-129825714D01*
X169218303Y-129749523D01*
X169246875Y-129520952D01*
X169294494Y-129444761D01*
X169337351Y-129406666D01*
X169418303Y-129368571D01*
X169532589Y-129368571D01*
X169604017Y-129406666D01*
X169637351Y-129444761D01*
X169665922Y-129520952D01*
X169637351Y-129749523D01*
X169589732Y-129825714D01*
X169546875Y-129863809D01*
X169465922Y-129901904D01*
X169351636Y-129901904D01*
X170370684Y-129368571D02*
X170304017Y-129901904D01*
X170027827Y-129368571D02*
X169975446Y-129787619D01*
X170004017Y-129863809D01*
X170075446Y-129901904D01*
X170189732Y-129901904D01*
X170270684Y-129863809D01*
X170313541Y-129825714D01*
D12*
X136277142Y-127607142D02*
X136491428Y-127678571D01*
X136848571Y-127678571D01*
X136991428Y-127607142D01*
X137062857Y-127535714D01*
X137134285Y-127392857D01*
X137134285Y-127250000D01*
X137062857Y-127107142D01*
X136991428Y-127035714D01*
X136848571Y-126964285D01*
X136562857Y-126892857D01*
X136420000Y-126821428D01*
X136348571Y-126750000D01*
X136277142Y-126607142D01*
X136277142Y-126464285D01*
X136348571Y-126321428D01*
X136420000Y-126250000D01*
X136562857Y-126178571D01*
X136920000Y-126178571D01*
X137134285Y-126250000D01*
X137562857Y-126178571D02*
X138420000Y-126178571D01*
X137991428Y-127678571D02*
X137991428Y-126178571D01*
X138920000Y-127678571D02*
X138920000Y-126178571D01*
X139420000Y-127250000D01*
X139920000Y-126178571D01*
X139920000Y-127678571D01*
X140491428Y-126178571D02*
X141420000Y-126178571D01*
X140920000Y-126750000D01*
X141134285Y-126750000D01*
X141277142Y-126821428D01*
X141348571Y-126892857D01*
X141420000Y-127035714D01*
X141420000Y-127392857D01*
X141348571Y-127535714D01*
X141277142Y-127607142D01*
X141134285Y-127678571D01*
X140705714Y-127678571D01*
X140562857Y-127607142D01*
X140491428Y-127535714D01*
X141991428Y-126321428D02*
X142062857Y-126250000D01*
X142205714Y-126178571D01*
X142562857Y-126178571D01*
X142705714Y-126250000D01*
X142777142Y-126321428D01*
X142848571Y-126464285D01*
X142848571Y-126607142D01*
X142777142Y-126821428D01*
X141920000Y-127678571D01*
X142848571Y-127678571D01*
X144634285Y-127678571D02*
X144634285Y-126178571D01*
X144991428Y-126178571D01*
X145205714Y-126250000D01*
X145348571Y-126392857D01*
X145420000Y-126535714D01*
X145491428Y-126821428D01*
X145491428Y-127035714D01*
X145420000Y-127321428D01*
X145348571Y-127464285D01*
X145205714Y-127607142D01*
X144991428Y-127678571D01*
X144634285Y-127678571D01*
X146062857Y-127607142D02*
X146277142Y-127678571D01*
X146634285Y-127678571D01*
X146777142Y-127607142D01*
X146848571Y-127535714D01*
X146920000Y-127392857D01*
X146920000Y-127250000D01*
X146848571Y-127107142D01*
X146777142Y-127035714D01*
X146634285Y-126964285D01*
X146348571Y-126892857D01*
X146205714Y-126821428D01*
X146134285Y-126750000D01*
X146062857Y-126607142D01*
X146062857Y-126464285D01*
X146134285Y-126321428D01*
X146205714Y-126250000D01*
X146348571Y-126178571D01*
X146705714Y-126178571D01*
X146920000Y-126250000D01*
X147562857Y-127678571D02*
X147562857Y-126178571D01*
X148134285Y-126178571D01*
X148277142Y-126250000D01*
X148348571Y-126321428D01*
X148420000Y-126464285D01*
X148420000Y-126678571D01*
X148348571Y-126821428D01*
X148277142Y-126892857D01*
X148134285Y-126964285D01*
X147562857Y-126964285D01*
X150205714Y-127678571D02*
X150205714Y-126178571D01*
X150705714Y-127250000D01*
X151205714Y-126178571D01*
X151205714Y-127678571D01*
X152134285Y-127678571D02*
X151991428Y-127607142D01*
X151920000Y-127535714D01*
X151848571Y-127392857D01*
X151848571Y-126964285D01*
X151920000Y-126821428D01*
X151991428Y-126750000D01*
X152134285Y-126678571D01*
X152348571Y-126678571D01*
X152491428Y-126750000D01*
X152562857Y-126821428D01*
X152634285Y-126964285D01*
X152634285Y-127392857D01*
X152562857Y-127535714D01*
X152491428Y-127607142D01*
X152348571Y-127678571D01*
X152134285Y-127678571D01*
X153920000Y-127678571D02*
X153920000Y-126178571D01*
X153920000Y-127607142D02*
X153777142Y-127678571D01*
X153491428Y-127678571D01*
X153348571Y-127607142D01*
X153277142Y-127535714D01*
X153205714Y-127392857D01*
X153205714Y-126964285D01*
X153277142Y-126821428D01*
X153348571Y-126750000D01*
X153491428Y-126678571D01*
X153777142Y-126678571D01*
X153920000Y-126750000D01*
X155277142Y-126678571D02*
X155277142Y-127678571D01*
X154634285Y-126678571D02*
X154634285Y-127464285D01*
X154705714Y-127607142D01*
X154848571Y-127678571D01*
X155062857Y-127678571D01*
X155205714Y-127607142D01*
X155277142Y-127535714D01*
X156205714Y-127678571D02*
X156062857Y-127607142D01*
X155991428Y-127464285D01*
X155991428Y-126178571D01*
X157348571Y-127607142D02*
X157205714Y-127678571D01*
X156920000Y-127678571D01*
X156777142Y-127607142D01*
X156705714Y-127464285D01*
X156705714Y-126892857D01*
X156777142Y-126750000D01*
X156920000Y-126678571D01*
X157205714Y-126678571D01*
X157348571Y-126750000D01*
X157420000Y-126892857D01*
X157420000Y-127035714D01*
X156705714Y-127178571D01*
X159705714Y-126892857D02*
X159920000Y-126964285D01*
X159991428Y-127035714D01*
X160062857Y-127178571D01*
X160062857Y-127392857D01*
X159991428Y-127535714D01*
X159920000Y-127607142D01*
X159777142Y-127678571D01*
X159205714Y-127678571D01*
X159205714Y-126178571D01*
X159705714Y-126178571D01*
X159848571Y-126250000D01*
X159920000Y-126321428D01*
X159991428Y-126464285D01*
X159991428Y-126607142D01*
X159920000Y-126750000D01*
X159848571Y-126821428D01*
X159705714Y-126892857D01*
X159205714Y-126892857D01*
X160920000Y-127678571D02*
X160777142Y-127607142D01*
X160705714Y-127535714D01*
X160634285Y-127392857D01*
X160634285Y-126964285D01*
X160705714Y-126821428D01*
X160777142Y-126750000D01*
X160920000Y-126678571D01*
X161134285Y-126678571D01*
X161277142Y-126750000D01*
X161348571Y-126821428D01*
X161420000Y-126964285D01*
X161420000Y-127392857D01*
X161348571Y-127535714D01*
X161277142Y-127607142D01*
X161134285Y-127678571D01*
X160920000Y-127678571D01*
X162705714Y-127678571D02*
X162705714Y-126892857D01*
X162634285Y-126750000D01*
X162491428Y-126678571D01*
X162205714Y-126678571D01*
X162062857Y-126750000D01*
X162705714Y-127607142D02*
X162562857Y-127678571D01*
X162205714Y-127678571D01*
X162062857Y-127607142D01*
X161991428Y-127464285D01*
X161991428Y-127321428D01*
X162062857Y-127178571D01*
X162205714Y-127107142D01*
X162562857Y-127107142D01*
X162705714Y-127035714D01*
X163420000Y-127678571D02*
X163420000Y-126678571D01*
X163420000Y-126964285D02*
X163491428Y-126821428D01*
X163562857Y-126750000D01*
X163705714Y-126678571D01*
X163848571Y-126678571D01*
X164991428Y-127678571D02*
X164991428Y-126178571D01*
X164991428Y-127607142D02*
X164848571Y-127678571D01*
X164562857Y-127678571D01*
X164420000Y-127607142D01*
X164348571Y-127535714D01*
X164277142Y-127392857D01*
X164277142Y-126964285D01*
X164348571Y-126821428D01*
X164420000Y-126750000D01*
X164562857Y-126678571D01*
X164848571Y-126678571D01*
X164991428Y-126750000D01*
X166634285Y-126178571D02*
X167134285Y-127678571D01*
X167634285Y-126178571D01*
X168920000Y-127678571D02*
X168062857Y-127678571D01*
X168491428Y-127678571D02*
X168491428Y-126178571D01*
X168348571Y-126392857D01*
X168205714Y-126535714D01*
X168062857Y-126607142D01*
X169562857Y-127535714D02*
X169634285Y-127607142D01*
X169562857Y-127678571D01*
X169491428Y-127607142D01*
X169562857Y-127535714D01*
X169562857Y-127678571D01*
X170562857Y-126178571D02*
X170705714Y-126178571D01*
X170848571Y-126250000D01*
X170920000Y-126321428D01*
X170991428Y-126464285D01*
X171062857Y-126750000D01*
X171062857Y-127107142D01*
X170991428Y-127392857D01*
X170920000Y-127535714D01*
X170848571Y-127607142D01*
X170705714Y-127678571D01*
X170562857Y-127678571D01*
X170420000Y-127607142D01*
X170348571Y-127535714D01*
X170277142Y-127392857D01*
X170205714Y-127107142D01*
X170205714Y-126750000D01*
X170277142Y-126464285D01*
X170348571Y-126321428D01*
X170420000Y-126250000D01*
X170562857Y-126178571D01*
D13*
%TO.C,U2*%
X184186200Y-101950800D02*
X184186200Y-100425800D01*
X189216200Y-100075800D02*
X184316200Y-100075800D01*
X189216200Y-96875800D02*
X189216200Y-100075800D01*
X184316200Y-96875800D02*
X189216200Y-96875800D01*
X184316200Y-100075800D02*
X184316200Y-96875800D01*
%TO.C,U9*%
X164047000Y-97231000D02*
X164047000Y-94031000D01*
X164047000Y-94031000D02*
X168947000Y-94031000D01*
X168947000Y-94031000D02*
X168947000Y-97231000D01*
X168947000Y-97231000D02*
X164047000Y-97231000D01*
X163917000Y-99106000D02*
X163917000Y-97581000D01*
%TO.C,U5*%
X171617000Y-104348000D02*
X171617000Y-105873000D01*
X166587000Y-106223000D02*
X171487000Y-106223000D01*
X166587000Y-109423000D02*
X166587000Y-106223000D01*
X171487000Y-109423000D02*
X166587000Y-109423000D01*
X171487000Y-106223000D02*
X171487000Y-109423000D01*
%TO.C,U4*%
X147294800Y-112916800D02*
X150494800Y-112916800D01*
X150494800Y-112916800D02*
X150494800Y-117816800D01*
X150494800Y-117816800D02*
X147294800Y-117816800D01*
X147294800Y-117816800D02*
X147294800Y-112916800D01*
X145419800Y-112786800D02*
X146944800Y-112786800D01*
%TO.C,U3*%
X107225000Y-107112000D02*
X107225000Y-110312000D01*
X107225000Y-110312000D02*
X102325000Y-110312000D01*
X102325000Y-110312000D02*
X102325000Y-107112000D01*
X102325000Y-107112000D02*
X107225000Y-107112000D01*
X107355000Y-105237000D02*
X107355000Y-106762000D01*
%TO.C,U1*%
X134530000Y-116764000D02*
X134530000Y-119964000D01*
X134530000Y-119964000D02*
X129630000Y-119964000D01*
X129630000Y-119964000D02*
X129630000Y-116764000D01*
X129630000Y-116764000D02*
X134530000Y-116764000D01*
X134660000Y-114889000D02*
X134660000Y-116414000D01*
D10*
%TO.C,U6*%
X114700000Y-136180000D02*
X114700000Y-130170000D01*
X121520000Y-133930000D02*
X121520000Y-130170000D01*
X114700000Y-130170000D02*
X115960000Y-130170000D01*
X121520000Y-130170000D02*
X120260000Y-130170000D01*
%TO.C,J5*%
X125222000Y-145034000D02*
X135382000Y-145034000D01*
X125222000Y-137414000D02*
X125222000Y-145034000D01*
X135382000Y-137414000D02*
X125222000Y-137414000D01*
X135382000Y-145034000D02*
X135382000Y-137414000D01*
X135382000Y-143764000D02*
X125222000Y-143764000D01*
D13*
%TO.C,IC2*%
X124332000Y-111736000D02*
X123232000Y-111736000D01*
X122882000Y-108776000D02*
X122882000Y-111696000D01*
X122482000Y-108776000D02*
X122882000Y-108776000D01*
X122482000Y-111696000D02*
X122482000Y-108776000D01*
X122882000Y-111696000D02*
X122482000Y-111696000D01*
%TO.C,J1*%
X90767140Y-135781600D02*
G75*
G03X90767140Y-135781600I-143340J0D01*
G01*
X107238800Y-135185600D02*
X104046800Y-135185600D01*
X107238800Y-116985600D02*
X104046800Y-116985600D01*
X91438800Y-135185600D02*
X102438800Y-135185600D01*
X91438800Y-116985600D02*
X102438800Y-116985600D01*
X83628800Y-135185600D02*
X89617800Y-135185600D01*
X83628800Y-116985600D02*
X89617800Y-116985600D01*
X110158800Y-120385600D02*
X107244800Y-120385600D01*
X110158800Y-131785600D02*
X110158800Y-120385600D01*
X107314800Y-131785600D02*
X110158800Y-131785600D01*
X107238800Y-116985600D02*
X107238800Y-135185600D01*
X83628800Y-135185600D02*
X83628800Y-116985600D01*
%TO.C,J2*%
X83832000Y-100997200D02*
X83832000Y-82797200D01*
X107442000Y-82797200D02*
X107442000Y-100997200D01*
X107518000Y-97597200D02*
X110362000Y-97597200D01*
X110362000Y-97597200D02*
X110362000Y-86197200D01*
X110362000Y-86197200D02*
X107448000Y-86197200D01*
X83832000Y-82797200D02*
X89821000Y-82797200D01*
X83832000Y-100997200D02*
X89821000Y-100997200D01*
X91642000Y-82797200D02*
X102642000Y-82797200D01*
X91642000Y-100997200D02*
X102642000Y-100997200D01*
X107442000Y-82797200D02*
X104250000Y-82797200D01*
X107442000Y-100997200D02*
X104250000Y-100997200D01*
X90970340Y-101593200D02*
G75*
G03X90970340Y-101593200I-143340J0D01*
G01*
D10*
%TO.C,J3*%
X86668300Y-113478000D02*
X86668300Y-116138000D01*
X89268300Y-113478000D02*
X86668300Y-113478000D01*
X89268300Y-116138000D02*
X86668300Y-116138000D01*
X89268300Y-113478000D02*
X89268300Y-116138000D01*
X90538300Y-113478000D02*
X91868300Y-113478000D01*
X91868300Y-113478000D02*
X91868300Y-114808000D01*
%TO.C,J4*%
X139767000Y-100898000D02*
X139767000Y-99568000D01*
X141097000Y-100898000D02*
X139767000Y-100898000D01*
X142367000Y-100898000D02*
X142367000Y-98238000D01*
X142367000Y-98238000D02*
X147507000Y-98238000D01*
X142367000Y-100898000D02*
X147507000Y-100898000D01*
X147507000Y-100898000D02*
X147507000Y-98238000D01*
%TO.C,TP1*%
X113732000Y-107756000D02*
X116392000Y-107756000D01*
X113732000Y-107696000D02*
X113732000Y-107756000D01*
X116392000Y-107696000D02*
X116392000Y-107756000D01*
X113732000Y-107696000D02*
X116392000Y-107696000D01*
X113732000Y-106426000D02*
X113732000Y-105096000D01*
X113732000Y-105096000D02*
X115062000Y-105096000D01*
%TO.C,TP2*%
X158055000Y-85284000D02*
X159385000Y-85284000D01*
X158055000Y-86614000D02*
X158055000Y-85284000D01*
X158055000Y-87884000D02*
X160715000Y-87884000D01*
X160715000Y-87884000D02*
X160715000Y-87944000D01*
X158055000Y-87884000D02*
X158055000Y-87944000D01*
X158055000Y-87944000D02*
X160715000Y-87944000D01*
%TO.C,C2*%
X130535000Y-111346064D02*
X130535000Y-110141936D01*
X132355000Y-111346064D02*
X132355000Y-110141936D01*
%TO.C,C3*%
X116299064Y-108691000D02*
X115094936Y-108691000D01*
X116299064Y-110511000D02*
X115094936Y-110511000D01*
%TO.C,C4*%
X185325936Y-104415000D02*
X186530064Y-104415000D01*
X185325936Y-102595000D02*
X186530064Y-102595000D01*
%TO.C,C5*%
X95852064Y-107590000D02*
X94647936Y-107590000D01*
X95852064Y-105770000D02*
X94647936Y-105770000D01*
%TO.C,C6*%
X95483000Y-113886064D02*
X95483000Y-112681936D01*
X97303000Y-113886064D02*
X97303000Y-112681936D01*
%TO.C,C7*%
X140568000Y-113570936D02*
X140568000Y-114775064D01*
X142388000Y-113570936D02*
X142388000Y-114775064D01*
%TO.C,C8*%
X158644000Y-117761936D02*
X158644000Y-118966064D01*
X156824000Y-117761936D02*
X156824000Y-118966064D01*
%TO.C,C9*%
X160306936Y-96287000D02*
X161511064Y-96287000D01*
X160306936Y-94467000D02*
X161511064Y-94467000D01*
%TO.C,C10*%
X174392000Y-108490936D02*
X174392000Y-109695064D01*
X172572000Y-108490936D02*
X172572000Y-109695064D01*
%TO.C,C11*%
X170528064Y-112374000D02*
X169323936Y-112374000D01*
X170528064Y-114194000D02*
X169323936Y-114194000D01*
%TO.C,C13*%
X108806064Y-113136000D02*
X107601936Y-113136000D01*
X108806064Y-114956000D02*
X107601936Y-114956000D01*
%TO.C,C14*%
X186911064Y-92435000D02*
X185706936Y-92435000D01*
X186911064Y-94255000D02*
X185706936Y-94255000D01*
%TO.C,C15*%
X154284000Y-111411936D02*
X154284000Y-112616064D01*
X156104000Y-111411936D02*
X156104000Y-112616064D01*
%TO.C,C16*%
X115168000Y-140556064D02*
X115168000Y-139351936D01*
X116988000Y-140556064D02*
X116988000Y-139351936D01*
%TO.C,C17*%
X121571936Y-114448000D02*
X122776064Y-114448000D01*
X121571936Y-112628000D02*
X122776064Y-112628000D01*
%TO.C,C18*%
X106024000Y-140556064D02*
X106024000Y-139351936D01*
X107844000Y-140556064D02*
X107844000Y-139351936D01*
%TO.C,C21*%
X121571936Y-115168000D02*
X122776064Y-115168000D01*
X121571936Y-116988000D02*
X122776064Y-116988000D01*
%TO.C,C22*%
X125328000Y-111346064D02*
X125328000Y-110141936D01*
X127148000Y-111346064D02*
X127148000Y-110141936D01*
%TO.C,C23*%
X125316064Y-127868000D02*
X124111936Y-127868000D01*
X125316064Y-129688000D02*
X124111936Y-129688000D01*
%TO.C,C28*%
X131858936Y-122788000D02*
X133063064Y-122788000D01*
X131858936Y-124608000D02*
X133063064Y-124608000D01*
%TO.C,R1*%
X129815000Y-110141936D02*
X129815000Y-111346064D01*
X127995000Y-110141936D02*
X127995000Y-111346064D01*
%TO.C,R2*%
X94763000Y-113886064D02*
X94763000Y-112681936D01*
X92943000Y-113886064D02*
X92943000Y-112681936D01*
%TO.C,R3*%
X185325936Y-106828000D02*
X186530064Y-106828000D01*
X185325936Y-105008000D02*
X186530064Y-105008000D01*
%TO.C,R4*%
X94647936Y-110130000D02*
X95852064Y-110130000D01*
X94647936Y-108310000D02*
X95852064Y-108310000D01*
%TO.C,R5*%
X99843000Y-112681936D02*
X99843000Y-113886064D01*
X98023000Y-112681936D02*
X98023000Y-113886064D01*
%TO.C,R6*%
X109760936Y-106278000D02*
X110965064Y-106278000D01*
X109760936Y-108098000D02*
X110965064Y-108098000D01*
%TO.C,R7*%
X137065936Y-116607000D02*
X138270064Y-116607000D01*
X137065936Y-114787000D02*
X138270064Y-114787000D01*
%TO.C,R8*%
X149511936Y-118724000D02*
X150716064Y-118724000D01*
X149511936Y-120544000D02*
X150716064Y-120544000D01*
%TO.C,R9*%
X148230000Y-109568064D02*
X148230000Y-108363936D01*
X146410000Y-109568064D02*
X146410000Y-108363936D01*
%TO.C,R10*%
X150770000Y-109568064D02*
X150770000Y-108363936D01*
X148950000Y-109568064D02*
X148950000Y-108363936D01*
%TO.C,R11*%
X181577064Y-99293000D02*
X180372936Y-99293000D01*
X181577064Y-101113000D02*
X180372936Y-101113000D01*
%TO.C,R12*%
X181577064Y-96753000D02*
X180372936Y-96753000D01*
X181577064Y-98573000D02*
X180372936Y-98573000D01*
%TO.C,R13*%
X144801000Y-114775064D02*
X144801000Y-113570936D01*
X142981000Y-114775064D02*
X142981000Y-113570936D01*
%TO.C,R14*%
X154284000Y-118966064D02*
X154284000Y-117761936D01*
X156104000Y-118966064D02*
X156104000Y-117761936D01*
%TO.C,R15*%
X176497064Y-98573000D02*
X175292936Y-98573000D01*
X176497064Y-96753000D02*
X175292936Y-96753000D01*
%TO.C,R16*%
X164432064Y-101198000D02*
X163227936Y-101198000D01*
X164432064Y-103018000D02*
X163227936Y-103018000D01*
%TO.C,R17*%
X109760936Y-108691000D02*
X110965064Y-108691000D01*
X109760936Y-110511000D02*
X110965064Y-110511000D01*
%TO.C,R18*%
X140568000Y-109568064D02*
X140568000Y-108363936D01*
X142388000Y-109568064D02*
X142388000Y-108363936D01*
%TO.C,R19*%
X156824000Y-109568064D02*
X156824000Y-108363936D01*
X158644000Y-109568064D02*
X158644000Y-108363936D01*
%TO.C,R20*%
X160634000Y-108363936D02*
X160634000Y-109568064D01*
X162454000Y-108363936D02*
X162454000Y-109568064D01*
%TO.C,R21*%
X161511064Y-93874000D02*
X160306936Y-93874000D01*
X161511064Y-92054000D02*
X160306936Y-92054000D01*
%TO.C,R22*%
X164994000Y-109568064D02*
X164994000Y-108363936D01*
X163174000Y-109568064D02*
X163174000Y-108363936D01*
%TO.C,R23*%
X169323936Y-114787000D02*
X170528064Y-114787000D01*
X169323936Y-116607000D02*
X170528064Y-116607000D01*
%TO.C,R24*%
X123042000Y-87216064D02*
X123042000Y-86011936D01*
X124862000Y-87216064D02*
X124862000Y-86011936D01*
%TO.C,C31*%
X166718064Y-91207000D02*
X165513936Y-91207000D01*
X166718064Y-89387000D02*
X165513936Y-89387000D01*
%TO.C,J6*%
X97850000Y-136084000D02*
X95190000Y-136084000D01*
X97850000Y-138684000D02*
X97850000Y-136084000D01*
X95190000Y-138684000D02*
X95190000Y-136084000D01*
X97850000Y-138684000D02*
X95190000Y-138684000D01*
X97850000Y-139954000D02*
X97850000Y-141284000D01*
X97850000Y-141284000D02*
X96520000Y-141284000D01*
%TO.C,J7*%
X192592000Y-128838000D02*
X192592000Y-126178000D01*
X189992000Y-128838000D02*
X192592000Y-128838000D01*
X189992000Y-126178000D02*
X192592000Y-126178000D01*
X189992000Y-128838000D02*
X189992000Y-126178000D01*
X188722000Y-128838000D02*
X187392000Y-128838000D01*
X187392000Y-128838000D02*
X187392000Y-127508000D01*
%TO.C,J8*%
X150816000Y-146618000D02*
X150816000Y-145288000D01*
X152146000Y-146618000D02*
X150816000Y-146618000D01*
X153416000Y-146618000D02*
X153416000Y-143958000D01*
X153416000Y-143958000D02*
X156016000Y-143958000D01*
X153416000Y-146618000D02*
X156016000Y-146618000D01*
X156016000Y-146618000D02*
X156016000Y-143958000D01*
%TO.C,R25*%
X100478000Y-139351936D02*
X100478000Y-140556064D01*
X98658000Y-139351936D02*
X98658000Y-140556064D01*
%TO.C,R27*%
X148188000Y-143161936D02*
X148188000Y-144366064D01*
X150008000Y-143161936D02*
X150008000Y-144366064D01*
%TO.C,U2*%
D14*
X185722380Y-97856523D02*
X185722380Y-98884619D01*
X185782857Y-99005571D01*
X185843333Y-99066047D01*
X185964285Y-99126523D01*
X186206190Y-99126523D01*
X186327142Y-99066047D01*
X186387619Y-99005571D01*
X186448095Y-98884619D01*
X186448095Y-97856523D01*
X186992380Y-97977476D02*
X187052857Y-97917000D01*
X187173809Y-97856523D01*
X187476190Y-97856523D01*
X187597142Y-97917000D01*
X187657619Y-97977476D01*
X187718095Y-98098428D01*
X187718095Y-98219380D01*
X187657619Y-98400809D01*
X186931904Y-99126523D01*
X187718095Y-99126523D01*
%TO.C,U9*%
X165801523Y-96598619D02*
X166829619Y-96598619D01*
X166950571Y-96538142D01*
X167011047Y-96477666D01*
X167071523Y-96356714D01*
X167071523Y-96114809D01*
X167011047Y-95993857D01*
X166950571Y-95933380D01*
X166829619Y-95872904D01*
X165801523Y-95872904D01*
X167071523Y-95207666D02*
X167071523Y-94965761D01*
X167011047Y-94844809D01*
X166950571Y-94784333D01*
X166769142Y-94663380D01*
X166527238Y-94602904D01*
X166043428Y-94602904D01*
X165922476Y-94663380D01*
X165862000Y-94723857D01*
X165801523Y-94844809D01*
X165801523Y-95086714D01*
X165862000Y-95207666D01*
X165922476Y-95268142D01*
X166043428Y-95328619D01*
X166345809Y-95328619D01*
X166466761Y-95268142D01*
X166527238Y-95207666D01*
X166587714Y-95086714D01*
X166587714Y-94844809D01*
X166527238Y-94723857D01*
X166466761Y-94663380D01*
X166345809Y-94602904D01*
%TO.C,U5*%
X168069380Y-107254523D02*
X168069380Y-108282619D01*
X168129857Y-108403571D01*
X168190333Y-108464047D01*
X168311285Y-108524523D01*
X168553190Y-108524523D01*
X168674142Y-108464047D01*
X168734619Y-108403571D01*
X168795095Y-108282619D01*
X168795095Y-107254523D01*
X170004619Y-107254523D02*
X169399857Y-107254523D01*
X169339380Y-107859285D01*
X169399857Y-107798809D01*
X169520809Y-107738333D01*
X169823190Y-107738333D01*
X169944142Y-107798809D01*
X170004619Y-107859285D01*
X170065095Y-107980238D01*
X170065095Y-108282619D01*
X170004619Y-108403571D01*
X169944142Y-108464047D01*
X169823190Y-108524523D01*
X169520809Y-108524523D01*
X169399857Y-108464047D01*
X169339380Y-108403571D01*
%TO.C,U4*%
X147927180Y-114671323D02*
X147927180Y-115699419D01*
X147987657Y-115820371D01*
X148048133Y-115880847D01*
X148169085Y-115941323D01*
X148410990Y-115941323D01*
X148531942Y-115880847D01*
X148592419Y-115820371D01*
X148652895Y-115699419D01*
X148652895Y-114671323D01*
X149801942Y-115094657D02*
X149801942Y-115941323D01*
X149499561Y-114610847D02*
X149197180Y-115517990D01*
X149983371Y-115517990D01*
%TO.C,U3*%
X103680380Y-108016523D02*
X103680380Y-109044619D01*
X103740857Y-109165571D01*
X103801333Y-109226047D01*
X103922285Y-109286523D01*
X104164190Y-109286523D01*
X104285142Y-109226047D01*
X104345619Y-109165571D01*
X104406095Y-109044619D01*
X104406095Y-108016523D01*
X104889904Y-108016523D02*
X105676095Y-108016523D01*
X105252761Y-108500333D01*
X105434190Y-108500333D01*
X105555142Y-108560809D01*
X105615619Y-108621285D01*
X105676095Y-108742238D01*
X105676095Y-109044619D01*
X105615619Y-109165571D01*
X105555142Y-109226047D01*
X105434190Y-109286523D01*
X105071333Y-109286523D01*
X104950380Y-109226047D01*
X104889904Y-109165571D01*
%TO.C,U1*%
X131384523Y-119331619D02*
X132412619Y-119331619D01*
X132533571Y-119271142D01*
X132594047Y-119210666D01*
X132654523Y-119089714D01*
X132654523Y-118847809D01*
X132594047Y-118726857D01*
X132533571Y-118666380D01*
X132412619Y-118605904D01*
X131384523Y-118605904D01*
X132654523Y-117335904D02*
X132654523Y-118061619D01*
X132654523Y-117698761D02*
X131384523Y-117698761D01*
X131565952Y-117819714D01*
X131686904Y-117940666D01*
X131747380Y-118061619D01*
%TO.C,U8*%
D15*
X143230695Y-72350380D02*
X143230695Y-73159904D01*
X143278314Y-73255142D01*
X143325933Y-73302761D01*
X143421171Y-73350380D01*
X143611647Y-73350380D01*
X143706885Y-73302761D01*
X143754504Y-73255142D01*
X143802123Y-73159904D01*
X143802123Y-72350380D01*
X144421171Y-72778952D02*
X144325933Y-72731333D01*
X144278314Y-72683714D01*
X144230695Y-72588476D01*
X144230695Y-72540857D01*
X144278314Y-72445619D01*
X144325933Y-72398000D01*
X144421171Y-72350380D01*
X144611647Y-72350380D01*
X144706885Y-72398000D01*
X144754504Y-72445619D01*
X144802123Y-72540857D01*
X144802123Y-72588476D01*
X144754504Y-72683714D01*
X144706885Y-72731333D01*
X144611647Y-72778952D01*
X144421171Y-72778952D01*
X144325933Y-72826571D01*
X144278314Y-72874190D01*
X144230695Y-72969428D01*
X144230695Y-73159904D01*
X144278314Y-73255142D01*
X144325933Y-73302761D01*
X144421171Y-73350380D01*
X144611647Y-73350380D01*
X144706885Y-73302761D01*
X144754504Y-73255142D01*
X144802123Y-73159904D01*
X144802123Y-72969428D01*
X144754504Y-72874190D01*
X144706885Y-72826571D01*
X144611647Y-72778952D01*
%TO.C,U6*%
X113062380Y-132841904D02*
X113871904Y-132841904D01*
X113967142Y-132794285D01*
X114014761Y-132746666D01*
X114062380Y-132651428D01*
X114062380Y-132460952D01*
X114014761Y-132365714D01*
X113967142Y-132318095D01*
X113871904Y-132270476D01*
X113062380Y-132270476D01*
X113062380Y-131365714D02*
X113062380Y-131556190D01*
X113110000Y-131651428D01*
X113157619Y-131699047D01*
X113300476Y-131794285D01*
X113490952Y-131841904D01*
X113871904Y-131841904D01*
X113967142Y-131794285D01*
X114014761Y-131746666D01*
X114062380Y-131651428D01*
X114062380Y-131460952D01*
X114014761Y-131365714D01*
X113967142Y-131318095D01*
X113871904Y-131270476D01*
X113633809Y-131270476D01*
X113538571Y-131318095D01*
X113490952Y-131365714D01*
X113443333Y-131460952D01*
X113443333Y-131651428D01*
X113490952Y-131746666D01*
X113538571Y-131794285D01*
X113633809Y-131841904D01*
%TO.C,J5*%
X129968666Y-135596380D02*
X129968666Y-136310666D01*
X129921047Y-136453523D01*
X129825809Y-136548761D01*
X129682952Y-136596380D01*
X129587714Y-136596380D01*
X130921047Y-135596380D02*
X130444857Y-135596380D01*
X130397238Y-136072571D01*
X130444857Y-136024952D01*
X130540095Y-135977333D01*
X130778190Y-135977333D01*
X130873428Y-136024952D01*
X130921047Y-136072571D01*
X130968666Y-136167809D01*
X130968666Y-136405904D01*
X130921047Y-136501142D01*
X130873428Y-136548761D01*
X130778190Y-136596380D01*
X130540095Y-136596380D01*
X130444857Y-136548761D01*
X130397238Y-136501142D01*
%TO.C,IC2*%
D14*
X120259323Y-111424961D02*
X118989323Y-111424961D01*
X120138371Y-110094485D02*
X120198847Y-110154961D01*
X120259323Y-110336390D01*
X120259323Y-110457342D01*
X120198847Y-110638771D01*
X120077895Y-110759723D01*
X119956942Y-110820200D01*
X119715038Y-110880676D01*
X119533609Y-110880676D01*
X119291704Y-110820200D01*
X119170752Y-110759723D01*
X119049800Y-110638771D01*
X118989323Y-110457342D01*
X118989323Y-110336390D01*
X119049800Y-110154961D01*
X119110276Y-110094485D01*
X119110276Y-109610676D02*
X119049800Y-109550200D01*
X118989323Y-109429247D01*
X118989323Y-109126866D01*
X119049800Y-109005914D01*
X119110276Y-108945438D01*
X119231228Y-108884961D01*
X119352180Y-108884961D01*
X119533609Y-108945438D01*
X120259323Y-109671152D01*
X120259323Y-108884961D01*
%TO.C,H4*%
D15*
X196088095Y-138462380D02*
X196088095Y-137462380D01*
X196088095Y-137938571D02*
X196659523Y-137938571D01*
X196659523Y-138462380D02*
X196659523Y-137462380D01*
X197564285Y-137795714D02*
X197564285Y-138462380D01*
X197326190Y-137414761D02*
X197088095Y-138129047D01*
X197707142Y-138129047D01*
%TO.C,H3*%
X196088095Y-72422380D02*
X196088095Y-71422380D01*
X196088095Y-71898571D02*
X196659523Y-71898571D01*
X196659523Y-72422380D02*
X196659523Y-71422380D01*
X197040476Y-71422380D02*
X197659523Y-71422380D01*
X197326190Y-71803333D01*
X197469047Y-71803333D01*
X197564285Y-71850952D01*
X197611904Y-71898571D01*
X197659523Y-71993809D01*
X197659523Y-72231904D01*
X197611904Y-72327142D01*
X197564285Y-72374761D01*
X197469047Y-72422380D01*
X197183333Y-72422380D01*
X197088095Y-72374761D01*
X197040476Y-72327142D01*
%TO.C,H2*%
X89408095Y-138462380D02*
X89408095Y-137462380D01*
X89408095Y-137938571D02*
X89979523Y-137938571D01*
X89979523Y-138462380D02*
X89979523Y-137462380D01*
X90408095Y-137557619D02*
X90455714Y-137510000D01*
X90550952Y-137462380D01*
X90789047Y-137462380D01*
X90884285Y-137510000D01*
X90931904Y-137557619D01*
X90979523Y-137652857D01*
X90979523Y-137748095D01*
X90931904Y-137890952D01*
X90360476Y-138462380D01*
X90979523Y-138462380D01*
%TO.C,H1*%
X89408095Y-72422380D02*
X89408095Y-71422380D01*
X89408095Y-71898571D02*
X89979523Y-71898571D01*
X89979523Y-72422380D02*
X89979523Y-71422380D01*
X90979523Y-72422380D02*
X90408095Y-72422380D01*
X90693809Y-72422380D02*
X90693809Y-71422380D01*
X90598571Y-71565238D01*
X90503333Y-71660476D01*
X90408095Y-71708095D01*
%TO.C,J1*%
D14*
X95156466Y-125661123D02*
X95156466Y-126568266D01*
X95095990Y-126749695D01*
X94975038Y-126870647D01*
X94793609Y-126931123D01*
X94672657Y-126931123D01*
X96426466Y-126931123D02*
X95700752Y-126931123D01*
X96063609Y-126931123D02*
X96063609Y-125661123D01*
X95942657Y-125842552D01*
X95821704Y-125963504D01*
X95700752Y-126023980D01*
%TO.C,J2*%
X95359666Y-91472723D02*
X95359666Y-92379866D01*
X95299190Y-92561295D01*
X95178238Y-92682247D01*
X94996809Y-92742723D01*
X94875857Y-92742723D01*
X95903952Y-91593676D02*
X95964428Y-91533200D01*
X96085380Y-91472723D01*
X96387761Y-91472723D01*
X96508714Y-91533200D01*
X96569190Y-91593676D01*
X96629666Y-91714628D01*
X96629666Y-91835580D01*
X96569190Y-92017009D01*
X95843476Y-92742723D01*
X96629666Y-92742723D01*
%TO.C,J3*%
D15*
X89125466Y-111656880D02*
X89125466Y-112371166D01*
X89077847Y-112514023D01*
X88982609Y-112609261D01*
X88839752Y-112656880D01*
X88744514Y-112656880D01*
X89506419Y-111656880D02*
X90125466Y-111656880D01*
X89792133Y-112037833D01*
X89934990Y-112037833D01*
X90030228Y-112085452D01*
X90077847Y-112133071D01*
X90125466Y-112228309D01*
X90125466Y-112466404D01*
X90077847Y-112561642D01*
X90030228Y-112609261D01*
X89934990Y-112656880D01*
X89649276Y-112656880D01*
X89554038Y-112609261D01*
X89506419Y-112561642D01*
%TO.C,J4*%
X138219380Y-99901333D02*
X138933666Y-99901333D01*
X139076523Y-99948952D01*
X139171761Y-100044190D01*
X139219380Y-100187047D01*
X139219380Y-100282285D01*
X138552714Y-98996571D02*
X139219380Y-98996571D01*
X138171761Y-99234666D02*
X138886047Y-99472761D01*
X138886047Y-98853714D01*
%TO.C,TP1*%
X113800095Y-103548380D02*
X114371523Y-103548380D01*
X114085809Y-104548380D02*
X114085809Y-103548380D01*
X114704857Y-104548380D02*
X114704857Y-103548380D01*
X115085809Y-103548380D01*
X115181047Y-103596000D01*
X115228666Y-103643619D01*
X115276285Y-103738857D01*
X115276285Y-103881714D01*
X115228666Y-103976952D01*
X115181047Y-104024571D01*
X115085809Y-104072190D01*
X114704857Y-104072190D01*
X116228666Y-104548380D02*
X115657238Y-104548380D01*
X115942952Y-104548380D02*
X115942952Y-103548380D01*
X115847714Y-103691238D01*
X115752476Y-103786476D01*
X115657238Y-103834095D01*
%TO.C,TP2*%
X158123095Y-83736380D02*
X158694523Y-83736380D01*
X158408809Y-84736380D02*
X158408809Y-83736380D01*
X159027857Y-84736380D02*
X159027857Y-83736380D01*
X159408809Y-83736380D01*
X159504047Y-83784000D01*
X159551666Y-83831619D01*
X159599285Y-83926857D01*
X159599285Y-84069714D01*
X159551666Y-84164952D01*
X159504047Y-84212571D01*
X159408809Y-84260190D01*
X159027857Y-84260190D01*
X159980238Y-83831619D02*
X160027857Y-83784000D01*
X160123095Y-83736380D01*
X160361190Y-83736380D01*
X160456428Y-83784000D01*
X160504047Y-83831619D01*
X160551666Y-83926857D01*
X160551666Y-84022095D01*
X160504047Y-84164952D01*
X159932619Y-84736380D01*
X160551666Y-84736380D01*
%TO.C,C2*%
X133437333Y-111101142D02*
X133389714Y-111148761D01*
X133246857Y-111196380D01*
X133151619Y-111196380D01*
X133008761Y-111148761D01*
X132913523Y-111053523D01*
X132865904Y-110958285D01*
X132818285Y-110767809D01*
X132818285Y-110624952D01*
X132865904Y-110434476D01*
X132913523Y-110339238D01*
X133008761Y-110244000D01*
X133151619Y-110196380D01*
X133246857Y-110196380D01*
X133389714Y-110244000D01*
X133437333Y-110291619D01*
X133818285Y-110291619D02*
X133865904Y-110244000D01*
X133961142Y-110196380D01*
X134199238Y-110196380D01*
X134294476Y-110244000D01*
X134342095Y-110291619D01*
X134389714Y-110386857D01*
X134389714Y-110482095D01*
X134342095Y-110624952D01*
X133770666Y-111196380D01*
X134389714Y-111196380D01*
%TO.C,C3*%
X115403333Y-112117142D02*
X115355714Y-112164761D01*
X115212857Y-112212380D01*
X115117619Y-112212380D01*
X114974761Y-112164761D01*
X114879523Y-112069523D01*
X114831904Y-111974285D01*
X114784285Y-111783809D01*
X114784285Y-111640952D01*
X114831904Y-111450476D01*
X114879523Y-111355238D01*
X114974761Y-111260000D01*
X115117619Y-111212380D01*
X115212857Y-111212380D01*
X115355714Y-111260000D01*
X115403333Y-111307619D01*
X115736666Y-111212380D02*
X116355714Y-111212380D01*
X116022380Y-111593333D01*
X116165238Y-111593333D01*
X116260476Y-111640952D01*
X116308095Y-111688571D01*
X116355714Y-111783809D01*
X116355714Y-112021904D01*
X116308095Y-112117142D01*
X116260476Y-112164761D01*
X116165238Y-112212380D01*
X115879523Y-112212380D01*
X115784285Y-112164761D01*
X115736666Y-112117142D01*
%TO.C,C4*%
X189317333Y-103989142D02*
X189269714Y-104036761D01*
X189126857Y-104084380D01*
X189031619Y-104084380D01*
X188888761Y-104036761D01*
X188793523Y-103941523D01*
X188745904Y-103846285D01*
X188698285Y-103655809D01*
X188698285Y-103512952D01*
X188745904Y-103322476D01*
X188793523Y-103227238D01*
X188888761Y-103132000D01*
X189031619Y-103084380D01*
X189126857Y-103084380D01*
X189269714Y-103132000D01*
X189317333Y-103179619D01*
X190174476Y-103417714D02*
X190174476Y-104084380D01*
X189936380Y-103036761D02*
X189698285Y-103751047D01*
X190317333Y-103751047D01*
%TO.C,C5*%
X91527333Y-107037142D02*
X91479714Y-107084761D01*
X91336857Y-107132380D01*
X91241619Y-107132380D01*
X91098761Y-107084761D01*
X91003523Y-106989523D01*
X90955904Y-106894285D01*
X90908285Y-106703809D01*
X90908285Y-106560952D01*
X90955904Y-106370476D01*
X91003523Y-106275238D01*
X91098761Y-106180000D01*
X91241619Y-106132380D01*
X91336857Y-106132380D01*
X91479714Y-106180000D01*
X91527333Y-106227619D01*
X92432095Y-106132380D02*
X91955904Y-106132380D01*
X91908285Y-106608571D01*
X91955904Y-106560952D01*
X92051142Y-106513333D01*
X92289238Y-106513333D01*
X92384476Y-106560952D01*
X92432095Y-106608571D01*
X92479714Y-106703809D01*
X92479714Y-106941904D01*
X92432095Y-107037142D01*
X92384476Y-107084761D01*
X92289238Y-107132380D01*
X92051142Y-107132380D01*
X91955904Y-107084761D01*
X91908285Y-107037142D01*
%TO.C,C6*%
X96226333Y-116816142D02*
X96178714Y-116863761D01*
X96035857Y-116911380D01*
X95940619Y-116911380D01*
X95797761Y-116863761D01*
X95702523Y-116768523D01*
X95654904Y-116673285D01*
X95607285Y-116482809D01*
X95607285Y-116339952D01*
X95654904Y-116149476D01*
X95702523Y-116054238D01*
X95797761Y-115959000D01*
X95940619Y-115911380D01*
X96035857Y-115911380D01*
X96178714Y-115959000D01*
X96226333Y-116006619D01*
X97083476Y-115911380D02*
X96893000Y-115911380D01*
X96797761Y-115959000D01*
X96750142Y-116006619D01*
X96654904Y-116149476D01*
X96607285Y-116339952D01*
X96607285Y-116720904D01*
X96654904Y-116816142D01*
X96702523Y-116863761D01*
X96797761Y-116911380D01*
X96988238Y-116911380D01*
X97083476Y-116863761D01*
X97131095Y-116816142D01*
X97178714Y-116720904D01*
X97178714Y-116482809D01*
X97131095Y-116387571D01*
X97083476Y-116339952D01*
X96988238Y-116292333D01*
X96797761Y-116292333D01*
X96702523Y-116339952D01*
X96654904Y-116387571D01*
X96607285Y-116482809D01*
%TO.C,C7*%
X141311333Y-117959142D02*
X141263714Y-118006761D01*
X141120857Y-118054380D01*
X141025619Y-118054380D01*
X140882761Y-118006761D01*
X140787523Y-117911523D01*
X140739904Y-117816285D01*
X140692285Y-117625809D01*
X140692285Y-117482952D01*
X140739904Y-117292476D01*
X140787523Y-117197238D01*
X140882761Y-117102000D01*
X141025619Y-117054380D01*
X141120857Y-117054380D01*
X141263714Y-117102000D01*
X141311333Y-117149619D01*
X141644666Y-117054380D02*
X142311333Y-117054380D01*
X141882761Y-118054380D01*
%TO.C,C8*%
X158091142Y-122340666D02*
X158138761Y-122388285D01*
X158186380Y-122531142D01*
X158186380Y-122626380D01*
X158138761Y-122769238D01*
X158043523Y-122864476D01*
X157948285Y-122912095D01*
X157757809Y-122959714D01*
X157614952Y-122959714D01*
X157424476Y-122912095D01*
X157329238Y-122864476D01*
X157234000Y-122769238D01*
X157186380Y-122626380D01*
X157186380Y-122531142D01*
X157234000Y-122388285D01*
X157281619Y-122340666D01*
X157614952Y-121769238D02*
X157567333Y-121864476D01*
X157519714Y-121912095D01*
X157424476Y-121959714D01*
X157376857Y-121959714D01*
X157281619Y-121912095D01*
X157234000Y-121864476D01*
X157186380Y-121769238D01*
X157186380Y-121578761D01*
X157234000Y-121483523D01*
X157281619Y-121435904D01*
X157376857Y-121388285D01*
X157424476Y-121388285D01*
X157519714Y-121435904D01*
X157567333Y-121483523D01*
X157614952Y-121578761D01*
X157614952Y-121769238D01*
X157662571Y-121864476D01*
X157710190Y-121912095D01*
X157805428Y-121959714D01*
X157995904Y-121959714D01*
X158091142Y-121912095D01*
X158138761Y-121864476D01*
X158186380Y-121769238D01*
X158186380Y-121578761D01*
X158138761Y-121483523D01*
X158091142Y-121435904D01*
X157995904Y-121388285D01*
X157805428Y-121388285D01*
X157710190Y-121435904D01*
X157662571Y-121483523D01*
X157614952Y-121578761D01*
%TO.C,C9*%
X160742333Y-93914142D02*
X160694714Y-93961761D01*
X160551857Y-94009380D01*
X160456619Y-94009380D01*
X160313761Y-93961761D01*
X160218523Y-93866523D01*
X160170904Y-93771285D01*
X160123285Y-93580809D01*
X160123285Y-93437952D01*
X160170904Y-93247476D01*
X160218523Y-93152238D01*
X160313761Y-93057000D01*
X160456619Y-93009380D01*
X160551857Y-93009380D01*
X160694714Y-93057000D01*
X160742333Y-93104619D01*
X161218523Y-94009380D02*
X161409000Y-94009380D01*
X161504238Y-93961761D01*
X161551857Y-93914142D01*
X161647095Y-93771285D01*
X161694714Y-93580809D01*
X161694714Y-93199857D01*
X161647095Y-93104619D01*
X161599476Y-93057000D01*
X161504238Y-93009380D01*
X161313761Y-93009380D01*
X161218523Y-93057000D01*
X161170904Y-93104619D01*
X161123285Y-93199857D01*
X161123285Y-93437952D01*
X161170904Y-93533190D01*
X161218523Y-93580809D01*
X161313761Y-93628428D01*
X161504238Y-93628428D01*
X161599476Y-93580809D01*
X161647095Y-93533190D01*
X161694714Y-93437952D01*
%TO.C,C10*%
X173839142Y-104528857D02*
X173886761Y-104576476D01*
X173934380Y-104719333D01*
X173934380Y-104814571D01*
X173886761Y-104957428D01*
X173791523Y-105052666D01*
X173696285Y-105100285D01*
X173505809Y-105147904D01*
X173362952Y-105147904D01*
X173172476Y-105100285D01*
X173077238Y-105052666D01*
X172982000Y-104957428D01*
X172934380Y-104814571D01*
X172934380Y-104719333D01*
X172982000Y-104576476D01*
X173029619Y-104528857D01*
X173934380Y-103576476D02*
X173934380Y-104147904D01*
X173934380Y-103862190D02*
X172934380Y-103862190D01*
X173077238Y-103957428D01*
X173172476Y-104052666D01*
X173220095Y-104147904D01*
X172934380Y-102957428D02*
X172934380Y-102862190D01*
X172982000Y-102766952D01*
X173029619Y-102719333D01*
X173124857Y-102671714D01*
X173315333Y-102624095D01*
X173553428Y-102624095D01*
X173743904Y-102671714D01*
X173839142Y-102719333D01*
X173886761Y-102766952D01*
X173934380Y-102862190D01*
X173934380Y-102957428D01*
X173886761Y-103052666D01*
X173839142Y-103100285D01*
X173743904Y-103147904D01*
X173553428Y-103195523D01*
X173315333Y-103195523D01*
X173124857Y-103147904D01*
X173029619Y-103100285D01*
X172982000Y-103052666D01*
X172934380Y-102957428D01*
%TO.C,C11*%
X173347142Y-113641142D02*
X173299523Y-113688761D01*
X173156666Y-113736380D01*
X173061428Y-113736380D01*
X172918571Y-113688761D01*
X172823333Y-113593523D01*
X172775714Y-113498285D01*
X172728095Y-113307809D01*
X172728095Y-113164952D01*
X172775714Y-112974476D01*
X172823333Y-112879238D01*
X172918571Y-112784000D01*
X173061428Y-112736380D01*
X173156666Y-112736380D01*
X173299523Y-112784000D01*
X173347142Y-112831619D01*
X174299523Y-113736380D02*
X173728095Y-113736380D01*
X174013809Y-113736380D02*
X174013809Y-112736380D01*
X173918571Y-112879238D01*
X173823333Y-112974476D01*
X173728095Y-113022095D01*
X175251904Y-113736380D02*
X174680476Y-113736380D01*
X174966190Y-113736380D02*
X174966190Y-112736380D01*
X174870952Y-112879238D01*
X174775714Y-112974476D01*
X174680476Y-113022095D01*
%TO.C,C13*%
X103243142Y-115927142D02*
X103195523Y-115974761D01*
X103052666Y-116022380D01*
X102957428Y-116022380D01*
X102814571Y-115974761D01*
X102719333Y-115879523D01*
X102671714Y-115784285D01*
X102624095Y-115593809D01*
X102624095Y-115450952D01*
X102671714Y-115260476D01*
X102719333Y-115165238D01*
X102814571Y-115070000D01*
X102957428Y-115022380D01*
X103052666Y-115022380D01*
X103195523Y-115070000D01*
X103243142Y-115117619D01*
X104195523Y-116022380D02*
X103624095Y-116022380D01*
X103909809Y-116022380D02*
X103909809Y-115022380D01*
X103814571Y-115165238D01*
X103719333Y-115260476D01*
X103624095Y-115308095D01*
X104528857Y-115022380D02*
X105147904Y-115022380D01*
X104814571Y-115403333D01*
X104957428Y-115403333D01*
X105052666Y-115450952D01*
X105100285Y-115498571D01*
X105147904Y-115593809D01*
X105147904Y-115831904D01*
X105100285Y-115927142D01*
X105052666Y-115974761D01*
X104957428Y-116022380D01*
X104671714Y-116022380D01*
X104576476Y-115974761D01*
X104528857Y-115927142D01*
%TO.C,C14*%
X185031142Y-91797142D02*
X184983523Y-91844761D01*
X184840666Y-91892380D01*
X184745428Y-91892380D01*
X184602571Y-91844761D01*
X184507333Y-91749523D01*
X184459714Y-91654285D01*
X184412095Y-91463809D01*
X184412095Y-91320952D01*
X184459714Y-91130476D01*
X184507333Y-91035238D01*
X184602571Y-90940000D01*
X184745428Y-90892380D01*
X184840666Y-90892380D01*
X184983523Y-90940000D01*
X185031142Y-90987619D01*
X185983523Y-91892380D02*
X185412095Y-91892380D01*
X185697809Y-91892380D02*
X185697809Y-90892380D01*
X185602571Y-91035238D01*
X185507333Y-91130476D01*
X185412095Y-91178095D01*
X186840666Y-91225714D02*
X186840666Y-91892380D01*
X186602571Y-90844761D02*
X186364476Y-91559047D01*
X186983523Y-91559047D01*
%TO.C,C15*%
X153773142Y-112148857D02*
X153820761Y-112196476D01*
X153868380Y-112339333D01*
X153868380Y-112434571D01*
X153820761Y-112577428D01*
X153725523Y-112672666D01*
X153630285Y-112720285D01*
X153439809Y-112767904D01*
X153296952Y-112767904D01*
X153106476Y-112720285D01*
X153011238Y-112672666D01*
X152916000Y-112577428D01*
X152868380Y-112434571D01*
X152868380Y-112339333D01*
X152916000Y-112196476D01*
X152963619Y-112148857D01*
X153868380Y-111196476D02*
X153868380Y-111767904D01*
X153868380Y-111482190D02*
X152868380Y-111482190D01*
X153011238Y-111577428D01*
X153106476Y-111672666D01*
X153154095Y-111767904D01*
X152868380Y-110291714D02*
X152868380Y-110767904D01*
X153344571Y-110815523D01*
X153296952Y-110767904D01*
X153249333Y-110672666D01*
X153249333Y-110434571D01*
X153296952Y-110339333D01*
X153344571Y-110291714D01*
X153439809Y-110244095D01*
X153677904Y-110244095D01*
X153773142Y-110291714D01*
X153820761Y-110339333D01*
X153868380Y-110434571D01*
X153868380Y-110672666D01*
X153820761Y-110767904D01*
X153773142Y-110815523D01*
%TO.C,C16*%
X112641142Y-141073142D02*
X112593523Y-141120761D01*
X112450666Y-141168380D01*
X112355428Y-141168380D01*
X112212571Y-141120761D01*
X112117333Y-141025523D01*
X112069714Y-140930285D01*
X112022095Y-140739809D01*
X112022095Y-140596952D01*
X112069714Y-140406476D01*
X112117333Y-140311238D01*
X112212571Y-140216000D01*
X112355428Y-140168380D01*
X112450666Y-140168380D01*
X112593523Y-140216000D01*
X112641142Y-140263619D01*
X113593523Y-141168380D02*
X113022095Y-141168380D01*
X113307809Y-141168380D02*
X113307809Y-140168380D01*
X113212571Y-140311238D01*
X113117333Y-140406476D01*
X113022095Y-140454095D01*
X114450666Y-140168380D02*
X114260190Y-140168380D01*
X114164952Y-140216000D01*
X114117333Y-140263619D01*
X114022095Y-140406476D01*
X113974476Y-140596952D01*
X113974476Y-140977904D01*
X114022095Y-141073142D01*
X114069714Y-141120761D01*
X114164952Y-141168380D01*
X114355428Y-141168380D01*
X114450666Y-141120761D01*
X114498285Y-141073142D01*
X114545904Y-140977904D01*
X114545904Y-140739809D01*
X114498285Y-140644571D01*
X114450666Y-140596952D01*
X114355428Y-140549333D01*
X114164952Y-140549333D01*
X114069714Y-140596952D01*
X114022095Y-140644571D01*
X113974476Y-140739809D01*
%TO.C,C17*%
X116451142Y-113895142D02*
X116403523Y-113942761D01*
X116260666Y-113990380D01*
X116165428Y-113990380D01*
X116022571Y-113942761D01*
X115927333Y-113847523D01*
X115879714Y-113752285D01*
X115832095Y-113561809D01*
X115832095Y-113418952D01*
X115879714Y-113228476D01*
X115927333Y-113133238D01*
X116022571Y-113038000D01*
X116165428Y-112990380D01*
X116260666Y-112990380D01*
X116403523Y-113038000D01*
X116451142Y-113085619D01*
X117403523Y-113990380D02*
X116832095Y-113990380D01*
X117117809Y-113990380D02*
X117117809Y-112990380D01*
X117022571Y-113133238D01*
X116927333Y-113228476D01*
X116832095Y-113276095D01*
X117736857Y-112990380D02*
X118403523Y-112990380D01*
X117974952Y-113990380D01*
%TO.C,C18*%
X103751142Y-141073142D02*
X103703523Y-141120761D01*
X103560666Y-141168380D01*
X103465428Y-141168380D01*
X103322571Y-141120761D01*
X103227333Y-141025523D01*
X103179714Y-140930285D01*
X103132095Y-140739809D01*
X103132095Y-140596952D01*
X103179714Y-140406476D01*
X103227333Y-140311238D01*
X103322571Y-140216000D01*
X103465428Y-140168380D01*
X103560666Y-140168380D01*
X103703523Y-140216000D01*
X103751142Y-140263619D01*
X104703523Y-141168380D02*
X104132095Y-141168380D01*
X104417809Y-141168380D02*
X104417809Y-140168380D01*
X104322571Y-140311238D01*
X104227333Y-140406476D01*
X104132095Y-140454095D01*
X105274952Y-140596952D02*
X105179714Y-140549333D01*
X105132095Y-140501714D01*
X105084476Y-140406476D01*
X105084476Y-140358857D01*
X105132095Y-140263619D01*
X105179714Y-140216000D01*
X105274952Y-140168380D01*
X105465428Y-140168380D01*
X105560666Y-140216000D01*
X105608285Y-140263619D01*
X105655904Y-140358857D01*
X105655904Y-140406476D01*
X105608285Y-140501714D01*
X105560666Y-140549333D01*
X105465428Y-140596952D01*
X105274952Y-140596952D01*
X105179714Y-140644571D01*
X105132095Y-140692190D01*
X105084476Y-140787428D01*
X105084476Y-140977904D01*
X105132095Y-141073142D01*
X105179714Y-141120761D01*
X105274952Y-141168380D01*
X105465428Y-141168380D01*
X105560666Y-141120761D01*
X105608285Y-141073142D01*
X105655904Y-140977904D01*
X105655904Y-140787428D01*
X105608285Y-140692190D01*
X105560666Y-140644571D01*
X105465428Y-140596952D01*
%TO.C,C21*%
X116451142Y-116435142D02*
X116403523Y-116482761D01*
X116260666Y-116530380D01*
X116165428Y-116530380D01*
X116022571Y-116482761D01*
X115927333Y-116387523D01*
X115879714Y-116292285D01*
X115832095Y-116101809D01*
X115832095Y-115958952D01*
X115879714Y-115768476D01*
X115927333Y-115673238D01*
X116022571Y-115578000D01*
X116165428Y-115530380D01*
X116260666Y-115530380D01*
X116403523Y-115578000D01*
X116451142Y-115625619D01*
X116832095Y-115625619D02*
X116879714Y-115578000D01*
X116974952Y-115530380D01*
X117213047Y-115530380D01*
X117308285Y-115578000D01*
X117355904Y-115625619D01*
X117403523Y-115720857D01*
X117403523Y-115816095D01*
X117355904Y-115958952D01*
X116784476Y-116530380D01*
X117403523Y-116530380D01*
X118355904Y-116530380D02*
X117784476Y-116530380D01*
X118070190Y-116530380D02*
X118070190Y-115530380D01*
X117974952Y-115673238D01*
X117879714Y-115768476D01*
X117784476Y-115816095D01*
%TO.C,C22*%
X126595142Y-107322857D02*
X126642761Y-107370476D01*
X126690380Y-107513333D01*
X126690380Y-107608571D01*
X126642761Y-107751428D01*
X126547523Y-107846666D01*
X126452285Y-107894285D01*
X126261809Y-107941904D01*
X126118952Y-107941904D01*
X125928476Y-107894285D01*
X125833238Y-107846666D01*
X125738000Y-107751428D01*
X125690380Y-107608571D01*
X125690380Y-107513333D01*
X125738000Y-107370476D01*
X125785619Y-107322857D01*
X125785619Y-106941904D02*
X125738000Y-106894285D01*
X125690380Y-106799047D01*
X125690380Y-106560952D01*
X125738000Y-106465714D01*
X125785619Y-106418095D01*
X125880857Y-106370476D01*
X125976095Y-106370476D01*
X126118952Y-106418095D01*
X126690380Y-106989523D01*
X126690380Y-106370476D01*
X125785619Y-105989523D02*
X125738000Y-105941904D01*
X125690380Y-105846666D01*
X125690380Y-105608571D01*
X125738000Y-105513333D01*
X125785619Y-105465714D01*
X125880857Y-105418095D01*
X125976095Y-105418095D01*
X126118952Y-105465714D01*
X126690380Y-106037142D01*
X126690380Y-105418095D01*
%TO.C,C23*%
X124071142Y-130955142D02*
X124023523Y-131002761D01*
X123880666Y-131050380D01*
X123785428Y-131050380D01*
X123642571Y-131002761D01*
X123547333Y-130907523D01*
X123499714Y-130812285D01*
X123452095Y-130621809D01*
X123452095Y-130478952D01*
X123499714Y-130288476D01*
X123547333Y-130193238D01*
X123642571Y-130098000D01*
X123785428Y-130050380D01*
X123880666Y-130050380D01*
X124023523Y-130098000D01*
X124071142Y-130145619D01*
X124452095Y-130145619D02*
X124499714Y-130098000D01*
X124594952Y-130050380D01*
X124833047Y-130050380D01*
X124928285Y-130098000D01*
X124975904Y-130145619D01*
X125023523Y-130240857D01*
X125023523Y-130336095D01*
X124975904Y-130478952D01*
X124404476Y-131050380D01*
X125023523Y-131050380D01*
X125356857Y-130050380D02*
X125975904Y-130050380D01*
X125642571Y-130431333D01*
X125785428Y-130431333D01*
X125880666Y-130478952D01*
X125928285Y-130526571D01*
X125975904Y-130621809D01*
X125975904Y-130859904D01*
X125928285Y-130955142D01*
X125880666Y-131002761D01*
X125785428Y-131050380D01*
X125499714Y-131050380D01*
X125404476Y-131002761D01*
X125356857Y-130955142D01*
%TO.C,C28*%
X131691142Y-127865142D02*
X131643523Y-127912761D01*
X131500666Y-127960380D01*
X131405428Y-127960380D01*
X131262571Y-127912761D01*
X131167333Y-127817523D01*
X131119714Y-127722285D01*
X131072095Y-127531809D01*
X131072095Y-127388952D01*
X131119714Y-127198476D01*
X131167333Y-127103238D01*
X131262571Y-127008000D01*
X131405428Y-126960380D01*
X131500666Y-126960380D01*
X131643523Y-127008000D01*
X131691142Y-127055619D01*
X132072095Y-127055619D02*
X132119714Y-127008000D01*
X132214952Y-126960380D01*
X132453047Y-126960380D01*
X132548285Y-127008000D01*
X132595904Y-127055619D01*
X132643523Y-127150857D01*
X132643523Y-127246095D01*
X132595904Y-127388952D01*
X132024476Y-127960380D01*
X132643523Y-127960380D01*
X133214952Y-127388952D02*
X133119714Y-127341333D01*
X133072095Y-127293714D01*
X133024476Y-127198476D01*
X133024476Y-127150857D01*
X133072095Y-127055619D01*
X133119714Y-127008000D01*
X133214952Y-126960380D01*
X133405428Y-126960380D01*
X133500666Y-127008000D01*
X133548285Y-127055619D01*
X133595904Y-127150857D01*
X133595904Y-127198476D01*
X133548285Y-127293714D01*
X133500666Y-127341333D01*
X133405428Y-127388952D01*
X133214952Y-127388952D01*
X133119714Y-127436571D01*
X133072095Y-127484190D01*
X133024476Y-127579428D01*
X133024476Y-127769904D01*
X133072095Y-127865142D01*
X133119714Y-127912761D01*
X133214952Y-127960380D01*
X133405428Y-127960380D01*
X133500666Y-127912761D01*
X133548285Y-127865142D01*
X133595904Y-127769904D01*
X133595904Y-127579428D01*
X133548285Y-127484190D01*
X133500666Y-127436571D01*
X133405428Y-127388952D01*
%TO.C,R1*%
X128865333Y-114498380D02*
X128532000Y-114022190D01*
X128293904Y-114498380D02*
X128293904Y-113498380D01*
X128674857Y-113498380D01*
X128770095Y-113546000D01*
X128817714Y-113593619D01*
X128865333Y-113688857D01*
X128865333Y-113831714D01*
X128817714Y-113926952D01*
X128770095Y-113974571D01*
X128674857Y-114022190D01*
X128293904Y-114022190D01*
X129817714Y-114498380D02*
X129246285Y-114498380D01*
X129532000Y-114498380D02*
X129532000Y-113498380D01*
X129436761Y-113641238D01*
X129341523Y-113736476D01*
X129246285Y-113784095D01*
%TO.C,R2*%
X93813333Y-116911380D02*
X93480000Y-116435190D01*
X93241904Y-116911380D02*
X93241904Y-115911380D01*
X93622857Y-115911380D01*
X93718095Y-115959000D01*
X93765714Y-116006619D01*
X93813333Y-116101857D01*
X93813333Y-116244714D01*
X93765714Y-116339952D01*
X93718095Y-116387571D01*
X93622857Y-116435190D01*
X93241904Y-116435190D01*
X94194285Y-116006619D02*
X94241904Y-115959000D01*
X94337142Y-115911380D01*
X94575238Y-115911380D01*
X94670476Y-115959000D01*
X94718095Y-116006619D01*
X94765714Y-116101857D01*
X94765714Y-116197095D01*
X94718095Y-116339952D01*
X94146666Y-116911380D01*
X94765714Y-116911380D01*
%TO.C,R3*%
X185761333Y-108402380D02*
X185428000Y-107926190D01*
X185189904Y-108402380D02*
X185189904Y-107402380D01*
X185570857Y-107402380D01*
X185666095Y-107450000D01*
X185713714Y-107497619D01*
X185761333Y-107592857D01*
X185761333Y-107735714D01*
X185713714Y-107830952D01*
X185666095Y-107878571D01*
X185570857Y-107926190D01*
X185189904Y-107926190D01*
X186094666Y-107402380D02*
X186713714Y-107402380D01*
X186380380Y-107783333D01*
X186523238Y-107783333D01*
X186618476Y-107830952D01*
X186666095Y-107878571D01*
X186713714Y-107973809D01*
X186713714Y-108211904D01*
X186666095Y-108307142D01*
X186618476Y-108354761D01*
X186523238Y-108402380D01*
X186237523Y-108402380D01*
X186142285Y-108354761D01*
X186094666Y-108307142D01*
%TO.C,R4*%
X91527333Y-109672380D02*
X91194000Y-109196190D01*
X90955904Y-109672380D02*
X90955904Y-108672380D01*
X91336857Y-108672380D01*
X91432095Y-108720000D01*
X91479714Y-108767619D01*
X91527333Y-108862857D01*
X91527333Y-109005714D01*
X91479714Y-109100952D01*
X91432095Y-109148571D01*
X91336857Y-109196190D01*
X90955904Y-109196190D01*
X92384476Y-109005714D02*
X92384476Y-109672380D01*
X92146380Y-108624761D02*
X91908285Y-109339047D01*
X92527333Y-109339047D01*
%TO.C,R5*%
X100925333Y-113736380D02*
X100592000Y-113260190D01*
X100353904Y-113736380D02*
X100353904Y-112736380D01*
X100734857Y-112736380D01*
X100830095Y-112784000D01*
X100877714Y-112831619D01*
X100925333Y-112926857D01*
X100925333Y-113069714D01*
X100877714Y-113164952D01*
X100830095Y-113212571D01*
X100734857Y-113260190D01*
X100353904Y-113260190D01*
X101830095Y-112736380D02*
X101353904Y-112736380D01*
X101306285Y-113212571D01*
X101353904Y-113164952D01*
X101449142Y-113117333D01*
X101687238Y-113117333D01*
X101782476Y-113164952D01*
X101830095Y-113212571D01*
X101877714Y-113307809D01*
X101877714Y-113545904D01*
X101830095Y-113641142D01*
X101782476Y-113688761D01*
X101687238Y-113736380D01*
X101449142Y-113736380D01*
X101353904Y-113688761D01*
X101306285Y-113641142D01*
%TO.C,R6*%
X110196333Y-105820380D02*
X109863000Y-105344190D01*
X109624904Y-105820380D02*
X109624904Y-104820380D01*
X110005857Y-104820380D01*
X110101095Y-104868000D01*
X110148714Y-104915619D01*
X110196333Y-105010857D01*
X110196333Y-105153714D01*
X110148714Y-105248952D01*
X110101095Y-105296571D01*
X110005857Y-105344190D01*
X109624904Y-105344190D01*
X111053476Y-104820380D02*
X110863000Y-104820380D01*
X110767761Y-104868000D01*
X110720142Y-104915619D01*
X110624904Y-105058476D01*
X110577285Y-105248952D01*
X110577285Y-105629904D01*
X110624904Y-105725142D01*
X110672523Y-105772761D01*
X110767761Y-105820380D01*
X110958238Y-105820380D01*
X111053476Y-105772761D01*
X111101095Y-105725142D01*
X111148714Y-105629904D01*
X111148714Y-105391809D01*
X111101095Y-105296571D01*
X111053476Y-105248952D01*
X110958238Y-105201333D01*
X110767761Y-105201333D01*
X110672523Y-105248952D01*
X110624904Y-105296571D01*
X110577285Y-105391809D01*
%TO.C,R7*%
X137501333Y-114329380D02*
X137168000Y-113853190D01*
X136929904Y-114329380D02*
X136929904Y-113329380D01*
X137310857Y-113329380D01*
X137406095Y-113377000D01*
X137453714Y-113424619D01*
X137501333Y-113519857D01*
X137501333Y-113662714D01*
X137453714Y-113757952D01*
X137406095Y-113805571D01*
X137310857Y-113853190D01*
X136929904Y-113853190D01*
X137834666Y-113329380D02*
X138501333Y-113329380D01*
X138072761Y-114329380D01*
%TO.C,R8*%
X149947333Y-122372380D02*
X149614000Y-121896190D01*
X149375904Y-122372380D02*
X149375904Y-121372380D01*
X149756857Y-121372380D01*
X149852095Y-121420000D01*
X149899714Y-121467619D01*
X149947333Y-121562857D01*
X149947333Y-121705714D01*
X149899714Y-121800952D01*
X149852095Y-121848571D01*
X149756857Y-121896190D01*
X149375904Y-121896190D01*
X150518761Y-121800952D02*
X150423523Y-121753333D01*
X150375904Y-121705714D01*
X150328285Y-121610476D01*
X150328285Y-121562857D01*
X150375904Y-121467619D01*
X150423523Y-121420000D01*
X150518761Y-121372380D01*
X150709238Y-121372380D01*
X150804476Y-121420000D01*
X150852095Y-121467619D01*
X150899714Y-121562857D01*
X150899714Y-121610476D01*
X150852095Y-121705714D01*
X150804476Y-121753333D01*
X150709238Y-121800952D01*
X150518761Y-121800952D01*
X150423523Y-121848571D01*
X150375904Y-121896190D01*
X150328285Y-121991428D01*
X150328285Y-122181904D01*
X150375904Y-122277142D01*
X150423523Y-122324761D01*
X150518761Y-122372380D01*
X150709238Y-122372380D01*
X150804476Y-122324761D01*
X150852095Y-122277142D01*
X150899714Y-122181904D01*
X150899714Y-121991428D01*
X150852095Y-121896190D01*
X150804476Y-121848571D01*
X150709238Y-121800952D01*
%TO.C,R9*%
X145952380Y-109132666D02*
X145476190Y-109466000D01*
X145952380Y-109704095D02*
X144952380Y-109704095D01*
X144952380Y-109323142D01*
X145000000Y-109227904D01*
X145047619Y-109180285D01*
X145142857Y-109132666D01*
X145285714Y-109132666D01*
X145380952Y-109180285D01*
X145428571Y-109227904D01*
X145476190Y-109323142D01*
X145476190Y-109704095D01*
X145952380Y-108656476D02*
X145952380Y-108466000D01*
X145904761Y-108370761D01*
X145857142Y-108323142D01*
X145714285Y-108227904D01*
X145523809Y-108180285D01*
X145142857Y-108180285D01*
X145047619Y-108227904D01*
X145000000Y-108275523D01*
X144952380Y-108370761D01*
X144952380Y-108561238D01*
X145000000Y-108656476D01*
X145047619Y-108704095D01*
X145142857Y-108751714D01*
X145380952Y-108751714D01*
X145476190Y-108704095D01*
X145523809Y-108656476D01*
X145571428Y-108561238D01*
X145571428Y-108370761D01*
X145523809Y-108275523D01*
X145476190Y-108227904D01*
X145380952Y-108180285D01*
%TO.C,R10*%
X152090380Y-109608857D02*
X151614190Y-109942190D01*
X152090380Y-110180285D02*
X151090380Y-110180285D01*
X151090380Y-109799333D01*
X151138000Y-109704095D01*
X151185619Y-109656476D01*
X151280857Y-109608857D01*
X151423714Y-109608857D01*
X151518952Y-109656476D01*
X151566571Y-109704095D01*
X151614190Y-109799333D01*
X151614190Y-110180285D01*
X152090380Y-108656476D02*
X152090380Y-109227904D01*
X152090380Y-108942190D02*
X151090380Y-108942190D01*
X151233238Y-109037428D01*
X151328476Y-109132666D01*
X151376095Y-109227904D01*
X151090380Y-108037428D02*
X151090380Y-107942190D01*
X151138000Y-107846952D01*
X151185619Y-107799333D01*
X151280857Y-107751714D01*
X151471333Y-107704095D01*
X151709428Y-107704095D01*
X151899904Y-107751714D01*
X151995142Y-107799333D01*
X152042761Y-107846952D01*
X152090380Y-107942190D01*
X152090380Y-108037428D01*
X152042761Y-108132666D01*
X151995142Y-108180285D01*
X151899904Y-108227904D01*
X151709428Y-108275523D01*
X151471333Y-108275523D01*
X151280857Y-108227904D01*
X151185619Y-108180285D01*
X151138000Y-108132666D01*
X151090380Y-108037428D01*
%TO.C,R11*%
X180332142Y-102475380D02*
X179998809Y-101999190D01*
X179760714Y-102475380D02*
X179760714Y-101475380D01*
X180141666Y-101475380D01*
X180236904Y-101523000D01*
X180284523Y-101570619D01*
X180332142Y-101665857D01*
X180332142Y-101808714D01*
X180284523Y-101903952D01*
X180236904Y-101951571D01*
X180141666Y-101999190D01*
X179760714Y-101999190D01*
X181284523Y-102475380D02*
X180713095Y-102475380D01*
X180998809Y-102475380D02*
X180998809Y-101475380D01*
X180903571Y-101618238D01*
X180808333Y-101713476D01*
X180713095Y-101761095D01*
X182236904Y-102475380D02*
X181665476Y-102475380D01*
X181951190Y-102475380D02*
X181951190Y-101475380D01*
X181855952Y-101618238D01*
X181760714Y-101713476D01*
X181665476Y-101761095D01*
%TO.C,R12*%
X180332142Y-96210380D02*
X179998809Y-95734190D01*
X179760714Y-96210380D02*
X179760714Y-95210380D01*
X180141666Y-95210380D01*
X180236904Y-95258000D01*
X180284523Y-95305619D01*
X180332142Y-95400857D01*
X180332142Y-95543714D01*
X180284523Y-95638952D01*
X180236904Y-95686571D01*
X180141666Y-95734190D01*
X179760714Y-95734190D01*
X181284523Y-96210380D02*
X180713095Y-96210380D01*
X180998809Y-96210380D02*
X180998809Y-95210380D01*
X180903571Y-95353238D01*
X180808333Y-95448476D01*
X180713095Y-95496095D01*
X181665476Y-95305619D02*
X181713095Y-95258000D01*
X181808333Y-95210380D01*
X182046428Y-95210380D01*
X182141666Y-95258000D01*
X182189285Y-95305619D01*
X182236904Y-95400857D01*
X182236904Y-95496095D01*
X182189285Y-95638952D01*
X181617857Y-96210380D01*
X182236904Y-96210380D01*
%TO.C,R13*%
X144216380Y-110878857D02*
X143740190Y-111212190D01*
X144216380Y-111450285D02*
X143216380Y-111450285D01*
X143216380Y-111069333D01*
X143264000Y-110974095D01*
X143311619Y-110926476D01*
X143406857Y-110878857D01*
X143549714Y-110878857D01*
X143644952Y-110926476D01*
X143692571Y-110974095D01*
X143740190Y-111069333D01*
X143740190Y-111450285D01*
X144216380Y-109926476D02*
X144216380Y-110497904D01*
X144216380Y-110212190D02*
X143216380Y-110212190D01*
X143359238Y-110307428D01*
X143454476Y-110402666D01*
X143502095Y-110497904D01*
X143216380Y-109593142D02*
X143216380Y-108974095D01*
X143597333Y-109307428D01*
X143597333Y-109164571D01*
X143644952Y-109069333D01*
X143692571Y-109021714D01*
X143787809Y-108974095D01*
X144025904Y-108974095D01*
X144121142Y-109021714D01*
X144168761Y-109069333D01*
X144216380Y-109164571D01*
X144216380Y-109450285D01*
X144168761Y-109545523D01*
X144121142Y-109593142D01*
%TO.C,R14*%
X155646380Y-123070857D02*
X155170190Y-123404190D01*
X155646380Y-123642285D02*
X154646380Y-123642285D01*
X154646380Y-123261333D01*
X154694000Y-123166095D01*
X154741619Y-123118476D01*
X154836857Y-123070857D01*
X154979714Y-123070857D01*
X155074952Y-123118476D01*
X155122571Y-123166095D01*
X155170190Y-123261333D01*
X155170190Y-123642285D01*
X155646380Y-122118476D02*
X155646380Y-122689904D01*
X155646380Y-122404190D02*
X154646380Y-122404190D01*
X154789238Y-122499428D01*
X154884476Y-122594666D01*
X154932095Y-122689904D01*
X154979714Y-121261333D02*
X155646380Y-121261333D01*
X154598761Y-121499428D02*
X155313047Y-121737523D01*
X155313047Y-121118476D01*
%TO.C,R15*%
X175252142Y-99935380D02*
X174918809Y-99459190D01*
X174680714Y-99935380D02*
X174680714Y-98935380D01*
X175061666Y-98935380D01*
X175156904Y-98983000D01*
X175204523Y-99030619D01*
X175252142Y-99125857D01*
X175252142Y-99268714D01*
X175204523Y-99363952D01*
X175156904Y-99411571D01*
X175061666Y-99459190D01*
X174680714Y-99459190D01*
X176204523Y-99935380D02*
X175633095Y-99935380D01*
X175918809Y-99935380D02*
X175918809Y-98935380D01*
X175823571Y-99078238D01*
X175728333Y-99173476D01*
X175633095Y-99221095D01*
X177109285Y-98935380D02*
X176633095Y-98935380D01*
X176585476Y-99411571D01*
X176633095Y-99363952D01*
X176728333Y-99316333D01*
X176966428Y-99316333D01*
X177061666Y-99363952D01*
X177109285Y-99411571D01*
X177156904Y-99506809D01*
X177156904Y-99744904D01*
X177109285Y-99840142D01*
X177061666Y-99887761D01*
X176966428Y-99935380D01*
X176728333Y-99935380D01*
X176633095Y-99887761D01*
X176585476Y-99840142D01*
%TO.C,R16*%
X163187142Y-104380380D02*
X162853809Y-103904190D01*
X162615714Y-104380380D02*
X162615714Y-103380380D01*
X162996666Y-103380380D01*
X163091904Y-103428000D01*
X163139523Y-103475619D01*
X163187142Y-103570857D01*
X163187142Y-103713714D01*
X163139523Y-103808952D01*
X163091904Y-103856571D01*
X162996666Y-103904190D01*
X162615714Y-103904190D01*
X164139523Y-104380380D02*
X163568095Y-104380380D01*
X163853809Y-104380380D02*
X163853809Y-103380380D01*
X163758571Y-103523238D01*
X163663333Y-103618476D01*
X163568095Y-103666095D01*
X164996666Y-103380380D02*
X164806190Y-103380380D01*
X164710952Y-103428000D01*
X164663333Y-103475619D01*
X164568095Y-103618476D01*
X164520476Y-103808952D01*
X164520476Y-104189904D01*
X164568095Y-104285142D01*
X164615714Y-104332761D01*
X164710952Y-104380380D01*
X164901428Y-104380380D01*
X164996666Y-104332761D01*
X165044285Y-104285142D01*
X165091904Y-104189904D01*
X165091904Y-103951809D01*
X165044285Y-103856571D01*
X164996666Y-103808952D01*
X164901428Y-103761333D01*
X164710952Y-103761333D01*
X164615714Y-103808952D01*
X164568095Y-103856571D01*
X164520476Y-103951809D01*
%TO.C,R17*%
X109720142Y-111958380D02*
X109386809Y-111482190D01*
X109148714Y-111958380D02*
X109148714Y-110958380D01*
X109529666Y-110958380D01*
X109624904Y-111006000D01*
X109672523Y-111053619D01*
X109720142Y-111148857D01*
X109720142Y-111291714D01*
X109672523Y-111386952D01*
X109624904Y-111434571D01*
X109529666Y-111482190D01*
X109148714Y-111482190D01*
X110672523Y-111958380D02*
X110101095Y-111958380D01*
X110386809Y-111958380D02*
X110386809Y-110958380D01*
X110291571Y-111101238D01*
X110196333Y-111196476D01*
X110101095Y-111244095D01*
X111005857Y-110958380D02*
X111672523Y-110958380D01*
X111243952Y-111958380D01*
%TO.C,R18*%
X140110380Y-109608857D02*
X139634190Y-109942190D01*
X140110380Y-110180285D02*
X139110380Y-110180285D01*
X139110380Y-109799333D01*
X139158000Y-109704095D01*
X139205619Y-109656476D01*
X139300857Y-109608857D01*
X139443714Y-109608857D01*
X139538952Y-109656476D01*
X139586571Y-109704095D01*
X139634190Y-109799333D01*
X139634190Y-110180285D01*
X140110380Y-108656476D02*
X140110380Y-109227904D01*
X140110380Y-108942190D02*
X139110380Y-108942190D01*
X139253238Y-109037428D01*
X139348476Y-109132666D01*
X139396095Y-109227904D01*
X139538952Y-108085047D02*
X139491333Y-108180285D01*
X139443714Y-108227904D01*
X139348476Y-108275523D01*
X139300857Y-108275523D01*
X139205619Y-108227904D01*
X139158000Y-108180285D01*
X139110380Y-108085047D01*
X139110380Y-107894571D01*
X139158000Y-107799333D01*
X139205619Y-107751714D01*
X139300857Y-107704095D01*
X139348476Y-107704095D01*
X139443714Y-107751714D01*
X139491333Y-107799333D01*
X139538952Y-107894571D01*
X139538952Y-108085047D01*
X139586571Y-108180285D01*
X139634190Y-108227904D01*
X139729428Y-108275523D01*
X139919904Y-108275523D01*
X140015142Y-108227904D01*
X140062761Y-108180285D01*
X140110380Y-108085047D01*
X140110380Y-107894571D01*
X140062761Y-107799333D01*
X140015142Y-107751714D01*
X139919904Y-107704095D01*
X139729428Y-107704095D01*
X139634190Y-107751714D01*
X139586571Y-107799333D01*
X139538952Y-107894571D01*
%TO.C,R19*%
X156154380Y-108338857D02*
X155678190Y-108672190D01*
X156154380Y-108910285D02*
X155154380Y-108910285D01*
X155154380Y-108529333D01*
X155202000Y-108434095D01*
X155249619Y-108386476D01*
X155344857Y-108338857D01*
X155487714Y-108338857D01*
X155582952Y-108386476D01*
X155630571Y-108434095D01*
X155678190Y-108529333D01*
X155678190Y-108910285D01*
X156154380Y-107386476D02*
X156154380Y-107957904D01*
X156154380Y-107672190D02*
X155154380Y-107672190D01*
X155297238Y-107767428D01*
X155392476Y-107862666D01*
X155440095Y-107957904D01*
X156154380Y-106910285D02*
X156154380Y-106719809D01*
X156106761Y-106624571D01*
X156059142Y-106576952D01*
X155916285Y-106481714D01*
X155725809Y-106434095D01*
X155344857Y-106434095D01*
X155249619Y-106481714D01*
X155202000Y-106529333D01*
X155154380Y-106624571D01*
X155154380Y-106815047D01*
X155202000Y-106910285D01*
X155249619Y-106957904D01*
X155344857Y-107005523D01*
X155582952Y-107005523D01*
X155678190Y-106957904D01*
X155725809Y-106910285D01*
X155773428Y-106815047D01*
X155773428Y-106624571D01*
X155725809Y-106529333D01*
X155678190Y-106481714D01*
X155582952Y-106434095D01*
%TO.C,R20*%
X160901142Y-106116380D02*
X160567809Y-105640190D01*
X160329714Y-106116380D02*
X160329714Y-105116380D01*
X160710666Y-105116380D01*
X160805904Y-105164000D01*
X160853523Y-105211619D01*
X160901142Y-105306857D01*
X160901142Y-105449714D01*
X160853523Y-105544952D01*
X160805904Y-105592571D01*
X160710666Y-105640190D01*
X160329714Y-105640190D01*
X161282095Y-105211619D02*
X161329714Y-105164000D01*
X161424952Y-105116380D01*
X161663047Y-105116380D01*
X161758285Y-105164000D01*
X161805904Y-105211619D01*
X161853523Y-105306857D01*
X161853523Y-105402095D01*
X161805904Y-105544952D01*
X161234476Y-106116380D01*
X161853523Y-106116380D01*
X162472571Y-105116380D02*
X162567809Y-105116380D01*
X162663047Y-105164000D01*
X162710666Y-105211619D01*
X162758285Y-105306857D01*
X162805904Y-105497333D01*
X162805904Y-105735428D01*
X162758285Y-105925904D01*
X162710666Y-106021142D01*
X162663047Y-106068761D01*
X162567809Y-106116380D01*
X162472571Y-106116380D01*
X162377333Y-106068761D01*
X162329714Y-106021142D01*
X162282095Y-105925904D01*
X162234476Y-105735428D01*
X162234476Y-105497333D01*
X162282095Y-105306857D01*
X162329714Y-105211619D01*
X162377333Y-105164000D01*
X162472571Y-105116380D01*
%TO.C,R21*%
X160266142Y-95236380D02*
X159932809Y-94760190D01*
X159694714Y-95236380D02*
X159694714Y-94236380D01*
X160075666Y-94236380D01*
X160170904Y-94284000D01*
X160218523Y-94331619D01*
X160266142Y-94426857D01*
X160266142Y-94569714D01*
X160218523Y-94664952D01*
X160170904Y-94712571D01*
X160075666Y-94760190D01*
X159694714Y-94760190D01*
X160647095Y-94331619D02*
X160694714Y-94284000D01*
X160789952Y-94236380D01*
X161028047Y-94236380D01*
X161123285Y-94284000D01*
X161170904Y-94331619D01*
X161218523Y-94426857D01*
X161218523Y-94522095D01*
X161170904Y-94664952D01*
X160599476Y-95236380D01*
X161218523Y-95236380D01*
X162170904Y-95236380D02*
X161599476Y-95236380D01*
X161885190Y-95236380D02*
X161885190Y-94236380D01*
X161789952Y-94379238D01*
X161694714Y-94474476D01*
X161599476Y-94522095D01*
%TO.C,R22*%
X164536380Y-113672857D02*
X164060190Y-114006190D01*
X164536380Y-114244285D02*
X163536380Y-114244285D01*
X163536380Y-113863333D01*
X163584000Y-113768095D01*
X163631619Y-113720476D01*
X163726857Y-113672857D01*
X163869714Y-113672857D01*
X163964952Y-113720476D01*
X164012571Y-113768095D01*
X164060190Y-113863333D01*
X164060190Y-114244285D01*
X163631619Y-113291904D02*
X163584000Y-113244285D01*
X163536380Y-113149047D01*
X163536380Y-112910952D01*
X163584000Y-112815714D01*
X163631619Y-112768095D01*
X163726857Y-112720476D01*
X163822095Y-112720476D01*
X163964952Y-112768095D01*
X164536380Y-113339523D01*
X164536380Y-112720476D01*
X163631619Y-112339523D02*
X163584000Y-112291904D01*
X163536380Y-112196666D01*
X163536380Y-111958571D01*
X163584000Y-111863333D01*
X163631619Y-111815714D01*
X163726857Y-111768095D01*
X163822095Y-111768095D01*
X163964952Y-111815714D01*
X164536380Y-112387142D01*
X164536380Y-111768095D01*
%TO.C,R23*%
X173347142Y-116276380D02*
X173013809Y-115800190D01*
X172775714Y-116276380D02*
X172775714Y-115276380D01*
X173156666Y-115276380D01*
X173251904Y-115324000D01*
X173299523Y-115371619D01*
X173347142Y-115466857D01*
X173347142Y-115609714D01*
X173299523Y-115704952D01*
X173251904Y-115752571D01*
X173156666Y-115800190D01*
X172775714Y-115800190D01*
X173728095Y-115371619D02*
X173775714Y-115324000D01*
X173870952Y-115276380D01*
X174109047Y-115276380D01*
X174204285Y-115324000D01*
X174251904Y-115371619D01*
X174299523Y-115466857D01*
X174299523Y-115562095D01*
X174251904Y-115704952D01*
X173680476Y-116276380D01*
X174299523Y-116276380D01*
X174632857Y-115276380D02*
X175251904Y-115276380D01*
X174918571Y-115657333D01*
X175061428Y-115657333D01*
X175156666Y-115704952D01*
X175204285Y-115752571D01*
X175251904Y-115847809D01*
X175251904Y-116085904D01*
X175204285Y-116181142D01*
X175156666Y-116228761D01*
X175061428Y-116276380D01*
X174775714Y-116276380D01*
X174680476Y-116228761D01*
X174632857Y-116181142D01*
%TO.C,R24*%
X122584380Y-87256857D02*
X122108190Y-87590190D01*
X122584380Y-87828285D02*
X121584380Y-87828285D01*
X121584380Y-87447333D01*
X121632000Y-87352095D01*
X121679619Y-87304476D01*
X121774857Y-87256857D01*
X121917714Y-87256857D01*
X122012952Y-87304476D01*
X122060571Y-87352095D01*
X122108190Y-87447333D01*
X122108190Y-87828285D01*
X121679619Y-86875904D02*
X121632000Y-86828285D01*
X121584380Y-86733047D01*
X121584380Y-86494952D01*
X121632000Y-86399714D01*
X121679619Y-86352095D01*
X121774857Y-86304476D01*
X121870095Y-86304476D01*
X122012952Y-86352095D01*
X122584380Y-86923523D01*
X122584380Y-86304476D01*
X121917714Y-85447333D02*
X122584380Y-85447333D01*
X121536761Y-85685428D02*
X122251047Y-85923523D01*
X122251047Y-85304476D01*
%TO.C,C31*%
X165473142Y-92474142D02*
X165425523Y-92521761D01*
X165282666Y-92569380D01*
X165187428Y-92569380D01*
X165044571Y-92521761D01*
X164949333Y-92426523D01*
X164901714Y-92331285D01*
X164854095Y-92140809D01*
X164854095Y-91997952D01*
X164901714Y-91807476D01*
X164949333Y-91712238D01*
X165044571Y-91617000D01*
X165187428Y-91569380D01*
X165282666Y-91569380D01*
X165425523Y-91617000D01*
X165473142Y-91664619D01*
X165806476Y-91569380D02*
X166425523Y-91569380D01*
X166092190Y-91950333D01*
X166235047Y-91950333D01*
X166330285Y-91997952D01*
X166377904Y-92045571D01*
X166425523Y-92140809D01*
X166425523Y-92378904D01*
X166377904Y-92474142D01*
X166330285Y-92521761D01*
X166235047Y-92569380D01*
X165949333Y-92569380D01*
X165854095Y-92521761D01*
X165806476Y-92474142D01*
X167377904Y-92569380D02*
X166806476Y-92569380D01*
X167092190Y-92569380D02*
X167092190Y-91569380D01*
X166996952Y-91712238D01*
X166901714Y-91807476D01*
X166806476Y-91855095D01*
%TO.C,J6*%
X96186666Y-141946380D02*
X96186666Y-142660666D01*
X96139047Y-142803523D01*
X96043809Y-142898761D01*
X95900952Y-142946380D01*
X95805714Y-142946380D01*
X97091428Y-141946380D02*
X96900952Y-141946380D01*
X96805714Y-141994000D01*
X96758095Y-142041619D01*
X96662857Y-142184476D01*
X96615238Y-142374952D01*
X96615238Y-142755904D01*
X96662857Y-142851142D01*
X96710476Y-142898761D01*
X96805714Y-142946380D01*
X96996190Y-142946380D01*
X97091428Y-142898761D01*
X97139047Y-142851142D01*
X97186666Y-142755904D01*
X97186666Y-142517809D01*
X97139047Y-142422571D01*
X97091428Y-142374952D01*
X96996190Y-142327333D01*
X96805714Y-142327333D01*
X96710476Y-142374952D01*
X96662857Y-142422571D01*
X96615238Y-142517809D01*
%TO.C,J7*%
X185844380Y-127841333D02*
X186558666Y-127841333D01*
X186701523Y-127888952D01*
X186796761Y-127984190D01*
X186844380Y-128127047D01*
X186844380Y-128222285D01*
X185844380Y-127460380D02*
X185844380Y-126793714D01*
X186844380Y-127222285D01*
%TO.C,J8*%
X149268380Y-145621333D02*
X149982666Y-145621333D01*
X150125523Y-145668952D01*
X150220761Y-145764190D01*
X150268380Y-145907047D01*
X150268380Y-146002285D01*
X149696952Y-145002285D02*
X149649333Y-145097523D01*
X149601714Y-145145142D01*
X149506476Y-145192761D01*
X149458857Y-145192761D01*
X149363619Y-145145142D01*
X149316000Y-145097523D01*
X149268380Y-145002285D01*
X149268380Y-144811809D01*
X149316000Y-144716571D01*
X149363619Y-144668952D01*
X149458857Y-144621333D01*
X149506476Y-144621333D01*
X149601714Y-144668952D01*
X149649333Y-144716571D01*
X149696952Y-144811809D01*
X149696952Y-145002285D01*
X149744571Y-145097523D01*
X149792190Y-145145142D01*
X149887428Y-145192761D01*
X150077904Y-145192761D01*
X150173142Y-145145142D01*
X150220761Y-145097523D01*
X150268380Y-145002285D01*
X150268380Y-144811809D01*
X150220761Y-144716571D01*
X150173142Y-144668952D01*
X150077904Y-144621333D01*
X149887428Y-144621333D01*
X149792190Y-144668952D01*
X149744571Y-144716571D01*
X149696952Y-144811809D01*
%TO.C,R25*%
X101840380Y-140596857D02*
X101364190Y-140930190D01*
X101840380Y-141168285D02*
X100840380Y-141168285D01*
X100840380Y-140787333D01*
X100888000Y-140692095D01*
X100935619Y-140644476D01*
X101030857Y-140596857D01*
X101173714Y-140596857D01*
X101268952Y-140644476D01*
X101316571Y-140692095D01*
X101364190Y-140787333D01*
X101364190Y-141168285D01*
X100935619Y-140215904D02*
X100888000Y-140168285D01*
X100840380Y-140073047D01*
X100840380Y-139834952D01*
X100888000Y-139739714D01*
X100935619Y-139692095D01*
X101030857Y-139644476D01*
X101126095Y-139644476D01*
X101268952Y-139692095D01*
X101840380Y-140263523D01*
X101840380Y-139644476D01*
X100840380Y-138739714D02*
X100840380Y-139215904D01*
X101316571Y-139263523D01*
X101268952Y-139215904D01*
X101221333Y-139120666D01*
X101221333Y-138882571D01*
X101268952Y-138787333D01*
X101316571Y-138739714D01*
X101411809Y-138692095D01*
X101649904Y-138692095D01*
X101745142Y-138739714D01*
X101792761Y-138787333D01*
X101840380Y-138882571D01*
X101840380Y-139120666D01*
X101792761Y-139215904D01*
X101745142Y-139263523D01*
%TO.C,R27*%
X151370380Y-144406857D02*
X150894190Y-144740190D01*
X151370380Y-144978285D02*
X150370380Y-144978285D01*
X150370380Y-144597333D01*
X150418000Y-144502095D01*
X150465619Y-144454476D01*
X150560857Y-144406857D01*
X150703714Y-144406857D01*
X150798952Y-144454476D01*
X150846571Y-144502095D01*
X150894190Y-144597333D01*
X150894190Y-144978285D01*
X150465619Y-144025904D02*
X150418000Y-143978285D01*
X150370380Y-143883047D01*
X150370380Y-143644952D01*
X150418000Y-143549714D01*
X150465619Y-143502095D01*
X150560857Y-143454476D01*
X150656095Y-143454476D01*
X150798952Y-143502095D01*
X151370380Y-144073523D01*
X151370380Y-143454476D01*
X150370380Y-143121142D02*
X150370380Y-142454476D01*
X151370380Y-142883047D01*
%TD*%
M02*
