%TF.GenerationSoftware,KiCad,Pcbnew,(5.1.0)-1*%
%TF.CreationDate,2022-07-09T20:49:55+03:00*%
%TF.ProjectId,octaver,6f637461-7665-4722-9e6b-696361645f70,rev?*%
%TF.SameCoordinates,Original*%
%TF.FileFunction,Legend,Bot*%
%TF.FilePolarity,Positive*%
%FSLAX46Y46*%
G04 Gerber Fmt 4.6, Leading zero omitted, Abs format (unit mm)*
G04 Created by KiCad (PCBNEW (5.1.0)-1) date 2022-07-09 20:49:55*
%MOMM*%
%LPD*%
G04 APERTURE LIST*
%ADD10C,0.120000*%
%ADD11C,0.200000*%
%ADD12C,0.150000*%
%ADD13C,0.254000*%
G04 APERTURE END LIST*
D10*
%TO.C,C20*%
X186849936Y-121518000D02*
X188054064Y-121518000D01*
X186849936Y-123338000D02*
X188054064Y-123338000D01*
%TO.C,U7*%
X189774000Y-113938000D02*
X183764000Y-113938000D01*
X187524000Y-120758000D02*
X183764000Y-120758000D01*
X183764000Y-113938000D02*
X183764000Y-115198000D01*
X183764000Y-120758000D02*
X183764000Y-119498000D01*
D11*
%TO.C,IC1*%
X146228000Y-91350000D02*
X149428000Y-91350000D01*
X149428000Y-91350000D02*
X149428000Y-86450000D01*
X149428000Y-86450000D02*
X146228000Y-86450000D01*
X146228000Y-86450000D02*
X146228000Y-91350000D01*
X144353000Y-91505000D02*
X145878000Y-91505000D01*
D10*
%TO.C,TP3*%
X169993000Y-117542000D02*
X172653000Y-117542000D01*
X169993000Y-117602000D02*
X169993000Y-117542000D01*
X172653000Y-117602000D02*
X172653000Y-117542000D01*
X169993000Y-117602000D02*
X172653000Y-117602000D01*
X169993000Y-118872000D02*
X169993000Y-120202000D01*
X169993000Y-120202000D02*
X171323000Y-120202000D01*
%TO.C,C25*%
X106736000Y-141010000D02*
G75*
G03X106736000Y-141010000I-4120000J0D01*
G01*
X106696000Y-141010000D02*
X98536000Y-141010000D01*
X106696000Y-140970000D02*
X98536000Y-140970000D01*
X106696000Y-140930000D02*
X98536000Y-140930000D01*
X106695000Y-140890000D02*
X98537000Y-140890000D01*
X106693000Y-140850000D02*
X98539000Y-140850000D01*
X106692000Y-140810000D02*
X98540000Y-140810000D01*
X106690000Y-140770000D02*
X98542000Y-140770000D01*
X106687000Y-140730000D02*
X98545000Y-140730000D01*
X106684000Y-140690000D02*
X98548000Y-140690000D01*
X106681000Y-140650000D02*
X98551000Y-140650000D01*
X106677000Y-140610000D02*
X98555000Y-140610000D01*
X106673000Y-140570000D02*
X98559000Y-140570000D01*
X106668000Y-140530000D02*
X98564000Y-140530000D01*
X106664000Y-140490000D02*
X98568000Y-140490000D01*
X106658000Y-140450000D02*
X98574000Y-140450000D01*
X106653000Y-140410000D02*
X98579000Y-140410000D01*
X106646000Y-140370000D02*
X98586000Y-140370000D01*
X106640000Y-140330000D02*
X98592000Y-140330000D01*
X106633000Y-140289000D02*
X98599000Y-140289000D01*
X106626000Y-140249000D02*
X98606000Y-140249000D01*
X106618000Y-140209000D02*
X98614000Y-140209000D01*
X106610000Y-140169000D02*
X98622000Y-140169000D01*
X106601000Y-140129000D02*
X98631000Y-140129000D01*
X106592000Y-140089000D02*
X98640000Y-140089000D01*
X106583000Y-140049000D02*
X98649000Y-140049000D01*
X106573000Y-140009000D02*
X98659000Y-140009000D01*
X106563000Y-139969000D02*
X98669000Y-139969000D01*
X106552000Y-139929000D02*
X98680000Y-139929000D01*
X106541000Y-139889000D02*
X98691000Y-139889000D01*
X106530000Y-139849000D02*
X98702000Y-139849000D01*
X106518000Y-139809000D02*
X98714000Y-139809000D01*
X106505000Y-139769000D02*
X98727000Y-139769000D01*
X106493000Y-139729000D02*
X98739000Y-139729000D01*
X106479000Y-139689000D02*
X98753000Y-139689000D01*
X106466000Y-139649000D02*
X98766000Y-139649000D01*
X106451000Y-139609000D02*
X98781000Y-139609000D01*
X106437000Y-139569000D02*
X98795000Y-139569000D01*
X106421000Y-139529000D02*
X103656000Y-139529000D01*
X101576000Y-139529000D02*
X98811000Y-139529000D01*
X106406000Y-139489000D02*
X103656000Y-139489000D01*
X101576000Y-139489000D02*
X98826000Y-139489000D01*
X106390000Y-139449000D02*
X103656000Y-139449000D01*
X101576000Y-139449000D02*
X98842000Y-139449000D01*
X106373000Y-139409000D02*
X103656000Y-139409000D01*
X101576000Y-139409000D02*
X98859000Y-139409000D01*
X106356000Y-139369000D02*
X103656000Y-139369000D01*
X101576000Y-139369000D02*
X98876000Y-139369000D01*
X106338000Y-139329000D02*
X103656000Y-139329000D01*
X101576000Y-139329000D02*
X98894000Y-139329000D01*
X106320000Y-139289000D02*
X103656000Y-139289000D01*
X101576000Y-139289000D02*
X98912000Y-139289000D01*
X106302000Y-139249000D02*
X103656000Y-139249000D01*
X101576000Y-139249000D02*
X98930000Y-139249000D01*
X106282000Y-139209000D02*
X103656000Y-139209000D01*
X101576000Y-139209000D02*
X98950000Y-139209000D01*
X106263000Y-139169000D02*
X103656000Y-139169000D01*
X101576000Y-139169000D02*
X98969000Y-139169000D01*
X106243000Y-139129000D02*
X103656000Y-139129000D01*
X101576000Y-139129000D02*
X98989000Y-139129000D01*
X106222000Y-139089000D02*
X103656000Y-139089000D01*
X101576000Y-139089000D02*
X99010000Y-139089000D01*
X106200000Y-139049000D02*
X103656000Y-139049000D01*
X101576000Y-139049000D02*
X99032000Y-139049000D01*
X106178000Y-139009000D02*
X103656000Y-139009000D01*
X101576000Y-139009000D02*
X99054000Y-139009000D01*
X106156000Y-138969000D02*
X103656000Y-138969000D01*
X101576000Y-138969000D02*
X99076000Y-138969000D01*
X106133000Y-138929000D02*
X103656000Y-138929000D01*
X101576000Y-138929000D02*
X99099000Y-138929000D01*
X106109000Y-138889000D02*
X103656000Y-138889000D01*
X101576000Y-138889000D02*
X99123000Y-138889000D01*
X106085000Y-138849000D02*
X103656000Y-138849000D01*
X101576000Y-138849000D02*
X99147000Y-138849000D01*
X106060000Y-138809000D02*
X103656000Y-138809000D01*
X101576000Y-138809000D02*
X99172000Y-138809000D01*
X106034000Y-138769000D02*
X103656000Y-138769000D01*
X101576000Y-138769000D02*
X99198000Y-138769000D01*
X106008000Y-138729000D02*
X103656000Y-138729000D01*
X101576000Y-138729000D02*
X99224000Y-138729000D01*
X105981000Y-138689000D02*
X103656000Y-138689000D01*
X101576000Y-138689000D02*
X99251000Y-138689000D01*
X105954000Y-138649000D02*
X103656000Y-138649000D01*
X101576000Y-138649000D02*
X99278000Y-138649000D01*
X105925000Y-138609000D02*
X103656000Y-138609000D01*
X101576000Y-138609000D02*
X99307000Y-138609000D01*
X105896000Y-138569000D02*
X103656000Y-138569000D01*
X101576000Y-138569000D02*
X99336000Y-138569000D01*
X105866000Y-138529000D02*
X103656000Y-138529000D01*
X101576000Y-138529000D02*
X99366000Y-138529000D01*
X105836000Y-138489000D02*
X103656000Y-138489000D01*
X101576000Y-138489000D02*
X99396000Y-138489000D01*
X105805000Y-138449000D02*
X103656000Y-138449000D01*
X101576000Y-138449000D02*
X99427000Y-138449000D01*
X105772000Y-138409000D02*
X103656000Y-138409000D01*
X101576000Y-138409000D02*
X99460000Y-138409000D01*
X105740000Y-138369000D02*
X103656000Y-138369000D01*
X101576000Y-138369000D02*
X99492000Y-138369000D01*
X105706000Y-138329000D02*
X103656000Y-138329000D01*
X101576000Y-138329000D02*
X99526000Y-138329000D01*
X105671000Y-138289000D02*
X103656000Y-138289000D01*
X101576000Y-138289000D02*
X99561000Y-138289000D01*
X105635000Y-138249000D02*
X103656000Y-138249000D01*
X101576000Y-138249000D02*
X99597000Y-138249000D01*
X105599000Y-138209000D02*
X103656000Y-138209000D01*
X101576000Y-138209000D02*
X99633000Y-138209000D01*
X105561000Y-138169000D02*
X103656000Y-138169000D01*
X101576000Y-138169000D02*
X99671000Y-138169000D01*
X105523000Y-138129000D02*
X103656000Y-138129000D01*
X101576000Y-138129000D02*
X99709000Y-138129000D01*
X105483000Y-138089000D02*
X103656000Y-138089000D01*
X101576000Y-138089000D02*
X99749000Y-138089000D01*
X105442000Y-138049000D02*
X103656000Y-138049000D01*
X101576000Y-138049000D02*
X99790000Y-138049000D01*
X105400000Y-138009000D02*
X103656000Y-138009000D01*
X101576000Y-138009000D02*
X99832000Y-138009000D01*
X105357000Y-137969000D02*
X103656000Y-137969000D01*
X101576000Y-137969000D02*
X99875000Y-137969000D01*
X105313000Y-137929000D02*
X103656000Y-137929000D01*
X101576000Y-137929000D02*
X99919000Y-137929000D01*
X105267000Y-137889000D02*
X103656000Y-137889000D01*
X101576000Y-137889000D02*
X99965000Y-137889000D01*
X105220000Y-137849000D02*
X103656000Y-137849000D01*
X101576000Y-137849000D02*
X100012000Y-137849000D01*
X105172000Y-137809000D02*
X103656000Y-137809000D01*
X101576000Y-137809000D02*
X100060000Y-137809000D01*
X105121000Y-137769000D02*
X103656000Y-137769000D01*
X101576000Y-137769000D02*
X100111000Y-137769000D01*
X105070000Y-137729000D02*
X103656000Y-137729000D01*
X101576000Y-137729000D02*
X100162000Y-137729000D01*
X105016000Y-137689000D02*
X103656000Y-137689000D01*
X101576000Y-137689000D02*
X100216000Y-137689000D01*
X104961000Y-137649000D02*
X103656000Y-137649000D01*
X101576000Y-137649000D02*
X100271000Y-137649000D01*
X104903000Y-137609000D02*
X103656000Y-137609000D01*
X101576000Y-137609000D02*
X100329000Y-137609000D01*
X104844000Y-137569000D02*
X103656000Y-137569000D01*
X101576000Y-137569000D02*
X100388000Y-137569000D01*
X104782000Y-137529000D02*
X103656000Y-137529000D01*
X101576000Y-137529000D02*
X100450000Y-137529000D01*
X104718000Y-137489000D02*
X103656000Y-137489000D01*
X101576000Y-137489000D02*
X100514000Y-137489000D01*
X104650000Y-137449000D02*
X100582000Y-137449000D01*
X104580000Y-137409000D02*
X100652000Y-137409000D01*
X104506000Y-137369000D02*
X100726000Y-137369000D01*
X104429000Y-137329000D02*
X100803000Y-137329000D01*
X104347000Y-137289000D02*
X100885000Y-137289000D01*
X104261000Y-137249000D02*
X100971000Y-137249000D01*
X104168000Y-137209000D02*
X101064000Y-137209000D01*
X104069000Y-137169000D02*
X101163000Y-137169000D01*
X103962000Y-137129000D02*
X101270000Y-137129000D01*
X103845000Y-137089000D02*
X101387000Y-137089000D01*
X103714000Y-137049000D02*
X101518000Y-137049000D01*
X103564000Y-137009000D02*
X101668000Y-137009000D01*
X103384000Y-136969000D02*
X101848000Y-136969000D01*
X103149000Y-136929000D02*
X102083000Y-136929000D01*
X104931000Y-145419698D02*
X104931000Y-144619698D01*
X105331000Y-145019698D02*
X104531000Y-145019698D01*
%TO.C,C26*%
X123111000Y-145019698D02*
X122311000Y-145019698D01*
X122711000Y-145419698D02*
X122711000Y-144619698D01*
X120929000Y-136929000D02*
X119863000Y-136929000D01*
X121164000Y-136969000D02*
X119628000Y-136969000D01*
X121344000Y-137009000D02*
X119448000Y-137009000D01*
X121494000Y-137049000D02*
X119298000Y-137049000D01*
X121625000Y-137089000D02*
X119167000Y-137089000D01*
X121742000Y-137129000D02*
X119050000Y-137129000D01*
X121849000Y-137169000D02*
X118943000Y-137169000D01*
X121948000Y-137209000D02*
X118844000Y-137209000D01*
X122041000Y-137249000D02*
X118751000Y-137249000D01*
X122127000Y-137289000D02*
X118665000Y-137289000D01*
X122209000Y-137329000D02*
X118583000Y-137329000D01*
X122286000Y-137369000D02*
X118506000Y-137369000D01*
X122360000Y-137409000D02*
X118432000Y-137409000D01*
X122430000Y-137449000D02*
X118362000Y-137449000D01*
X119356000Y-137489000D02*
X118294000Y-137489000D01*
X122498000Y-137489000D02*
X121436000Y-137489000D01*
X119356000Y-137529000D02*
X118230000Y-137529000D01*
X122562000Y-137529000D02*
X121436000Y-137529000D01*
X119356000Y-137569000D02*
X118168000Y-137569000D01*
X122624000Y-137569000D02*
X121436000Y-137569000D01*
X119356000Y-137609000D02*
X118109000Y-137609000D01*
X122683000Y-137609000D02*
X121436000Y-137609000D01*
X119356000Y-137649000D02*
X118051000Y-137649000D01*
X122741000Y-137649000D02*
X121436000Y-137649000D01*
X119356000Y-137689000D02*
X117996000Y-137689000D01*
X122796000Y-137689000D02*
X121436000Y-137689000D01*
X119356000Y-137729000D02*
X117942000Y-137729000D01*
X122850000Y-137729000D02*
X121436000Y-137729000D01*
X119356000Y-137769000D02*
X117891000Y-137769000D01*
X122901000Y-137769000D02*
X121436000Y-137769000D01*
X119356000Y-137809000D02*
X117840000Y-137809000D01*
X122952000Y-137809000D02*
X121436000Y-137809000D01*
X119356000Y-137849000D02*
X117792000Y-137849000D01*
X123000000Y-137849000D02*
X121436000Y-137849000D01*
X119356000Y-137889000D02*
X117745000Y-137889000D01*
X123047000Y-137889000D02*
X121436000Y-137889000D01*
X119356000Y-137929000D02*
X117699000Y-137929000D01*
X123093000Y-137929000D02*
X121436000Y-137929000D01*
X119356000Y-137969000D02*
X117655000Y-137969000D01*
X123137000Y-137969000D02*
X121436000Y-137969000D01*
X119356000Y-138009000D02*
X117612000Y-138009000D01*
X123180000Y-138009000D02*
X121436000Y-138009000D01*
X119356000Y-138049000D02*
X117570000Y-138049000D01*
X123222000Y-138049000D02*
X121436000Y-138049000D01*
X119356000Y-138089000D02*
X117529000Y-138089000D01*
X123263000Y-138089000D02*
X121436000Y-138089000D01*
X119356000Y-138129000D02*
X117489000Y-138129000D01*
X123303000Y-138129000D02*
X121436000Y-138129000D01*
X119356000Y-138169000D02*
X117451000Y-138169000D01*
X123341000Y-138169000D02*
X121436000Y-138169000D01*
X119356000Y-138209000D02*
X117413000Y-138209000D01*
X123379000Y-138209000D02*
X121436000Y-138209000D01*
X119356000Y-138249000D02*
X117377000Y-138249000D01*
X123415000Y-138249000D02*
X121436000Y-138249000D01*
X119356000Y-138289000D02*
X117341000Y-138289000D01*
X123451000Y-138289000D02*
X121436000Y-138289000D01*
X119356000Y-138329000D02*
X117306000Y-138329000D01*
X123486000Y-138329000D02*
X121436000Y-138329000D01*
X119356000Y-138369000D02*
X117272000Y-138369000D01*
X123520000Y-138369000D02*
X121436000Y-138369000D01*
X119356000Y-138409000D02*
X117240000Y-138409000D01*
X123552000Y-138409000D02*
X121436000Y-138409000D01*
X119356000Y-138449000D02*
X117207000Y-138449000D01*
X123585000Y-138449000D02*
X121436000Y-138449000D01*
X119356000Y-138489000D02*
X117176000Y-138489000D01*
X123616000Y-138489000D02*
X121436000Y-138489000D01*
X119356000Y-138529000D02*
X117146000Y-138529000D01*
X123646000Y-138529000D02*
X121436000Y-138529000D01*
X119356000Y-138569000D02*
X117116000Y-138569000D01*
X123676000Y-138569000D02*
X121436000Y-138569000D01*
X119356000Y-138609000D02*
X117087000Y-138609000D01*
X123705000Y-138609000D02*
X121436000Y-138609000D01*
X119356000Y-138649000D02*
X117058000Y-138649000D01*
X123734000Y-138649000D02*
X121436000Y-138649000D01*
X119356000Y-138689000D02*
X117031000Y-138689000D01*
X123761000Y-138689000D02*
X121436000Y-138689000D01*
X119356000Y-138729000D02*
X117004000Y-138729000D01*
X123788000Y-138729000D02*
X121436000Y-138729000D01*
X119356000Y-138769000D02*
X116978000Y-138769000D01*
X123814000Y-138769000D02*
X121436000Y-138769000D01*
X119356000Y-138809000D02*
X116952000Y-138809000D01*
X123840000Y-138809000D02*
X121436000Y-138809000D01*
X119356000Y-138849000D02*
X116927000Y-138849000D01*
X123865000Y-138849000D02*
X121436000Y-138849000D01*
X119356000Y-138889000D02*
X116903000Y-138889000D01*
X123889000Y-138889000D02*
X121436000Y-138889000D01*
X119356000Y-138929000D02*
X116879000Y-138929000D01*
X123913000Y-138929000D02*
X121436000Y-138929000D01*
X119356000Y-138969000D02*
X116856000Y-138969000D01*
X123936000Y-138969000D02*
X121436000Y-138969000D01*
X119356000Y-139009000D02*
X116834000Y-139009000D01*
X123958000Y-139009000D02*
X121436000Y-139009000D01*
X119356000Y-139049000D02*
X116812000Y-139049000D01*
X123980000Y-139049000D02*
X121436000Y-139049000D01*
X119356000Y-139089000D02*
X116790000Y-139089000D01*
X124002000Y-139089000D02*
X121436000Y-139089000D01*
X119356000Y-139129000D02*
X116769000Y-139129000D01*
X124023000Y-139129000D02*
X121436000Y-139129000D01*
X119356000Y-139169000D02*
X116749000Y-139169000D01*
X124043000Y-139169000D02*
X121436000Y-139169000D01*
X119356000Y-139209000D02*
X116730000Y-139209000D01*
X124062000Y-139209000D02*
X121436000Y-139209000D01*
X119356000Y-139249000D02*
X116710000Y-139249000D01*
X124082000Y-139249000D02*
X121436000Y-139249000D01*
X119356000Y-139289000D02*
X116692000Y-139289000D01*
X124100000Y-139289000D02*
X121436000Y-139289000D01*
X119356000Y-139329000D02*
X116674000Y-139329000D01*
X124118000Y-139329000D02*
X121436000Y-139329000D01*
X119356000Y-139369000D02*
X116656000Y-139369000D01*
X124136000Y-139369000D02*
X121436000Y-139369000D01*
X119356000Y-139409000D02*
X116639000Y-139409000D01*
X124153000Y-139409000D02*
X121436000Y-139409000D01*
X119356000Y-139449000D02*
X116622000Y-139449000D01*
X124170000Y-139449000D02*
X121436000Y-139449000D01*
X119356000Y-139489000D02*
X116606000Y-139489000D01*
X124186000Y-139489000D02*
X121436000Y-139489000D01*
X119356000Y-139529000D02*
X116591000Y-139529000D01*
X124201000Y-139529000D02*
X121436000Y-139529000D01*
X124217000Y-139569000D02*
X116575000Y-139569000D01*
X124231000Y-139609000D02*
X116561000Y-139609000D01*
X124246000Y-139649000D02*
X116546000Y-139649000D01*
X124259000Y-139689000D02*
X116533000Y-139689000D01*
X124273000Y-139729000D02*
X116519000Y-139729000D01*
X124285000Y-139769000D02*
X116507000Y-139769000D01*
X124298000Y-139809000D02*
X116494000Y-139809000D01*
X124310000Y-139849000D02*
X116482000Y-139849000D01*
X124321000Y-139889000D02*
X116471000Y-139889000D01*
X124332000Y-139929000D02*
X116460000Y-139929000D01*
X124343000Y-139969000D02*
X116449000Y-139969000D01*
X124353000Y-140009000D02*
X116439000Y-140009000D01*
X124363000Y-140049000D02*
X116429000Y-140049000D01*
X124372000Y-140089000D02*
X116420000Y-140089000D01*
X124381000Y-140129000D02*
X116411000Y-140129000D01*
X124390000Y-140169000D02*
X116402000Y-140169000D01*
X124398000Y-140209000D02*
X116394000Y-140209000D01*
X124406000Y-140249000D02*
X116386000Y-140249000D01*
X124413000Y-140289000D02*
X116379000Y-140289000D01*
X124420000Y-140330000D02*
X116372000Y-140330000D01*
X124426000Y-140370000D02*
X116366000Y-140370000D01*
X124433000Y-140410000D02*
X116359000Y-140410000D01*
X124438000Y-140450000D02*
X116354000Y-140450000D01*
X124444000Y-140490000D02*
X116348000Y-140490000D01*
X124448000Y-140530000D02*
X116344000Y-140530000D01*
X124453000Y-140570000D02*
X116339000Y-140570000D01*
X124457000Y-140610000D02*
X116335000Y-140610000D01*
X124461000Y-140650000D02*
X116331000Y-140650000D01*
X124464000Y-140690000D02*
X116328000Y-140690000D01*
X124467000Y-140730000D02*
X116325000Y-140730000D01*
X124470000Y-140770000D02*
X116322000Y-140770000D01*
X124472000Y-140810000D02*
X116320000Y-140810000D01*
X124473000Y-140850000D02*
X116319000Y-140850000D01*
X124475000Y-140890000D02*
X116317000Y-140890000D01*
X124476000Y-140930000D02*
X116316000Y-140930000D01*
X124476000Y-140970000D02*
X116316000Y-140970000D01*
X124476000Y-141010000D02*
X116316000Y-141010000D01*
X124516000Y-141010000D02*
G75*
G03X124516000Y-141010000I-4120000J0D01*
G01*
%TO.C,C27*%
X115626000Y-141010000D02*
G75*
G03X115626000Y-141010000I-4120000J0D01*
G01*
X115586000Y-141010000D02*
X107426000Y-141010000D01*
X115586000Y-140970000D02*
X107426000Y-140970000D01*
X115586000Y-140930000D02*
X107426000Y-140930000D01*
X115585000Y-140890000D02*
X107427000Y-140890000D01*
X115583000Y-140850000D02*
X107429000Y-140850000D01*
X115582000Y-140810000D02*
X107430000Y-140810000D01*
X115580000Y-140770000D02*
X107432000Y-140770000D01*
X115577000Y-140730000D02*
X107435000Y-140730000D01*
X115574000Y-140690000D02*
X107438000Y-140690000D01*
X115571000Y-140650000D02*
X107441000Y-140650000D01*
X115567000Y-140610000D02*
X107445000Y-140610000D01*
X115563000Y-140570000D02*
X107449000Y-140570000D01*
X115558000Y-140530000D02*
X107454000Y-140530000D01*
X115554000Y-140490000D02*
X107458000Y-140490000D01*
X115548000Y-140450000D02*
X107464000Y-140450000D01*
X115543000Y-140410000D02*
X107469000Y-140410000D01*
X115536000Y-140370000D02*
X107476000Y-140370000D01*
X115530000Y-140330000D02*
X107482000Y-140330000D01*
X115523000Y-140289000D02*
X107489000Y-140289000D01*
X115516000Y-140249000D02*
X107496000Y-140249000D01*
X115508000Y-140209000D02*
X107504000Y-140209000D01*
X115500000Y-140169000D02*
X107512000Y-140169000D01*
X115491000Y-140129000D02*
X107521000Y-140129000D01*
X115482000Y-140089000D02*
X107530000Y-140089000D01*
X115473000Y-140049000D02*
X107539000Y-140049000D01*
X115463000Y-140009000D02*
X107549000Y-140009000D01*
X115453000Y-139969000D02*
X107559000Y-139969000D01*
X115442000Y-139929000D02*
X107570000Y-139929000D01*
X115431000Y-139889000D02*
X107581000Y-139889000D01*
X115420000Y-139849000D02*
X107592000Y-139849000D01*
X115408000Y-139809000D02*
X107604000Y-139809000D01*
X115395000Y-139769000D02*
X107617000Y-139769000D01*
X115383000Y-139729000D02*
X107629000Y-139729000D01*
X115369000Y-139689000D02*
X107643000Y-139689000D01*
X115356000Y-139649000D02*
X107656000Y-139649000D01*
X115341000Y-139609000D02*
X107671000Y-139609000D01*
X115327000Y-139569000D02*
X107685000Y-139569000D01*
X115311000Y-139529000D02*
X112546000Y-139529000D01*
X110466000Y-139529000D02*
X107701000Y-139529000D01*
X115296000Y-139489000D02*
X112546000Y-139489000D01*
X110466000Y-139489000D02*
X107716000Y-139489000D01*
X115280000Y-139449000D02*
X112546000Y-139449000D01*
X110466000Y-139449000D02*
X107732000Y-139449000D01*
X115263000Y-139409000D02*
X112546000Y-139409000D01*
X110466000Y-139409000D02*
X107749000Y-139409000D01*
X115246000Y-139369000D02*
X112546000Y-139369000D01*
X110466000Y-139369000D02*
X107766000Y-139369000D01*
X115228000Y-139329000D02*
X112546000Y-139329000D01*
X110466000Y-139329000D02*
X107784000Y-139329000D01*
X115210000Y-139289000D02*
X112546000Y-139289000D01*
X110466000Y-139289000D02*
X107802000Y-139289000D01*
X115192000Y-139249000D02*
X112546000Y-139249000D01*
X110466000Y-139249000D02*
X107820000Y-139249000D01*
X115172000Y-139209000D02*
X112546000Y-139209000D01*
X110466000Y-139209000D02*
X107840000Y-139209000D01*
X115153000Y-139169000D02*
X112546000Y-139169000D01*
X110466000Y-139169000D02*
X107859000Y-139169000D01*
X115133000Y-139129000D02*
X112546000Y-139129000D01*
X110466000Y-139129000D02*
X107879000Y-139129000D01*
X115112000Y-139089000D02*
X112546000Y-139089000D01*
X110466000Y-139089000D02*
X107900000Y-139089000D01*
X115090000Y-139049000D02*
X112546000Y-139049000D01*
X110466000Y-139049000D02*
X107922000Y-139049000D01*
X115068000Y-139009000D02*
X112546000Y-139009000D01*
X110466000Y-139009000D02*
X107944000Y-139009000D01*
X115046000Y-138969000D02*
X112546000Y-138969000D01*
X110466000Y-138969000D02*
X107966000Y-138969000D01*
X115023000Y-138929000D02*
X112546000Y-138929000D01*
X110466000Y-138929000D02*
X107989000Y-138929000D01*
X114999000Y-138889000D02*
X112546000Y-138889000D01*
X110466000Y-138889000D02*
X108013000Y-138889000D01*
X114975000Y-138849000D02*
X112546000Y-138849000D01*
X110466000Y-138849000D02*
X108037000Y-138849000D01*
X114950000Y-138809000D02*
X112546000Y-138809000D01*
X110466000Y-138809000D02*
X108062000Y-138809000D01*
X114924000Y-138769000D02*
X112546000Y-138769000D01*
X110466000Y-138769000D02*
X108088000Y-138769000D01*
X114898000Y-138729000D02*
X112546000Y-138729000D01*
X110466000Y-138729000D02*
X108114000Y-138729000D01*
X114871000Y-138689000D02*
X112546000Y-138689000D01*
X110466000Y-138689000D02*
X108141000Y-138689000D01*
X114844000Y-138649000D02*
X112546000Y-138649000D01*
X110466000Y-138649000D02*
X108168000Y-138649000D01*
X114815000Y-138609000D02*
X112546000Y-138609000D01*
X110466000Y-138609000D02*
X108197000Y-138609000D01*
X114786000Y-138569000D02*
X112546000Y-138569000D01*
X110466000Y-138569000D02*
X108226000Y-138569000D01*
X114756000Y-138529000D02*
X112546000Y-138529000D01*
X110466000Y-138529000D02*
X108256000Y-138529000D01*
X114726000Y-138489000D02*
X112546000Y-138489000D01*
X110466000Y-138489000D02*
X108286000Y-138489000D01*
X114695000Y-138449000D02*
X112546000Y-138449000D01*
X110466000Y-138449000D02*
X108317000Y-138449000D01*
X114662000Y-138409000D02*
X112546000Y-138409000D01*
X110466000Y-138409000D02*
X108350000Y-138409000D01*
X114630000Y-138369000D02*
X112546000Y-138369000D01*
X110466000Y-138369000D02*
X108382000Y-138369000D01*
X114596000Y-138329000D02*
X112546000Y-138329000D01*
X110466000Y-138329000D02*
X108416000Y-138329000D01*
X114561000Y-138289000D02*
X112546000Y-138289000D01*
X110466000Y-138289000D02*
X108451000Y-138289000D01*
X114525000Y-138249000D02*
X112546000Y-138249000D01*
X110466000Y-138249000D02*
X108487000Y-138249000D01*
X114489000Y-138209000D02*
X112546000Y-138209000D01*
X110466000Y-138209000D02*
X108523000Y-138209000D01*
X114451000Y-138169000D02*
X112546000Y-138169000D01*
X110466000Y-138169000D02*
X108561000Y-138169000D01*
X114413000Y-138129000D02*
X112546000Y-138129000D01*
X110466000Y-138129000D02*
X108599000Y-138129000D01*
X114373000Y-138089000D02*
X112546000Y-138089000D01*
X110466000Y-138089000D02*
X108639000Y-138089000D01*
X114332000Y-138049000D02*
X112546000Y-138049000D01*
X110466000Y-138049000D02*
X108680000Y-138049000D01*
X114290000Y-138009000D02*
X112546000Y-138009000D01*
X110466000Y-138009000D02*
X108722000Y-138009000D01*
X114247000Y-137969000D02*
X112546000Y-137969000D01*
X110466000Y-137969000D02*
X108765000Y-137969000D01*
X114203000Y-137929000D02*
X112546000Y-137929000D01*
X110466000Y-137929000D02*
X108809000Y-137929000D01*
X114157000Y-137889000D02*
X112546000Y-137889000D01*
X110466000Y-137889000D02*
X108855000Y-137889000D01*
X114110000Y-137849000D02*
X112546000Y-137849000D01*
X110466000Y-137849000D02*
X108902000Y-137849000D01*
X114062000Y-137809000D02*
X112546000Y-137809000D01*
X110466000Y-137809000D02*
X108950000Y-137809000D01*
X114011000Y-137769000D02*
X112546000Y-137769000D01*
X110466000Y-137769000D02*
X109001000Y-137769000D01*
X113960000Y-137729000D02*
X112546000Y-137729000D01*
X110466000Y-137729000D02*
X109052000Y-137729000D01*
X113906000Y-137689000D02*
X112546000Y-137689000D01*
X110466000Y-137689000D02*
X109106000Y-137689000D01*
X113851000Y-137649000D02*
X112546000Y-137649000D01*
X110466000Y-137649000D02*
X109161000Y-137649000D01*
X113793000Y-137609000D02*
X112546000Y-137609000D01*
X110466000Y-137609000D02*
X109219000Y-137609000D01*
X113734000Y-137569000D02*
X112546000Y-137569000D01*
X110466000Y-137569000D02*
X109278000Y-137569000D01*
X113672000Y-137529000D02*
X112546000Y-137529000D01*
X110466000Y-137529000D02*
X109340000Y-137529000D01*
X113608000Y-137489000D02*
X112546000Y-137489000D01*
X110466000Y-137489000D02*
X109404000Y-137489000D01*
X113540000Y-137449000D02*
X109472000Y-137449000D01*
X113470000Y-137409000D02*
X109542000Y-137409000D01*
X113396000Y-137369000D02*
X109616000Y-137369000D01*
X113319000Y-137329000D02*
X109693000Y-137329000D01*
X113237000Y-137289000D02*
X109775000Y-137289000D01*
X113151000Y-137249000D02*
X109861000Y-137249000D01*
X113058000Y-137209000D02*
X109954000Y-137209000D01*
X112959000Y-137169000D02*
X110053000Y-137169000D01*
X112852000Y-137129000D02*
X110160000Y-137129000D01*
X112735000Y-137089000D02*
X110277000Y-137089000D01*
X112604000Y-137049000D02*
X110408000Y-137049000D01*
X112454000Y-137009000D02*
X110558000Y-137009000D01*
X112274000Y-136969000D02*
X110738000Y-136969000D01*
X112039000Y-136929000D02*
X110973000Y-136929000D01*
X113821000Y-145419698D02*
X113821000Y-144619698D01*
X114221000Y-145019698D02*
X113421000Y-145019698D01*
%TO.C,C12*%
X112474000Y-88787302D02*
X113274000Y-88787302D01*
X112874000Y-88387302D02*
X112874000Y-89187302D01*
X114656000Y-96878000D02*
X115722000Y-96878000D01*
X114421000Y-96838000D02*
X115957000Y-96838000D01*
X114241000Y-96798000D02*
X116137000Y-96798000D01*
X114091000Y-96758000D02*
X116287000Y-96758000D01*
X113960000Y-96718000D02*
X116418000Y-96718000D01*
X113843000Y-96678000D02*
X116535000Y-96678000D01*
X113736000Y-96638000D02*
X116642000Y-96638000D01*
X113637000Y-96598000D02*
X116741000Y-96598000D01*
X113544000Y-96558000D02*
X116834000Y-96558000D01*
X113458000Y-96518000D02*
X116920000Y-96518000D01*
X113376000Y-96478000D02*
X117002000Y-96478000D01*
X113299000Y-96438000D02*
X117079000Y-96438000D01*
X113225000Y-96398000D02*
X117153000Y-96398000D01*
X113155000Y-96358000D02*
X117223000Y-96358000D01*
X116229000Y-96318000D02*
X117291000Y-96318000D01*
X113087000Y-96318000D02*
X114149000Y-96318000D01*
X116229000Y-96278000D02*
X117355000Y-96278000D01*
X113023000Y-96278000D02*
X114149000Y-96278000D01*
X116229000Y-96238000D02*
X117417000Y-96238000D01*
X112961000Y-96238000D02*
X114149000Y-96238000D01*
X116229000Y-96198000D02*
X117476000Y-96198000D01*
X112902000Y-96198000D02*
X114149000Y-96198000D01*
X116229000Y-96158000D02*
X117534000Y-96158000D01*
X112844000Y-96158000D02*
X114149000Y-96158000D01*
X116229000Y-96118000D02*
X117589000Y-96118000D01*
X112789000Y-96118000D02*
X114149000Y-96118000D01*
X116229000Y-96078000D02*
X117643000Y-96078000D01*
X112735000Y-96078000D02*
X114149000Y-96078000D01*
X116229000Y-96038000D02*
X117694000Y-96038000D01*
X112684000Y-96038000D02*
X114149000Y-96038000D01*
X116229000Y-95998000D02*
X117745000Y-95998000D01*
X112633000Y-95998000D02*
X114149000Y-95998000D01*
X116229000Y-95958000D02*
X117793000Y-95958000D01*
X112585000Y-95958000D02*
X114149000Y-95958000D01*
X116229000Y-95918000D02*
X117840000Y-95918000D01*
X112538000Y-95918000D02*
X114149000Y-95918000D01*
X116229000Y-95878000D02*
X117886000Y-95878000D01*
X112492000Y-95878000D02*
X114149000Y-95878000D01*
X116229000Y-95838000D02*
X117930000Y-95838000D01*
X112448000Y-95838000D02*
X114149000Y-95838000D01*
X116229000Y-95798000D02*
X117973000Y-95798000D01*
X112405000Y-95798000D02*
X114149000Y-95798000D01*
X116229000Y-95758000D02*
X118015000Y-95758000D01*
X112363000Y-95758000D02*
X114149000Y-95758000D01*
X116229000Y-95718000D02*
X118056000Y-95718000D01*
X112322000Y-95718000D02*
X114149000Y-95718000D01*
X116229000Y-95678000D02*
X118096000Y-95678000D01*
X112282000Y-95678000D02*
X114149000Y-95678000D01*
X116229000Y-95638000D02*
X118134000Y-95638000D01*
X112244000Y-95638000D02*
X114149000Y-95638000D01*
X116229000Y-95598000D02*
X118172000Y-95598000D01*
X112206000Y-95598000D02*
X114149000Y-95598000D01*
X116229000Y-95558000D02*
X118208000Y-95558000D01*
X112170000Y-95558000D02*
X114149000Y-95558000D01*
X116229000Y-95518000D02*
X118244000Y-95518000D01*
X112134000Y-95518000D02*
X114149000Y-95518000D01*
X116229000Y-95478000D02*
X118279000Y-95478000D01*
X112099000Y-95478000D02*
X114149000Y-95478000D01*
X116229000Y-95438000D02*
X118313000Y-95438000D01*
X112065000Y-95438000D02*
X114149000Y-95438000D01*
X116229000Y-95398000D02*
X118345000Y-95398000D01*
X112033000Y-95398000D02*
X114149000Y-95398000D01*
X116229000Y-95358000D02*
X118378000Y-95358000D01*
X112000000Y-95358000D02*
X114149000Y-95358000D01*
X116229000Y-95318000D02*
X118409000Y-95318000D01*
X111969000Y-95318000D02*
X114149000Y-95318000D01*
X116229000Y-95278000D02*
X118439000Y-95278000D01*
X111939000Y-95278000D02*
X114149000Y-95278000D01*
X116229000Y-95238000D02*
X118469000Y-95238000D01*
X111909000Y-95238000D02*
X114149000Y-95238000D01*
X116229000Y-95198000D02*
X118498000Y-95198000D01*
X111880000Y-95198000D02*
X114149000Y-95198000D01*
X116229000Y-95158000D02*
X118527000Y-95158000D01*
X111851000Y-95158000D02*
X114149000Y-95158000D01*
X116229000Y-95118000D02*
X118554000Y-95118000D01*
X111824000Y-95118000D02*
X114149000Y-95118000D01*
X116229000Y-95078000D02*
X118581000Y-95078000D01*
X111797000Y-95078000D02*
X114149000Y-95078000D01*
X116229000Y-95038000D02*
X118607000Y-95038000D01*
X111771000Y-95038000D02*
X114149000Y-95038000D01*
X116229000Y-94998000D02*
X118633000Y-94998000D01*
X111745000Y-94998000D02*
X114149000Y-94998000D01*
X116229000Y-94958000D02*
X118658000Y-94958000D01*
X111720000Y-94958000D02*
X114149000Y-94958000D01*
X116229000Y-94918000D02*
X118682000Y-94918000D01*
X111696000Y-94918000D02*
X114149000Y-94918000D01*
X116229000Y-94878000D02*
X118706000Y-94878000D01*
X111672000Y-94878000D02*
X114149000Y-94878000D01*
X116229000Y-94838000D02*
X118729000Y-94838000D01*
X111649000Y-94838000D02*
X114149000Y-94838000D01*
X116229000Y-94798000D02*
X118751000Y-94798000D01*
X111627000Y-94798000D02*
X114149000Y-94798000D01*
X116229000Y-94758000D02*
X118773000Y-94758000D01*
X111605000Y-94758000D02*
X114149000Y-94758000D01*
X116229000Y-94718000D02*
X118795000Y-94718000D01*
X111583000Y-94718000D02*
X114149000Y-94718000D01*
X116229000Y-94678000D02*
X118816000Y-94678000D01*
X111562000Y-94678000D02*
X114149000Y-94678000D01*
X116229000Y-94638000D02*
X118836000Y-94638000D01*
X111542000Y-94638000D02*
X114149000Y-94638000D01*
X116229000Y-94598000D02*
X118855000Y-94598000D01*
X111523000Y-94598000D02*
X114149000Y-94598000D01*
X116229000Y-94558000D02*
X118875000Y-94558000D01*
X111503000Y-94558000D02*
X114149000Y-94558000D01*
X116229000Y-94518000D02*
X118893000Y-94518000D01*
X111485000Y-94518000D02*
X114149000Y-94518000D01*
X116229000Y-94478000D02*
X118911000Y-94478000D01*
X111467000Y-94478000D02*
X114149000Y-94478000D01*
X116229000Y-94438000D02*
X118929000Y-94438000D01*
X111449000Y-94438000D02*
X114149000Y-94438000D01*
X116229000Y-94398000D02*
X118946000Y-94398000D01*
X111432000Y-94398000D02*
X114149000Y-94398000D01*
X116229000Y-94358000D02*
X118963000Y-94358000D01*
X111415000Y-94358000D02*
X114149000Y-94358000D01*
X116229000Y-94318000D02*
X118979000Y-94318000D01*
X111399000Y-94318000D02*
X114149000Y-94318000D01*
X116229000Y-94278000D02*
X118994000Y-94278000D01*
X111384000Y-94278000D02*
X114149000Y-94278000D01*
X111368000Y-94238000D02*
X119010000Y-94238000D01*
X111354000Y-94198000D02*
X119024000Y-94198000D01*
X111339000Y-94158000D02*
X119039000Y-94158000D01*
X111326000Y-94118000D02*
X119052000Y-94118000D01*
X111312000Y-94078000D02*
X119066000Y-94078000D01*
X111300000Y-94038000D02*
X119078000Y-94038000D01*
X111287000Y-93998000D02*
X119091000Y-93998000D01*
X111275000Y-93958000D02*
X119103000Y-93958000D01*
X111264000Y-93918000D02*
X119114000Y-93918000D01*
X111253000Y-93878000D02*
X119125000Y-93878000D01*
X111242000Y-93838000D02*
X119136000Y-93838000D01*
X111232000Y-93798000D02*
X119146000Y-93798000D01*
X111222000Y-93758000D02*
X119156000Y-93758000D01*
X111213000Y-93718000D02*
X119165000Y-93718000D01*
X111204000Y-93678000D02*
X119174000Y-93678000D01*
X111195000Y-93638000D02*
X119183000Y-93638000D01*
X111187000Y-93598000D02*
X119191000Y-93598000D01*
X111179000Y-93558000D02*
X119199000Y-93558000D01*
X111172000Y-93518000D02*
X119206000Y-93518000D01*
X111165000Y-93477000D02*
X119213000Y-93477000D01*
X111159000Y-93437000D02*
X119219000Y-93437000D01*
X111152000Y-93397000D02*
X119226000Y-93397000D01*
X111147000Y-93357000D02*
X119231000Y-93357000D01*
X111141000Y-93317000D02*
X119237000Y-93317000D01*
X111137000Y-93277000D02*
X119241000Y-93277000D01*
X111132000Y-93237000D02*
X119246000Y-93237000D01*
X111128000Y-93197000D02*
X119250000Y-93197000D01*
X111124000Y-93157000D02*
X119254000Y-93157000D01*
X111121000Y-93117000D02*
X119257000Y-93117000D01*
X111118000Y-93077000D02*
X119260000Y-93077000D01*
X111115000Y-93037000D02*
X119263000Y-93037000D01*
X111113000Y-92997000D02*
X119265000Y-92997000D01*
X111112000Y-92957000D02*
X119266000Y-92957000D01*
X111110000Y-92917000D02*
X119268000Y-92917000D01*
X111109000Y-92877000D02*
X119269000Y-92877000D01*
X111109000Y-92837000D02*
X119269000Y-92837000D01*
X111109000Y-92797000D02*
X119269000Y-92797000D01*
X119309000Y-92797000D02*
G75*
G03X119309000Y-92797000I-4120000J0D01*
G01*
%TO.C,C29*%
X128072000Y-92797000D02*
G75*
G03X128072000Y-92797000I-4120000J0D01*
G01*
X119872000Y-92797000D02*
X128032000Y-92797000D01*
X119872000Y-92837000D02*
X128032000Y-92837000D01*
X119872000Y-92877000D02*
X128032000Y-92877000D01*
X119873000Y-92917000D02*
X128031000Y-92917000D01*
X119875000Y-92957000D02*
X128029000Y-92957000D01*
X119876000Y-92997000D02*
X128028000Y-92997000D01*
X119878000Y-93037000D02*
X128026000Y-93037000D01*
X119881000Y-93077000D02*
X128023000Y-93077000D01*
X119884000Y-93117000D02*
X128020000Y-93117000D01*
X119887000Y-93157000D02*
X128017000Y-93157000D01*
X119891000Y-93197000D02*
X128013000Y-93197000D01*
X119895000Y-93237000D02*
X128009000Y-93237000D01*
X119900000Y-93277000D02*
X128004000Y-93277000D01*
X119904000Y-93317000D02*
X128000000Y-93317000D01*
X119910000Y-93357000D02*
X127994000Y-93357000D01*
X119915000Y-93397000D02*
X127989000Y-93397000D01*
X119922000Y-93437000D02*
X127982000Y-93437000D01*
X119928000Y-93477000D02*
X127976000Y-93477000D01*
X119935000Y-93518000D02*
X127969000Y-93518000D01*
X119942000Y-93558000D02*
X127962000Y-93558000D01*
X119950000Y-93598000D02*
X127954000Y-93598000D01*
X119958000Y-93638000D02*
X127946000Y-93638000D01*
X119967000Y-93678000D02*
X127937000Y-93678000D01*
X119976000Y-93718000D02*
X127928000Y-93718000D01*
X119985000Y-93758000D02*
X127919000Y-93758000D01*
X119995000Y-93798000D02*
X127909000Y-93798000D01*
X120005000Y-93838000D02*
X127899000Y-93838000D01*
X120016000Y-93878000D02*
X127888000Y-93878000D01*
X120027000Y-93918000D02*
X127877000Y-93918000D01*
X120038000Y-93958000D02*
X127866000Y-93958000D01*
X120050000Y-93998000D02*
X127854000Y-93998000D01*
X120063000Y-94038000D02*
X127841000Y-94038000D01*
X120075000Y-94078000D02*
X127829000Y-94078000D01*
X120089000Y-94118000D02*
X127815000Y-94118000D01*
X120102000Y-94158000D02*
X127802000Y-94158000D01*
X120117000Y-94198000D02*
X127787000Y-94198000D01*
X120131000Y-94238000D02*
X127773000Y-94238000D01*
X120147000Y-94278000D02*
X122912000Y-94278000D01*
X124992000Y-94278000D02*
X127757000Y-94278000D01*
X120162000Y-94318000D02*
X122912000Y-94318000D01*
X124992000Y-94318000D02*
X127742000Y-94318000D01*
X120178000Y-94358000D02*
X122912000Y-94358000D01*
X124992000Y-94358000D02*
X127726000Y-94358000D01*
X120195000Y-94398000D02*
X122912000Y-94398000D01*
X124992000Y-94398000D02*
X127709000Y-94398000D01*
X120212000Y-94438000D02*
X122912000Y-94438000D01*
X124992000Y-94438000D02*
X127692000Y-94438000D01*
X120230000Y-94478000D02*
X122912000Y-94478000D01*
X124992000Y-94478000D02*
X127674000Y-94478000D01*
X120248000Y-94518000D02*
X122912000Y-94518000D01*
X124992000Y-94518000D02*
X127656000Y-94518000D01*
X120266000Y-94558000D02*
X122912000Y-94558000D01*
X124992000Y-94558000D02*
X127638000Y-94558000D01*
X120286000Y-94598000D02*
X122912000Y-94598000D01*
X124992000Y-94598000D02*
X127618000Y-94598000D01*
X120305000Y-94638000D02*
X122912000Y-94638000D01*
X124992000Y-94638000D02*
X127599000Y-94638000D01*
X120325000Y-94678000D02*
X122912000Y-94678000D01*
X124992000Y-94678000D02*
X127579000Y-94678000D01*
X120346000Y-94718000D02*
X122912000Y-94718000D01*
X124992000Y-94718000D02*
X127558000Y-94718000D01*
X120368000Y-94758000D02*
X122912000Y-94758000D01*
X124992000Y-94758000D02*
X127536000Y-94758000D01*
X120390000Y-94798000D02*
X122912000Y-94798000D01*
X124992000Y-94798000D02*
X127514000Y-94798000D01*
X120412000Y-94838000D02*
X122912000Y-94838000D01*
X124992000Y-94838000D02*
X127492000Y-94838000D01*
X120435000Y-94878000D02*
X122912000Y-94878000D01*
X124992000Y-94878000D02*
X127469000Y-94878000D01*
X120459000Y-94918000D02*
X122912000Y-94918000D01*
X124992000Y-94918000D02*
X127445000Y-94918000D01*
X120483000Y-94958000D02*
X122912000Y-94958000D01*
X124992000Y-94958000D02*
X127421000Y-94958000D01*
X120508000Y-94998000D02*
X122912000Y-94998000D01*
X124992000Y-94998000D02*
X127396000Y-94998000D01*
X120534000Y-95038000D02*
X122912000Y-95038000D01*
X124992000Y-95038000D02*
X127370000Y-95038000D01*
X120560000Y-95078000D02*
X122912000Y-95078000D01*
X124992000Y-95078000D02*
X127344000Y-95078000D01*
X120587000Y-95118000D02*
X122912000Y-95118000D01*
X124992000Y-95118000D02*
X127317000Y-95118000D01*
X120614000Y-95158000D02*
X122912000Y-95158000D01*
X124992000Y-95158000D02*
X127290000Y-95158000D01*
X120643000Y-95198000D02*
X122912000Y-95198000D01*
X124992000Y-95198000D02*
X127261000Y-95198000D01*
X120672000Y-95238000D02*
X122912000Y-95238000D01*
X124992000Y-95238000D02*
X127232000Y-95238000D01*
X120702000Y-95278000D02*
X122912000Y-95278000D01*
X124992000Y-95278000D02*
X127202000Y-95278000D01*
X120732000Y-95318000D02*
X122912000Y-95318000D01*
X124992000Y-95318000D02*
X127172000Y-95318000D01*
X120763000Y-95358000D02*
X122912000Y-95358000D01*
X124992000Y-95358000D02*
X127141000Y-95358000D01*
X120796000Y-95398000D02*
X122912000Y-95398000D01*
X124992000Y-95398000D02*
X127108000Y-95398000D01*
X120828000Y-95438000D02*
X122912000Y-95438000D01*
X124992000Y-95438000D02*
X127076000Y-95438000D01*
X120862000Y-95478000D02*
X122912000Y-95478000D01*
X124992000Y-95478000D02*
X127042000Y-95478000D01*
X120897000Y-95518000D02*
X122912000Y-95518000D01*
X124992000Y-95518000D02*
X127007000Y-95518000D01*
X120933000Y-95558000D02*
X122912000Y-95558000D01*
X124992000Y-95558000D02*
X126971000Y-95558000D01*
X120969000Y-95598000D02*
X122912000Y-95598000D01*
X124992000Y-95598000D02*
X126935000Y-95598000D01*
X121007000Y-95638000D02*
X122912000Y-95638000D01*
X124992000Y-95638000D02*
X126897000Y-95638000D01*
X121045000Y-95678000D02*
X122912000Y-95678000D01*
X124992000Y-95678000D02*
X126859000Y-95678000D01*
X121085000Y-95718000D02*
X122912000Y-95718000D01*
X124992000Y-95718000D02*
X126819000Y-95718000D01*
X121126000Y-95758000D02*
X122912000Y-95758000D01*
X124992000Y-95758000D02*
X126778000Y-95758000D01*
X121168000Y-95798000D02*
X122912000Y-95798000D01*
X124992000Y-95798000D02*
X126736000Y-95798000D01*
X121211000Y-95838000D02*
X122912000Y-95838000D01*
X124992000Y-95838000D02*
X126693000Y-95838000D01*
X121255000Y-95878000D02*
X122912000Y-95878000D01*
X124992000Y-95878000D02*
X126649000Y-95878000D01*
X121301000Y-95918000D02*
X122912000Y-95918000D01*
X124992000Y-95918000D02*
X126603000Y-95918000D01*
X121348000Y-95958000D02*
X122912000Y-95958000D01*
X124992000Y-95958000D02*
X126556000Y-95958000D01*
X121396000Y-95998000D02*
X122912000Y-95998000D01*
X124992000Y-95998000D02*
X126508000Y-95998000D01*
X121447000Y-96038000D02*
X122912000Y-96038000D01*
X124992000Y-96038000D02*
X126457000Y-96038000D01*
X121498000Y-96078000D02*
X122912000Y-96078000D01*
X124992000Y-96078000D02*
X126406000Y-96078000D01*
X121552000Y-96118000D02*
X122912000Y-96118000D01*
X124992000Y-96118000D02*
X126352000Y-96118000D01*
X121607000Y-96158000D02*
X122912000Y-96158000D01*
X124992000Y-96158000D02*
X126297000Y-96158000D01*
X121665000Y-96198000D02*
X122912000Y-96198000D01*
X124992000Y-96198000D02*
X126239000Y-96198000D01*
X121724000Y-96238000D02*
X122912000Y-96238000D01*
X124992000Y-96238000D02*
X126180000Y-96238000D01*
X121786000Y-96278000D02*
X122912000Y-96278000D01*
X124992000Y-96278000D02*
X126118000Y-96278000D01*
X121850000Y-96318000D02*
X122912000Y-96318000D01*
X124992000Y-96318000D02*
X126054000Y-96318000D01*
X121918000Y-96358000D02*
X125986000Y-96358000D01*
X121988000Y-96398000D02*
X125916000Y-96398000D01*
X122062000Y-96438000D02*
X125842000Y-96438000D01*
X122139000Y-96478000D02*
X125765000Y-96478000D01*
X122221000Y-96518000D02*
X125683000Y-96518000D01*
X122307000Y-96558000D02*
X125597000Y-96558000D01*
X122400000Y-96598000D02*
X125504000Y-96598000D01*
X122499000Y-96638000D02*
X125405000Y-96638000D01*
X122606000Y-96678000D02*
X125298000Y-96678000D01*
X122723000Y-96718000D02*
X125181000Y-96718000D01*
X122854000Y-96758000D02*
X125050000Y-96758000D01*
X123004000Y-96798000D02*
X124900000Y-96798000D01*
X123184000Y-96838000D02*
X124720000Y-96838000D01*
X123419000Y-96878000D02*
X124485000Y-96878000D01*
X121637000Y-88387302D02*
X121637000Y-89187302D01*
X121237000Y-88787302D02*
X122037000Y-88787302D01*
%TO.C,C30*%
X136835000Y-92797000D02*
G75*
G03X136835000Y-92797000I-4120000J0D01*
G01*
X128635000Y-92797000D02*
X136795000Y-92797000D01*
X128635000Y-92837000D02*
X136795000Y-92837000D01*
X128635000Y-92877000D02*
X136795000Y-92877000D01*
X128636000Y-92917000D02*
X136794000Y-92917000D01*
X128638000Y-92957000D02*
X136792000Y-92957000D01*
X128639000Y-92997000D02*
X136791000Y-92997000D01*
X128641000Y-93037000D02*
X136789000Y-93037000D01*
X128644000Y-93077000D02*
X136786000Y-93077000D01*
X128647000Y-93117000D02*
X136783000Y-93117000D01*
X128650000Y-93157000D02*
X136780000Y-93157000D01*
X128654000Y-93197000D02*
X136776000Y-93197000D01*
X128658000Y-93237000D02*
X136772000Y-93237000D01*
X128663000Y-93277000D02*
X136767000Y-93277000D01*
X128667000Y-93317000D02*
X136763000Y-93317000D01*
X128673000Y-93357000D02*
X136757000Y-93357000D01*
X128678000Y-93397000D02*
X136752000Y-93397000D01*
X128685000Y-93437000D02*
X136745000Y-93437000D01*
X128691000Y-93477000D02*
X136739000Y-93477000D01*
X128698000Y-93518000D02*
X136732000Y-93518000D01*
X128705000Y-93558000D02*
X136725000Y-93558000D01*
X128713000Y-93598000D02*
X136717000Y-93598000D01*
X128721000Y-93638000D02*
X136709000Y-93638000D01*
X128730000Y-93678000D02*
X136700000Y-93678000D01*
X128739000Y-93718000D02*
X136691000Y-93718000D01*
X128748000Y-93758000D02*
X136682000Y-93758000D01*
X128758000Y-93798000D02*
X136672000Y-93798000D01*
X128768000Y-93838000D02*
X136662000Y-93838000D01*
X128779000Y-93878000D02*
X136651000Y-93878000D01*
X128790000Y-93918000D02*
X136640000Y-93918000D01*
X128801000Y-93958000D02*
X136629000Y-93958000D01*
X128813000Y-93998000D02*
X136617000Y-93998000D01*
X128826000Y-94038000D02*
X136604000Y-94038000D01*
X128838000Y-94078000D02*
X136592000Y-94078000D01*
X128852000Y-94118000D02*
X136578000Y-94118000D01*
X128865000Y-94158000D02*
X136565000Y-94158000D01*
X128880000Y-94198000D02*
X136550000Y-94198000D01*
X128894000Y-94238000D02*
X136536000Y-94238000D01*
X128910000Y-94278000D02*
X131675000Y-94278000D01*
X133755000Y-94278000D02*
X136520000Y-94278000D01*
X128925000Y-94318000D02*
X131675000Y-94318000D01*
X133755000Y-94318000D02*
X136505000Y-94318000D01*
X128941000Y-94358000D02*
X131675000Y-94358000D01*
X133755000Y-94358000D02*
X136489000Y-94358000D01*
X128958000Y-94398000D02*
X131675000Y-94398000D01*
X133755000Y-94398000D02*
X136472000Y-94398000D01*
X128975000Y-94438000D02*
X131675000Y-94438000D01*
X133755000Y-94438000D02*
X136455000Y-94438000D01*
X128993000Y-94478000D02*
X131675000Y-94478000D01*
X133755000Y-94478000D02*
X136437000Y-94478000D01*
X129011000Y-94518000D02*
X131675000Y-94518000D01*
X133755000Y-94518000D02*
X136419000Y-94518000D01*
X129029000Y-94558000D02*
X131675000Y-94558000D01*
X133755000Y-94558000D02*
X136401000Y-94558000D01*
X129049000Y-94598000D02*
X131675000Y-94598000D01*
X133755000Y-94598000D02*
X136381000Y-94598000D01*
X129068000Y-94638000D02*
X131675000Y-94638000D01*
X133755000Y-94638000D02*
X136362000Y-94638000D01*
X129088000Y-94678000D02*
X131675000Y-94678000D01*
X133755000Y-94678000D02*
X136342000Y-94678000D01*
X129109000Y-94718000D02*
X131675000Y-94718000D01*
X133755000Y-94718000D02*
X136321000Y-94718000D01*
X129131000Y-94758000D02*
X131675000Y-94758000D01*
X133755000Y-94758000D02*
X136299000Y-94758000D01*
X129153000Y-94798000D02*
X131675000Y-94798000D01*
X133755000Y-94798000D02*
X136277000Y-94798000D01*
X129175000Y-94838000D02*
X131675000Y-94838000D01*
X133755000Y-94838000D02*
X136255000Y-94838000D01*
X129198000Y-94878000D02*
X131675000Y-94878000D01*
X133755000Y-94878000D02*
X136232000Y-94878000D01*
X129222000Y-94918000D02*
X131675000Y-94918000D01*
X133755000Y-94918000D02*
X136208000Y-94918000D01*
X129246000Y-94958000D02*
X131675000Y-94958000D01*
X133755000Y-94958000D02*
X136184000Y-94958000D01*
X129271000Y-94998000D02*
X131675000Y-94998000D01*
X133755000Y-94998000D02*
X136159000Y-94998000D01*
X129297000Y-95038000D02*
X131675000Y-95038000D01*
X133755000Y-95038000D02*
X136133000Y-95038000D01*
X129323000Y-95078000D02*
X131675000Y-95078000D01*
X133755000Y-95078000D02*
X136107000Y-95078000D01*
X129350000Y-95118000D02*
X131675000Y-95118000D01*
X133755000Y-95118000D02*
X136080000Y-95118000D01*
X129377000Y-95158000D02*
X131675000Y-95158000D01*
X133755000Y-95158000D02*
X136053000Y-95158000D01*
X129406000Y-95198000D02*
X131675000Y-95198000D01*
X133755000Y-95198000D02*
X136024000Y-95198000D01*
X129435000Y-95238000D02*
X131675000Y-95238000D01*
X133755000Y-95238000D02*
X135995000Y-95238000D01*
X129465000Y-95278000D02*
X131675000Y-95278000D01*
X133755000Y-95278000D02*
X135965000Y-95278000D01*
X129495000Y-95318000D02*
X131675000Y-95318000D01*
X133755000Y-95318000D02*
X135935000Y-95318000D01*
X129526000Y-95358000D02*
X131675000Y-95358000D01*
X133755000Y-95358000D02*
X135904000Y-95358000D01*
X129559000Y-95398000D02*
X131675000Y-95398000D01*
X133755000Y-95398000D02*
X135871000Y-95398000D01*
X129591000Y-95438000D02*
X131675000Y-95438000D01*
X133755000Y-95438000D02*
X135839000Y-95438000D01*
X129625000Y-95478000D02*
X131675000Y-95478000D01*
X133755000Y-95478000D02*
X135805000Y-95478000D01*
X129660000Y-95518000D02*
X131675000Y-95518000D01*
X133755000Y-95518000D02*
X135770000Y-95518000D01*
X129696000Y-95558000D02*
X131675000Y-95558000D01*
X133755000Y-95558000D02*
X135734000Y-95558000D01*
X129732000Y-95598000D02*
X131675000Y-95598000D01*
X133755000Y-95598000D02*
X135698000Y-95598000D01*
X129770000Y-95638000D02*
X131675000Y-95638000D01*
X133755000Y-95638000D02*
X135660000Y-95638000D01*
X129808000Y-95678000D02*
X131675000Y-95678000D01*
X133755000Y-95678000D02*
X135622000Y-95678000D01*
X129848000Y-95718000D02*
X131675000Y-95718000D01*
X133755000Y-95718000D02*
X135582000Y-95718000D01*
X129889000Y-95758000D02*
X131675000Y-95758000D01*
X133755000Y-95758000D02*
X135541000Y-95758000D01*
X129931000Y-95798000D02*
X131675000Y-95798000D01*
X133755000Y-95798000D02*
X135499000Y-95798000D01*
X129974000Y-95838000D02*
X131675000Y-95838000D01*
X133755000Y-95838000D02*
X135456000Y-95838000D01*
X130018000Y-95878000D02*
X131675000Y-95878000D01*
X133755000Y-95878000D02*
X135412000Y-95878000D01*
X130064000Y-95918000D02*
X131675000Y-95918000D01*
X133755000Y-95918000D02*
X135366000Y-95918000D01*
X130111000Y-95958000D02*
X131675000Y-95958000D01*
X133755000Y-95958000D02*
X135319000Y-95958000D01*
X130159000Y-95998000D02*
X131675000Y-95998000D01*
X133755000Y-95998000D02*
X135271000Y-95998000D01*
X130210000Y-96038000D02*
X131675000Y-96038000D01*
X133755000Y-96038000D02*
X135220000Y-96038000D01*
X130261000Y-96078000D02*
X131675000Y-96078000D01*
X133755000Y-96078000D02*
X135169000Y-96078000D01*
X130315000Y-96118000D02*
X131675000Y-96118000D01*
X133755000Y-96118000D02*
X135115000Y-96118000D01*
X130370000Y-96158000D02*
X131675000Y-96158000D01*
X133755000Y-96158000D02*
X135060000Y-96158000D01*
X130428000Y-96198000D02*
X131675000Y-96198000D01*
X133755000Y-96198000D02*
X135002000Y-96198000D01*
X130487000Y-96238000D02*
X131675000Y-96238000D01*
X133755000Y-96238000D02*
X134943000Y-96238000D01*
X130549000Y-96278000D02*
X131675000Y-96278000D01*
X133755000Y-96278000D02*
X134881000Y-96278000D01*
X130613000Y-96318000D02*
X131675000Y-96318000D01*
X133755000Y-96318000D02*
X134817000Y-96318000D01*
X130681000Y-96358000D02*
X134749000Y-96358000D01*
X130751000Y-96398000D02*
X134679000Y-96398000D01*
X130825000Y-96438000D02*
X134605000Y-96438000D01*
X130902000Y-96478000D02*
X134528000Y-96478000D01*
X130984000Y-96518000D02*
X134446000Y-96518000D01*
X131070000Y-96558000D02*
X134360000Y-96558000D01*
X131163000Y-96598000D02*
X134267000Y-96598000D01*
X131262000Y-96638000D02*
X134168000Y-96638000D01*
X131369000Y-96678000D02*
X134061000Y-96678000D01*
X131486000Y-96718000D02*
X133944000Y-96718000D01*
X131617000Y-96758000D02*
X133813000Y-96758000D01*
X131767000Y-96798000D02*
X133663000Y-96798000D01*
X131947000Y-96838000D02*
X133483000Y-96838000D01*
X132182000Y-96878000D02*
X133248000Y-96878000D01*
X130400000Y-88387302D02*
X130400000Y-89187302D01*
X130000000Y-88787302D02*
X130800000Y-88787302D01*
%TO.C,C1*%
X152621064Y-93874000D02*
X151416936Y-93874000D01*
X152621064Y-92054000D02*
X151416936Y-92054000D01*
%TO.C,C19*%
X180499936Y-125878000D02*
X181704064Y-125878000D01*
X180499936Y-124058000D02*
X181704064Y-124058000D01*
%TO.C,C24*%
X180499936Y-123338000D02*
X181704064Y-123338000D01*
X180499936Y-121518000D02*
X181704064Y-121518000D01*
%TO.C,R26*%
X183547936Y-128418000D02*
X184752064Y-128418000D01*
X183547936Y-126598000D02*
X184752064Y-126598000D01*
%TO.C,C20*%
D12*
X188094857Y-124605142D02*
X188142476Y-124652761D01*
X188285333Y-124700380D01*
X188380571Y-124700380D01*
X188523428Y-124652761D01*
X188618666Y-124557523D01*
X188666285Y-124462285D01*
X188713904Y-124271809D01*
X188713904Y-124128952D01*
X188666285Y-123938476D01*
X188618666Y-123843238D01*
X188523428Y-123748000D01*
X188380571Y-123700380D01*
X188285333Y-123700380D01*
X188142476Y-123748000D01*
X188094857Y-123795619D01*
X187713904Y-123795619D02*
X187666285Y-123748000D01*
X187571047Y-123700380D01*
X187332952Y-123700380D01*
X187237714Y-123748000D01*
X187190095Y-123795619D01*
X187142476Y-123890857D01*
X187142476Y-123986095D01*
X187190095Y-124128952D01*
X187761523Y-124700380D01*
X187142476Y-124700380D01*
X186523428Y-123700380D02*
X186428190Y-123700380D01*
X186332952Y-123748000D01*
X186285333Y-123795619D01*
X186237714Y-123890857D01*
X186190095Y-124081333D01*
X186190095Y-124319428D01*
X186237714Y-124509904D01*
X186285333Y-124605142D01*
X186332952Y-124652761D01*
X186428190Y-124700380D01*
X186523428Y-124700380D01*
X186618666Y-124652761D01*
X186666285Y-124605142D01*
X186713904Y-124509904D01*
X186761523Y-124319428D01*
X186761523Y-124081333D01*
X186713904Y-123890857D01*
X186666285Y-123795619D01*
X186618666Y-123748000D01*
X186523428Y-123700380D01*
%TO.C,U7*%
X186435904Y-112300380D02*
X186435904Y-113109904D01*
X186388285Y-113205142D01*
X186340666Y-113252761D01*
X186245428Y-113300380D01*
X186054952Y-113300380D01*
X185959714Y-113252761D01*
X185912095Y-113205142D01*
X185864476Y-113109904D01*
X185864476Y-112300380D01*
X185483523Y-112300380D02*
X184816857Y-112300380D01*
X185245428Y-113300380D01*
%TO.C,IC1*%
D13*
X149067761Y-89474523D02*
X149067761Y-88204523D01*
X147737285Y-89353571D02*
X147797761Y-89414047D01*
X147979190Y-89474523D01*
X148100142Y-89474523D01*
X148281571Y-89414047D01*
X148402523Y-89293095D01*
X148463000Y-89172142D01*
X148523476Y-88930238D01*
X148523476Y-88748809D01*
X148463000Y-88506904D01*
X148402523Y-88385952D01*
X148281571Y-88265000D01*
X148100142Y-88204523D01*
X147979190Y-88204523D01*
X147797761Y-88265000D01*
X147737285Y-88325476D01*
X146527761Y-89474523D02*
X147253476Y-89474523D01*
X146890619Y-89474523D02*
X146890619Y-88204523D01*
X147011571Y-88385952D01*
X147132523Y-88506904D01*
X147253476Y-88567380D01*
%TO.C,TP3*%
D12*
X173378880Y-117610095D02*
X173378880Y-118181523D01*
X174378880Y-117895809D02*
X173378880Y-117895809D01*
X174378880Y-118514857D02*
X173378880Y-118514857D01*
X173378880Y-118895809D01*
X173426500Y-118991047D01*
X173474119Y-119038666D01*
X173569357Y-119086285D01*
X173712214Y-119086285D01*
X173807452Y-119038666D01*
X173855071Y-118991047D01*
X173902690Y-118895809D01*
X173902690Y-118514857D01*
X173378880Y-119419619D02*
X173378880Y-120038666D01*
X173759833Y-119705333D01*
X173759833Y-119848190D01*
X173807452Y-119943428D01*
X173855071Y-119991047D01*
X173950309Y-120038666D01*
X174188404Y-120038666D01*
X174283642Y-119991047D01*
X174331261Y-119943428D01*
X174378880Y-119848190D01*
X174378880Y-119562476D01*
X174331261Y-119467238D01*
X174283642Y-119419619D01*
%TO.C,C25*%
X108223142Y-140367142D02*
X108270761Y-140319523D01*
X108318380Y-140176666D01*
X108318380Y-140081428D01*
X108270761Y-139938571D01*
X108175523Y-139843333D01*
X108080285Y-139795714D01*
X107889809Y-139748095D01*
X107746952Y-139748095D01*
X107556476Y-139795714D01*
X107461238Y-139843333D01*
X107366000Y-139938571D01*
X107318380Y-140081428D01*
X107318380Y-140176666D01*
X107366000Y-140319523D01*
X107413619Y-140367142D01*
X107413619Y-140748095D02*
X107366000Y-140795714D01*
X107318380Y-140890952D01*
X107318380Y-141129047D01*
X107366000Y-141224285D01*
X107413619Y-141271904D01*
X107508857Y-141319523D01*
X107604095Y-141319523D01*
X107746952Y-141271904D01*
X108318380Y-140700476D01*
X108318380Y-141319523D01*
X107318380Y-142224285D02*
X107318380Y-141748095D01*
X107794571Y-141700476D01*
X107746952Y-141748095D01*
X107699333Y-141843333D01*
X107699333Y-142081428D01*
X107746952Y-142176666D01*
X107794571Y-142224285D01*
X107889809Y-142271904D01*
X108127904Y-142271904D01*
X108223142Y-142224285D01*
X108270761Y-142176666D01*
X108318380Y-142081428D01*
X108318380Y-141843333D01*
X108270761Y-141748095D01*
X108223142Y-141700476D01*
%TO.C,C26*%
X126003142Y-140367142D02*
X126050761Y-140319523D01*
X126098380Y-140176666D01*
X126098380Y-140081428D01*
X126050761Y-139938571D01*
X125955523Y-139843333D01*
X125860285Y-139795714D01*
X125669809Y-139748095D01*
X125526952Y-139748095D01*
X125336476Y-139795714D01*
X125241238Y-139843333D01*
X125146000Y-139938571D01*
X125098380Y-140081428D01*
X125098380Y-140176666D01*
X125146000Y-140319523D01*
X125193619Y-140367142D01*
X125193619Y-140748095D02*
X125146000Y-140795714D01*
X125098380Y-140890952D01*
X125098380Y-141129047D01*
X125146000Y-141224285D01*
X125193619Y-141271904D01*
X125288857Y-141319523D01*
X125384095Y-141319523D01*
X125526952Y-141271904D01*
X126098380Y-140700476D01*
X126098380Y-141319523D01*
X125098380Y-142176666D02*
X125098380Y-141986190D01*
X125146000Y-141890952D01*
X125193619Y-141843333D01*
X125336476Y-141748095D01*
X125526952Y-141700476D01*
X125907904Y-141700476D01*
X126003142Y-141748095D01*
X126050761Y-141795714D01*
X126098380Y-141890952D01*
X126098380Y-142081428D01*
X126050761Y-142176666D01*
X126003142Y-142224285D01*
X125907904Y-142271904D01*
X125669809Y-142271904D01*
X125574571Y-142224285D01*
X125526952Y-142176666D01*
X125479333Y-142081428D01*
X125479333Y-141890952D01*
X125526952Y-141795714D01*
X125574571Y-141748095D01*
X125669809Y-141700476D01*
%TO.C,C27*%
X117113142Y-140367142D02*
X117160761Y-140319523D01*
X117208380Y-140176666D01*
X117208380Y-140081428D01*
X117160761Y-139938571D01*
X117065523Y-139843333D01*
X116970285Y-139795714D01*
X116779809Y-139748095D01*
X116636952Y-139748095D01*
X116446476Y-139795714D01*
X116351238Y-139843333D01*
X116256000Y-139938571D01*
X116208380Y-140081428D01*
X116208380Y-140176666D01*
X116256000Y-140319523D01*
X116303619Y-140367142D01*
X116303619Y-140748095D02*
X116256000Y-140795714D01*
X116208380Y-140890952D01*
X116208380Y-141129047D01*
X116256000Y-141224285D01*
X116303619Y-141271904D01*
X116398857Y-141319523D01*
X116494095Y-141319523D01*
X116636952Y-141271904D01*
X117208380Y-140700476D01*
X117208380Y-141319523D01*
X116208380Y-141652857D02*
X116208380Y-142319523D01*
X117208380Y-141890952D01*
%TO.C,C12*%
X110296142Y-92154142D02*
X110343761Y-92106523D01*
X110391380Y-91963666D01*
X110391380Y-91868428D01*
X110343761Y-91725571D01*
X110248523Y-91630333D01*
X110153285Y-91582714D01*
X109962809Y-91535095D01*
X109819952Y-91535095D01*
X109629476Y-91582714D01*
X109534238Y-91630333D01*
X109439000Y-91725571D01*
X109391380Y-91868428D01*
X109391380Y-91963666D01*
X109439000Y-92106523D01*
X109486619Y-92154142D01*
X110391380Y-93106523D02*
X110391380Y-92535095D01*
X110391380Y-92820809D02*
X109391380Y-92820809D01*
X109534238Y-92725571D01*
X109629476Y-92630333D01*
X109677095Y-92535095D01*
X109486619Y-93487476D02*
X109439000Y-93535095D01*
X109391380Y-93630333D01*
X109391380Y-93868428D01*
X109439000Y-93963666D01*
X109486619Y-94011285D01*
X109581857Y-94058904D01*
X109677095Y-94058904D01*
X109819952Y-94011285D01*
X110391380Y-93439857D01*
X110391380Y-94058904D01*
%TO.C,C29*%
X119059142Y-92154142D02*
X119106761Y-92106523D01*
X119154380Y-91963666D01*
X119154380Y-91868428D01*
X119106761Y-91725571D01*
X119011523Y-91630333D01*
X118916285Y-91582714D01*
X118725809Y-91535095D01*
X118582952Y-91535095D01*
X118392476Y-91582714D01*
X118297238Y-91630333D01*
X118202000Y-91725571D01*
X118154380Y-91868428D01*
X118154380Y-91963666D01*
X118202000Y-92106523D01*
X118249619Y-92154142D01*
X118249619Y-92535095D02*
X118202000Y-92582714D01*
X118154380Y-92677952D01*
X118154380Y-92916047D01*
X118202000Y-93011285D01*
X118249619Y-93058904D01*
X118344857Y-93106523D01*
X118440095Y-93106523D01*
X118582952Y-93058904D01*
X119154380Y-92487476D01*
X119154380Y-93106523D01*
X119154380Y-93582714D02*
X119154380Y-93773190D01*
X119106761Y-93868428D01*
X119059142Y-93916047D01*
X118916285Y-94011285D01*
X118725809Y-94058904D01*
X118344857Y-94058904D01*
X118249619Y-94011285D01*
X118202000Y-93963666D01*
X118154380Y-93868428D01*
X118154380Y-93677952D01*
X118202000Y-93582714D01*
X118249619Y-93535095D01*
X118344857Y-93487476D01*
X118582952Y-93487476D01*
X118678190Y-93535095D01*
X118725809Y-93582714D01*
X118773428Y-93677952D01*
X118773428Y-93868428D01*
X118725809Y-93963666D01*
X118678190Y-94011285D01*
X118582952Y-94058904D01*
%TO.C,C30*%
X127822142Y-92154142D02*
X127869761Y-92106523D01*
X127917380Y-91963666D01*
X127917380Y-91868428D01*
X127869761Y-91725571D01*
X127774523Y-91630333D01*
X127679285Y-91582714D01*
X127488809Y-91535095D01*
X127345952Y-91535095D01*
X127155476Y-91582714D01*
X127060238Y-91630333D01*
X126965000Y-91725571D01*
X126917380Y-91868428D01*
X126917380Y-91963666D01*
X126965000Y-92106523D01*
X127012619Y-92154142D01*
X126917380Y-92487476D02*
X126917380Y-93106523D01*
X127298333Y-92773190D01*
X127298333Y-92916047D01*
X127345952Y-93011285D01*
X127393571Y-93058904D01*
X127488809Y-93106523D01*
X127726904Y-93106523D01*
X127822142Y-93058904D01*
X127869761Y-93011285D01*
X127917380Y-92916047D01*
X127917380Y-92630333D01*
X127869761Y-92535095D01*
X127822142Y-92487476D01*
X126917380Y-93725571D02*
X126917380Y-93820809D01*
X126965000Y-93916047D01*
X127012619Y-93963666D01*
X127107857Y-94011285D01*
X127298333Y-94058904D01*
X127536428Y-94058904D01*
X127726904Y-94011285D01*
X127822142Y-93963666D01*
X127869761Y-93916047D01*
X127917380Y-93820809D01*
X127917380Y-93725571D01*
X127869761Y-93630333D01*
X127822142Y-93582714D01*
X127726904Y-93535095D01*
X127536428Y-93487476D01*
X127298333Y-93487476D01*
X127107857Y-93535095D01*
X127012619Y-93582714D01*
X126965000Y-93630333D01*
X126917380Y-93725571D01*
%TO.C,C1*%
X152185666Y-95607142D02*
X152233285Y-95654761D01*
X152376142Y-95702380D01*
X152471380Y-95702380D01*
X152614238Y-95654761D01*
X152709476Y-95559523D01*
X152757095Y-95464285D01*
X152804714Y-95273809D01*
X152804714Y-95130952D01*
X152757095Y-94940476D01*
X152709476Y-94845238D01*
X152614238Y-94750000D01*
X152471380Y-94702380D01*
X152376142Y-94702380D01*
X152233285Y-94750000D01*
X152185666Y-94797619D01*
X151233285Y-95702380D02*
X151804714Y-95702380D01*
X151519000Y-95702380D02*
X151519000Y-94702380D01*
X151614238Y-94845238D01*
X151709476Y-94940476D01*
X151804714Y-94988095D01*
%TO.C,C19*%
X179966857Y-128373142D02*
X180014476Y-128420761D01*
X180157333Y-128468380D01*
X180252571Y-128468380D01*
X180395428Y-128420761D01*
X180490666Y-128325523D01*
X180538285Y-128230285D01*
X180585904Y-128039809D01*
X180585904Y-127896952D01*
X180538285Y-127706476D01*
X180490666Y-127611238D01*
X180395428Y-127516000D01*
X180252571Y-127468380D01*
X180157333Y-127468380D01*
X180014476Y-127516000D01*
X179966857Y-127563619D01*
X179014476Y-128468380D02*
X179585904Y-128468380D01*
X179300190Y-128468380D02*
X179300190Y-127468380D01*
X179395428Y-127611238D01*
X179490666Y-127706476D01*
X179585904Y-127754095D01*
X178538285Y-128468380D02*
X178347809Y-128468380D01*
X178252571Y-128420761D01*
X178204952Y-128373142D01*
X178109714Y-128230285D01*
X178062095Y-128039809D01*
X178062095Y-127658857D01*
X178109714Y-127563619D01*
X178157333Y-127516000D01*
X178252571Y-127468380D01*
X178443047Y-127468380D01*
X178538285Y-127516000D01*
X178585904Y-127563619D01*
X178633523Y-127658857D01*
X178633523Y-127896952D01*
X178585904Y-127992190D01*
X178538285Y-128039809D01*
X178443047Y-128087428D01*
X178252571Y-128087428D01*
X178157333Y-128039809D01*
X178109714Y-127992190D01*
X178062095Y-127896952D01*
%TO.C,C24*%
X180220857Y-120753142D02*
X180268476Y-120800761D01*
X180411333Y-120848380D01*
X180506571Y-120848380D01*
X180649428Y-120800761D01*
X180744666Y-120705523D01*
X180792285Y-120610285D01*
X180839904Y-120419809D01*
X180839904Y-120276952D01*
X180792285Y-120086476D01*
X180744666Y-119991238D01*
X180649428Y-119896000D01*
X180506571Y-119848380D01*
X180411333Y-119848380D01*
X180268476Y-119896000D01*
X180220857Y-119943619D01*
X179839904Y-119943619D02*
X179792285Y-119896000D01*
X179697047Y-119848380D01*
X179458952Y-119848380D01*
X179363714Y-119896000D01*
X179316095Y-119943619D01*
X179268476Y-120038857D01*
X179268476Y-120134095D01*
X179316095Y-120276952D01*
X179887523Y-120848380D01*
X179268476Y-120848380D01*
X178411333Y-120181714D02*
X178411333Y-120848380D01*
X178649428Y-119800761D02*
X178887523Y-120515047D01*
X178268476Y-120515047D01*
%TO.C,R26*%
X184792857Y-129780380D02*
X185126190Y-129304190D01*
X185364285Y-129780380D02*
X185364285Y-128780380D01*
X184983333Y-128780380D01*
X184888095Y-128828000D01*
X184840476Y-128875619D01*
X184792857Y-128970857D01*
X184792857Y-129113714D01*
X184840476Y-129208952D01*
X184888095Y-129256571D01*
X184983333Y-129304190D01*
X185364285Y-129304190D01*
X184411904Y-128875619D02*
X184364285Y-128828000D01*
X184269047Y-128780380D01*
X184030952Y-128780380D01*
X183935714Y-128828000D01*
X183888095Y-128875619D01*
X183840476Y-128970857D01*
X183840476Y-129066095D01*
X183888095Y-129208952D01*
X184459523Y-129780380D01*
X183840476Y-129780380D01*
X182983333Y-128780380D02*
X183173809Y-128780380D01*
X183269047Y-128828000D01*
X183316666Y-128875619D01*
X183411904Y-129018476D01*
X183459523Y-129208952D01*
X183459523Y-129589904D01*
X183411904Y-129685142D01*
X183364285Y-129732761D01*
X183269047Y-129780380D01*
X183078571Y-129780380D01*
X182983333Y-129732761D01*
X182935714Y-129685142D01*
X182888095Y-129589904D01*
X182888095Y-129351809D01*
X182935714Y-129256571D01*
X182983333Y-129208952D01*
X183078571Y-129161333D01*
X183269047Y-129161333D01*
X183364285Y-129208952D01*
X183411904Y-129256571D01*
X183459523Y-129351809D01*
%TD*%
M02*
