M48
; DRILL file {KiCad (5.1.0)-1} date 7/9/2022 8:49:58 PM
; FORMAT={-:-/ absolute / inch / decimal}
; #@! TF.CreationDate,2022-07-09T20:49:58+03:00
; #@! TF.GenerationSoftware,Kicad,Pcbnew,(5.1.0)-1
; #@! TF.FileFunction,Plated,1,2,PTH
FMAT,2
INCH
T1C0.0157
T2C0.0300
T3C0.0315
T4C0.0394
T5C0.0551
T6C0.0598
T7C0.1772
%
G90
G05
T1
X3.4Y-3.4728
X3.4Y-3.58
X3.4Y-3.68
X3.4184Y-3.7816
X3.4664Y-3.4064
X3.4834Y-3.8466
X3.6615Y-3.2985
X3.7715Y-3.2985
X3.8815Y-3.2985
X3.955Y-3.355
X3.98Y-4.17
X3.98Y-4.24
X3.98Y-4.31
X3.99Y-3.94
X4.02Y-3.42
X4.05Y-4.11
X4.07Y-3.21
X4.08Y-3.85
X4.09Y-3.49
X4.16Y-3.29
X4.16Y-3.94
X4.175Y-3.555
X4.315Y-3.555
X4.32Y-4.42
X4.32Y-4.56
X4.38Y-4.49
X4.435Y-3.555
X4.635Y-3.555
X4.69Y-4.43
X4.69Y-4.5
X4.69Y-4.57
X4.69Y-4.64
X4.73Y-4.34
X4.75Y-4.64
X4.765Y-3.555
X4.79Y-4.25
X4.81Y-3.35
X4.88Y-3.29
X4.95Y-3.35
X4.955Y-3.555
X4.97Y-4.48
X4.97Y-4.57
X4.97Y-4.66
X5.04Y-4.87
X5.07Y-4.55
X5.07Y-4.64
X5.07Y-4.73
X5.09Y-4.87
X5.105Y-3.555
X5.3Y-4.15
X5.3Y-4.3
X5.3Y-4.45
X5.38Y-4.22
X5.38Y-4.38
X5.45Y-4.15
X5.45Y-4.3
X5.45Y-4.45
X5.68Y-4.66
X5.75Y-4.66
X5.78Y-3.38
X5.78Y-3.43
X5.84Y-3.38
X6.04Y-4.35
X6.075Y-3.125
X6.11Y-3.66
X6.11Y-4.29
X6.16Y-3.66
X6.25Y-3.175
X6.58Y-4.21
X6.67Y-3.56
X6.72Y-3.56
X6.83Y-4.17
X6.9Y-4.07
X6.9Y-4.17
X6.9Y-4.24
X7.01Y-4.07
X7.01Y-4.16
X7.01Y-4.82
X7.01Y-4.92
X7.07Y-4.75
X7.07Y-4.99
X7.11Y-4.07
X7.26Y-4.82
X7.32Y-4.07
X7.32Y-4.75
X7.32Y-4.89
X7.4Y-3.6
X7.43Y-4.46
X7.46Y-3.68
X7.49Y-3.99
X7.49Y-4.04
X7.51Y-3.68
X7.51Y-4.53
T2
X5.675Y-2.97
X5.675Y-3.07
X5.675Y-5.37
X5.675Y-5.47
X5.775Y-2.97
X5.775Y-3.07
X5.775Y-5.37
X5.775Y-5.47
X5.875Y-2.97
X5.875Y-3.07
X5.875Y-5.37
X5.875Y-5.47
X5.975Y-2.97
X5.975Y-3.07
X5.975Y-5.37
X5.975Y-5.47
X6.075Y-2.97
X6.075Y-3.07
X6.075Y-5.37
X6.075Y-5.47
X6.175Y-2.97
X6.175Y-3.07
X6.175Y-5.37
X6.175Y-5.47
X6.275Y-2.97
X6.275Y-3.07
X6.275Y-5.37
X6.275Y-5.47
X6.375Y-2.97
X6.375Y-3.07
X6.375Y-5.37
X6.375Y-5.47
X6.475Y-2.97
X6.475Y-3.07
X6.475Y-5.37
X6.475Y-5.47
X6.575Y-2.97
X6.575Y-3.07
X6.575Y-5.37
X6.575Y-5.47
X6.675Y-2.97
X6.675Y-3.07
X6.675Y-5.37
X6.675Y-5.47
X6.775Y-2.97
X6.775Y-3.07
X6.775Y-5.37
X6.775Y-5.47
X6.875Y-2.97
X6.875Y-3.07
X6.875Y-5.37
X6.875Y-5.47
X6.975Y-2.97
X6.975Y-3.07
X6.975Y-5.37
X6.975Y-5.47
X7.075Y-2.97
X7.075Y-3.07
X7.075Y-5.37
X7.075Y-5.47
X7.175Y-2.97
X7.175Y-3.07
X7.175Y-5.37
X7.175Y-5.47
X7.275Y-2.97
X7.275Y-3.07
X7.275Y-5.37
X7.275Y-5.47
X7.375Y-2.97
X7.375Y-3.07
X7.375Y-5.37
X7.375Y-5.47
X7.475Y-2.97
X7.475Y-3.07
X7.475Y-5.37
X7.475Y-5.47
T3
X3.8Y-2.9
X3.8Y-5.8
X4.1Y-3.0
X4.2014Y-4.5786
X4.35Y-4.02
X4.4Y-2.9
X4.4Y-3.1
X4.4Y-5.8
X4.5Y-3.9
X4.7Y-3.0
X4.7Y-3.2
X4.7Y-3.9
X4.87Y-4.95
X5.0Y-2.9
X5.0Y-3.1
X5.0Y-5.8
X5.08Y-4.02
X5.21Y-4.95
X5.3Y-3.0
X5.3Y-3.2
X5.3Y-3.4
X5.38Y-4.87
X5.6Y-2.9
X5.6Y-4.9
X5.6Y-5.25
X5.6Y-5.8
X5.8Y-4.9
X5.8Y-5.25
X5.9Y-4.02
X6.0Y-4.9
X6.0Y-5.25
X6.1Y-3.9
X6.2Y-4.47
X6.2Y-4.9
X6.2Y-5.25
X6.2Y-5.8
X6.26Y-4.02
X6.4Y-4.7
X6.4Y-4.9
X6.4Y-5.25
X6.48Y-3.46
X6.6Y-4.7
X6.6Y-4.9
X6.6Y-5.25
X6.8Y-5.25
X6.8Y-5.8
X6.99Y-4.36
X7.19Y-3.675
X7.4Y-5.8
X7.73Y-4.82
X7.9Y-3.5
X7.9Y-4.1
X7.9Y-4.7
X7.9Y-5.3
X4.39Y-5.4531
X4.39Y-5.65
X5.225Y-3.555
X5.225Y-3.7519
X4.535Y-3.555
X4.535Y-3.7519
X4.04Y-5.4531
X4.04Y-5.65
X4.74Y-5.4531
X4.74Y-5.65
X4.88Y-3.555
X4.88Y-3.7519
T4
X6.745Y-4.68
X4.53Y-4.19
X7.43Y-5.02
X7.53Y-5.02
X3.4645Y-4.52
X3.5645Y-4.52
X5.99Y-5.72
X6.09Y-5.72
X6.275Y-3.41
X5.555Y-3.92
X5.655Y-3.92
X5.755Y-3.92
X3.8Y-5.41
X3.8Y-5.51
T5
X3.5663Y-4.6445
X3.5663Y-5.2835
X4.0663Y-4.6445
X4.0663Y-5.2835
X3.5743Y-3.2985
X3.5743Y-3.9375
X4.0743Y-3.2985
X4.0743Y-3.9375
T6
X5.03Y-5.56
X5.23Y-5.56
T7
X3.55Y-5.65
X3.55Y-3.05
X7.75Y-5.65
X7.75Y-3.05
T0
M30
