%TF.GenerationSoftware,KiCad,Pcbnew,(5.1.0)-1*%
%TF.CreationDate,2022-07-09T20:49:55+03:00*%
%TF.ProjectId,octaver,6f637461-7665-4722-9e6b-696361645f70,rev?*%
%TF.SameCoordinates,Original*%
%TF.FileFunction,Soldermask,Top*%
%TF.FilePolarity,Negative*%
%FSLAX46Y46*%
G04 Gerber Fmt 4.6, Leading zero omitted, Abs format (unit mm)*
G04 Created by KiCad (PCBNEW (5.1.0)-1) date 2022-07-09 20:49:55*
%MOMM*%
%LPD*%
G04 APERTURE LIST*
%ADD10R,0.750000X1.625000*%
%ADD11R,1.625000X0.750000*%
%ADD12C,1.624000*%
%ADD13R,1.600000X2.100000*%
%ADD14R,3.900000X2.100000*%
%ADD15C,3.100000*%
%ADD16R,3.100000X3.100000*%
%ADD17R,1.200000X0.700000*%
%ADD18C,9.100000*%
%ADD19C,2.200000*%
%ADD20R,1.800000X1.800000*%
%ADD21O,1.800000X1.800000*%
%ADD22R,1.700000X1.700000*%
%ADD23C,1.700000*%
%ADD24C,0.100000*%
%ADD25C,1.525000*%
G04 APERTURE END LIST*
D10*
%TO.C,U2*%
X184861200Y-95763800D03*
X186131200Y-95763800D03*
X187401200Y-95763800D03*
X188671200Y-95763800D03*
X188671200Y-101187800D03*
X187401200Y-101187800D03*
X186131200Y-101187800D03*
X184861200Y-101187800D03*
%TD*%
%TO.C,U9*%
X164592000Y-98343000D03*
X165862000Y-98343000D03*
X167132000Y-98343000D03*
X168402000Y-98343000D03*
X168402000Y-92919000D03*
X167132000Y-92919000D03*
X165862000Y-92919000D03*
X164592000Y-92919000D03*
%TD*%
%TO.C,U5*%
X170942000Y-110535000D03*
X169672000Y-110535000D03*
X168402000Y-110535000D03*
X167132000Y-110535000D03*
X167132000Y-105111000D03*
X168402000Y-105111000D03*
X169672000Y-105111000D03*
X170942000Y-105111000D03*
%TD*%
D11*
%TO.C,U4*%
X146182800Y-113461800D03*
X146182800Y-114731800D03*
X146182800Y-116001800D03*
X146182800Y-117271800D03*
X151606800Y-117271800D03*
X151606800Y-116001800D03*
X151606800Y-114731800D03*
X151606800Y-113461800D03*
%TD*%
D10*
%TO.C,U3*%
X106680000Y-106000000D03*
X105410000Y-106000000D03*
X104140000Y-106000000D03*
X102870000Y-106000000D03*
X102870000Y-111424000D03*
X104140000Y-111424000D03*
X105410000Y-111424000D03*
X106680000Y-111424000D03*
%TD*%
%TO.C,U1*%
X133985000Y-115652000D03*
X132715000Y-115652000D03*
X131445000Y-115652000D03*
X130175000Y-115652000D03*
X130175000Y-121076000D03*
X131445000Y-121076000D03*
X132715000Y-121076000D03*
X133985000Y-121076000D03*
%TD*%
D12*
%TO.C,U8*%
X154305000Y-75438000D03*
X159385000Y-77978000D03*
X182245000Y-75438000D03*
X161925000Y-75438000D03*
X161925000Y-77978000D03*
X182245000Y-77978000D03*
X169545000Y-77978000D03*
X174625000Y-77978000D03*
X179705000Y-77978000D03*
X151765000Y-77978000D03*
X184785000Y-75438000D03*
X172085000Y-75438000D03*
X159385000Y-75438000D03*
X144145000Y-75438000D03*
X144145000Y-77978000D03*
X146685000Y-77978000D03*
X174625000Y-75438000D03*
X189865000Y-75438000D03*
X167005000Y-75438000D03*
X149225000Y-77978000D03*
X172085000Y-77978000D03*
X177165000Y-77978000D03*
X164465000Y-75438000D03*
X151765000Y-75438000D03*
X184785000Y-77978000D03*
X167005000Y-77978000D03*
X189865000Y-77978000D03*
X187325000Y-77978000D03*
X149225000Y-75438000D03*
X164465000Y-77978000D03*
X179705000Y-75438000D03*
X169545000Y-75438000D03*
X187325000Y-75438000D03*
X177165000Y-75438000D03*
X156845000Y-75438000D03*
X146685000Y-75438000D03*
X154305000Y-77978000D03*
X156845000Y-77978000D03*
X164465000Y-138938000D03*
X187325000Y-138938000D03*
X184785000Y-138938000D03*
X189865000Y-138938000D03*
X179705000Y-138938000D03*
X177165000Y-138938000D03*
X174625000Y-138938000D03*
X172085000Y-138938000D03*
X169545000Y-138938000D03*
X182245000Y-138938000D03*
X167005000Y-138938000D03*
X161925000Y-138938000D03*
X156845000Y-138938000D03*
X159385000Y-138938000D03*
X154305000Y-138938000D03*
X151765000Y-138938000D03*
X149225000Y-138938000D03*
X146685000Y-138938000D03*
X144145000Y-138938000D03*
X144145000Y-136398000D03*
X146685000Y-136398000D03*
X149225000Y-136398000D03*
X151765000Y-136398000D03*
X154305000Y-136398000D03*
X156845000Y-136398000D03*
X159385000Y-136398000D03*
X161925000Y-136398000D03*
X164465000Y-136398000D03*
X167005000Y-136398000D03*
X169545000Y-136398000D03*
X172085000Y-136398000D03*
X174625000Y-136398000D03*
X177165000Y-136398000D03*
X179705000Y-136398000D03*
X182245000Y-136398000D03*
X184785000Y-136398000D03*
X187325000Y-136398000D03*
X189865000Y-136398000D03*
%TD*%
D13*
%TO.C,U6*%
X115810000Y-135230000D03*
X120410000Y-135230000D03*
X118110000Y-135230000D03*
D14*
X118110000Y-128930000D03*
%TD*%
D15*
%TO.C,J5*%
X132842000Y-141224000D03*
D16*
X127762000Y-141224000D03*
%TD*%
D17*
%TO.C,IC2*%
X121582000Y-110236000D03*
X123782000Y-109286000D03*
X123782000Y-111186000D03*
%TD*%
D18*
%TO.C,H4*%
X196850000Y-143510000D03*
%TD*%
%TO.C,H3*%
X196850000Y-77470000D03*
%TD*%
%TO.C,H2*%
X90170000Y-143510000D03*
%TD*%
%TO.C,H1*%
X90170000Y-77470000D03*
%TD*%
D19*
%TO.C,J1*%
X90583800Y-117970600D03*
X103283800Y-117970600D03*
X103283800Y-134200600D03*
X90583800Y-134200600D03*
%TD*%
%TO.C,J2*%
X90787000Y-100012200D03*
X103487000Y-100012200D03*
X103487000Y-83782200D03*
X90787000Y-83782200D03*
%TD*%
D20*
%TO.C,J3*%
X90538300Y-114808000D03*
D21*
X87998300Y-114808000D03*
%TD*%
%TO.C,J4*%
X146177000Y-99568000D03*
X143637000Y-99568000D03*
D20*
X141097000Y-99568000D03*
%TD*%
%TO.C,TP1*%
X115062000Y-106426000D03*
%TD*%
%TO.C,TP2*%
X159385000Y-86614000D03*
%TD*%
%TO.C,TP3*%
X171323000Y-118872000D03*
%TD*%
D22*
%TO.C,C25*%
X102616000Y-143510000D03*
D23*
X102616000Y-138510000D03*
%TD*%
%TO.C,C26*%
X120396000Y-138510000D03*
D22*
X120396000Y-143510000D03*
%TD*%
%TO.C,C27*%
X111506000Y-143510000D03*
D23*
X111506000Y-138510000D03*
%TD*%
%TO.C,C12*%
X115189000Y-95297000D03*
D22*
X115189000Y-90297000D03*
%TD*%
%TO.C,C29*%
X123952000Y-90297000D03*
D23*
X123952000Y-95297000D03*
%TD*%
D22*
%TO.C,C30*%
X132715000Y-90297000D03*
D23*
X132715000Y-95297000D03*
%TD*%
D24*
%TO.C,C2*%
G36*
X132128680Y-111470288D02*
G01*
X132154651Y-111474141D01*
X132180120Y-111480520D01*
X132204841Y-111489366D01*
X132228575Y-111500591D01*
X132251095Y-111514089D01*
X132272184Y-111529730D01*
X132291638Y-111547362D01*
X132309270Y-111566816D01*
X132324911Y-111587905D01*
X132338409Y-111610425D01*
X132349634Y-111634159D01*
X132358480Y-111658880D01*
X132364859Y-111684349D01*
X132368712Y-111710320D01*
X132370000Y-111736544D01*
X132370000Y-112726456D01*
X132368712Y-112752680D01*
X132364859Y-112778651D01*
X132358480Y-112804120D01*
X132349634Y-112828841D01*
X132338409Y-112852575D01*
X132324911Y-112875095D01*
X132309270Y-112896184D01*
X132291638Y-112915638D01*
X132272184Y-112933270D01*
X132251095Y-112948911D01*
X132228575Y-112962409D01*
X132204841Y-112973634D01*
X132180120Y-112982480D01*
X132154651Y-112988859D01*
X132128680Y-112992712D01*
X132102456Y-112994000D01*
X130787544Y-112994000D01*
X130761320Y-112992712D01*
X130735349Y-112988859D01*
X130709880Y-112982480D01*
X130685159Y-112973634D01*
X130661425Y-112962409D01*
X130638905Y-112948911D01*
X130617816Y-112933270D01*
X130598362Y-112915638D01*
X130580730Y-112896184D01*
X130565089Y-112875095D01*
X130551591Y-112852575D01*
X130540366Y-112828841D01*
X130531520Y-112804120D01*
X130525141Y-112778651D01*
X130521288Y-112752680D01*
X130520000Y-112726456D01*
X130520000Y-111736544D01*
X130521288Y-111710320D01*
X130525141Y-111684349D01*
X130531520Y-111658880D01*
X130540366Y-111634159D01*
X130551591Y-111610425D01*
X130565089Y-111587905D01*
X130580730Y-111566816D01*
X130598362Y-111547362D01*
X130617816Y-111529730D01*
X130638905Y-111514089D01*
X130661425Y-111500591D01*
X130685159Y-111489366D01*
X130709880Y-111480520D01*
X130735349Y-111474141D01*
X130761320Y-111470288D01*
X130787544Y-111469000D01*
X132102456Y-111469000D01*
X132128680Y-111470288D01*
X132128680Y-111470288D01*
G37*
D25*
X131445000Y-112231500D03*
D24*
G36*
X132128680Y-108495288D02*
G01*
X132154651Y-108499141D01*
X132180120Y-108505520D01*
X132204841Y-108514366D01*
X132228575Y-108525591D01*
X132251095Y-108539089D01*
X132272184Y-108554730D01*
X132291638Y-108572362D01*
X132309270Y-108591816D01*
X132324911Y-108612905D01*
X132338409Y-108635425D01*
X132349634Y-108659159D01*
X132358480Y-108683880D01*
X132364859Y-108709349D01*
X132368712Y-108735320D01*
X132370000Y-108761544D01*
X132370000Y-109751456D01*
X132368712Y-109777680D01*
X132364859Y-109803651D01*
X132358480Y-109829120D01*
X132349634Y-109853841D01*
X132338409Y-109877575D01*
X132324911Y-109900095D01*
X132309270Y-109921184D01*
X132291638Y-109940638D01*
X132272184Y-109958270D01*
X132251095Y-109973911D01*
X132228575Y-109987409D01*
X132204841Y-109998634D01*
X132180120Y-110007480D01*
X132154651Y-110013859D01*
X132128680Y-110017712D01*
X132102456Y-110019000D01*
X130787544Y-110019000D01*
X130761320Y-110017712D01*
X130735349Y-110013859D01*
X130709880Y-110007480D01*
X130685159Y-109998634D01*
X130661425Y-109987409D01*
X130638905Y-109973911D01*
X130617816Y-109958270D01*
X130598362Y-109940638D01*
X130580730Y-109921184D01*
X130565089Y-109900095D01*
X130551591Y-109877575D01*
X130540366Y-109853841D01*
X130531520Y-109829120D01*
X130525141Y-109803651D01*
X130521288Y-109777680D01*
X130520000Y-109751456D01*
X130520000Y-108761544D01*
X130521288Y-108735320D01*
X130525141Y-108709349D01*
X130531520Y-108683880D01*
X130540366Y-108659159D01*
X130551591Y-108635425D01*
X130565089Y-108612905D01*
X130580730Y-108591816D01*
X130598362Y-108572362D01*
X130617816Y-108554730D01*
X130638905Y-108539089D01*
X130661425Y-108525591D01*
X130685159Y-108514366D01*
X130709880Y-108505520D01*
X130735349Y-108499141D01*
X130761320Y-108495288D01*
X130787544Y-108494000D01*
X132102456Y-108494000D01*
X132128680Y-108495288D01*
X132128680Y-108495288D01*
G37*
D25*
X131445000Y-109256500D03*
%TD*%
D24*
%TO.C,C3*%
G36*
X114730680Y-108677288D02*
G01*
X114756651Y-108681141D01*
X114782120Y-108687520D01*
X114806841Y-108696366D01*
X114830575Y-108707591D01*
X114853095Y-108721089D01*
X114874184Y-108736730D01*
X114893638Y-108754362D01*
X114911270Y-108773816D01*
X114926911Y-108794905D01*
X114940409Y-108817425D01*
X114951634Y-108841159D01*
X114960480Y-108865880D01*
X114966859Y-108891349D01*
X114970712Y-108917320D01*
X114972000Y-108943544D01*
X114972000Y-110258456D01*
X114970712Y-110284680D01*
X114966859Y-110310651D01*
X114960480Y-110336120D01*
X114951634Y-110360841D01*
X114940409Y-110384575D01*
X114926911Y-110407095D01*
X114911270Y-110428184D01*
X114893638Y-110447638D01*
X114874184Y-110465270D01*
X114853095Y-110480911D01*
X114830575Y-110494409D01*
X114806841Y-110505634D01*
X114782120Y-110514480D01*
X114756651Y-110520859D01*
X114730680Y-110524712D01*
X114704456Y-110526000D01*
X113714544Y-110526000D01*
X113688320Y-110524712D01*
X113662349Y-110520859D01*
X113636880Y-110514480D01*
X113612159Y-110505634D01*
X113588425Y-110494409D01*
X113565905Y-110480911D01*
X113544816Y-110465270D01*
X113525362Y-110447638D01*
X113507730Y-110428184D01*
X113492089Y-110407095D01*
X113478591Y-110384575D01*
X113467366Y-110360841D01*
X113458520Y-110336120D01*
X113452141Y-110310651D01*
X113448288Y-110284680D01*
X113447000Y-110258456D01*
X113447000Y-108943544D01*
X113448288Y-108917320D01*
X113452141Y-108891349D01*
X113458520Y-108865880D01*
X113467366Y-108841159D01*
X113478591Y-108817425D01*
X113492089Y-108794905D01*
X113507730Y-108773816D01*
X113525362Y-108754362D01*
X113544816Y-108736730D01*
X113565905Y-108721089D01*
X113588425Y-108707591D01*
X113612159Y-108696366D01*
X113636880Y-108687520D01*
X113662349Y-108681141D01*
X113688320Y-108677288D01*
X113714544Y-108676000D01*
X114704456Y-108676000D01*
X114730680Y-108677288D01*
X114730680Y-108677288D01*
G37*
D25*
X114209500Y-109601000D03*
D24*
G36*
X117705680Y-108677288D02*
G01*
X117731651Y-108681141D01*
X117757120Y-108687520D01*
X117781841Y-108696366D01*
X117805575Y-108707591D01*
X117828095Y-108721089D01*
X117849184Y-108736730D01*
X117868638Y-108754362D01*
X117886270Y-108773816D01*
X117901911Y-108794905D01*
X117915409Y-108817425D01*
X117926634Y-108841159D01*
X117935480Y-108865880D01*
X117941859Y-108891349D01*
X117945712Y-108917320D01*
X117947000Y-108943544D01*
X117947000Y-110258456D01*
X117945712Y-110284680D01*
X117941859Y-110310651D01*
X117935480Y-110336120D01*
X117926634Y-110360841D01*
X117915409Y-110384575D01*
X117901911Y-110407095D01*
X117886270Y-110428184D01*
X117868638Y-110447638D01*
X117849184Y-110465270D01*
X117828095Y-110480911D01*
X117805575Y-110494409D01*
X117781841Y-110505634D01*
X117757120Y-110514480D01*
X117731651Y-110520859D01*
X117705680Y-110524712D01*
X117679456Y-110526000D01*
X116689544Y-110526000D01*
X116663320Y-110524712D01*
X116637349Y-110520859D01*
X116611880Y-110514480D01*
X116587159Y-110505634D01*
X116563425Y-110494409D01*
X116540905Y-110480911D01*
X116519816Y-110465270D01*
X116500362Y-110447638D01*
X116482730Y-110428184D01*
X116467089Y-110407095D01*
X116453591Y-110384575D01*
X116442366Y-110360841D01*
X116433520Y-110336120D01*
X116427141Y-110310651D01*
X116423288Y-110284680D01*
X116422000Y-110258456D01*
X116422000Y-108943544D01*
X116423288Y-108917320D01*
X116427141Y-108891349D01*
X116433520Y-108865880D01*
X116442366Y-108841159D01*
X116453591Y-108817425D01*
X116467089Y-108794905D01*
X116482730Y-108773816D01*
X116500362Y-108754362D01*
X116519816Y-108736730D01*
X116540905Y-108721089D01*
X116563425Y-108707591D01*
X116587159Y-108696366D01*
X116611880Y-108687520D01*
X116637349Y-108681141D01*
X116663320Y-108677288D01*
X116689544Y-108676000D01*
X117679456Y-108676000D01*
X117705680Y-108677288D01*
X117705680Y-108677288D01*
G37*
D25*
X117184500Y-109601000D03*
%TD*%
D24*
%TO.C,C4*%
G36*
X187936680Y-102581288D02*
G01*
X187962651Y-102585141D01*
X187988120Y-102591520D01*
X188012841Y-102600366D01*
X188036575Y-102611591D01*
X188059095Y-102625089D01*
X188080184Y-102640730D01*
X188099638Y-102658362D01*
X188117270Y-102677816D01*
X188132911Y-102698905D01*
X188146409Y-102721425D01*
X188157634Y-102745159D01*
X188166480Y-102769880D01*
X188172859Y-102795349D01*
X188176712Y-102821320D01*
X188178000Y-102847544D01*
X188178000Y-104162456D01*
X188176712Y-104188680D01*
X188172859Y-104214651D01*
X188166480Y-104240120D01*
X188157634Y-104264841D01*
X188146409Y-104288575D01*
X188132911Y-104311095D01*
X188117270Y-104332184D01*
X188099638Y-104351638D01*
X188080184Y-104369270D01*
X188059095Y-104384911D01*
X188036575Y-104398409D01*
X188012841Y-104409634D01*
X187988120Y-104418480D01*
X187962651Y-104424859D01*
X187936680Y-104428712D01*
X187910456Y-104430000D01*
X186920544Y-104430000D01*
X186894320Y-104428712D01*
X186868349Y-104424859D01*
X186842880Y-104418480D01*
X186818159Y-104409634D01*
X186794425Y-104398409D01*
X186771905Y-104384911D01*
X186750816Y-104369270D01*
X186731362Y-104351638D01*
X186713730Y-104332184D01*
X186698089Y-104311095D01*
X186684591Y-104288575D01*
X186673366Y-104264841D01*
X186664520Y-104240120D01*
X186658141Y-104214651D01*
X186654288Y-104188680D01*
X186653000Y-104162456D01*
X186653000Y-102847544D01*
X186654288Y-102821320D01*
X186658141Y-102795349D01*
X186664520Y-102769880D01*
X186673366Y-102745159D01*
X186684591Y-102721425D01*
X186698089Y-102698905D01*
X186713730Y-102677816D01*
X186731362Y-102658362D01*
X186750816Y-102640730D01*
X186771905Y-102625089D01*
X186794425Y-102611591D01*
X186818159Y-102600366D01*
X186842880Y-102591520D01*
X186868349Y-102585141D01*
X186894320Y-102581288D01*
X186920544Y-102580000D01*
X187910456Y-102580000D01*
X187936680Y-102581288D01*
X187936680Y-102581288D01*
G37*
D25*
X187415500Y-103505000D03*
D24*
G36*
X184961680Y-102581288D02*
G01*
X184987651Y-102585141D01*
X185013120Y-102591520D01*
X185037841Y-102600366D01*
X185061575Y-102611591D01*
X185084095Y-102625089D01*
X185105184Y-102640730D01*
X185124638Y-102658362D01*
X185142270Y-102677816D01*
X185157911Y-102698905D01*
X185171409Y-102721425D01*
X185182634Y-102745159D01*
X185191480Y-102769880D01*
X185197859Y-102795349D01*
X185201712Y-102821320D01*
X185203000Y-102847544D01*
X185203000Y-104162456D01*
X185201712Y-104188680D01*
X185197859Y-104214651D01*
X185191480Y-104240120D01*
X185182634Y-104264841D01*
X185171409Y-104288575D01*
X185157911Y-104311095D01*
X185142270Y-104332184D01*
X185124638Y-104351638D01*
X185105184Y-104369270D01*
X185084095Y-104384911D01*
X185061575Y-104398409D01*
X185037841Y-104409634D01*
X185013120Y-104418480D01*
X184987651Y-104424859D01*
X184961680Y-104428712D01*
X184935456Y-104430000D01*
X183945544Y-104430000D01*
X183919320Y-104428712D01*
X183893349Y-104424859D01*
X183867880Y-104418480D01*
X183843159Y-104409634D01*
X183819425Y-104398409D01*
X183796905Y-104384911D01*
X183775816Y-104369270D01*
X183756362Y-104351638D01*
X183738730Y-104332184D01*
X183723089Y-104311095D01*
X183709591Y-104288575D01*
X183698366Y-104264841D01*
X183689520Y-104240120D01*
X183683141Y-104214651D01*
X183679288Y-104188680D01*
X183678000Y-104162456D01*
X183678000Y-102847544D01*
X183679288Y-102821320D01*
X183683141Y-102795349D01*
X183689520Y-102769880D01*
X183698366Y-102745159D01*
X183709591Y-102721425D01*
X183723089Y-102698905D01*
X183738730Y-102677816D01*
X183756362Y-102658362D01*
X183775816Y-102640730D01*
X183796905Y-102625089D01*
X183819425Y-102611591D01*
X183843159Y-102600366D01*
X183867880Y-102591520D01*
X183893349Y-102585141D01*
X183919320Y-102581288D01*
X183945544Y-102580000D01*
X184935456Y-102580000D01*
X184961680Y-102581288D01*
X184961680Y-102581288D01*
G37*
D25*
X184440500Y-103505000D03*
%TD*%
D24*
%TO.C,C5*%
G36*
X97258680Y-105756288D02*
G01*
X97284651Y-105760141D01*
X97310120Y-105766520D01*
X97334841Y-105775366D01*
X97358575Y-105786591D01*
X97381095Y-105800089D01*
X97402184Y-105815730D01*
X97421638Y-105833362D01*
X97439270Y-105852816D01*
X97454911Y-105873905D01*
X97468409Y-105896425D01*
X97479634Y-105920159D01*
X97488480Y-105944880D01*
X97494859Y-105970349D01*
X97498712Y-105996320D01*
X97500000Y-106022544D01*
X97500000Y-107337456D01*
X97498712Y-107363680D01*
X97494859Y-107389651D01*
X97488480Y-107415120D01*
X97479634Y-107439841D01*
X97468409Y-107463575D01*
X97454911Y-107486095D01*
X97439270Y-107507184D01*
X97421638Y-107526638D01*
X97402184Y-107544270D01*
X97381095Y-107559911D01*
X97358575Y-107573409D01*
X97334841Y-107584634D01*
X97310120Y-107593480D01*
X97284651Y-107599859D01*
X97258680Y-107603712D01*
X97232456Y-107605000D01*
X96242544Y-107605000D01*
X96216320Y-107603712D01*
X96190349Y-107599859D01*
X96164880Y-107593480D01*
X96140159Y-107584634D01*
X96116425Y-107573409D01*
X96093905Y-107559911D01*
X96072816Y-107544270D01*
X96053362Y-107526638D01*
X96035730Y-107507184D01*
X96020089Y-107486095D01*
X96006591Y-107463575D01*
X95995366Y-107439841D01*
X95986520Y-107415120D01*
X95980141Y-107389651D01*
X95976288Y-107363680D01*
X95975000Y-107337456D01*
X95975000Y-106022544D01*
X95976288Y-105996320D01*
X95980141Y-105970349D01*
X95986520Y-105944880D01*
X95995366Y-105920159D01*
X96006591Y-105896425D01*
X96020089Y-105873905D01*
X96035730Y-105852816D01*
X96053362Y-105833362D01*
X96072816Y-105815730D01*
X96093905Y-105800089D01*
X96116425Y-105786591D01*
X96140159Y-105775366D01*
X96164880Y-105766520D01*
X96190349Y-105760141D01*
X96216320Y-105756288D01*
X96242544Y-105755000D01*
X97232456Y-105755000D01*
X97258680Y-105756288D01*
X97258680Y-105756288D01*
G37*
D25*
X96737500Y-106680000D03*
D24*
G36*
X94283680Y-105756288D02*
G01*
X94309651Y-105760141D01*
X94335120Y-105766520D01*
X94359841Y-105775366D01*
X94383575Y-105786591D01*
X94406095Y-105800089D01*
X94427184Y-105815730D01*
X94446638Y-105833362D01*
X94464270Y-105852816D01*
X94479911Y-105873905D01*
X94493409Y-105896425D01*
X94504634Y-105920159D01*
X94513480Y-105944880D01*
X94519859Y-105970349D01*
X94523712Y-105996320D01*
X94525000Y-106022544D01*
X94525000Y-107337456D01*
X94523712Y-107363680D01*
X94519859Y-107389651D01*
X94513480Y-107415120D01*
X94504634Y-107439841D01*
X94493409Y-107463575D01*
X94479911Y-107486095D01*
X94464270Y-107507184D01*
X94446638Y-107526638D01*
X94427184Y-107544270D01*
X94406095Y-107559911D01*
X94383575Y-107573409D01*
X94359841Y-107584634D01*
X94335120Y-107593480D01*
X94309651Y-107599859D01*
X94283680Y-107603712D01*
X94257456Y-107605000D01*
X93267544Y-107605000D01*
X93241320Y-107603712D01*
X93215349Y-107599859D01*
X93189880Y-107593480D01*
X93165159Y-107584634D01*
X93141425Y-107573409D01*
X93118905Y-107559911D01*
X93097816Y-107544270D01*
X93078362Y-107526638D01*
X93060730Y-107507184D01*
X93045089Y-107486095D01*
X93031591Y-107463575D01*
X93020366Y-107439841D01*
X93011520Y-107415120D01*
X93005141Y-107389651D01*
X93001288Y-107363680D01*
X93000000Y-107337456D01*
X93000000Y-106022544D01*
X93001288Y-105996320D01*
X93005141Y-105970349D01*
X93011520Y-105944880D01*
X93020366Y-105920159D01*
X93031591Y-105896425D01*
X93045089Y-105873905D01*
X93060730Y-105852816D01*
X93078362Y-105833362D01*
X93097816Y-105815730D01*
X93118905Y-105800089D01*
X93141425Y-105786591D01*
X93165159Y-105775366D01*
X93189880Y-105766520D01*
X93215349Y-105760141D01*
X93241320Y-105756288D01*
X93267544Y-105755000D01*
X94257456Y-105755000D01*
X94283680Y-105756288D01*
X94283680Y-105756288D01*
G37*
D25*
X93762500Y-106680000D03*
%TD*%
D24*
%TO.C,C6*%
G36*
X97076680Y-114010288D02*
G01*
X97102651Y-114014141D01*
X97128120Y-114020520D01*
X97152841Y-114029366D01*
X97176575Y-114040591D01*
X97199095Y-114054089D01*
X97220184Y-114069730D01*
X97239638Y-114087362D01*
X97257270Y-114106816D01*
X97272911Y-114127905D01*
X97286409Y-114150425D01*
X97297634Y-114174159D01*
X97306480Y-114198880D01*
X97312859Y-114224349D01*
X97316712Y-114250320D01*
X97318000Y-114276544D01*
X97318000Y-115266456D01*
X97316712Y-115292680D01*
X97312859Y-115318651D01*
X97306480Y-115344120D01*
X97297634Y-115368841D01*
X97286409Y-115392575D01*
X97272911Y-115415095D01*
X97257270Y-115436184D01*
X97239638Y-115455638D01*
X97220184Y-115473270D01*
X97199095Y-115488911D01*
X97176575Y-115502409D01*
X97152841Y-115513634D01*
X97128120Y-115522480D01*
X97102651Y-115528859D01*
X97076680Y-115532712D01*
X97050456Y-115534000D01*
X95735544Y-115534000D01*
X95709320Y-115532712D01*
X95683349Y-115528859D01*
X95657880Y-115522480D01*
X95633159Y-115513634D01*
X95609425Y-115502409D01*
X95586905Y-115488911D01*
X95565816Y-115473270D01*
X95546362Y-115455638D01*
X95528730Y-115436184D01*
X95513089Y-115415095D01*
X95499591Y-115392575D01*
X95488366Y-115368841D01*
X95479520Y-115344120D01*
X95473141Y-115318651D01*
X95469288Y-115292680D01*
X95468000Y-115266456D01*
X95468000Y-114276544D01*
X95469288Y-114250320D01*
X95473141Y-114224349D01*
X95479520Y-114198880D01*
X95488366Y-114174159D01*
X95499591Y-114150425D01*
X95513089Y-114127905D01*
X95528730Y-114106816D01*
X95546362Y-114087362D01*
X95565816Y-114069730D01*
X95586905Y-114054089D01*
X95609425Y-114040591D01*
X95633159Y-114029366D01*
X95657880Y-114020520D01*
X95683349Y-114014141D01*
X95709320Y-114010288D01*
X95735544Y-114009000D01*
X97050456Y-114009000D01*
X97076680Y-114010288D01*
X97076680Y-114010288D01*
G37*
D25*
X96393000Y-114771500D03*
D24*
G36*
X97076680Y-111035288D02*
G01*
X97102651Y-111039141D01*
X97128120Y-111045520D01*
X97152841Y-111054366D01*
X97176575Y-111065591D01*
X97199095Y-111079089D01*
X97220184Y-111094730D01*
X97239638Y-111112362D01*
X97257270Y-111131816D01*
X97272911Y-111152905D01*
X97286409Y-111175425D01*
X97297634Y-111199159D01*
X97306480Y-111223880D01*
X97312859Y-111249349D01*
X97316712Y-111275320D01*
X97318000Y-111301544D01*
X97318000Y-112291456D01*
X97316712Y-112317680D01*
X97312859Y-112343651D01*
X97306480Y-112369120D01*
X97297634Y-112393841D01*
X97286409Y-112417575D01*
X97272911Y-112440095D01*
X97257270Y-112461184D01*
X97239638Y-112480638D01*
X97220184Y-112498270D01*
X97199095Y-112513911D01*
X97176575Y-112527409D01*
X97152841Y-112538634D01*
X97128120Y-112547480D01*
X97102651Y-112553859D01*
X97076680Y-112557712D01*
X97050456Y-112559000D01*
X95735544Y-112559000D01*
X95709320Y-112557712D01*
X95683349Y-112553859D01*
X95657880Y-112547480D01*
X95633159Y-112538634D01*
X95609425Y-112527409D01*
X95586905Y-112513911D01*
X95565816Y-112498270D01*
X95546362Y-112480638D01*
X95528730Y-112461184D01*
X95513089Y-112440095D01*
X95499591Y-112417575D01*
X95488366Y-112393841D01*
X95479520Y-112369120D01*
X95473141Y-112343651D01*
X95469288Y-112317680D01*
X95468000Y-112291456D01*
X95468000Y-111301544D01*
X95469288Y-111275320D01*
X95473141Y-111249349D01*
X95479520Y-111223880D01*
X95488366Y-111199159D01*
X95499591Y-111175425D01*
X95513089Y-111152905D01*
X95528730Y-111131816D01*
X95546362Y-111112362D01*
X95565816Y-111094730D01*
X95586905Y-111079089D01*
X95609425Y-111065591D01*
X95633159Y-111054366D01*
X95657880Y-111045520D01*
X95683349Y-111039141D01*
X95709320Y-111035288D01*
X95735544Y-111034000D01*
X97050456Y-111034000D01*
X97076680Y-111035288D01*
X97076680Y-111035288D01*
G37*
D25*
X96393000Y-111796500D03*
%TD*%
D24*
%TO.C,C7*%
G36*
X142161680Y-114899288D02*
G01*
X142187651Y-114903141D01*
X142213120Y-114909520D01*
X142237841Y-114918366D01*
X142261575Y-114929591D01*
X142284095Y-114943089D01*
X142305184Y-114958730D01*
X142324638Y-114976362D01*
X142342270Y-114995816D01*
X142357911Y-115016905D01*
X142371409Y-115039425D01*
X142382634Y-115063159D01*
X142391480Y-115087880D01*
X142397859Y-115113349D01*
X142401712Y-115139320D01*
X142403000Y-115165544D01*
X142403000Y-116155456D01*
X142401712Y-116181680D01*
X142397859Y-116207651D01*
X142391480Y-116233120D01*
X142382634Y-116257841D01*
X142371409Y-116281575D01*
X142357911Y-116304095D01*
X142342270Y-116325184D01*
X142324638Y-116344638D01*
X142305184Y-116362270D01*
X142284095Y-116377911D01*
X142261575Y-116391409D01*
X142237841Y-116402634D01*
X142213120Y-116411480D01*
X142187651Y-116417859D01*
X142161680Y-116421712D01*
X142135456Y-116423000D01*
X140820544Y-116423000D01*
X140794320Y-116421712D01*
X140768349Y-116417859D01*
X140742880Y-116411480D01*
X140718159Y-116402634D01*
X140694425Y-116391409D01*
X140671905Y-116377911D01*
X140650816Y-116362270D01*
X140631362Y-116344638D01*
X140613730Y-116325184D01*
X140598089Y-116304095D01*
X140584591Y-116281575D01*
X140573366Y-116257841D01*
X140564520Y-116233120D01*
X140558141Y-116207651D01*
X140554288Y-116181680D01*
X140553000Y-116155456D01*
X140553000Y-115165544D01*
X140554288Y-115139320D01*
X140558141Y-115113349D01*
X140564520Y-115087880D01*
X140573366Y-115063159D01*
X140584591Y-115039425D01*
X140598089Y-115016905D01*
X140613730Y-114995816D01*
X140631362Y-114976362D01*
X140650816Y-114958730D01*
X140671905Y-114943089D01*
X140694425Y-114929591D01*
X140718159Y-114918366D01*
X140742880Y-114909520D01*
X140768349Y-114903141D01*
X140794320Y-114899288D01*
X140820544Y-114898000D01*
X142135456Y-114898000D01*
X142161680Y-114899288D01*
X142161680Y-114899288D01*
G37*
D25*
X141478000Y-115660500D03*
D24*
G36*
X142161680Y-111924288D02*
G01*
X142187651Y-111928141D01*
X142213120Y-111934520D01*
X142237841Y-111943366D01*
X142261575Y-111954591D01*
X142284095Y-111968089D01*
X142305184Y-111983730D01*
X142324638Y-112001362D01*
X142342270Y-112020816D01*
X142357911Y-112041905D01*
X142371409Y-112064425D01*
X142382634Y-112088159D01*
X142391480Y-112112880D01*
X142397859Y-112138349D01*
X142401712Y-112164320D01*
X142403000Y-112190544D01*
X142403000Y-113180456D01*
X142401712Y-113206680D01*
X142397859Y-113232651D01*
X142391480Y-113258120D01*
X142382634Y-113282841D01*
X142371409Y-113306575D01*
X142357911Y-113329095D01*
X142342270Y-113350184D01*
X142324638Y-113369638D01*
X142305184Y-113387270D01*
X142284095Y-113402911D01*
X142261575Y-113416409D01*
X142237841Y-113427634D01*
X142213120Y-113436480D01*
X142187651Y-113442859D01*
X142161680Y-113446712D01*
X142135456Y-113448000D01*
X140820544Y-113448000D01*
X140794320Y-113446712D01*
X140768349Y-113442859D01*
X140742880Y-113436480D01*
X140718159Y-113427634D01*
X140694425Y-113416409D01*
X140671905Y-113402911D01*
X140650816Y-113387270D01*
X140631362Y-113369638D01*
X140613730Y-113350184D01*
X140598089Y-113329095D01*
X140584591Y-113306575D01*
X140573366Y-113282841D01*
X140564520Y-113258120D01*
X140558141Y-113232651D01*
X140554288Y-113206680D01*
X140553000Y-113180456D01*
X140553000Y-112190544D01*
X140554288Y-112164320D01*
X140558141Y-112138349D01*
X140564520Y-112112880D01*
X140573366Y-112088159D01*
X140584591Y-112064425D01*
X140598089Y-112041905D01*
X140613730Y-112020816D01*
X140631362Y-112001362D01*
X140650816Y-111983730D01*
X140671905Y-111968089D01*
X140694425Y-111954591D01*
X140718159Y-111943366D01*
X140742880Y-111934520D01*
X140768349Y-111928141D01*
X140794320Y-111924288D01*
X140820544Y-111923000D01*
X142135456Y-111923000D01*
X142161680Y-111924288D01*
X142161680Y-111924288D01*
G37*
D25*
X141478000Y-112685500D03*
%TD*%
D24*
%TO.C,C8*%
G36*
X158417680Y-116115288D02*
G01*
X158443651Y-116119141D01*
X158469120Y-116125520D01*
X158493841Y-116134366D01*
X158517575Y-116145591D01*
X158540095Y-116159089D01*
X158561184Y-116174730D01*
X158580638Y-116192362D01*
X158598270Y-116211816D01*
X158613911Y-116232905D01*
X158627409Y-116255425D01*
X158638634Y-116279159D01*
X158647480Y-116303880D01*
X158653859Y-116329349D01*
X158657712Y-116355320D01*
X158659000Y-116381544D01*
X158659000Y-117371456D01*
X158657712Y-117397680D01*
X158653859Y-117423651D01*
X158647480Y-117449120D01*
X158638634Y-117473841D01*
X158627409Y-117497575D01*
X158613911Y-117520095D01*
X158598270Y-117541184D01*
X158580638Y-117560638D01*
X158561184Y-117578270D01*
X158540095Y-117593911D01*
X158517575Y-117607409D01*
X158493841Y-117618634D01*
X158469120Y-117627480D01*
X158443651Y-117633859D01*
X158417680Y-117637712D01*
X158391456Y-117639000D01*
X157076544Y-117639000D01*
X157050320Y-117637712D01*
X157024349Y-117633859D01*
X156998880Y-117627480D01*
X156974159Y-117618634D01*
X156950425Y-117607409D01*
X156927905Y-117593911D01*
X156906816Y-117578270D01*
X156887362Y-117560638D01*
X156869730Y-117541184D01*
X156854089Y-117520095D01*
X156840591Y-117497575D01*
X156829366Y-117473841D01*
X156820520Y-117449120D01*
X156814141Y-117423651D01*
X156810288Y-117397680D01*
X156809000Y-117371456D01*
X156809000Y-116381544D01*
X156810288Y-116355320D01*
X156814141Y-116329349D01*
X156820520Y-116303880D01*
X156829366Y-116279159D01*
X156840591Y-116255425D01*
X156854089Y-116232905D01*
X156869730Y-116211816D01*
X156887362Y-116192362D01*
X156906816Y-116174730D01*
X156927905Y-116159089D01*
X156950425Y-116145591D01*
X156974159Y-116134366D01*
X156998880Y-116125520D01*
X157024349Y-116119141D01*
X157050320Y-116115288D01*
X157076544Y-116114000D01*
X158391456Y-116114000D01*
X158417680Y-116115288D01*
X158417680Y-116115288D01*
G37*
D25*
X157734000Y-116876500D03*
D24*
G36*
X158417680Y-119090288D02*
G01*
X158443651Y-119094141D01*
X158469120Y-119100520D01*
X158493841Y-119109366D01*
X158517575Y-119120591D01*
X158540095Y-119134089D01*
X158561184Y-119149730D01*
X158580638Y-119167362D01*
X158598270Y-119186816D01*
X158613911Y-119207905D01*
X158627409Y-119230425D01*
X158638634Y-119254159D01*
X158647480Y-119278880D01*
X158653859Y-119304349D01*
X158657712Y-119330320D01*
X158659000Y-119356544D01*
X158659000Y-120346456D01*
X158657712Y-120372680D01*
X158653859Y-120398651D01*
X158647480Y-120424120D01*
X158638634Y-120448841D01*
X158627409Y-120472575D01*
X158613911Y-120495095D01*
X158598270Y-120516184D01*
X158580638Y-120535638D01*
X158561184Y-120553270D01*
X158540095Y-120568911D01*
X158517575Y-120582409D01*
X158493841Y-120593634D01*
X158469120Y-120602480D01*
X158443651Y-120608859D01*
X158417680Y-120612712D01*
X158391456Y-120614000D01*
X157076544Y-120614000D01*
X157050320Y-120612712D01*
X157024349Y-120608859D01*
X156998880Y-120602480D01*
X156974159Y-120593634D01*
X156950425Y-120582409D01*
X156927905Y-120568911D01*
X156906816Y-120553270D01*
X156887362Y-120535638D01*
X156869730Y-120516184D01*
X156854089Y-120495095D01*
X156840591Y-120472575D01*
X156829366Y-120448841D01*
X156820520Y-120424120D01*
X156814141Y-120398651D01*
X156810288Y-120372680D01*
X156809000Y-120346456D01*
X156809000Y-119356544D01*
X156810288Y-119330320D01*
X156814141Y-119304349D01*
X156820520Y-119278880D01*
X156829366Y-119254159D01*
X156840591Y-119230425D01*
X156854089Y-119207905D01*
X156869730Y-119186816D01*
X156887362Y-119167362D01*
X156906816Y-119149730D01*
X156927905Y-119134089D01*
X156950425Y-119120591D01*
X156974159Y-119109366D01*
X156998880Y-119100520D01*
X157024349Y-119094141D01*
X157050320Y-119090288D01*
X157076544Y-119089000D01*
X158391456Y-119089000D01*
X158417680Y-119090288D01*
X158417680Y-119090288D01*
G37*
D25*
X157734000Y-119851500D03*
%TD*%
D24*
%TO.C,C9*%
G36*
X162917680Y-94453288D02*
G01*
X162943651Y-94457141D01*
X162969120Y-94463520D01*
X162993841Y-94472366D01*
X163017575Y-94483591D01*
X163040095Y-94497089D01*
X163061184Y-94512730D01*
X163080638Y-94530362D01*
X163098270Y-94549816D01*
X163113911Y-94570905D01*
X163127409Y-94593425D01*
X163138634Y-94617159D01*
X163147480Y-94641880D01*
X163153859Y-94667349D01*
X163157712Y-94693320D01*
X163159000Y-94719544D01*
X163159000Y-96034456D01*
X163157712Y-96060680D01*
X163153859Y-96086651D01*
X163147480Y-96112120D01*
X163138634Y-96136841D01*
X163127409Y-96160575D01*
X163113911Y-96183095D01*
X163098270Y-96204184D01*
X163080638Y-96223638D01*
X163061184Y-96241270D01*
X163040095Y-96256911D01*
X163017575Y-96270409D01*
X162993841Y-96281634D01*
X162969120Y-96290480D01*
X162943651Y-96296859D01*
X162917680Y-96300712D01*
X162891456Y-96302000D01*
X161901544Y-96302000D01*
X161875320Y-96300712D01*
X161849349Y-96296859D01*
X161823880Y-96290480D01*
X161799159Y-96281634D01*
X161775425Y-96270409D01*
X161752905Y-96256911D01*
X161731816Y-96241270D01*
X161712362Y-96223638D01*
X161694730Y-96204184D01*
X161679089Y-96183095D01*
X161665591Y-96160575D01*
X161654366Y-96136841D01*
X161645520Y-96112120D01*
X161639141Y-96086651D01*
X161635288Y-96060680D01*
X161634000Y-96034456D01*
X161634000Y-94719544D01*
X161635288Y-94693320D01*
X161639141Y-94667349D01*
X161645520Y-94641880D01*
X161654366Y-94617159D01*
X161665591Y-94593425D01*
X161679089Y-94570905D01*
X161694730Y-94549816D01*
X161712362Y-94530362D01*
X161731816Y-94512730D01*
X161752905Y-94497089D01*
X161775425Y-94483591D01*
X161799159Y-94472366D01*
X161823880Y-94463520D01*
X161849349Y-94457141D01*
X161875320Y-94453288D01*
X161901544Y-94452000D01*
X162891456Y-94452000D01*
X162917680Y-94453288D01*
X162917680Y-94453288D01*
G37*
D25*
X162396500Y-95377000D03*
D24*
G36*
X159942680Y-94453288D02*
G01*
X159968651Y-94457141D01*
X159994120Y-94463520D01*
X160018841Y-94472366D01*
X160042575Y-94483591D01*
X160065095Y-94497089D01*
X160086184Y-94512730D01*
X160105638Y-94530362D01*
X160123270Y-94549816D01*
X160138911Y-94570905D01*
X160152409Y-94593425D01*
X160163634Y-94617159D01*
X160172480Y-94641880D01*
X160178859Y-94667349D01*
X160182712Y-94693320D01*
X160184000Y-94719544D01*
X160184000Y-96034456D01*
X160182712Y-96060680D01*
X160178859Y-96086651D01*
X160172480Y-96112120D01*
X160163634Y-96136841D01*
X160152409Y-96160575D01*
X160138911Y-96183095D01*
X160123270Y-96204184D01*
X160105638Y-96223638D01*
X160086184Y-96241270D01*
X160065095Y-96256911D01*
X160042575Y-96270409D01*
X160018841Y-96281634D01*
X159994120Y-96290480D01*
X159968651Y-96296859D01*
X159942680Y-96300712D01*
X159916456Y-96302000D01*
X158926544Y-96302000D01*
X158900320Y-96300712D01*
X158874349Y-96296859D01*
X158848880Y-96290480D01*
X158824159Y-96281634D01*
X158800425Y-96270409D01*
X158777905Y-96256911D01*
X158756816Y-96241270D01*
X158737362Y-96223638D01*
X158719730Y-96204184D01*
X158704089Y-96183095D01*
X158690591Y-96160575D01*
X158679366Y-96136841D01*
X158670520Y-96112120D01*
X158664141Y-96086651D01*
X158660288Y-96060680D01*
X158659000Y-96034456D01*
X158659000Y-94719544D01*
X158660288Y-94693320D01*
X158664141Y-94667349D01*
X158670520Y-94641880D01*
X158679366Y-94617159D01*
X158690591Y-94593425D01*
X158704089Y-94570905D01*
X158719730Y-94549816D01*
X158737362Y-94530362D01*
X158756816Y-94512730D01*
X158777905Y-94497089D01*
X158800425Y-94483591D01*
X158824159Y-94472366D01*
X158848880Y-94463520D01*
X158874349Y-94457141D01*
X158900320Y-94453288D01*
X158926544Y-94452000D01*
X159916456Y-94452000D01*
X159942680Y-94453288D01*
X159942680Y-94453288D01*
G37*
D25*
X159421500Y-95377000D03*
%TD*%
D24*
%TO.C,C10*%
G36*
X174165680Y-106844288D02*
G01*
X174191651Y-106848141D01*
X174217120Y-106854520D01*
X174241841Y-106863366D01*
X174265575Y-106874591D01*
X174288095Y-106888089D01*
X174309184Y-106903730D01*
X174328638Y-106921362D01*
X174346270Y-106940816D01*
X174361911Y-106961905D01*
X174375409Y-106984425D01*
X174386634Y-107008159D01*
X174395480Y-107032880D01*
X174401859Y-107058349D01*
X174405712Y-107084320D01*
X174407000Y-107110544D01*
X174407000Y-108100456D01*
X174405712Y-108126680D01*
X174401859Y-108152651D01*
X174395480Y-108178120D01*
X174386634Y-108202841D01*
X174375409Y-108226575D01*
X174361911Y-108249095D01*
X174346270Y-108270184D01*
X174328638Y-108289638D01*
X174309184Y-108307270D01*
X174288095Y-108322911D01*
X174265575Y-108336409D01*
X174241841Y-108347634D01*
X174217120Y-108356480D01*
X174191651Y-108362859D01*
X174165680Y-108366712D01*
X174139456Y-108368000D01*
X172824544Y-108368000D01*
X172798320Y-108366712D01*
X172772349Y-108362859D01*
X172746880Y-108356480D01*
X172722159Y-108347634D01*
X172698425Y-108336409D01*
X172675905Y-108322911D01*
X172654816Y-108307270D01*
X172635362Y-108289638D01*
X172617730Y-108270184D01*
X172602089Y-108249095D01*
X172588591Y-108226575D01*
X172577366Y-108202841D01*
X172568520Y-108178120D01*
X172562141Y-108152651D01*
X172558288Y-108126680D01*
X172557000Y-108100456D01*
X172557000Y-107110544D01*
X172558288Y-107084320D01*
X172562141Y-107058349D01*
X172568520Y-107032880D01*
X172577366Y-107008159D01*
X172588591Y-106984425D01*
X172602089Y-106961905D01*
X172617730Y-106940816D01*
X172635362Y-106921362D01*
X172654816Y-106903730D01*
X172675905Y-106888089D01*
X172698425Y-106874591D01*
X172722159Y-106863366D01*
X172746880Y-106854520D01*
X172772349Y-106848141D01*
X172798320Y-106844288D01*
X172824544Y-106843000D01*
X174139456Y-106843000D01*
X174165680Y-106844288D01*
X174165680Y-106844288D01*
G37*
D25*
X173482000Y-107605500D03*
D24*
G36*
X174165680Y-109819288D02*
G01*
X174191651Y-109823141D01*
X174217120Y-109829520D01*
X174241841Y-109838366D01*
X174265575Y-109849591D01*
X174288095Y-109863089D01*
X174309184Y-109878730D01*
X174328638Y-109896362D01*
X174346270Y-109915816D01*
X174361911Y-109936905D01*
X174375409Y-109959425D01*
X174386634Y-109983159D01*
X174395480Y-110007880D01*
X174401859Y-110033349D01*
X174405712Y-110059320D01*
X174407000Y-110085544D01*
X174407000Y-111075456D01*
X174405712Y-111101680D01*
X174401859Y-111127651D01*
X174395480Y-111153120D01*
X174386634Y-111177841D01*
X174375409Y-111201575D01*
X174361911Y-111224095D01*
X174346270Y-111245184D01*
X174328638Y-111264638D01*
X174309184Y-111282270D01*
X174288095Y-111297911D01*
X174265575Y-111311409D01*
X174241841Y-111322634D01*
X174217120Y-111331480D01*
X174191651Y-111337859D01*
X174165680Y-111341712D01*
X174139456Y-111343000D01*
X172824544Y-111343000D01*
X172798320Y-111341712D01*
X172772349Y-111337859D01*
X172746880Y-111331480D01*
X172722159Y-111322634D01*
X172698425Y-111311409D01*
X172675905Y-111297911D01*
X172654816Y-111282270D01*
X172635362Y-111264638D01*
X172617730Y-111245184D01*
X172602089Y-111224095D01*
X172588591Y-111201575D01*
X172577366Y-111177841D01*
X172568520Y-111153120D01*
X172562141Y-111127651D01*
X172558288Y-111101680D01*
X172557000Y-111075456D01*
X172557000Y-110085544D01*
X172558288Y-110059320D01*
X172562141Y-110033349D01*
X172568520Y-110007880D01*
X172577366Y-109983159D01*
X172588591Y-109959425D01*
X172602089Y-109936905D01*
X172617730Y-109915816D01*
X172635362Y-109896362D01*
X172654816Y-109878730D01*
X172675905Y-109863089D01*
X172698425Y-109849591D01*
X172722159Y-109838366D01*
X172746880Y-109829520D01*
X172772349Y-109823141D01*
X172798320Y-109819288D01*
X172824544Y-109818000D01*
X174139456Y-109818000D01*
X174165680Y-109819288D01*
X174165680Y-109819288D01*
G37*
D25*
X173482000Y-110580500D03*
%TD*%
D24*
%TO.C,C11*%
G36*
X168959680Y-112360288D02*
G01*
X168985651Y-112364141D01*
X169011120Y-112370520D01*
X169035841Y-112379366D01*
X169059575Y-112390591D01*
X169082095Y-112404089D01*
X169103184Y-112419730D01*
X169122638Y-112437362D01*
X169140270Y-112456816D01*
X169155911Y-112477905D01*
X169169409Y-112500425D01*
X169180634Y-112524159D01*
X169189480Y-112548880D01*
X169195859Y-112574349D01*
X169199712Y-112600320D01*
X169201000Y-112626544D01*
X169201000Y-113941456D01*
X169199712Y-113967680D01*
X169195859Y-113993651D01*
X169189480Y-114019120D01*
X169180634Y-114043841D01*
X169169409Y-114067575D01*
X169155911Y-114090095D01*
X169140270Y-114111184D01*
X169122638Y-114130638D01*
X169103184Y-114148270D01*
X169082095Y-114163911D01*
X169059575Y-114177409D01*
X169035841Y-114188634D01*
X169011120Y-114197480D01*
X168985651Y-114203859D01*
X168959680Y-114207712D01*
X168933456Y-114209000D01*
X167943544Y-114209000D01*
X167917320Y-114207712D01*
X167891349Y-114203859D01*
X167865880Y-114197480D01*
X167841159Y-114188634D01*
X167817425Y-114177409D01*
X167794905Y-114163911D01*
X167773816Y-114148270D01*
X167754362Y-114130638D01*
X167736730Y-114111184D01*
X167721089Y-114090095D01*
X167707591Y-114067575D01*
X167696366Y-114043841D01*
X167687520Y-114019120D01*
X167681141Y-113993651D01*
X167677288Y-113967680D01*
X167676000Y-113941456D01*
X167676000Y-112626544D01*
X167677288Y-112600320D01*
X167681141Y-112574349D01*
X167687520Y-112548880D01*
X167696366Y-112524159D01*
X167707591Y-112500425D01*
X167721089Y-112477905D01*
X167736730Y-112456816D01*
X167754362Y-112437362D01*
X167773816Y-112419730D01*
X167794905Y-112404089D01*
X167817425Y-112390591D01*
X167841159Y-112379366D01*
X167865880Y-112370520D01*
X167891349Y-112364141D01*
X167917320Y-112360288D01*
X167943544Y-112359000D01*
X168933456Y-112359000D01*
X168959680Y-112360288D01*
X168959680Y-112360288D01*
G37*
D25*
X168438500Y-113284000D03*
D24*
G36*
X171934680Y-112360288D02*
G01*
X171960651Y-112364141D01*
X171986120Y-112370520D01*
X172010841Y-112379366D01*
X172034575Y-112390591D01*
X172057095Y-112404089D01*
X172078184Y-112419730D01*
X172097638Y-112437362D01*
X172115270Y-112456816D01*
X172130911Y-112477905D01*
X172144409Y-112500425D01*
X172155634Y-112524159D01*
X172164480Y-112548880D01*
X172170859Y-112574349D01*
X172174712Y-112600320D01*
X172176000Y-112626544D01*
X172176000Y-113941456D01*
X172174712Y-113967680D01*
X172170859Y-113993651D01*
X172164480Y-114019120D01*
X172155634Y-114043841D01*
X172144409Y-114067575D01*
X172130911Y-114090095D01*
X172115270Y-114111184D01*
X172097638Y-114130638D01*
X172078184Y-114148270D01*
X172057095Y-114163911D01*
X172034575Y-114177409D01*
X172010841Y-114188634D01*
X171986120Y-114197480D01*
X171960651Y-114203859D01*
X171934680Y-114207712D01*
X171908456Y-114209000D01*
X170918544Y-114209000D01*
X170892320Y-114207712D01*
X170866349Y-114203859D01*
X170840880Y-114197480D01*
X170816159Y-114188634D01*
X170792425Y-114177409D01*
X170769905Y-114163911D01*
X170748816Y-114148270D01*
X170729362Y-114130638D01*
X170711730Y-114111184D01*
X170696089Y-114090095D01*
X170682591Y-114067575D01*
X170671366Y-114043841D01*
X170662520Y-114019120D01*
X170656141Y-113993651D01*
X170652288Y-113967680D01*
X170651000Y-113941456D01*
X170651000Y-112626544D01*
X170652288Y-112600320D01*
X170656141Y-112574349D01*
X170662520Y-112548880D01*
X170671366Y-112524159D01*
X170682591Y-112500425D01*
X170696089Y-112477905D01*
X170711730Y-112456816D01*
X170729362Y-112437362D01*
X170748816Y-112419730D01*
X170769905Y-112404089D01*
X170792425Y-112390591D01*
X170816159Y-112379366D01*
X170840880Y-112370520D01*
X170866349Y-112364141D01*
X170892320Y-112360288D01*
X170918544Y-112359000D01*
X171908456Y-112359000D01*
X171934680Y-112360288D01*
X171934680Y-112360288D01*
G37*
D25*
X171413500Y-113284000D03*
%TD*%
D24*
%TO.C,C13*%
G36*
X107237680Y-113122288D02*
G01*
X107263651Y-113126141D01*
X107289120Y-113132520D01*
X107313841Y-113141366D01*
X107337575Y-113152591D01*
X107360095Y-113166089D01*
X107381184Y-113181730D01*
X107400638Y-113199362D01*
X107418270Y-113218816D01*
X107433911Y-113239905D01*
X107447409Y-113262425D01*
X107458634Y-113286159D01*
X107467480Y-113310880D01*
X107473859Y-113336349D01*
X107477712Y-113362320D01*
X107479000Y-113388544D01*
X107479000Y-114703456D01*
X107477712Y-114729680D01*
X107473859Y-114755651D01*
X107467480Y-114781120D01*
X107458634Y-114805841D01*
X107447409Y-114829575D01*
X107433911Y-114852095D01*
X107418270Y-114873184D01*
X107400638Y-114892638D01*
X107381184Y-114910270D01*
X107360095Y-114925911D01*
X107337575Y-114939409D01*
X107313841Y-114950634D01*
X107289120Y-114959480D01*
X107263651Y-114965859D01*
X107237680Y-114969712D01*
X107211456Y-114971000D01*
X106221544Y-114971000D01*
X106195320Y-114969712D01*
X106169349Y-114965859D01*
X106143880Y-114959480D01*
X106119159Y-114950634D01*
X106095425Y-114939409D01*
X106072905Y-114925911D01*
X106051816Y-114910270D01*
X106032362Y-114892638D01*
X106014730Y-114873184D01*
X105999089Y-114852095D01*
X105985591Y-114829575D01*
X105974366Y-114805841D01*
X105965520Y-114781120D01*
X105959141Y-114755651D01*
X105955288Y-114729680D01*
X105954000Y-114703456D01*
X105954000Y-113388544D01*
X105955288Y-113362320D01*
X105959141Y-113336349D01*
X105965520Y-113310880D01*
X105974366Y-113286159D01*
X105985591Y-113262425D01*
X105999089Y-113239905D01*
X106014730Y-113218816D01*
X106032362Y-113199362D01*
X106051816Y-113181730D01*
X106072905Y-113166089D01*
X106095425Y-113152591D01*
X106119159Y-113141366D01*
X106143880Y-113132520D01*
X106169349Y-113126141D01*
X106195320Y-113122288D01*
X106221544Y-113121000D01*
X107211456Y-113121000D01*
X107237680Y-113122288D01*
X107237680Y-113122288D01*
G37*
D25*
X106716500Y-114046000D03*
D24*
G36*
X110212680Y-113122288D02*
G01*
X110238651Y-113126141D01*
X110264120Y-113132520D01*
X110288841Y-113141366D01*
X110312575Y-113152591D01*
X110335095Y-113166089D01*
X110356184Y-113181730D01*
X110375638Y-113199362D01*
X110393270Y-113218816D01*
X110408911Y-113239905D01*
X110422409Y-113262425D01*
X110433634Y-113286159D01*
X110442480Y-113310880D01*
X110448859Y-113336349D01*
X110452712Y-113362320D01*
X110454000Y-113388544D01*
X110454000Y-114703456D01*
X110452712Y-114729680D01*
X110448859Y-114755651D01*
X110442480Y-114781120D01*
X110433634Y-114805841D01*
X110422409Y-114829575D01*
X110408911Y-114852095D01*
X110393270Y-114873184D01*
X110375638Y-114892638D01*
X110356184Y-114910270D01*
X110335095Y-114925911D01*
X110312575Y-114939409D01*
X110288841Y-114950634D01*
X110264120Y-114959480D01*
X110238651Y-114965859D01*
X110212680Y-114969712D01*
X110186456Y-114971000D01*
X109196544Y-114971000D01*
X109170320Y-114969712D01*
X109144349Y-114965859D01*
X109118880Y-114959480D01*
X109094159Y-114950634D01*
X109070425Y-114939409D01*
X109047905Y-114925911D01*
X109026816Y-114910270D01*
X109007362Y-114892638D01*
X108989730Y-114873184D01*
X108974089Y-114852095D01*
X108960591Y-114829575D01*
X108949366Y-114805841D01*
X108940520Y-114781120D01*
X108934141Y-114755651D01*
X108930288Y-114729680D01*
X108929000Y-114703456D01*
X108929000Y-113388544D01*
X108930288Y-113362320D01*
X108934141Y-113336349D01*
X108940520Y-113310880D01*
X108949366Y-113286159D01*
X108960591Y-113262425D01*
X108974089Y-113239905D01*
X108989730Y-113218816D01*
X109007362Y-113199362D01*
X109026816Y-113181730D01*
X109047905Y-113166089D01*
X109070425Y-113152591D01*
X109094159Y-113141366D01*
X109118880Y-113132520D01*
X109144349Y-113126141D01*
X109170320Y-113122288D01*
X109196544Y-113121000D01*
X110186456Y-113121000D01*
X110212680Y-113122288D01*
X110212680Y-113122288D01*
G37*
D25*
X109691500Y-114046000D03*
%TD*%
D24*
%TO.C,C14*%
G36*
X185342680Y-92421288D02*
G01*
X185368651Y-92425141D01*
X185394120Y-92431520D01*
X185418841Y-92440366D01*
X185442575Y-92451591D01*
X185465095Y-92465089D01*
X185486184Y-92480730D01*
X185505638Y-92498362D01*
X185523270Y-92517816D01*
X185538911Y-92538905D01*
X185552409Y-92561425D01*
X185563634Y-92585159D01*
X185572480Y-92609880D01*
X185578859Y-92635349D01*
X185582712Y-92661320D01*
X185584000Y-92687544D01*
X185584000Y-94002456D01*
X185582712Y-94028680D01*
X185578859Y-94054651D01*
X185572480Y-94080120D01*
X185563634Y-94104841D01*
X185552409Y-94128575D01*
X185538911Y-94151095D01*
X185523270Y-94172184D01*
X185505638Y-94191638D01*
X185486184Y-94209270D01*
X185465095Y-94224911D01*
X185442575Y-94238409D01*
X185418841Y-94249634D01*
X185394120Y-94258480D01*
X185368651Y-94264859D01*
X185342680Y-94268712D01*
X185316456Y-94270000D01*
X184326544Y-94270000D01*
X184300320Y-94268712D01*
X184274349Y-94264859D01*
X184248880Y-94258480D01*
X184224159Y-94249634D01*
X184200425Y-94238409D01*
X184177905Y-94224911D01*
X184156816Y-94209270D01*
X184137362Y-94191638D01*
X184119730Y-94172184D01*
X184104089Y-94151095D01*
X184090591Y-94128575D01*
X184079366Y-94104841D01*
X184070520Y-94080120D01*
X184064141Y-94054651D01*
X184060288Y-94028680D01*
X184059000Y-94002456D01*
X184059000Y-92687544D01*
X184060288Y-92661320D01*
X184064141Y-92635349D01*
X184070520Y-92609880D01*
X184079366Y-92585159D01*
X184090591Y-92561425D01*
X184104089Y-92538905D01*
X184119730Y-92517816D01*
X184137362Y-92498362D01*
X184156816Y-92480730D01*
X184177905Y-92465089D01*
X184200425Y-92451591D01*
X184224159Y-92440366D01*
X184248880Y-92431520D01*
X184274349Y-92425141D01*
X184300320Y-92421288D01*
X184326544Y-92420000D01*
X185316456Y-92420000D01*
X185342680Y-92421288D01*
X185342680Y-92421288D01*
G37*
D25*
X184821500Y-93345000D03*
D24*
G36*
X188317680Y-92421288D02*
G01*
X188343651Y-92425141D01*
X188369120Y-92431520D01*
X188393841Y-92440366D01*
X188417575Y-92451591D01*
X188440095Y-92465089D01*
X188461184Y-92480730D01*
X188480638Y-92498362D01*
X188498270Y-92517816D01*
X188513911Y-92538905D01*
X188527409Y-92561425D01*
X188538634Y-92585159D01*
X188547480Y-92609880D01*
X188553859Y-92635349D01*
X188557712Y-92661320D01*
X188559000Y-92687544D01*
X188559000Y-94002456D01*
X188557712Y-94028680D01*
X188553859Y-94054651D01*
X188547480Y-94080120D01*
X188538634Y-94104841D01*
X188527409Y-94128575D01*
X188513911Y-94151095D01*
X188498270Y-94172184D01*
X188480638Y-94191638D01*
X188461184Y-94209270D01*
X188440095Y-94224911D01*
X188417575Y-94238409D01*
X188393841Y-94249634D01*
X188369120Y-94258480D01*
X188343651Y-94264859D01*
X188317680Y-94268712D01*
X188291456Y-94270000D01*
X187301544Y-94270000D01*
X187275320Y-94268712D01*
X187249349Y-94264859D01*
X187223880Y-94258480D01*
X187199159Y-94249634D01*
X187175425Y-94238409D01*
X187152905Y-94224911D01*
X187131816Y-94209270D01*
X187112362Y-94191638D01*
X187094730Y-94172184D01*
X187079089Y-94151095D01*
X187065591Y-94128575D01*
X187054366Y-94104841D01*
X187045520Y-94080120D01*
X187039141Y-94054651D01*
X187035288Y-94028680D01*
X187034000Y-94002456D01*
X187034000Y-92687544D01*
X187035288Y-92661320D01*
X187039141Y-92635349D01*
X187045520Y-92609880D01*
X187054366Y-92585159D01*
X187065591Y-92561425D01*
X187079089Y-92538905D01*
X187094730Y-92517816D01*
X187112362Y-92498362D01*
X187131816Y-92480730D01*
X187152905Y-92465089D01*
X187175425Y-92451591D01*
X187199159Y-92440366D01*
X187223880Y-92431520D01*
X187249349Y-92425141D01*
X187275320Y-92421288D01*
X187301544Y-92420000D01*
X188291456Y-92420000D01*
X188317680Y-92421288D01*
X188317680Y-92421288D01*
G37*
D25*
X187796500Y-93345000D03*
%TD*%
D24*
%TO.C,C15*%
G36*
X155877680Y-112740288D02*
G01*
X155903651Y-112744141D01*
X155929120Y-112750520D01*
X155953841Y-112759366D01*
X155977575Y-112770591D01*
X156000095Y-112784089D01*
X156021184Y-112799730D01*
X156040638Y-112817362D01*
X156058270Y-112836816D01*
X156073911Y-112857905D01*
X156087409Y-112880425D01*
X156098634Y-112904159D01*
X156107480Y-112928880D01*
X156113859Y-112954349D01*
X156117712Y-112980320D01*
X156119000Y-113006544D01*
X156119000Y-113996456D01*
X156117712Y-114022680D01*
X156113859Y-114048651D01*
X156107480Y-114074120D01*
X156098634Y-114098841D01*
X156087409Y-114122575D01*
X156073911Y-114145095D01*
X156058270Y-114166184D01*
X156040638Y-114185638D01*
X156021184Y-114203270D01*
X156000095Y-114218911D01*
X155977575Y-114232409D01*
X155953841Y-114243634D01*
X155929120Y-114252480D01*
X155903651Y-114258859D01*
X155877680Y-114262712D01*
X155851456Y-114264000D01*
X154536544Y-114264000D01*
X154510320Y-114262712D01*
X154484349Y-114258859D01*
X154458880Y-114252480D01*
X154434159Y-114243634D01*
X154410425Y-114232409D01*
X154387905Y-114218911D01*
X154366816Y-114203270D01*
X154347362Y-114185638D01*
X154329730Y-114166184D01*
X154314089Y-114145095D01*
X154300591Y-114122575D01*
X154289366Y-114098841D01*
X154280520Y-114074120D01*
X154274141Y-114048651D01*
X154270288Y-114022680D01*
X154269000Y-113996456D01*
X154269000Y-113006544D01*
X154270288Y-112980320D01*
X154274141Y-112954349D01*
X154280520Y-112928880D01*
X154289366Y-112904159D01*
X154300591Y-112880425D01*
X154314089Y-112857905D01*
X154329730Y-112836816D01*
X154347362Y-112817362D01*
X154366816Y-112799730D01*
X154387905Y-112784089D01*
X154410425Y-112770591D01*
X154434159Y-112759366D01*
X154458880Y-112750520D01*
X154484349Y-112744141D01*
X154510320Y-112740288D01*
X154536544Y-112739000D01*
X155851456Y-112739000D01*
X155877680Y-112740288D01*
X155877680Y-112740288D01*
G37*
D25*
X155194000Y-113501500D03*
D24*
G36*
X155877680Y-109765288D02*
G01*
X155903651Y-109769141D01*
X155929120Y-109775520D01*
X155953841Y-109784366D01*
X155977575Y-109795591D01*
X156000095Y-109809089D01*
X156021184Y-109824730D01*
X156040638Y-109842362D01*
X156058270Y-109861816D01*
X156073911Y-109882905D01*
X156087409Y-109905425D01*
X156098634Y-109929159D01*
X156107480Y-109953880D01*
X156113859Y-109979349D01*
X156117712Y-110005320D01*
X156119000Y-110031544D01*
X156119000Y-111021456D01*
X156117712Y-111047680D01*
X156113859Y-111073651D01*
X156107480Y-111099120D01*
X156098634Y-111123841D01*
X156087409Y-111147575D01*
X156073911Y-111170095D01*
X156058270Y-111191184D01*
X156040638Y-111210638D01*
X156021184Y-111228270D01*
X156000095Y-111243911D01*
X155977575Y-111257409D01*
X155953841Y-111268634D01*
X155929120Y-111277480D01*
X155903651Y-111283859D01*
X155877680Y-111287712D01*
X155851456Y-111289000D01*
X154536544Y-111289000D01*
X154510320Y-111287712D01*
X154484349Y-111283859D01*
X154458880Y-111277480D01*
X154434159Y-111268634D01*
X154410425Y-111257409D01*
X154387905Y-111243911D01*
X154366816Y-111228270D01*
X154347362Y-111210638D01*
X154329730Y-111191184D01*
X154314089Y-111170095D01*
X154300591Y-111147575D01*
X154289366Y-111123841D01*
X154280520Y-111099120D01*
X154274141Y-111073651D01*
X154270288Y-111047680D01*
X154269000Y-111021456D01*
X154269000Y-110031544D01*
X154270288Y-110005320D01*
X154274141Y-109979349D01*
X154280520Y-109953880D01*
X154289366Y-109929159D01*
X154300591Y-109905425D01*
X154314089Y-109882905D01*
X154329730Y-109861816D01*
X154347362Y-109842362D01*
X154366816Y-109824730D01*
X154387905Y-109809089D01*
X154410425Y-109795591D01*
X154434159Y-109784366D01*
X154458880Y-109775520D01*
X154484349Y-109769141D01*
X154510320Y-109765288D01*
X154536544Y-109764000D01*
X155851456Y-109764000D01*
X155877680Y-109765288D01*
X155877680Y-109765288D01*
G37*
D25*
X155194000Y-110526500D03*
%TD*%
D24*
%TO.C,C16*%
G36*
X116761680Y-140680288D02*
G01*
X116787651Y-140684141D01*
X116813120Y-140690520D01*
X116837841Y-140699366D01*
X116861575Y-140710591D01*
X116884095Y-140724089D01*
X116905184Y-140739730D01*
X116924638Y-140757362D01*
X116942270Y-140776816D01*
X116957911Y-140797905D01*
X116971409Y-140820425D01*
X116982634Y-140844159D01*
X116991480Y-140868880D01*
X116997859Y-140894349D01*
X117001712Y-140920320D01*
X117003000Y-140946544D01*
X117003000Y-141936456D01*
X117001712Y-141962680D01*
X116997859Y-141988651D01*
X116991480Y-142014120D01*
X116982634Y-142038841D01*
X116971409Y-142062575D01*
X116957911Y-142085095D01*
X116942270Y-142106184D01*
X116924638Y-142125638D01*
X116905184Y-142143270D01*
X116884095Y-142158911D01*
X116861575Y-142172409D01*
X116837841Y-142183634D01*
X116813120Y-142192480D01*
X116787651Y-142198859D01*
X116761680Y-142202712D01*
X116735456Y-142204000D01*
X115420544Y-142204000D01*
X115394320Y-142202712D01*
X115368349Y-142198859D01*
X115342880Y-142192480D01*
X115318159Y-142183634D01*
X115294425Y-142172409D01*
X115271905Y-142158911D01*
X115250816Y-142143270D01*
X115231362Y-142125638D01*
X115213730Y-142106184D01*
X115198089Y-142085095D01*
X115184591Y-142062575D01*
X115173366Y-142038841D01*
X115164520Y-142014120D01*
X115158141Y-141988651D01*
X115154288Y-141962680D01*
X115153000Y-141936456D01*
X115153000Y-140946544D01*
X115154288Y-140920320D01*
X115158141Y-140894349D01*
X115164520Y-140868880D01*
X115173366Y-140844159D01*
X115184591Y-140820425D01*
X115198089Y-140797905D01*
X115213730Y-140776816D01*
X115231362Y-140757362D01*
X115250816Y-140739730D01*
X115271905Y-140724089D01*
X115294425Y-140710591D01*
X115318159Y-140699366D01*
X115342880Y-140690520D01*
X115368349Y-140684141D01*
X115394320Y-140680288D01*
X115420544Y-140679000D01*
X116735456Y-140679000D01*
X116761680Y-140680288D01*
X116761680Y-140680288D01*
G37*
D25*
X116078000Y-141441500D03*
D24*
G36*
X116761680Y-137705288D02*
G01*
X116787651Y-137709141D01*
X116813120Y-137715520D01*
X116837841Y-137724366D01*
X116861575Y-137735591D01*
X116884095Y-137749089D01*
X116905184Y-137764730D01*
X116924638Y-137782362D01*
X116942270Y-137801816D01*
X116957911Y-137822905D01*
X116971409Y-137845425D01*
X116982634Y-137869159D01*
X116991480Y-137893880D01*
X116997859Y-137919349D01*
X117001712Y-137945320D01*
X117003000Y-137971544D01*
X117003000Y-138961456D01*
X117001712Y-138987680D01*
X116997859Y-139013651D01*
X116991480Y-139039120D01*
X116982634Y-139063841D01*
X116971409Y-139087575D01*
X116957911Y-139110095D01*
X116942270Y-139131184D01*
X116924638Y-139150638D01*
X116905184Y-139168270D01*
X116884095Y-139183911D01*
X116861575Y-139197409D01*
X116837841Y-139208634D01*
X116813120Y-139217480D01*
X116787651Y-139223859D01*
X116761680Y-139227712D01*
X116735456Y-139229000D01*
X115420544Y-139229000D01*
X115394320Y-139227712D01*
X115368349Y-139223859D01*
X115342880Y-139217480D01*
X115318159Y-139208634D01*
X115294425Y-139197409D01*
X115271905Y-139183911D01*
X115250816Y-139168270D01*
X115231362Y-139150638D01*
X115213730Y-139131184D01*
X115198089Y-139110095D01*
X115184591Y-139087575D01*
X115173366Y-139063841D01*
X115164520Y-139039120D01*
X115158141Y-139013651D01*
X115154288Y-138987680D01*
X115153000Y-138961456D01*
X115153000Y-137971544D01*
X115154288Y-137945320D01*
X115158141Y-137919349D01*
X115164520Y-137893880D01*
X115173366Y-137869159D01*
X115184591Y-137845425D01*
X115198089Y-137822905D01*
X115213730Y-137801816D01*
X115231362Y-137782362D01*
X115250816Y-137764730D01*
X115271905Y-137749089D01*
X115294425Y-137735591D01*
X115318159Y-137724366D01*
X115342880Y-137715520D01*
X115368349Y-137709141D01*
X115394320Y-137705288D01*
X115420544Y-137704000D01*
X116735456Y-137704000D01*
X116761680Y-137705288D01*
X116761680Y-137705288D01*
G37*
D25*
X116078000Y-138466500D03*
%TD*%
D24*
%TO.C,C17*%
G36*
X124182680Y-112614288D02*
G01*
X124208651Y-112618141D01*
X124234120Y-112624520D01*
X124258841Y-112633366D01*
X124282575Y-112644591D01*
X124305095Y-112658089D01*
X124326184Y-112673730D01*
X124345638Y-112691362D01*
X124363270Y-112710816D01*
X124378911Y-112731905D01*
X124392409Y-112754425D01*
X124403634Y-112778159D01*
X124412480Y-112802880D01*
X124418859Y-112828349D01*
X124422712Y-112854320D01*
X124424000Y-112880544D01*
X124424000Y-114195456D01*
X124422712Y-114221680D01*
X124418859Y-114247651D01*
X124412480Y-114273120D01*
X124403634Y-114297841D01*
X124392409Y-114321575D01*
X124378911Y-114344095D01*
X124363270Y-114365184D01*
X124345638Y-114384638D01*
X124326184Y-114402270D01*
X124305095Y-114417911D01*
X124282575Y-114431409D01*
X124258841Y-114442634D01*
X124234120Y-114451480D01*
X124208651Y-114457859D01*
X124182680Y-114461712D01*
X124156456Y-114463000D01*
X123166544Y-114463000D01*
X123140320Y-114461712D01*
X123114349Y-114457859D01*
X123088880Y-114451480D01*
X123064159Y-114442634D01*
X123040425Y-114431409D01*
X123017905Y-114417911D01*
X122996816Y-114402270D01*
X122977362Y-114384638D01*
X122959730Y-114365184D01*
X122944089Y-114344095D01*
X122930591Y-114321575D01*
X122919366Y-114297841D01*
X122910520Y-114273120D01*
X122904141Y-114247651D01*
X122900288Y-114221680D01*
X122899000Y-114195456D01*
X122899000Y-112880544D01*
X122900288Y-112854320D01*
X122904141Y-112828349D01*
X122910520Y-112802880D01*
X122919366Y-112778159D01*
X122930591Y-112754425D01*
X122944089Y-112731905D01*
X122959730Y-112710816D01*
X122977362Y-112691362D01*
X122996816Y-112673730D01*
X123017905Y-112658089D01*
X123040425Y-112644591D01*
X123064159Y-112633366D01*
X123088880Y-112624520D01*
X123114349Y-112618141D01*
X123140320Y-112614288D01*
X123166544Y-112613000D01*
X124156456Y-112613000D01*
X124182680Y-112614288D01*
X124182680Y-112614288D01*
G37*
D25*
X123661500Y-113538000D03*
D24*
G36*
X121207680Y-112614288D02*
G01*
X121233651Y-112618141D01*
X121259120Y-112624520D01*
X121283841Y-112633366D01*
X121307575Y-112644591D01*
X121330095Y-112658089D01*
X121351184Y-112673730D01*
X121370638Y-112691362D01*
X121388270Y-112710816D01*
X121403911Y-112731905D01*
X121417409Y-112754425D01*
X121428634Y-112778159D01*
X121437480Y-112802880D01*
X121443859Y-112828349D01*
X121447712Y-112854320D01*
X121449000Y-112880544D01*
X121449000Y-114195456D01*
X121447712Y-114221680D01*
X121443859Y-114247651D01*
X121437480Y-114273120D01*
X121428634Y-114297841D01*
X121417409Y-114321575D01*
X121403911Y-114344095D01*
X121388270Y-114365184D01*
X121370638Y-114384638D01*
X121351184Y-114402270D01*
X121330095Y-114417911D01*
X121307575Y-114431409D01*
X121283841Y-114442634D01*
X121259120Y-114451480D01*
X121233651Y-114457859D01*
X121207680Y-114461712D01*
X121181456Y-114463000D01*
X120191544Y-114463000D01*
X120165320Y-114461712D01*
X120139349Y-114457859D01*
X120113880Y-114451480D01*
X120089159Y-114442634D01*
X120065425Y-114431409D01*
X120042905Y-114417911D01*
X120021816Y-114402270D01*
X120002362Y-114384638D01*
X119984730Y-114365184D01*
X119969089Y-114344095D01*
X119955591Y-114321575D01*
X119944366Y-114297841D01*
X119935520Y-114273120D01*
X119929141Y-114247651D01*
X119925288Y-114221680D01*
X119924000Y-114195456D01*
X119924000Y-112880544D01*
X119925288Y-112854320D01*
X119929141Y-112828349D01*
X119935520Y-112802880D01*
X119944366Y-112778159D01*
X119955591Y-112754425D01*
X119969089Y-112731905D01*
X119984730Y-112710816D01*
X120002362Y-112691362D01*
X120021816Y-112673730D01*
X120042905Y-112658089D01*
X120065425Y-112644591D01*
X120089159Y-112633366D01*
X120113880Y-112624520D01*
X120139349Y-112618141D01*
X120165320Y-112614288D01*
X120191544Y-112613000D01*
X121181456Y-112613000D01*
X121207680Y-112614288D01*
X121207680Y-112614288D01*
G37*
D25*
X120686500Y-113538000D03*
%TD*%
D24*
%TO.C,C18*%
G36*
X107617680Y-140680288D02*
G01*
X107643651Y-140684141D01*
X107669120Y-140690520D01*
X107693841Y-140699366D01*
X107717575Y-140710591D01*
X107740095Y-140724089D01*
X107761184Y-140739730D01*
X107780638Y-140757362D01*
X107798270Y-140776816D01*
X107813911Y-140797905D01*
X107827409Y-140820425D01*
X107838634Y-140844159D01*
X107847480Y-140868880D01*
X107853859Y-140894349D01*
X107857712Y-140920320D01*
X107859000Y-140946544D01*
X107859000Y-141936456D01*
X107857712Y-141962680D01*
X107853859Y-141988651D01*
X107847480Y-142014120D01*
X107838634Y-142038841D01*
X107827409Y-142062575D01*
X107813911Y-142085095D01*
X107798270Y-142106184D01*
X107780638Y-142125638D01*
X107761184Y-142143270D01*
X107740095Y-142158911D01*
X107717575Y-142172409D01*
X107693841Y-142183634D01*
X107669120Y-142192480D01*
X107643651Y-142198859D01*
X107617680Y-142202712D01*
X107591456Y-142204000D01*
X106276544Y-142204000D01*
X106250320Y-142202712D01*
X106224349Y-142198859D01*
X106198880Y-142192480D01*
X106174159Y-142183634D01*
X106150425Y-142172409D01*
X106127905Y-142158911D01*
X106106816Y-142143270D01*
X106087362Y-142125638D01*
X106069730Y-142106184D01*
X106054089Y-142085095D01*
X106040591Y-142062575D01*
X106029366Y-142038841D01*
X106020520Y-142014120D01*
X106014141Y-141988651D01*
X106010288Y-141962680D01*
X106009000Y-141936456D01*
X106009000Y-140946544D01*
X106010288Y-140920320D01*
X106014141Y-140894349D01*
X106020520Y-140868880D01*
X106029366Y-140844159D01*
X106040591Y-140820425D01*
X106054089Y-140797905D01*
X106069730Y-140776816D01*
X106087362Y-140757362D01*
X106106816Y-140739730D01*
X106127905Y-140724089D01*
X106150425Y-140710591D01*
X106174159Y-140699366D01*
X106198880Y-140690520D01*
X106224349Y-140684141D01*
X106250320Y-140680288D01*
X106276544Y-140679000D01*
X107591456Y-140679000D01*
X107617680Y-140680288D01*
X107617680Y-140680288D01*
G37*
D25*
X106934000Y-141441500D03*
D24*
G36*
X107617680Y-137705288D02*
G01*
X107643651Y-137709141D01*
X107669120Y-137715520D01*
X107693841Y-137724366D01*
X107717575Y-137735591D01*
X107740095Y-137749089D01*
X107761184Y-137764730D01*
X107780638Y-137782362D01*
X107798270Y-137801816D01*
X107813911Y-137822905D01*
X107827409Y-137845425D01*
X107838634Y-137869159D01*
X107847480Y-137893880D01*
X107853859Y-137919349D01*
X107857712Y-137945320D01*
X107859000Y-137971544D01*
X107859000Y-138961456D01*
X107857712Y-138987680D01*
X107853859Y-139013651D01*
X107847480Y-139039120D01*
X107838634Y-139063841D01*
X107827409Y-139087575D01*
X107813911Y-139110095D01*
X107798270Y-139131184D01*
X107780638Y-139150638D01*
X107761184Y-139168270D01*
X107740095Y-139183911D01*
X107717575Y-139197409D01*
X107693841Y-139208634D01*
X107669120Y-139217480D01*
X107643651Y-139223859D01*
X107617680Y-139227712D01*
X107591456Y-139229000D01*
X106276544Y-139229000D01*
X106250320Y-139227712D01*
X106224349Y-139223859D01*
X106198880Y-139217480D01*
X106174159Y-139208634D01*
X106150425Y-139197409D01*
X106127905Y-139183911D01*
X106106816Y-139168270D01*
X106087362Y-139150638D01*
X106069730Y-139131184D01*
X106054089Y-139110095D01*
X106040591Y-139087575D01*
X106029366Y-139063841D01*
X106020520Y-139039120D01*
X106014141Y-139013651D01*
X106010288Y-138987680D01*
X106009000Y-138961456D01*
X106009000Y-137971544D01*
X106010288Y-137945320D01*
X106014141Y-137919349D01*
X106020520Y-137893880D01*
X106029366Y-137869159D01*
X106040591Y-137845425D01*
X106054089Y-137822905D01*
X106069730Y-137801816D01*
X106087362Y-137782362D01*
X106106816Y-137764730D01*
X106127905Y-137749089D01*
X106150425Y-137735591D01*
X106174159Y-137724366D01*
X106198880Y-137715520D01*
X106224349Y-137709141D01*
X106250320Y-137705288D01*
X106276544Y-137704000D01*
X107591456Y-137704000D01*
X107617680Y-137705288D01*
X107617680Y-137705288D01*
G37*
D25*
X106934000Y-138466500D03*
%TD*%
D24*
%TO.C,C21*%
G36*
X121207680Y-115154288D02*
G01*
X121233651Y-115158141D01*
X121259120Y-115164520D01*
X121283841Y-115173366D01*
X121307575Y-115184591D01*
X121330095Y-115198089D01*
X121351184Y-115213730D01*
X121370638Y-115231362D01*
X121388270Y-115250816D01*
X121403911Y-115271905D01*
X121417409Y-115294425D01*
X121428634Y-115318159D01*
X121437480Y-115342880D01*
X121443859Y-115368349D01*
X121447712Y-115394320D01*
X121449000Y-115420544D01*
X121449000Y-116735456D01*
X121447712Y-116761680D01*
X121443859Y-116787651D01*
X121437480Y-116813120D01*
X121428634Y-116837841D01*
X121417409Y-116861575D01*
X121403911Y-116884095D01*
X121388270Y-116905184D01*
X121370638Y-116924638D01*
X121351184Y-116942270D01*
X121330095Y-116957911D01*
X121307575Y-116971409D01*
X121283841Y-116982634D01*
X121259120Y-116991480D01*
X121233651Y-116997859D01*
X121207680Y-117001712D01*
X121181456Y-117003000D01*
X120191544Y-117003000D01*
X120165320Y-117001712D01*
X120139349Y-116997859D01*
X120113880Y-116991480D01*
X120089159Y-116982634D01*
X120065425Y-116971409D01*
X120042905Y-116957911D01*
X120021816Y-116942270D01*
X120002362Y-116924638D01*
X119984730Y-116905184D01*
X119969089Y-116884095D01*
X119955591Y-116861575D01*
X119944366Y-116837841D01*
X119935520Y-116813120D01*
X119929141Y-116787651D01*
X119925288Y-116761680D01*
X119924000Y-116735456D01*
X119924000Y-115420544D01*
X119925288Y-115394320D01*
X119929141Y-115368349D01*
X119935520Y-115342880D01*
X119944366Y-115318159D01*
X119955591Y-115294425D01*
X119969089Y-115271905D01*
X119984730Y-115250816D01*
X120002362Y-115231362D01*
X120021816Y-115213730D01*
X120042905Y-115198089D01*
X120065425Y-115184591D01*
X120089159Y-115173366D01*
X120113880Y-115164520D01*
X120139349Y-115158141D01*
X120165320Y-115154288D01*
X120191544Y-115153000D01*
X121181456Y-115153000D01*
X121207680Y-115154288D01*
X121207680Y-115154288D01*
G37*
D25*
X120686500Y-116078000D03*
D24*
G36*
X124182680Y-115154288D02*
G01*
X124208651Y-115158141D01*
X124234120Y-115164520D01*
X124258841Y-115173366D01*
X124282575Y-115184591D01*
X124305095Y-115198089D01*
X124326184Y-115213730D01*
X124345638Y-115231362D01*
X124363270Y-115250816D01*
X124378911Y-115271905D01*
X124392409Y-115294425D01*
X124403634Y-115318159D01*
X124412480Y-115342880D01*
X124418859Y-115368349D01*
X124422712Y-115394320D01*
X124424000Y-115420544D01*
X124424000Y-116735456D01*
X124422712Y-116761680D01*
X124418859Y-116787651D01*
X124412480Y-116813120D01*
X124403634Y-116837841D01*
X124392409Y-116861575D01*
X124378911Y-116884095D01*
X124363270Y-116905184D01*
X124345638Y-116924638D01*
X124326184Y-116942270D01*
X124305095Y-116957911D01*
X124282575Y-116971409D01*
X124258841Y-116982634D01*
X124234120Y-116991480D01*
X124208651Y-116997859D01*
X124182680Y-117001712D01*
X124156456Y-117003000D01*
X123166544Y-117003000D01*
X123140320Y-117001712D01*
X123114349Y-116997859D01*
X123088880Y-116991480D01*
X123064159Y-116982634D01*
X123040425Y-116971409D01*
X123017905Y-116957911D01*
X122996816Y-116942270D01*
X122977362Y-116924638D01*
X122959730Y-116905184D01*
X122944089Y-116884095D01*
X122930591Y-116861575D01*
X122919366Y-116837841D01*
X122910520Y-116813120D01*
X122904141Y-116787651D01*
X122900288Y-116761680D01*
X122899000Y-116735456D01*
X122899000Y-115420544D01*
X122900288Y-115394320D01*
X122904141Y-115368349D01*
X122910520Y-115342880D01*
X122919366Y-115318159D01*
X122930591Y-115294425D01*
X122944089Y-115271905D01*
X122959730Y-115250816D01*
X122977362Y-115231362D01*
X122996816Y-115213730D01*
X123017905Y-115198089D01*
X123040425Y-115184591D01*
X123064159Y-115173366D01*
X123088880Y-115164520D01*
X123114349Y-115158141D01*
X123140320Y-115154288D01*
X123166544Y-115153000D01*
X124156456Y-115153000D01*
X124182680Y-115154288D01*
X124182680Y-115154288D01*
G37*
D25*
X123661500Y-116078000D03*
%TD*%
D24*
%TO.C,C22*%
G36*
X126921680Y-111470288D02*
G01*
X126947651Y-111474141D01*
X126973120Y-111480520D01*
X126997841Y-111489366D01*
X127021575Y-111500591D01*
X127044095Y-111514089D01*
X127065184Y-111529730D01*
X127084638Y-111547362D01*
X127102270Y-111566816D01*
X127117911Y-111587905D01*
X127131409Y-111610425D01*
X127142634Y-111634159D01*
X127151480Y-111658880D01*
X127157859Y-111684349D01*
X127161712Y-111710320D01*
X127163000Y-111736544D01*
X127163000Y-112726456D01*
X127161712Y-112752680D01*
X127157859Y-112778651D01*
X127151480Y-112804120D01*
X127142634Y-112828841D01*
X127131409Y-112852575D01*
X127117911Y-112875095D01*
X127102270Y-112896184D01*
X127084638Y-112915638D01*
X127065184Y-112933270D01*
X127044095Y-112948911D01*
X127021575Y-112962409D01*
X126997841Y-112973634D01*
X126973120Y-112982480D01*
X126947651Y-112988859D01*
X126921680Y-112992712D01*
X126895456Y-112994000D01*
X125580544Y-112994000D01*
X125554320Y-112992712D01*
X125528349Y-112988859D01*
X125502880Y-112982480D01*
X125478159Y-112973634D01*
X125454425Y-112962409D01*
X125431905Y-112948911D01*
X125410816Y-112933270D01*
X125391362Y-112915638D01*
X125373730Y-112896184D01*
X125358089Y-112875095D01*
X125344591Y-112852575D01*
X125333366Y-112828841D01*
X125324520Y-112804120D01*
X125318141Y-112778651D01*
X125314288Y-112752680D01*
X125313000Y-112726456D01*
X125313000Y-111736544D01*
X125314288Y-111710320D01*
X125318141Y-111684349D01*
X125324520Y-111658880D01*
X125333366Y-111634159D01*
X125344591Y-111610425D01*
X125358089Y-111587905D01*
X125373730Y-111566816D01*
X125391362Y-111547362D01*
X125410816Y-111529730D01*
X125431905Y-111514089D01*
X125454425Y-111500591D01*
X125478159Y-111489366D01*
X125502880Y-111480520D01*
X125528349Y-111474141D01*
X125554320Y-111470288D01*
X125580544Y-111469000D01*
X126895456Y-111469000D01*
X126921680Y-111470288D01*
X126921680Y-111470288D01*
G37*
D25*
X126238000Y-112231500D03*
D24*
G36*
X126921680Y-108495288D02*
G01*
X126947651Y-108499141D01*
X126973120Y-108505520D01*
X126997841Y-108514366D01*
X127021575Y-108525591D01*
X127044095Y-108539089D01*
X127065184Y-108554730D01*
X127084638Y-108572362D01*
X127102270Y-108591816D01*
X127117911Y-108612905D01*
X127131409Y-108635425D01*
X127142634Y-108659159D01*
X127151480Y-108683880D01*
X127157859Y-108709349D01*
X127161712Y-108735320D01*
X127163000Y-108761544D01*
X127163000Y-109751456D01*
X127161712Y-109777680D01*
X127157859Y-109803651D01*
X127151480Y-109829120D01*
X127142634Y-109853841D01*
X127131409Y-109877575D01*
X127117911Y-109900095D01*
X127102270Y-109921184D01*
X127084638Y-109940638D01*
X127065184Y-109958270D01*
X127044095Y-109973911D01*
X127021575Y-109987409D01*
X126997841Y-109998634D01*
X126973120Y-110007480D01*
X126947651Y-110013859D01*
X126921680Y-110017712D01*
X126895456Y-110019000D01*
X125580544Y-110019000D01*
X125554320Y-110017712D01*
X125528349Y-110013859D01*
X125502880Y-110007480D01*
X125478159Y-109998634D01*
X125454425Y-109987409D01*
X125431905Y-109973911D01*
X125410816Y-109958270D01*
X125391362Y-109940638D01*
X125373730Y-109921184D01*
X125358089Y-109900095D01*
X125344591Y-109877575D01*
X125333366Y-109853841D01*
X125324520Y-109829120D01*
X125318141Y-109803651D01*
X125314288Y-109777680D01*
X125313000Y-109751456D01*
X125313000Y-108761544D01*
X125314288Y-108735320D01*
X125318141Y-108709349D01*
X125324520Y-108683880D01*
X125333366Y-108659159D01*
X125344591Y-108635425D01*
X125358089Y-108612905D01*
X125373730Y-108591816D01*
X125391362Y-108572362D01*
X125410816Y-108554730D01*
X125431905Y-108539089D01*
X125454425Y-108525591D01*
X125478159Y-108514366D01*
X125502880Y-108505520D01*
X125528349Y-108499141D01*
X125554320Y-108495288D01*
X125580544Y-108494000D01*
X126895456Y-108494000D01*
X126921680Y-108495288D01*
X126921680Y-108495288D01*
G37*
D25*
X126238000Y-109256500D03*
%TD*%
D24*
%TO.C,C23*%
G36*
X123747680Y-127854288D02*
G01*
X123773651Y-127858141D01*
X123799120Y-127864520D01*
X123823841Y-127873366D01*
X123847575Y-127884591D01*
X123870095Y-127898089D01*
X123891184Y-127913730D01*
X123910638Y-127931362D01*
X123928270Y-127950816D01*
X123943911Y-127971905D01*
X123957409Y-127994425D01*
X123968634Y-128018159D01*
X123977480Y-128042880D01*
X123983859Y-128068349D01*
X123987712Y-128094320D01*
X123989000Y-128120544D01*
X123989000Y-129435456D01*
X123987712Y-129461680D01*
X123983859Y-129487651D01*
X123977480Y-129513120D01*
X123968634Y-129537841D01*
X123957409Y-129561575D01*
X123943911Y-129584095D01*
X123928270Y-129605184D01*
X123910638Y-129624638D01*
X123891184Y-129642270D01*
X123870095Y-129657911D01*
X123847575Y-129671409D01*
X123823841Y-129682634D01*
X123799120Y-129691480D01*
X123773651Y-129697859D01*
X123747680Y-129701712D01*
X123721456Y-129703000D01*
X122731544Y-129703000D01*
X122705320Y-129701712D01*
X122679349Y-129697859D01*
X122653880Y-129691480D01*
X122629159Y-129682634D01*
X122605425Y-129671409D01*
X122582905Y-129657911D01*
X122561816Y-129642270D01*
X122542362Y-129624638D01*
X122524730Y-129605184D01*
X122509089Y-129584095D01*
X122495591Y-129561575D01*
X122484366Y-129537841D01*
X122475520Y-129513120D01*
X122469141Y-129487651D01*
X122465288Y-129461680D01*
X122464000Y-129435456D01*
X122464000Y-128120544D01*
X122465288Y-128094320D01*
X122469141Y-128068349D01*
X122475520Y-128042880D01*
X122484366Y-128018159D01*
X122495591Y-127994425D01*
X122509089Y-127971905D01*
X122524730Y-127950816D01*
X122542362Y-127931362D01*
X122561816Y-127913730D01*
X122582905Y-127898089D01*
X122605425Y-127884591D01*
X122629159Y-127873366D01*
X122653880Y-127864520D01*
X122679349Y-127858141D01*
X122705320Y-127854288D01*
X122731544Y-127853000D01*
X123721456Y-127853000D01*
X123747680Y-127854288D01*
X123747680Y-127854288D01*
G37*
D25*
X123226500Y-128778000D03*
D24*
G36*
X126722680Y-127854288D02*
G01*
X126748651Y-127858141D01*
X126774120Y-127864520D01*
X126798841Y-127873366D01*
X126822575Y-127884591D01*
X126845095Y-127898089D01*
X126866184Y-127913730D01*
X126885638Y-127931362D01*
X126903270Y-127950816D01*
X126918911Y-127971905D01*
X126932409Y-127994425D01*
X126943634Y-128018159D01*
X126952480Y-128042880D01*
X126958859Y-128068349D01*
X126962712Y-128094320D01*
X126964000Y-128120544D01*
X126964000Y-129435456D01*
X126962712Y-129461680D01*
X126958859Y-129487651D01*
X126952480Y-129513120D01*
X126943634Y-129537841D01*
X126932409Y-129561575D01*
X126918911Y-129584095D01*
X126903270Y-129605184D01*
X126885638Y-129624638D01*
X126866184Y-129642270D01*
X126845095Y-129657911D01*
X126822575Y-129671409D01*
X126798841Y-129682634D01*
X126774120Y-129691480D01*
X126748651Y-129697859D01*
X126722680Y-129701712D01*
X126696456Y-129703000D01*
X125706544Y-129703000D01*
X125680320Y-129701712D01*
X125654349Y-129697859D01*
X125628880Y-129691480D01*
X125604159Y-129682634D01*
X125580425Y-129671409D01*
X125557905Y-129657911D01*
X125536816Y-129642270D01*
X125517362Y-129624638D01*
X125499730Y-129605184D01*
X125484089Y-129584095D01*
X125470591Y-129561575D01*
X125459366Y-129537841D01*
X125450520Y-129513120D01*
X125444141Y-129487651D01*
X125440288Y-129461680D01*
X125439000Y-129435456D01*
X125439000Y-128120544D01*
X125440288Y-128094320D01*
X125444141Y-128068349D01*
X125450520Y-128042880D01*
X125459366Y-128018159D01*
X125470591Y-127994425D01*
X125484089Y-127971905D01*
X125499730Y-127950816D01*
X125517362Y-127931362D01*
X125536816Y-127913730D01*
X125557905Y-127898089D01*
X125580425Y-127884591D01*
X125604159Y-127873366D01*
X125628880Y-127864520D01*
X125654349Y-127858141D01*
X125680320Y-127854288D01*
X125706544Y-127853000D01*
X126696456Y-127853000D01*
X126722680Y-127854288D01*
X126722680Y-127854288D01*
G37*
D25*
X126201500Y-128778000D03*
%TD*%
D24*
%TO.C,C28*%
G36*
X131494680Y-122774288D02*
G01*
X131520651Y-122778141D01*
X131546120Y-122784520D01*
X131570841Y-122793366D01*
X131594575Y-122804591D01*
X131617095Y-122818089D01*
X131638184Y-122833730D01*
X131657638Y-122851362D01*
X131675270Y-122870816D01*
X131690911Y-122891905D01*
X131704409Y-122914425D01*
X131715634Y-122938159D01*
X131724480Y-122962880D01*
X131730859Y-122988349D01*
X131734712Y-123014320D01*
X131736000Y-123040544D01*
X131736000Y-124355456D01*
X131734712Y-124381680D01*
X131730859Y-124407651D01*
X131724480Y-124433120D01*
X131715634Y-124457841D01*
X131704409Y-124481575D01*
X131690911Y-124504095D01*
X131675270Y-124525184D01*
X131657638Y-124544638D01*
X131638184Y-124562270D01*
X131617095Y-124577911D01*
X131594575Y-124591409D01*
X131570841Y-124602634D01*
X131546120Y-124611480D01*
X131520651Y-124617859D01*
X131494680Y-124621712D01*
X131468456Y-124623000D01*
X130478544Y-124623000D01*
X130452320Y-124621712D01*
X130426349Y-124617859D01*
X130400880Y-124611480D01*
X130376159Y-124602634D01*
X130352425Y-124591409D01*
X130329905Y-124577911D01*
X130308816Y-124562270D01*
X130289362Y-124544638D01*
X130271730Y-124525184D01*
X130256089Y-124504095D01*
X130242591Y-124481575D01*
X130231366Y-124457841D01*
X130222520Y-124433120D01*
X130216141Y-124407651D01*
X130212288Y-124381680D01*
X130211000Y-124355456D01*
X130211000Y-123040544D01*
X130212288Y-123014320D01*
X130216141Y-122988349D01*
X130222520Y-122962880D01*
X130231366Y-122938159D01*
X130242591Y-122914425D01*
X130256089Y-122891905D01*
X130271730Y-122870816D01*
X130289362Y-122851362D01*
X130308816Y-122833730D01*
X130329905Y-122818089D01*
X130352425Y-122804591D01*
X130376159Y-122793366D01*
X130400880Y-122784520D01*
X130426349Y-122778141D01*
X130452320Y-122774288D01*
X130478544Y-122773000D01*
X131468456Y-122773000D01*
X131494680Y-122774288D01*
X131494680Y-122774288D01*
G37*
D25*
X130973500Y-123698000D03*
D24*
G36*
X134469680Y-122774288D02*
G01*
X134495651Y-122778141D01*
X134521120Y-122784520D01*
X134545841Y-122793366D01*
X134569575Y-122804591D01*
X134592095Y-122818089D01*
X134613184Y-122833730D01*
X134632638Y-122851362D01*
X134650270Y-122870816D01*
X134665911Y-122891905D01*
X134679409Y-122914425D01*
X134690634Y-122938159D01*
X134699480Y-122962880D01*
X134705859Y-122988349D01*
X134709712Y-123014320D01*
X134711000Y-123040544D01*
X134711000Y-124355456D01*
X134709712Y-124381680D01*
X134705859Y-124407651D01*
X134699480Y-124433120D01*
X134690634Y-124457841D01*
X134679409Y-124481575D01*
X134665911Y-124504095D01*
X134650270Y-124525184D01*
X134632638Y-124544638D01*
X134613184Y-124562270D01*
X134592095Y-124577911D01*
X134569575Y-124591409D01*
X134545841Y-124602634D01*
X134521120Y-124611480D01*
X134495651Y-124617859D01*
X134469680Y-124621712D01*
X134443456Y-124623000D01*
X133453544Y-124623000D01*
X133427320Y-124621712D01*
X133401349Y-124617859D01*
X133375880Y-124611480D01*
X133351159Y-124602634D01*
X133327425Y-124591409D01*
X133304905Y-124577911D01*
X133283816Y-124562270D01*
X133264362Y-124544638D01*
X133246730Y-124525184D01*
X133231089Y-124504095D01*
X133217591Y-124481575D01*
X133206366Y-124457841D01*
X133197520Y-124433120D01*
X133191141Y-124407651D01*
X133187288Y-124381680D01*
X133186000Y-124355456D01*
X133186000Y-123040544D01*
X133187288Y-123014320D01*
X133191141Y-122988349D01*
X133197520Y-122962880D01*
X133206366Y-122938159D01*
X133217591Y-122914425D01*
X133231089Y-122891905D01*
X133246730Y-122870816D01*
X133264362Y-122851362D01*
X133283816Y-122833730D01*
X133304905Y-122818089D01*
X133327425Y-122804591D01*
X133351159Y-122793366D01*
X133375880Y-122784520D01*
X133401349Y-122778141D01*
X133427320Y-122774288D01*
X133453544Y-122773000D01*
X134443456Y-122773000D01*
X134469680Y-122774288D01*
X134469680Y-122774288D01*
G37*
D25*
X133948500Y-123698000D03*
%TD*%
D24*
%TO.C,R1*%
G36*
X129588680Y-108495288D02*
G01*
X129614651Y-108499141D01*
X129640120Y-108505520D01*
X129664841Y-108514366D01*
X129688575Y-108525591D01*
X129711095Y-108539089D01*
X129732184Y-108554730D01*
X129751638Y-108572362D01*
X129769270Y-108591816D01*
X129784911Y-108612905D01*
X129798409Y-108635425D01*
X129809634Y-108659159D01*
X129818480Y-108683880D01*
X129824859Y-108709349D01*
X129828712Y-108735320D01*
X129830000Y-108761544D01*
X129830000Y-109751456D01*
X129828712Y-109777680D01*
X129824859Y-109803651D01*
X129818480Y-109829120D01*
X129809634Y-109853841D01*
X129798409Y-109877575D01*
X129784911Y-109900095D01*
X129769270Y-109921184D01*
X129751638Y-109940638D01*
X129732184Y-109958270D01*
X129711095Y-109973911D01*
X129688575Y-109987409D01*
X129664841Y-109998634D01*
X129640120Y-110007480D01*
X129614651Y-110013859D01*
X129588680Y-110017712D01*
X129562456Y-110019000D01*
X128247544Y-110019000D01*
X128221320Y-110017712D01*
X128195349Y-110013859D01*
X128169880Y-110007480D01*
X128145159Y-109998634D01*
X128121425Y-109987409D01*
X128098905Y-109973911D01*
X128077816Y-109958270D01*
X128058362Y-109940638D01*
X128040730Y-109921184D01*
X128025089Y-109900095D01*
X128011591Y-109877575D01*
X128000366Y-109853841D01*
X127991520Y-109829120D01*
X127985141Y-109803651D01*
X127981288Y-109777680D01*
X127980000Y-109751456D01*
X127980000Y-108761544D01*
X127981288Y-108735320D01*
X127985141Y-108709349D01*
X127991520Y-108683880D01*
X128000366Y-108659159D01*
X128011591Y-108635425D01*
X128025089Y-108612905D01*
X128040730Y-108591816D01*
X128058362Y-108572362D01*
X128077816Y-108554730D01*
X128098905Y-108539089D01*
X128121425Y-108525591D01*
X128145159Y-108514366D01*
X128169880Y-108505520D01*
X128195349Y-108499141D01*
X128221320Y-108495288D01*
X128247544Y-108494000D01*
X129562456Y-108494000D01*
X129588680Y-108495288D01*
X129588680Y-108495288D01*
G37*
D25*
X128905000Y-109256500D03*
D24*
G36*
X129588680Y-111470288D02*
G01*
X129614651Y-111474141D01*
X129640120Y-111480520D01*
X129664841Y-111489366D01*
X129688575Y-111500591D01*
X129711095Y-111514089D01*
X129732184Y-111529730D01*
X129751638Y-111547362D01*
X129769270Y-111566816D01*
X129784911Y-111587905D01*
X129798409Y-111610425D01*
X129809634Y-111634159D01*
X129818480Y-111658880D01*
X129824859Y-111684349D01*
X129828712Y-111710320D01*
X129830000Y-111736544D01*
X129830000Y-112726456D01*
X129828712Y-112752680D01*
X129824859Y-112778651D01*
X129818480Y-112804120D01*
X129809634Y-112828841D01*
X129798409Y-112852575D01*
X129784911Y-112875095D01*
X129769270Y-112896184D01*
X129751638Y-112915638D01*
X129732184Y-112933270D01*
X129711095Y-112948911D01*
X129688575Y-112962409D01*
X129664841Y-112973634D01*
X129640120Y-112982480D01*
X129614651Y-112988859D01*
X129588680Y-112992712D01*
X129562456Y-112994000D01*
X128247544Y-112994000D01*
X128221320Y-112992712D01*
X128195349Y-112988859D01*
X128169880Y-112982480D01*
X128145159Y-112973634D01*
X128121425Y-112962409D01*
X128098905Y-112948911D01*
X128077816Y-112933270D01*
X128058362Y-112915638D01*
X128040730Y-112896184D01*
X128025089Y-112875095D01*
X128011591Y-112852575D01*
X128000366Y-112828841D01*
X127991520Y-112804120D01*
X127985141Y-112778651D01*
X127981288Y-112752680D01*
X127980000Y-112726456D01*
X127980000Y-111736544D01*
X127981288Y-111710320D01*
X127985141Y-111684349D01*
X127991520Y-111658880D01*
X128000366Y-111634159D01*
X128011591Y-111610425D01*
X128025089Y-111587905D01*
X128040730Y-111566816D01*
X128058362Y-111547362D01*
X128077816Y-111529730D01*
X128098905Y-111514089D01*
X128121425Y-111500591D01*
X128145159Y-111489366D01*
X128169880Y-111480520D01*
X128195349Y-111474141D01*
X128221320Y-111470288D01*
X128247544Y-111469000D01*
X129562456Y-111469000D01*
X129588680Y-111470288D01*
X129588680Y-111470288D01*
G37*
D25*
X128905000Y-112231500D03*
%TD*%
D24*
%TO.C,R2*%
G36*
X94536680Y-111035288D02*
G01*
X94562651Y-111039141D01*
X94588120Y-111045520D01*
X94612841Y-111054366D01*
X94636575Y-111065591D01*
X94659095Y-111079089D01*
X94680184Y-111094730D01*
X94699638Y-111112362D01*
X94717270Y-111131816D01*
X94732911Y-111152905D01*
X94746409Y-111175425D01*
X94757634Y-111199159D01*
X94766480Y-111223880D01*
X94772859Y-111249349D01*
X94776712Y-111275320D01*
X94778000Y-111301544D01*
X94778000Y-112291456D01*
X94776712Y-112317680D01*
X94772859Y-112343651D01*
X94766480Y-112369120D01*
X94757634Y-112393841D01*
X94746409Y-112417575D01*
X94732911Y-112440095D01*
X94717270Y-112461184D01*
X94699638Y-112480638D01*
X94680184Y-112498270D01*
X94659095Y-112513911D01*
X94636575Y-112527409D01*
X94612841Y-112538634D01*
X94588120Y-112547480D01*
X94562651Y-112553859D01*
X94536680Y-112557712D01*
X94510456Y-112559000D01*
X93195544Y-112559000D01*
X93169320Y-112557712D01*
X93143349Y-112553859D01*
X93117880Y-112547480D01*
X93093159Y-112538634D01*
X93069425Y-112527409D01*
X93046905Y-112513911D01*
X93025816Y-112498270D01*
X93006362Y-112480638D01*
X92988730Y-112461184D01*
X92973089Y-112440095D01*
X92959591Y-112417575D01*
X92948366Y-112393841D01*
X92939520Y-112369120D01*
X92933141Y-112343651D01*
X92929288Y-112317680D01*
X92928000Y-112291456D01*
X92928000Y-111301544D01*
X92929288Y-111275320D01*
X92933141Y-111249349D01*
X92939520Y-111223880D01*
X92948366Y-111199159D01*
X92959591Y-111175425D01*
X92973089Y-111152905D01*
X92988730Y-111131816D01*
X93006362Y-111112362D01*
X93025816Y-111094730D01*
X93046905Y-111079089D01*
X93069425Y-111065591D01*
X93093159Y-111054366D01*
X93117880Y-111045520D01*
X93143349Y-111039141D01*
X93169320Y-111035288D01*
X93195544Y-111034000D01*
X94510456Y-111034000D01*
X94536680Y-111035288D01*
X94536680Y-111035288D01*
G37*
D25*
X93853000Y-111796500D03*
D24*
G36*
X94536680Y-114010288D02*
G01*
X94562651Y-114014141D01*
X94588120Y-114020520D01*
X94612841Y-114029366D01*
X94636575Y-114040591D01*
X94659095Y-114054089D01*
X94680184Y-114069730D01*
X94699638Y-114087362D01*
X94717270Y-114106816D01*
X94732911Y-114127905D01*
X94746409Y-114150425D01*
X94757634Y-114174159D01*
X94766480Y-114198880D01*
X94772859Y-114224349D01*
X94776712Y-114250320D01*
X94778000Y-114276544D01*
X94778000Y-115266456D01*
X94776712Y-115292680D01*
X94772859Y-115318651D01*
X94766480Y-115344120D01*
X94757634Y-115368841D01*
X94746409Y-115392575D01*
X94732911Y-115415095D01*
X94717270Y-115436184D01*
X94699638Y-115455638D01*
X94680184Y-115473270D01*
X94659095Y-115488911D01*
X94636575Y-115502409D01*
X94612841Y-115513634D01*
X94588120Y-115522480D01*
X94562651Y-115528859D01*
X94536680Y-115532712D01*
X94510456Y-115534000D01*
X93195544Y-115534000D01*
X93169320Y-115532712D01*
X93143349Y-115528859D01*
X93117880Y-115522480D01*
X93093159Y-115513634D01*
X93069425Y-115502409D01*
X93046905Y-115488911D01*
X93025816Y-115473270D01*
X93006362Y-115455638D01*
X92988730Y-115436184D01*
X92973089Y-115415095D01*
X92959591Y-115392575D01*
X92948366Y-115368841D01*
X92939520Y-115344120D01*
X92933141Y-115318651D01*
X92929288Y-115292680D01*
X92928000Y-115266456D01*
X92928000Y-114276544D01*
X92929288Y-114250320D01*
X92933141Y-114224349D01*
X92939520Y-114198880D01*
X92948366Y-114174159D01*
X92959591Y-114150425D01*
X92973089Y-114127905D01*
X92988730Y-114106816D01*
X93006362Y-114087362D01*
X93025816Y-114069730D01*
X93046905Y-114054089D01*
X93069425Y-114040591D01*
X93093159Y-114029366D01*
X93117880Y-114020520D01*
X93143349Y-114014141D01*
X93169320Y-114010288D01*
X93195544Y-114009000D01*
X94510456Y-114009000D01*
X94536680Y-114010288D01*
X94536680Y-114010288D01*
G37*
D25*
X93853000Y-114771500D03*
%TD*%
D24*
%TO.C,R3*%
G36*
X187936680Y-104994288D02*
G01*
X187962651Y-104998141D01*
X187988120Y-105004520D01*
X188012841Y-105013366D01*
X188036575Y-105024591D01*
X188059095Y-105038089D01*
X188080184Y-105053730D01*
X188099638Y-105071362D01*
X188117270Y-105090816D01*
X188132911Y-105111905D01*
X188146409Y-105134425D01*
X188157634Y-105158159D01*
X188166480Y-105182880D01*
X188172859Y-105208349D01*
X188176712Y-105234320D01*
X188178000Y-105260544D01*
X188178000Y-106575456D01*
X188176712Y-106601680D01*
X188172859Y-106627651D01*
X188166480Y-106653120D01*
X188157634Y-106677841D01*
X188146409Y-106701575D01*
X188132911Y-106724095D01*
X188117270Y-106745184D01*
X188099638Y-106764638D01*
X188080184Y-106782270D01*
X188059095Y-106797911D01*
X188036575Y-106811409D01*
X188012841Y-106822634D01*
X187988120Y-106831480D01*
X187962651Y-106837859D01*
X187936680Y-106841712D01*
X187910456Y-106843000D01*
X186920544Y-106843000D01*
X186894320Y-106841712D01*
X186868349Y-106837859D01*
X186842880Y-106831480D01*
X186818159Y-106822634D01*
X186794425Y-106811409D01*
X186771905Y-106797911D01*
X186750816Y-106782270D01*
X186731362Y-106764638D01*
X186713730Y-106745184D01*
X186698089Y-106724095D01*
X186684591Y-106701575D01*
X186673366Y-106677841D01*
X186664520Y-106653120D01*
X186658141Y-106627651D01*
X186654288Y-106601680D01*
X186653000Y-106575456D01*
X186653000Y-105260544D01*
X186654288Y-105234320D01*
X186658141Y-105208349D01*
X186664520Y-105182880D01*
X186673366Y-105158159D01*
X186684591Y-105134425D01*
X186698089Y-105111905D01*
X186713730Y-105090816D01*
X186731362Y-105071362D01*
X186750816Y-105053730D01*
X186771905Y-105038089D01*
X186794425Y-105024591D01*
X186818159Y-105013366D01*
X186842880Y-105004520D01*
X186868349Y-104998141D01*
X186894320Y-104994288D01*
X186920544Y-104993000D01*
X187910456Y-104993000D01*
X187936680Y-104994288D01*
X187936680Y-104994288D01*
G37*
D25*
X187415500Y-105918000D03*
D24*
G36*
X184961680Y-104994288D02*
G01*
X184987651Y-104998141D01*
X185013120Y-105004520D01*
X185037841Y-105013366D01*
X185061575Y-105024591D01*
X185084095Y-105038089D01*
X185105184Y-105053730D01*
X185124638Y-105071362D01*
X185142270Y-105090816D01*
X185157911Y-105111905D01*
X185171409Y-105134425D01*
X185182634Y-105158159D01*
X185191480Y-105182880D01*
X185197859Y-105208349D01*
X185201712Y-105234320D01*
X185203000Y-105260544D01*
X185203000Y-106575456D01*
X185201712Y-106601680D01*
X185197859Y-106627651D01*
X185191480Y-106653120D01*
X185182634Y-106677841D01*
X185171409Y-106701575D01*
X185157911Y-106724095D01*
X185142270Y-106745184D01*
X185124638Y-106764638D01*
X185105184Y-106782270D01*
X185084095Y-106797911D01*
X185061575Y-106811409D01*
X185037841Y-106822634D01*
X185013120Y-106831480D01*
X184987651Y-106837859D01*
X184961680Y-106841712D01*
X184935456Y-106843000D01*
X183945544Y-106843000D01*
X183919320Y-106841712D01*
X183893349Y-106837859D01*
X183867880Y-106831480D01*
X183843159Y-106822634D01*
X183819425Y-106811409D01*
X183796905Y-106797911D01*
X183775816Y-106782270D01*
X183756362Y-106764638D01*
X183738730Y-106745184D01*
X183723089Y-106724095D01*
X183709591Y-106701575D01*
X183698366Y-106677841D01*
X183689520Y-106653120D01*
X183683141Y-106627651D01*
X183679288Y-106601680D01*
X183678000Y-106575456D01*
X183678000Y-105260544D01*
X183679288Y-105234320D01*
X183683141Y-105208349D01*
X183689520Y-105182880D01*
X183698366Y-105158159D01*
X183709591Y-105134425D01*
X183723089Y-105111905D01*
X183738730Y-105090816D01*
X183756362Y-105071362D01*
X183775816Y-105053730D01*
X183796905Y-105038089D01*
X183819425Y-105024591D01*
X183843159Y-105013366D01*
X183867880Y-105004520D01*
X183893349Y-104998141D01*
X183919320Y-104994288D01*
X183945544Y-104993000D01*
X184935456Y-104993000D01*
X184961680Y-104994288D01*
X184961680Y-104994288D01*
G37*
D25*
X184440500Y-105918000D03*
%TD*%
D24*
%TO.C,R4*%
G36*
X97258680Y-108296288D02*
G01*
X97284651Y-108300141D01*
X97310120Y-108306520D01*
X97334841Y-108315366D01*
X97358575Y-108326591D01*
X97381095Y-108340089D01*
X97402184Y-108355730D01*
X97421638Y-108373362D01*
X97439270Y-108392816D01*
X97454911Y-108413905D01*
X97468409Y-108436425D01*
X97479634Y-108460159D01*
X97488480Y-108484880D01*
X97494859Y-108510349D01*
X97498712Y-108536320D01*
X97500000Y-108562544D01*
X97500000Y-109877456D01*
X97498712Y-109903680D01*
X97494859Y-109929651D01*
X97488480Y-109955120D01*
X97479634Y-109979841D01*
X97468409Y-110003575D01*
X97454911Y-110026095D01*
X97439270Y-110047184D01*
X97421638Y-110066638D01*
X97402184Y-110084270D01*
X97381095Y-110099911D01*
X97358575Y-110113409D01*
X97334841Y-110124634D01*
X97310120Y-110133480D01*
X97284651Y-110139859D01*
X97258680Y-110143712D01*
X97232456Y-110145000D01*
X96242544Y-110145000D01*
X96216320Y-110143712D01*
X96190349Y-110139859D01*
X96164880Y-110133480D01*
X96140159Y-110124634D01*
X96116425Y-110113409D01*
X96093905Y-110099911D01*
X96072816Y-110084270D01*
X96053362Y-110066638D01*
X96035730Y-110047184D01*
X96020089Y-110026095D01*
X96006591Y-110003575D01*
X95995366Y-109979841D01*
X95986520Y-109955120D01*
X95980141Y-109929651D01*
X95976288Y-109903680D01*
X95975000Y-109877456D01*
X95975000Y-108562544D01*
X95976288Y-108536320D01*
X95980141Y-108510349D01*
X95986520Y-108484880D01*
X95995366Y-108460159D01*
X96006591Y-108436425D01*
X96020089Y-108413905D01*
X96035730Y-108392816D01*
X96053362Y-108373362D01*
X96072816Y-108355730D01*
X96093905Y-108340089D01*
X96116425Y-108326591D01*
X96140159Y-108315366D01*
X96164880Y-108306520D01*
X96190349Y-108300141D01*
X96216320Y-108296288D01*
X96242544Y-108295000D01*
X97232456Y-108295000D01*
X97258680Y-108296288D01*
X97258680Y-108296288D01*
G37*
D25*
X96737500Y-109220000D03*
D24*
G36*
X94283680Y-108296288D02*
G01*
X94309651Y-108300141D01*
X94335120Y-108306520D01*
X94359841Y-108315366D01*
X94383575Y-108326591D01*
X94406095Y-108340089D01*
X94427184Y-108355730D01*
X94446638Y-108373362D01*
X94464270Y-108392816D01*
X94479911Y-108413905D01*
X94493409Y-108436425D01*
X94504634Y-108460159D01*
X94513480Y-108484880D01*
X94519859Y-108510349D01*
X94523712Y-108536320D01*
X94525000Y-108562544D01*
X94525000Y-109877456D01*
X94523712Y-109903680D01*
X94519859Y-109929651D01*
X94513480Y-109955120D01*
X94504634Y-109979841D01*
X94493409Y-110003575D01*
X94479911Y-110026095D01*
X94464270Y-110047184D01*
X94446638Y-110066638D01*
X94427184Y-110084270D01*
X94406095Y-110099911D01*
X94383575Y-110113409D01*
X94359841Y-110124634D01*
X94335120Y-110133480D01*
X94309651Y-110139859D01*
X94283680Y-110143712D01*
X94257456Y-110145000D01*
X93267544Y-110145000D01*
X93241320Y-110143712D01*
X93215349Y-110139859D01*
X93189880Y-110133480D01*
X93165159Y-110124634D01*
X93141425Y-110113409D01*
X93118905Y-110099911D01*
X93097816Y-110084270D01*
X93078362Y-110066638D01*
X93060730Y-110047184D01*
X93045089Y-110026095D01*
X93031591Y-110003575D01*
X93020366Y-109979841D01*
X93011520Y-109955120D01*
X93005141Y-109929651D01*
X93001288Y-109903680D01*
X93000000Y-109877456D01*
X93000000Y-108562544D01*
X93001288Y-108536320D01*
X93005141Y-108510349D01*
X93011520Y-108484880D01*
X93020366Y-108460159D01*
X93031591Y-108436425D01*
X93045089Y-108413905D01*
X93060730Y-108392816D01*
X93078362Y-108373362D01*
X93097816Y-108355730D01*
X93118905Y-108340089D01*
X93141425Y-108326591D01*
X93165159Y-108315366D01*
X93189880Y-108306520D01*
X93215349Y-108300141D01*
X93241320Y-108296288D01*
X93267544Y-108295000D01*
X94257456Y-108295000D01*
X94283680Y-108296288D01*
X94283680Y-108296288D01*
G37*
D25*
X93762500Y-109220000D03*
%TD*%
D24*
%TO.C,R5*%
G36*
X99616680Y-111035288D02*
G01*
X99642651Y-111039141D01*
X99668120Y-111045520D01*
X99692841Y-111054366D01*
X99716575Y-111065591D01*
X99739095Y-111079089D01*
X99760184Y-111094730D01*
X99779638Y-111112362D01*
X99797270Y-111131816D01*
X99812911Y-111152905D01*
X99826409Y-111175425D01*
X99837634Y-111199159D01*
X99846480Y-111223880D01*
X99852859Y-111249349D01*
X99856712Y-111275320D01*
X99858000Y-111301544D01*
X99858000Y-112291456D01*
X99856712Y-112317680D01*
X99852859Y-112343651D01*
X99846480Y-112369120D01*
X99837634Y-112393841D01*
X99826409Y-112417575D01*
X99812911Y-112440095D01*
X99797270Y-112461184D01*
X99779638Y-112480638D01*
X99760184Y-112498270D01*
X99739095Y-112513911D01*
X99716575Y-112527409D01*
X99692841Y-112538634D01*
X99668120Y-112547480D01*
X99642651Y-112553859D01*
X99616680Y-112557712D01*
X99590456Y-112559000D01*
X98275544Y-112559000D01*
X98249320Y-112557712D01*
X98223349Y-112553859D01*
X98197880Y-112547480D01*
X98173159Y-112538634D01*
X98149425Y-112527409D01*
X98126905Y-112513911D01*
X98105816Y-112498270D01*
X98086362Y-112480638D01*
X98068730Y-112461184D01*
X98053089Y-112440095D01*
X98039591Y-112417575D01*
X98028366Y-112393841D01*
X98019520Y-112369120D01*
X98013141Y-112343651D01*
X98009288Y-112317680D01*
X98008000Y-112291456D01*
X98008000Y-111301544D01*
X98009288Y-111275320D01*
X98013141Y-111249349D01*
X98019520Y-111223880D01*
X98028366Y-111199159D01*
X98039591Y-111175425D01*
X98053089Y-111152905D01*
X98068730Y-111131816D01*
X98086362Y-111112362D01*
X98105816Y-111094730D01*
X98126905Y-111079089D01*
X98149425Y-111065591D01*
X98173159Y-111054366D01*
X98197880Y-111045520D01*
X98223349Y-111039141D01*
X98249320Y-111035288D01*
X98275544Y-111034000D01*
X99590456Y-111034000D01*
X99616680Y-111035288D01*
X99616680Y-111035288D01*
G37*
D25*
X98933000Y-111796500D03*
D24*
G36*
X99616680Y-114010288D02*
G01*
X99642651Y-114014141D01*
X99668120Y-114020520D01*
X99692841Y-114029366D01*
X99716575Y-114040591D01*
X99739095Y-114054089D01*
X99760184Y-114069730D01*
X99779638Y-114087362D01*
X99797270Y-114106816D01*
X99812911Y-114127905D01*
X99826409Y-114150425D01*
X99837634Y-114174159D01*
X99846480Y-114198880D01*
X99852859Y-114224349D01*
X99856712Y-114250320D01*
X99858000Y-114276544D01*
X99858000Y-115266456D01*
X99856712Y-115292680D01*
X99852859Y-115318651D01*
X99846480Y-115344120D01*
X99837634Y-115368841D01*
X99826409Y-115392575D01*
X99812911Y-115415095D01*
X99797270Y-115436184D01*
X99779638Y-115455638D01*
X99760184Y-115473270D01*
X99739095Y-115488911D01*
X99716575Y-115502409D01*
X99692841Y-115513634D01*
X99668120Y-115522480D01*
X99642651Y-115528859D01*
X99616680Y-115532712D01*
X99590456Y-115534000D01*
X98275544Y-115534000D01*
X98249320Y-115532712D01*
X98223349Y-115528859D01*
X98197880Y-115522480D01*
X98173159Y-115513634D01*
X98149425Y-115502409D01*
X98126905Y-115488911D01*
X98105816Y-115473270D01*
X98086362Y-115455638D01*
X98068730Y-115436184D01*
X98053089Y-115415095D01*
X98039591Y-115392575D01*
X98028366Y-115368841D01*
X98019520Y-115344120D01*
X98013141Y-115318651D01*
X98009288Y-115292680D01*
X98008000Y-115266456D01*
X98008000Y-114276544D01*
X98009288Y-114250320D01*
X98013141Y-114224349D01*
X98019520Y-114198880D01*
X98028366Y-114174159D01*
X98039591Y-114150425D01*
X98053089Y-114127905D01*
X98068730Y-114106816D01*
X98086362Y-114087362D01*
X98105816Y-114069730D01*
X98126905Y-114054089D01*
X98149425Y-114040591D01*
X98173159Y-114029366D01*
X98197880Y-114020520D01*
X98223349Y-114014141D01*
X98249320Y-114010288D01*
X98275544Y-114009000D01*
X99590456Y-114009000D01*
X99616680Y-114010288D01*
X99616680Y-114010288D01*
G37*
D25*
X98933000Y-114771500D03*
%TD*%
D24*
%TO.C,R6*%
G36*
X109396680Y-106264288D02*
G01*
X109422651Y-106268141D01*
X109448120Y-106274520D01*
X109472841Y-106283366D01*
X109496575Y-106294591D01*
X109519095Y-106308089D01*
X109540184Y-106323730D01*
X109559638Y-106341362D01*
X109577270Y-106360816D01*
X109592911Y-106381905D01*
X109606409Y-106404425D01*
X109617634Y-106428159D01*
X109626480Y-106452880D01*
X109632859Y-106478349D01*
X109636712Y-106504320D01*
X109638000Y-106530544D01*
X109638000Y-107845456D01*
X109636712Y-107871680D01*
X109632859Y-107897651D01*
X109626480Y-107923120D01*
X109617634Y-107947841D01*
X109606409Y-107971575D01*
X109592911Y-107994095D01*
X109577270Y-108015184D01*
X109559638Y-108034638D01*
X109540184Y-108052270D01*
X109519095Y-108067911D01*
X109496575Y-108081409D01*
X109472841Y-108092634D01*
X109448120Y-108101480D01*
X109422651Y-108107859D01*
X109396680Y-108111712D01*
X109370456Y-108113000D01*
X108380544Y-108113000D01*
X108354320Y-108111712D01*
X108328349Y-108107859D01*
X108302880Y-108101480D01*
X108278159Y-108092634D01*
X108254425Y-108081409D01*
X108231905Y-108067911D01*
X108210816Y-108052270D01*
X108191362Y-108034638D01*
X108173730Y-108015184D01*
X108158089Y-107994095D01*
X108144591Y-107971575D01*
X108133366Y-107947841D01*
X108124520Y-107923120D01*
X108118141Y-107897651D01*
X108114288Y-107871680D01*
X108113000Y-107845456D01*
X108113000Y-106530544D01*
X108114288Y-106504320D01*
X108118141Y-106478349D01*
X108124520Y-106452880D01*
X108133366Y-106428159D01*
X108144591Y-106404425D01*
X108158089Y-106381905D01*
X108173730Y-106360816D01*
X108191362Y-106341362D01*
X108210816Y-106323730D01*
X108231905Y-106308089D01*
X108254425Y-106294591D01*
X108278159Y-106283366D01*
X108302880Y-106274520D01*
X108328349Y-106268141D01*
X108354320Y-106264288D01*
X108380544Y-106263000D01*
X109370456Y-106263000D01*
X109396680Y-106264288D01*
X109396680Y-106264288D01*
G37*
D25*
X108875500Y-107188000D03*
D24*
G36*
X112371680Y-106264288D02*
G01*
X112397651Y-106268141D01*
X112423120Y-106274520D01*
X112447841Y-106283366D01*
X112471575Y-106294591D01*
X112494095Y-106308089D01*
X112515184Y-106323730D01*
X112534638Y-106341362D01*
X112552270Y-106360816D01*
X112567911Y-106381905D01*
X112581409Y-106404425D01*
X112592634Y-106428159D01*
X112601480Y-106452880D01*
X112607859Y-106478349D01*
X112611712Y-106504320D01*
X112613000Y-106530544D01*
X112613000Y-107845456D01*
X112611712Y-107871680D01*
X112607859Y-107897651D01*
X112601480Y-107923120D01*
X112592634Y-107947841D01*
X112581409Y-107971575D01*
X112567911Y-107994095D01*
X112552270Y-108015184D01*
X112534638Y-108034638D01*
X112515184Y-108052270D01*
X112494095Y-108067911D01*
X112471575Y-108081409D01*
X112447841Y-108092634D01*
X112423120Y-108101480D01*
X112397651Y-108107859D01*
X112371680Y-108111712D01*
X112345456Y-108113000D01*
X111355544Y-108113000D01*
X111329320Y-108111712D01*
X111303349Y-108107859D01*
X111277880Y-108101480D01*
X111253159Y-108092634D01*
X111229425Y-108081409D01*
X111206905Y-108067911D01*
X111185816Y-108052270D01*
X111166362Y-108034638D01*
X111148730Y-108015184D01*
X111133089Y-107994095D01*
X111119591Y-107971575D01*
X111108366Y-107947841D01*
X111099520Y-107923120D01*
X111093141Y-107897651D01*
X111089288Y-107871680D01*
X111088000Y-107845456D01*
X111088000Y-106530544D01*
X111089288Y-106504320D01*
X111093141Y-106478349D01*
X111099520Y-106452880D01*
X111108366Y-106428159D01*
X111119591Y-106404425D01*
X111133089Y-106381905D01*
X111148730Y-106360816D01*
X111166362Y-106341362D01*
X111185816Y-106323730D01*
X111206905Y-106308089D01*
X111229425Y-106294591D01*
X111253159Y-106283366D01*
X111277880Y-106274520D01*
X111303349Y-106268141D01*
X111329320Y-106264288D01*
X111355544Y-106263000D01*
X112345456Y-106263000D01*
X112371680Y-106264288D01*
X112371680Y-106264288D01*
G37*
D25*
X111850500Y-107188000D03*
%TD*%
D24*
%TO.C,R7*%
G36*
X139676680Y-114773288D02*
G01*
X139702651Y-114777141D01*
X139728120Y-114783520D01*
X139752841Y-114792366D01*
X139776575Y-114803591D01*
X139799095Y-114817089D01*
X139820184Y-114832730D01*
X139839638Y-114850362D01*
X139857270Y-114869816D01*
X139872911Y-114890905D01*
X139886409Y-114913425D01*
X139897634Y-114937159D01*
X139906480Y-114961880D01*
X139912859Y-114987349D01*
X139916712Y-115013320D01*
X139918000Y-115039544D01*
X139918000Y-116354456D01*
X139916712Y-116380680D01*
X139912859Y-116406651D01*
X139906480Y-116432120D01*
X139897634Y-116456841D01*
X139886409Y-116480575D01*
X139872911Y-116503095D01*
X139857270Y-116524184D01*
X139839638Y-116543638D01*
X139820184Y-116561270D01*
X139799095Y-116576911D01*
X139776575Y-116590409D01*
X139752841Y-116601634D01*
X139728120Y-116610480D01*
X139702651Y-116616859D01*
X139676680Y-116620712D01*
X139650456Y-116622000D01*
X138660544Y-116622000D01*
X138634320Y-116620712D01*
X138608349Y-116616859D01*
X138582880Y-116610480D01*
X138558159Y-116601634D01*
X138534425Y-116590409D01*
X138511905Y-116576911D01*
X138490816Y-116561270D01*
X138471362Y-116543638D01*
X138453730Y-116524184D01*
X138438089Y-116503095D01*
X138424591Y-116480575D01*
X138413366Y-116456841D01*
X138404520Y-116432120D01*
X138398141Y-116406651D01*
X138394288Y-116380680D01*
X138393000Y-116354456D01*
X138393000Y-115039544D01*
X138394288Y-115013320D01*
X138398141Y-114987349D01*
X138404520Y-114961880D01*
X138413366Y-114937159D01*
X138424591Y-114913425D01*
X138438089Y-114890905D01*
X138453730Y-114869816D01*
X138471362Y-114850362D01*
X138490816Y-114832730D01*
X138511905Y-114817089D01*
X138534425Y-114803591D01*
X138558159Y-114792366D01*
X138582880Y-114783520D01*
X138608349Y-114777141D01*
X138634320Y-114773288D01*
X138660544Y-114772000D01*
X139650456Y-114772000D01*
X139676680Y-114773288D01*
X139676680Y-114773288D01*
G37*
D25*
X139155500Y-115697000D03*
D24*
G36*
X136701680Y-114773288D02*
G01*
X136727651Y-114777141D01*
X136753120Y-114783520D01*
X136777841Y-114792366D01*
X136801575Y-114803591D01*
X136824095Y-114817089D01*
X136845184Y-114832730D01*
X136864638Y-114850362D01*
X136882270Y-114869816D01*
X136897911Y-114890905D01*
X136911409Y-114913425D01*
X136922634Y-114937159D01*
X136931480Y-114961880D01*
X136937859Y-114987349D01*
X136941712Y-115013320D01*
X136943000Y-115039544D01*
X136943000Y-116354456D01*
X136941712Y-116380680D01*
X136937859Y-116406651D01*
X136931480Y-116432120D01*
X136922634Y-116456841D01*
X136911409Y-116480575D01*
X136897911Y-116503095D01*
X136882270Y-116524184D01*
X136864638Y-116543638D01*
X136845184Y-116561270D01*
X136824095Y-116576911D01*
X136801575Y-116590409D01*
X136777841Y-116601634D01*
X136753120Y-116610480D01*
X136727651Y-116616859D01*
X136701680Y-116620712D01*
X136675456Y-116622000D01*
X135685544Y-116622000D01*
X135659320Y-116620712D01*
X135633349Y-116616859D01*
X135607880Y-116610480D01*
X135583159Y-116601634D01*
X135559425Y-116590409D01*
X135536905Y-116576911D01*
X135515816Y-116561270D01*
X135496362Y-116543638D01*
X135478730Y-116524184D01*
X135463089Y-116503095D01*
X135449591Y-116480575D01*
X135438366Y-116456841D01*
X135429520Y-116432120D01*
X135423141Y-116406651D01*
X135419288Y-116380680D01*
X135418000Y-116354456D01*
X135418000Y-115039544D01*
X135419288Y-115013320D01*
X135423141Y-114987349D01*
X135429520Y-114961880D01*
X135438366Y-114937159D01*
X135449591Y-114913425D01*
X135463089Y-114890905D01*
X135478730Y-114869816D01*
X135496362Y-114850362D01*
X135515816Y-114832730D01*
X135536905Y-114817089D01*
X135559425Y-114803591D01*
X135583159Y-114792366D01*
X135607880Y-114783520D01*
X135633349Y-114777141D01*
X135659320Y-114773288D01*
X135685544Y-114772000D01*
X136675456Y-114772000D01*
X136701680Y-114773288D01*
X136701680Y-114773288D01*
G37*
D25*
X136180500Y-115697000D03*
%TD*%
D24*
%TO.C,R8*%
G36*
X149147680Y-118710288D02*
G01*
X149173651Y-118714141D01*
X149199120Y-118720520D01*
X149223841Y-118729366D01*
X149247575Y-118740591D01*
X149270095Y-118754089D01*
X149291184Y-118769730D01*
X149310638Y-118787362D01*
X149328270Y-118806816D01*
X149343911Y-118827905D01*
X149357409Y-118850425D01*
X149368634Y-118874159D01*
X149377480Y-118898880D01*
X149383859Y-118924349D01*
X149387712Y-118950320D01*
X149389000Y-118976544D01*
X149389000Y-120291456D01*
X149387712Y-120317680D01*
X149383859Y-120343651D01*
X149377480Y-120369120D01*
X149368634Y-120393841D01*
X149357409Y-120417575D01*
X149343911Y-120440095D01*
X149328270Y-120461184D01*
X149310638Y-120480638D01*
X149291184Y-120498270D01*
X149270095Y-120513911D01*
X149247575Y-120527409D01*
X149223841Y-120538634D01*
X149199120Y-120547480D01*
X149173651Y-120553859D01*
X149147680Y-120557712D01*
X149121456Y-120559000D01*
X148131544Y-120559000D01*
X148105320Y-120557712D01*
X148079349Y-120553859D01*
X148053880Y-120547480D01*
X148029159Y-120538634D01*
X148005425Y-120527409D01*
X147982905Y-120513911D01*
X147961816Y-120498270D01*
X147942362Y-120480638D01*
X147924730Y-120461184D01*
X147909089Y-120440095D01*
X147895591Y-120417575D01*
X147884366Y-120393841D01*
X147875520Y-120369120D01*
X147869141Y-120343651D01*
X147865288Y-120317680D01*
X147864000Y-120291456D01*
X147864000Y-118976544D01*
X147865288Y-118950320D01*
X147869141Y-118924349D01*
X147875520Y-118898880D01*
X147884366Y-118874159D01*
X147895591Y-118850425D01*
X147909089Y-118827905D01*
X147924730Y-118806816D01*
X147942362Y-118787362D01*
X147961816Y-118769730D01*
X147982905Y-118754089D01*
X148005425Y-118740591D01*
X148029159Y-118729366D01*
X148053880Y-118720520D01*
X148079349Y-118714141D01*
X148105320Y-118710288D01*
X148131544Y-118709000D01*
X149121456Y-118709000D01*
X149147680Y-118710288D01*
X149147680Y-118710288D01*
G37*
D25*
X148626500Y-119634000D03*
D24*
G36*
X152122680Y-118710288D02*
G01*
X152148651Y-118714141D01*
X152174120Y-118720520D01*
X152198841Y-118729366D01*
X152222575Y-118740591D01*
X152245095Y-118754089D01*
X152266184Y-118769730D01*
X152285638Y-118787362D01*
X152303270Y-118806816D01*
X152318911Y-118827905D01*
X152332409Y-118850425D01*
X152343634Y-118874159D01*
X152352480Y-118898880D01*
X152358859Y-118924349D01*
X152362712Y-118950320D01*
X152364000Y-118976544D01*
X152364000Y-120291456D01*
X152362712Y-120317680D01*
X152358859Y-120343651D01*
X152352480Y-120369120D01*
X152343634Y-120393841D01*
X152332409Y-120417575D01*
X152318911Y-120440095D01*
X152303270Y-120461184D01*
X152285638Y-120480638D01*
X152266184Y-120498270D01*
X152245095Y-120513911D01*
X152222575Y-120527409D01*
X152198841Y-120538634D01*
X152174120Y-120547480D01*
X152148651Y-120553859D01*
X152122680Y-120557712D01*
X152096456Y-120559000D01*
X151106544Y-120559000D01*
X151080320Y-120557712D01*
X151054349Y-120553859D01*
X151028880Y-120547480D01*
X151004159Y-120538634D01*
X150980425Y-120527409D01*
X150957905Y-120513911D01*
X150936816Y-120498270D01*
X150917362Y-120480638D01*
X150899730Y-120461184D01*
X150884089Y-120440095D01*
X150870591Y-120417575D01*
X150859366Y-120393841D01*
X150850520Y-120369120D01*
X150844141Y-120343651D01*
X150840288Y-120317680D01*
X150839000Y-120291456D01*
X150839000Y-118976544D01*
X150840288Y-118950320D01*
X150844141Y-118924349D01*
X150850520Y-118898880D01*
X150859366Y-118874159D01*
X150870591Y-118850425D01*
X150884089Y-118827905D01*
X150899730Y-118806816D01*
X150917362Y-118787362D01*
X150936816Y-118769730D01*
X150957905Y-118754089D01*
X150980425Y-118740591D01*
X151004159Y-118729366D01*
X151028880Y-118720520D01*
X151054349Y-118714141D01*
X151080320Y-118710288D01*
X151106544Y-118709000D01*
X152096456Y-118709000D01*
X152122680Y-118710288D01*
X152122680Y-118710288D01*
G37*
D25*
X151601500Y-119634000D03*
%TD*%
D24*
%TO.C,R9*%
G36*
X148003680Y-106717288D02*
G01*
X148029651Y-106721141D01*
X148055120Y-106727520D01*
X148079841Y-106736366D01*
X148103575Y-106747591D01*
X148126095Y-106761089D01*
X148147184Y-106776730D01*
X148166638Y-106794362D01*
X148184270Y-106813816D01*
X148199911Y-106834905D01*
X148213409Y-106857425D01*
X148224634Y-106881159D01*
X148233480Y-106905880D01*
X148239859Y-106931349D01*
X148243712Y-106957320D01*
X148245000Y-106983544D01*
X148245000Y-107973456D01*
X148243712Y-107999680D01*
X148239859Y-108025651D01*
X148233480Y-108051120D01*
X148224634Y-108075841D01*
X148213409Y-108099575D01*
X148199911Y-108122095D01*
X148184270Y-108143184D01*
X148166638Y-108162638D01*
X148147184Y-108180270D01*
X148126095Y-108195911D01*
X148103575Y-108209409D01*
X148079841Y-108220634D01*
X148055120Y-108229480D01*
X148029651Y-108235859D01*
X148003680Y-108239712D01*
X147977456Y-108241000D01*
X146662544Y-108241000D01*
X146636320Y-108239712D01*
X146610349Y-108235859D01*
X146584880Y-108229480D01*
X146560159Y-108220634D01*
X146536425Y-108209409D01*
X146513905Y-108195911D01*
X146492816Y-108180270D01*
X146473362Y-108162638D01*
X146455730Y-108143184D01*
X146440089Y-108122095D01*
X146426591Y-108099575D01*
X146415366Y-108075841D01*
X146406520Y-108051120D01*
X146400141Y-108025651D01*
X146396288Y-107999680D01*
X146395000Y-107973456D01*
X146395000Y-106983544D01*
X146396288Y-106957320D01*
X146400141Y-106931349D01*
X146406520Y-106905880D01*
X146415366Y-106881159D01*
X146426591Y-106857425D01*
X146440089Y-106834905D01*
X146455730Y-106813816D01*
X146473362Y-106794362D01*
X146492816Y-106776730D01*
X146513905Y-106761089D01*
X146536425Y-106747591D01*
X146560159Y-106736366D01*
X146584880Y-106727520D01*
X146610349Y-106721141D01*
X146636320Y-106717288D01*
X146662544Y-106716000D01*
X147977456Y-106716000D01*
X148003680Y-106717288D01*
X148003680Y-106717288D01*
G37*
D25*
X147320000Y-107478500D03*
D24*
G36*
X148003680Y-109692288D02*
G01*
X148029651Y-109696141D01*
X148055120Y-109702520D01*
X148079841Y-109711366D01*
X148103575Y-109722591D01*
X148126095Y-109736089D01*
X148147184Y-109751730D01*
X148166638Y-109769362D01*
X148184270Y-109788816D01*
X148199911Y-109809905D01*
X148213409Y-109832425D01*
X148224634Y-109856159D01*
X148233480Y-109880880D01*
X148239859Y-109906349D01*
X148243712Y-109932320D01*
X148245000Y-109958544D01*
X148245000Y-110948456D01*
X148243712Y-110974680D01*
X148239859Y-111000651D01*
X148233480Y-111026120D01*
X148224634Y-111050841D01*
X148213409Y-111074575D01*
X148199911Y-111097095D01*
X148184270Y-111118184D01*
X148166638Y-111137638D01*
X148147184Y-111155270D01*
X148126095Y-111170911D01*
X148103575Y-111184409D01*
X148079841Y-111195634D01*
X148055120Y-111204480D01*
X148029651Y-111210859D01*
X148003680Y-111214712D01*
X147977456Y-111216000D01*
X146662544Y-111216000D01*
X146636320Y-111214712D01*
X146610349Y-111210859D01*
X146584880Y-111204480D01*
X146560159Y-111195634D01*
X146536425Y-111184409D01*
X146513905Y-111170911D01*
X146492816Y-111155270D01*
X146473362Y-111137638D01*
X146455730Y-111118184D01*
X146440089Y-111097095D01*
X146426591Y-111074575D01*
X146415366Y-111050841D01*
X146406520Y-111026120D01*
X146400141Y-111000651D01*
X146396288Y-110974680D01*
X146395000Y-110948456D01*
X146395000Y-109958544D01*
X146396288Y-109932320D01*
X146400141Y-109906349D01*
X146406520Y-109880880D01*
X146415366Y-109856159D01*
X146426591Y-109832425D01*
X146440089Y-109809905D01*
X146455730Y-109788816D01*
X146473362Y-109769362D01*
X146492816Y-109751730D01*
X146513905Y-109736089D01*
X146536425Y-109722591D01*
X146560159Y-109711366D01*
X146584880Y-109702520D01*
X146610349Y-109696141D01*
X146636320Y-109692288D01*
X146662544Y-109691000D01*
X147977456Y-109691000D01*
X148003680Y-109692288D01*
X148003680Y-109692288D01*
G37*
D25*
X147320000Y-110453500D03*
%TD*%
D24*
%TO.C,R10*%
G36*
X150543680Y-106717288D02*
G01*
X150569651Y-106721141D01*
X150595120Y-106727520D01*
X150619841Y-106736366D01*
X150643575Y-106747591D01*
X150666095Y-106761089D01*
X150687184Y-106776730D01*
X150706638Y-106794362D01*
X150724270Y-106813816D01*
X150739911Y-106834905D01*
X150753409Y-106857425D01*
X150764634Y-106881159D01*
X150773480Y-106905880D01*
X150779859Y-106931349D01*
X150783712Y-106957320D01*
X150785000Y-106983544D01*
X150785000Y-107973456D01*
X150783712Y-107999680D01*
X150779859Y-108025651D01*
X150773480Y-108051120D01*
X150764634Y-108075841D01*
X150753409Y-108099575D01*
X150739911Y-108122095D01*
X150724270Y-108143184D01*
X150706638Y-108162638D01*
X150687184Y-108180270D01*
X150666095Y-108195911D01*
X150643575Y-108209409D01*
X150619841Y-108220634D01*
X150595120Y-108229480D01*
X150569651Y-108235859D01*
X150543680Y-108239712D01*
X150517456Y-108241000D01*
X149202544Y-108241000D01*
X149176320Y-108239712D01*
X149150349Y-108235859D01*
X149124880Y-108229480D01*
X149100159Y-108220634D01*
X149076425Y-108209409D01*
X149053905Y-108195911D01*
X149032816Y-108180270D01*
X149013362Y-108162638D01*
X148995730Y-108143184D01*
X148980089Y-108122095D01*
X148966591Y-108099575D01*
X148955366Y-108075841D01*
X148946520Y-108051120D01*
X148940141Y-108025651D01*
X148936288Y-107999680D01*
X148935000Y-107973456D01*
X148935000Y-106983544D01*
X148936288Y-106957320D01*
X148940141Y-106931349D01*
X148946520Y-106905880D01*
X148955366Y-106881159D01*
X148966591Y-106857425D01*
X148980089Y-106834905D01*
X148995730Y-106813816D01*
X149013362Y-106794362D01*
X149032816Y-106776730D01*
X149053905Y-106761089D01*
X149076425Y-106747591D01*
X149100159Y-106736366D01*
X149124880Y-106727520D01*
X149150349Y-106721141D01*
X149176320Y-106717288D01*
X149202544Y-106716000D01*
X150517456Y-106716000D01*
X150543680Y-106717288D01*
X150543680Y-106717288D01*
G37*
D25*
X149860000Y-107478500D03*
D24*
G36*
X150543680Y-109692288D02*
G01*
X150569651Y-109696141D01*
X150595120Y-109702520D01*
X150619841Y-109711366D01*
X150643575Y-109722591D01*
X150666095Y-109736089D01*
X150687184Y-109751730D01*
X150706638Y-109769362D01*
X150724270Y-109788816D01*
X150739911Y-109809905D01*
X150753409Y-109832425D01*
X150764634Y-109856159D01*
X150773480Y-109880880D01*
X150779859Y-109906349D01*
X150783712Y-109932320D01*
X150785000Y-109958544D01*
X150785000Y-110948456D01*
X150783712Y-110974680D01*
X150779859Y-111000651D01*
X150773480Y-111026120D01*
X150764634Y-111050841D01*
X150753409Y-111074575D01*
X150739911Y-111097095D01*
X150724270Y-111118184D01*
X150706638Y-111137638D01*
X150687184Y-111155270D01*
X150666095Y-111170911D01*
X150643575Y-111184409D01*
X150619841Y-111195634D01*
X150595120Y-111204480D01*
X150569651Y-111210859D01*
X150543680Y-111214712D01*
X150517456Y-111216000D01*
X149202544Y-111216000D01*
X149176320Y-111214712D01*
X149150349Y-111210859D01*
X149124880Y-111204480D01*
X149100159Y-111195634D01*
X149076425Y-111184409D01*
X149053905Y-111170911D01*
X149032816Y-111155270D01*
X149013362Y-111137638D01*
X148995730Y-111118184D01*
X148980089Y-111097095D01*
X148966591Y-111074575D01*
X148955366Y-111050841D01*
X148946520Y-111026120D01*
X148940141Y-111000651D01*
X148936288Y-110974680D01*
X148935000Y-110948456D01*
X148935000Y-109958544D01*
X148936288Y-109932320D01*
X148940141Y-109906349D01*
X148946520Y-109880880D01*
X148955366Y-109856159D01*
X148966591Y-109832425D01*
X148980089Y-109809905D01*
X148995730Y-109788816D01*
X149013362Y-109769362D01*
X149032816Y-109751730D01*
X149053905Y-109736089D01*
X149076425Y-109722591D01*
X149100159Y-109711366D01*
X149124880Y-109702520D01*
X149150349Y-109696141D01*
X149176320Y-109692288D01*
X149202544Y-109691000D01*
X150517456Y-109691000D01*
X150543680Y-109692288D01*
X150543680Y-109692288D01*
G37*
D25*
X149860000Y-110453500D03*
%TD*%
D24*
%TO.C,R11*%
G36*
X180008680Y-99279288D02*
G01*
X180034651Y-99283141D01*
X180060120Y-99289520D01*
X180084841Y-99298366D01*
X180108575Y-99309591D01*
X180131095Y-99323089D01*
X180152184Y-99338730D01*
X180171638Y-99356362D01*
X180189270Y-99375816D01*
X180204911Y-99396905D01*
X180218409Y-99419425D01*
X180229634Y-99443159D01*
X180238480Y-99467880D01*
X180244859Y-99493349D01*
X180248712Y-99519320D01*
X180250000Y-99545544D01*
X180250000Y-100860456D01*
X180248712Y-100886680D01*
X180244859Y-100912651D01*
X180238480Y-100938120D01*
X180229634Y-100962841D01*
X180218409Y-100986575D01*
X180204911Y-101009095D01*
X180189270Y-101030184D01*
X180171638Y-101049638D01*
X180152184Y-101067270D01*
X180131095Y-101082911D01*
X180108575Y-101096409D01*
X180084841Y-101107634D01*
X180060120Y-101116480D01*
X180034651Y-101122859D01*
X180008680Y-101126712D01*
X179982456Y-101128000D01*
X178992544Y-101128000D01*
X178966320Y-101126712D01*
X178940349Y-101122859D01*
X178914880Y-101116480D01*
X178890159Y-101107634D01*
X178866425Y-101096409D01*
X178843905Y-101082911D01*
X178822816Y-101067270D01*
X178803362Y-101049638D01*
X178785730Y-101030184D01*
X178770089Y-101009095D01*
X178756591Y-100986575D01*
X178745366Y-100962841D01*
X178736520Y-100938120D01*
X178730141Y-100912651D01*
X178726288Y-100886680D01*
X178725000Y-100860456D01*
X178725000Y-99545544D01*
X178726288Y-99519320D01*
X178730141Y-99493349D01*
X178736520Y-99467880D01*
X178745366Y-99443159D01*
X178756591Y-99419425D01*
X178770089Y-99396905D01*
X178785730Y-99375816D01*
X178803362Y-99356362D01*
X178822816Y-99338730D01*
X178843905Y-99323089D01*
X178866425Y-99309591D01*
X178890159Y-99298366D01*
X178914880Y-99289520D01*
X178940349Y-99283141D01*
X178966320Y-99279288D01*
X178992544Y-99278000D01*
X179982456Y-99278000D01*
X180008680Y-99279288D01*
X180008680Y-99279288D01*
G37*
D25*
X179487500Y-100203000D03*
D24*
G36*
X182983680Y-99279288D02*
G01*
X183009651Y-99283141D01*
X183035120Y-99289520D01*
X183059841Y-99298366D01*
X183083575Y-99309591D01*
X183106095Y-99323089D01*
X183127184Y-99338730D01*
X183146638Y-99356362D01*
X183164270Y-99375816D01*
X183179911Y-99396905D01*
X183193409Y-99419425D01*
X183204634Y-99443159D01*
X183213480Y-99467880D01*
X183219859Y-99493349D01*
X183223712Y-99519320D01*
X183225000Y-99545544D01*
X183225000Y-100860456D01*
X183223712Y-100886680D01*
X183219859Y-100912651D01*
X183213480Y-100938120D01*
X183204634Y-100962841D01*
X183193409Y-100986575D01*
X183179911Y-101009095D01*
X183164270Y-101030184D01*
X183146638Y-101049638D01*
X183127184Y-101067270D01*
X183106095Y-101082911D01*
X183083575Y-101096409D01*
X183059841Y-101107634D01*
X183035120Y-101116480D01*
X183009651Y-101122859D01*
X182983680Y-101126712D01*
X182957456Y-101128000D01*
X181967544Y-101128000D01*
X181941320Y-101126712D01*
X181915349Y-101122859D01*
X181889880Y-101116480D01*
X181865159Y-101107634D01*
X181841425Y-101096409D01*
X181818905Y-101082911D01*
X181797816Y-101067270D01*
X181778362Y-101049638D01*
X181760730Y-101030184D01*
X181745089Y-101009095D01*
X181731591Y-100986575D01*
X181720366Y-100962841D01*
X181711520Y-100938120D01*
X181705141Y-100912651D01*
X181701288Y-100886680D01*
X181700000Y-100860456D01*
X181700000Y-99545544D01*
X181701288Y-99519320D01*
X181705141Y-99493349D01*
X181711520Y-99467880D01*
X181720366Y-99443159D01*
X181731591Y-99419425D01*
X181745089Y-99396905D01*
X181760730Y-99375816D01*
X181778362Y-99356362D01*
X181797816Y-99338730D01*
X181818905Y-99323089D01*
X181841425Y-99309591D01*
X181865159Y-99298366D01*
X181889880Y-99289520D01*
X181915349Y-99283141D01*
X181941320Y-99279288D01*
X181967544Y-99278000D01*
X182957456Y-99278000D01*
X182983680Y-99279288D01*
X182983680Y-99279288D01*
G37*
D25*
X182462500Y-100203000D03*
%TD*%
D24*
%TO.C,R12*%
G36*
X180008680Y-96739288D02*
G01*
X180034651Y-96743141D01*
X180060120Y-96749520D01*
X180084841Y-96758366D01*
X180108575Y-96769591D01*
X180131095Y-96783089D01*
X180152184Y-96798730D01*
X180171638Y-96816362D01*
X180189270Y-96835816D01*
X180204911Y-96856905D01*
X180218409Y-96879425D01*
X180229634Y-96903159D01*
X180238480Y-96927880D01*
X180244859Y-96953349D01*
X180248712Y-96979320D01*
X180250000Y-97005544D01*
X180250000Y-98320456D01*
X180248712Y-98346680D01*
X180244859Y-98372651D01*
X180238480Y-98398120D01*
X180229634Y-98422841D01*
X180218409Y-98446575D01*
X180204911Y-98469095D01*
X180189270Y-98490184D01*
X180171638Y-98509638D01*
X180152184Y-98527270D01*
X180131095Y-98542911D01*
X180108575Y-98556409D01*
X180084841Y-98567634D01*
X180060120Y-98576480D01*
X180034651Y-98582859D01*
X180008680Y-98586712D01*
X179982456Y-98588000D01*
X178992544Y-98588000D01*
X178966320Y-98586712D01*
X178940349Y-98582859D01*
X178914880Y-98576480D01*
X178890159Y-98567634D01*
X178866425Y-98556409D01*
X178843905Y-98542911D01*
X178822816Y-98527270D01*
X178803362Y-98509638D01*
X178785730Y-98490184D01*
X178770089Y-98469095D01*
X178756591Y-98446575D01*
X178745366Y-98422841D01*
X178736520Y-98398120D01*
X178730141Y-98372651D01*
X178726288Y-98346680D01*
X178725000Y-98320456D01*
X178725000Y-97005544D01*
X178726288Y-96979320D01*
X178730141Y-96953349D01*
X178736520Y-96927880D01*
X178745366Y-96903159D01*
X178756591Y-96879425D01*
X178770089Y-96856905D01*
X178785730Y-96835816D01*
X178803362Y-96816362D01*
X178822816Y-96798730D01*
X178843905Y-96783089D01*
X178866425Y-96769591D01*
X178890159Y-96758366D01*
X178914880Y-96749520D01*
X178940349Y-96743141D01*
X178966320Y-96739288D01*
X178992544Y-96738000D01*
X179982456Y-96738000D01*
X180008680Y-96739288D01*
X180008680Y-96739288D01*
G37*
D25*
X179487500Y-97663000D03*
D24*
G36*
X182983680Y-96739288D02*
G01*
X183009651Y-96743141D01*
X183035120Y-96749520D01*
X183059841Y-96758366D01*
X183083575Y-96769591D01*
X183106095Y-96783089D01*
X183127184Y-96798730D01*
X183146638Y-96816362D01*
X183164270Y-96835816D01*
X183179911Y-96856905D01*
X183193409Y-96879425D01*
X183204634Y-96903159D01*
X183213480Y-96927880D01*
X183219859Y-96953349D01*
X183223712Y-96979320D01*
X183225000Y-97005544D01*
X183225000Y-98320456D01*
X183223712Y-98346680D01*
X183219859Y-98372651D01*
X183213480Y-98398120D01*
X183204634Y-98422841D01*
X183193409Y-98446575D01*
X183179911Y-98469095D01*
X183164270Y-98490184D01*
X183146638Y-98509638D01*
X183127184Y-98527270D01*
X183106095Y-98542911D01*
X183083575Y-98556409D01*
X183059841Y-98567634D01*
X183035120Y-98576480D01*
X183009651Y-98582859D01*
X182983680Y-98586712D01*
X182957456Y-98588000D01*
X181967544Y-98588000D01*
X181941320Y-98586712D01*
X181915349Y-98582859D01*
X181889880Y-98576480D01*
X181865159Y-98567634D01*
X181841425Y-98556409D01*
X181818905Y-98542911D01*
X181797816Y-98527270D01*
X181778362Y-98509638D01*
X181760730Y-98490184D01*
X181745089Y-98469095D01*
X181731591Y-98446575D01*
X181720366Y-98422841D01*
X181711520Y-98398120D01*
X181705141Y-98372651D01*
X181701288Y-98346680D01*
X181700000Y-98320456D01*
X181700000Y-97005544D01*
X181701288Y-96979320D01*
X181705141Y-96953349D01*
X181711520Y-96927880D01*
X181720366Y-96903159D01*
X181731591Y-96879425D01*
X181745089Y-96856905D01*
X181760730Y-96835816D01*
X181778362Y-96816362D01*
X181797816Y-96798730D01*
X181818905Y-96783089D01*
X181841425Y-96769591D01*
X181865159Y-96758366D01*
X181889880Y-96749520D01*
X181915349Y-96743141D01*
X181941320Y-96739288D01*
X181967544Y-96738000D01*
X182957456Y-96738000D01*
X182983680Y-96739288D01*
X182983680Y-96739288D01*
G37*
D25*
X182462500Y-97663000D03*
%TD*%
D24*
%TO.C,R13*%
G36*
X144574680Y-111924288D02*
G01*
X144600651Y-111928141D01*
X144626120Y-111934520D01*
X144650841Y-111943366D01*
X144674575Y-111954591D01*
X144697095Y-111968089D01*
X144718184Y-111983730D01*
X144737638Y-112001362D01*
X144755270Y-112020816D01*
X144770911Y-112041905D01*
X144784409Y-112064425D01*
X144795634Y-112088159D01*
X144804480Y-112112880D01*
X144810859Y-112138349D01*
X144814712Y-112164320D01*
X144816000Y-112190544D01*
X144816000Y-113180456D01*
X144814712Y-113206680D01*
X144810859Y-113232651D01*
X144804480Y-113258120D01*
X144795634Y-113282841D01*
X144784409Y-113306575D01*
X144770911Y-113329095D01*
X144755270Y-113350184D01*
X144737638Y-113369638D01*
X144718184Y-113387270D01*
X144697095Y-113402911D01*
X144674575Y-113416409D01*
X144650841Y-113427634D01*
X144626120Y-113436480D01*
X144600651Y-113442859D01*
X144574680Y-113446712D01*
X144548456Y-113448000D01*
X143233544Y-113448000D01*
X143207320Y-113446712D01*
X143181349Y-113442859D01*
X143155880Y-113436480D01*
X143131159Y-113427634D01*
X143107425Y-113416409D01*
X143084905Y-113402911D01*
X143063816Y-113387270D01*
X143044362Y-113369638D01*
X143026730Y-113350184D01*
X143011089Y-113329095D01*
X142997591Y-113306575D01*
X142986366Y-113282841D01*
X142977520Y-113258120D01*
X142971141Y-113232651D01*
X142967288Y-113206680D01*
X142966000Y-113180456D01*
X142966000Y-112190544D01*
X142967288Y-112164320D01*
X142971141Y-112138349D01*
X142977520Y-112112880D01*
X142986366Y-112088159D01*
X142997591Y-112064425D01*
X143011089Y-112041905D01*
X143026730Y-112020816D01*
X143044362Y-112001362D01*
X143063816Y-111983730D01*
X143084905Y-111968089D01*
X143107425Y-111954591D01*
X143131159Y-111943366D01*
X143155880Y-111934520D01*
X143181349Y-111928141D01*
X143207320Y-111924288D01*
X143233544Y-111923000D01*
X144548456Y-111923000D01*
X144574680Y-111924288D01*
X144574680Y-111924288D01*
G37*
D25*
X143891000Y-112685500D03*
D24*
G36*
X144574680Y-114899288D02*
G01*
X144600651Y-114903141D01*
X144626120Y-114909520D01*
X144650841Y-114918366D01*
X144674575Y-114929591D01*
X144697095Y-114943089D01*
X144718184Y-114958730D01*
X144737638Y-114976362D01*
X144755270Y-114995816D01*
X144770911Y-115016905D01*
X144784409Y-115039425D01*
X144795634Y-115063159D01*
X144804480Y-115087880D01*
X144810859Y-115113349D01*
X144814712Y-115139320D01*
X144816000Y-115165544D01*
X144816000Y-116155456D01*
X144814712Y-116181680D01*
X144810859Y-116207651D01*
X144804480Y-116233120D01*
X144795634Y-116257841D01*
X144784409Y-116281575D01*
X144770911Y-116304095D01*
X144755270Y-116325184D01*
X144737638Y-116344638D01*
X144718184Y-116362270D01*
X144697095Y-116377911D01*
X144674575Y-116391409D01*
X144650841Y-116402634D01*
X144626120Y-116411480D01*
X144600651Y-116417859D01*
X144574680Y-116421712D01*
X144548456Y-116423000D01*
X143233544Y-116423000D01*
X143207320Y-116421712D01*
X143181349Y-116417859D01*
X143155880Y-116411480D01*
X143131159Y-116402634D01*
X143107425Y-116391409D01*
X143084905Y-116377911D01*
X143063816Y-116362270D01*
X143044362Y-116344638D01*
X143026730Y-116325184D01*
X143011089Y-116304095D01*
X142997591Y-116281575D01*
X142986366Y-116257841D01*
X142977520Y-116233120D01*
X142971141Y-116207651D01*
X142967288Y-116181680D01*
X142966000Y-116155456D01*
X142966000Y-115165544D01*
X142967288Y-115139320D01*
X142971141Y-115113349D01*
X142977520Y-115087880D01*
X142986366Y-115063159D01*
X142997591Y-115039425D01*
X143011089Y-115016905D01*
X143026730Y-114995816D01*
X143044362Y-114976362D01*
X143063816Y-114958730D01*
X143084905Y-114943089D01*
X143107425Y-114929591D01*
X143131159Y-114918366D01*
X143155880Y-114909520D01*
X143181349Y-114903141D01*
X143207320Y-114899288D01*
X143233544Y-114898000D01*
X144548456Y-114898000D01*
X144574680Y-114899288D01*
X144574680Y-114899288D01*
G37*
D25*
X143891000Y-115660500D03*
%TD*%
D24*
%TO.C,R14*%
G36*
X155877680Y-119090288D02*
G01*
X155903651Y-119094141D01*
X155929120Y-119100520D01*
X155953841Y-119109366D01*
X155977575Y-119120591D01*
X156000095Y-119134089D01*
X156021184Y-119149730D01*
X156040638Y-119167362D01*
X156058270Y-119186816D01*
X156073911Y-119207905D01*
X156087409Y-119230425D01*
X156098634Y-119254159D01*
X156107480Y-119278880D01*
X156113859Y-119304349D01*
X156117712Y-119330320D01*
X156119000Y-119356544D01*
X156119000Y-120346456D01*
X156117712Y-120372680D01*
X156113859Y-120398651D01*
X156107480Y-120424120D01*
X156098634Y-120448841D01*
X156087409Y-120472575D01*
X156073911Y-120495095D01*
X156058270Y-120516184D01*
X156040638Y-120535638D01*
X156021184Y-120553270D01*
X156000095Y-120568911D01*
X155977575Y-120582409D01*
X155953841Y-120593634D01*
X155929120Y-120602480D01*
X155903651Y-120608859D01*
X155877680Y-120612712D01*
X155851456Y-120614000D01*
X154536544Y-120614000D01*
X154510320Y-120612712D01*
X154484349Y-120608859D01*
X154458880Y-120602480D01*
X154434159Y-120593634D01*
X154410425Y-120582409D01*
X154387905Y-120568911D01*
X154366816Y-120553270D01*
X154347362Y-120535638D01*
X154329730Y-120516184D01*
X154314089Y-120495095D01*
X154300591Y-120472575D01*
X154289366Y-120448841D01*
X154280520Y-120424120D01*
X154274141Y-120398651D01*
X154270288Y-120372680D01*
X154269000Y-120346456D01*
X154269000Y-119356544D01*
X154270288Y-119330320D01*
X154274141Y-119304349D01*
X154280520Y-119278880D01*
X154289366Y-119254159D01*
X154300591Y-119230425D01*
X154314089Y-119207905D01*
X154329730Y-119186816D01*
X154347362Y-119167362D01*
X154366816Y-119149730D01*
X154387905Y-119134089D01*
X154410425Y-119120591D01*
X154434159Y-119109366D01*
X154458880Y-119100520D01*
X154484349Y-119094141D01*
X154510320Y-119090288D01*
X154536544Y-119089000D01*
X155851456Y-119089000D01*
X155877680Y-119090288D01*
X155877680Y-119090288D01*
G37*
D25*
X155194000Y-119851500D03*
D24*
G36*
X155877680Y-116115288D02*
G01*
X155903651Y-116119141D01*
X155929120Y-116125520D01*
X155953841Y-116134366D01*
X155977575Y-116145591D01*
X156000095Y-116159089D01*
X156021184Y-116174730D01*
X156040638Y-116192362D01*
X156058270Y-116211816D01*
X156073911Y-116232905D01*
X156087409Y-116255425D01*
X156098634Y-116279159D01*
X156107480Y-116303880D01*
X156113859Y-116329349D01*
X156117712Y-116355320D01*
X156119000Y-116381544D01*
X156119000Y-117371456D01*
X156117712Y-117397680D01*
X156113859Y-117423651D01*
X156107480Y-117449120D01*
X156098634Y-117473841D01*
X156087409Y-117497575D01*
X156073911Y-117520095D01*
X156058270Y-117541184D01*
X156040638Y-117560638D01*
X156021184Y-117578270D01*
X156000095Y-117593911D01*
X155977575Y-117607409D01*
X155953841Y-117618634D01*
X155929120Y-117627480D01*
X155903651Y-117633859D01*
X155877680Y-117637712D01*
X155851456Y-117639000D01*
X154536544Y-117639000D01*
X154510320Y-117637712D01*
X154484349Y-117633859D01*
X154458880Y-117627480D01*
X154434159Y-117618634D01*
X154410425Y-117607409D01*
X154387905Y-117593911D01*
X154366816Y-117578270D01*
X154347362Y-117560638D01*
X154329730Y-117541184D01*
X154314089Y-117520095D01*
X154300591Y-117497575D01*
X154289366Y-117473841D01*
X154280520Y-117449120D01*
X154274141Y-117423651D01*
X154270288Y-117397680D01*
X154269000Y-117371456D01*
X154269000Y-116381544D01*
X154270288Y-116355320D01*
X154274141Y-116329349D01*
X154280520Y-116303880D01*
X154289366Y-116279159D01*
X154300591Y-116255425D01*
X154314089Y-116232905D01*
X154329730Y-116211816D01*
X154347362Y-116192362D01*
X154366816Y-116174730D01*
X154387905Y-116159089D01*
X154410425Y-116145591D01*
X154434159Y-116134366D01*
X154458880Y-116125520D01*
X154484349Y-116119141D01*
X154510320Y-116115288D01*
X154536544Y-116114000D01*
X155851456Y-116114000D01*
X155877680Y-116115288D01*
X155877680Y-116115288D01*
G37*
D25*
X155194000Y-116876500D03*
%TD*%
D24*
%TO.C,R15*%
G36*
X177903680Y-96739288D02*
G01*
X177929651Y-96743141D01*
X177955120Y-96749520D01*
X177979841Y-96758366D01*
X178003575Y-96769591D01*
X178026095Y-96783089D01*
X178047184Y-96798730D01*
X178066638Y-96816362D01*
X178084270Y-96835816D01*
X178099911Y-96856905D01*
X178113409Y-96879425D01*
X178124634Y-96903159D01*
X178133480Y-96927880D01*
X178139859Y-96953349D01*
X178143712Y-96979320D01*
X178145000Y-97005544D01*
X178145000Y-98320456D01*
X178143712Y-98346680D01*
X178139859Y-98372651D01*
X178133480Y-98398120D01*
X178124634Y-98422841D01*
X178113409Y-98446575D01*
X178099911Y-98469095D01*
X178084270Y-98490184D01*
X178066638Y-98509638D01*
X178047184Y-98527270D01*
X178026095Y-98542911D01*
X178003575Y-98556409D01*
X177979841Y-98567634D01*
X177955120Y-98576480D01*
X177929651Y-98582859D01*
X177903680Y-98586712D01*
X177877456Y-98588000D01*
X176887544Y-98588000D01*
X176861320Y-98586712D01*
X176835349Y-98582859D01*
X176809880Y-98576480D01*
X176785159Y-98567634D01*
X176761425Y-98556409D01*
X176738905Y-98542911D01*
X176717816Y-98527270D01*
X176698362Y-98509638D01*
X176680730Y-98490184D01*
X176665089Y-98469095D01*
X176651591Y-98446575D01*
X176640366Y-98422841D01*
X176631520Y-98398120D01*
X176625141Y-98372651D01*
X176621288Y-98346680D01*
X176620000Y-98320456D01*
X176620000Y-97005544D01*
X176621288Y-96979320D01*
X176625141Y-96953349D01*
X176631520Y-96927880D01*
X176640366Y-96903159D01*
X176651591Y-96879425D01*
X176665089Y-96856905D01*
X176680730Y-96835816D01*
X176698362Y-96816362D01*
X176717816Y-96798730D01*
X176738905Y-96783089D01*
X176761425Y-96769591D01*
X176785159Y-96758366D01*
X176809880Y-96749520D01*
X176835349Y-96743141D01*
X176861320Y-96739288D01*
X176887544Y-96738000D01*
X177877456Y-96738000D01*
X177903680Y-96739288D01*
X177903680Y-96739288D01*
G37*
D25*
X177382500Y-97663000D03*
D24*
G36*
X174928680Y-96739288D02*
G01*
X174954651Y-96743141D01*
X174980120Y-96749520D01*
X175004841Y-96758366D01*
X175028575Y-96769591D01*
X175051095Y-96783089D01*
X175072184Y-96798730D01*
X175091638Y-96816362D01*
X175109270Y-96835816D01*
X175124911Y-96856905D01*
X175138409Y-96879425D01*
X175149634Y-96903159D01*
X175158480Y-96927880D01*
X175164859Y-96953349D01*
X175168712Y-96979320D01*
X175170000Y-97005544D01*
X175170000Y-98320456D01*
X175168712Y-98346680D01*
X175164859Y-98372651D01*
X175158480Y-98398120D01*
X175149634Y-98422841D01*
X175138409Y-98446575D01*
X175124911Y-98469095D01*
X175109270Y-98490184D01*
X175091638Y-98509638D01*
X175072184Y-98527270D01*
X175051095Y-98542911D01*
X175028575Y-98556409D01*
X175004841Y-98567634D01*
X174980120Y-98576480D01*
X174954651Y-98582859D01*
X174928680Y-98586712D01*
X174902456Y-98588000D01*
X173912544Y-98588000D01*
X173886320Y-98586712D01*
X173860349Y-98582859D01*
X173834880Y-98576480D01*
X173810159Y-98567634D01*
X173786425Y-98556409D01*
X173763905Y-98542911D01*
X173742816Y-98527270D01*
X173723362Y-98509638D01*
X173705730Y-98490184D01*
X173690089Y-98469095D01*
X173676591Y-98446575D01*
X173665366Y-98422841D01*
X173656520Y-98398120D01*
X173650141Y-98372651D01*
X173646288Y-98346680D01*
X173645000Y-98320456D01*
X173645000Y-97005544D01*
X173646288Y-96979320D01*
X173650141Y-96953349D01*
X173656520Y-96927880D01*
X173665366Y-96903159D01*
X173676591Y-96879425D01*
X173690089Y-96856905D01*
X173705730Y-96835816D01*
X173723362Y-96816362D01*
X173742816Y-96798730D01*
X173763905Y-96783089D01*
X173786425Y-96769591D01*
X173810159Y-96758366D01*
X173834880Y-96749520D01*
X173860349Y-96743141D01*
X173886320Y-96739288D01*
X173912544Y-96738000D01*
X174902456Y-96738000D01*
X174928680Y-96739288D01*
X174928680Y-96739288D01*
G37*
D25*
X174407500Y-97663000D03*
%TD*%
D24*
%TO.C,R16*%
G36*
X162863680Y-101184288D02*
G01*
X162889651Y-101188141D01*
X162915120Y-101194520D01*
X162939841Y-101203366D01*
X162963575Y-101214591D01*
X162986095Y-101228089D01*
X163007184Y-101243730D01*
X163026638Y-101261362D01*
X163044270Y-101280816D01*
X163059911Y-101301905D01*
X163073409Y-101324425D01*
X163084634Y-101348159D01*
X163093480Y-101372880D01*
X163099859Y-101398349D01*
X163103712Y-101424320D01*
X163105000Y-101450544D01*
X163105000Y-102765456D01*
X163103712Y-102791680D01*
X163099859Y-102817651D01*
X163093480Y-102843120D01*
X163084634Y-102867841D01*
X163073409Y-102891575D01*
X163059911Y-102914095D01*
X163044270Y-102935184D01*
X163026638Y-102954638D01*
X163007184Y-102972270D01*
X162986095Y-102987911D01*
X162963575Y-103001409D01*
X162939841Y-103012634D01*
X162915120Y-103021480D01*
X162889651Y-103027859D01*
X162863680Y-103031712D01*
X162837456Y-103033000D01*
X161847544Y-103033000D01*
X161821320Y-103031712D01*
X161795349Y-103027859D01*
X161769880Y-103021480D01*
X161745159Y-103012634D01*
X161721425Y-103001409D01*
X161698905Y-102987911D01*
X161677816Y-102972270D01*
X161658362Y-102954638D01*
X161640730Y-102935184D01*
X161625089Y-102914095D01*
X161611591Y-102891575D01*
X161600366Y-102867841D01*
X161591520Y-102843120D01*
X161585141Y-102817651D01*
X161581288Y-102791680D01*
X161580000Y-102765456D01*
X161580000Y-101450544D01*
X161581288Y-101424320D01*
X161585141Y-101398349D01*
X161591520Y-101372880D01*
X161600366Y-101348159D01*
X161611591Y-101324425D01*
X161625089Y-101301905D01*
X161640730Y-101280816D01*
X161658362Y-101261362D01*
X161677816Y-101243730D01*
X161698905Y-101228089D01*
X161721425Y-101214591D01*
X161745159Y-101203366D01*
X161769880Y-101194520D01*
X161795349Y-101188141D01*
X161821320Y-101184288D01*
X161847544Y-101183000D01*
X162837456Y-101183000D01*
X162863680Y-101184288D01*
X162863680Y-101184288D01*
G37*
D25*
X162342500Y-102108000D03*
D24*
G36*
X165838680Y-101184288D02*
G01*
X165864651Y-101188141D01*
X165890120Y-101194520D01*
X165914841Y-101203366D01*
X165938575Y-101214591D01*
X165961095Y-101228089D01*
X165982184Y-101243730D01*
X166001638Y-101261362D01*
X166019270Y-101280816D01*
X166034911Y-101301905D01*
X166048409Y-101324425D01*
X166059634Y-101348159D01*
X166068480Y-101372880D01*
X166074859Y-101398349D01*
X166078712Y-101424320D01*
X166080000Y-101450544D01*
X166080000Y-102765456D01*
X166078712Y-102791680D01*
X166074859Y-102817651D01*
X166068480Y-102843120D01*
X166059634Y-102867841D01*
X166048409Y-102891575D01*
X166034911Y-102914095D01*
X166019270Y-102935184D01*
X166001638Y-102954638D01*
X165982184Y-102972270D01*
X165961095Y-102987911D01*
X165938575Y-103001409D01*
X165914841Y-103012634D01*
X165890120Y-103021480D01*
X165864651Y-103027859D01*
X165838680Y-103031712D01*
X165812456Y-103033000D01*
X164822544Y-103033000D01*
X164796320Y-103031712D01*
X164770349Y-103027859D01*
X164744880Y-103021480D01*
X164720159Y-103012634D01*
X164696425Y-103001409D01*
X164673905Y-102987911D01*
X164652816Y-102972270D01*
X164633362Y-102954638D01*
X164615730Y-102935184D01*
X164600089Y-102914095D01*
X164586591Y-102891575D01*
X164575366Y-102867841D01*
X164566520Y-102843120D01*
X164560141Y-102817651D01*
X164556288Y-102791680D01*
X164555000Y-102765456D01*
X164555000Y-101450544D01*
X164556288Y-101424320D01*
X164560141Y-101398349D01*
X164566520Y-101372880D01*
X164575366Y-101348159D01*
X164586591Y-101324425D01*
X164600089Y-101301905D01*
X164615730Y-101280816D01*
X164633362Y-101261362D01*
X164652816Y-101243730D01*
X164673905Y-101228089D01*
X164696425Y-101214591D01*
X164720159Y-101203366D01*
X164744880Y-101194520D01*
X164770349Y-101188141D01*
X164796320Y-101184288D01*
X164822544Y-101183000D01*
X165812456Y-101183000D01*
X165838680Y-101184288D01*
X165838680Y-101184288D01*
G37*
D25*
X165317500Y-102108000D03*
%TD*%
D24*
%TO.C,R17*%
G36*
X109396680Y-108677288D02*
G01*
X109422651Y-108681141D01*
X109448120Y-108687520D01*
X109472841Y-108696366D01*
X109496575Y-108707591D01*
X109519095Y-108721089D01*
X109540184Y-108736730D01*
X109559638Y-108754362D01*
X109577270Y-108773816D01*
X109592911Y-108794905D01*
X109606409Y-108817425D01*
X109617634Y-108841159D01*
X109626480Y-108865880D01*
X109632859Y-108891349D01*
X109636712Y-108917320D01*
X109638000Y-108943544D01*
X109638000Y-110258456D01*
X109636712Y-110284680D01*
X109632859Y-110310651D01*
X109626480Y-110336120D01*
X109617634Y-110360841D01*
X109606409Y-110384575D01*
X109592911Y-110407095D01*
X109577270Y-110428184D01*
X109559638Y-110447638D01*
X109540184Y-110465270D01*
X109519095Y-110480911D01*
X109496575Y-110494409D01*
X109472841Y-110505634D01*
X109448120Y-110514480D01*
X109422651Y-110520859D01*
X109396680Y-110524712D01*
X109370456Y-110526000D01*
X108380544Y-110526000D01*
X108354320Y-110524712D01*
X108328349Y-110520859D01*
X108302880Y-110514480D01*
X108278159Y-110505634D01*
X108254425Y-110494409D01*
X108231905Y-110480911D01*
X108210816Y-110465270D01*
X108191362Y-110447638D01*
X108173730Y-110428184D01*
X108158089Y-110407095D01*
X108144591Y-110384575D01*
X108133366Y-110360841D01*
X108124520Y-110336120D01*
X108118141Y-110310651D01*
X108114288Y-110284680D01*
X108113000Y-110258456D01*
X108113000Y-108943544D01*
X108114288Y-108917320D01*
X108118141Y-108891349D01*
X108124520Y-108865880D01*
X108133366Y-108841159D01*
X108144591Y-108817425D01*
X108158089Y-108794905D01*
X108173730Y-108773816D01*
X108191362Y-108754362D01*
X108210816Y-108736730D01*
X108231905Y-108721089D01*
X108254425Y-108707591D01*
X108278159Y-108696366D01*
X108302880Y-108687520D01*
X108328349Y-108681141D01*
X108354320Y-108677288D01*
X108380544Y-108676000D01*
X109370456Y-108676000D01*
X109396680Y-108677288D01*
X109396680Y-108677288D01*
G37*
D25*
X108875500Y-109601000D03*
D24*
G36*
X112371680Y-108677288D02*
G01*
X112397651Y-108681141D01*
X112423120Y-108687520D01*
X112447841Y-108696366D01*
X112471575Y-108707591D01*
X112494095Y-108721089D01*
X112515184Y-108736730D01*
X112534638Y-108754362D01*
X112552270Y-108773816D01*
X112567911Y-108794905D01*
X112581409Y-108817425D01*
X112592634Y-108841159D01*
X112601480Y-108865880D01*
X112607859Y-108891349D01*
X112611712Y-108917320D01*
X112613000Y-108943544D01*
X112613000Y-110258456D01*
X112611712Y-110284680D01*
X112607859Y-110310651D01*
X112601480Y-110336120D01*
X112592634Y-110360841D01*
X112581409Y-110384575D01*
X112567911Y-110407095D01*
X112552270Y-110428184D01*
X112534638Y-110447638D01*
X112515184Y-110465270D01*
X112494095Y-110480911D01*
X112471575Y-110494409D01*
X112447841Y-110505634D01*
X112423120Y-110514480D01*
X112397651Y-110520859D01*
X112371680Y-110524712D01*
X112345456Y-110526000D01*
X111355544Y-110526000D01*
X111329320Y-110524712D01*
X111303349Y-110520859D01*
X111277880Y-110514480D01*
X111253159Y-110505634D01*
X111229425Y-110494409D01*
X111206905Y-110480911D01*
X111185816Y-110465270D01*
X111166362Y-110447638D01*
X111148730Y-110428184D01*
X111133089Y-110407095D01*
X111119591Y-110384575D01*
X111108366Y-110360841D01*
X111099520Y-110336120D01*
X111093141Y-110310651D01*
X111089288Y-110284680D01*
X111088000Y-110258456D01*
X111088000Y-108943544D01*
X111089288Y-108917320D01*
X111093141Y-108891349D01*
X111099520Y-108865880D01*
X111108366Y-108841159D01*
X111119591Y-108817425D01*
X111133089Y-108794905D01*
X111148730Y-108773816D01*
X111166362Y-108754362D01*
X111185816Y-108736730D01*
X111206905Y-108721089D01*
X111229425Y-108707591D01*
X111253159Y-108696366D01*
X111277880Y-108687520D01*
X111303349Y-108681141D01*
X111329320Y-108677288D01*
X111355544Y-108676000D01*
X112345456Y-108676000D01*
X112371680Y-108677288D01*
X112371680Y-108677288D01*
G37*
D25*
X111850500Y-109601000D03*
%TD*%
D24*
%TO.C,R18*%
G36*
X142161680Y-109692288D02*
G01*
X142187651Y-109696141D01*
X142213120Y-109702520D01*
X142237841Y-109711366D01*
X142261575Y-109722591D01*
X142284095Y-109736089D01*
X142305184Y-109751730D01*
X142324638Y-109769362D01*
X142342270Y-109788816D01*
X142357911Y-109809905D01*
X142371409Y-109832425D01*
X142382634Y-109856159D01*
X142391480Y-109880880D01*
X142397859Y-109906349D01*
X142401712Y-109932320D01*
X142403000Y-109958544D01*
X142403000Y-110948456D01*
X142401712Y-110974680D01*
X142397859Y-111000651D01*
X142391480Y-111026120D01*
X142382634Y-111050841D01*
X142371409Y-111074575D01*
X142357911Y-111097095D01*
X142342270Y-111118184D01*
X142324638Y-111137638D01*
X142305184Y-111155270D01*
X142284095Y-111170911D01*
X142261575Y-111184409D01*
X142237841Y-111195634D01*
X142213120Y-111204480D01*
X142187651Y-111210859D01*
X142161680Y-111214712D01*
X142135456Y-111216000D01*
X140820544Y-111216000D01*
X140794320Y-111214712D01*
X140768349Y-111210859D01*
X140742880Y-111204480D01*
X140718159Y-111195634D01*
X140694425Y-111184409D01*
X140671905Y-111170911D01*
X140650816Y-111155270D01*
X140631362Y-111137638D01*
X140613730Y-111118184D01*
X140598089Y-111097095D01*
X140584591Y-111074575D01*
X140573366Y-111050841D01*
X140564520Y-111026120D01*
X140558141Y-111000651D01*
X140554288Y-110974680D01*
X140553000Y-110948456D01*
X140553000Y-109958544D01*
X140554288Y-109932320D01*
X140558141Y-109906349D01*
X140564520Y-109880880D01*
X140573366Y-109856159D01*
X140584591Y-109832425D01*
X140598089Y-109809905D01*
X140613730Y-109788816D01*
X140631362Y-109769362D01*
X140650816Y-109751730D01*
X140671905Y-109736089D01*
X140694425Y-109722591D01*
X140718159Y-109711366D01*
X140742880Y-109702520D01*
X140768349Y-109696141D01*
X140794320Y-109692288D01*
X140820544Y-109691000D01*
X142135456Y-109691000D01*
X142161680Y-109692288D01*
X142161680Y-109692288D01*
G37*
D25*
X141478000Y-110453500D03*
D24*
G36*
X142161680Y-106717288D02*
G01*
X142187651Y-106721141D01*
X142213120Y-106727520D01*
X142237841Y-106736366D01*
X142261575Y-106747591D01*
X142284095Y-106761089D01*
X142305184Y-106776730D01*
X142324638Y-106794362D01*
X142342270Y-106813816D01*
X142357911Y-106834905D01*
X142371409Y-106857425D01*
X142382634Y-106881159D01*
X142391480Y-106905880D01*
X142397859Y-106931349D01*
X142401712Y-106957320D01*
X142403000Y-106983544D01*
X142403000Y-107973456D01*
X142401712Y-107999680D01*
X142397859Y-108025651D01*
X142391480Y-108051120D01*
X142382634Y-108075841D01*
X142371409Y-108099575D01*
X142357911Y-108122095D01*
X142342270Y-108143184D01*
X142324638Y-108162638D01*
X142305184Y-108180270D01*
X142284095Y-108195911D01*
X142261575Y-108209409D01*
X142237841Y-108220634D01*
X142213120Y-108229480D01*
X142187651Y-108235859D01*
X142161680Y-108239712D01*
X142135456Y-108241000D01*
X140820544Y-108241000D01*
X140794320Y-108239712D01*
X140768349Y-108235859D01*
X140742880Y-108229480D01*
X140718159Y-108220634D01*
X140694425Y-108209409D01*
X140671905Y-108195911D01*
X140650816Y-108180270D01*
X140631362Y-108162638D01*
X140613730Y-108143184D01*
X140598089Y-108122095D01*
X140584591Y-108099575D01*
X140573366Y-108075841D01*
X140564520Y-108051120D01*
X140558141Y-108025651D01*
X140554288Y-107999680D01*
X140553000Y-107973456D01*
X140553000Y-106983544D01*
X140554288Y-106957320D01*
X140558141Y-106931349D01*
X140564520Y-106905880D01*
X140573366Y-106881159D01*
X140584591Y-106857425D01*
X140598089Y-106834905D01*
X140613730Y-106813816D01*
X140631362Y-106794362D01*
X140650816Y-106776730D01*
X140671905Y-106761089D01*
X140694425Y-106747591D01*
X140718159Y-106736366D01*
X140742880Y-106727520D01*
X140768349Y-106721141D01*
X140794320Y-106717288D01*
X140820544Y-106716000D01*
X142135456Y-106716000D01*
X142161680Y-106717288D01*
X142161680Y-106717288D01*
G37*
D25*
X141478000Y-107478500D03*
%TD*%
D24*
%TO.C,R19*%
G36*
X158417680Y-109692288D02*
G01*
X158443651Y-109696141D01*
X158469120Y-109702520D01*
X158493841Y-109711366D01*
X158517575Y-109722591D01*
X158540095Y-109736089D01*
X158561184Y-109751730D01*
X158580638Y-109769362D01*
X158598270Y-109788816D01*
X158613911Y-109809905D01*
X158627409Y-109832425D01*
X158638634Y-109856159D01*
X158647480Y-109880880D01*
X158653859Y-109906349D01*
X158657712Y-109932320D01*
X158659000Y-109958544D01*
X158659000Y-110948456D01*
X158657712Y-110974680D01*
X158653859Y-111000651D01*
X158647480Y-111026120D01*
X158638634Y-111050841D01*
X158627409Y-111074575D01*
X158613911Y-111097095D01*
X158598270Y-111118184D01*
X158580638Y-111137638D01*
X158561184Y-111155270D01*
X158540095Y-111170911D01*
X158517575Y-111184409D01*
X158493841Y-111195634D01*
X158469120Y-111204480D01*
X158443651Y-111210859D01*
X158417680Y-111214712D01*
X158391456Y-111216000D01*
X157076544Y-111216000D01*
X157050320Y-111214712D01*
X157024349Y-111210859D01*
X156998880Y-111204480D01*
X156974159Y-111195634D01*
X156950425Y-111184409D01*
X156927905Y-111170911D01*
X156906816Y-111155270D01*
X156887362Y-111137638D01*
X156869730Y-111118184D01*
X156854089Y-111097095D01*
X156840591Y-111074575D01*
X156829366Y-111050841D01*
X156820520Y-111026120D01*
X156814141Y-111000651D01*
X156810288Y-110974680D01*
X156809000Y-110948456D01*
X156809000Y-109958544D01*
X156810288Y-109932320D01*
X156814141Y-109906349D01*
X156820520Y-109880880D01*
X156829366Y-109856159D01*
X156840591Y-109832425D01*
X156854089Y-109809905D01*
X156869730Y-109788816D01*
X156887362Y-109769362D01*
X156906816Y-109751730D01*
X156927905Y-109736089D01*
X156950425Y-109722591D01*
X156974159Y-109711366D01*
X156998880Y-109702520D01*
X157024349Y-109696141D01*
X157050320Y-109692288D01*
X157076544Y-109691000D01*
X158391456Y-109691000D01*
X158417680Y-109692288D01*
X158417680Y-109692288D01*
G37*
D25*
X157734000Y-110453500D03*
D24*
G36*
X158417680Y-106717288D02*
G01*
X158443651Y-106721141D01*
X158469120Y-106727520D01*
X158493841Y-106736366D01*
X158517575Y-106747591D01*
X158540095Y-106761089D01*
X158561184Y-106776730D01*
X158580638Y-106794362D01*
X158598270Y-106813816D01*
X158613911Y-106834905D01*
X158627409Y-106857425D01*
X158638634Y-106881159D01*
X158647480Y-106905880D01*
X158653859Y-106931349D01*
X158657712Y-106957320D01*
X158659000Y-106983544D01*
X158659000Y-107973456D01*
X158657712Y-107999680D01*
X158653859Y-108025651D01*
X158647480Y-108051120D01*
X158638634Y-108075841D01*
X158627409Y-108099575D01*
X158613911Y-108122095D01*
X158598270Y-108143184D01*
X158580638Y-108162638D01*
X158561184Y-108180270D01*
X158540095Y-108195911D01*
X158517575Y-108209409D01*
X158493841Y-108220634D01*
X158469120Y-108229480D01*
X158443651Y-108235859D01*
X158417680Y-108239712D01*
X158391456Y-108241000D01*
X157076544Y-108241000D01*
X157050320Y-108239712D01*
X157024349Y-108235859D01*
X156998880Y-108229480D01*
X156974159Y-108220634D01*
X156950425Y-108209409D01*
X156927905Y-108195911D01*
X156906816Y-108180270D01*
X156887362Y-108162638D01*
X156869730Y-108143184D01*
X156854089Y-108122095D01*
X156840591Y-108099575D01*
X156829366Y-108075841D01*
X156820520Y-108051120D01*
X156814141Y-108025651D01*
X156810288Y-107999680D01*
X156809000Y-107973456D01*
X156809000Y-106983544D01*
X156810288Y-106957320D01*
X156814141Y-106931349D01*
X156820520Y-106905880D01*
X156829366Y-106881159D01*
X156840591Y-106857425D01*
X156854089Y-106834905D01*
X156869730Y-106813816D01*
X156887362Y-106794362D01*
X156906816Y-106776730D01*
X156927905Y-106761089D01*
X156950425Y-106747591D01*
X156974159Y-106736366D01*
X156998880Y-106727520D01*
X157024349Y-106721141D01*
X157050320Y-106717288D01*
X157076544Y-106716000D01*
X158391456Y-106716000D01*
X158417680Y-106717288D01*
X158417680Y-106717288D01*
G37*
D25*
X157734000Y-107478500D03*
%TD*%
D24*
%TO.C,R20*%
G36*
X162227680Y-109692288D02*
G01*
X162253651Y-109696141D01*
X162279120Y-109702520D01*
X162303841Y-109711366D01*
X162327575Y-109722591D01*
X162350095Y-109736089D01*
X162371184Y-109751730D01*
X162390638Y-109769362D01*
X162408270Y-109788816D01*
X162423911Y-109809905D01*
X162437409Y-109832425D01*
X162448634Y-109856159D01*
X162457480Y-109880880D01*
X162463859Y-109906349D01*
X162467712Y-109932320D01*
X162469000Y-109958544D01*
X162469000Y-110948456D01*
X162467712Y-110974680D01*
X162463859Y-111000651D01*
X162457480Y-111026120D01*
X162448634Y-111050841D01*
X162437409Y-111074575D01*
X162423911Y-111097095D01*
X162408270Y-111118184D01*
X162390638Y-111137638D01*
X162371184Y-111155270D01*
X162350095Y-111170911D01*
X162327575Y-111184409D01*
X162303841Y-111195634D01*
X162279120Y-111204480D01*
X162253651Y-111210859D01*
X162227680Y-111214712D01*
X162201456Y-111216000D01*
X160886544Y-111216000D01*
X160860320Y-111214712D01*
X160834349Y-111210859D01*
X160808880Y-111204480D01*
X160784159Y-111195634D01*
X160760425Y-111184409D01*
X160737905Y-111170911D01*
X160716816Y-111155270D01*
X160697362Y-111137638D01*
X160679730Y-111118184D01*
X160664089Y-111097095D01*
X160650591Y-111074575D01*
X160639366Y-111050841D01*
X160630520Y-111026120D01*
X160624141Y-111000651D01*
X160620288Y-110974680D01*
X160619000Y-110948456D01*
X160619000Y-109958544D01*
X160620288Y-109932320D01*
X160624141Y-109906349D01*
X160630520Y-109880880D01*
X160639366Y-109856159D01*
X160650591Y-109832425D01*
X160664089Y-109809905D01*
X160679730Y-109788816D01*
X160697362Y-109769362D01*
X160716816Y-109751730D01*
X160737905Y-109736089D01*
X160760425Y-109722591D01*
X160784159Y-109711366D01*
X160808880Y-109702520D01*
X160834349Y-109696141D01*
X160860320Y-109692288D01*
X160886544Y-109691000D01*
X162201456Y-109691000D01*
X162227680Y-109692288D01*
X162227680Y-109692288D01*
G37*
D25*
X161544000Y-110453500D03*
D24*
G36*
X162227680Y-106717288D02*
G01*
X162253651Y-106721141D01*
X162279120Y-106727520D01*
X162303841Y-106736366D01*
X162327575Y-106747591D01*
X162350095Y-106761089D01*
X162371184Y-106776730D01*
X162390638Y-106794362D01*
X162408270Y-106813816D01*
X162423911Y-106834905D01*
X162437409Y-106857425D01*
X162448634Y-106881159D01*
X162457480Y-106905880D01*
X162463859Y-106931349D01*
X162467712Y-106957320D01*
X162469000Y-106983544D01*
X162469000Y-107973456D01*
X162467712Y-107999680D01*
X162463859Y-108025651D01*
X162457480Y-108051120D01*
X162448634Y-108075841D01*
X162437409Y-108099575D01*
X162423911Y-108122095D01*
X162408270Y-108143184D01*
X162390638Y-108162638D01*
X162371184Y-108180270D01*
X162350095Y-108195911D01*
X162327575Y-108209409D01*
X162303841Y-108220634D01*
X162279120Y-108229480D01*
X162253651Y-108235859D01*
X162227680Y-108239712D01*
X162201456Y-108241000D01*
X160886544Y-108241000D01*
X160860320Y-108239712D01*
X160834349Y-108235859D01*
X160808880Y-108229480D01*
X160784159Y-108220634D01*
X160760425Y-108209409D01*
X160737905Y-108195911D01*
X160716816Y-108180270D01*
X160697362Y-108162638D01*
X160679730Y-108143184D01*
X160664089Y-108122095D01*
X160650591Y-108099575D01*
X160639366Y-108075841D01*
X160630520Y-108051120D01*
X160624141Y-108025651D01*
X160620288Y-107999680D01*
X160619000Y-107973456D01*
X160619000Y-106983544D01*
X160620288Y-106957320D01*
X160624141Y-106931349D01*
X160630520Y-106905880D01*
X160639366Y-106881159D01*
X160650591Y-106857425D01*
X160664089Y-106834905D01*
X160679730Y-106813816D01*
X160697362Y-106794362D01*
X160716816Y-106776730D01*
X160737905Y-106761089D01*
X160760425Y-106747591D01*
X160784159Y-106736366D01*
X160808880Y-106727520D01*
X160834349Y-106721141D01*
X160860320Y-106717288D01*
X160886544Y-106716000D01*
X162201456Y-106716000D01*
X162227680Y-106717288D01*
X162227680Y-106717288D01*
G37*
D25*
X161544000Y-107478500D03*
%TD*%
D24*
%TO.C,R21*%
G36*
X162917680Y-92040288D02*
G01*
X162943651Y-92044141D01*
X162969120Y-92050520D01*
X162993841Y-92059366D01*
X163017575Y-92070591D01*
X163040095Y-92084089D01*
X163061184Y-92099730D01*
X163080638Y-92117362D01*
X163098270Y-92136816D01*
X163113911Y-92157905D01*
X163127409Y-92180425D01*
X163138634Y-92204159D01*
X163147480Y-92228880D01*
X163153859Y-92254349D01*
X163157712Y-92280320D01*
X163159000Y-92306544D01*
X163159000Y-93621456D01*
X163157712Y-93647680D01*
X163153859Y-93673651D01*
X163147480Y-93699120D01*
X163138634Y-93723841D01*
X163127409Y-93747575D01*
X163113911Y-93770095D01*
X163098270Y-93791184D01*
X163080638Y-93810638D01*
X163061184Y-93828270D01*
X163040095Y-93843911D01*
X163017575Y-93857409D01*
X162993841Y-93868634D01*
X162969120Y-93877480D01*
X162943651Y-93883859D01*
X162917680Y-93887712D01*
X162891456Y-93889000D01*
X161901544Y-93889000D01*
X161875320Y-93887712D01*
X161849349Y-93883859D01*
X161823880Y-93877480D01*
X161799159Y-93868634D01*
X161775425Y-93857409D01*
X161752905Y-93843911D01*
X161731816Y-93828270D01*
X161712362Y-93810638D01*
X161694730Y-93791184D01*
X161679089Y-93770095D01*
X161665591Y-93747575D01*
X161654366Y-93723841D01*
X161645520Y-93699120D01*
X161639141Y-93673651D01*
X161635288Y-93647680D01*
X161634000Y-93621456D01*
X161634000Y-92306544D01*
X161635288Y-92280320D01*
X161639141Y-92254349D01*
X161645520Y-92228880D01*
X161654366Y-92204159D01*
X161665591Y-92180425D01*
X161679089Y-92157905D01*
X161694730Y-92136816D01*
X161712362Y-92117362D01*
X161731816Y-92099730D01*
X161752905Y-92084089D01*
X161775425Y-92070591D01*
X161799159Y-92059366D01*
X161823880Y-92050520D01*
X161849349Y-92044141D01*
X161875320Y-92040288D01*
X161901544Y-92039000D01*
X162891456Y-92039000D01*
X162917680Y-92040288D01*
X162917680Y-92040288D01*
G37*
D25*
X162396500Y-92964000D03*
D24*
G36*
X159942680Y-92040288D02*
G01*
X159968651Y-92044141D01*
X159994120Y-92050520D01*
X160018841Y-92059366D01*
X160042575Y-92070591D01*
X160065095Y-92084089D01*
X160086184Y-92099730D01*
X160105638Y-92117362D01*
X160123270Y-92136816D01*
X160138911Y-92157905D01*
X160152409Y-92180425D01*
X160163634Y-92204159D01*
X160172480Y-92228880D01*
X160178859Y-92254349D01*
X160182712Y-92280320D01*
X160184000Y-92306544D01*
X160184000Y-93621456D01*
X160182712Y-93647680D01*
X160178859Y-93673651D01*
X160172480Y-93699120D01*
X160163634Y-93723841D01*
X160152409Y-93747575D01*
X160138911Y-93770095D01*
X160123270Y-93791184D01*
X160105638Y-93810638D01*
X160086184Y-93828270D01*
X160065095Y-93843911D01*
X160042575Y-93857409D01*
X160018841Y-93868634D01*
X159994120Y-93877480D01*
X159968651Y-93883859D01*
X159942680Y-93887712D01*
X159916456Y-93889000D01*
X158926544Y-93889000D01*
X158900320Y-93887712D01*
X158874349Y-93883859D01*
X158848880Y-93877480D01*
X158824159Y-93868634D01*
X158800425Y-93857409D01*
X158777905Y-93843911D01*
X158756816Y-93828270D01*
X158737362Y-93810638D01*
X158719730Y-93791184D01*
X158704089Y-93770095D01*
X158690591Y-93747575D01*
X158679366Y-93723841D01*
X158670520Y-93699120D01*
X158664141Y-93673651D01*
X158660288Y-93647680D01*
X158659000Y-93621456D01*
X158659000Y-92306544D01*
X158660288Y-92280320D01*
X158664141Y-92254349D01*
X158670520Y-92228880D01*
X158679366Y-92204159D01*
X158690591Y-92180425D01*
X158704089Y-92157905D01*
X158719730Y-92136816D01*
X158737362Y-92117362D01*
X158756816Y-92099730D01*
X158777905Y-92084089D01*
X158800425Y-92070591D01*
X158824159Y-92059366D01*
X158848880Y-92050520D01*
X158874349Y-92044141D01*
X158900320Y-92040288D01*
X158926544Y-92039000D01*
X159916456Y-92039000D01*
X159942680Y-92040288D01*
X159942680Y-92040288D01*
G37*
D25*
X159421500Y-92964000D03*
%TD*%
D24*
%TO.C,R22*%
G36*
X164767680Y-106717288D02*
G01*
X164793651Y-106721141D01*
X164819120Y-106727520D01*
X164843841Y-106736366D01*
X164867575Y-106747591D01*
X164890095Y-106761089D01*
X164911184Y-106776730D01*
X164930638Y-106794362D01*
X164948270Y-106813816D01*
X164963911Y-106834905D01*
X164977409Y-106857425D01*
X164988634Y-106881159D01*
X164997480Y-106905880D01*
X165003859Y-106931349D01*
X165007712Y-106957320D01*
X165009000Y-106983544D01*
X165009000Y-107973456D01*
X165007712Y-107999680D01*
X165003859Y-108025651D01*
X164997480Y-108051120D01*
X164988634Y-108075841D01*
X164977409Y-108099575D01*
X164963911Y-108122095D01*
X164948270Y-108143184D01*
X164930638Y-108162638D01*
X164911184Y-108180270D01*
X164890095Y-108195911D01*
X164867575Y-108209409D01*
X164843841Y-108220634D01*
X164819120Y-108229480D01*
X164793651Y-108235859D01*
X164767680Y-108239712D01*
X164741456Y-108241000D01*
X163426544Y-108241000D01*
X163400320Y-108239712D01*
X163374349Y-108235859D01*
X163348880Y-108229480D01*
X163324159Y-108220634D01*
X163300425Y-108209409D01*
X163277905Y-108195911D01*
X163256816Y-108180270D01*
X163237362Y-108162638D01*
X163219730Y-108143184D01*
X163204089Y-108122095D01*
X163190591Y-108099575D01*
X163179366Y-108075841D01*
X163170520Y-108051120D01*
X163164141Y-108025651D01*
X163160288Y-107999680D01*
X163159000Y-107973456D01*
X163159000Y-106983544D01*
X163160288Y-106957320D01*
X163164141Y-106931349D01*
X163170520Y-106905880D01*
X163179366Y-106881159D01*
X163190591Y-106857425D01*
X163204089Y-106834905D01*
X163219730Y-106813816D01*
X163237362Y-106794362D01*
X163256816Y-106776730D01*
X163277905Y-106761089D01*
X163300425Y-106747591D01*
X163324159Y-106736366D01*
X163348880Y-106727520D01*
X163374349Y-106721141D01*
X163400320Y-106717288D01*
X163426544Y-106716000D01*
X164741456Y-106716000D01*
X164767680Y-106717288D01*
X164767680Y-106717288D01*
G37*
D25*
X164084000Y-107478500D03*
D24*
G36*
X164767680Y-109692288D02*
G01*
X164793651Y-109696141D01*
X164819120Y-109702520D01*
X164843841Y-109711366D01*
X164867575Y-109722591D01*
X164890095Y-109736089D01*
X164911184Y-109751730D01*
X164930638Y-109769362D01*
X164948270Y-109788816D01*
X164963911Y-109809905D01*
X164977409Y-109832425D01*
X164988634Y-109856159D01*
X164997480Y-109880880D01*
X165003859Y-109906349D01*
X165007712Y-109932320D01*
X165009000Y-109958544D01*
X165009000Y-110948456D01*
X165007712Y-110974680D01*
X165003859Y-111000651D01*
X164997480Y-111026120D01*
X164988634Y-111050841D01*
X164977409Y-111074575D01*
X164963911Y-111097095D01*
X164948270Y-111118184D01*
X164930638Y-111137638D01*
X164911184Y-111155270D01*
X164890095Y-111170911D01*
X164867575Y-111184409D01*
X164843841Y-111195634D01*
X164819120Y-111204480D01*
X164793651Y-111210859D01*
X164767680Y-111214712D01*
X164741456Y-111216000D01*
X163426544Y-111216000D01*
X163400320Y-111214712D01*
X163374349Y-111210859D01*
X163348880Y-111204480D01*
X163324159Y-111195634D01*
X163300425Y-111184409D01*
X163277905Y-111170911D01*
X163256816Y-111155270D01*
X163237362Y-111137638D01*
X163219730Y-111118184D01*
X163204089Y-111097095D01*
X163190591Y-111074575D01*
X163179366Y-111050841D01*
X163170520Y-111026120D01*
X163164141Y-111000651D01*
X163160288Y-110974680D01*
X163159000Y-110948456D01*
X163159000Y-109958544D01*
X163160288Y-109932320D01*
X163164141Y-109906349D01*
X163170520Y-109880880D01*
X163179366Y-109856159D01*
X163190591Y-109832425D01*
X163204089Y-109809905D01*
X163219730Y-109788816D01*
X163237362Y-109769362D01*
X163256816Y-109751730D01*
X163277905Y-109736089D01*
X163300425Y-109722591D01*
X163324159Y-109711366D01*
X163348880Y-109702520D01*
X163374349Y-109696141D01*
X163400320Y-109692288D01*
X163426544Y-109691000D01*
X164741456Y-109691000D01*
X164767680Y-109692288D01*
X164767680Y-109692288D01*
G37*
D25*
X164084000Y-110453500D03*
%TD*%
D24*
%TO.C,R23*%
G36*
X168959680Y-114773288D02*
G01*
X168985651Y-114777141D01*
X169011120Y-114783520D01*
X169035841Y-114792366D01*
X169059575Y-114803591D01*
X169082095Y-114817089D01*
X169103184Y-114832730D01*
X169122638Y-114850362D01*
X169140270Y-114869816D01*
X169155911Y-114890905D01*
X169169409Y-114913425D01*
X169180634Y-114937159D01*
X169189480Y-114961880D01*
X169195859Y-114987349D01*
X169199712Y-115013320D01*
X169201000Y-115039544D01*
X169201000Y-116354456D01*
X169199712Y-116380680D01*
X169195859Y-116406651D01*
X169189480Y-116432120D01*
X169180634Y-116456841D01*
X169169409Y-116480575D01*
X169155911Y-116503095D01*
X169140270Y-116524184D01*
X169122638Y-116543638D01*
X169103184Y-116561270D01*
X169082095Y-116576911D01*
X169059575Y-116590409D01*
X169035841Y-116601634D01*
X169011120Y-116610480D01*
X168985651Y-116616859D01*
X168959680Y-116620712D01*
X168933456Y-116622000D01*
X167943544Y-116622000D01*
X167917320Y-116620712D01*
X167891349Y-116616859D01*
X167865880Y-116610480D01*
X167841159Y-116601634D01*
X167817425Y-116590409D01*
X167794905Y-116576911D01*
X167773816Y-116561270D01*
X167754362Y-116543638D01*
X167736730Y-116524184D01*
X167721089Y-116503095D01*
X167707591Y-116480575D01*
X167696366Y-116456841D01*
X167687520Y-116432120D01*
X167681141Y-116406651D01*
X167677288Y-116380680D01*
X167676000Y-116354456D01*
X167676000Y-115039544D01*
X167677288Y-115013320D01*
X167681141Y-114987349D01*
X167687520Y-114961880D01*
X167696366Y-114937159D01*
X167707591Y-114913425D01*
X167721089Y-114890905D01*
X167736730Y-114869816D01*
X167754362Y-114850362D01*
X167773816Y-114832730D01*
X167794905Y-114817089D01*
X167817425Y-114803591D01*
X167841159Y-114792366D01*
X167865880Y-114783520D01*
X167891349Y-114777141D01*
X167917320Y-114773288D01*
X167943544Y-114772000D01*
X168933456Y-114772000D01*
X168959680Y-114773288D01*
X168959680Y-114773288D01*
G37*
D25*
X168438500Y-115697000D03*
D24*
G36*
X171934680Y-114773288D02*
G01*
X171960651Y-114777141D01*
X171986120Y-114783520D01*
X172010841Y-114792366D01*
X172034575Y-114803591D01*
X172057095Y-114817089D01*
X172078184Y-114832730D01*
X172097638Y-114850362D01*
X172115270Y-114869816D01*
X172130911Y-114890905D01*
X172144409Y-114913425D01*
X172155634Y-114937159D01*
X172164480Y-114961880D01*
X172170859Y-114987349D01*
X172174712Y-115013320D01*
X172176000Y-115039544D01*
X172176000Y-116354456D01*
X172174712Y-116380680D01*
X172170859Y-116406651D01*
X172164480Y-116432120D01*
X172155634Y-116456841D01*
X172144409Y-116480575D01*
X172130911Y-116503095D01*
X172115270Y-116524184D01*
X172097638Y-116543638D01*
X172078184Y-116561270D01*
X172057095Y-116576911D01*
X172034575Y-116590409D01*
X172010841Y-116601634D01*
X171986120Y-116610480D01*
X171960651Y-116616859D01*
X171934680Y-116620712D01*
X171908456Y-116622000D01*
X170918544Y-116622000D01*
X170892320Y-116620712D01*
X170866349Y-116616859D01*
X170840880Y-116610480D01*
X170816159Y-116601634D01*
X170792425Y-116590409D01*
X170769905Y-116576911D01*
X170748816Y-116561270D01*
X170729362Y-116543638D01*
X170711730Y-116524184D01*
X170696089Y-116503095D01*
X170682591Y-116480575D01*
X170671366Y-116456841D01*
X170662520Y-116432120D01*
X170656141Y-116406651D01*
X170652288Y-116380680D01*
X170651000Y-116354456D01*
X170651000Y-115039544D01*
X170652288Y-115013320D01*
X170656141Y-114987349D01*
X170662520Y-114961880D01*
X170671366Y-114937159D01*
X170682591Y-114913425D01*
X170696089Y-114890905D01*
X170711730Y-114869816D01*
X170729362Y-114850362D01*
X170748816Y-114832730D01*
X170769905Y-114817089D01*
X170792425Y-114803591D01*
X170816159Y-114792366D01*
X170840880Y-114783520D01*
X170866349Y-114777141D01*
X170892320Y-114773288D01*
X170918544Y-114772000D01*
X171908456Y-114772000D01*
X171934680Y-114773288D01*
X171934680Y-114773288D01*
G37*
D25*
X171413500Y-115697000D03*
%TD*%
D24*
%TO.C,R24*%
G36*
X124635680Y-87340288D02*
G01*
X124661651Y-87344141D01*
X124687120Y-87350520D01*
X124711841Y-87359366D01*
X124735575Y-87370591D01*
X124758095Y-87384089D01*
X124779184Y-87399730D01*
X124798638Y-87417362D01*
X124816270Y-87436816D01*
X124831911Y-87457905D01*
X124845409Y-87480425D01*
X124856634Y-87504159D01*
X124865480Y-87528880D01*
X124871859Y-87554349D01*
X124875712Y-87580320D01*
X124877000Y-87606544D01*
X124877000Y-88596456D01*
X124875712Y-88622680D01*
X124871859Y-88648651D01*
X124865480Y-88674120D01*
X124856634Y-88698841D01*
X124845409Y-88722575D01*
X124831911Y-88745095D01*
X124816270Y-88766184D01*
X124798638Y-88785638D01*
X124779184Y-88803270D01*
X124758095Y-88818911D01*
X124735575Y-88832409D01*
X124711841Y-88843634D01*
X124687120Y-88852480D01*
X124661651Y-88858859D01*
X124635680Y-88862712D01*
X124609456Y-88864000D01*
X123294544Y-88864000D01*
X123268320Y-88862712D01*
X123242349Y-88858859D01*
X123216880Y-88852480D01*
X123192159Y-88843634D01*
X123168425Y-88832409D01*
X123145905Y-88818911D01*
X123124816Y-88803270D01*
X123105362Y-88785638D01*
X123087730Y-88766184D01*
X123072089Y-88745095D01*
X123058591Y-88722575D01*
X123047366Y-88698841D01*
X123038520Y-88674120D01*
X123032141Y-88648651D01*
X123028288Y-88622680D01*
X123027000Y-88596456D01*
X123027000Y-87606544D01*
X123028288Y-87580320D01*
X123032141Y-87554349D01*
X123038520Y-87528880D01*
X123047366Y-87504159D01*
X123058591Y-87480425D01*
X123072089Y-87457905D01*
X123087730Y-87436816D01*
X123105362Y-87417362D01*
X123124816Y-87399730D01*
X123145905Y-87384089D01*
X123168425Y-87370591D01*
X123192159Y-87359366D01*
X123216880Y-87350520D01*
X123242349Y-87344141D01*
X123268320Y-87340288D01*
X123294544Y-87339000D01*
X124609456Y-87339000D01*
X124635680Y-87340288D01*
X124635680Y-87340288D01*
G37*
D25*
X123952000Y-88101500D03*
D24*
G36*
X124635680Y-84365288D02*
G01*
X124661651Y-84369141D01*
X124687120Y-84375520D01*
X124711841Y-84384366D01*
X124735575Y-84395591D01*
X124758095Y-84409089D01*
X124779184Y-84424730D01*
X124798638Y-84442362D01*
X124816270Y-84461816D01*
X124831911Y-84482905D01*
X124845409Y-84505425D01*
X124856634Y-84529159D01*
X124865480Y-84553880D01*
X124871859Y-84579349D01*
X124875712Y-84605320D01*
X124877000Y-84631544D01*
X124877000Y-85621456D01*
X124875712Y-85647680D01*
X124871859Y-85673651D01*
X124865480Y-85699120D01*
X124856634Y-85723841D01*
X124845409Y-85747575D01*
X124831911Y-85770095D01*
X124816270Y-85791184D01*
X124798638Y-85810638D01*
X124779184Y-85828270D01*
X124758095Y-85843911D01*
X124735575Y-85857409D01*
X124711841Y-85868634D01*
X124687120Y-85877480D01*
X124661651Y-85883859D01*
X124635680Y-85887712D01*
X124609456Y-85889000D01*
X123294544Y-85889000D01*
X123268320Y-85887712D01*
X123242349Y-85883859D01*
X123216880Y-85877480D01*
X123192159Y-85868634D01*
X123168425Y-85857409D01*
X123145905Y-85843911D01*
X123124816Y-85828270D01*
X123105362Y-85810638D01*
X123087730Y-85791184D01*
X123072089Y-85770095D01*
X123058591Y-85747575D01*
X123047366Y-85723841D01*
X123038520Y-85699120D01*
X123032141Y-85673651D01*
X123028288Y-85647680D01*
X123027000Y-85621456D01*
X123027000Y-84631544D01*
X123028288Y-84605320D01*
X123032141Y-84579349D01*
X123038520Y-84553880D01*
X123047366Y-84529159D01*
X123058591Y-84505425D01*
X123072089Y-84482905D01*
X123087730Y-84461816D01*
X123105362Y-84442362D01*
X123124816Y-84424730D01*
X123145905Y-84409089D01*
X123168425Y-84395591D01*
X123192159Y-84384366D01*
X123216880Y-84375520D01*
X123242349Y-84369141D01*
X123268320Y-84365288D01*
X123294544Y-84364000D01*
X124609456Y-84364000D01*
X124635680Y-84365288D01*
X124635680Y-84365288D01*
G37*
D25*
X123952000Y-85126500D03*
%TD*%
D24*
%TO.C,C31*%
G36*
X168124680Y-89373288D02*
G01*
X168150651Y-89377141D01*
X168176120Y-89383520D01*
X168200841Y-89392366D01*
X168224575Y-89403591D01*
X168247095Y-89417089D01*
X168268184Y-89432730D01*
X168287638Y-89450362D01*
X168305270Y-89469816D01*
X168320911Y-89490905D01*
X168334409Y-89513425D01*
X168345634Y-89537159D01*
X168354480Y-89561880D01*
X168360859Y-89587349D01*
X168364712Y-89613320D01*
X168366000Y-89639544D01*
X168366000Y-90954456D01*
X168364712Y-90980680D01*
X168360859Y-91006651D01*
X168354480Y-91032120D01*
X168345634Y-91056841D01*
X168334409Y-91080575D01*
X168320911Y-91103095D01*
X168305270Y-91124184D01*
X168287638Y-91143638D01*
X168268184Y-91161270D01*
X168247095Y-91176911D01*
X168224575Y-91190409D01*
X168200841Y-91201634D01*
X168176120Y-91210480D01*
X168150651Y-91216859D01*
X168124680Y-91220712D01*
X168098456Y-91222000D01*
X167108544Y-91222000D01*
X167082320Y-91220712D01*
X167056349Y-91216859D01*
X167030880Y-91210480D01*
X167006159Y-91201634D01*
X166982425Y-91190409D01*
X166959905Y-91176911D01*
X166938816Y-91161270D01*
X166919362Y-91143638D01*
X166901730Y-91124184D01*
X166886089Y-91103095D01*
X166872591Y-91080575D01*
X166861366Y-91056841D01*
X166852520Y-91032120D01*
X166846141Y-91006651D01*
X166842288Y-90980680D01*
X166841000Y-90954456D01*
X166841000Y-89639544D01*
X166842288Y-89613320D01*
X166846141Y-89587349D01*
X166852520Y-89561880D01*
X166861366Y-89537159D01*
X166872591Y-89513425D01*
X166886089Y-89490905D01*
X166901730Y-89469816D01*
X166919362Y-89450362D01*
X166938816Y-89432730D01*
X166959905Y-89417089D01*
X166982425Y-89403591D01*
X167006159Y-89392366D01*
X167030880Y-89383520D01*
X167056349Y-89377141D01*
X167082320Y-89373288D01*
X167108544Y-89372000D01*
X168098456Y-89372000D01*
X168124680Y-89373288D01*
X168124680Y-89373288D01*
G37*
D25*
X167603500Y-90297000D03*
D24*
G36*
X165149680Y-89373288D02*
G01*
X165175651Y-89377141D01*
X165201120Y-89383520D01*
X165225841Y-89392366D01*
X165249575Y-89403591D01*
X165272095Y-89417089D01*
X165293184Y-89432730D01*
X165312638Y-89450362D01*
X165330270Y-89469816D01*
X165345911Y-89490905D01*
X165359409Y-89513425D01*
X165370634Y-89537159D01*
X165379480Y-89561880D01*
X165385859Y-89587349D01*
X165389712Y-89613320D01*
X165391000Y-89639544D01*
X165391000Y-90954456D01*
X165389712Y-90980680D01*
X165385859Y-91006651D01*
X165379480Y-91032120D01*
X165370634Y-91056841D01*
X165359409Y-91080575D01*
X165345911Y-91103095D01*
X165330270Y-91124184D01*
X165312638Y-91143638D01*
X165293184Y-91161270D01*
X165272095Y-91176911D01*
X165249575Y-91190409D01*
X165225841Y-91201634D01*
X165201120Y-91210480D01*
X165175651Y-91216859D01*
X165149680Y-91220712D01*
X165123456Y-91222000D01*
X164133544Y-91222000D01*
X164107320Y-91220712D01*
X164081349Y-91216859D01*
X164055880Y-91210480D01*
X164031159Y-91201634D01*
X164007425Y-91190409D01*
X163984905Y-91176911D01*
X163963816Y-91161270D01*
X163944362Y-91143638D01*
X163926730Y-91124184D01*
X163911089Y-91103095D01*
X163897591Y-91080575D01*
X163886366Y-91056841D01*
X163877520Y-91032120D01*
X163871141Y-91006651D01*
X163867288Y-90980680D01*
X163866000Y-90954456D01*
X163866000Y-89639544D01*
X163867288Y-89613320D01*
X163871141Y-89587349D01*
X163877520Y-89561880D01*
X163886366Y-89537159D01*
X163897591Y-89513425D01*
X163911089Y-89490905D01*
X163926730Y-89469816D01*
X163944362Y-89450362D01*
X163963816Y-89432730D01*
X163984905Y-89417089D01*
X164007425Y-89403591D01*
X164031159Y-89392366D01*
X164055880Y-89383520D01*
X164081349Y-89377141D01*
X164107320Y-89373288D01*
X164133544Y-89372000D01*
X165123456Y-89372000D01*
X165149680Y-89373288D01*
X165149680Y-89373288D01*
G37*
D25*
X164628500Y-90297000D03*
%TD*%
D20*
%TO.C,J6*%
X96520000Y-139954000D03*
D21*
X96520000Y-137414000D03*
%TD*%
D20*
%TO.C,J7*%
X188722000Y-127508000D03*
D21*
X191262000Y-127508000D03*
%TD*%
%TO.C,J8*%
X154686000Y-145288000D03*
D20*
X152146000Y-145288000D03*
%TD*%
D24*
%TO.C,R25*%
G36*
X100251680Y-137705288D02*
G01*
X100277651Y-137709141D01*
X100303120Y-137715520D01*
X100327841Y-137724366D01*
X100351575Y-137735591D01*
X100374095Y-137749089D01*
X100395184Y-137764730D01*
X100414638Y-137782362D01*
X100432270Y-137801816D01*
X100447911Y-137822905D01*
X100461409Y-137845425D01*
X100472634Y-137869159D01*
X100481480Y-137893880D01*
X100487859Y-137919349D01*
X100491712Y-137945320D01*
X100493000Y-137971544D01*
X100493000Y-138961456D01*
X100491712Y-138987680D01*
X100487859Y-139013651D01*
X100481480Y-139039120D01*
X100472634Y-139063841D01*
X100461409Y-139087575D01*
X100447911Y-139110095D01*
X100432270Y-139131184D01*
X100414638Y-139150638D01*
X100395184Y-139168270D01*
X100374095Y-139183911D01*
X100351575Y-139197409D01*
X100327841Y-139208634D01*
X100303120Y-139217480D01*
X100277651Y-139223859D01*
X100251680Y-139227712D01*
X100225456Y-139229000D01*
X98910544Y-139229000D01*
X98884320Y-139227712D01*
X98858349Y-139223859D01*
X98832880Y-139217480D01*
X98808159Y-139208634D01*
X98784425Y-139197409D01*
X98761905Y-139183911D01*
X98740816Y-139168270D01*
X98721362Y-139150638D01*
X98703730Y-139131184D01*
X98688089Y-139110095D01*
X98674591Y-139087575D01*
X98663366Y-139063841D01*
X98654520Y-139039120D01*
X98648141Y-139013651D01*
X98644288Y-138987680D01*
X98643000Y-138961456D01*
X98643000Y-137971544D01*
X98644288Y-137945320D01*
X98648141Y-137919349D01*
X98654520Y-137893880D01*
X98663366Y-137869159D01*
X98674591Y-137845425D01*
X98688089Y-137822905D01*
X98703730Y-137801816D01*
X98721362Y-137782362D01*
X98740816Y-137764730D01*
X98761905Y-137749089D01*
X98784425Y-137735591D01*
X98808159Y-137724366D01*
X98832880Y-137715520D01*
X98858349Y-137709141D01*
X98884320Y-137705288D01*
X98910544Y-137704000D01*
X100225456Y-137704000D01*
X100251680Y-137705288D01*
X100251680Y-137705288D01*
G37*
D25*
X99568000Y-138466500D03*
D24*
G36*
X100251680Y-140680288D02*
G01*
X100277651Y-140684141D01*
X100303120Y-140690520D01*
X100327841Y-140699366D01*
X100351575Y-140710591D01*
X100374095Y-140724089D01*
X100395184Y-140739730D01*
X100414638Y-140757362D01*
X100432270Y-140776816D01*
X100447911Y-140797905D01*
X100461409Y-140820425D01*
X100472634Y-140844159D01*
X100481480Y-140868880D01*
X100487859Y-140894349D01*
X100491712Y-140920320D01*
X100493000Y-140946544D01*
X100493000Y-141936456D01*
X100491712Y-141962680D01*
X100487859Y-141988651D01*
X100481480Y-142014120D01*
X100472634Y-142038841D01*
X100461409Y-142062575D01*
X100447911Y-142085095D01*
X100432270Y-142106184D01*
X100414638Y-142125638D01*
X100395184Y-142143270D01*
X100374095Y-142158911D01*
X100351575Y-142172409D01*
X100327841Y-142183634D01*
X100303120Y-142192480D01*
X100277651Y-142198859D01*
X100251680Y-142202712D01*
X100225456Y-142204000D01*
X98910544Y-142204000D01*
X98884320Y-142202712D01*
X98858349Y-142198859D01*
X98832880Y-142192480D01*
X98808159Y-142183634D01*
X98784425Y-142172409D01*
X98761905Y-142158911D01*
X98740816Y-142143270D01*
X98721362Y-142125638D01*
X98703730Y-142106184D01*
X98688089Y-142085095D01*
X98674591Y-142062575D01*
X98663366Y-142038841D01*
X98654520Y-142014120D01*
X98648141Y-141988651D01*
X98644288Y-141962680D01*
X98643000Y-141936456D01*
X98643000Y-140946544D01*
X98644288Y-140920320D01*
X98648141Y-140894349D01*
X98654520Y-140868880D01*
X98663366Y-140844159D01*
X98674591Y-140820425D01*
X98688089Y-140797905D01*
X98703730Y-140776816D01*
X98721362Y-140757362D01*
X98740816Y-140739730D01*
X98761905Y-140724089D01*
X98784425Y-140710591D01*
X98808159Y-140699366D01*
X98832880Y-140690520D01*
X98858349Y-140684141D01*
X98884320Y-140680288D01*
X98910544Y-140679000D01*
X100225456Y-140679000D01*
X100251680Y-140680288D01*
X100251680Y-140680288D01*
G37*
D25*
X99568000Y-141441500D03*
%TD*%
D24*
%TO.C,R27*%
G36*
X149781680Y-144490288D02*
G01*
X149807651Y-144494141D01*
X149833120Y-144500520D01*
X149857841Y-144509366D01*
X149881575Y-144520591D01*
X149904095Y-144534089D01*
X149925184Y-144549730D01*
X149944638Y-144567362D01*
X149962270Y-144586816D01*
X149977911Y-144607905D01*
X149991409Y-144630425D01*
X150002634Y-144654159D01*
X150011480Y-144678880D01*
X150017859Y-144704349D01*
X150021712Y-144730320D01*
X150023000Y-144756544D01*
X150023000Y-145746456D01*
X150021712Y-145772680D01*
X150017859Y-145798651D01*
X150011480Y-145824120D01*
X150002634Y-145848841D01*
X149991409Y-145872575D01*
X149977911Y-145895095D01*
X149962270Y-145916184D01*
X149944638Y-145935638D01*
X149925184Y-145953270D01*
X149904095Y-145968911D01*
X149881575Y-145982409D01*
X149857841Y-145993634D01*
X149833120Y-146002480D01*
X149807651Y-146008859D01*
X149781680Y-146012712D01*
X149755456Y-146014000D01*
X148440544Y-146014000D01*
X148414320Y-146012712D01*
X148388349Y-146008859D01*
X148362880Y-146002480D01*
X148338159Y-145993634D01*
X148314425Y-145982409D01*
X148291905Y-145968911D01*
X148270816Y-145953270D01*
X148251362Y-145935638D01*
X148233730Y-145916184D01*
X148218089Y-145895095D01*
X148204591Y-145872575D01*
X148193366Y-145848841D01*
X148184520Y-145824120D01*
X148178141Y-145798651D01*
X148174288Y-145772680D01*
X148173000Y-145746456D01*
X148173000Y-144756544D01*
X148174288Y-144730320D01*
X148178141Y-144704349D01*
X148184520Y-144678880D01*
X148193366Y-144654159D01*
X148204591Y-144630425D01*
X148218089Y-144607905D01*
X148233730Y-144586816D01*
X148251362Y-144567362D01*
X148270816Y-144549730D01*
X148291905Y-144534089D01*
X148314425Y-144520591D01*
X148338159Y-144509366D01*
X148362880Y-144500520D01*
X148388349Y-144494141D01*
X148414320Y-144490288D01*
X148440544Y-144489000D01*
X149755456Y-144489000D01*
X149781680Y-144490288D01*
X149781680Y-144490288D01*
G37*
D25*
X149098000Y-145251500D03*
D24*
G36*
X149781680Y-141515288D02*
G01*
X149807651Y-141519141D01*
X149833120Y-141525520D01*
X149857841Y-141534366D01*
X149881575Y-141545591D01*
X149904095Y-141559089D01*
X149925184Y-141574730D01*
X149944638Y-141592362D01*
X149962270Y-141611816D01*
X149977911Y-141632905D01*
X149991409Y-141655425D01*
X150002634Y-141679159D01*
X150011480Y-141703880D01*
X150017859Y-141729349D01*
X150021712Y-141755320D01*
X150023000Y-141781544D01*
X150023000Y-142771456D01*
X150021712Y-142797680D01*
X150017859Y-142823651D01*
X150011480Y-142849120D01*
X150002634Y-142873841D01*
X149991409Y-142897575D01*
X149977911Y-142920095D01*
X149962270Y-142941184D01*
X149944638Y-142960638D01*
X149925184Y-142978270D01*
X149904095Y-142993911D01*
X149881575Y-143007409D01*
X149857841Y-143018634D01*
X149833120Y-143027480D01*
X149807651Y-143033859D01*
X149781680Y-143037712D01*
X149755456Y-143039000D01*
X148440544Y-143039000D01*
X148414320Y-143037712D01*
X148388349Y-143033859D01*
X148362880Y-143027480D01*
X148338159Y-143018634D01*
X148314425Y-143007409D01*
X148291905Y-142993911D01*
X148270816Y-142978270D01*
X148251362Y-142960638D01*
X148233730Y-142941184D01*
X148218089Y-142920095D01*
X148204591Y-142897575D01*
X148193366Y-142873841D01*
X148184520Y-142849120D01*
X148178141Y-142823651D01*
X148174288Y-142797680D01*
X148173000Y-142771456D01*
X148173000Y-141781544D01*
X148174288Y-141755320D01*
X148178141Y-141729349D01*
X148184520Y-141703880D01*
X148193366Y-141679159D01*
X148204591Y-141655425D01*
X148218089Y-141632905D01*
X148233730Y-141611816D01*
X148251362Y-141592362D01*
X148270816Y-141574730D01*
X148291905Y-141559089D01*
X148314425Y-141545591D01*
X148338159Y-141534366D01*
X148362880Y-141525520D01*
X148388349Y-141519141D01*
X148414320Y-141515288D01*
X148440544Y-141514000D01*
X149755456Y-141514000D01*
X149781680Y-141515288D01*
X149781680Y-141515288D01*
G37*
D25*
X149098000Y-142276500D03*
%TD*%
M02*
