%TF.GenerationSoftware,KiCad,Pcbnew,(5.1.0)-1*%
%TF.CreationDate,2022-07-09T20:49:55+03:00*%
%TF.ProjectId,octaver,6f637461-7665-4722-9e6b-696361645f70,rev?*%
%TF.SameCoordinates,Original*%
%TF.FileFunction,Copper,L2,Bot*%
%TF.FilePolarity,Positive*%
%FSLAX46Y46*%
G04 Gerber Fmt 4.6, Leading zero omitted, Abs format (unit mm)*
G04 Created by KiCad (PCBNEW (5.1.0)-1) date 2022-07-09 20:49:55*
%MOMM*%
%LPD*%
G04 APERTURE LIST*
%TA.AperFunction,Conductor*%
%ADD10C,0.100000*%
%TD*%
%TA.AperFunction,SMDPad,CuDef*%
%ADD11C,1.425000*%
%TD*%
%TA.AperFunction,ComponentPad*%
%ADD12C,1.524000*%
%TD*%
%TA.AperFunction,SMDPad,CuDef*%
%ADD13R,2.000000X1.500000*%
%TD*%
%TA.AperFunction,SMDPad,CuDef*%
%ADD14R,2.000000X3.800000*%
%TD*%
%TA.AperFunction,ComponentPad*%
%ADD15C,3.000000*%
%TD*%
%TA.AperFunction,ComponentPad*%
%ADD16R,3.000000X3.000000*%
%TD*%
%TA.AperFunction,ComponentPad*%
%ADD17C,9.000000*%
%TD*%
%TA.AperFunction,SMDPad,CuDef*%
%ADD18R,1.525000X0.700000*%
%TD*%
%TA.AperFunction,ComponentPad*%
%ADD19C,2.100000*%
%TD*%
%TA.AperFunction,ComponentPad*%
%ADD20R,1.700000X1.700000*%
%TD*%
%TA.AperFunction,ComponentPad*%
%ADD21O,1.700000X1.700000*%
%TD*%
%TA.AperFunction,ComponentPad*%
%ADD22R,1.600000X1.600000*%
%TD*%
%TA.AperFunction,ComponentPad*%
%ADD23C,1.600000*%
%TD*%
%TA.AperFunction,ViaPad*%
%ADD24C,1.800000*%
%TD*%
%TA.AperFunction,ViaPad*%
%ADD25C,0.800000*%
%TD*%
%TA.AperFunction,Conductor*%
%ADD26C,0.500000*%
%TD*%
%TA.AperFunction,Conductor*%
%ADD27C,1.000000*%
%TD*%
%TA.AperFunction,Conductor*%
%ADD28C,2.000000*%
%TD*%
%TA.AperFunction,Conductor*%
%ADD29C,0.254000*%
%TD*%
G04 APERTURE END LIST*
D10*
%TO.N,+5V*%
%TO.C,C20*%
G36*
X189426504Y-121554204D02*
G01*
X189450773Y-121557804D01*
X189474571Y-121563765D01*
X189497671Y-121572030D01*
X189519849Y-121582520D01*
X189540893Y-121595133D01*
X189560598Y-121609747D01*
X189578777Y-121626223D01*
X189595253Y-121644402D01*
X189609867Y-121664107D01*
X189622480Y-121685151D01*
X189632970Y-121707329D01*
X189641235Y-121730429D01*
X189647196Y-121754227D01*
X189650796Y-121778496D01*
X189652000Y-121803000D01*
X189652000Y-123053000D01*
X189650796Y-123077504D01*
X189647196Y-123101773D01*
X189641235Y-123125571D01*
X189632970Y-123148671D01*
X189622480Y-123170849D01*
X189609867Y-123191893D01*
X189595253Y-123211598D01*
X189578777Y-123229777D01*
X189560598Y-123246253D01*
X189540893Y-123260867D01*
X189519849Y-123273480D01*
X189497671Y-123283970D01*
X189474571Y-123292235D01*
X189450773Y-123298196D01*
X189426504Y-123301796D01*
X189402000Y-123303000D01*
X188477000Y-123303000D01*
X188452496Y-123301796D01*
X188428227Y-123298196D01*
X188404429Y-123292235D01*
X188381329Y-123283970D01*
X188359151Y-123273480D01*
X188338107Y-123260867D01*
X188318402Y-123246253D01*
X188300223Y-123229777D01*
X188283747Y-123211598D01*
X188269133Y-123191893D01*
X188256520Y-123170849D01*
X188246030Y-123148671D01*
X188237765Y-123125571D01*
X188231804Y-123101773D01*
X188228204Y-123077504D01*
X188227000Y-123053000D01*
X188227000Y-121803000D01*
X188228204Y-121778496D01*
X188231804Y-121754227D01*
X188237765Y-121730429D01*
X188246030Y-121707329D01*
X188256520Y-121685151D01*
X188269133Y-121664107D01*
X188283747Y-121644402D01*
X188300223Y-121626223D01*
X188318402Y-121609747D01*
X188338107Y-121595133D01*
X188359151Y-121582520D01*
X188381329Y-121572030D01*
X188404429Y-121563765D01*
X188428227Y-121557804D01*
X188452496Y-121554204D01*
X188477000Y-121553000D01*
X189402000Y-121553000D01*
X189426504Y-121554204D01*
X189426504Y-121554204D01*
G37*
D11*
%TD*%
%TO.P,C20,2*%
%TO.N,+5V*%
X188939500Y-122428000D03*
D10*
%TO.N,GND*%
%TO.C,C20*%
G36*
X186451504Y-121554204D02*
G01*
X186475773Y-121557804D01*
X186499571Y-121563765D01*
X186522671Y-121572030D01*
X186544849Y-121582520D01*
X186565893Y-121595133D01*
X186585598Y-121609747D01*
X186603777Y-121626223D01*
X186620253Y-121644402D01*
X186634867Y-121664107D01*
X186647480Y-121685151D01*
X186657970Y-121707329D01*
X186666235Y-121730429D01*
X186672196Y-121754227D01*
X186675796Y-121778496D01*
X186677000Y-121803000D01*
X186677000Y-123053000D01*
X186675796Y-123077504D01*
X186672196Y-123101773D01*
X186666235Y-123125571D01*
X186657970Y-123148671D01*
X186647480Y-123170849D01*
X186634867Y-123191893D01*
X186620253Y-123211598D01*
X186603777Y-123229777D01*
X186585598Y-123246253D01*
X186565893Y-123260867D01*
X186544849Y-123273480D01*
X186522671Y-123283970D01*
X186499571Y-123292235D01*
X186475773Y-123298196D01*
X186451504Y-123301796D01*
X186427000Y-123303000D01*
X185502000Y-123303000D01*
X185477496Y-123301796D01*
X185453227Y-123298196D01*
X185429429Y-123292235D01*
X185406329Y-123283970D01*
X185384151Y-123273480D01*
X185363107Y-123260867D01*
X185343402Y-123246253D01*
X185325223Y-123229777D01*
X185308747Y-123211598D01*
X185294133Y-123191893D01*
X185281520Y-123170849D01*
X185271030Y-123148671D01*
X185262765Y-123125571D01*
X185256804Y-123101773D01*
X185253204Y-123077504D01*
X185252000Y-123053000D01*
X185252000Y-121803000D01*
X185253204Y-121778496D01*
X185256804Y-121754227D01*
X185262765Y-121730429D01*
X185271030Y-121707329D01*
X185281520Y-121685151D01*
X185294133Y-121664107D01*
X185308747Y-121644402D01*
X185325223Y-121626223D01*
X185343402Y-121609747D01*
X185363107Y-121595133D01*
X185384151Y-121582520D01*
X185406329Y-121572030D01*
X185429429Y-121563765D01*
X185453227Y-121557804D01*
X185477496Y-121554204D01*
X185502000Y-121553000D01*
X186427000Y-121553000D01*
X186451504Y-121554204D01*
X186451504Y-121554204D01*
G37*
D11*
%TD*%
%TO.P,C20,1*%
%TO.N,GND*%
X185964500Y-122428000D03*
D12*
%TO.P,U8,48*%
%TO.N,Net-(U8-Pad48)*%
X154305000Y-75438000D03*
%TO.P,U8,51*%
%TO.N,U_D*%
X159385000Y-77978000D03*
%TO.P,U8,70*%
%TO.N,GND*%
X182245000Y-75438000D03*
%TO.P,U8,54*%
%TO.N,Net-(U8-Pad54)*%
X161925000Y-75438000D03*
%TO.P,U8,53*%
%TO.N,CS*%
X161925000Y-77978000D03*
%TO.P,U8,69*%
%TO.N,Net-(U8-Pad69)*%
X182245000Y-77978000D03*
%TO.P,U8,59*%
%TO.N,Net-(U8-Pad59)*%
X169545000Y-77978000D03*
%TO.P,U8,63*%
%TO.N,Net-(U8-Pad63)*%
X174625000Y-77978000D03*
%TO.P,U8,67*%
%TO.N,Net-(U8-Pad67)*%
X179705000Y-77978000D03*
%TO.P,U8,45*%
%TO.N,+5V*%
X151765000Y-77978000D03*
%TO.P,U8,72*%
%TO.N,Net-(U8-Pad72)*%
X184785000Y-75438000D03*
%TO.P,U8,62*%
%TO.N,Net-(U8-Pad62)*%
X172085000Y-75438000D03*
%TO.P,U8,52*%
%TO.N,Net-(U8-Pad52)*%
X159385000Y-75438000D03*
%TO.P,U8,40*%
%TO.N,Net-(U8-Pad40)*%
X144145000Y-75438000D03*
%TO.P,U8,39*%
%TO.N,Net-(U8-Pad39)*%
X144145000Y-77978000D03*
%TO.P,U8,41*%
%TO.N,Net-(U8-Pad41)*%
X146685000Y-77978000D03*
%TO.P,U8,64*%
%TO.N,Net-(U8-Pad64)*%
X174625000Y-75438000D03*
%TO.P,U8,76*%
%TO.N,Net-(U8-Pad76)*%
X189865000Y-75438000D03*
%TO.P,U8,58*%
%TO.N,GND*%
X167005000Y-75438000D03*
%TO.P,U8,43*%
%TO.N,Net-(U8-Pad43)*%
X149225000Y-77978000D03*
%TO.P,U8,61*%
%TO.N,AUDIO_IN_W_OFFSET*%
X172085000Y-77978000D03*
%TO.P,U8,65*%
%TO.N,Net-(U8-Pad65)*%
X177165000Y-77978000D03*
%TO.P,U8,56*%
%TO.N,Net-(U8-Pad56)*%
X164465000Y-75438000D03*
%TO.P,U8,46*%
%TO.N,Net-(U8-Pad46)*%
X151765000Y-75438000D03*
%TO.P,U8,71*%
%TO.N,Net-(U8-Pad71)*%
X184785000Y-77978000D03*
%TO.P,U8,57*%
%TO.N,Net-(U8-Pad57)*%
X167005000Y-77978000D03*
%TO.P,U8,75*%
%TO.N,Net-(U8-Pad75)*%
X189865000Y-77978000D03*
%TO.P,U8,73*%
%TO.N,Net-(U8-Pad73)*%
X187325000Y-77978000D03*
%TO.P,U8,44*%
%TO.N,Net-(U8-Pad44)*%
X149225000Y-75438000D03*
%TO.P,U8,55*%
%TO.N,Net-(U8-Pad55)*%
X164465000Y-77978000D03*
%TO.P,U8,68*%
%TO.N,Net-(U8-Pad68)*%
X179705000Y-75438000D03*
%TO.P,U8,60*%
%TO.N,Net-(U8-Pad60)*%
X169545000Y-75438000D03*
%TO.P,U8,74*%
%TO.N,Net-(U8-Pad74)*%
X187325000Y-75438000D03*
%TO.P,U8,66*%
%TO.N,Net-(U8-Pad66)*%
X177165000Y-75438000D03*
%TO.P,U8,50*%
%TO.N,Net-(U8-Pad50)*%
X156845000Y-75438000D03*
%TO.P,U8,42*%
%TO.N,Net-(U8-Pad42)*%
X146685000Y-75438000D03*
%TO.P,U8,47*%
%TO.N,GND*%
X154305000Y-77978000D03*
%TO.P,U8,49*%
%TO.N,INC*%
X156845000Y-77978000D03*
%TO.P,U8,17*%
%TO.N,Net-(U8-Pad17)*%
X164465000Y-138938000D03*
%TO.P,U8,35*%
%TO.N,Net-(U8-Pad35)*%
X187325000Y-138938000D03*
%TO.P,U8,33*%
%TO.N,Net-(U8-Pad33)*%
X184785000Y-138938000D03*
%TO.P,U8,37*%
%TO.N,Net-(U8-Pad37)*%
X189865000Y-138938000D03*
%TO.P,U8,29*%
%TO.N,Net-(U8-Pad29)*%
X179705000Y-138938000D03*
%TO.P,U8,27*%
%TO.N,Net-(U8-Pad27)*%
X177165000Y-138938000D03*
%TO.P,U8,25*%
%TO.N,Net-(U8-Pad25)*%
X174625000Y-138938000D03*
%TO.P,U8,23*%
%TO.N,Net-(U8-Pad23)*%
X172085000Y-138938000D03*
%TO.P,U8,21*%
%TO.N,Net-(U8-Pad21)*%
X169545000Y-138938000D03*
%TO.P,U8,31*%
%TO.N,Net-(U8-Pad31)*%
X182245000Y-138938000D03*
%TO.P,U8,19*%
%TO.N,GND*%
X167005000Y-138938000D03*
%TO.P,U8,15*%
%TO.N,Net-(U8-Pad15)*%
X161925000Y-138938000D03*
%TO.P,U8,11*%
%TO.N,Net-(U8-Pad11)*%
X156845000Y-138938000D03*
%TO.P,U8,13*%
%TO.N,Net-(U8-Pad13)*%
X159385000Y-138938000D03*
%TO.P,U8,9*%
%TO.N,Net-(U8-Pad9)*%
X154305000Y-138938000D03*
%TO.P,U8,7*%
%TO.N,Net-(U8-Pad7)*%
X151765000Y-138938000D03*
%TO.P,U8,5*%
%TO.N,+5V*%
X149225000Y-138938000D03*
%TO.P,U8,3*%
%TO.N,Net-(U8-Pad3)*%
X146685000Y-138938000D03*
%TO.P,U8,1*%
%TO.N,Net-(U8-Pad1)*%
X144145000Y-138938000D03*
%TO.P,U8,2*%
%TO.N,Net-(U8-Pad2)*%
X144145000Y-136398000D03*
%TO.P,U8,4*%
%TO.N,Net-(U8-Pad4)*%
X146685000Y-136398000D03*
%TO.P,U8,6*%
%TO.N,Net-(U8-Pad6)*%
X149225000Y-136398000D03*
%TO.P,U8,8*%
%TO.N,GND*%
X151765000Y-136398000D03*
%TO.P,U8,10*%
%TO.N,Net-(U8-Pad10)*%
X154305000Y-136398000D03*
%TO.P,U8,12*%
%TO.N,Net-(U8-Pad12)*%
X156845000Y-136398000D03*
%TO.P,U8,14*%
%TO.N,Net-(U8-Pad14)*%
X159385000Y-136398000D03*
%TO.P,U8,16*%
%TO.N,Net-(U8-Pad16)*%
X161925000Y-136398000D03*
%TO.P,U8,18*%
%TO.N,Net-(U8-Pad18)*%
X164465000Y-136398000D03*
%TO.P,U8,20*%
%TO.N,GND*%
X167005000Y-136398000D03*
%TO.P,U8,22*%
X169545000Y-136398000D03*
%TO.P,U8,24*%
%TO.N,Net-(U8-Pad24)*%
X172085000Y-136398000D03*
%TO.P,U8,26*%
%TO.N,Net-(U8-Pad26)*%
X174625000Y-136398000D03*
%TO.P,U8,28*%
%TO.N,IN_ADC*%
X177165000Y-136398000D03*
%TO.P,U8,30*%
%TO.N,OUT_DAC*%
X179705000Y-136398000D03*
%TO.P,U8,32*%
%TO.N,Vbias*%
X182245000Y-136398000D03*
%TO.P,U8,34*%
%TO.N,Net-(U8-Pad34)*%
X184785000Y-136398000D03*
%TO.P,U8,36*%
%TO.N,Net-(U8-Pad36)*%
X187325000Y-136398000D03*
%TO.P,U8,38*%
%TO.N,Net-(U8-Pad38)*%
X189865000Y-136398000D03*
%TD*%
D13*
%TO.P,U7,1*%
%TO.N,GND*%
X188824000Y-115048000D03*
%TO.P,U7,3*%
%TO.N,+5V*%
X188824000Y-119648000D03*
%TO.P,U7,2*%
%TO.N,+3V3*%
X188824000Y-117348000D03*
D14*
X182524000Y-117348000D03*
%TD*%
D15*
%TO.P,J5,2*%
%TO.N,GND*%
X132842000Y-141224000D03*
D16*
%TO.P,J5,1*%
%TO.N,+9V*%
X127762000Y-141224000D03*
%TD*%
D17*
%TO.P,H4,1*%
%TO.N,N/C*%
X196850000Y-143510000D03*
%TD*%
%TO.P,H3,1*%
%TO.N,N/C*%
X196850000Y-77470000D03*
%TD*%
%TO.P,H2,1*%
%TO.N,N/C*%
X90170000Y-143510000D03*
%TD*%
%TO.P,H1,1*%
%TO.N,N/C*%
X90170000Y-77470000D03*
%TD*%
D18*
%TO.P,IC1,1*%
%TO.N,INC*%
X145116000Y-90805000D03*
%TO.P,IC1,2*%
%TO.N,U_D*%
X145116000Y-89535000D03*
%TO.P,IC1,3*%
%TO.N,RH*%
X145116000Y-88265000D03*
%TO.P,IC1,4*%
%TO.N,GND*%
X145116000Y-86995000D03*
%TO.P,IC1,5*%
%TO.N,RW*%
X150540000Y-86995000D03*
%TO.P,IC1,6*%
%TO.N,RL*%
X150540000Y-88265000D03*
%TO.P,IC1,7*%
%TO.N,CS*%
X150540000Y-89535000D03*
%TO.P,IC1,8*%
%TO.N,+3V3*%
X150540000Y-90805000D03*
%TD*%
D19*
%TO.P,J1,4*%
%TO.N,AUDIO_IN*%
X90583800Y-117970600D03*
%TO.P,J1,3*%
%TO.N,GND*%
X103283800Y-117970600D03*
%TO.P,J1,2*%
X103283800Y-134200600D03*
%TO.P,J1,1*%
%TO.N,AUDIO_IN*%
X90583800Y-134200600D03*
%TD*%
%TO.P,J2,1*%
%TO.N,AUDIO_OUT*%
X90787000Y-100012200D03*
%TO.P,J2,2*%
%TO.N,GND*%
X103487000Y-100012200D03*
%TO.P,J2,3*%
X103487000Y-83782200D03*
%TO.P,J2,4*%
%TO.N,AUDIO_OUT*%
X90787000Y-83782200D03*
%TD*%
D20*
%TO.P,J3,1*%
%TO.N,AUDIO_IN*%
X90538300Y-114808000D03*
D21*
%TO.P,J3,2*%
%TO.N,GND*%
X87998300Y-114808000D03*
%TD*%
%TO.P,J4,3*%
%TO.N,RL*%
X146177000Y-99568000D03*
%TO.P,J4,2*%
%TO.N,RW*%
X143637000Y-99568000D03*
D20*
%TO.P,J4,1*%
%TO.N,RH*%
X141097000Y-99568000D03*
%TD*%
%TO.P,TP1,1*%
%TO.N,AUDIO_IN_W_OFFSET*%
X115062000Y-106426000D03*
%TD*%
%TO.P,TP2,1*%
%TO.N,Net-(C12-Pad2)*%
X159385000Y-86614000D03*
%TD*%
%TO.P,TP3,1*%
%TO.N,IN_ADC*%
X171323000Y-118872000D03*
%TD*%
D22*
%TO.P,C25,1*%
%TO.N,GND*%
X102616000Y-143510000D03*
D23*
%TO.P,C25,2*%
%TO.N,+9V*%
X102616000Y-138510000D03*
%TD*%
%TO.P,C26,2*%
%TO.N,+9V*%
X120396000Y-138510000D03*
D22*
%TO.P,C26,1*%
%TO.N,GND*%
X120396000Y-143510000D03*
%TD*%
%TO.P,C27,1*%
%TO.N,GND*%
X111506000Y-143510000D03*
D23*
%TO.P,C27,2*%
%TO.N,+9V*%
X111506000Y-138510000D03*
%TD*%
%TO.P,C12,2*%
%TO.N,Net-(C12-Pad2)*%
X115189000Y-95297000D03*
D22*
%TO.P,C12,1*%
%TO.N,AUDIO_OUT*%
X115189000Y-90297000D03*
%TD*%
%TO.P,C29,1*%
%TO.N,AUDIO_OUT*%
X123952000Y-90297000D03*
D23*
%TO.P,C29,2*%
%TO.N,Net-(C12-Pad2)*%
X123952000Y-95297000D03*
%TD*%
D22*
%TO.P,C30,1*%
%TO.N,AUDIO_OUT*%
X132715000Y-90297000D03*
D23*
%TO.P,C30,2*%
%TO.N,Net-(C12-Pad2)*%
X132715000Y-95297000D03*
%TD*%
D10*
%TO.N,+3V3*%
%TO.C,C1*%
G36*
X151018504Y-92090204D02*
G01*
X151042773Y-92093804D01*
X151066571Y-92099765D01*
X151089671Y-92108030D01*
X151111849Y-92118520D01*
X151132893Y-92131133D01*
X151152598Y-92145747D01*
X151170777Y-92162223D01*
X151187253Y-92180402D01*
X151201867Y-92200107D01*
X151214480Y-92221151D01*
X151224970Y-92243329D01*
X151233235Y-92266429D01*
X151239196Y-92290227D01*
X151242796Y-92314496D01*
X151244000Y-92339000D01*
X151244000Y-93589000D01*
X151242796Y-93613504D01*
X151239196Y-93637773D01*
X151233235Y-93661571D01*
X151224970Y-93684671D01*
X151214480Y-93706849D01*
X151201867Y-93727893D01*
X151187253Y-93747598D01*
X151170777Y-93765777D01*
X151152598Y-93782253D01*
X151132893Y-93796867D01*
X151111849Y-93809480D01*
X151089671Y-93819970D01*
X151066571Y-93828235D01*
X151042773Y-93834196D01*
X151018504Y-93837796D01*
X150994000Y-93839000D01*
X150069000Y-93839000D01*
X150044496Y-93837796D01*
X150020227Y-93834196D01*
X149996429Y-93828235D01*
X149973329Y-93819970D01*
X149951151Y-93809480D01*
X149930107Y-93796867D01*
X149910402Y-93782253D01*
X149892223Y-93765777D01*
X149875747Y-93747598D01*
X149861133Y-93727893D01*
X149848520Y-93706849D01*
X149838030Y-93684671D01*
X149829765Y-93661571D01*
X149823804Y-93637773D01*
X149820204Y-93613504D01*
X149819000Y-93589000D01*
X149819000Y-92339000D01*
X149820204Y-92314496D01*
X149823804Y-92290227D01*
X149829765Y-92266429D01*
X149838030Y-92243329D01*
X149848520Y-92221151D01*
X149861133Y-92200107D01*
X149875747Y-92180402D01*
X149892223Y-92162223D01*
X149910402Y-92145747D01*
X149930107Y-92131133D01*
X149951151Y-92118520D01*
X149973329Y-92108030D01*
X149996429Y-92099765D01*
X150020227Y-92093804D01*
X150044496Y-92090204D01*
X150069000Y-92089000D01*
X150994000Y-92089000D01*
X151018504Y-92090204D01*
X151018504Y-92090204D01*
G37*
D11*
%TD*%
%TO.P,C1,2*%
%TO.N,+3V3*%
X150531500Y-92964000D03*
D10*
%TO.N,GND*%
%TO.C,C1*%
G36*
X153993504Y-92090204D02*
G01*
X154017773Y-92093804D01*
X154041571Y-92099765D01*
X154064671Y-92108030D01*
X154086849Y-92118520D01*
X154107893Y-92131133D01*
X154127598Y-92145747D01*
X154145777Y-92162223D01*
X154162253Y-92180402D01*
X154176867Y-92200107D01*
X154189480Y-92221151D01*
X154199970Y-92243329D01*
X154208235Y-92266429D01*
X154214196Y-92290227D01*
X154217796Y-92314496D01*
X154219000Y-92339000D01*
X154219000Y-93589000D01*
X154217796Y-93613504D01*
X154214196Y-93637773D01*
X154208235Y-93661571D01*
X154199970Y-93684671D01*
X154189480Y-93706849D01*
X154176867Y-93727893D01*
X154162253Y-93747598D01*
X154145777Y-93765777D01*
X154127598Y-93782253D01*
X154107893Y-93796867D01*
X154086849Y-93809480D01*
X154064671Y-93819970D01*
X154041571Y-93828235D01*
X154017773Y-93834196D01*
X153993504Y-93837796D01*
X153969000Y-93839000D01*
X153044000Y-93839000D01*
X153019496Y-93837796D01*
X152995227Y-93834196D01*
X152971429Y-93828235D01*
X152948329Y-93819970D01*
X152926151Y-93809480D01*
X152905107Y-93796867D01*
X152885402Y-93782253D01*
X152867223Y-93765777D01*
X152850747Y-93747598D01*
X152836133Y-93727893D01*
X152823520Y-93706849D01*
X152813030Y-93684671D01*
X152804765Y-93661571D01*
X152798804Y-93637773D01*
X152795204Y-93613504D01*
X152794000Y-93589000D01*
X152794000Y-92339000D01*
X152795204Y-92314496D01*
X152798804Y-92290227D01*
X152804765Y-92266429D01*
X152813030Y-92243329D01*
X152823520Y-92221151D01*
X152836133Y-92200107D01*
X152850747Y-92180402D01*
X152867223Y-92162223D01*
X152885402Y-92145747D01*
X152905107Y-92131133D01*
X152926151Y-92118520D01*
X152948329Y-92108030D01*
X152971429Y-92099765D01*
X152995227Y-92093804D01*
X153019496Y-92090204D01*
X153044000Y-92089000D01*
X153969000Y-92089000D01*
X153993504Y-92090204D01*
X153993504Y-92090204D01*
G37*
D11*
%TD*%
%TO.P,C1,1*%
%TO.N,GND*%
X153506500Y-92964000D03*
D10*
%TO.N,GND*%
%TO.C,C19*%
G36*
X180101504Y-124094204D02*
G01*
X180125773Y-124097804D01*
X180149571Y-124103765D01*
X180172671Y-124112030D01*
X180194849Y-124122520D01*
X180215893Y-124135133D01*
X180235598Y-124149747D01*
X180253777Y-124166223D01*
X180270253Y-124184402D01*
X180284867Y-124204107D01*
X180297480Y-124225151D01*
X180307970Y-124247329D01*
X180316235Y-124270429D01*
X180322196Y-124294227D01*
X180325796Y-124318496D01*
X180327000Y-124343000D01*
X180327000Y-125593000D01*
X180325796Y-125617504D01*
X180322196Y-125641773D01*
X180316235Y-125665571D01*
X180307970Y-125688671D01*
X180297480Y-125710849D01*
X180284867Y-125731893D01*
X180270253Y-125751598D01*
X180253777Y-125769777D01*
X180235598Y-125786253D01*
X180215893Y-125800867D01*
X180194849Y-125813480D01*
X180172671Y-125823970D01*
X180149571Y-125832235D01*
X180125773Y-125838196D01*
X180101504Y-125841796D01*
X180077000Y-125843000D01*
X179152000Y-125843000D01*
X179127496Y-125841796D01*
X179103227Y-125838196D01*
X179079429Y-125832235D01*
X179056329Y-125823970D01*
X179034151Y-125813480D01*
X179013107Y-125800867D01*
X178993402Y-125786253D01*
X178975223Y-125769777D01*
X178958747Y-125751598D01*
X178944133Y-125731893D01*
X178931520Y-125710849D01*
X178921030Y-125688671D01*
X178912765Y-125665571D01*
X178906804Y-125641773D01*
X178903204Y-125617504D01*
X178902000Y-125593000D01*
X178902000Y-124343000D01*
X178903204Y-124318496D01*
X178906804Y-124294227D01*
X178912765Y-124270429D01*
X178921030Y-124247329D01*
X178931520Y-124225151D01*
X178944133Y-124204107D01*
X178958747Y-124184402D01*
X178975223Y-124166223D01*
X178993402Y-124149747D01*
X179013107Y-124135133D01*
X179034151Y-124122520D01*
X179056329Y-124112030D01*
X179079429Y-124103765D01*
X179103227Y-124097804D01*
X179127496Y-124094204D01*
X179152000Y-124093000D01*
X180077000Y-124093000D01*
X180101504Y-124094204D01*
X180101504Y-124094204D01*
G37*
D11*
%TD*%
%TO.P,C19,1*%
%TO.N,GND*%
X179614500Y-124968000D03*
D10*
%TO.N,+3V3*%
%TO.C,C19*%
G36*
X183076504Y-124094204D02*
G01*
X183100773Y-124097804D01*
X183124571Y-124103765D01*
X183147671Y-124112030D01*
X183169849Y-124122520D01*
X183190893Y-124135133D01*
X183210598Y-124149747D01*
X183228777Y-124166223D01*
X183245253Y-124184402D01*
X183259867Y-124204107D01*
X183272480Y-124225151D01*
X183282970Y-124247329D01*
X183291235Y-124270429D01*
X183297196Y-124294227D01*
X183300796Y-124318496D01*
X183302000Y-124343000D01*
X183302000Y-125593000D01*
X183300796Y-125617504D01*
X183297196Y-125641773D01*
X183291235Y-125665571D01*
X183282970Y-125688671D01*
X183272480Y-125710849D01*
X183259867Y-125731893D01*
X183245253Y-125751598D01*
X183228777Y-125769777D01*
X183210598Y-125786253D01*
X183190893Y-125800867D01*
X183169849Y-125813480D01*
X183147671Y-125823970D01*
X183124571Y-125832235D01*
X183100773Y-125838196D01*
X183076504Y-125841796D01*
X183052000Y-125843000D01*
X182127000Y-125843000D01*
X182102496Y-125841796D01*
X182078227Y-125838196D01*
X182054429Y-125832235D01*
X182031329Y-125823970D01*
X182009151Y-125813480D01*
X181988107Y-125800867D01*
X181968402Y-125786253D01*
X181950223Y-125769777D01*
X181933747Y-125751598D01*
X181919133Y-125731893D01*
X181906520Y-125710849D01*
X181896030Y-125688671D01*
X181887765Y-125665571D01*
X181881804Y-125641773D01*
X181878204Y-125617504D01*
X181877000Y-125593000D01*
X181877000Y-124343000D01*
X181878204Y-124318496D01*
X181881804Y-124294227D01*
X181887765Y-124270429D01*
X181896030Y-124247329D01*
X181906520Y-124225151D01*
X181919133Y-124204107D01*
X181933747Y-124184402D01*
X181950223Y-124166223D01*
X181968402Y-124149747D01*
X181988107Y-124135133D01*
X182009151Y-124122520D01*
X182031329Y-124112030D01*
X182054429Y-124103765D01*
X182078227Y-124097804D01*
X182102496Y-124094204D01*
X182127000Y-124093000D01*
X183052000Y-124093000D01*
X183076504Y-124094204D01*
X183076504Y-124094204D01*
G37*
D11*
%TD*%
%TO.P,C19,2*%
%TO.N,+3V3*%
X182589500Y-124968000D03*
D10*
%TO.N,GND*%
%TO.C,C24*%
G36*
X180101504Y-121554204D02*
G01*
X180125773Y-121557804D01*
X180149571Y-121563765D01*
X180172671Y-121572030D01*
X180194849Y-121582520D01*
X180215893Y-121595133D01*
X180235598Y-121609747D01*
X180253777Y-121626223D01*
X180270253Y-121644402D01*
X180284867Y-121664107D01*
X180297480Y-121685151D01*
X180307970Y-121707329D01*
X180316235Y-121730429D01*
X180322196Y-121754227D01*
X180325796Y-121778496D01*
X180327000Y-121803000D01*
X180327000Y-123053000D01*
X180325796Y-123077504D01*
X180322196Y-123101773D01*
X180316235Y-123125571D01*
X180307970Y-123148671D01*
X180297480Y-123170849D01*
X180284867Y-123191893D01*
X180270253Y-123211598D01*
X180253777Y-123229777D01*
X180235598Y-123246253D01*
X180215893Y-123260867D01*
X180194849Y-123273480D01*
X180172671Y-123283970D01*
X180149571Y-123292235D01*
X180125773Y-123298196D01*
X180101504Y-123301796D01*
X180077000Y-123303000D01*
X179152000Y-123303000D01*
X179127496Y-123301796D01*
X179103227Y-123298196D01*
X179079429Y-123292235D01*
X179056329Y-123283970D01*
X179034151Y-123273480D01*
X179013107Y-123260867D01*
X178993402Y-123246253D01*
X178975223Y-123229777D01*
X178958747Y-123211598D01*
X178944133Y-123191893D01*
X178931520Y-123170849D01*
X178921030Y-123148671D01*
X178912765Y-123125571D01*
X178906804Y-123101773D01*
X178903204Y-123077504D01*
X178902000Y-123053000D01*
X178902000Y-121803000D01*
X178903204Y-121778496D01*
X178906804Y-121754227D01*
X178912765Y-121730429D01*
X178921030Y-121707329D01*
X178931520Y-121685151D01*
X178944133Y-121664107D01*
X178958747Y-121644402D01*
X178975223Y-121626223D01*
X178993402Y-121609747D01*
X179013107Y-121595133D01*
X179034151Y-121582520D01*
X179056329Y-121572030D01*
X179079429Y-121563765D01*
X179103227Y-121557804D01*
X179127496Y-121554204D01*
X179152000Y-121553000D01*
X180077000Y-121553000D01*
X180101504Y-121554204D01*
X180101504Y-121554204D01*
G37*
D11*
%TD*%
%TO.P,C24,1*%
%TO.N,GND*%
X179614500Y-122428000D03*
D10*
%TO.N,+3V3*%
%TO.C,C24*%
G36*
X183076504Y-121554204D02*
G01*
X183100773Y-121557804D01*
X183124571Y-121563765D01*
X183147671Y-121572030D01*
X183169849Y-121582520D01*
X183190893Y-121595133D01*
X183210598Y-121609747D01*
X183228777Y-121626223D01*
X183245253Y-121644402D01*
X183259867Y-121664107D01*
X183272480Y-121685151D01*
X183282970Y-121707329D01*
X183291235Y-121730429D01*
X183297196Y-121754227D01*
X183300796Y-121778496D01*
X183302000Y-121803000D01*
X183302000Y-123053000D01*
X183300796Y-123077504D01*
X183297196Y-123101773D01*
X183291235Y-123125571D01*
X183282970Y-123148671D01*
X183272480Y-123170849D01*
X183259867Y-123191893D01*
X183245253Y-123211598D01*
X183228777Y-123229777D01*
X183210598Y-123246253D01*
X183190893Y-123260867D01*
X183169849Y-123273480D01*
X183147671Y-123283970D01*
X183124571Y-123292235D01*
X183100773Y-123298196D01*
X183076504Y-123301796D01*
X183052000Y-123303000D01*
X182127000Y-123303000D01*
X182102496Y-123301796D01*
X182078227Y-123298196D01*
X182054429Y-123292235D01*
X182031329Y-123283970D01*
X182009151Y-123273480D01*
X181988107Y-123260867D01*
X181968402Y-123246253D01*
X181950223Y-123229777D01*
X181933747Y-123211598D01*
X181919133Y-123191893D01*
X181906520Y-123170849D01*
X181896030Y-123148671D01*
X181887765Y-123125571D01*
X181881804Y-123101773D01*
X181878204Y-123077504D01*
X181877000Y-123053000D01*
X181877000Y-121803000D01*
X181878204Y-121778496D01*
X181881804Y-121754227D01*
X181887765Y-121730429D01*
X181896030Y-121707329D01*
X181906520Y-121685151D01*
X181919133Y-121664107D01*
X181933747Y-121644402D01*
X181950223Y-121626223D01*
X181968402Y-121609747D01*
X181988107Y-121595133D01*
X182009151Y-121582520D01*
X182031329Y-121572030D01*
X182054429Y-121563765D01*
X182078227Y-121557804D01*
X182102496Y-121554204D01*
X182127000Y-121553000D01*
X183052000Y-121553000D01*
X183076504Y-121554204D01*
X183076504Y-121554204D01*
G37*
D11*
%TD*%
%TO.P,C24,2*%
%TO.N,+3V3*%
X182589500Y-122428000D03*
D20*
%TO.P,J6,1*%
%TO.N,Net-(J6-Pad1)*%
X96520000Y-139954000D03*
D21*
%TO.P,J6,2*%
%TO.N,GND*%
X96520000Y-137414000D03*
%TD*%
D20*
%TO.P,J7,1*%
%TO.N,Net-(J7-Pad1)*%
X188722000Y-127508000D03*
D21*
%TO.P,J7,2*%
%TO.N,GND*%
X191262000Y-127508000D03*
%TD*%
%TO.P,J8,2*%
%TO.N,GND*%
X154686000Y-145288000D03*
D20*
%TO.P,J8,1*%
%TO.N,Net-(J8-Pad1)*%
X152146000Y-145288000D03*
%TD*%
D10*
%TO.N,+3V3*%
%TO.C,R26*%
G36*
X183149504Y-126634204D02*
G01*
X183173773Y-126637804D01*
X183197571Y-126643765D01*
X183220671Y-126652030D01*
X183242849Y-126662520D01*
X183263893Y-126675133D01*
X183283598Y-126689747D01*
X183301777Y-126706223D01*
X183318253Y-126724402D01*
X183332867Y-126744107D01*
X183345480Y-126765151D01*
X183355970Y-126787329D01*
X183364235Y-126810429D01*
X183370196Y-126834227D01*
X183373796Y-126858496D01*
X183375000Y-126883000D01*
X183375000Y-128133000D01*
X183373796Y-128157504D01*
X183370196Y-128181773D01*
X183364235Y-128205571D01*
X183355970Y-128228671D01*
X183345480Y-128250849D01*
X183332867Y-128271893D01*
X183318253Y-128291598D01*
X183301777Y-128309777D01*
X183283598Y-128326253D01*
X183263893Y-128340867D01*
X183242849Y-128353480D01*
X183220671Y-128363970D01*
X183197571Y-128372235D01*
X183173773Y-128378196D01*
X183149504Y-128381796D01*
X183125000Y-128383000D01*
X182200000Y-128383000D01*
X182175496Y-128381796D01*
X182151227Y-128378196D01*
X182127429Y-128372235D01*
X182104329Y-128363970D01*
X182082151Y-128353480D01*
X182061107Y-128340867D01*
X182041402Y-128326253D01*
X182023223Y-128309777D01*
X182006747Y-128291598D01*
X181992133Y-128271893D01*
X181979520Y-128250849D01*
X181969030Y-128228671D01*
X181960765Y-128205571D01*
X181954804Y-128181773D01*
X181951204Y-128157504D01*
X181950000Y-128133000D01*
X181950000Y-126883000D01*
X181951204Y-126858496D01*
X181954804Y-126834227D01*
X181960765Y-126810429D01*
X181969030Y-126787329D01*
X181979520Y-126765151D01*
X181992133Y-126744107D01*
X182006747Y-126724402D01*
X182023223Y-126706223D01*
X182041402Y-126689747D01*
X182061107Y-126675133D01*
X182082151Y-126662520D01*
X182104329Y-126652030D01*
X182127429Y-126643765D01*
X182151227Y-126637804D01*
X182175496Y-126634204D01*
X182200000Y-126633000D01*
X183125000Y-126633000D01*
X183149504Y-126634204D01*
X183149504Y-126634204D01*
G37*
D11*
%TD*%
%TO.P,R26,1*%
%TO.N,+3V3*%
X182662500Y-127508000D03*
D10*
%TO.N,Net-(J7-Pad1)*%
%TO.C,R26*%
G36*
X186124504Y-126634204D02*
G01*
X186148773Y-126637804D01*
X186172571Y-126643765D01*
X186195671Y-126652030D01*
X186217849Y-126662520D01*
X186238893Y-126675133D01*
X186258598Y-126689747D01*
X186276777Y-126706223D01*
X186293253Y-126724402D01*
X186307867Y-126744107D01*
X186320480Y-126765151D01*
X186330970Y-126787329D01*
X186339235Y-126810429D01*
X186345196Y-126834227D01*
X186348796Y-126858496D01*
X186350000Y-126883000D01*
X186350000Y-128133000D01*
X186348796Y-128157504D01*
X186345196Y-128181773D01*
X186339235Y-128205571D01*
X186330970Y-128228671D01*
X186320480Y-128250849D01*
X186307867Y-128271893D01*
X186293253Y-128291598D01*
X186276777Y-128309777D01*
X186258598Y-128326253D01*
X186238893Y-128340867D01*
X186217849Y-128353480D01*
X186195671Y-128363970D01*
X186172571Y-128372235D01*
X186148773Y-128378196D01*
X186124504Y-128381796D01*
X186100000Y-128383000D01*
X185175000Y-128383000D01*
X185150496Y-128381796D01*
X185126227Y-128378196D01*
X185102429Y-128372235D01*
X185079329Y-128363970D01*
X185057151Y-128353480D01*
X185036107Y-128340867D01*
X185016402Y-128326253D01*
X184998223Y-128309777D01*
X184981747Y-128291598D01*
X184967133Y-128271893D01*
X184954520Y-128250849D01*
X184944030Y-128228671D01*
X184935765Y-128205571D01*
X184929804Y-128181773D01*
X184926204Y-128157504D01*
X184925000Y-128133000D01*
X184925000Y-126883000D01*
X184926204Y-126858496D01*
X184929804Y-126834227D01*
X184935765Y-126810429D01*
X184944030Y-126787329D01*
X184954520Y-126765151D01*
X184967133Y-126744107D01*
X184981747Y-126724402D01*
X184998223Y-126706223D01*
X185016402Y-126689747D01*
X185036107Y-126675133D01*
X185057151Y-126662520D01*
X185079329Y-126652030D01*
X185102429Y-126643765D01*
X185126227Y-126637804D01*
X185150496Y-126634204D01*
X185175000Y-126633000D01*
X186100000Y-126633000D01*
X186124504Y-126634204D01*
X186124504Y-126634204D01*
G37*
D11*
%TD*%
%TO.P,R26,2*%
%TO.N,Net-(J7-Pad1)*%
X185637500Y-127508000D03*
D24*
%TO.N,+3V3*%
X106716500Y-116295500D03*
X132334000Y-125730000D03*
X136652000Y-123698000D03*
X157480000Y-113538000D03*
X177546000Y-110744000D03*
X164592000Y-87884000D03*
X182626000Y-93345000D03*
X123698000Y-125730000D03*
D25*
%TO.N,GND*%
X146812000Y-87122000D03*
X146812000Y-85852000D03*
X148336000Y-85852000D03*
X155194000Y-92964000D03*
X156464000Y-92964000D03*
X169418000Y-90424000D03*
X170688000Y-90424000D03*
X189484000Y-93472000D03*
X187960000Y-91440000D03*
X190754000Y-93472000D03*
X190246000Y-101346000D03*
X190246000Y-102616000D03*
X185928000Y-103378000D03*
X129286000Y-123698000D03*
X128016000Y-123698000D03*
X128778000Y-115570000D03*
X128778000Y-117856000D03*
X128778000Y-120142000D03*
X126238000Y-113792000D03*
X126238000Y-116078000D03*
X126238000Y-118364000D03*
X119126000Y-112522000D03*
X119126000Y-116078000D03*
X119126000Y-114300000D03*
X120650000Y-117856000D03*
X119126000Y-117856000D03*
X109728000Y-115824000D03*
X111252000Y-114046000D03*
X109728000Y-112268000D03*
X173482000Y-105918000D03*
X175260000Y-107696000D03*
X175260000Y-105918000D03*
X167132000Y-106934000D03*
X178054000Y-122428000D03*
X179578000Y-120650000D03*
X178054000Y-124968000D03*
X179578000Y-126746000D03*
X185928000Y-124206000D03*
X184404000Y-122428000D03*
X185928000Y-120650000D03*
X190754000Y-115062000D03*
X188722000Y-113284000D03*
X180594000Y-103378000D03*
X178054000Y-103378000D03*
X178054000Y-105664000D03*
X175260000Y-103378000D03*
X146050000Y-118364000D03*
X144272000Y-118364000D03*
X155194000Y-108966000D03*
X153416000Y-110490000D03*
X102870000Y-104394000D03*
X101092000Y-105918000D03*
X101092000Y-107696000D03*
X101092000Y-109474000D03*
X123952000Y-83566000D03*
X125730000Y-85090000D03*
X122174000Y-85090000D03*
X103632000Y-97790000D03*
X105664000Y-100076000D03*
X101346000Y-100076000D03*
X105664000Y-83566000D03*
X103378000Y-81534000D03*
D24*
X142240000Y-147320000D03*
X157480000Y-147320000D03*
X172720000Y-147320000D03*
X127000000Y-147320000D03*
X111760000Y-147320000D03*
X187960000Y-147320000D03*
X200660000Y-134620000D03*
X200660000Y-119380000D03*
X200660000Y-104140000D03*
X200660000Y-88900000D03*
X96520000Y-147320000D03*
X96520000Y-73660000D03*
X111760000Y-73660000D03*
X127000000Y-73660000D03*
X104140000Y-76200000D03*
X119380000Y-76200000D03*
X134620000Y-76200000D03*
X111760000Y-78740000D03*
X127000000Y-78740000D03*
X119380000Y-81280000D03*
X134620000Y-81280000D03*
D25*
X138430000Y-113030000D03*
X134620000Y-113030000D03*
X134620000Y-109220000D03*
X138430000Y-109220000D03*
X138430000Y-105410000D03*
X154305000Y-79375000D03*
X158750000Y-80645000D03*
D24*
X142240000Y-73660000D03*
X134620000Y-86360000D03*
X119380000Y-99060000D03*
X114300000Y-99060000D03*
X154940000Y-99060000D03*
X167640000Y-119380000D03*
X162560000Y-119380000D03*
X162560000Y-124460000D03*
X167640000Y-124460000D03*
X157480000Y-124460000D03*
X152400000Y-124460000D03*
X147320000Y-124460000D03*
X142240000Y-124460000D03*
D25*
X136652000Y-111252000D03*
X136652000Y-107188000D03*
X134620000Y-105410000D03*
X121666000Y-107950000D03*
X120142000Y-110236000D03*
D24*
X142240000Y-133350000D03*
X147320000Y-133350000D03*
X152400000Y-133350000D03*
X157480000Y-133350000D03*
X162560000Y-133350000D03*
X167640000Y-133350000D03*
X172720000Y-133350000D03*
D25*
%TO.N,AUDIO_OUT*%
X88478400Y-97703600D03*
X86827400Y-96052600D03*
X86360000Y-93472000D03*
X86360000Y-90932000D03*
X86360000Y-88209200D03*
X88046600Y-86522600D03*
X93001800Y-83782200D03*
X95795800Y-83782200D03*
X98589800Y-83782200D03*
X100457000Y-85217000D03*
X102108000Y-86868000D03*
X103886000Y-88646000D03*
X106045000Y-90297000D03*
X109601000Y-90297000D03*
X112649000Y-90297000D03*
X117729000Y-90297000D03*
X121031000Y-90297000D03*
X125857000Y-90297000D03*
X129667000Y-90297000D03*
D24*
%TO.N,+5V*%
X196342000Y-122428000D03*
%TO.N,Vbias*%
X159004000Y-102108000D03*
X110490000Y-102108000D03*
X149860000Y-102108000D03*
X129032000Y-102108000D03*
%TD*%
D26*
%TO.N,+3V3*%
X150531500Y-90813500D02*
X150540000Y-90805000D01*
X150531500Y-92964000D02*
X150531500Y-90813500D01*
D27*
X182626000Y-105664000D02*
X174752000Y-113538000D01*
X174752000Y-113538000D02*
X157480000Y-113538000D01*
X146812000Y-113538000D02*
X134620000Y-125730000D01*
X134620000Y-125730000D02*
X115824000Y-125730000D01*
X115824000Y-125730000D02*
X106680000Y-116586000D01*
X157480000Y-113538000D02*
X146812000Y-113538000D01*
X178562000Y-117348000D02*
X182524000Y-117348000D01*
X174752000Y-113538000D02*
X178562000Y-117348000D01*
X182524000Y-117348000D02*
X188824000Y-117348000D01*
X182589500Y-117413500D02*
X182524000Y-117348000D01*
X182589500Y-122428000D02*
X182589500Y-117413500D01*
X182589500Y-122428000D02*
X182589500Y-124968000D01*
X161075002Y-87884000D02*
X164592000Y-87884000D01*
X150540000Y-90805000D02*
X158154002Y-90805000D01*
X158154002Y-90805000D02*
X161075002Y-87884000D01*
X182626000Y-93345000D02*
X182626000Y-105664000D01*
X182589500Y-127435000D02*
X182662500Y-127508000D01*
X182589500Y-124968000D02*
X182589500Y-127435000D01*
D26*
%TO.N,RW*%
X143637000Y-99568000D02*
X143637000Y-96393000D01*
X143637000Y-96393000D02*
X147701000Y-92329000D01*
X147701000Y-92329000D02*
X147701000Y-88265000D01*
X148971000Y-86995000D02*
X150540000Y-86995000D01*
X147701000Y-88265000D02*
X148971000Y-86995000D01*
%TO.N,AUDIO_IN_W_OFFSET*%
X172085000Y-94107000D02*
X172085000Y-77978000D01*
X162560000Y-103632000D02*
X172085000Y-94107000D01*
X132588000Y-103632000D02*
X162560000Y-103632000D01*
X115062000Y-106426000D02*
X129794000Y-106426000D01*
X129794000Y-106426000D02*
X132588000Y-103632000D01*
%TO.N,RH*%
X146378500Y-88265000D02*
X146812000Y-88698500D01*
X145116000Y-88265000D02*
X146378500Y-88265000D01*
X146812000Y-88698500D02*
X146812000Y-91948000D01*
X141097000Y-97663000D02*
X141097000Y-99568000D01*
X146812000Y-91948000D02*
X141097000Y-97663000D01*
D28*
%TO.N,AUDIO_OUT*%
X132715000Y-90297000D02*
X123952000Y-90297000D01*
X115189000Y-90297000D02*
X123952000Y-90297000D01*
X105537000Y-90297000D02*
X115189000Y-90297000D01*
X99022200Y-83782200D02*
X105537000Y-90297000D01*
X90787000Y-83782200D02*
X99022200Y-83782200D01*
X86360000Y-88209200D02*
X90787000Y-83782200D01*
X86360000Y-95585200D02*
X86360000Y-88209200D01*
X90787000Y-100012200D02*
X86360000Y-95585200D01*
D27*
%TO.N,+5V*%
X188939500Y-119763500D02*
X188824000Y-119648000D01*
X188939500Y-122428000D02*
X188939500Y-119763500D01*
X188939500Y-122428000D02*
X196342000Y-122428000D01*
X196342000Y-122428000D02*
X196596000Y-122428000D01*
%TO.N,Vbias*%
X159004000Y-102108000D02*
X157731208Y-102108000D01*
X157731208Y-102108000D02*
X129032000Y-102108000D01*
X110490000Y-102108000D02*
X110490000Y-102108000D01*
X129032000Y-102108000D02*
X110490000Y-102108000D01*
X182245000Y-135320370D02*
X177988630Y-131064000D01*
X177988630Y-131064000D02*
X108966000Y-131064000D01*
X108966000Y-131064000D02*
X98806000Y-120904000D01*
X102616000Y-102108000D02*
X110490000Y-102108000D01*
X182245000Y-136398000D02*
X182245000Y-135320370D01*
X98806000Y-120904000D02*
X98806000Y-105918000D01*
X98806000Y-105918000D02*
X102616000Y-102108000D01*
D26*
%TO.N,INC*%
X143764000Y-90805000D02*
X145116000Y-90805000D01*
X141859000Y-88900000D02*
X143764000Y-90805000D01*
X151130000Y-83566000D02*
X144526000Y-83566000D01*
X141859000Y-86233000D02*
X141859000Y-88900000D01*
X144526000Y-83566000D02*
X141859000Y-86233000D01*
X151257000Y-83566000D02*
X151130000Y-83566000D01*
X156845000Y-79121000D02*
X156845000Y-77978000D01*
X151130000Y-83566000D02*
X152400000Y-83566000D01*
X152400000Y-83566000D02*
X156845000Y-79121000D01*
%TO.N,U_D*%
X144463498Y-89535000D02*
X143510000Y-88581502D01*
X145116000Y-89535000D02*
X144463498Y-89535000D01*
X143510000Y-88581502D02*
X143510000Y-86106000D01*
X143510000Y-86106000D02*
X145034000Y-84582000D01*
X145034000Y-84582000D02*
X151638000Y-84582000D01*
X152781000Y-84582000D02*
X151638000Y-84582000D01*
X159385000Y-77978000D02*
X152781000Y-84582000D01*
%TO.N,RL*%
X149277500Y-88265000D02*
X150540000Y-88265000D01*
X148590000Y-88952500D02*
X149277500Y-88265000D01*
X148590000Y-92837000D02*
X148590000Y-88952500D01*
X146177000Y-95250000D02*
X148590000Y-92837000D01*
X146177000Y-99568000D02*
X146177000Y-95250000D01*
%TO.N,CS*%
X150540000Y-89535000D02*
X151192502Y-89535000D01*
X161163001Y-78739999D02*
X161163001Y-80644999D01*
X161925000Y-77978000D02*
X161163001Y-78739999D01*
X152273000Y-89535000D02*
X150540000Y-89535000D01*
X161163001Y-80644999D02*
X152273000Y-89535000D01*
D27*
%TO.N,Net-(J7-Pad1)*%
X185637500Y-127508000D02*
X188722000Y-127508000D01*
%TD*%
D29*
%TO.N,GND*%
G36*
X197756739Y-71745068D02*
G01*
X198641156Y-71957398D01*
X199481461Y-72305464D01*
X200256979Y-72780703D01*
X200948598Y-73371402D01*
X201539301Y-74063025D01*
X202014535Y-74838538D01*
X202362603Y-75678847D01*
X202574932Y-76563260D01*
X202648001Y-77491697D01*
X202648000Y-143488316D01*
X202574932Y-144416740D01*
X202362603Y-145301153D01*
X202014535Y-146141462D01*
X201539301Y-146916975D01*
X200948598Y-147608598D01*
X200256979Y-148199297D01*
X199481461Y-148674536D01*
X198641156Y-149022602D01*
X197756739Y-149234932D01*
X196828317Y-149308000D01*
X90191684Y-149308000D01*
X89263260Y-149234932D01*
X88378847Y-149022603D01*
X87538538Y-148674535D01*
X86763025Y-148199301D01*
X86071402Y-147608598D01*
X85480703Y-146916979D01*
X85005464Y-146141461D01*
X84657398Y-145301156D01*
X84445068Y-144416739D01*
X84372000Y-143488317D01*
X84372000Y-143014884D01*
X85143000Y-143014884D01*
X85143000Y-144005116D01*
X85336184Y-144976322D01*
X85715130Y-145891178D01*
X86265274Y-146714526D01*
X86965474Y-147414726D01*
X87788822Y-147964870D01*
X88703678Y-148343816D01*
X89674884Y-148537000D01*
X90665116Y-148537000D01*
X91636322Y-148343816D01*
X92551178Y-147964870D01*
X93374526Y-147414726D01*
X94074726Y-146714526D01*
X94624870Y-145891178D01*
X95003816Y-144976322D01*
X95110894Y-144438000D01*
X150766451Y-144438000D01*
X150766451Y-146138000D01*
X150776626Y-146241310D01*
X150806761Y-146340650D01*
X150855696Y-146432202D01*
X150921552Y-146512448D01*
X151001798Y-146578304D01*
X151093350Y-146627239D01*
X151192690Y-146657374D01*
X151296000Y-146667549D01*
X152996000Y-146667549D01*
X153099310Y-146657374D01*
X153198650Y-146627239D01*
X153290202Y-146578304D01*
X153370448Y-146512448D01*
X153436304Y-146432202D01*
X153485239Y-146340650D01*
X153515374Y-146241310D01*
X153525549Y-146138000D01*
X153525549Y-144438000D01*
X153515374Y-144334690D01*
X153485239Y-144235350D01*
X153436304Y-144143798D01*
X153370448Y-144063552D01*
X153290202Y-143997696D01*
X153198650Y-143948761D01*
X153099310Y-143918626D01*
X152996000Y-143908451D01*
X151296000Y-143908451D01*
X151192690Y-143918626D01*
X151093350Y-143948761D01*
X151001798Y-143997696D01*
X150921552Y-144063552D01*
X150855696Y-144143798D01*
X150806761Y-144235350D01*
X150776626Y-144334690D01*
X150766451Y-144438000D01*
X95110894Y-144438000D01*
X95197000Y-144005116D01*
X95197000Y-143014884D01*
X95003816Y-142043678D01*
X94624870Y-141128822D01*
X94074726Y-140305474D01*
X93374526Y-139605274D01*
X92624318Y-139104000D01*
X95140451Y-139104000D01*
X95140451Y-140804000D01*
X95150626Y-140907310D01*
X95180761Y-141006650D01*
X95229696Y-141098202D01*
X95295552Y-141178448D01*
X95375798Y-141244304D01*
X95467350Y-141293239D01*
X95566690Y-141323374D01*
X95670000Y-141333549D01*
X97370000Y-141333549D01*
X97473310Y-141323374D01*
X97572650Y-141293239D01*
X97664202Y-141244304D01*
X97744448Y-141178448D01*
X97810304Y-141098202D01*
X97859239Y-141006650D01*
X97889374Y-140907310D01*
X97899549Y-140804000D01*
X97899549Y-139104000D01*
X97889374Y-139000690D01*
X97859239Y-138901350D01*
X97810304Y-138809798D01*
X97744448Y-138729552D01*
X97664202Y-138663696D01*
X97572650Y-138614761D01*
X97473310Y-138584626D01*
X97370000Y-138574451D01*
X95670000Y-138574451D01*
X95566690Y-138584626D01*
X95467350Y-138614761D01*
X95375798Y-138663696D01*
X95295552Y-138729552D01*
X95229696Y-138809798D01*
X95180761Y-138901350D01*
X95150626Y-139000690D01*
X95140451Y-139104000D01*
X92624318Y-139104000D01*
X92551178Y-139055130D01*
X91636322Y-138676184D01*
X90665116Y-138483000D01*
X89674884Y-138483000D01*
X88703678Y-138676184D01*
X87788822Y-139055130D01*
X86965474Y-139605274D01*
X86265274Y-140305474D01*
X85715130Y-141128822D01*
X85336184Y-142043678D01*
X85143000Y-143014884D01*
X84372000Y-143014884D01*
X84372000Y-138379302D01*
X101289000Y-138379302D01*
X101289000Y-138640698D01*
X101339996Y-138897072D01*
X101440028Y-139138570D01*
X101585252Y-139355913D01*
X101770087Y-139540748D01*
X101987430Y-139685972D01*
X102228928Y-139786004D01*
X102485302Y-139837000D01*
X102746698Y-139837000D01*
X103003072Y-139786004D01*
X103244570Y-139685972D01*
X103461913Y-139540748D01*
X103646748Y-139355913D01*
X103791972Y-139138570D01*
X103892004Y-138897072D01*
X103943000Y-138640698D01*
X103943000Y-138379302D01*
X110179000Y-138379302D01*
X110179000Y-138640698D01*
X110229996Y-138897072D01*
X110330028Y-139138570D01*
X110475252Y-139355913D01*
X110660087Y-139540748D01*
X110877430Y-139685972D01*
X111118928Y-139786004D01*
X111375302Y-139837000D01*
X111636698Y-139837000D01*
X111893072Y-139786004D01*
X112134570Y-139685972D01*
X112351913Y-139540748D01*
X112536748Y-139355913D01*
X112681972Y-139138570D01*
X112782004Y-138897072D01*
X112833000Y-138640698D01*
X112833000Y-138379302D01*
X119069000Y-138379302D01*
X119069000Y-138640698D01*
X119119996Y-138897072D01*
X119220028Y-139138570D01*
X119365252Y-139355913D01*
X119550087Y-139540748D01*
X119767430Y-139685972D01*
X120008928Y-139786004D01*
X120265302Y-139837000D01*
X120526698Y-139837000D01*
X120783072Y-139786004D01*
X120932762Y-139724000D01*
X125732451Y-139724000D01*
X125732451Y-142724000D01*
X125742626Y-142827310D01*
X125772761Y-142926650D01*
X125821696Y-143018202D01*
X125887552Y-143098448D01*
X125967798Y-143164304D01*
X126059350Y-143213239D01*
X126158690Y-143243374D01*
X126262000Y-143253549D01*
X129262000Y-143253549D01*
X129365310Y-143243374D01*
X129464650Y-143213239D01*
X129556202Y-143164304D01*
X129636448Y-143098448D01*
X129702304Y-143018202D01*
X129704077Y-143014884D01*
X191823000Y-143014884D01*
X191823000Y-144005116D01*
X192016184Y-144976322D01*
X192395130Y-145891178D01*
X192945274Y-146714526D01*
X193645474Y-147414726D01*
X194468822Y-147964870D01*
X195383678Y-148343816D01*
X196354884Y-148537000D01*
X197345116Y-148537000D01*
X198316322Y-148343816D01*
X199231178Y-147964870D01*
X200054526Y-147414726D01*
X200754726Y-146714526D01*
X201304870Y-145891178D01*
X201683816Y-144976322D01*
X201877000Y-144005116D01*
X201877000Y-143014884D01*
X201683816Y-142043678D01*
X201304870Y-141128822D01*
X200754726Y-140305474D01*
X200054526Y-139605274D01*
X199231178Y-139055130D01*
X198316322Y-138676184D01*
X197345116Y-138483000D01*
X196354884Y-138483000D01*
X195383678Y-138676184D01*
X194468822Y-139055130D01*
X193645474Y-139605274D01*
X192945274Y-140305474D01*
X192395130Y-141128822D01*
X192016184Y-142043678D01*
X191823000Y-143014884D01*
X129704077Y-143014884D01*
X129751239Y-142926650D01*
X129781374Y-142827310D01*
X129791549Y-142724000D01*
X129791549Y-139724000D01*
X129781374Y-139620690D01*
X129751239Y-139521350D01*
X129702304Y-139429798D01*
X129636448Y-139349552D01*
X129556202Y-139283696D01*
X129464650Y-139234761D01*
X129365310Y-139204626D01*
X129262000Y-139194451D01*
X126262000Y-139194451D01*
X126158690Y-139204626D01*
X126059350Y-139234761D01*
X125967798Y-139283696D01*
X125887552Y-139349552D01*
X125821696Y-139429798D01*
X125772761Y-139521350D01*
X125742626Y-139620690D01*
X125732451Y-139724000D01*
X120932762Y-139724000D01*
X121024570Y-139685972D01*
X121241913Y-139540748D01*
X121426748Y-139355913D01*
X121571972Y-139138570D01*
X121672004Y-138897072D01*
X121723000Y-138640698D01*
X121723000Y-138379302D01*
X121672004Y-138122928D01*
X121571972Y-137881430D01*
X121426748Y-137664087D01*
X121241913Y-137479252D01*
X121024570Y-137334028D01*
X120783072Y-137233996D01*
X120526698Y-137183000D01*
X120265302Y-137183000D01*
X120008928Y-137233996D01*
X119767430Y-137334028D01*
X119550087Y-137479252D01*
X119365252Y-137664087D01*
X119220028Y-137881430D01*
X119119996Y-138122928D01*
X119069000Y-138379302D01*
X112833000Y-138379302D01*
X112782004Y-138122928D01*
X112681972Y-137881430D01*
X112536748Y-137664087D01*
X112351913Y-137479252D01*
X112134570Y-137334028D01*
X111893072Y-137233996D01*
X111636698Y-137183000D01*
X111375302Y-137183000D01*
X111118928Y-137233996D01*
X110877430Y-137334028D01*
X110660087Y-137479252D01*
X110475252Y-137664087D01*
X110330028Y-137881430D01*
X110229996Y-138122928D01*
X110179000Y-138379302D01*
X103943000Y-138379302D01*
X103892004Y-138122928D01*
X103791972Y-137881430D01*
X103646748Y-137664087D01*
X103461913Y-137479252D01*
X103244570Y-137334028D01*
X103003072Y-137233996D01*
X102746698Y-137183000D01*
X102485302Y-137183000D01*
X102228928Y-137233996D01*
X101987430Y-137334028D01*
X101770087Y-137479252D01*
X101585252Y-137664087D01*
X101440028Y-137881430D01*
X101339996Y-138122928D01*
X101289000Y-138379302D01*
X84372000Y-138379302D01*
X84372000Y-136271045D01*
X142856000Y-136271045D01*
X142856000Y-136524955D01*
X142905535Y-136773987D01*
X143002703Y-137008570D01*
X143143768Y-137219690D01*
X143323310Y-137399232D01*
X143534430Y-137540297D01*
X143769013Y-137637465D01*
X143922524Y-137668000D01*
X143769013Y-137698535D01*
X143534430Y-137795703D01*
X143323310Y-137936768D01*
X143143768Y-138116310D01*
X143002703Y-138327430D01*
X142905535Y-138562013D01*
X142856000Y-138811045D01*
X142856000Y-139064955D01*
X142905535Y-139313987D01*
X143002703Y-139548570D01*
X143143768Y-139759690D01*
X143323310Y-139939232D01*
X143534430Y-140080297D01*
X143769013Y-140177465D01*
X144018045Y-140227000D01*
X144271955Y-140227000D01*
X144520987Y-140177465D01*
X144755570Y-140080297D01*
X144966690Y-139939232D01*
X145146232Y-139759690D01*
X145287297Y-139548570D01*
X145384465Y-139313987D01*
X145415000Y-139160476D01*
X145445535Y-139313987D01*
X145542703Y-139548570D01*
X145683768Y-139759690D01*
X145863310Y-139939232D01*
X146074430Y-140080297D01*
X146309013Y-140177465D01*
X146558045Y-140227000D01*
X146811955Y-140227000D01*
X147060987Y-140177465D01*
X147295570Y-140080297D01*
X147506690Y-139939232D01*
X147686232Y-139759690D01*
X147827297Y-139548570D01*
X147924465Y-139313987D01*
X147955000Y-139160476D01*
X147985535Y-139313987D01*
X148082703Y-139548570D01*
X148223768Y-139759690D01*
X148403310Y-139939232D01*
X148614430Y-140080297D01*
X148849013Y-140177465D01*
X149098045Y-140227000D01*
X149351955Y-140227000D01*
X149600987Y-140177465D01*
X149835570Y-140080297D01*
X150046690Y-139939232D01*
X150226232Y-139759690D01*
X150367297Y-139548570D01*
X150464465Y-139313987D01*
X150495000Y-139160476D01*
X150525535Y-139313987D01*
X150622703Y-139548570D01*
X150763768Y-139759690D01*
X150943310Y-139939232D01*
X151154430Y-140080297D01*
X151389013Y-140177465D01*
X151638045Y-140227000D01*
X151891955Y-140227000D01*
X152140987Y-140177465D01*
X152375570Y-140080297D01*
X152586690Y-139939232D01*
X152766232Y-139759690D01*
X152907297Y-139548570D01*
X153004465Y-139313987D01*
X153035000Y-139160476D01*
X153065535Y-139313987D01*
X153162703Y-139548570D01*
X153303768Y-139759690D01*
X153483310Y-139939232D01*
X153694430Y-140080297D01*
X153929013Y-140177465D01*
X154178045Y-140227000D01*
X154431955Y-140227000D01*
X154680987Y-140177465D01*
X154915570Y-140080297D01*
X155126690Y-139939232D01*
X155306232Y-139759690D01*
X155447297Y-139548570D01*
X155544465Y-139313987D01*
X155575000Y-139160476D01*
X155605535Y-139313987D01*
X155702703Y-139548570D01*
X155843768Y-139759690D01*
X156023310Y-139939232D01*
X156234430Y-140080297D01*
X156469013Y-140177465D01*
X156718045Y-140227000D01*
X156971955Y-140227000D01*
X157220987Y-140177465D01*
X157455570Y-140080297D01*
X157666690Y-139939232D01*
X157846232Y-139759690D01*
X157987297Y-139548570D01*
X158084465Y-139313987D01*
X158115000Y-139160476D01*
X158145535Y-139313987D01*
X158242703Y-139548570D01*
X158383768Y-139759690D01*
X158563310Y-139939232D01*
X158774430Y-140080297D01*
X159009013Y-140177465D01*
X159258045Y-140227000D01*
X159511955Y-140227000D01*
X159760987Y-140177465D01*
X159995570Y-140080297D01*
X160206690Y-139939232D01*
X160386232Y-139759690D01*
X160527297Y-139548570D01*
X160624465Y-139313987D01*
X160655000Y-139160476D01*
X160685535Y-139313987D01*
X160782703Y-139548570D01*
X160923768Y-139759690D01*
X161103310Y-139939232D01*
X161314430Y-140080297D01*
X161549013Y-140177465D01*
X161798045Y-140227000D01*
X162051955Y-140227000D01*
X162300987Y-140177465D01*
X162535570Y-140080297D01*
X162746690Y-139939232D01*
X162926232Y-139759690D01*
X163067297Y-139548570D01*
X163164465Y-139313987D01*
X163195000Y-139160476D01*
X163225535Y-139313987D01*
X163322703Y-139548570D01*
X163463768Y-139759690D01*
X163643310Y-139939232D01*
X163854430Y-140080297D01*
X164089013Y-140177465D01*
X164338045Y-140227000D01*
X164591955Y-140227000D01*
X164840987Y-140177465D01*
X165075570Y-140080297D01*
X165286690Y-139939232D01*
X165466232Y-139759690D01*
X165607297Y-139548570D01*
X165704465Y-139313987D01*
X165754000Y-139064955D01*
X165754000Y-138811045D01*
X165704465Y-138562013D01*
X165607297Y-138327430D01*
X165466232Y-138116310D01*
X165286690Y-137936768D01*
X165075570Y-137795703D01*
X164840987Y-137698535D01*
X164687476Y-137668000D01*
X164840987Y-137637465D01*
X165075570Y-137540297D01*
X165286690Y-137399232D01*
X165466232Y-137219690D01*
X165607297Y-137008570D01*
X165704465Y-136773987D01*
X165754000Y-136524955D01*
X165754000Y-136271045D01*
X165704465Y-136022013D01*
X165607297Y-135787430D01*
X165466232Y-135576310D01*
X165286690Y-135396768D01*
X165075570Y-135255703D01*
X164840987Y-135158535D01*
X164591955Y-135109000D01*
X164338045Y-135109000D01*
X164089013Y-135158535D01*
X163854430Y-135255703D01*
X163643310Y-135396768D01*
X163463768Y-135576310D01*
X163322703Y-135787430D01*
X163225535Y-136022013D01*
X163195000Y-136175524D01*
X163164465Y-136022013D01*
X163067297Y-135787430D01*
X162926232Y-135576310D01*
X162746690Y-135396768D01*
X162535570Y-135255703D01*
X162300987Y-135158535D01*
X162051955Y-135109000D01*
X161798045Y-135109000D01*
X161549013Y-135158535D01*
X161314430Y-135255703D01*
X161103310Y-135396768D01*
X160923768Y-135576310D01*
X160782703Y-135787430D01*
X160685535Y-136022013D01*
X160655000Y-136175524D01*
X160624465Y-136022013D01*
X160527297Y-135787430D01*
X160386232Y-135576310D01*
X160206690Y-135396768D01*
X159995570Y-135255703D01*
X159760987Y-135158535D01*
X159511955Y-135109000D01*
X159258045Y-135109000D01*
X159009013Y-135158535D01*
X158774430Y-135255703D01*
X158563310Y-135396768D01*
X158383768Y-135576310D01*
X158242703Y-135787430D01*
X158145535Y-136022013D01*
X158115000Y-136175524D01*
X158084465Y-136022013D01*
X157987297Y-135787430D01*
X157846232Y-135576310D01*
X157666690Y-135396768D01*
X157455570Y-135255703D01*
X157220987Y-135158535D01*
X156971955Y-135109000D01*
X156718045Y-135109000D01*
X156469013Y-135158535D01*
X156234430Y-135255703D01*
X156023310Y-135396768D01*
X155843768Y-135576310D01*
X155702703Y-135787430D01*
X155605535Y-136022013D01*
X155575000Y-136175524D01*
X155544465Y-136022013D01*
X155447297Y-135787430D01*
X155306232Y-135576310D01*
X155126690Y-135396768D01*
X154915570Y-135255703D01*
X154680987Y-135158535D01*
X154431955Y-135109000D01*
X154178045Y-135109000D01*
X153929013Y-135158535D01*
X153694430Y-135255703D01*
X153483310Y-135396768D01*
X153303768Y-135576310D01*
X153162703Y-135787430D01*
X153065535Y-136022013D01*
X153016000Y-136271045D01*
X153016000Y-136524955D01*
X153065535Y-136773987D01*
X153162703Y-137008570D01*
X153303768Y-137219690D01*
X153483310Y-137399232D01*
X153694430Y-137540297D01*
X153929013Y-137637465D01*
X154082524Y-137668000D01*
X153929013Y-137698535D01*
X153694430Y-137795703D01*
X153483310Y-137936768D01*
X153303768Y-138116310D01*
X153162703Y-138327430D01*
X153065535Y-138562013D01*
X153035000Y-138715524D01*
X153004465Y-138562013D01*
X152907297Y-138327430D01*
X152766232Y-138116310D01*
X152586690Y-137936768D01*
X152375570Y-137795703D01*
X152140987Y-137698535D01*
X151891955Y-137649000D01*
X151638045Y-137649000D01*
X151389013Y-137698535D01*
X151154430Y-137795703D01*
X150943310Y-137936768D01*
X150763768Y-138116310D01*
X150622703Y-138327430D01*
X150525535Y-138562013D01*
X150495000Y-138715524D01*
X150464465Y-138562013D01*
X150367297Y-138327430D01*
X150226232Y-138116310D01*
X150046690Y-137936768D01*
X149835570Y-137795703D01*
X149600987Y-137698535D01*
X149447476Y-137668000D01*
X149600987Y-137637465D01*
X149835570Y-137540297D01*
X150046690Y-137399232D01*
X150226232Y-137219690D01*
X150367297Y-137008570D01*
X150464465Y-136773987D01*
X150514000Y-136524955D01*
X150514000Y-136271045D01*
X150464465Y-136022013D01*
X150367297Y-135787430D01*
X150226232Y-135576310D01*
X150046690Y-135396768D01*
X149835570Y-135255703D01*
X149600987Y-135158535D01*
X149351955Y-135109000D01*
X149098045Y-135109000D01*
X148849013Y-135158535D01*
X148614430Y-135255703D01*
X148403310Y-135396768D01*
X148223768Y-135576310D01*
X148082703Y-135787430D01*
X147985535Y-136022013D01*
X147955000Y-136175524D01*
X147924465Y-136022013D01*
X147827297Y-135787430D01*
X147686232Y-135576310D01*
X147506690Y-135396768D01*
X147295570Y-135255703D01*
X147060987Y-135158535D01*
X146811955Y-135109000D01*
X146558045Y-135109000D01*
X146309013Y-135158535D01*
X146074430Y-135255703D01*
X145863310Y-135396768D01*
X145683768Y-135576310D01*
X145542703Y-135787430D01*
X145445535Y-136022013D01*
X145415000Y-136175524D01*
X145384465Y-136022013D01*
X145287297Y-135787430D01*
X145146232Y-135576310D01*
X144966690Y-135396768D01*
X144755570Y-135255703D01*
X144520987Y-135158535D01*
X144271955Y-135109000D01*
X144018045Y-135109000D01*
X143769013Y-135158535D01*
X143534430Y-135255703D01*
X143323310Y-135396768D01*
X143143768Y-135576310D01*
X143002703Y-135787430D01*
X142905535Y-136022013D01*
X142856000Y-136271045D01*
X84372000Y-136271045D01*
X84372000Y-134045279D01*
X89006800Y-134045279D01*
X89006800Y-134355921D01*
X89067404Y-134660594D01*
X89186281Y-134947589D01*
X89358864Y-135205879D01*
X89578521Y-135425536D01*
X89836811Y-135598119D01*
X90123806Y-135716996D01*
X90428479Y-135777600D01*
X90739121Y-135777600D01*
X91043794Y-135716996D01*
X91330789Y-135598119D01*
X91589079Y-135425536D01*
X91808736Y-135205879D01*
X91981319Y-134947589D01*
X92100196Y-134660594D01*
X92160800Y-134355921D01*
X92160800Y-134045279D01*
X92100196Y-133740606D01*
X91981319Y-133453611D01*
X91808736Y-133195321D01*
X91589079Y-132975664D01*
X91330789Y-132803081D01*
X91043794Y-132684204D01*
X90739121Y-132623600D01*
X90428479Y-132623600D01*
X90123806Y-132684204D01*
X89836811Y-132803081D01*
X89578521Y-132975664D01*
X89358864Y-133195321D01*
X89186281Y-133453611D01*
X89067404Y-133740606D01*
X89006800Y-134045279D01*
X84372000Y-134045279D01*
X84372000Y-117815279D01*
X89006800Y-117815279D01*
X89006800Y-118125921D01*
X89067404Y-118430594D01*
X89186281Y-118717589D01*
X89358864Y-118975879D01*
X89578521Y-119195536D01*
X89836811Y-119368119D01*
X90123806Y-119486996D01*
X90428479Y-119547600D01*
X90739121Y-119547600D01*
X91043794Y-119486996D01*
X91330789Y-119368119D01*
X91589079Y-119195536D01*
X91808736Y-118975879D01*
X91981319Y-118717589D01*
X92100196Y-118430594D01*
X92160800Y-118125921D01*
X92160800Y-117815279D01*
X92100196Y-117510606D01*
X91981319Y-117223611D01*
X91808736Y-116965321D01*
X91589079Y-116745664D01*
X91330789Y-116573081D01*
X91043794Y-116454204D01*
X90739121Y-116393600D01*
X90428479Y-116393600D01*
X90123806Y-116454204D01*
X89836811Y-116573081D01*
X89578521Y-116745664D01*
X89358864Y-116965321D01*
X89186281Y-117223611D01*
X89067404Y-117510606D01*
X89006800Y-117815279D01*
X84372000Y-117815279D01*
X84372000Y-113958000D01*
X89158751Y-113958000D01*
X89158751Y-115658000D01*
X89168926Y-115761310D01*
X89199061Y-115860650D01*
X89247996Y-115952202D01*
X89313852Y-116032448D01*
X89394098Y-116098304D01*
X89485650Y-116147239D01*
X89584990Y-116177374D01*
X89688300Y-116187549D01*
X91388300Y-116187549D01*
X91491610Y-116177374D01*
X91590950Y-116147239D01*
X91682502Y-116098304D01*
X91762748Y-116032448D01*
X91828604Y-115952202D01*
X91877539Y-115860650D01*
X91907674Y-115761310D01*
X91917849Y-115658000D01*
X91917849Y-113958000D01*
X91907674Y-113854690D01*
X91877539Y-113755350D01*
X91828604Y-113663798D01*
X91762748Y-113583552D01*
X91682502Y-113517696D01*
X91590950Y-113468761D01*
X91491610Y-113438626D01*
X91388300Y-113428451D01*
X89688300Y-113428451D01*
X89584990Y-113438626D01*
X89485650Y-113468761D01*
X89394098Y-113517696D01*
X89313852Y-113583552D01*
X89247996Y-113663798D01*
X89199061Y-113755350D01*
X89168926Y-113854690D01*
X89158751Y-113958000D01*
X84372000Y-113958000D01*
X84372000Y-105918000D01*
X97774032Y-105918000D01*
X97779001Y-105968451D01*
X97779000Y-120853559D01*
X97774032Y-120904000D01*
X97779000Y-120954441D01*
X97779000Y-120954450D01*
X97793860Y-121105326D01*
X97852585Y-121298916D01*
X97947949Y-121477331D01*
X98076288Y-121633712D01*
X98115481Y-121665877D01*
X108204132Y-131754530D01*
X108236288Y-131793712D01*
X108275470Y-131825868D01*
X108275475Y-131825873D01*
X108374100Y-131906812D01*
X108392669Y-131922051D01*
X108571083Y-132017415D01*
X108705947Y-132058326D01*
X108764672Y-132076140D01*
X108782831Y-132077928D01*
X108915549Y-132091000D01*
X108915556Y-132091000D01*
X108966000Y-132095968D01*
X109016443Y-132091000D01*
X177563234Y-132091000D01*
X181165572Y-135693339D01*
X181102703Y-135787430D01*
X181005535Y-136022013D01*
X180975000Y-136175524D01*
X180944465Y-136022013D01*
X180847297Y-135787430D01*
X180706232Y-135576310D01*
X180526690Y-135396768D01*
X180315570Y-135255703D01*
X180080987Y-135158535D01*
X179831955Y-135109000D01*
X179578045Y-135109000D01*
X179329013Y-135158535D01*
X179094430Y-135255703D01*
X178883310Y-135396768D01*
X178703768Y-135576310D01*
X178562703Y-135787430D01*
X178465535Y-136022013D01*
X178435000Y-136175524D01*
X178404465Y-136022013D01*
X178307297Y-135787430D01*
X178166232Y-135576310D01*
X177986690Y-135396768D01*
X177775570Y-135255703D01*
X177540987Y-135158535D01*
X177291955Y-135109000D01*
X177038045Y-135109000D01*
X176789013Y-135158535D01*
X176554430Y-135255703D01*
X176343310Y-135396768D01*
X176163768Y-135576310D01*
X176022703Y-135787430D01*
X175925535Y-136022013D01*
X175895000Y-136175524D01*
X175864465Y-136022013D01*
X175767297Y-135787430D01*
X175626232Y-135576310D01*
X175446690Y-135396768D01*
X175235570Y-135255703D01*
X175000987Y-135158535D01*
X174751955Y-135109000D01*
X174498045Y-135109000D01*
X174249013Y-135158535D01*
X174014430Y-135255703D01*
X173803310Y-135396768D01*
X173623768Y-135576310D01*
X173482703Y-135787430D01*
X173385535Y-136022013D01*
X173355000Y-136175524D01*
X173324465Y-136022013D01*
X173227297Y-135787430D01*
X173086232Y-135576310D01*
X172906690Y-135396768D01*
X172695570Y-135255703D01*
X172460987Y-135158535D01*
X172211955Y-135109000D01*
X171958045Y-135109000D01*
X171709013Y-135158535D01*
X171474430Y-135255703D01*
X171263310Y-135396768D01*
X171083768Y-135576310D01*
X170942703Y-135787430D01*
X170845535Y-136022013D01*
X170796000Y-136271045D01*
X170796000Y-136524955D01*
X170845535Y-136773987D01*
X170942703Y-137008570D01*
X171083768Y-137219690D01*
X171263310Y-137399232D01*
X171474430Y-137540297D01*
X171709013Y-137637465D01*
X171862524Y-137668000D01*
X171709013Y-137698535D01*
X171474430Y-137795703D01*
X171263310Y-137936768D01*
X171083768Y-138116310D01*
X170942703Y-138327430D01*
X170845535Y-138562013D01*
X170815000Y-138715524D01*
X170784465Y-138562013D01*
X170687297Y-138327430D01*
X170546232Y-138116310D01*
X170366690Y-137936768D01*
X170155570Y-137795703D01*
X169920987Y-137698535D01*
X169671955Y-137649000D01*
X169418045Y-137649000D01*
X169169013Y-137698535D01*
X168934430Y-137795703D01*
X168723310Y-137936768D01*
X168543768Y-138116310D01*
X168402703Y-138327430D01*
X168305535Y-138562013D01*
X168256000Y-138811045D01*
X168256000Y-139064955D01*
X168305535Y-139313987D01*
X168402703Y-139548570D01*
X168543768Y-139759690D01*
X168723310Y-139939232D01*
X168934430Y-140080297D01*
X169169013Y-140177465D01*
X169418045Y-140227000D01*
X169671955Y-140227000D01*
X169920987Y-140177465D01*
X170155570Y-140080297D01*
X170366690Y-139939232D01*
X170546232Y-139759690D01*
X170687297Y-139548570D01*
X170784465Y-139313987D01*
X170815000Y-139160476D01*
X170845535Y-139313987D01*
X170942703Y-139548570D01*
X171083768Y-139759690D01*
X171263310Y-139939232D01*
X171474430Y-140080297D01*
X171709013Y-140177465D01*
X171958045Y-140227000D01*
X172211955Y-140227000D01*
X172460987Y-140177465D01*
X172695570Y-140080297D01*
X172906690Y-139939232D01*
X173086232Y-139759690D01*
X173227297Y-139548570D01*
X173324465Y-139313987D01*
X173355000Y-139160476D01*
X173385535Y-139313987D01*
X173482703Y-139548570D01*
X173623768Y-139759690D01*
X173803310Y-139939232D01*
X174014430Y-140080297D01*
X174249013Y-140177465D01*
X174498045Y-140227000D01*
X174751955Y-140227000D01*
X175000987Y-140177465D01*
X175235570Y-140080297D01*
X175446690Y-139939232D01*
X175626232Y-139759690D01*
X175767297Y-139548570D01*
X175864465Y-139313987D01*
X175895000Y-139160476D01*
X175925535Y-139313987D01*
X176022703Y-139548570D01*
X176163768Y-139759690D01*
X176343310Y-139939232D01*
X176554430Y-140080297D01*
X176789013Y-140177465D01*
X177038045Y-140227000D01*
X177291955Y-140227000D01*
X177540987Y-140177465D01*
X177775570Y-140080297D01*
X177986690Y-139939232D01*
X178166232Y-139759690D01*
X178307297Y-139548570D01*
X178404465Y-139313987D01*
X178435000Y-139160476D01*
X178465535Y-139313987D01*
X178562703Y-139548570D01*
X178703768Y-139759690D01*
X178883310Y-139939232D01*
X179094430Y-140080297D01*
X179329013Y-140177465D01*
X179578045Y-140227000D01*
X179831955Y-140227000D01*
X180080987Y-140177465D01*
X180315570Y-140080297D01*
X180526690Y-139939232D01*
X180706232Y-139759690D01*
X180847297Y-139548570D01*
X180944465Y-139313987D01*
X180975000Y-139160476D01*
X181005535Y-139313987D01*
X181102703Y-139548570D01*
X181243768Y-139759690D01*
X181423310Y-139939232D01*
X181634430Y-140080297D01*
X181869013Y-140177465D01*
X182118045Y-140227000D01*
X182371955Y-140227000D01*
X182620987Y-140177465D01*
X182855570Y-140080297D01*
X183066690Y-139939232D01*
X183246232Y-139759690D01*
X183387297Y-139548570D01*
X183484465Y-139313987D01*
X183515000Y-139160476D01*
X183545535Y-139313987D01*
X183642703Y-139548570D01*
X183783768Y-139759690D01*
X183963310Y-139939232D01*
X184174430Y-140080297D01*
X184409013Y-140177465D01*
X184658045Y-140227000D01*
X184911955Y-140227000D01*
X185160987Y-140177465D01*
X185395570Y-140080297D01*
X185606690Y-139939232D01*
X185786232Y-139759690D01*
X185927297Y-139548570D01*
X186024465Y-139313987D01*
X186055000Y-139160476D01*
X186085535Y-139313987D01*
X186182703Y-139548570D01*
X186323768Y-139759690D01*
X186503310Y-139939232D01*
X186714430Y-140080297D01*
X186949013Y-140177465D01*
X187198045Y-140227000D01*
X187451955Y-140227000D01*
X187700987Y-140177465D01*
X187935570Y-140080297D01*
X188146690Y-139939232D01*
X188326232Y-139759690D01*
X188467297Y-139548570D01*
X188564465Y-139313987D01*
X188595000Y-139160476D01*
X188625535Y-139313987D01*
X188722703Y-139548570D01*
X188863768Y-139759690D01*
X189043310Y-139939232D01*
X189254430Y-140080297D01*
X189489013Y-140177465D01*
X189738045Y-140227000D01*
X189991955Y-140227000D01*
X190240987Y-140177465D01*
X190475570Y-140080297D01*
X190686690Y-139939232D01*
X190866232Y-139759690D01*
X191007297Y-139548570D01*
X191104465Y-139313987D01*
X191154000Y-139064955D01*
X191154000Y-138811045D01*
X191104465Y-138562013D01*
X191007297Y-138327430D01*
X190866232Y-138116310D01*
X190686690Y-137936768D01*
X190475570Y-137795703D01*
X190240987Y-137698535D01*
X190087476Y-137668000D01*
X190240987Y-137637465D01*
X190475570Y-137540297D01*
X190686690Y-137399232D01*
X190866232Y-137219690D01*
X191007297Y-137008570D01*
X191104465Y-136773987D01*
X191154000Y-136524955D01*
X191154000Y-136271045D01*
X191104465Y-136022013D01*
X191007297Y-135787430D01*
X190866232Y-135576310D01*
X190686690Y-135396768D01*
X190475570Y-135255703D01*
X190240987Y-135158535D01*
X189991955Y-135109000D01*
X189738045Y-135109000D01*
X189489013Y-135158535D01*
X189254430Y-135255703D01*
X189043310Y-135396768D01*
X188863768Y-135576310D01*
X188722703Y-135787430D01*
X188625535Y-136022013D01*
X188595000Y-136175524D01*
X188564465Y-136022013D01*
X188467297Y-135787430D01*
X188326232Y-135576310D01*
X188146690Y-135396768D01*
X187935570Y-135255703D01*
X187700987Y-135158535D01*
X187451955Y-135109000D01*
X187198045Y-135109000D01*
X186949013Y-135158535D01*
X186714430Y-135255703D01*
X186503310Y-135396768D01*
X186323768Y-135576310D01*
X186182703Y-135787430D01*
X186085535Y-136022013D01*
X186055000Y-136175524D01*
X186024465Y-136022013D01*
X185927297Y-135787430D01*
X185786232Y-135576310D01*
X185606690Y-135396768D01*
X185395570Y-135255703D01*
X185160987Y-135158535D01*
X184911955Y-135109000D01*
X184658045Y-135109000D01*
X184409013Y-135158535D01*
X184174430Y-135255703D01*
X183963310Y-135396768D01*
X183783768Y-135576310D01*
X183642703Y-135787430D01*
X183545535Y-136022013D01*
X183515000Y-136175524D01*
X183484465Y-136022013D01*
X183387297Y-135787430D01*
X183272000Y-135614875D01*
X183272000Y-135370810D01*
X183276968Y-135320369D01*
X183272000Y-135269928D01*
X183272000Y-135269919D01*
X183257140Y-135119043D01*
X183198415Y-134925453D01*
X183103051Y-134747039D01*
X182974712Y-134590658D01*
X182935525Y-134558498D01*
X178750507Y-130373481D01*
X178718342Y-130334288D01*
X178561961Y-130205949D01*
X178383547Y-130110585D01*
X178189957Y-130051860D01*
X178039081Y-130037000D01*
X178039071Y-130037000D01*
X177988630Y-130032032D01*
X177938189Y-130037000D01*
X109391398Y-130037000D01*
X99833000Y-120478604D01*
X99833000Y-116154953D01*
X105289500Y-116154953D01*
X105289500Y-116436047D01*
X105344338Y-116711741D01*
X105451909Y-116971438D01*
X105608076Y-117205160D01*
X105806840Y-117403924D01*
X106040562Y-117560091D01*
X106300259Y-117667662D01*
X106311502Y-117669898D01*
X115062132Y-126420530D01*
X115094288Y-126459712D01*
X115133470Y-126491868D01*
X115133475Y-126491873D01*
X115232100Y-126572812D01*
X115250669Y-126588051D01*
X115429083Y-126683415D01*
X115563947Y-126724326D01*
X115622672Y-126742140D01*
X115640831Y-126743928D01*
X115773549Y-126757000D01*
X115773556Y-126757000D01*
X115824000Y-126761968D01*
X115874443Y-126757000D01*
X122706916Y-126757000D01*
X122788340Y-126838424D01*
X123022062Y-126994591D01*
X123281759Y-127102162D01*
X123557453Y-127157000D01*
X123838547Y-127157000D01*
X124114241Y-127102162D01*
X124373938Y-126994591D01*
X124607660Y-126838424D01*
X124689084Y-126757000D01*
X131342916Y-126757000D01*
X131424340Y-126838424D01*
X131658062Y-126994591D01*
X131917759Y-127102162D01*
X132193453Y-127157000D01*
X132474547Y-127157000D01*
X132750241Y-127102162D01*
X133009938Y-126994591D01*
X133243660Y-126838424D01*
X133325084Y-126757000D01*
X134569559Y-126757000D01*
X134620000Y-126761968D01*
X134670441Y-126757000D01*
X134670451Y-126757000D01*
X134821327Y-126742140D01*
X135014917Y-126683415D01*
X135193331Y-126588051D01*
X135349712Y-126459712D01*
X135381877Y-126420519D01*
X136677396Y-125125000D01*
X136792547Y-125125000D01*
X137068241Y-125070162D01*
X137327938Y-124962591D01*
X137561660Y-124806424D01*
X137760424Y-124607660D01*
X137916591Y-124373938D01*
X138024162Y-124114241D01*
X138079000Y-123838547D01*
X138079000Y-123723396D01*
X143780397Y-118022000D01*
X169943451Y-118022000D01*
X169943451Y-119722000D01*
X169953626Y-119825310D01*
X169983761Y-119924650D01*
X170032696Y-120016202D01*
X170098552Y-120096448D01*
X170178798Y-120162304D01*
X170270350Y-120211239D01*
X170369690Y-120241374D01*
X170473000Y-120251549D01*
X172173000Y-120251549D01*
X172276310Y-120241374D01*
X172375650Y-120211239D01*
X172467202Y-120162304D01*
X172547448Y-120096448D01*
X172613304Y-120016202D01*
X172662239Y-119924650D01*
X172692374Y-119825310D01*
X172702549Y-119722000D01*
X172702549Y-118022000D01*
X172692374Y-117918690D01*
X172662239Y-117819350D01*
X172613304Y-117727798D01*
X172547448Y-117647552D01*
X172467202Y-117581696D01*
X172375650Y-117532761D01*
X172276310Y-117502626D01*
X172173000Y-117492451D01*
X170473000Y-117492451D01*
X170369690Y-117502626D01*
X170270350Y-117532761D01*
X170178798Y-117581696D01*
X170098552Y-117647552D01*
X170032696Y-117727798D01*
X169983761Y-117819350D01*
X169953626Y-117918690D01*
X169943451Y-118022000D01*
X143780397Y-118022000D01*
X147237398Y-114565000D01*
X156488916Y-114565000D01*
X156570340Y-114646424D01*
X156804062Y-114802591D01*
X157063759Y-114910162D01*
X157339453Y-114965000D01*
X157620547Y-114965000D01*
X157896241Y-114910162D01*
X158155938Y-114802591D01*
X158389660Y-114646424D01*
X158471084Y-114565000D01*
X174326604Y-114565000D01*
X177800132Y-118038530D01*
X177832288Y-118077712D01*
X177871470Y-118109868D01*
X177871475Y-118109873D01*
X177970100Y-118190812D01*
X177988669Y-118206051D01*
X178167083Y-118301415D01*
X178301947Y-118342326D01*
X178360672Y-118360140D01*
X178378831Y-118361928D01*
X178511549Y-118375000D01*
X178511556Y-118375000D01*
X178562000Y-118379968D01*
X178612443Y-118375000D01*
X180994451Y-118375000D01*
X180994451Y-119248000D01*
X181004626Y-119351310D01*
X181034761Y-119450650D01*
X181083696Y-119542202D01*
X181149552Y-119622448D01*
X181229798Y-119688304D01*
X181321350Y-119737239D01*
X181420690Y-119767374D01*
X181524000Y-119777549D01*
X181562501Y-119777549D01*
X181562500Y-121267953D01*
X181478829Y-121369906D01*
X181406791Y-121504680D01*
X181362430Y-121650918D01*
X181347451Y-121803000D01*
X181347451Y-123053000D01*
X181362430Y-123205082D01*
X181406791Y-123351320D01*
X181478829Y-123486094D01*
X181562500Y-123588048D01*
X181562501Y-123807952D01*
X181478829Y-123909906D01*
X181406791Y-124044680D01*
X181362430Y-124190918D01*
X181347451Y-124343000D01*
X181347451Y-125593000D01*
X181362430Y-125745082D01*
X181406791Y-125891320D01*
X181478829Y-126026094D01*
X181562500Y-126128048D01*
X181562501Y-126436903D01*
X181551829Y-126449906D01*
X181479791Y-126584680D01*
X181435430Y-126730918D01*
X181420451Y-126883000D01*
X181420451Y-128133000D01*
X181435430Y-128285082D01*
X181479791Y-128431320D01*
X181551829Y-128566094D01*
X181648776Y-128684224D01*
X181766906Y-128781171D01*
X181901680Y-128853209D01*
X182047918Y-128897570D01*
X182200000Y-128912549D01*
X183125000Y-128912549D01*
X183277082Y-128897570D01*
X183423320Y-128853209D01*
X183558094Y-128781171D01*
X183676224Y-128684224D01*
X183773171Y-128566094D01*
X183845209Y-128431320D01*
X183889570Y-128285082D01*
X183904549Y-128133000D01*
X183904549Y-126883000D01*
X184395451Y-126883000D01*
X184395451Y-128133000D01*
X184410430Y-128285082D01*
X184454791Y-128431320D01*
X184526829Y-128566094D01*
X184623776Y-128684224D01*
X184741906Y-128781171D01*
X184876680Y-128853209D01*
X185022918Y-128897570D01*
X185175000Y-128912549D01*
X186100000Y-128912549D01*
X186252082Y-128897570D01*
X186398320Y-128853209D01*
X186533094Y-128781171D01*
X186651224Y-128684224D01*
X186748171Y-128566094D01*
X186764791Y-128535000D01*
X187374980Y-128535000D01*
X187382761Y-128560650D01*
X187431696Y-128652202D01*
X187497552Y-128732448D01*
X187577798Y-128798304D01*
X187669350Y-128847239D01*
X187768690Y-128877374D01*
X187872000Y-128887549D01*
X189572000Y-128887549D01*
X189675310Y-128877374D01*
X189774650Y-128847239D01*
X189866202Y-128798304D01*
X189946448Y-128732448D01*
X190012304Y-128652202D01*
X190061239Y-128560650D01*
X190091374Y-128461310D01*
X190101549Y-128358000D01*
X190101549Y-126658000D01*
X190091374Y-126554690D01*
X190061239Y-126455350D01*
X190012304Y-126363798D01*
X189946448Y-126283552D01*
X189866202Y-126217696D01*
X189774650Y-126168761D01*
X189675310Y-126138626D01*
X189572000Y-126128451D01*
X187872000Y-126128451D01*
X187768690Y-126138626D01*
X187669350Y-126168761D01*
X187577798Y-126217696D01*
X187497552Y-126283552D01*
X187431696Y-126363798D01*
X187382761Y-126455350D01*
X187374980Y-126481000D01*
X186764791Y-126481000D01*
X186748171Y-126449906D01*
X186651224Y-126331776D01*
X186533094Y-126234829D01*
X186398320Y-126162791D01*
X186252082Y-126118430D01*
X186100000Y-126103451D01*
X185175000Y-126103451D01*
X185022918Y-126118430D01*
X184876680Y-126162791D01*
X184741906Y-126234829D01*
X184623776Y-126331776D01*
X184526829Y-126449906D01*
X184454791Y-126584680D01*
X184410430Y-126730918D01*
X184395451Y-126883000D01*
X183904549Y-126883000D01*
X183889570Y-126730918D01*
X183845209Y-126584680D01*
X183773171Y-126449906D01*
X183676224Y-126331776D01*
X183616500Y-126282762D01*
X183616500Y-126128047D01*
X183700171Y-126026094D01*
X183772209Y-125891320D01*
X183816570Y-125745082D01*
X183831549Y-125593000D01*
X183831549Y-124343000D01*
X183816570Y-124190918D01*
X183772209Y-124044680D01*
X183700171Y-123909906D01*
X183616500Y-123807953D01*
X183616500Y-123588047D01*
X183700171Y-123486094D01*
X183772209Y-123351320D01*
X183816570Y-123205082D01*
X183831549Y-123053000D01*
X183831549Y-121803000D01*
X183816570Y-121650918D01*
X183772209Y-121504680D01*
X183700171Y-121369906D01*
X183616500Y-121267953D01*
X183616500Y-119768439D01*
X183627310Y-119767374D01*
X183726650Y-119737239D01*
X183818202Y-119688304D01*
X183898448Y-119622448D01*
X183964304Y-119542202D01*
X184013239Y-119450650D01*
X184043374Y-119351310D01*
X184053549Y-119248000D01*
X184053549Y-118375000D01*
X187374501Y-118375000D01*
X187383696Y-118392202D01*
X187449552Y-118472448D01*
X187480687Y-118498000D01*
X187449552Y-118523552D01*
X187383696Y-118603798D01*
X187334761Y-118695350D01*
X187304626Y-118794690D01*
X187294451Y-118898000D01*
X187294451Y-120398000D01*
X187304626Y-120501310D01*
X187334761Y-120600650D01*
X187383696Y-120692202D01*
X187449552Y-120772448D01*
X187529798Y-120838304D01*
X187621350Y-120887239D01*
X187720690Y-120917374D01*
X187824000Y-120927549D01*
X187912501Y-120927549D01*
X187912500Y-121267952D01*
X187828829Y-121369906D01*
X187756791Y-121504680D01*
X187712430Y-121650918D01*
X187697451Y-121803000D01*
X187697451Y-123053000D01*
X187712430Y-123205082D01*
X187756791Y-123351320D01*
X187828829Y-123486094D01*
X187925776Y-123604224D01*
X188043906Y-123701171D01*
X188178680Y-123773209D01*
X188324918Y-123817570D01*
X188477000Y-123832549D01*
X189402000Y-123832549D01*
X189554082Y-123817570D01*
X189700320Y-123773209D01*
X189835094Y-123701171D01*
X189953224Y-123604224D01*
X190050171Y-123486094D01*
X190066791Y-123455000D01*
X195350916Y-123455000D01*
X195432340Y-123536424D01*
X195666062Y-123692591D01*
X195925759Y-123800162D01*
X196201453Y-123855000D01*
X196482547Y-123855000D01*
X196758241Y-123800162D01*
X197017938Y-123692591D01*
X197251660Y-123536424D01*
X197450424Y-123337660D01*
X197606591Y-123103938D01*
X197714162Y-122844241D01*
X197769000Y-122568547D01*
X197769000Y-122287453D01*
X197714162Y-122011759D01*
X197606591Y-121752062D01*
X197450424Y-121518340D01*
X197251660Y-121319576D01*
X197017938Y-121163409D01*
X196758241Y-121055838D01*
X196482547Y-121001000D01*
X196201453Y-121001000D01*
X195925759Y-121055838D01*
X195666062Y-121163409D01*
X195432340Y-121319576D01*
X195350916Y-121401000D01*
X190066791Y-121401000D01*
X190050171Y-121369906D01*
X189966500Y-121267953D01*
X189966500Y-120905486D01*
X190026650Y-120887239D01*
X190118202Y-120838304D01*
X190198448Y-120772448D01*
X190264304Y-120692202D01*
X190313239Y-120600650D01*
X190343374Y-120501310D01*
X190353549Y-120398000D01*
X190353549Y-118898000D01*
X190343374Y-118794690D01*
X190313239Y-118695350D01*
X190264304Y-118603798D01*
X190198448Y-118523552D01*
X190167313Y-118498000D01*
X190198448Y-118472448D01*
X190264304Y-118392202D01*
X190313239Y-118300650D01*
X190343374Y-118201310D01*
X190353549Y-118098000D01*
X190353549Y-116598000D01*
X190343374Y-116494690D01*
X190313239Y-116395350D01*
X190264304Y-116303798D01*
X190198448Y-116223552D01*
X190118202Y-116157696D01*
X190026650Y-116108761D01*
X189927310Y-116078626D01*
X189824000Y-116068451D01*
X187824000Y-116068451D01*
X187720690Y-116078626D01*
X187621350Y-116108761D01*
X187529798Y-116157696D01*
X187449552Y-116223552D01*
X187383696Y-116303798D01*
X187374501Y-116321000D01*
X184053549Y-116321000D01*
X184053549Y-115448000D01*
X184043374Y-115344690D01*
X184013239Y-115245350D01*
X183964304Y-115153798D01*
X183898448Y-115073552D01*
X183818202Y-115007696D01*
X183726650Y-114958761D01*
X183627310Y-114928626D01*
X183524000Y-114918451D01*
X181524000Y-114918451D01*
X181420690Y-114928626D01*
X181321350Y-114958761D01*
X181229798Y-115007696D01*
X181149552Y-115073552D01*
X181083696Y-115153798D01*
X181034761Y-115245350D01*
X181004626Y-115344690D01*
X180994451Y-115448000D01*
X180994451Y-116321000D01*
X178987398Y-116321000D01*
X176204396Y-113538000D01*
X177571397Y-112171000D01*
X177686547Y-112171000D01*
X177962241Y-112116162D01*
X178221938Y-112008591D01*
X178455660Y-111852424D01*
X178654424Y-111653660D01*
X178810591Y-111419938D01*
X178918162Y-111160241D01*
X178973000Y-110884547D01*
X178973000Y-110769397D01*
X183316530Y-106425868D01*
X183355712Y-106393712D01*
X183387868Y-106354530D01*
X183387873Y-106354525D01*
X183484051Y-106237332D01*
X183542908Y-106127217D01*
X183579415Y-106058917D01*
X183626540Y-105903566D01*
X183638140Y-105865328D01*
X183646857Y-105776823D01*
X183653000Y-105714451D01*
X183653000Y-105714444D01*
X183657968Y-105664000D01*
X183653000Y-105613557D01*
X183653000Y-94336084D01*
X183734424Y-94254660D01*
X183890591Y-94020938D01*
X183998162Y-93761241D01*
X184053000Y-93485547D01*
X184053000Y-93204453D01*
X183998162Y-92928759D01*
X183890591Y-92669062D01*
X183734424Y-92435340D01*
X183535660Y-92236576D01*
X183301938Y-92080409D01*
X183042241Y-91972838D01*
X182766547Y-91918000D01*
X182485453Y-91918000D01*
X182209759Y-91972838D01*
X181950062Y-92080409D01*
X181716340Y-92236576D01*
X181517576Y-92435340D01*
X181361409Y-92669062D01*
X181253838Y-92928759D01*
X181199000Y-93204453D01*
X181199000Y-93485547D01*
X181253838Y-93761241D01*
X181361409Y-94020938D01*
X181517576Y-94254660D01*
X181599000Y-94336084D01*
X181599001Y-105238601D01*
X177520603Y-109317000D01*
X177405453Y-109317000D01*
X177129759Y-109371838D01*
X176870062Y-109479409D01*
X176636340Y-109635576D01*
X176437576Y-109834340D01*
X176281409Y-110068062D01*
X176173838Y-110327759D01*
X176119000Y-110603453D01*
X176119000Y-110718603D01*
X174326604Y-112511000D01*
X158471084Y-112511000D01*
X158389660Y-112429576D01*
X158155938Y-112273409D01*
X157896241Y-112165838D01*
X157620547Y-112111000D01*
X157339453Y-112111000D01*
X157063759Y-112165838D01*
X156804062Y-112273409D01*
X156570340Y-112429576D01*
X156488916Y-112511000D01*
X146862443Y-112511000D01*
X146812000Y-112506032D01*
X146761556Y-112511000D01*
X146761549Y-112511000D01*
X146628831Y-112524072D01*
X146610672Y-112525860D01*
X146551947Y-112543674D01*
X146417083Y-112584585D01*
X146238669Y-112679949D01*
X146238667Y-112679950D01*
X146238668Y-112679950D01*
X146121475Y-112776127D01*
X146121470Y-112776132D01*
X146082288Y-112808288D01*
X146050132Y-112847470D01*
X136626604Y-122271000D01*
X136511453Y-122271000D01*
X136235759Y-122325838D01*
X135976062Y-122433409D01*
X135742340Y-122589576D01*
X135543576Y-122788340D01*
X135387409Y-123022062D01*
X135279838Y-123281759D01*
X135225000Y-123557453D01*
X135225000Y-123672604D01*
X134194604Y-124703000D01*
X133325084Y-124703000D01*
X133243660Y-124621576D01*
X133009938Y-124465409D01*
X132750241Y-124357838D01*
X132474547Y-124303000D01*
X132193453Y-124303000D01*
X131917759Y-124357838D01*
X131658062Y-124465409D01*
X131424340Y-124621576D01*
X131342916Y-124703000D01*
X124689084Y-124703000D01*
X124607660Y-124621576D01*
X124373938Y-124465409D01*
X124114241Y-124357838D01*
X123838547Y-124303000D01*
X123557453Y-124303000D01*
X123281759Y-124357838D01*
X123022062Y-124465409D01*
X122788340Y-124621576D01*
X122706916Y-124703000D01*
X116249398Y-124703000D01*
X108116779Y-116570383D01*
X108143500Y-116436047D01*
X108143500Y-116154953D01*
X108088662Y-115879259D01*
X107981091Y-115619562D01*
X107824924Y-115385840D01*
X107626160Y-115187076D01*
X107392438Y-115030909D01*
X107132741Y-114923338D01*
X106857047Y-114868500D01*
X106575953Y-114868500D01*
X106300259Y-114923338D01*
X106040562Y-115030909D01*
X105806840Y-115187076D01*
X105608076Y-115385840D01*
X105451909Y-115619562D01*
X105344338Y-115879259D01*
X105289500Y-116154953D01*
X99833000Y-116154953D01*
X99833000Y-106343396D01*
X103041398Y-103135000D01*
X109498916Y-103135000D01*
X109580340Y-103216424D01*
X109814062Y-103372591D01*
X110073759Y-103480162D01*
X110349453Y-103535000D01*
X110630547Y-103535000D01*
X110906241Y-103480162D01*
X111165938Y-103372591D01*
X111399660Y-103216424D01*
X111481084Y-103135000D01*
X128040916Y-103135000D01*
X128122340Y-103216424D01*
X128356062Y-103372591D01*
X128615759Y-103480162D01*
X128891453Y-103535000D01*
X129172547Y-103535000D01*
X129448241Y-103480162D01*
X129707938Y-103372591D01*
X129941660Y-103216424D01*
X130023084Y-103135000D01*
X131986156Y-103135000D01*
X129472157Y-105649000D01*
X116441549Y-105649000D01*
X116441549Y-105576000D01*
X116431374Y-105472690D01*
X116401239Y-105373350D01*
X116352304Y-105281798D01*
X116286448Y-105201552D01*
X116206202Y-105135696D01*
X116114650Y-105086761D01*
X116015310Y-105056626D01*
X115912000Y-105046451D01*
X114212000Y-105046451D01*
X114108690Y-105056626D01*
X114009350Y-105086761D01*
X113917798Y-105135696D01*
X113837552Y-105201552D01*
X113771696Y-105281798D01*
X113722761Y-105373350D01*
X113692626Y-105472690D01*
X113682451Y-105576000D01*
X113682451Y-107276000D01*
X113692626Y-107379310D01*
X113722761Y-107478650D01*
X113771696Y-107570202D01*
X113837552Y-107650448D01*
X113917798Y-107716304D01*
X114009350Y-107765239D01*
X114108690Y-107795374D01*
X114212000Y-107805549D01*
X115912000Y-107805549D01*
X116015310Y-107795374D01*
X116114650Y-107765239D01*
X116206202Y-107716304D01*
X116286448Y-107650448D01*
X116352304Y-107570202D01*
X116401239Y-107478650D01*
X116431374Y-107379310D01*
X116441549Y-107276000D01*
X116441549Y-107203000D01*
X129755837Y-107203000D01*
X129794000Y-107206759D01*
X129832163Y-107203000D01*
X129832166Y-107203000D01*
X129946319Y-107191757D01*
X130092784Y-107147327D01*
X130227766Y-107075177D01*
X130346080Y-106978080D01*
X130370413Y-106948431D01*
X132909844Y-104409000D01*
X162521837Y-104409000D01*
X162560000Y-104412759D01*
X162598163Y-104409000D01*
X162598166Y-104409000D01*
X162712319Y-104397757D01*
X162858784Y-104353327D01*
X162993766Y-104281177D01*
X163112080Y-104184080D01*
X163136413Y-104154430D01*
X172607437Y-94683407D01*
X172637080Y-94659080D01*
X172661409Y-94629435D01*
X172734177Y-94540767D01*
X172806327Y-94405784D01*
X172822166Y-94353570D01*
X172850757Y-94259319D01*
X172862000Y-94145166D01*
X172862000Y-94145157D01*
X172865758Y-94107001D01*
X172862000Y-94068845D01*
X172862000Y-79009093D01*
X172906690Y-78979232D01*
X173086232Y-78799690D01*
X173227297Y-78588570D01*
X173324465Y-78353987D01*
X173355000Y-78200476D01*
X173385535Y-78353987D01*
X173482703Y-78588570D01*
X173623768Y-78799690D01*
X173803310Y-78979232D01*
X174014430Y-79120297D01*
X174249013Y-79217465D01*
X174498045Y-79267000D01*
X174751955Y-79267000D01*
X175000987Y-79217465D01*
X175235570Y-79120297D01*
X175446690Y-78979232D01*
X175626232Y-78799690D01*
X175767297Y-78588570D01*
X175864465Y-78353987D01*
X175895000Y-78200476D01*
X175925535Y-78353987D01*
X176022703Y-78588570D01*
X176163768Y-78799690D01*
X176343310Y-78979232D01*
X176554430Y-79120297D01*
X176789013Y-79217465D01*
X177038045Y-79267000D01*
X177291955Y-79267000D01*
X177540987Y-79217465D01*
X177775570Y-79120297D01*
X177986690Y-78979232D01*
X178166232Y-78799690D01*
X178307297Y-78588570D01*
X178404465Y-78353987D01*
X178435000Y-78200476D01*
X178465535Y-78353987D01*
X178562703Y-78588570D01*
X178703768Y-78799690D01*
X178883310Y-78979232D01*
X179094430Y-79120297D01*
X179329013Y-79217465D01*
X179578045Y-79267000D01*
X179831955Y-79267000D01*
X180080987Y-79217465D01*
X180315570Y-79120297D01*
X180526690Y-78979232D01*
X180706232Y-78799690D01*
X180847297Y-78588570D01*
X180944465Y-78353987D01*
X180975000Y-78200476D01*
X181005535Y-78353987D01*
X181102703Y-78588570D01*
X181243768Y-78799690D01*
X181423310Y-78979232D01*
X181634430Y-79120297D01*
X181869013Y-79217465D01*
X182118045Y-79267000D01*
X182371955Y-79267000D01*
X182620987Y-79217465D01*
X182855570Y-79120297D01*
X183066690Y-78979232D01*
X183246232Y-78799690D01*
X183387297Y-78588570D01*
X183484465Y-78353987D01*
X183515000Y-78200476D01*
X183545535Y-78353987D01*
X183642703Y-78588570D01*
X183783768Y-78799690D01*
X183963310Y-78979232D01*
X184174430Y-79120297D01*
X184409013Y-79217465D01*
X184658045Y-79267000D01*
X184911955Y-79267000D01*
X185160987Y-79217465D01*
X185395570Y-79120297D01*
X185606690Y-78979232D01*
X185786232Y-78799690D01*
X185927297Y-78588570D01*
X186024465Y-78353987D01*
X186055000Y-78200476D01*
X186085535Y-78353987D01*
X186182703Y-78588570D01*
X186323768Y-78799690D01*
X186503310Y-78979232D01*
X186714430Y-79120297D01*
X186949013Y-79217465D01*
X187198045Y-79267000D01*
X187451955Y-79267000D01*
X187700987Y-79217465D01*
X187935570Y-79120297D01*
X188146690Y-78979232D01*
X188326232Y-78799690D01*
X188467297Y-78588570D01*
X188564465Y-78353987D01*
X188595000Y-78200476D01*
X188625535Y-78353987D01*
X188722703Y-78588570D01*
X188863768Y-78799690D01*
X189043310Y-78979232D01*
X189254430Y-79120297D01*
X189489013Y-79217465D01*
X189738045Y-79267000D01*
X189991955Y-79267000D01*
X190240987Y-79217465D01*
X190475570Y-79120297D01*
X190686690Y-78979232D01*
X190866232Y-78799690D01*
X191007297Y-78588570D01*
X191104465Y-78353987D01*
X191154000Y-78104955D01*
X191154000Y-77851045D01*
X191104465Y-77602013D01*
X191007297Y-77367430D01*
X190866232Y-77156310D01*
X190686690Y-76976768D01*
X190683871Y-76974884D01*
X191823000Y-76974884D01*
X191823000Y-77965116D01*
X192016184Y-78936322D01*
X192395130Y-79851178D01*
X192945274Y-80674526D01*
X193645474Y-81374726D01*
X194468822Y-81924870D01*
X195383678Y-82303816D01*
X196354884Y-82497000D01*
X197345116Y-82497000D01*
X198316322Y-82303816D01*
X199231178Y-81924870D01*
X200054526Y-81374726D01*
X200754726Y-80674526D01*
X201304870Y-79851178D01*
X201683816Y-78936322D01*
X201877000Y-77965116D01*
X201877000Y-76974884D01*
X201683816Y-76003678D01*
X201304870Y-75088822D01*
X200754726Y-74265474D01*
X200054526Y-73565274D01*
X199231178Y-73015130D01*
X198316322Y-72636184D01*
X197345116Y-72443000D01*
X196354884Y-72443000D01*
X195383678Y-72636184D01*
X194468822Y-73015130D01*
X193645474Y-73565274D01*
X192945274Y-74265474D01*
X192395130Y-75088822D01*
X192016184Y-76003678D01*
X191823000Y-76974884D01*
X190683871Y-76974884D01*
X190475570Y-76835703D01*
X190240987Y-76738535D01*
X190087476Y-76708000D01*
X190240987Y-76677465D01*
X190475570Y-76580297D01*
X190686690Y-76439232D01*
X190866232Y-76259690D01*
X191007297Y-76048570D01*
X191104465Y-75813987D01*
X191154000Y-75564955D01*
X191154000Y-75311045D01*
X191104465Y-75062013D01*
X191007297Y-74827430D01*
X190866232Y-74616310D01*
X190686690Y-74436768D01*
X190475570Y-74295703D01*
X190240987Y-74198535D01*
X189991955Y-74149000D01*
X189738045Y-74149000D01*
X189489013Y-74198535D01*
X189254430Y-74295703D01*
X189043310Y-74436768D01*
X188863768Y-74616310D01*
X188722703Y-74827430D01*
X188625535Y-75062013D01*
X188595000Y-75215524D01*
X188564465Y-75062013D01*
X188467297Y-74827430D01*
X188326232Y-74616310D01*
X188146690Y-74436768D01*
X187935570Y-74295703D01*
X187700987Y-74198535D01*
X187451955Y-74149000D01*
X187198045Y-74149000D01*
X186949013Y-74198535D01*
X186714430Y-74295703D01*
X186503310Y-74436768D01*
X186323768Y-74616310D01*
X186182703Y-74827430D01*
X186085535Y-75062013D01*
X186055000Y-75215524D01*
X186024465Y-75062013D01*
X185927297Y-74827430D01*
X185786232Y-74616310D01*
X185606690Y-74436768D01*
X185395570Y-74295703D01*
X185160987Y-74198535D01*
X184911955Y-74149000D01*
X184658045Y-74149000D01*
X184409013Y-74198535D01*
X184174430Y-74295703D01*
X183963310Y-74436768D01*
X183783768Y-74616310D01*
X183642703Y-74827430D01*
X183545535Y-75062013D01*
X183496000Y-75311045D01*
X183496000Y-75564955D01*
X183545535Y-75813987D01*
X183642703Y-76048570D01*
X183783768Y-76259690D01*
X183963310Y-76439232D01*
X184174430Y-76580297D01*
X184409013Y-76677465D01*
X184562524Y-76708000D01*
X184409013Y-76738535D01*
X184174430Y-76835703D01*
X183963310Y-76976768D01*
X183783768Y-77156310D01*
X183642703Y-77367430D01*
X183545535Y-77602013D01*
X183515000Y-77755524D01*
X183484465Y-77602013D01*
X183387297Y-77367430D01*
X183246232Y-77156310D01*
X183066690Y-76976768D01*
X182855570Y-76835703D01*
X182620987Y-76738535D01*
X182371955Y-76689000D01*
X182118045Y-76689000D01*
X181869013Y-76738535D01*
X181634430Y-76835703D01*
X181423310Y-76976768D01*
X181243768Y-77156310D01*
X181102703Y-77367430D01*
X181005535Y-77602013D01*
X180975000Y-77755524D01*
X180944465Y-77602013D01*
X180847297Y-77367430D01*
X180706232Y-77156310D01*
X180526690Y-76976768D01*
X180315570Y-76835703D01*
X180080987Y-76738535D01*
X179927476Y-76708000D01*
X180080987Y-76677465D01*
X180315570Y-76580297D01*
X180526690Y-76439232D01*
X180706232Y-76259690D01*
X180847297Y-76048570D01*
X180944465Y-75813987D01*
X180994000Y-75564955D01*
X180994000Y-75311045D01*
X180944465Y-75062013D01*
X180847297Y-74827430D01*
X180706232Y-74616310D01*
X180526690Y-74436768D01*
X180315570Y-74295703D01*
X180080987Y-74198535D01*
X179831955Y-74149000D01*
X179578045Y-74149000D01*
X179329013Y-74198535D01*
X179094430Y-74295703D01*
X178883310Y-74436768D01*
X178703768Y-74616310D01*
X178562703Y-74827430D01*
X178465535Y-75062013D01*
X178435000Y-75215524D01*
X178404465Y-75062013D01*
X178307297Y-74827430D01*
X178166232Y-74616310D01*
X177986690Y-74436768D01*
X177775570Y-74295703D01*
X177540987Y-74198535D01*
X177291955Y-74149000D01*
X177038045Y-74149000D01*
X176789013Y-74198535D01*
X176554430Y-74295703D01*
X176343310Y-74436768D01*
X176163768Y-74616310D01*
X176022703Y-74827430D01*
X175925535Y-75062013D01*
X175895000Y-75215524D01*
X175864465Y-75062013D01*
X175767297Y-74827430D01*
X175626232Y-74616310D01*
X175446690Y-74436768D01*
X175235570Y-74295703D01*
X175000987Y-74198535D01*
X174751955Y-74149000D01*
X174498045Y-74149000D01*
X174249013Y-74198535D01*
X174014430Y-74295703D01*
X173803310Y-74436768D01*
X173623768Y-74616310D01*
X173482703Y-74827430D01*
X173385535Y-75062013D01*
X173355000Y-75215524D01*
X173324465Y-75062013D01*
X173227297Y-74827430D01*
X173086232Y-74616310D01*
X172906690Y-74436768D01*
X172695570Y-74295703D01*
X172460987Y-74198535D01*
X172211955Y-74149000D01*
X171958045Y-74149000D01*
X171709013Y-74198535D01*
X171474430Y-74295703D01*
X171263310Y-74436768D01*
X171083768Y-74616310D01*
X170942703Y-74827430D01*
X170845535Y-75062013D01*
X170815000Y-75215524D01*
X170784465Y-75062013D01*
X170687297Y-74827430D01*
X170546232Y-74616310D01*
X170366690Y-74436768D01*
X170155570Y-74295703D01*
X169920987Y-74198535D01*
X169671955Y-74149000D01*
X169418045Y-74149000D01*
X169169013Y-74198535D01*
X168934430Y-74295703D01*
X168723310Y-74436768D01*
X168543768Y-74616310D01*
X168402703Y-74827430D01*
X168305535Y-75062013D01*
X168256000Y-75311045D01*
X168256000Y-75564955D01*
X168305535Y-75813987D01*
X168402703Y-76048570D01*
X168543768Y-76259690D01*
X168723310Y-76439232D01*
X168934430Y-76580297D01*
X169169013Y-76677465D01*
X169322524Y-76708000D01*
X169169013Y-76738535D01*
X168934430Y-76835703D01*
X168723310Y-76976768D01*
X168543768Y-77156310D01*
X168402703Y-77367430D01*
X168305535Y-77602013D01*
X168275000Y-77755524D01*
X168244465Y-77602013D01*
X168147297Y-77367430D01*
X168006232Y-77156310D01*
X167826690Y-76976768D01*
X167615570Y-76835703D01*
X167380987Y-76738535D01*
X167131955Y-76689000D01*
X166878045Y-76689000D01*
X166629013Y-76738535D01*
X166394430Y-76835703D01*
X166183310Y-76976768D01*
X166003768Y-77156310D01*
X165862703Y-77367430D01*
X165765535Y-77602013D01*
X165735000Y-77755524D01*
X165704465Y-77602013D01*
X165607297Y-77367430D01*
X165466232Y-77156310D01*
X165286690Y-76976768D01*
X165075570Y-76835703D01*
X164840987Y-76738535D01*
X164687476Y-76708000D01*
X164840987Y-76677465D01*
X165075570Y-76580297D01*
X165286690Y-76439232D01*
X165466232Y-76259690D01*
X165607297Y-76048570D01*
X165704465Y-75813987D01*
X165754000Y-75564955D01*
X165754000Y-75311045D01*
X165704465Y-75062013D01*
X165607297Y-74827430D01*
X165466232Y-74616310D01*
X165286690Y-74436768D01*
X165075570Y-74295703D01*
X164840987Y-74198535D01*
X164591955Y-74149000D01*
X164338045Y-74149000D01*
X164089013Y-74198535D01*
X163854430Y-74295703D01*
X163643310Y-74436768D01*
X163463768Y-74616310D01*
X163322703Y-74827430D01*
X163225535Y-75062013D01*
X163195000Y-75215524D01*
X163164465Y-75062013D01*
X163067297Y-74827430D01*
X162926232Y-74616310D01*
X162746690Y-74436768D01*
X162535570Y-74295703D01*
X162300987Y-74198535D01*
X162051955Y-74149000D01*
X161798045Y-74149000D01*
X161549013Y-74198535D01*
X161314430Y-74295703D01*
X161103310Y-74436768D01*
X160923768Y-74616310D01*
X160782703Y-74827430D01*
X160685535Y-75062013D01*
X160655000Y-75215524D01*
X160624465Y-75062013D01*
X160527297Y-74827430D01*
X160386232Y-74616310D01*
X160206690Y-74436768D01*
X159995570Y-74295703D01*
X159760987Y-74198535D01*
X159511955Y-74149000D01*
X159258045Y-74149000D01*
X159009013Y-74198535D01*
X158774430Y-74295703D01*
X158563310Y-74436768D01*
X158383768Y-74616310D01*
X158242703Y-74827430D01*
X158145535Y-75062013D01*
X158115000Y-75215524D01*
X158084465Y-75062013D01*
X157987297Y-74827430D01*
X157846232Y-74616310D01*
X157666690Y-74436768D01*
X157455570Y-74295703D01*
X157220987Y-74198535D01*
X156971955Y-74149000D01*
X156718045Y-74149000D01*
X156469013Y-74198535D01*
X156234430Y-74295703D01*
X156023310Y-74436768D01*
X155843768Y-74616310D01*
X155702703Y-74827430D01*
X155605535Y-75062013D01*
X155575000Y-75215524D01*
X155544465Y-75062013D01*
X155447297Y-74827430D01*
X155306232Y-74616310D01*
X155126690Y-74436768D01*
X154915570Y-74295703D01*
X154680987Y-74198535D01*
X154431955Y-74149000D01*
X154178045Y-74149000D01*
X153929013Y-74198535D01*
X153694430Y-74295703D01*
X153483310Y-74436768D01*
X153303768Y-74616310D01*
X153162703Y-74827430D01*
X153065535Y-75062013D01*
X153035000Y-75215524D01*
X153004465Y-75062013D01*
X152907297Y-74827430D01*
X152766232Y-74616310D01*
X152586690Y-74436768D01*
X152375570Y-74295703D01*
X152140987Y-74198535D01*
X151891955Y-74149000D01*
X151638045Y-74149000D01*
X151389013Y-74198535D01*
X151154430Y-74295703D01*
X150943310Y-74436768D01*
X150763768Y-74616310D01*
X150622703Y-74827430D01*
X150525535Y-75062013D01*
X150495000Y-75215524D01*
X150464465Y-75062013D01*
X150367297Y-74827430D01*
X150226232Y-74616310D01*
X150046690Y-74436768D01*
X149835570Y-74295703D01*
X149600987Y-74198535D01*
X149351955Y-74149000D01*
X149098045Y-74149000D01*
X148849013Y-74198535D01*
X148614430Y-74295703D01*
X148403310Y-74436768D01*
X148223768Y-74616310D01*
X148082703Y-74827430D01*
X147985535Y-75062013D01*
X147955000Y-75215524D01*
X147924465Y-75062013D01*
X147827297Y-74827430D01*
X147686232Y-74616310D01*
X147506690Y-74436768D01*
X147295570Y-74295703D01*
X147060987Y-74198535D01*
X146811955Y-74149000D01*
X146558045Y-74149000D01*
X146309013Y-74198535D01*
X146074430Y-74295703D01*
X145863310Y-74436768D01*
X145683768Y-74616310D01*
X145542703Y-74827430D01*
X145445535Y-75062013D01*
X145415000Y-75215524D01*
X145384465Y-75062013D01*
X145287297Y-74827430D01*
X145146232Y-74616310D01*
X144966690Y-74436768D01*
X144755570Y-74295703D01*
X144520987Y-74198535D01*
X144271955Y-74149000D01*
X144018045Y-74149000D01*
X143769013Y-74198535D01*
X143534430Y-74295703D01*
X143323310Y-74436768D01*
X143143768Y-74616310D01*
X143002703Y-74827430D01*
X142905535Y-75062013D01*
X142856000Y-75311045D01*
X142856000Y-75564955D01*
X142905535Y-75813987D01*
X143002703Y-76048570D01*
X143143768Y-76259690D01*
X143323310Y-76439232D01*
X143534430Y-76580297D01*
X143769013Y-76677465D01*
X143922524Y-76708000D01*
X143769013Y-76738535D01*
X143534430Y-76835703D01*
X143323310Y-76976768D01*
X143143768Y-77156310D01*
X143002703Y-77367430D01*
X142905535Y-77602013D01*
X142856000Y-77851045D01*
X142856000Y-78104955D01*
X142905535Y-78353987D01*
X143002703Y-78588570D01*
X143143768Y-78799690D01*
X143323310Y-78979232D01*
X143534430Y-79120297D01*
X143769013Y-79217465D01*
X144018045Y-79267000D01*
X144271955Y-79267000D01*
X144520987Y-79217465D01*
X144755570Y-79120297D01*
X144966690Y-78979232D01*
X145146232Y-78799690D01*
X145287297Y-78588570D01*
X145384465Y-78353987D01*
X145415000Y-78200476D01*
X145445535Y-78353987D01*
X145542703Y-78588570D01*
X145683768Y-78799690D01*
X145863310Y-78979232D01*
X146074430Y-79120297D01*
X146309013Y-79217465D01*
X146558045Y-79267000D01*
X146811955Y-79267000D01*
X147060987Y-79217465D01*
X147295570Y-79120297D01*
X147506690Y-78979232D01*
X147686232Y-78799690D01*
X147827297Y-78588570D01*
X147924465Y-78353987D01*
X147955000Y-78200476D01*
X147985535Y-78353987D01*
X148082703Y-78588570D01*
X148223768Y-78799690D01*
X148403310Y-78979232D01*
X148614430Y-79120297D01*
X148849013Y-79217465D01*
X149098045Y-79267000D01*
X149351955Y-79267000D01*
X149600987Y-79217465D01*
X149835570Y-79120297D01*
X150046690Y-78979232D01*
X150226232Y-78799690D01*
X150367297Y-78588570D01*
X150464465Y-78353987D01*
X150495000Y-78200476D01*
X150525535Y-78353987D01*
X150622703Y-78588570D01*
X150763768Y-78799690D01*
X150943310Y-78979232D01*
X151154430Y-79120297D01*
X151389013Y-79217465D01*
X151638045Y-79267000D01*
X151891955Y-79267000D01*
X152140987Y-79217465D01*
X152375570Y-79120297D01*
X152586690Y-78979232D01*
X152766232Y-78799690D01*
X152907297Y-78588570D01*
X153004465Y-78353987D01*
X153054000Y-78104955D01*
X153054000Y-77851045D01*
X153004465Y-77602013D01*
X152907297Y-77367430D01*
X152766232Y-77156310D01*
X152586690Y-76976768D01*
X152375570Y-76835703D01*
X152140987Y-76738535D01*
X151987476Y-76708000D01*
X152140987Y-76677465D01*
X152375570Y-76580297D01*
X152586690Y-76439232D01*
X152766232Y-76259690D01*
X152907297Y-76048570D01*
X153004465Y-75813987D01*
X153035000Y-75660476D01*
X153065535Y-75813987D01*
X153162703Y-76048570D01*
X153303768Y-76259690D01*
X153483310Y-76439232D01*
X153694430Y-76580297D01*
X153929013Y-76677465D01*
X154178045Y-76727000D01*
X154431955Y-76727000D01*
X154680987Y-76677465D01*
X154915570Y-76580297D01*
X155126690Y-76439232D01*
X155306232Y-76259690D01*
X155447297Y-76048570D01*
X155544465Y-75813987D01*
X155575000Y-75660476D01*
X155605535Y-75813987D01*
X155702703Y-76048570D01*
X155843768Y-76259690D01*
X156023310Y-76439232D01*
X156234430Y-76580297D01*
X156469013Y-76677465D01*
X156622524Y-76708000D01*
X156469013Y-76738535D01*
X156234430Y-76835703D01*
X156023310Y-76976768D01*
X155843768Y-77156310D01*
X155702703Y-77367430D01*
X155605535Y-77602013D01*
X155556000Y-77851045D01*
X155556000Y-78104955D01*
X155605535Y-78353987D01*
X155702703Y-78588570D01*
X155843768Y-78799690D01*
X155955617Y-78911539D01*
X152078157Y-82789000D01*
X144564163Y-82789000D01*
X144526000Y-82785241D01*
X144487836Y-82789000D01*
X144487834Y-82789000D01*
X144373681Y-82800243D01*
X144227216Y-82844673D01*
X144207522Y-82855200D01*
X144092234Y-82916822D01*
X144038764Y-82960704D01*
X143973920Y-83013920D01*
X143949592Y-83043564D01*
X141336569Y-85656587D01*
X141306920Y-85680920D01*
X141282591Y-85710566D01*
X141209823Y-85799234D01*
X141205557Y-85807216D01*
X141137673Y-85934217D01*
X141093243Y-86080682D01*
X141082000Y-86194834D01*
X141078241Y-86233000D01*
X141082000Y-86271164D01*
X141082001Y-88861827D01*
X141078241Y-88900000D01*
X141089329Y-89012566D01*
X141093244Y-89052319D01*
X141094572Y-89056696D01*
X141137673Y-89198783D01*
X141209823Y-89333766D01*
X141282591Y-89422434D01*
X141306921Y-89452080D01*
X141336565Y-89476408D01*
X143187590Y-91327434D01*
X143211920Y-91357080D01*
X143241564Y-91381408D01*
X143241565Y-91381409D01*
X143330233Y-91454177D01*
X143362545Y-91471448D01*
X143465216Y-91526327D01*
X143611681Y-91570757D01*
X143725834Y-91582000D01*
X143725836Y-91582000D01*
X143764000Y-91585759D01*
X143802163Y-91582000D01*
X144043087Y-91582000D01*
X144059298Y-91595304D01*
X144150850Y-91644239D01*
X144250190Y-91674374D01*
X144353500Y-91684549D01*
X145878500Y-91684549D01*
X145981810Y-91674374D01*
X145988947Y-91672209D01*
X140574570Y-97086587D01*
X140544920Y-97110920D01*
X140520591Y-97140566D01*
X140447823Y-97229234D01*
X140375674Y-97364216D01*
X140375673Y-97364217D01*
X140331243Y-97510682D01*
X140321235Y-97612299D01*
X140316241Y-97663000D01*
X140320000Y-97701164D01*
X140320000Y-98188451D01*
X140247000Y-98188451D01*
X140143690Y-98198626D01*
X140044350Y-98228761D01*
X139952798Y-98277696D01*
X139872552Y-98343552D01*
X139806696Y-98423798D01*
X139757761Y-98515350D01*
X139727626Y-98614690D01*
X139717451Y-98718000D01*
X139717451Y-100418000D01*
X139727626Y-100521310D01*
X139757761Y-100620650D01*
X139806696Y-100712202D01*
X139872552Y-100792448D01*
X139952798Y-100858304D01*
X140044350Y-100907239D01*
X140143690Y-100937374D01*
X140247000Y-100947549D01*
X141947000Y-100947549D01*
X142050310Y-100937374D01*
X142149650Y-100907239D01*
X142241202Y-100858304D01*
X142321448Y-100792448D01*
X142387304Y-100712202D01*
X142436239Y-100620650D01*
X142466374Y-100521310D01*
X142476549Y-100418000D01*
X142476549Y-100318054D01*
X142486527Y-100336721D01*
X142658603Y-100546397D01*
X142868279Y-100718473D01*
X143107495Y-100846337D01*
X143367061Y-100925075D01*
X143569360Y-100945000D01*
X143704640Y-100945000D01*
X143906939Y-100925075D01*
X144166505Y-100846337D01*
X144405721Y-100718473D01*
X144615397Y-100546397D01*
X144787473Y-100336721D01*
X144907000Y-100113102D01*
X145026527Y-100336721D01*
X145198603Y-100546397D01*
X145408279Y-100718473D01*
X145647495Y-100846337D01*
X145907061Y-100925075D01*
X146109360Y-100945000D01*
X146244640Y-100945000D01*
X146446939Y-100925075D01*
X146706505Y-100846337D01*
X146945721Y-100718473D01*
X147155397Y-100546397D01*
X147327473Y-100336721D01*
X147455337Y-100097505D01*
X147534075Y-99837939D01*
X147560662Y-99568000D01*
X147534075Y-99298061D01*
X147455337Y-99038495D01*
X147327473Y-98799279D01*
X147155397Y-98589603D01*
X146954000Y-98424321D01*
X146954000Y-95571843D01*
X149112437Y-93413407D01*
X149142080Y-93389080D01*
X149181338Y-93341244D01*
X149239177Y-93270767D01*
X149289451Y-93176711D01*
X149289451Y-93589000D01*
X149304430Y-93741082D01*
X149348791Y-93887320D01*
X149420829Y-94022094D01*
X149517776Y-94140224D01*
X149635906Y-94237171D01*
X149770680Y-94309209D01*
X149916918Y-94353570D01*
X150069000Y-94368549D01*
X150994000Y-94368549D01*
X151146082Y-94353570D01*
X151292320Y-94309209D01*
X151427094Y-94237171D01*
X151545224Y-94140224D01*
X151642171Y-94022094D01*
X151714209Y-93887320D01*
X151758570Y-93741082D01*
X151773549Y-93589000D01*
X151773549Y-92339000D01*
X151758570Y-92186918D01*
X151714209Y-92040680D01*
X151642171Y-91905906D01*
X151581518Y-91832000D01*
X158103561Y-91832000D01*
X158154002Y-91836968D01*
X158204443Y-91832000D01*
X158204453Y-91832000D01*
X158355329Y-91817140D01*
X158548919Y-91758415D01*
X158727333Y-91663051D01*
X158883714Y-91534712D01*
X158915879Y-91495519D01*
X161500400Y-88911000D01*
X163600916Y-88911000D01*
X163682340Y-88992424D01*
X163916062Y-89148591D01*
X164175759Y-89256162D01*
X164451453Y-89311000D01*
X164732547Y-89311000D01*
X165008241Y-89256162D01*
X165267938Y-89148591D01*
X165501660Y-88992424D01*
X165700424Y-88793660D01*
X165856591Y-88559938D01*
X165964162Y-88300241D01*
X166019000Y-88024547D01*
X166019000Y-87743453D01*
X165964162Y-87467759D01*
X165856591Y-87208062D01*
X165700424Y-86974340D01*
X165501660Y-86775576D01*
X165267938Y-86619409D01*
X165008241Y-86511838D01*
X164732547Y-86457000D01*
X164451453Y-86457000D01*
X164175759Y-86511838D01*
X163916062Y-86619409D01*
X163682340Y-86775576D01*
X163600916Y-86857000D01*
X161125445Y-86857000D01*
X161075002Y-86852032D01*
X161024558Y-86857000D01*
X161024551Y-86857000D01*
X160891833Y-86870072D01*
X160873674Y-86871860D01*
X160839664Y-86882177D01*
X160764549Y-86904963D01*
X160764549Y-85764000D01*
X160754374Y-85660690D01*
X160724239Y-85561350D01*
X160675304Y-85469798D01*
X160609448Y-85389552D01*
X160529202Y-85323696D01*
X160437650Y-85274761D01*
X160338310Y-85244626D01*
X160235000Y-85234451D01*
X158535000Y-85234451D01*
X158431690Y-85244626D01*
X158332350Y-85274761D01*
X158240798Y-85323696D01*
X158160552Y-85389552D01*
X158094696Y-85469798D01*
X158045761Y-85561350D01*
X158015626Y-85660690D01*
X158005451Y-85764000D01*
X158005451Y-87464000D01*
X158015626Y-87567310D01*
X158045761Y-87666650D01*
X158094696Y-87758202D01*
X158160552Y-87838448D01*
X158240798Y-87904304D01*
X158332350Y-87953239D01*
X158431690Y-87983374D01*
X158535000Y-87993549D01*
X159513056Y-87993549D01*
X157728606Y-89778000D01*
X153128843Y-89778000D01*
X161685437Y-81221407D01*
X161715081Y-81197079D01*
X161739410Y-81167434D01*
X161812178Y-81078766D01*
X161884328Y-80943783D01*
X161928758Y-80797318D01*
X161940001Y-80683165D01*
X161940001Y-80683163D01*
X161943760Y-80644999D01*
X161940001Y-80606836D01*
X161940001Y-79267000D01*
X162051955Y-79267000D01*
X162300987Y-79217465D01*
X162535570Y-79120297D01*
X162746690Y-78979232D01*
X162926232Y-78799690D01*
X163067297Y-78588570D01*
X163164465Y-78353987D01*
X163195000Y-78200476D01*
X163225535Y-78353987D01*
X163322703Y-78588570D01*
X163463768Y-78799690D01*
X163643310Y-78979232D01*
X163854430Y-79120297D01*
X164089013Y-79217465D01*
X164338045Y-79267000D01*
X164591955Y-79267000D01*
X164840987Y-79217465D01*
X165075570Y-79120297D01*
X165286690Y-78979232D01*
X165466232Y-78799690D01*
X165607297Y-78588570D01*
X165704465Y-78353987D01*
X165735000Y-78200476D01*
X165765535Y-78353987D01*
X165862703Y-78588570D01*
X166003768Y-78799690D01*
X166183310Y-78979232D01*
X166394430Y-79120297D01*
X166629013Y-79217465D01*
X166878045Y-79267000D01*
X167131955Y-79267000D01*
X167380987Y-79217465D01*
X167615570Y-79120297D01*
X167826690Y-78979232D01*
X168006232Y-78799690D01*
X168147297Y-78588570D01*
X168244465Y-78353987D01*
X168275000Y-78200476D01*
X168305535Y-78353987D01*
X168402703Y-78588570D01*
X168543768Y-78799690D01*
X168723310Y-78979232D01*
X168934430Y-79120297D01*
X169169013Y-79217465D01*
X169418045Y-79267000D01*
X169671955Y-79267000D01*
X169920987Y-79217465D01*
X170155570Y-79120297D01*
X170366690Y-78979232D01*
X170546232Y-78799690D01*
X170687297Y-78588570D01*
X170784465Y-78353987D01*
X170815000Y-78200476D01*
X170845535Y-78353987D01*
X170942703Y-78588570D01*
X171083768Y-78799690D01*
X171263310Y-78979232D01*
X171308001Y-79009093D01*
X171308000Y-93785156D01*
X162238157Y-102855000D01*
X160221109Y-102855000D01*
X160268591Y-102783938D01*
X160376162Y-102524241D01*
X160431000Y-102248547D01*
X160431000Y-101967453D01*
X160376162Y-101691759D01*
X160268591Y-101432062D01*
X160112424Y-101198340D01*
X159913660Y-100999576D01*
X159679938Y-100843409D01*
X159420241Y-100735838D01*
X159144547Y-100681000D01*
X158863453Y-100681000D01*
X158587759Y-100735838D01*
X158328062Y-100843409D01*
X158094340Y-100999576D01*
X158012916Y-101081000D01*
X150851084Y-101081000D01*
X150769660Y-100999576D01*
X150535938Y-100843409D01*
X150276241Y-100735838D01*
X150000547Y-100681000D01*
X149719453Y-100681000D01*
X149443759Y-100735838D01*
X149184062Y-100843409D01*
X148950340Y-100999576D01*
X148868916Y-101081000D01*
X130023084Y-101081000D01*
X129941660Y-100999576D01*
X129707938Y-100843409D01*
X129448241Y-100735838D01*
X129172547Y-100681000D01*
X128891453Y-100681000D01*
X128615759Y-100735838D01*
X128356062Y-100843409D01*
X128122340Y-100999576D01*
X128040916Y-101081000D01*
X111481084Y-101081000D01*
X111399660Y-100999576D01*
X111165938Y-100843409D01*
X110906241Y-100735838D01*
X110630547Y-100681000D01*
X110349453Y-100681000D01*
X110073759Y-100735838D01*
X109814062Y-100843409D01*
X109580340Y-100999576D01*
X109498916Y-101081000D01*
X102666443Y-101081000D01*
X102616000Y-101076032D01*
X102565556Y-101081000D01*
X102565549Y-101081000D01*
X102432831Y-101094072D01*
X102414672Y-101095860D01*
X102355947Y-101113674D01*
X102221083Y-101154585D01*
X102042669Y-101249949D01*
X102042667Y-101249950D01*
X102042668Y-101249950D01*
X101925475Y-101346127D01*
X101925470Y-101346132D01*
X101886288Y-101378288D01*
X101854132Y-101417470D01*
X98115476Y-105156128D01*
X98076289Y-105188288D01*
X98044129Y-105227475D01*
X98044128Y-105227476D01*
X97947950Y-105344669D01*
X97852586Y-105523083D01*
X97793861Y-105716673D01*
X97774032Y-105918000D01*
X84372000Y-105918000D01*
X84372000Y-88209200D01*
X84825613Y-88209200D01*
X84833001Y-88284211D01*
X84833000Y-95510199D01*
X84825613Y-95585200D01*
X84833000Y-95660201D01*
X84833000Y-95660210D01*
X84855095Y-95884543D01*
X84942410Y-96172384D01*
X85084203Y-96437659D01*
X85275024Y-96670176D01*
X85333294Y-96717997D01*
X89419677Y-100804381D01*
X89562064Y-101017479D01*
X89781721Y-101237136D01*
X90040011Y-101409719D01*
X90327006Y-101528596D01*
X90631679Y-101589200D01*
X90942321Y-101589200D01*
X91246994Y-101528596D01*
X91533989Y-101409719D01*
X91792279Y-101237136D01*
X92011936Y-101017479D01*
X92184519Y-100759189D01*
X92303396Y-100472194D01*
X92364000Y-100167521D01*
X92364000Y-99856879D01*
X92303396Y-99552206D01*
X92184519Y-99265211D01*
X92011936Y-99006921D01*
X91792279Y-98787264D01*
X91579181Y-98644877D01*
X88100606Y-95166302D01*
X113862000Y-95166302D01*
X113862000Y-95427698D01*
X113912996Y-95684072D01*
X114013028Y-95925570D01*
X114158252Y-96142913D01*
X114343087Y-96327748D01*
X114560430Y-96472972D01*
X114801928Y-96573004D01*
X115058302Y-96624000D01*
X115319698Y-96624000D01*
X115576072Y-96573004D01*
X115817570Y-96472972D01*
X116034913Y-96327748D01*
X116219748Y-96142913D01*
X116364972Y-95925570D01*
X116465004Y-95684072D01*
X116516000Y-95427698D01*
X116516000Y-95166302D01*
X122625000Y-95166302D01*
X122625000Y-95427698D01*
X122675996Y-95684072D01*
X122776028Y-95925570D01*
X122921252Y-96142913D01*
X123106087Y-96327748D01*
X123323430Y-96472972D01*
X123564928Y-96573004D01*
X123821302Y-96624000D01*
X124082698Y-96624000D01*
X124339072Y-96573004D01*
X124580570Y-96472972D01*
X124797913Y-96327748D01*
X124982748Y-96142913D01*
X125127972Y-95925570D01*
X125228004Y-95684072D01*
X125279000Y-95427698D01*
X125279000Y-95166302D01*
X131388000Y-95166302D01*
X131388000Y-95427698D01*
X131438996Y-95684072D01*
X131539028Y-95925570D01*
X131684252Y-96142913D01*
X131869087Y-96327748D01*
X132086430Y-96472972D01*
X132327928Y-96573004D01*
X132584302Y-96624000D01*
X132845698Y-96624000D01*
X133102072Y-96573004D01*
X133343570Y-96472972D01*
X133560913Y-96327748D01*
X133745748Y-96142913D01*
X133890972Y-95925570D01*
X133991004Y-95684072D01*
X134042000Y-95427698D01*
X134042000Y-95166302D01*
X133991004Y-94909928D01*
X133890972Y-94668430D01*
X133745748Y-94451087D01*
X133560913Y-94266252D01*
X133343570Y-94121028D01*
X133102072Y-94020996D01*
X132845698Y-93970000D01*
X132584302Y-93970000D01*
X132327928Y-94020996D01*
X132086430Y-94121028D01*
X131869087Y-94266252D01*
X131684252Y-94451087D01*
X131539028Y-94668430D01*
X131438996Y-94909928D01*
X131388000Y-95166302D01*
X125279000Y-95166302D01*
X125228004Y-94909928D01*
X125127972Y-94668430D01*
X124982748Y-94451087D01*
X124797913Y-94266252D01*
X124580570Y-94121028D01*
X124339072Y-94020996D01*
X124082698Y-93970000D01*
X123821302Y-93970000D01*
X123564928Y-94020996D01*
X123323430Y-94121028D01*
X123106087Y-94266252D01*
X122921252Y-94451087D01*
X122776028Y-94668430D01*
X122675996Y-94909928D01*
X122625000Y-95166302D01*
X116516000Y-95166302D01*
X116465004Y-94909928D01*
X116364972Y-94668430D01*
X116219748Y-94451087D01*
X116034913Y-94266252D01*
X115817570Y-94121028D01*
X115576072Y-94020996D01*
X115319698Y-93970000D01*
X115058302Y-93970000D01*
X114801928Y-94020996D01*
X114560430Y-94121028D01*
X114343087Y-94266252D01*
X114158252Y-94451087D01*
X114013028Y-94668430D01*
X113912996Y-94909928D01*
X113862000Y-95166302D01*
X88100606Y-95166302D01*
X87887000Y-94952697D01*
X87887000Y-88841703D01*
X91419504Y-85309200D01*
X98389697Y-85309200D01*
X104404208Y-91323712D01*
X104452024Y-91381976D01*
X104510288Y-91429792D01*
X104510289Y-91429793D01*
X104684539Y-91572797D01*
X104949815Y-91714590D01*
X105237655Y-91801905D01*
X105537000Y-91831388D01*
X105612011Y-91824000D01*
X132790011Y-91824000D01*
X133014344Y-91801905D01*
X133302185Y-91714590D01*
X133466897Y-91626549D01*
X133515000Y-91626549D01*
X133618310Y-91616374D01*
X133717650Y-91586239D01*
X133809202Y-91537304D01*
X133889448Y-91471448D01*
X133955304Y-91391202D01*
X134004239Y-91299650D01*
X134034374Y-91200310D01*
X134044549Y-91097000D01*
X134044549Y-91048897D01*
X134132590Y-90884185D01*
X134219905Y-90596344D01*
X134249388Y-90297000D01*
X134219905Y-89997656D01*
X134132590Y-89709815D01*
X134044549Y-89545103D01*
X134044549Y-89497000D01*
X134034374Y-89393690D01*
X134004239Y-89294350D01*
X133955304Y-89202798D01*
X133889448Y-89122552D01*
X133809202Y-89056696D01*
X133717650Y-89007761D01*
X133618310Y-88977626D01*
X133515000Y-88967451D01*
X133466897Y-88967451D01*
X133302185Y-88879410D01*
X133014344Y-88792095D01*
X132790011Y-88770000D01*
X106169504Y-88770000D01*
X100154997Y-82755494D01*
X100107176Y-82697224D01*
X99874660Y-82506403D01*
X99609385Y-82364610D01*
X99321544Y-82277295D01*
X99097211Y-82255200D01*
X99097201Y-82255200D01*
X99022200Y-82247813D01*
X98947199Y-82255200D01*
X91753691Y-82255200D01*
X92551178Y-81924870D01*
X93374526Y-81374726D01*
X94074726Y-80674526D01*
X94624870Y-79851178D01*
X95003816Y-78936322D01*
X95197000Y-77965116D01*
X95197000Y-76974884D01*
X95003816Y-76003678D01*
X94624870Y-75088822D01*
X94074726Y-74265474D01*
X93374526Y-73565274D01*
X92551178Y-73015130D01*
X91636322Y-72636184D01*
X90665116Y-72443000D01*
X89674884Y-72443000D01*
X88703678Y-72636184D01*
X87788822Y-73015130D01*
X86965474Y-73565274D01*
X86265274Y-74265474D01*
X85715130Y-75088822D01*
X85336184Y-76003678D01*
X85143000Y-76974884D01*
X85143000Y-77965116D01*
X85336184Y-78936322D01*
X85715130Y-79851178D01*
X86265274Y-80674526D01*
X86965474Y-81374726D01*
X87788822Y-81924870D01*
X88703678Y-82303816D01*
X89674884Y-82497000D01*
X89871913Y-82497000D01*
X89781721Y-82557264D01*
X89562064Y-82776921D01*
X89419677Y-82990019D01*
X85333289Y-87076408D01*
X85275025Y-87124224D01*
X85227209Y-87182488D01*
X85227208Y-87182489D01*
X85084204Y-87356740D01*
X84942411Y-87622015D01*
X84855096Y-87909856D01*
X84825613Y-88209200D01*
X84372000Y-88209200D01*
X84372000Y-77491683D01*
X84445068Y-76563261D01*
X84657398Y-75678844D01*
X85005464Y-74838539D01*
X85480703Y-74063021D01*
X86071402Y-73371402D01*
X86763025Y-72780699D01*
X87538538Y-72305465D01*
X88378847Y-71957397D01*
X89263260Y-71745068D01*
X90191684Y-71672000D01*
X196828317Y-71672000D01*
X197756739Y-71745068D01*
X197756739Y-71745068D01*
G37*
X197756739Y-71745068D02*
X198641156Y-71957398D01*
X199481461Y-72305464D01*
X200256979Y-72780703D01*
X200948598Y-73371402D01*
X201539301Y-74063025D01*
X202014535Y-74838538D01*
X202362603Y-75678847D01*
X202574932Y-76563260D01*
X202648001Y-77491697D01*
X202648000Y-143488316D01*
X202574932Y-144416740D01*
X202362603Y-145301153D01*
X202014535Y-146141462D01*
X201539301Y-146916975D01*
X200948598Y-147608598D01*
X200256979Y-148199297D01*
X199481461Y-148674536D01*
X198641156Y-149022602D01*
X197756739Y-149234932D01*
X196828317Y-149308000D01*
X90191684Y-149308000D01*
X89263260Y-149234932D01*
X88378847Y-149022603D01*
X87538538Y-148674535D01*
X86763025Y-148199301D01*
X86071402Y-147608598D01*
X85480703Y-146916979D01*
X85005464Y-146141461D01*
X84657398Y-145301156D01*
X84445068Y-144416739D01*
X84372000Y-143488317D01*
X84372000Y-143014884D01*
X85143000Y-143014884D01*
X85143000Y-144005116D01*
X85336184Y-144976322D01*
X85715130Y-145891178D01*
X86265274Y-146714526D01*
X86965474Y-147414726D01*
X87788822Y-147964870D01*
X88703678Y-148343816D01*
X89674884Y-148537000D01*
X90665116Y-148537000D01*
X91636322Y-148343816D01*
X92551178Y-147964870D01*
X93374526Y-147414726D01*
X94074726Y-146714526D01*
X94624870Y-145891178D01*
X95003816Y-144976322D01*
X95110894Y-144438000D01*
X150766451Y-144438000D01*
X150766451Y-146138000D01*
X150776626Y-146241310D01*
X150806761Y-146340650D01*
X150855696Y-146432202D01*
X150921552Y-146512448D01*
X151001798Y-146578304D01*
X151093350Y-146627239D01*
X151192690Y-146657374D01*
X151296000Y-146667549D01*
X152996000Y-146667549D01*
X153099310Y-146657374D01*
X153198650Y-146627239D01*
X153290202Y-146578304D01*
X153370448Y-146512448D01*
X153436304Y-146432202D01*
X153485239Y-146340650D01*
X153515374Y-146241310D01*
X153525549Y-146138000D01*
X153525549Y-144438000D01*
X153515374Y-144334690D01*
X153485239Y-144235350D01*
X153436304Y-144143798D01*
X153370448Y-144063552D01*
X153290202Y-143997696D01*
X153198650Y-143948761D01*
X153099310Y-143918626D01*
X152996000Y-143908451D01*
X151296000Y-143908451D01*
X151192690Y-143918626D01*
X151093350Y-143948761D01*
X151001798Y-143997696D01*
X150921552Y-144063552D01*
X150855696Y-144143798D01*
X150806761Y-144235350D01*
X150776626Y-144334690D01*
X150766451Y-144438000D01*
X95110894Y-144438000D01*
X95197000Y-144005116D01*
X95197000Y-143014884D01*
X95003816Y-142043678D01*
X94624870Y-141128822D01*
X94074726Y-140305474D01*
X93374526Y-139605274D01*
X92624318Y-139104000D01*
X95140451Y-139104000D01*
X95140451Y-140804000D01*
X95150626Y-140907310D01*
X95180761Y-141006650D01*
X95229696Y-141098202D01*
X95295552Y-141178448D01*
X95375798Y-141244304D01*
X95467350Y-141293239D01*
X95566690Y-141323374D01*
X95670000Y-141333549D01*
X97370000Y-141333549D01*
X97473310Y-141323374D01*
X97572650Y-141293239D01*
X97664202Y-141244304D01*
X97744448Y-141178448D01*
X97810304Y-141098202D01*
X97859239Y-141006650D01*
X97889374Y-140907310D01*
X97899549Y-140804000D01*
X97899549Y-139104000D01*
X97889374Y-139000690D01*
X97859239Y-138901350D01*
X97810304Y-138809798D01*
X97744448Y-138729552D01*
X97664202Y-138663696D01*
X97572650Y-138614761D01*
X97473310Y-138584626D01*
X97370000Y-138574451D01*
X95670000Y-138574451D01*
X95566690Y-138584626D01*
X95467350Y-138614761D01*
X95375798Y-138663696D01*
X95295552Y-138729552D01*
X95229696Y-138809798D01*
X95180761Y-138901350D01*
X95150626Y-139000690D01*
X95140451Y-139104000D01*
X92624318Y-139104000D01*
X92551178Y-139055130D01*
X91636322Y-138676184D01*
X90665116Y-138483000D01*
X89674884Y-138483000D01*
X88703678Y-138676184D01*
X87788822Y-139055130D01*
X86965474Y-139605274D01*
X86265274Y-140305474D01*
X85715130Y-141128822D01*
X85336184Y-142043678D01*
X85143000Y-143014884D01*
X84372000Y-143014884D01*
X84372000Y-138379302D01*
X101289000Y-138379302D01*
X101289000Y-138640698D01*
X101339996Y-138897072D01*
X101440028Y-139138570D01*
X101585252Y-139355913D01*
X101770087Y-139540748D01*
X101987430Y-139685972D01*
X102228928Y-139786004D01*
X102485302Y-139837000D01*
X102746698Y-139837000D01*
X103003072Y-139786004D01*
X103244570Y-139685972D01*
X103461913Y-139540748D01*
X103646748Y-139355913D01*
X103791972Y-139138570D01*
X103892004Y-138897072D01*
X103943000Y-138640698D01*
X103943000Y-138379302D01*
X110179000Y-138379302D01*
X110179000Y-138640698D01*
X110229996Y-138897072D01*
X110330028Y-139138570D01*
X110475252Y-139355913D01*
X110660087Y-139540748D01*
X110877430Y-139685972D01*
X111118928Y-139786004D01*
X111375302Y-139837000D01*
X111636698Y-139837000D01*
X111893072Y-139786004D01*
X112134570Y-139685972D01*
X112351913Y-139540748D01*
X112536748Y-139355913D01*
X112681972Y-139138570D01*
X112782004Y-138897072D01*
X112833000Y-138640698D01*
X112833000Y-138379302D01*
X119069000Y-138379302D01*
X119069000Y-138640698D01*
X119119996Y-138897072D01*
X119220028Y-139138570D01*
X119365252Y-139355913D01*
X119550087Y-139540748D01*
X119767430Y-139685972D01*
X120008928Y-139786004D01*
X120265302Y-139837000D01*
X120526698Y-139837000D01*
X120783072Y-139786004D01*
X120932762Y-139724000D01*
X125732451Y-139724000D01*
X125732451Y-142724000D01*
X125742626Y-142827310D01*
X125772761Y-142926650D01*
X125821696Y-143018202D01*
X125887552Y-143098448D01*
X125967798Y-143164304D01*
X126059350Y-143213239D01*
X126158690Y-143243374D01*
X126262000Y-143253549D01*
X129262000Y-143253549D01*
X129365310Y-143243374D01*
X129464650Y-143213239D01*
X129556202Y-143164304D01*
X129636448Y-143098448D01*
X129702304Y-143018202D01*
X129704077Y-143014884D01*
X191823000Y-143014884D01*
X191823000Y-144005116D01*
X192016184Y-144976322D01*
X192395130Y-145891178D01*
X192945274Y-146714526D01*
X193645474Y-147414726D01*
X194468822Y-147964870D01*
X195383678Y-148343816D01*
X196354884Y-148537000D01*
X197345116Y-148537000D01*
X198316322Y-148343816D01*
X199231178Y-147964870D01*
X200054526Y-147414726D01*
X200754726Y-146714526D01*
X201304870Y-145891178D01*
X201683816Y-144976322D01*
X201877000Y-144005116D01*
X201877000Y-143014884D01*
X201683816Y-142043678D01*
X201304870Y-141128822D01*
X200754726Y-140305474D01*
X200054526Y-139605274D01*
X199231178Y-139055130D01*
X198316322Y-138676184D01*
X197345116Y-138483000D01*
X196354884Y-138483000D01*
X195383678Y-138676184D01*
X194468822Y-139055130D01*
X193645474Y-139605274D01*
X192945274Y-140305474D01*
X192395130Y-141128822D01*
X192016184Y-142043678D01*
X191823000Y-143014884D01*
X129704077Y-143014884D01*
X129751239Y-142926650D01*
X129781374Y-142827310D01*
X129791549Y-142724000D01*
X129791549Y-139724000D01*
X129781374Y-139620690D01*
X129751239Y-139521350D01*
X129702304Y-139429798D01*
X129636448Y-139349552D01*
X129556202Y-139283696D01*
X129464650Y-139234761D01*
X129365310Y-139204626D01*
X129262000Y-139194451D01*
X126262000Y-139194451D01*
X126158690Y-139204626D01*
X126059350Y-139234761D01*
X125967798Y-139283696D01*
X125887552Y-139349552D01*
X125821696Y-139429798D01*
X125772761Y-139521350D01*
X125742626Y-139620690D01*
X125732451Y-139724000D01*
X120932762Y-139724000D01*
X121024570Y-139685972D01*
X121241913Y-139540748D01*
X121426748Y-139355913D01*
X121571972Y-139138570D01*
X121672004Y-138897072D01*
X121723000Y-138640698D01*
X121723000Y-138379302D01*
X121672004Y-138122928D01*
X121571972Y-137881430D01*
X121426748Y-137664087D01*
X121241913Y-137479252D01*
X121024570Y-137334028D01*
X120783072Y-137233996D01*
X120526698Y-137183000D01*
X120265302Y-137183000D01*
X120008928Y-137233996D01*
X119767430Y-137334028D01*
X119550087Y-137479252D01*
X119365252Y-137664087D01*
X119220028Y-137881430D01*
X119119996Y-138122928D01*
X119069000Y-138379302D01*
X112833000Y-138379302D01*
X112782004Y-138122928D01*
X112681972Y-137881430D01*
X112536748Y-137664087D01*
X112351913Y-137479252D01*
X112134570Y-137334028D01*
X111893072Y-137233996D01*
X111636698Y-137183000D01*
X111375302Y-137183000D01*
X111118928Y-137233996D01*
X110877430Y-137334028D01*
X110660087Y-137479252D01*
X110475252Y-137664087D01*
X110330028Y-137881430D01*
X110229996Y-138122928D01*
X110179000Y-138379302D01*
X103943000Y-138379302D01*
X103892004Y-138122928D01*
X103791972Y-137881430D01*
X103646748Y-137664087D01*
X103461913Y-137479252D01*
X103244570Y-137334028D01*
X103003072Y-137233996D01*
X102746698Y-137183000D01*
X102485302Y-137183000D01*
X102228928Y-137233996D01*
X101987430Y-137334028D01*
X101770087Y-137479252D01*
X101585252Y-137664087D01*
X101440028Y-137881430D01*
X101339996Y-138122928D01*
X101289000Y-138379302D01*
X84372000Y-138379302D01*
X84372000Y-136271045D01*
X142856000Y-136271045D01*
X142856000Y-136524955D01*
X142905535Y-136773987D01*
X143002703Y-137008570D01*
X143143768Y-137219690D01*
X143323310Y-137399232D01*
X143534430Y-137540297D01*
X143769013Y-137637465D01*
X143922524Y-137668000D01*
X143769013Y-137698535D01*
X143534430Y-137795703D01*
X143323310Y-137936768D01*
X143143768Y-138116310D01*
X143002703Y-138327430D01*
X142905535Y-138562013D01*
X142856000Y-138811045D01*
X142856000Y-139064955D01*
X142905535Y-139313987D01*
X143002703Y-139548570D01*
X143143768Y-139759690D01*
X143323310Y-139939232D01*
X143534430Y-140080297D01*
X143769013Y-140177465D01*
X144018045Y-140227000D01*
X144271955Y-140227000D01*
X144520987Y-140177465D01*
X144755570Y-140080297D01*
X144966690Y-139939232D01*
X145146232Y-139759690D01*
X145287297Y-139548570D01*
X145384465Y-139313987D01*
X145415000Y-139160476D01*
X145445535Y-139313987D01*
X145542703Y-139548570D01*
X145683768Y-139759690D01*
X145863310Y-139939232D01*
X146074430Y-140080297D01*
X146309013Y-140177465D01*
X146558045Y-140227000D01*
X146811955Y-140227000D01*
X147060987Y-140177465D01*
X147295570Y-140080297D01*
X147506690Y-139939232D01*
X147686232Y-139759690D01*
X147827297Y-139548570D01*
X147924465Y-139313987D01*
X147955000Y-139160476D01*
X147985535Y-139313987D01*
X148082703Y-139548570D01*
X148223768Y-139759690D01*
X148403310Y-139939232D01*
X148614430Y-140080297D01*
X148849013Y-140177465D01*
X149098045Y-140227000D01*
X149351955Y-140227000D01*
X149600987Y-140177465D01*
X149835570Y-140080297D01*
X150046690Y-139939232D01*
X150226232Y-139759690D01*
X150367297Y-139548570D01*
X150464465Y-139313987D01*
X150495000Y-139160476D01*
X150525535Y-139313987D01*
X150622703Y-139548570D01*
X150763768Y-139759690D01*
X150943310Y-139939232D01*
X151154430Y-140080297D01*
X151389013Y-140177465D01*
X151638045Y-140227000D01*
X151891955Y-140227000D01*
X152140987Y-140177465D01*
X152375570Y-140080297D01*
X152586690Y-139939232D01*
X152766232Y-139759690D01*
X152907297Y-139548570D01*
X153004465Y-139313987D01*
X153035000Y-139160476D01*
X153065535Y-139313987D01*
X153162703Y-139548570D01*
X153303768Y-139759690D01*
X153483310Y-139939232D01*
X153694430Y-140080297D01*
X153929013Y-140177465D01*
X154178045Y-140227000D01*
X154431955Y-140227000D01*
X154680987Y-140177465D01*
X154915570Y-140080297D01*
X155126690Y-139939232D01*
X155306232Y-139759690D01*
X155447297Y-139548570D01*
X155544465Y-139313987D01*
X155575000Y-139160476D01*
X155605535Y-139313987D01*
X155702703Y-139548570D01*
X155843768Y-139759690D01*
X156023310Y-139939232D01*
X156234430Y-140080297D01*
X156469013Y-140177465D01*
X156718045Y-140227000D01*
X156971955Y-140227000D01*
X157220987Y-140177465D01*
X157455570Y-140080297D01*
X157666690Y-139939232D01*
X157846232Y-139759690D01*
X157987297Y-139548570D01*
X158084465Y-139313987D01*
X158115000Y-139160476D01*
X158145535Y-139313987D01*
X158242703Y-139548570D01*
X158383768Y-139759690D01*
X158563310Y-139939232D01*
X158774430Y-140080297D01*
X159009013Y-140177465D01*
X159258045Y-140227000D01*
X159511955Y-140227000D01*
X159760987Y-140177465D01*
X159995570Y-140080297D01*
X160206690Y-139939232D01*
X160386232Y-139759690D01*
X160527297Y-139548570D01*
X160624465Y-139313987D01*
X160655000Y-139160476D01*
X160685535Y-139313987D01*
X160782703Y-139548570D01*
X160923768Y-139759690D01*
X161103310Y-139939232D01*
X161314430Y-140080297D01*
X161549013Y-140177465D01*
X161798045Y-140227000D01*
X162051955Y-140227000D01*
X162300987Y-140177465D01*
X162535570Y-140080297D01*
X162746690Y-139939232D01*
X162926232Y-139759690D01*
X163067297Y-139548570D01*
X163164465Y-139313987D01*
X163195000Y-139160476D01*
X163225535Y-139313987D01*
X163322703Y-139548570D01*
X163463768Y-139759690D01*
X163643310Y-139939232D01*
X163854430Y-140080297D01*
X164089013Y-140177465D01*
X164338045Y-140227000D01*
X164591955Y-140227000D01*
X164840987Y-140177465D01*
X165075570Y-140080297D01*
X165286690Y-139939232D01*
X165466232Y-139759690D01*
X165607297Y-139548570D01*
X165704465Y-139313987D01*
X165754000Y-139064955D01*
X165754000Y-138811045D01*
X165704465Y-138562013D01*
X165607297Y-138327430D01*
X165466232Y-138116310D01*
X165286690Y-137936768D01*
X165075570Y-137795703D01*
X164840987Y-137698535D01*
X164687476Y-137668000D01*
X164840987Y-137637465D01*
X165075570Y-137540297D01*
X165286690Y-137399232D01*
X165466232Y-137219690D01*
X165607297Y-137008570D01*
X165704465Y-136773987D01*
X165754000Y-136524955D01*
X165754000Y-136271045D01*
X165704465Y-136022013D01*
X165607297Y-135787430D01*
X165466232Y-135576310D01*
X165286690Y-135396768D01*
X165075570Y-135255703D01*
X164840987Y-135158535D01*
X164591955Y-135109000D01*
X164338045Y-135109000D01*
X164089013Y-135158535D01*
X163854430Y-135255703D01*
X163643310Y-135396768D01*
X163463768Y-135576310D01*
X163322703Y-135787430D01*
X163225535Y-136022013D01*
X163195000Y-136175524D01*
X163164465Y-136022013D01*
X163067297Y-135787430D01*
X162926232Y-135576310D01*
X162746690Y-135396768D01*
X162535570Y-135255703D01*
X162300987Y-135158535D01*
X162051955Y-135109000D01*
X161798045Y-135109000D01*
X161549013Y-135158535D01*
X161314430Y-135255703D01*
X161103310Y-135396768D01*
X160923768Y-135576310D01*
X160782703Y-135787430D01*
X160685535Y-136022013D01*
X160655000Y-136175524D01*
X160624465Y-136022013D01*
X160527297Y-135787430D01*
X160386232Y-135576310D01*
X160206690Y-135396768D01*
X159995570Y-135255703D01*
X159760987Y-135158535D01*
X159511955Y-135109000D01*
X159258045Y-135109000D01*
X159009013Y-135158535D01*
X158774430Y-135255703D01*
X158563310Y-135396768D01*
X158383768Y-135576310D01*
X158242703Y-135787430D01*
X158145535Y-136022013D01*
X158115000Y-136175524D01*
X158084465Y-136022013D01*
X157987297Y-135787430D01*
X157846232Y-135576310D01*
X157666690Y-135396768D01*
X157455570Y-135255703D01*
X157220987Y-135158535D01*
X156971955Y-135109000D01*
X156718045Y-135109000D01*
X156469013Y-135158535D01*
X156234430Y-135255703D01*
X156023310Y-135396768D01*
X155843768Y-135576310D01*
X155702703Y-135787430D01*
X155605535Y-136022013D01*
X155575000Y-136175524D01*
X155544465Y-136022013D01*
X155447297Y-135787430D01*
X155306232Y-135576310D01*
X155126690Y-135396768D01*
X154915570Y-135255703D01*
X154680987Y-135158535D01*
X154431955Y-135109000D01*
X154178045Y-135109000D01*
X153929013Y-135158535D01*
X153694430Y-135255703D01*
X153483310Y-135396768D01*
X153303768Y-135576310D01*
X153162703Y-135787430D01*
X153065535Y-136022013D01*
X153016000Y-136271045D01*
X153016000Y-136524955D01*
X153065535Y-136773987D01*
X153162703Y-137008570D01*
X153303768Y-137219690D01*
X153483310Y-137399232D01*
X153694430Y-137540297D01*
X153929013Y-137637465D01*
X154082524Y-137668000D01*
X153929013Y-137698535D01*
X153694430Y-137795703D01*
X153483310Y-137936768D01*
X153303768Y-138116310D01*
X153162703Y-138327430D01*
X153065535Y-138562013D01*
X153035000Y-138715524D01*
X153004465Y-138562013D01*
X152907297Y-138327430D01*
X152766232Y-138116310D01*
X152586690Y-137936768D01*
X152375570Y-137795703D01*
X152140987Y-137698535D01*
X151891955Y-137649000D01*
X151638045Y-137649000D01*
X151389013Y-137698535D01*
X151154430Y-137795703D01*
X150943310Y-137936768D01*
X150763768Y-138116310D01*
X150622703Y-138327430D01*
X150525535Y-138562013D01*
X150495000Y-138715524D01*
X150464465Y-138562013D01*
X150367297Y-138327430D01*
X150226232Y-138116310D01*
X150046690Y-137936768D01*
X149835570Y-137795703D01*
X149600987Y-137698535D01*
X149447476Y-137668000D01*
X149600987Y-137637465D01*
X149835570Y-137540297D01*
X150046690Y-137399232D01*
X150226232Y-137219690D01*
X150367297Y-137008570D01*
X150464465Y-136773987D01*
X150514000Y-136524955D01*
X150514000Y-136271045D01*
X150464465Y-136022013D01*
X150367297Y-135787430D01*
X150226232Y-135576310D01*
X150046690Y-135396768D01*
X149835570Y-135255703D01*
X149600987Y-135158535D01*
X149351955Y-135109000D01*
X149098045Y-135109000D01*
X148849013Y-135158535D01*
X148614430Y-135255703D01*
X148403310Y-135396768D01*
X148223768Y-135576310D01*
X148082703Y-135787430D01*
X147985535Y-136022013D01*
X147955000Y-136175524D01*
X147924465Y-136022013D01*
X147827297Y-135787430D01*
X147686232Y-135576310D01*
X147506690Y-135396768D01*
X147295570Y-135255703D01*
X147060987Y-135158535D01*
X146811955Y-135109000D01*
X146558045Y-135109000D01*
X146309013Y-135158535D01*
X146074430Y-135255703D01*
X145863310Y-135396768D01*
X145683768Y-135576310D01*
X145542703Y-135787430D01*
X145445535Y-136022013D01*
X145415000Y-136175524D01*
X145384465Y-136022013D01*
X145287297Y-135787430D01*
X145146232Y-135576310D01*
X144966690Y-135396768D01*
X144755570Y-135255703D01*
X144520987Y-135158535D01*
X144271955Y-135109000D01*
X144018045Y-135109000D01*
X143769013Y-135158535D01*
X143534430Y-135255703D01*
X143323310Y-135396768D01*
X143143768Y-135576310D01*
X143002703Y-135787430D01*
X142905535Y-136022013D01*
X142856000Y-136271045D01*
X84372000Y-136271045D01*
X84372000Y-134045279D01*
X89006800Y-134045279D01*
X89006800Y-134355921D01*
X89067404Y-134660594D01*
X89186281Y-134947589D01*
X89358864Y-135205879D01*
X89578521Y-135425536D01*
X89836811Y-135598119D01*
X90123806Y-135716996D01*
X90428479Y-135777600D01*
X90739121Y-135777600D01*
X91043794Y-135716996D01*
X91330789Y-135598119D01*
X91589079Y-135425536D01*
X91808736Y-135205879D01*
X91981319Y-134947589D01*
X92100196Y-134660594D01*
X92160800Y-134355921D01*
X92160800Y-134045279D01*
X92100196Y-133740606D01*
X91981319Y-133453611D01*
X91808736Y-133195321D01*
X91589079Y-132975664D01*
X91330789Y-132803081D01*
X91043794Y-132684204D01*
X90739121Y-132623600D01*
X90428479Y-132623600D01*
X90123806Y-132684204D01*
X89836811Y-132803081D01*
X89578521Y-132975664D01*
X89358864Y-133195321D01*
X89186281Y-133453611D01*
X89067404Y-133740606D01*
X89006800Y-134045279D01*
X84372000Y-134045279D01*
X84372000Y-117815279D01*
X89006800Y-117815279D01*
X89006800Y-118125921D01*
X89067404Y-118430594D01*
X89186281Y-118717589D01*
X89358864Y-118975879D01*
X89578521Y-119195536D01*
X89836811Y-119368119D01*
X90123806Y-119486996D01*
X90428479Y-119547600D01*
X90739121Y-119547600D01*
X91043794Y-119486996D01*
X91330789Y-119368119D01*
X91589079Y-119195536D01*
X91808736Y-118975879D01*
X91981319Y-118717589D01*
X92100196Y-118430594D01*
X92160800Y-118125921D01*
X92160800Y-117815279D01*
X92100196Y-117510606D01*
X91981319Y-117223611D01*
X91808736Y-116965321D01*
X91589079Y-116745664D01*
X91330789Y-116573081D01*
X91043794Y-116454204D01*
X90739121Y-116393600D01*
X90428479Y-116393600D01*
X90123806Y-116454204D01*
X89836811Y-116573081D01*
X89578521Y-116745664D01*
X89358864Y-116965321D01*
X89186281Y-117223611D01*
X89067404Y-117510606D01*
X89006800Y-117815279D01*
X84372000Y-117815279D01*
X84372000Y-113958000D01*
X89158751Y-113958000D01*
X89158751Y-115658000D01*
X89168926Y-115761310D01*
X89199061Y-115860650D01*
X89247996Y-115952202D01*
X89313852Y-116032448D01*
X89394098Y-116098304D01*
X89485650Y-116147239D01*
X89584990Y-116177374D01*
X89688300Y-116187549D01*
X91388300Y-116187549D01*
X91491610Y-116177374D01*
X91590950Y-116147239D01*
X91682502Y-116098304D01*
X91762748Y-116032448D01*
X91828604Y-115952202D01*
X91877539Y-115860650D01*
X91907674Y-115761310D01*
X91917849Y-115658000D01*
X91917849Y-113958000D01*
X91907674Y-113854690D01*
X91877539Y-113755350D01*
X91828604Y-113663798D01*
X91762748Y-113583552D01*
X91682502Y-113517696D01*
X91590950Y-113468761D01*
X91491610Y-113438626D01*
X91388300Y-113428451D01*
X89688300Y-113428451D01*
X89584990Y-113438626D01*
X89485650Y-113468761D01*
X89394098Y-113517696D01*
X89313852Y-113583552D01*
X89247996Y-113663798D01*
X89199061Y-113755350D01*
X89168926Y-113854690D01*
X89158751Y-113958000D01*
X84372000Y-113958000D01*
X84372000Y-105918000D01*
X97774032Y-105918000D01*
X97779001Y-105968451D01*
X97779000Y-120853559D01*
X97774032Y-120904000D01*
X97779000Y-120954441D01*
X97779000Y-120954450D01*
X97793860Y-121105326D01*
X97852585Y-121298916D01*
X97947949Y-121477331D01*
X98076288Y-121633712D01*
X98115481Y-121665877D01*
X108204132Y-131754530D01*
X108236288Y-131793712D01*
X108275470Y-131825868D01*
X108275475Y-131825873D01*
X108374100Y-131906812D01*
X108392669Y-131922051D01*
X108571083Y-132017415D01*
X108705947Y-132058326D01*
X108764672Y-132076140D01*
X108782831Y-132077928D01*
X108915549Y-132091000D01*
X108915556Y-132091000D01*
X108966000Y-132095968D01*
X109016443Y-132091000D01*
X177563234Y-132091000D01*
X181165572Y-135693339D01*
X181102703Y-135787430D01*
X181005535Y-136022013D01*
X180975000Y-136175524D01*
X180944465Y-136022013D01*
X180847297Y-135787430D01*
X180706232Y-135576310D01*
X180526690Y-135396768D01*
X180315570Y-135255703D01*
X180080987Y-135158535D01*
X179831955Y-135109000D01*
X179578045Y-135109000D01*
X179329013Y-135158535D01*
X179094430Y-135255703D01*
X178883310Y-135396768D01*
X178703768Y-135576310D01*
X178562703Y-135787430D01*
X178465535Y-136022013D01*
X178435000Y-136175524D01*
X178404465Y-136022013D01*
X178307297Y-135787430D01*
X178166232Y-135576310D01*
X177986690Y-135396768D01*
X177775570Y-135255703D01*
X177540987Y-135158535D01*
X177291955Y-135109000D01*
X177038045Y-135109000D01*
X176789013Y-135158535D01*
X176554430Y-135255703D01*
X176343310Y-135396768D01*
X176163768Y-135576310D01*
X176022703Y-135787430D01*
X175925535Y-136022013D01*
X175895000Y-136175524D01*
X175864465Y-136022013D01*
X175767297Y-135787430D01*
X175626232Y-135576310D01*
X175446690Y-135396768D01*
X175235570Y-135255703D01*
X175000987Y-135158535D01*
X174751955Y-135109000D01*
X174498045Y-135109000D01*
X174249013Y-135158535D01*
X174014430Y-135255703D01*
X173803310Y-135396768D01*
X173623768Y-135576310D01*
X173482703Y-135787430D01*
X173385535Y-136022013D01*
X173355000Y-136175524D01*
X173324465Y-136022013D01*
X173227297Y-135787430D01*
X173086232Y-135576310D01*
X172906690Y-135396768D01*
X172695570Y-135255703D01*
X172460987Y-135158535D01*
X172211955Y-135109000D01*
X171958045Y-135109000D01*
X171709013Y-135158535D01*
X171474430Y-135255703D01*
X171263310Y-135396768D01*
X171083768Y-135576310D01*
X170942703Y-135787430D01*
X170845535Y-136022013D01*
X170796000Y-136271045D01*
X170796000Y-136524955D01*
X170845535Y-136773987D01*
X170942703Y-137008570D01*
X171083768Y-137219690D01*
X171263310Y-137399232D01*
X171474430Y-137540297D01*
X171709013Y-137637465D01*
X171862524Y-137668000D01*
X171709013Y-137698535D01*
X171474430Y-137795703D01*
X171263310Y-137936768D01*
X171083768Y-138116310D01*
X170942703Y-138327430D01*
X170845535Y-138562013D01*
X170815000Y-138715524D01*
X170784465Y-138562013D01*
X170687297Y-138327430D01*
X170546232Y-138116310D01*
X170366690Y-137936768D01*
X170155570Y-137795703D01*
X169920987Y-137698535D01*
X169671955Y-137649000D01*
X169418045Y-137649000D01*
X169169013Y-137698535D01*
X168934430Y-137795703D01*
X168723310Y-137936768D01*
X168543768Y-138116310D01*
X168402703Y-138327430D01*
X168305535Y-138562013D01*
X168256000Y-138811045D01*
X168256000Y-139064955D01*
X168305535Y-139313987D01*
X168402703Y-139548570D01*
X168543768Y-139759690D01*
X168723310Y-139939232D01*
X168934430Y-140080297D01*
X169169013Y-140177465D01*
X169418045Y-140227000D01*
X169671955Y-140227000D01*
X169920987Y-140177465D01*
X170155570Y-140080297D01*
X170366690Y-139939232D01*
X170546232Y-139759690D01*
X170687297Y-139548570D01*
X170784465Y-139313987D01*
X170815000Y-139160476D01*
X170845535Y-139313987D01*
X170942703Y-139548570D01*
X171083768Y-139759690D01*
X171263310Y-139939232D01*
X171474430Y-140080297D01*
X171709013Y-140177465D01*
X171958045Y-140227000D01*
X172211955Y-140227000D01*
X172460987Y-140177465D01*
X172695570Y-140080297D01*
X172906690Y-139939232D01*
X173086232Y-139759690D01*
X173227297Y-139548570D01*
X173324465Y-139313987D01*
X173355000Y-139160476D01*
X173385535Y-139313987D01*
X173482703Y-139548570D01*
X173623768Y-139759690D01*
X173803310Y-139939232D01*
X174014430Y-140080297D01*
X174249013Y-140177465D01*
X174498045Y-140227000D01*
X174751955Y-140227000D01*
X175000987Y-140177465D01*
X175235570Y-140080297D01*
X175446690Y-139939232D01*
X175626232Y-139759690D01*
X175767297Y-139548570D01*
X175864465Y-139313987D01*
X175895000Y-139160476D01*
X175925535Y-139313987D01*
X176022703Y-139548570D01*
X176163768Y-139759690D01*
X176343310Y-139939232D01*
X176554430Y-140080297D01*
X176789013Y-140177465D01*
X177038045Y-140227000D01*
X177291955Y-140227000D01*
X177540987Y-140177465D01*
X177775570Y-140080297D01*
X177986690Y-139939232D01*
X178166232Y-139759690D01*
X178307297Y-139548570D01*
X178404465Y-139313987D01*
X178435000Y-139160476D01*
X178465535Y-139313987D01*
X178562703Y-139548570D01*
X178703768Y-139759690D01*
X178883310Y-139939232D01*
X179094430Y-140080297D01*
X179329013Y-140177465D01*
X179578045Y-140227000D01*
X179831955Y-140227000D01*
X180080987Y-140177465D01*
X180315570Y-140080297D01*
X180526690Y-139939232D01*
X180706232Y-139759690D01*
X180847297Y-139548570D01*
X180944465Y-139313987D01*
X180975000Y-139160476D01*
X181005535Y-139313987D01*
X181102703Y-139548570D01*
X181243768Y-139759690D01*
X181423310Y-139939232D01*
X181634430Y-140080297D01*
X181869013Y-140177465D01*
X182118045Y-140227000D01*
X182371955Y-140227000D01*
X182620987Y-140177465D01*
X182855570Y-140080297D01*
X183066690Y-139939232D01*
X183246232Y-139759690D01*
X183387297Y-139548570D01*
X183484465Y-139313987D01*
X183515000Y-139160476D01*
X183545535Y-139313987D01*
X183642703Y-139548570D01*
X183783768Y-139759690D01*
X183963310Y-139939232D01*
X184174430Y-140080297D01*
X184409013Y-140177465D01*
X184658045Y-140227000D01*
X184911955Y-140227000D01*
X185160987Y-140177465D01*
X185395570Y-140080297D01*
X185606690Y-139939232D01*
X185786232Y-139759690D01*
X185927297Y-139548570D01*
X186024465Y-139313987D01*
X186055000Y-139160476D01*
X186085535Y-139313987D01*
X186182703Y-139548570D01*
X186323768Y-139759690D01*
X186503310Y-139939232D01*
X186714430Y-140080297D01*
X186949013Y-140177465D01*
X187198045Y-140227000D01*
X187451955Y-140227000D01*
X187700987Y-140177465D01*
X187935570Y-140080297D01*
X188146690Y-139939232D01*
X188326232Y-139759690D01*
X188467297Y-139548570D01*
X188564465Y-139313987D01*
X188595000Y-139160476D01*
X188625535Y-139313987D01*
X188722703Y-139548570D01*
X188863768Y-139759690D01*
X189043310Y-139939232D01*
X189254430Y-140080297D01*
X189489013Y-140177465D01*
X189738045Y-140227000D01*
X189991955Y-140227000D01*
X190240987Y-140177465D01*
X190475570Y-140080297D01*
X190686690Y-139939232D01*
X190866232Y-139759690D01*
X191007297Y-139548570D01*
X191104465Y-139313987D01*
X191154000Y-139064955D01*
X191154000Y-138811045D01*
X191104465Y-138562013D01*
X191007297Y-138327430D01*
X190866232Y-138116310D01*
X190686690Y-137936768D01*
X190475570Y-137795703D01*
X190240987Y-137698535D01*
X190087476Y-137668000D01*
X190240987Y-137637465D01*
X190475570Y-137540297D01*
X190686690Y-137399232D01*
X190866232Y-137219690D01*
X191007297Y-137008570D01*
X191104465Y-136773987D01*
X191154000Y-136524955D01*
X191154000Y-136271045D01*
X191104465Y-136022013D01*
X191007297Y-135787430D01*
X190866232Y-135576310D01*
X190686690Y-135396768D01*
X190475570Y-135255703D01*
X190240987Y-135158535D01*
X189991955Y-135109000D01*
X189738045Y-135109000D01*
X189489013Y-135158535D01*
X189254430Y-135255703D01*
X189043310Y-135396768D01*
X188863768Y-135576310D01*
X188722703Y-135787430D01*
X188625535Y-136022013D01*
X188595000Y-136175524D01*
X188564465Y-136022013D01*
X188467297Y-135787430D01*
X188326232Y-135576310D01*
X188146690Y-135396768D01*
X187935570Y-135255703D01*
X187700987Y-135158535D01*
X187451955Y-135109000D01*
X187198045Y-135109000D01*
X186949013Y-135158535D01*
X186714430Y-135255703D01*
X186503310Y-135396768D01*
X186323768Y-135576310D01*
X186182703Y-135787430D01*
X186085535Y-136022013D01*
X186055000Y-136175524D01*
X186024465Y-136022013D01*
X185927297Y-135787430D01*
X185786232Y-135576310D01*
X185606690Y-135396768D01*
X185395570Y-135255703D01*
X185160987Y-135158535D01*
X184911955Y-135109000D01*
X184658045Y-135109000D01*
X184409013Y-135158535D01*
X184174430Y-135255703D01*
X183963310Y-135396768D01*
X183783768Y-135576310D01*
X183642703Y-135787430D01*
X183545535Y-136022013D01*
X183515000Y-136175524D01*
X183484465Y-136022013D01*
X183387297Y-135787430D01*
X183272000Y-135614875D01*
X183272000Y-135370810D01*
X183276968Y-135320369D01*
X183272000Y-135269928D01*
X183272000Y-135269919D01*
X183257140Y-135119043D01*
X183198415Y-134925453D01*
X183103051Y-134747039D01*
X182974712Y-134590658D01*
X182935525Y-134558498D01*
X178750507Y-130373481D01*
X178718342Y-130334288D01*
X178561961Y-130205949D01*
X178383547Y-130110585D01*
X178189957Y-130051860D01*
X178039081Y-130037000D01*
X178039071Y-130037000D01*
X177988630Y-130032032D01*
X177938189Y-130037000D01*
X109391398Y-130037000D01*
X99833000Y-120478604D01*
X99833000Y-116154953D01*
X105289500Y-116154953D01*
X105289500Y-116436047D01*
X105344338Y-116711741D01*
X105451909Y-116971438D01*
X105608076Y-117205160D01*
X105806840Y-117403924D01*
X106040562Y-117560091D01*
X106300259Y-117667662D01*
X106311502Y-117669898D01*
X115062132Y-126420530D01*
X115094288Y-126459712D01*
X115133470Y-126491868D01*
X115133475Y-126491873D01*
X115232100Y-126572812D01*
X115250669Y-126588051D01*
X115429083Y-126683415D01*
X115563947Y-126724326D01*
X115622672Y-126742140D01*
X115640831Y-126743928D01*
X115773549Y-126757000D01*
X115773556Y-126757000D01*
X115824000Y-126761968D01*
X115874443Y-126757000D01*
X122706916Y-126757000D01*
X122788340Y-126838424D01*
X123022062Y-126994591D01*
X123281759Y-127102162D01*
X123557453Y-127157000D01*
X123838547Y-127157000D01*
X124114241Y-127102162D01*
X124373938Y-126994591D01*
X124607660Y-126838424D01*
X124689084Y-126757000D01*
X131342916Y-126757000D01*
X131424340Y-126838424D01*
X131658062Y-126994591D01*
X131917759Y-127102162D01*
X132193453Y-127157000D01*
X132474547Y-127157000D01*
X132750241Y-127102162D01*
X133009938Y-126994591D01*
X133243660Y-126838424D01*
X133325084Y-126757000D01*
X134569559Y-126757000D01*
X134620000Y-126761968D01*
X134670441Y-126757000D01*
X134670451Y-126757000D01*
X134821327Y-126742140D01*
X135014917Y-126683415D01*
X135193331Y-126588051D01*
X135349712Y-126459712D01*
X135381877Y-126420519D01*
X136677396Y-125125000D01*
X136792547Y-125125000D01*
X137068241Y-125070162D01*
X137327938Y-124962591D01*
X137561660Y-124806424D01*
X137760424Y-124607660D01*
X137916591Y-124373938D01*
X138024162Y-124114241D01*
X138079000Y-123838547D01*
X138079000Y-123723396D01*
X143780397Y-118022000D01*
X169943451Y-118022000D01*
X169943451Y-119722000D01*
X169953626Y-119825310D01*
X169983761Y-119924650D01*
X170032696Y-120016202D01*
X170098552Y-120096448D01*
X170178798Y-120162304D01*
X170270350Y-120211239D01*
X170369690Y-120241374D01*
X170473000Y-120251549D01*
X172173000Y-120251549D01*
X172276310Y-120241374D01*
X172375650Y-120211239D01*
X172467202Y-120162304D01*
X172547448Y-120096448D01*
X172613304Y-120016202D01*
X172662239Y-119924650D01*
X172692374Y-119825310D01*
X172702549Y-119722000D01*
X172702549Y-118022000D01*
X172692374Y-117918690D01*
X172662239Y-117819350D01*
X172613304Y-117727798D01*
X172547448Y-117647552D01*
X172467202Y-117581696D01*
X172375650Y-117532761D01*
X172276310Y-117502626D01*
X172173000Y-117492451D01*
X170473000Y-117492451D01*
X170369690Y-117502626D01*
X170270350Y-117532761D01*
X170178798Y-117581696D01*
X170098552Y-117647552D01*
X170032696Y-117727798D01*
X169983761Y-117819350D01*
X169953626Y-117918690D01*
X169943451Y-118022000D01*
X143780397Y-118022000D01*
X147237398Y-114565000D01*
X156488916Y-114565000D01*
X156570340Y-114646424D01*
X156804062Y-114802591D01*
X157063759Y-114910162D01*
X157339453Y-114965000D01*
X157620547Y-114965000D01*
X157896241Y-114910162D01*
X158155938Y-114802591D01*
X158389660Y-114646424D01*
X158471084Y-114565000D01*
X174326604Y-114565000D01*
X177800132Y-118038530D01*
X177832288Y-118077712D01*
X177871470Y-118109868D01*
X177871475Y-118109873D01*
X177970100Y-118190812D01*
X177988669Y-118206051D01*
X178167083Y-118301415D01*
X178301947Y-118342326D01*
X178360672Y-118360140D01*
X178378831Y-118361928D01*
X178511549Y-118375000D01*
X178511556Y-118375000D01*
X178562000Y-118379968D01*
X178612443Y-118375000D01*
X180994451Y-118375000D01*
X180994451Y-119248000D01*
X181004626Y-119351310D01*
X181034761Y-119450650D01*
X181083696Y-119542202D01*
X181149552Y-119622448D01*
X181229798Y-119688304D01*
X181321350Y-119737239D01*
X181420690Y-119767374D01*
X181524000Y-119777549D01*
X181562501Y-119777549D01*
X181562500Y-121267953D01*
X181478829Y-121369906D01*
X181406791Y-121504680D01*
X181362430Y-121650918D01*
X181347451Y-121803000D01*
X181347451Y-123053000D01*
X181362430Y-123205082D01*
X181406791Y-123351320D01*
X181478829Y-123486094D01*
X181562500Y-123588048D01*
X181562501Y-123807952D01*
X181478829Y-123909906D01*
X181406791Y-124044680D01*
X181362430Y-124190918D01*
X181347451Y-124343000D01*
X181347451Y-125593000D01*
X181362430Y-125745082D01*
X181406791Y-125891320D01*
X181478829Y-126026094D01*
X181562500Y-126128048D01*
X181562501Y-126436903D01*
X181551829Y-126449906D01*
X181479791Y-126584680D01*
X181435430Y-126730918D01*
X181420451Y-126883000D01*
X181420451Y-128133000D01*
X181435430Y-128285082D01*
X181479791Y-128431320D01*
X181551829Y-128566094D01*
X181648776Y-128684224D01*
X181766906Y-128781171D01*
X181901680Y-128853209D01*
X182047918Y-128897570D01*
X182200000Y-128912549D01*
X183125000Y-128912549D01*
X183277082Y-128897570D01*
X183423320Y-128853209D01*
X183558094Y-128781171D01*
X183676224Y-128684224D01*
X183773171Y-128566094D01*
X183845209Y-128431320D01*
X183889570Y-128285082D01*
X183904549Y-128133000D01*
X183904549Y-126883000D01*
X184395451Y-126883000D01*
X184395451Y-128133000D01*
X184410430Y-128285082D01*
X184454791Y-128431320D01*
X184526829Y-128566094D01*
X184623776Y-128684224D01*
X184741906Y-128781171D01*
X184876680Y-128853209D01*
X185022918Y-128897570D01*
X185175000Y-128912549D01*
X186100000Y-128912549D01*
X186252082Y-128897570D01*
X186398320Y-128853209D01*
X186533094Y-128781171D01*
X186651224Y-128684224D01*
X186748171Y-128566094D01*
X186764791Y-128535000D01*
X187374980Y-128535000D01*
X187382761Y-128560650D01*
X187431696Y-128652202D01*
X187497552Y-128732448D01*
X187577798Y-128798304D01*
X187669350Y-128847239D01*
X187768690Y-128877374D01*
X187872000Y-128887549D01*
X189572000Y-128887549D01*
X189675310Y-128877374D01*
X189774650Y-128847239D01*
X189866202Y-128798304D01*
X189946448Y-128732448D01*
X190012304Y-128652202D01*
X190061239Y-128560650D01*
X190091374Y-128461310D01*
X190101549Y-128358000D01*
X190101549Y-126658000D01*
X190091374Y-126554690D01*
X190061239Y-126455350D01*
X190012304Y-126363798D01*
X189946448Y-126283552D01*
X189866202Y-126217696D01*
X189774650Y-126168761D01*
X189675310Y-126138626D01*
X189572000Y-126128451D01*
X187872000Y-126128451D01*
X187768690Y-126138626D01*
X187669350Y-126168761D01*
X187577798Y-126217696D01*
X187497552Y-126283552D01*
X187431696Y-126363798D01*
X187382761Y-126455350D01*
X187374980Y-126481000D01*
X186764791Y-126481000D01*
X186748171Y-126449906D01*
X186651224Y-126331776D01*
X186533094Y-126234829D01*
X186398320Y-126162791D01*
X186252082Y-126118430D01*
X186100000Y-126103451D01*
X185175000Y-126103451D01*
X185022918Y-126118430D01*
X184876680Y-126162791D01*
X184741906Y-126234829D01*
X184623776Y-126331776D01*
X184526829Y-126449906D01*
X184454791Y-126584680D01*
X184410430Y-126730918D01*
X184395451Y-126883000D01*
X183904549Y-126883000D01*
X183889570Y-126730918D01*
X183845209Y-126584680D01*
X183773171Y-126449906D01*
X183676224Y-126331776D01*
X183616500Y-126282762D01*
X183616500Y-126128047D01*
X183700171Y-126026094D01*
X183772209Y-125891320D01*
X183816570Y-125745082D01*
X183831549Y-125593000D01*
X183831549Y-124343000D01*
X183816570Y-124190918D01*
X183772209Y-124044680D01*
X183700171Y-123909906D01*
X183616500Y-123807953D01*
X183616500Y-123588047D01*
X183700171Y-123486094D01*
X183772209Y-123351320D01*
X183816570Y-123205082D01*
X183831549Y-123053000D01*
X183831549Y-121803000D01*
X183816570Y-121650918D01*
X183772209Y-121504680D01*
X183700171Y-121369906D01*
X183616500Y-121267953D01*
X183616500Y-119768439D01*
X183627310Y-119767374D01*
X183726650Y-119737239D01*
X183818202Y-119688304D01*
X183898448Y-119622448D01*
X183964304Y-119542202D01*
X184013239Y-119450650D01*
X184043374Y-119351310D01*
X184053549Y-119248000D01*
X184053549Y-118375000D01*
X187374501Y-118375000D01*
X187383696Y-118392202D01*
X187449552Y-118472448D01*
X187480687Y-118498000D01*
X187449552Y-118523552D01*
X187383696Y-118603798D01*
X187334761Y-118695350D01*
X187304626Y-118794690D01*
X187294451Y-118898000D01*
X187294451Y-120398000D01*
X187304626Y-120501310D01*
X187334761Y-120600650D01*
X187383696Y-120692202D01*
X187449552Y-120772448D01*
X187529798Y-120838304D01*
X187621350Y-120887239D01*
X187720690Y-120917374D01*
X187824000Y-120927549D01*
X187912501Y-120927549D01*
X187912500Y-121267952D01*
X187828829Y-121369906D01*
X187756791Y-121504680D01*
X187712430Y-121650918D01*
X187697451Y-121803000D01*
X187697451Y-123053000D01*
X187712430Y-123205082D01*
X187756791Y-123351320D01*
X187828829Y-123486094D01*
X187925776Y-123604224D01*
X188043906Y-123701171D01*
X188178680Y-123773209D01*
X188324918Y-123817570D01*
X188477000Y-123832549D01*
X189402000Y-123832549D01*
X189554082Y-123817570D01*
X189700320Y-123773209D01*
X189835094Y-123701171D01*
X189953224Y-123604224D01*
X190050171Y-123486094D01*
X190066791Y-123455000D01*
X195350916Y-123455000D01*
X195432340Y-123536424D01*
X195666062Y-123692591D01*
X195925759Y-123800162D01*
X196201453Y-123855000D01*
X196482547Y-123855000D01*
X196758241Y-123800162D01*
X197017938Y-123692591D01*
X197251660Y-123536424D01*
X197450424Y-123337660D01*
X197606591Y-123103938D01*
X197714162Y-122844241D01*
X197769000Y-122568547D01*
X197769000Y-122287453D01*
X197714162Y-122011759D01*
X197606591Y-121752062D01*
X197450424Y-121518340D01*
X197251660Y-121319576D01*
X197017938Y-121163409D01*
X196758241Y-121055838D01*
X196482547Y-121001000D01*
X196201453Y-121001000D01*
X195925759Y-121055838D01*
X195666062Y-121163409D01*
X195432340Y-121319576D01*
X195350916Y-121401000D01*
X190066791Y-121401000D01*
X190050171Y-121369906D01*
X189966500Y-121267953D01*
X189966500Y-120905486D01*
X190026650Y-120887239D01*
X190118202Y-120838304D01*
X190198448Y-120772448D01*
X190264304Y-120692202D01*
X190313239Y-120600650D01*
X190343374Y-120501310D01*
X190353549Y-120398000D01*
X190353549Y-118898000D01*
X190343374Y-118794690D01*
X190313239Y-118695350D01*
X190264304Y-118603798D01*
X190198448Y-118523552D01*
X190167313Y-118498000D01*
X190198448Y-118472448D01*
X190264304Y-118392202D01*
X190313239Y-118300650D01*
X190343374Y-118201310D01*
X190353549Y-118098000D01*
X190353549Y-116598000D01*
X190343374Y-116494690D01*
X190313239Y-116395350D01*
X190264304Y-116303798D01*
X190198448Y-116223552D01*
X190118202Y-116157696D01*
X190026650Y-116108761D01*
X189927310Y-116078626D01*
X189824000Y-116068451D01*
X187824000Y-116068451D01*
X187720690Y-116078626D01*
X187621350Y-116108761D01*
X187529798Y-116157696D01*
X187449552Y-116223552D01*
X187383696Y-116303798D01*
X187374501Y-116321000D01*
X184053549Y-116321000D01*
X184053549Y-115448000D01*
X184043374Y-115344690D01*
X184013239Y-115245350D01*
X183964304Y-115153798D01*
X183898448Y-115073552D01*
X183818202Y-115007696D01*
X183726650Y-114958761D01*
X183627310Y-114928626D01*
X183524000Y-114918451D01*
X181524000Y-114918451D01*
X181420690Y-114928626D01*
X181321350Y-114958761D01*
X181229798Y-115007696D01*
X181149552Y-115073552D01*
X181083696Y-115153798D01*
X181034761Y-115245350D01*
X181004626Y-115344690D01*
X180994451Y-115448000D01*
X180994451Y-116321000D01*
X178987398Y-116321000D01*
X176204396Y-113538000D01*
X177571397Y-112171000D01*
X177686547Y-112171000D01*
X177962241Y-112116162D01*
X178221938Y-112008591D01*
X178455660Y-111852424D01*
X178654424Y-111653660D01*
X178810591Y-111419938D01*
X178918162Y-111160241D01*
X178973000Y-110884547D01*
X178973000Y-110769397D01*
X183316530Y-106425868D01*
X183355712Y-106393712D01*
X183387868Y-106354530D01*
X183387873Y-106354525D01*
X183484051Y-106237332D01*
X183542908Y-106127217D01*
X183579415Y-106058917D01*
X183626540Y-105903566D01*
X183638140Y-105865328D01*
X183646857Y-105776823D01*
X183653000Y-105714451D01*
X183653000Y-105714444D01*
X183657968Y-105664000D01*
X183653000Y-105613557D01*
X183653000Y-94336084D01*
X183734424Y-94254660D01*
X183890591Y-94020938D01*
X183998162Y-93761241D01*
X184053000Y-93485547D01*
X184053000Y-93204453D01*
X183998162Y-92928759D01*
X183890591Y-92669062D01*
X183734424Y-92435340D01*
X183535660Y-92236576D01*
X183301938Y-92080409D01*
X183042241Y-91972838D01*
X182766547Y-91918000D01*
X182485453Y-91918000D01*
X182209759Y-91972838D01*
X181950062Y-92080409D01*
X181716340Y-92236576D01*
X181517576Y-92435340D01*
X181361409Y-92669062D01*
X181253838Y-92928759D01*
X181199000Y-93204453D01*
X181199000Y-93485547D01*
X181253838Y-93761241D01*
X181361409Y-94020938D01*
X181517576Y-94254660D01*
X181599000Y-94336084D01*
X181599001Y-105238601D01*
X177520603Y-109317000D01*
X177405453Y-109317000D01*
X177129759Y-109371838D01*
X176870062Y-109479409D01*
X176636340Y-109635576D01*
X176437576Y-109834340D01*
X176281409Y-110068062D01*
X176173838Y-110327759D01*
X176119000Y-110603453D01*
X176119000Y-110718603D01*
X174326604Y-112511000D01*
X158471084Y-112511000D01*
X158389660Y-112429576D01*
X158155938Y-112273409D01*
X157896241Y-112165838D01*
X157620547Y-112111000D01*
X157339453Y-112111000D01*
X157063759Y-112165838D01*
X156804062Y-112273409D01*
X156570340Y-112429576D01*
X156488916Y-112511000D01*
X146862443Y-112511000D01*
X146812000Y-112506032D01*
X146761556Y-112511000D01*
X146761549Y-112511000D01*
X146628831Y-112524072D01*
X146610672Y-112525860D01*
X146551947Y-112543674D01*
X146417083Y-112584585D01*
X146238669Y-112679949D01*
X146238667Y-112679950D01*
X146238668Y-112679950D01*
X146121475Y-112776127D01*
X146121470Y-112776132D01*
X146082288Y-112808288D01*
X146050132Y-112847470D01*
X136626604Y-122271000D01*
X136511453Y-122271000D01*
X136235759Y-122325838D01*
X135976062Y-122433409D01*
X135742340Y-122589576D01*
X135543576Y-122788340D01*
X135387409Y-123022062D01*
X135279838Y-123281759D01*
X135225000Y-123557453D01*
X135225000Y-123672604D01*
X134194604Y-124703000D01*
X133325084Y-124703000D01*
X133243660Y-124621576D01*
X133009938Y-124465409D01*
X132750241Y-124357838D01*
X132474547Y-124303000D01*
X132193453Y-124303000D01*
X131917759Y-124357838D01*
X131658062Y-124465409D01*
X131424340Y-124621576D01*
X131342916Y-124703000D01*
X124689084Y-124703000D01*
X124607660Y-124621576D01*
X124373938Y-124465409D01*
X124114241Y-124357838D01*
X123838547Y-124303000D01*
X123557453Y-124303000D01*
X123281759Y-124357838D01*
X123022062Y-124465409D01*
X122788340Y-124621576D01*
X122706916Y-124703000D01*
X116249398Y-124703000D01*
X108116779Y-116570383D01*
X108143500Y-116436047D01*
X108143500Y-116154953D01*
X108088662Y-115879259D01*
X107981091Y-115619562D01*
X107824924Y-115385840D01*
X107626160Y-115187076D01*
X107392438Y-115030909D01*
X107132741Y-114923338D01*
X106857047Y-114868500D01*
X106575953Y-114868500D01*
X106300259Y-114923338D01*
X106040562Y-115030909D01*
X105806840Y-115187076D01*
X105608076Y-115385840D01*
X105451909Y-115619562D01*
X105344338Y-115879259D01*
X105289500Y-116154953D01*
X99833000Y-116154953D01*
X99833000Y-106343396D01*
X103041398Y-103135000D01*
X109498916Y-103135000D01*
X109580340Y-103216424D01*
X109814062Y-103372591D01*
X110073759Y-103480162D01*
X110349453Y-103535000D01*
X110630547Y-103535000D01*
X110906241Y-103480162D01*
X111165938Y-103372591D01*
X111399660Y-103216424D01*
X111481084Y-103135000D01*
X128040916Y-103135000D01*
X128122340Y-103216424D01*
X128356062Y-103372591D01*
X128615759Y-103480162D01*
X128891453Y-103535000D01*
X129172547Y-103535000D01*
X129448241Y-103480162D01*
X129707938Y-103372591D01*
X129941660Y-103216424D01*
X130023084Y-103135000D01*
X131986156Y-103135000D01*
X129472157Y-105649000D01*
X116441549Y-105649000D01*
X116441549Y-105576000D01*
X116431374Y-105472690D01*
X116401239Y-105373350D01*
X116352304Y-105281798D01*
X116286448Y-105201552D01*
X116206202Y-105135696D01*
X116114650Y-105086761D01*
X116015310Y-105056626D01*
X115912000Y-105046451D01*
X114212000Y-105046451D01*
X114108690Y-105056626D01*
X114009350Y-105086761D01*
X113917798Y-105135696D01*
X113837552Y-105201552D01*
X113771696Y-105281798D01*
X113722761Y-105373350D01*
X113692626Y-105472690D01*
X113682451Y-105576000D01*
X113682451Y-107276000D01*
X113692626Y-107379310D01*
X113722761Y-107478650D01*
X113771696Y-107570202D01*
X113837552Y-107650448D01*
X113917798Y-107716304D01*
X114009350Y-107765239D01*
X114108690Y-107795374D01*
X114212000Y-107805549D01*
X115912000Y-107805549D01*
X116015310Y-107795374D01*
X116114650Y-107765239D01*
X116206202Y-107716304D01*
X116286448Y-107650448D01*
X116352304Y-107570202D01*
X116401239Y-107478650D01*
X116431374Y-107379310D01*
X116441549Y-107276000D01*
X116441549Y-107203000D01*
X129755837Y-107203000D01*
X129794000Y-107206759D01*
X129832163Y-107203000D01*
X129832166Y-107203000D01*
X129946319Y-107191757D01*
X130092784Y-107147327D01*
X130227766Y-107075177D01*
X130346080Y-106978080D01*
X130370413Y-106948431D01*
X132909844Y-104409000D01*
X162521837Y-104409000D01*
X162560000Y-104412759D01*
X162598163Y-104409000D01*
X162598166Y-104409000D01*
X162712319Y-104397757D01*
X162858784Y-104353327D01*
X162993766Y-104281177D01*
X163112080Y-104184080D01*
X163136413Y-104154430D01*
X172607437Y-94683407D01*
X172637080Y-94659080D01*
X172661409Y-94629435D01*
X172734177Y-94540767D01*
X172806327Y-94405784D01*
X172822166Y-94353570D01*
X172850757Y-94259319D01*
X172862000Y-94145166D01*
X172862000Y-94145157D01*
X172865758Y-94107001D01*
X172862000Y-94068845D01*
X172862000Y-79009093D01*
X172906690Y-78979232D01*
X173086232Y-78799690D01*
X173227297Y-78588570D01*
X173324465Y-78353987D01*
X173355000Y-78200476D01*
X173385535Y-78353987D01*
X173482703Y-78588570D01*
X173623768Y-78799690D01*
X173803310Y-78979232D01*
X174014430Y-79120297D01*
X174249013Y-79217465D01*
X174498045Y-79267000D01*
X174751955Y-79267000D01*
X175000987Y-79217465D01*
X175235570Y-79120297D01*
X175446690Y-78979232D01*
X175626232Y-78799690D01*
X175767297Y-78588570D01*
X175864465Y-78353987D01*
X175895000Y-78200476D01*
X175925535Y-78353987D01*
X176022703Y-78588570D01*
X176163768Y-78799690D01*
X176343310Y-78979232D01*
X176554430Y-79120297D01*
X176789013Y-79217465D01*
X177038045Y-79267000D01*
X177291955Y-79267000D01*
X177540987Y-79217465D01*
X177775570Y-79120297D01*
X177986690Y-78979232D01*
X178166232Y-78799690D01*
X178307297Y-78588570D01*
X178404465Y-78353987D01*
X178435000Y-78200476D01*
X178465535Y-78353987D01*
X178562703Y-78588570D01*
X178703768Y-78799690D01*
X178883310Y-78979232D01*
X179094430Y-79120297D01*
X179329013Y-79217465D01*
X179578045Y-79267000D01*
X179831955Y-79267000D01*
X180080987Y-79217465D01*
X180315570Y-79120297D01*
X180526690Y-78979232D01*
X180706232Y-78799690D01*
X180847297Y-78588570D01*
X180944465Y-78353987D01*
X180975000Y-78200476D01*
X181005535Y-78353987D01*
X181102703Y-78588570D01*
X181243768Y-78799690D01*
X181423310Y-78979232D01*
X181634430Y-79120297D01*
X181869013Y-79217465D01*
X182118045Y-79267000D01*
X182371955Y-79267000D01*
X182620987Y-79217465D01*
X182855570Y-79120297D01*
X183066690Y-78979232D01*
X183246232Y-78799690D01*
X183387297Y-78588570D01*
X183484465Y-78353987D01*
X183515000Y-78200476D01*
X183545535Y-78353987D01*
X183642703Y-78588570D01*
X183783768Y-78799690D01*
X183963310Y-78979232D01*
X184174430Y-79120297D01*
X184409013Y-79217465D01*
X184658045Y-79267000D01*
X184911955Y-79267000D01*
X185160987Y-79217465D01*
X185395570Y-79120297D01*
X185606690Y-78979232D01*
X185786232Y-78799690D01*
X185927297Y-78588570D01*
X186024465Y-78353987D01*
X186055000Y-78200476D01*
X186085535Y-78353987D01*
X186182703Y-78588570D01*
X186323768Y-78799690D01*
X186503310Y-78979232D01*
X186714430Y-79120297D01*
X186949013Y-79217465D01*
X187198045Y-79267000D01*
X187451955Y-79267000D01*
X187700987Y-79217465D01*
X187935570Y-79120297D01*
X188146690Y-78979232D01*
X188326232Y-78799690D01*
X188467297Y-78588570D01*
X188564465Y-78353987D01*
X188595000Y-78200476D01*
X188625535Y-78353987D01*
X188722703Y-78588570D01*
X188863768Y-78799690D01*
X189043310Y-78979232D01*
X189254430Y-79120297D01*
X189489013Y-79217465D01*
X189738045Y-79267000D01*
X189991955Y-79267000D01*
X190240987Y-79217465D01*
X190475570Y-79120297D01*
X190686690Y-78979232D01*
X190866232Y-78799690D01*
X191007297Y-78588570D01*
X191104465Y-78353987D01*
X191154000Y-78104955D01*
X191154000Y-77851045D01*
X191104465Y-77602013D01*
X191007297Y-77367430D01*
X190866232Y-77156310D01*
X190686690Y-76976768D01*
X190683871Y-76974884D01*
X191823000Y-76974884D01*
X191823000Y-77965116D01*
X192016184Y-78936322D01*
X192395130Y-79851178D01*
X192945274Y-80674526D01*
X193645474Y-81374726D01*
X194468822Y-81924870D01*
X195383678Y-82303816D01*
X196354884Y-82497000D01*
X197345116Y-82497000D01*
X198316322Y-82303816D01*
X199231178Y-81924870D01*
X200054526Y-81374726D01*
X200754726Y-80674526D01*
X201304870Y-79851178D01*
X201683816Y-78936322D01*
X201877000Y-77965116D01*
X201877000Y-76974884D01*
X201683816Y-76003678D01*
X201304870Y-75088822D01*
X200754726Y-74265474D01*
X200054526Y-73565274D01*
X199231178Y-73015130D01*
X198316322Y-72636184D01*
X197345116Y-72443000D01*
X196354884Y-72443000D01*
X195383678Y-72636184D01*
X194468822Y-73015130D01*
X193645474Y-73565274D01*
X192945274Y-74265474D01*
X192395130Y-75088822D01*
X192016184Y-76003678D01*
X191823000Y-76974884D01*
X190683871Y-76974884D01*
X190475570Y-76835703D01*
X190240987Y-76738535D01*
X190087476Y-76708000D01*
X190240987Y-76677465D01*
X190475570Y-76580297D01*
X190686690Y-76439232D01*
X190866232Y-76259690D01*
X191007297Y-76048570D01*
X191104465Y-75813987D01*
X191154000Y-75564955D01*
X191154000Y-75311045D01*
X191104465Y-75062013D01*
X191007297Y-74827430D01*
X190866232Y-74616310D01*
X190686690Y-74436768D01*
X190475570Y-74295703D01*
X190240987Y-74198535D01*
X189991955Y-74149000D01*
X189738045Y-74149000D01*
X189489013Y-74198535D01*
X189254430Y-74295703D01*
X189043310Y-74436768D01*
X188863768Y-74616310D01*
X188722703Y-74827430D01*
X188625535Y-75062013D01*
X188595000Y-75215524D01*
X188564465Y-75062013D01*
X188467297Y-74827430D01*
X188326232Y-74616310D01*
X188146690Y-74436768D01*
X187935570Y-74295703D01*
X187700987Y-74198535D01*
X187451955Y-74149000D01*
X187198045Y-74149000D01*
X186949013Y-74198535D01*
X186714430Y-74295703D01*
X186503310Y-74436768D01*
X186323768Y-74616310D01*
X186182703Y-74827430D01*
X186085535Y-75062013D01*
X186055000Y-75215524D01*
X186024465Y-75062013D01*
X185927297Y-74827430D01*
X185786232Y-74616310D01*
X185606690Y-74436768D01*
X185395570Y-74295703D01*
X185160987Y-74198535D01*
X184911955Y-74149000D01*
X184658045Y-74149000D01*
X184409013Y-74198535D01*
X184174430Y-74295703D01*
X183963310Y-74436768D01*
X183783768Y-74616310D01*
X183642703Y-74827430D01*
X183545535Y-75062013D01*
X183496000Y-75311045D01*
X183496000Y-75564955D01*
X183545535Y-75813987D01*
X183642703Y-76048570D01*
X183783768Y-76259690D01*
X183963310Y-76439232D01*
X184174430Y-76580297D01*
X184409013Y-76677465D01*
X184562524Y-76708000D01*
X184409013Y-76738535D01*
X184174430Y-76835703D01*
X183963310Y-76976768D01*
X183783768Y-77156310D01*
X183642703Y-77367430D01*
X183545535Y-77602013D01*
X183515000Y-77755524D01*
X183484465Y-77602013D01*
X183387297Y-77367430D01*
X183246232Y-77156310D01*
X183066690Y-76976768D01*
X182855570Y-76835703D01*
X182620987Y-76738535D01*
X182371955Y-76689000D01*
X182118045Y-76689000D01*
X181869013Y-76738535D01*
X181634430Y-76835703D01*
X181423310Y-76976768D01*
X181243768Y-77156310D01*
X181102703Y-77367430D01*
X181005535Y-77602013D01*
X180975000Y-77755524D01*
X180944465Y-77602013D01*
X180847297Y-77367430D01*
X180706232Y-77156310D01*
X180526690Y-76976768D01*
X180315570Y-76835703D01*
X180080987Y-76738535D01*
X179927476Y-76708000D01*
X180080987Y-76677465D01*
X180315570Y-76580297D01*
X180526690Y-76439232D01*
X180706232Y-76259690D01*
X180847297Y-76048570D01*
X180944465Y-75813987D01*
X180994000Y-75564955D01*
X180994000Y-75311045D01*
X180944465Y-75062013D01*
X180847297Y-74827430D01*
X180706232Y-74616310D01*
X180526690Y-74436768D01*
X180315570Y-74295703D01*
X180080987Y-74198535D01*
X179831955Y-74149000D01*
X179578045Y-74149000D01*
X179329013Y-74198535D01*
X179094430Y-74295703D01*
X178883310Y-74436768D01*
X178703768Y-74616310D01*
X178562703Y-74827430D01*
X178465535Y-75062013D01*
X178435000Y-75215524D01*
X178404465Y-75062013D01*
X178307297Y-74827430D01*
X178166232Y-74616310D01*
X177986690Y-74436768D01*
X177775570Y-74295703D01*
X177540987Y-74198535D01*
X177291955Y-74149000D01*
X177038045Y-74149000D01*
X176789013Y-74198535D01*
X176554430Y-74295703D01*
X176343310Y-74436768D01*
X176163768Y-74616310D01*
X176022703Y-74827430D01*
X175925535Y-75062013D01*
X175895000Y-75215524D01*
X175864465Y-75062013D01*
X175767297Y-74827430D01*
X175626232Y-74616310D01*
X175446690Y-74436768D01*
X175235570Y-74295703D01*
X175000987Y-74198535D01*
X174751955Y-74149000D01*
X174498045Y-74149000D01*
X174249013Y-74198535D01*
X174014430Y-74295703D01*
X173803310Y-74436768D01*
X173623768Y-74616310D01*
X173482703Y-74827430D01*
X173385535Y-75062013D01*
X173355000Y-75215524D01*
X173324465Y-75062013D01*
X173227297Y-74827430D01*
X173086232Y-74616310D01*
X172906690Y-74436768D01*
X172695570Y-74295703D01*
X172460987Y-74198535D01*
X172211955Y-74149000D01*
X171958045Y-74149000D01*
X171709013Y-74198535D01*
X171474430Y-74295703D01*
X171263310Y-74436768D01*
X171083768Y-74616310D01*
X170942703Y-74827430D01*
X170845535Y-75062013D01*
X170815000Y-75215524D01*
X170784465Y-75062013D01*
X170687297Y-74827430D01*
X170546232Y-74616310D01*
X170366690Y-74436768D01*
X170155570Y-74295703D01*
X169920987Y-74198535D01*
X169671955Y-74149000D01*
X169418045Y-74149000D01*
X169169013Y-74198535D01*
X168934430Y-74295703D01*
X168723310Y-74436768D01*
X168543768Y-74616310D01*
X168402703Y-74827430D01*
X168305535Y-75062013D01*
X168256000Y-75311045D01*
X168256000Y-75564955D01*
X168305535Y-75813987D01*
X168402703Y-76048570D01*
X168543768Y-76259690D01*
X168723310Y-76439232D01*
X168934430Y-76580297D01*
X169169013Y-76677465D01*
X169322524Y-76708000D01*
X169169013Y-76738535D01*
X168934430Y-76835703D01*
X168723310Y-76976768D01*
X168543768Y-77156310D01*
X168402703Y-77367430D01*
X168305535Y-77602013D01*
X168275000Y-77755524D01*
X168244465Y-77602013D01*
X168147297Y-77367430D01*
X168006232Y-77156310D01*
X167826690Y-76976768D01*
X167615570Y-76835703D01*
X167380987Y-76738535D01*
X167131955Y-76689000D01*
X166878045Y-76689000D01*
X166629013Y-76738535D01*
X166394430Y-76835703D01*
X166183310Y-76976768D01*
X166003768Y-77156310D01*
X165862703Y-77367430D01*
X165765535Y-77602013D01*
X165735000Y-77755524D01*
X165704465Y-77602013D01*
X165607297Y-77367430D01*
X165466232Y-77156310D01*
X165286690Y-76976768D01*
X165075570Y-76835703D01*
X164840987Y-76738535D01*
X164687476Y-76708000D01*
X164840987Y-76677465D01*
X165075570Y-76580297D01*
X165286690Y-76439232D01*
X165466232Y-76259690D01*
X165607297Y-76048570D01*
X165704465Y-75813987D01*
X165754000Y-75564955D01*
X165754000Y-75311045D01*
X165704465Y-75062013D01*
X165607297Y-74827430D01*
X165466232Y-74616310D01*
X165286690Y-74436768D01*
X165075570Y-74295703D01*
X164840987Y-74198535D01*
X164591955Y-74149000D01*
X164338045Y-74149000D01*
X164089013Y-74198535D01*
X163854430Y-74295703D01*
X163643310Y-74436768D01*
X163463768Y-74616310D01*
X163322703Y-74827430D01*
X163225535Y-75062013D01*
X163195000Y-75215524D01*
X163164465Y-75062013D01*
X163067297Y-74827430D01*
X162926232Y-74616310D01*
X162746690Y-74436768D01*
X162535570Y-74295703D01*
X162300987Y-74198535D01*
X162051955Y-74149000D01*
X161798045Y-74149000D01*
X161549013Y-74198535D01*
X161314430Y-74295703D01*
X161103310Y-74436768D01*
X160923768Y-74616310D01*
X160782703Y-74827430D01*
X160685535Y-75062013D01*
X160655000Y-75215524D01*
X160624465Y-75062013D01*
X160527297Y-74827430D01*
X160386232Y-74616310D01*
X160206690Y-74436768D01*
X159995570Y-74295703D01*
X159760987Y-74198535D01*
X159511955Y-74149000D01*
X159258045Y-74149000D01*
X159009013Y-74198535D01*
X158774430Y-74295703D01*
X158563310Y-74436768D01*
X158383768Y-74616310D01*
X158242703Y-74827430D01*
X158145535Y-75062013D01*
X158115000Y-75215524D01*
X158084465Y-75062013D01*
X157987297Y-74827430D01*
X157846232Y-74616310D01*
X157666690Y-74436768D01*
X157455570Y-74295703D01*
X157220987Y-74198535D01*
X156971955Y-74149000D01*
X156718045Y-74149000D01*
X156469013Y-74198535D01*
X156234430Y-74295703D01*
X156023310Y-74436768D01*
X155843768Y-74616310D01*
X155702703Y-74827430D01*
X155605535Y-75062013D01*
X155575000Y-75215524D01*
X155544465Y-75062013D01*
X155447297Y-74827430D01*
X155306232Y-74616310D01*
X155126690Y-74436768D01*
X154915570Y-74295703D01*
X154680987Y-74198535D01*
X154431955Y-74149000D01*
X154178045Y-74149000D01*
X153929013Y-74198535D01*
X153694430Y-74295703D01*
X153483310Y-74436768D01*
X153303768Y-74616310D01*
X153162703Y-74827430D01*
X153065535Y-75062013D01*
X153035000Y-75215524D01*
X153004465Y-75062013D01*
X152907297Y-74827430D01*
X152766232Y-74616310D01*
X152586690Y-74436768D01*
X152375570Y-74295703D01*
X152140987Y-74198535D01*
X151891955Y-74149000D01*
X151638045Y-74149000D01*
X151389013Y-74198535D01*
X151154430Y-74295703D01*
X150943310Y-74436768D01*
X150763768Y-74616310D01*
X150622703Y-74827430D01*
X150525535Y-75062013D01*
X150495000Y-75215524D01*
X150464465Y-75062013D01*
X150367297Y-74827430D01*
X150226232Y-74616310D01*
X150046690Y-74436768D01*
X149835570Y-74295703D01*
X149600987Y-74198535D01*
X149351955Y-74149000D01*
X149098045Y-74149000D01*
X148849013Y-74198535D01*
X148614430Y-74295703D01*
X148403310Y-74436768D01*
X148223768Y-74616310D01*
X148082703Y-74827430D01*
X147985535Y-75062013D01*
X147955000Y-75215524D01*
X147924465Y-75062013D01*
X147827297Y-74827430D01*
X147686232Y-74616310D01*
X147506690Y-74436768D01*
X147295570Y-74295703D01*
X147060987Y-74198535D01*
X146811955Y-74149000D01*
X146558045Y-74149000D01*
X146309013Y-74198535D01*
X146074430Y-74295703D01*
X145863310Y-74436768D01*
X145683768Y-74616310D01*
X145542703Y-74827430D01*
X145445535Y-75062013D01*
X145415000Y-75215524D01*
X145384465Y-75062013D01*
X145287297Y-74827430D01*
X145146232Y-74616310D01*
X144966690Y-74436768D01*
X144755570Y-74295703D01*
X144520987Y-74198535D01*
X144271955Y-74149000D01*
X144018045Y-74149000D01*
X143769013Y-74198535D01*
X143534430Y-74295703D01*
X143323310Y-74436768D01*
X143143768Y-74616310D01*
X143002703Y-74827430D01*
X142905535Y-75062013D01*
X142856000Y-75311045D01*
X142856000Y-75564955D01*
X142905535Y-75813987D01*
X143002703Y-76048570D01*
X143143768Y-76259690D01*
X143323310Y-76439232D01*
X143534430Y-76580297D01*
X143769013Y-76677465D01*
X143922524Y-76708000D01*
X143769013Y-76738535D01*
X143534430Y-76835703D01*
X143323310Y-76976768D01*
X143143768Y-77156310D01*
X143002703Y-77367430D01*
X142905535Y-77602013D01*
X142856000Y-77851045D01*
X142856000Y-78104955D01*
X142905535Y-78353987D01*
X143002703Y-78588570D01*
X143143768Y-78799690D01*
X143323310Y-78979232D01*
X143534430Y-79120297D01*
X143769013Y-79217465D01*
X144018045Y-79267000D01*
X144271955Y-79267000D01*
X144520987Y-79217465D01*
X144755570Y-79120297D01*
X144966690Y-78979232D01*
X145146232Y-78799690D01*
X145287297Y-78588570D01*
X145384465Y-78353987D01*
X145415000Y-78200476D01*
X145445535Y-78353987D01*
X145542703Y-78588570D01*
X145683768Y-78799690D01*
X145863310Y-78979232D01*
X146074430Y-79120297D01*
X146309013Y-79217465D01*
X146558045Y-79267000D01*
X146811955Y-79267000D01*
X147060987Y-79217465D01*
X147295570Y-79120297D01*
X147506690Y-78979232D01*
X147686232Y-78799690D01*
X147827297Y-78588570D01*
X147924465Y-78353987D01*
X147955000Y-78200476D01*
X147985535Y-78353987D01*
X148082703Y-78588570D01*
X148223768Y-78799690D01*
X148403310Y-78979232D01*
X148614430Y-79120297D01*
X148849013Y-79217465D01*
X149098045Y-79267000D01*
X149351955Y-79267000D01*
X149600987Y-79217465D01*
X149835570Y-79120297D01*
X150046690Y-78979232D01*
X150226232Y-78799690D01*
X150367297Y-78588570D01*
X150464465Y-78353987D01*
X150495000Y-78200476D01*
X150525535Y-78353987D01*
X150622703Y-78588570D01*
X150763768Y-78799690D01*
X150943310Y-78979232D01*
X151154430Y-79120297D01*
X151389013Y-79217465D01*
X151638045Y-79267000D01*
X151891955Y-79267000D01*
X152140987Y-79217465D01*
X152375570Y-79120297D01*
X152586690Y-78979232D01*
X152766232Y-78799690D01*
X152907297Y-78588570D01*
X153004465Y-78353987D01*
X153054000Y-78104955D01*
X153054000Y-77851045D01*
X153004465Y-77602013D01*
X152907297Y-77367430D01*
X152766232Y-77156310D01*
X152586690Y-76976768D01*
X152375570Y-76835703D01*
X152140987Y-76738535D01*
X151987476Y-76708000D01*
X152140987Y-76677465D01*
X152375570Y-76580297D01*
X152586690Y-76439232D01*
X152766232Y-76259690D01*
X152907297Y-76048570D01*
X153004465Y-75813987D01*
X153035000Y-75660476D01*
X153065535Y-75813987D01*
X153162703Y-76048570D01*
X153303768Y-76259690D01*
X153483310Y-76439232D01*
X153694430Y-76580297D01*
X153929013Y-76677465D01*
X154178045Y-76727000D01*
X154431955Y-76727000D01*
X154680987Y-76677465D01*
X154915570Y-76580297D01*
X155126690Y-76439232D01*
X155306232Y-76259690D01*
X155447297Y-76048570D01*
X155544465Y-75813987D01*
X155575000Y-75660476D01*
X155605535Y-75813987D01*
X155702703Y-76048570D01*
X155843768Y-76259690D01*
X156023310Y-76439232D01*
X156234430Y-76580297D01*
X156469013Y-76677465D01*
X156622524Y-76708000D01*
X156469013Y-76738535D01*
X156234430Y-76835703D01*
X156023310Y-76976768D01*
X155843768Y-77156310D01*
X155702703Y-77367430D01*
X155605535Y-77602013D01*
X155556000Y-77851045D01*
X155556000Y-78104955D01*
X155605535Y-78353987D01*
X155702703Y-78588570D01*
X155843768Y-78799690D01*
X155955617Y-78911539D01*
X152078157Y-82789000D01*
X144564163Y-82789000D01*
X144526000Y-82785241D01*
X144487836Y-82789000D01*
X144487834Y-82789000D01*
X144373681Y-82800243D01*
X144227216Y-82844673D01*
X144207522Y-82855200D01*
X144092234Y-82916822D01*
X144038764Y-82960704D01*
X143973920Y-83013920D01*
X143949592Y-83043564D01*
X141336569Y-85656587D01*
X141306920Y-85680920D01*
X141282591Y-85710566D01*
X141209823Y-85799234D01*
X141205557Y-85807216D01*
X141137673Y-85934217D01*
X141093243Y-86080682D01*
X141082000Y-86194834D01*
X141078241Y-86233000D01*
X141082000Y-86271164D01*
X141082001Y-88861827D01*
X141078241Y-88900000D01*
X141089329Y-89012566D01*
X141093244Y-89052319D01*
X141094572Y-89056696D01*
X141137673Y-89198783D01*
X141209823Y-89333766D01*
X141282591Y-89422434D01*
X141306921Y-89452080D01*
X141336565Y-89476408D01*
X143187590Y-91327434D01*
X143211920Y-91357080D01*
X143241564Y-91381408D01*
X143241565Y-91381409D01*
X143330233Y-91454177D01*
X143362545Y-91471448D01*
X143465216Y-91526327D01*
X143611681Y-91570757D01*
X143725834Y-91582000D01*
X143725836Y-91582000D01*
X143764000Y-91585759D01*
X143802163Y-91582000D01*
X144043087Y-91582000D01*
X144059298Y-91595304D01*
X144150850Y-91644239D01*
X144250190Y-91674374D01*
X144353500Y-91684549D01*
X145878500Y-91684549D01*
X145981810Y-91674374D01*
X145988947Y-91672209D01*
X140574570Y-97086587D01*
X140544920Y-97110920D01*
X140520591Y-97140566D01*
X140447823Y-97229234D01*
X140375674Y-97364216D01*
X140375673Y-97364217D01*
X140331243Y-97510682D01*
X140321235Y-97612299D01*
X140316241Y-97663000D01*
X140320000Y-97701164D01*
X140320000Y-98188451D01*
X140247000Y-98188451D01*
X140143690Y-98198626D01*
X140044350Y-98228761D01*
X139952798Y-98277696D01*
X139872552Y-98343552D01*
X139806696Y-98423798D01*
X139757761Y-98515350D01*
X139727626Y-98614690D01*
X139717451Y-98718000D01*
X139717451Y-100418000D01*
X139727626Y-100521310D01*
X139757761Y-100620650D01*
X139806696Y-100712202D01*
X139872552Y-100792448D01*
X139952798Y-100858304D01*
X140044350Y-100907239D01*
X140143690Y-100937374D01*
X140247000Y-100947549D01*
X141947000Y-100947549D01*
X142050310Y-100937374D01*
X142149650Y-100907239D01*
X142241202Y-100858304D01*
X142321448Y-100792448D01*
X142387304Y-100712202D01*
X142436239Y-100620650D01*
X142466374Y-100521310D01*
X142476549Y-100418000D01*
X142476549Y-100318054D01*
X142486527Y-100336721D01*
X142658603Y-100546397D01*
X142868279Y-100718473D01*
X143107495Y-100846337D01*
X143367061Y-100925075D01*
X143569360Y-100945000D01*
X143704640Y-100945000D01*
X143906939Y-100925075D01*
X144166505Y-100846337D01*
X144405721Y-100718473D01*
X144615397Y-100546397D01*
X144787473Y-100336721D01*
X144907000Y-100113102D01*
X145026527Y-100336721D01*
X145198603Y-100546397D01*
X145408279Y-100718473D01*
X145647495Y-100846337D01*
X145907061Y-100925075D01*
X146109360Y-100945000D01*
X146244640Y-100945000D01*
X146446939Y-100925075D01*
X146706505Y-100846337D01*
X146945721Y-100718473D01*
X147155397Y-100546397D01*
X147327473Y-100336721D01*
X147455337Y-100097505D01*
X147534075Y-99837939D01*
X147560662Y-99568000D01*
X147534075Y-99298061D01*
X147455337Y-99038495D01*
X147327473Y-98799279D01*
X147155397Y-98589603D01*
X146954000Y-98424321D01*
X146954000Y-95571843D01*
X149112437Y-93413407D01*
X149142080Y-93389080D01*
X149181338Y-93341244D01*
X149239177Y-93270767D01*
X149289451Y-93176711D01*
X149289451Y-93589000D01*
X149304430Y-93741082D01*
X149348791Y-93887320D01*
X149420829Y-94022094D01*
X149517776Y-94140224D01*
X149635906Y-94237171D01*
X149770680Y-94309209D01*
X149916918Y-94353570D01*
X150069000Y-94368549D01*
X150994000Y-94368549D01*
X151146082Y-94353570D01*
X151292320Y-94309209D01*
X151427094Y-94237171D01*
X151545224Y-94140224D01*
X151642171Y-94022094D01*
X151714209Y-93887320D01*
X151758570Y-93741082D01*
X151773549Y-93589000D01*
X151773549Y-92339000D01*
X151758570Y-92186918D01*
X151714209Y-92040680D01*
X151642171Y-91905906D01*
X151581518Y-91832000D01*
X158103561Y-91832000D01*
X158154002Y-91836968D01*
X158204443Y-91832000D01*
X158204453Y-91832000D01*
X158355329Y-91817140D01*
X158548919Y-91758415D01*
X158727333Y-91663051D01*
X158883714Y-91534712D01*
X158915879Y-91495519D01*
X161500400Y-88911000D01*
X163600916Y-88911000D01*
X163682340Y-88992424D01*
X163916062Y-89148591D01*
X164175759Y-89256162D01*
X164451453Y-89311000D01*
X164732547Y-89311000D01*
X165008241Y-89256162D01*
X165267938Y-89148591D01*
X165501660Y-88992424D01*
X165700424Y-88793660D01*
X165856591Y-88559938D01*
X165964162Y-88300241D01*
X166019000Y-88024547D01*
X166019000Y-87743453D01*
X165964162Y-87467759D01*
X165856591Y-87208062D01*
X165700424Y-86974340D01*
X165501660Y-86775576D01*
X165267938Y-86619409D01*
X165008241Y-86511838D01*
X164732547Y-86457000D01*
X164451453Y-86457000D01*
X164175759Y-86511838D01*
X163916062Y-86619409D01*
X163682340Y-86775576D01*
X163600916Y-86857000D01*
X161125445Y-86857000D01*
X161075002Y-86852032D01*
X161024558Y-86857000D01*
X161024551Y-86857000D01*
X160891833Y-86870072D01*
X160873674Y-86871860D01*
X160839664Y-86882177D01*
X160764549Y-86904963D01*
X160764549Y-85764000D01*
X160754374Y-85660690D01*
X160724239Y-85561350D01*
X160675304Y-85469798D01*
X160609448Y-85389552D01*
X160529202Y-85323696D01*
X160437650Y-85274761D01*
X160338310Y-85244626D01*
X160235000Y-85234451D01*
X158535000Y-85234451D01*
X158431690Y-85244626D01*
X158332350Y-85274761D01*
X158240798Y-85323696D01*
X158160552Y-85389552D01*
X158094696Y-85469798D01*
X158045761Y-85561350D01*
X158015626Y-85660690D01*
X158005451Y-85764000D01*
X158005451Y-87464000D01*
X158015626Y-87567310D01*
X158045761Y-87666650D01*
X158094696Y-87758202D01*
X158160552Y-87838448D01*
X158240798Y-87904304D01*
X158332350Y-87953239D01*
X158431690Y-87983374D01*
X158535000Y-87993549D01*
X159513056Y-87993549D01*
X157728606Y-89778000D01*
X153128843Y-89778000D01*
X161685437Y-81221407D01*
X161715081Y-81197079D01*
X161739410Y-81167434D01*
X161812178Y-81078766D01*
X161884328Y-80943783D01*
X161928758Y-80797318D01*
X161940001Y-80683165D01*
X161940001Y-80683163D01*
X161943760Y-80644999D01*
X161940001Y-80606836D01*
X161940001Y-79267000D01*
X162051955Y-79267000D01*
X162300987Y-79217465D01*
X162535570Y-79120297D01*
X162746690Y-78979232D01*
X162926232Y-78799690D01*
X163067297Y-78588570D01*
X163164465Y-78353987D01*
X163195000Y-78200476D01*
X163225535Y-78353987D01*
X163322703Y-78588570D01*
X163463768Y-78799690D01*
X163643310Y-78979232D01*
X163854430Y-79120297D01*
X164089013Y-79217465D01*
X164338045Y-79267000D01*
X164591955Y-79267000D01*
X164840987Y-79217465D01*
X165075570Y-79120297D01*
X165286690Y-78979232D01*
X165466232Y-78799690D01*
X165607297Y-78588570D01*
X165704465Y-78353987D01*
X165735000Y-78200476D01*
X165765535Y-78353987D01*
X165862703Y-78588570D01*
X166003768Y-78799690D01*
X166183310Y-78979232D01*
X166394430Y-79120297D01*
X166629013Y-79217465D01*
X166878045Y-79267000D01*
X167131955Y-79267000D01*
X167380987Y-79217465D01*
X167615570Y-79120297D01*
X167826690Y-78979232D01*
X168006232Y-78799690D01*
X168147297Y-78588570D01*
X168244465Y-78353987D01*
X168275000Y-78200476D01*
X168305535Y-78353987D01*
X168402703Y-78588570D01*
X168543768Y-78799690D01*
X168723310Y-78979232D01*
X168934430Y-79120297D01*
X169169013Y-79217465D01*
X169418045Y-79267000D01*
X169671955Y-79267000D01*
X169920987Y-79217465D01*
X170155570Y-79120297D01*
X170366690Y-78979232D01*
X170546232Y-78799690D01*
X170687297Y-78588570D01*
X170784465Y-78353987D01*
X170815000Y-78200476D01*
X170845535Y-78353987D01*
X170942703Y-78588570D01*
X171083768Y-78799690D01*
X171263310Y-78979232D01*
X171308001Y-79009093D01*
X171308000Y-93785156D01*
X162238157Y-102855000D01*
X160221109Y-102855000D01*
X160268591Y-102783938D01*
X160376162Y-102524241D01*
X160431000Y-102248547D01*
X160431000Y-101967453D01*
X160376162Y-101691759D01*
X160268591Y-101432062D01*
X160112424Y-101198340D01*
X159913660Y-100999576D01*
X159679938Y-100843409D01*
X159420241Y-100735838D01*
X159144547Y-100681000D01*
X158863453Y-100681000D01*
X158587759Y-100735838D01*
X158328062Y-100843409D01*
X158094340Y-100999576D01*
X158012916Y-101081000D01*
X150851084Y-101081000D01*
X150769660Y-100999576D01*
X150535938Y-100843409D01*
X150276241Y-100735838D01*
X150000547Y-100681000D01*
X149719453Y-100681000D01*
X149443759Y-100735838D01*
X149184062Y-100843409D01*
X148950340Y-100999576D01*
X148868916Y-101081000D01*
X130023084Y-101081000D01*
X129941660Y-100999576D01*
X129707938Y-100843409D01*
X129448241Y-100735838D01*
X129172547Y-100681000D01*
X128891453Y-100681000D01*
X128615759Y-100735838D01*
X128356062Y-100843409D01*
X128122340Y-100999576D01*
X128040916Y-101081000D01*
X111481084Y-101081000D01*
X111399660Y-100999576D01*
X111165938Y-100843409D01*
X110906241Y-100735838D01*
X110630547Y-100681000D01*
X110349453Y-100681000D01*
X110073759Y-100735838D01*
X109814062Y-100843409D01*
X109580340Y-100999576D01*
X109498916Y-101081000D01*
X102666443Y-101081000D01*
X102616000Y-101076032D01*
X102565556Y-101081000D01*
X102565549Y-101081000D01*
X102432831Y-101094072D01*
X102414672Y-101095860D01*
X102355947Y-101113674D01*
X102221083Y-101154585D01*
X102042669Y-101249949D01*
X102042667Y-101249950D01*
X102042668Y-101249950D01*
X101925475Y-101346127D01*
X101925470Y-101346132D01*
X101886288Y-101378288D01*
X101854132Y-101417470D01*
X98115476Y-105156128D01*
X98076289Y-105188288D01*
X98044129Y-105227475D01*
X98044128Y-105227476D01*
X97947950Y-105344669D01*
X97852586Y-105523083D01*
X97793861Y-105716673D01*
X97774032Y-105918000D01*
X84372000Y-105918000D01*
X84372000Y-88209200D01*
X84825613Y-88209200D01*
X84833001Y-88284211D01*
X84833000Y-95510199D01*
X84825613Y-95585200D01*
X84833000Y-95660201D01*
X84833000Y-95660210D01*
X84855095Y-95884543D01*
X84942410Y-96172384D01*
X85084203Y-96437659D01*
X85275024Y-96670176D01*
X85333294Y-96717997D01*
X89419677Y-100804381D01*
X89562064Y-101017479D01*
X89781721Y-101237136D01*
X90040011Y-101409719D01*
X90327006Y-101528596D01*
X90631679Y-101589200D01*
X90942321Y-101589200D01*
X91246994Y-101528596D01*
X91533989Y-101409719D01*
X91792279Y-101237136D01*
X92011936Y-101017479D01*
X92184519Y-100759189D01*
X92303396Y-100472194D01*
X92364000Y-100167521D01*
X92364000Y-99856879D01*
X92303396Y-99552206D01*
X92184519Y-99265211D01*
X92011936Y-99006921D01*
X91792279Y-98787264D01*
X91579181Y-98644877D01*
X88100606Y-95166302D01*
X113862000Y-95166302D01*
X113862000Y-95427698D01*
X113912996Y-95684072D01*
X114013028Y-95925570D01*
X114158252Y-96142913D01*
X114343087Y-96327748D01*
X114560430Y-96472972D01*
X114801928Y-96573004D01*
X115058302Y-96624000D01*
X115319698Y-96624000D01*
X115576072Y-96573004D01*
X115817570Y-96472972D01*
X116034913Y-96327748D01*
X116219748Y-96142913D01*
X116364972Y-95925570D01*
X116465004Y-95684072D01*
X116516000Y-95427698D01*
X116516000Y-95166302D01*
X122625000Y-95166302D01*
X122625000Y-95427698D01*
X122675996Y-95684072D01*
X122776028Y-95925570D01*
X122921252Y-96142913D01*
X123106087Y-96327748D01*
X123323430Y-96472972D01*
X123564928Y-96573004D01*
X123821302Y-96624000D01*
X124082698Y-96624000D01*
X124339072Y-96573004D01*
X124580570Y-96472972D01*
X124797913Y-96327748D01*
X124982748Y-96142913D01*
X125127972Y-95925570D01*
X125228004Y-95684072D01*
X125279000Y-95427698D01*
X125279000Y-95166302D01*
X131388000Y-95166302D01*
X131388000Y-95427698D01*
X131438996Y-95684072D01*
X131539028Y-95925570D01*
X131684252Y-96142913D01*
X131869087Y-96327748D01*
X132086430Y-96472972D01*
X132327928Y-96573004D01*
X132584302Y-96624000D01*
X132845698Y-96624000D01*
X133102072Y-96573004D01*
X133343570Y-96472972D01*
X133560913Y-96327748D01*
X133745748Y-96142913D01*
X133890972Y-95925570D01*
X133991004Y-95684072D01*
X134042000Y-95427698D01*
X134042000Y-95166302D01*
X133991004Y-94909928D01*
X133890972Y-94668430D01*
X133745748Y-94451087D01*
X133560913Y-94266252D01*
X133343570Y-94121028D01*
X133102072Y-94020996D01*
X132845698Y-93970000D01*
X132584302Y-93970000D01*
X132327928Y-94020996D01*
X132086430Y-94121028D01*
X131869087Y-94266252D01*
X131684252Y-94451087D01*
X131539028Y-94668430D01*
X131438996Y-94909928D01*
X131388000Y-95166302D01*
X125279000Y-95166302D01*
X125228004Y-94909928D01*
X125127972Y-94668430D01*
X124982748Y-94451087D01*
X124797913Y-94266252D01*
X124580570Y-94121028D01*
X124339072Y-94020996D01*
X124082698Y-93970000D01*
X123821302Y-93970000D01*
X123564928Y-94020996D01*
X123323430Y-94121028D01*
X123106087Y-94266252D01*
X122921252Y-94451087D01*
X122776028Y-94668430D01*
X122675996Y-94909928D01*
X122625000Y-95166302D01*
X116516000Y-95166302D01*
X116465004Y-94909928D01*
X116364972Y-94668430D01*
X116219748Y-94451087D01*
X116034913Y-94266252D01*
X115817570Y-94121028D01*
X115576072Y-94020996D01*
X115319698Y-93970000D01*
X115058302Y-93970000D01*
X114801928Y-94020996D01*
X114560430Y-94121028D01*
X114343087Y-94266252D01*
X114158252Y-94451087D01*
X114013028Y-94668430D01*
X113912996Y-94909928D01*
X113862000Y-95166302D01*
X88100606Y-95166302D01*
X87887000Y-94952697D01*
X87887000Y-88841703D01*
X91419504Y-85309200D01*
X98389697Y-85309200D01*
X104404208Y-91323712D01*
X104452024Y-91381976D01*
X104510288Y-91429792D01*
X104510289Y-91429793D01*
X104684539Y-91572797D01*
X104949815Y-91714590D01*
X105237655Y-91801905D01*
X105537000Y-91831388D01*
X105612011Y-91824000D01*
X132790011Y-91824000D01*
X133014344Y-91801905D01*
X133302185Y-91714590D01*
X133466897Y-91626549D01*
X133515000Y-91626549D01*
X133618310Y-91616374D01*
X133717650Y-91586239D01*
X133809202Y-91537304D01*
X133889448Y-91471448D01*
X133955304Y-91391202D01*
X134004239Y-91299650D01*
X134034374Y-91200310D01*
X134044549Y-91097000D01*
X134044549Y-91048897D01*
X134132590Y-90884185D01*
X134219905Y-90596344D01*
X134249388Y-90297000D01*
X134219905Y-89997656D01*
X134132590Y-89709815D01*
X134044549Y-89545103D01*
X134044549Y-89497000D01*
X134034374Y-89393690D01*
X134004239Y-89294350D01*
X133955304Y-89202798D01*
X133889448Y-89122552D01*
X133809202Y-89056696D01*
X133717650Y-89007761D01*
X133618310Y-88977626D01*
X133515000Y-88967451D01*
X133466897Y-88967451D01*
X133302185Y-88879410D01*
X133014344Y-88792095D01*
X132790011Y-88770000D01*
X106169504Y-88770000D01*
X100154997Y-82755494D01*
X100107176Y-82697224D01*
X99874660Y-82506403D01*
X99609385Y-82364610D01*
X99321544Y-82277295D01*
X99097211Y-82255200D01*
X99097201Y-82255200D01*
X99022200Y-82247813D01*
X98947199Y-82255200D01*
X91753691Y-82255200D01*
X92551178Y-81924870D01*
X93374526Y-81374726D01*
X94074726Y-80674526D01*
X94624870Y-79851178D01*
X95003816Y-78936322D01*
X95197000Y-77965116D01*
X95197000Y-76974884D01*
X95003816Y-76003678D01*
X94624870Y-75088822D01*
X94074726Y-74265474D01*
X93374526Y-73565274D01*
X92551178Y-73015130D01*
X91636322Y-72636184D01*
X90665116Y-72443000D01*
X89674884Y-72443000D01*
X88703678Y-72636184D01*
X87788822Y-73015130D01*
X86965474Y-73565274D01*
X86265274Y-74265474D01*
X85715130Y-75088822D01*
X85336184Y-76003678D01*
X85143000Y-76974884D01*
X85143000Y-77965116D01*
X85336184Y-78936322D01*
X85715130Y-79851178D01*
X86265274Y-80674526D01*
X86965474Y-81374726D01*
X87788822Y-81924870D01*
X88703678Y-82303816D01*
X89674884Y-82497000D01*
X89871913Y-82497000D01*
X89781721Y-82557264D01*
X89562064Y-82776921D01*
X89419677Y-82990019D01*
X85333289Y-87076408D01*
X85275025Y-87124224D01*
X85227209Y-87182488D01*
X85227208Y-87182489D01*
X85084204Y-87356740D01*
X84942411Y-87622015D01*
X84855096Y-87909856D01*
X84825613Y-88209200D01*
X84372000Y-88209200D01*
X84372000Y-77491683D01*
X84445068Y-76563261D01*
X84657398Y-75678844D01*
X85005464Y-74838539D01*
X85480703Y-74063021D01*
X86071402Y-73371402D01*
X86763025Y-72780699D01*
X87538538Y-72305465D01*
X88378847Y-71957397D01*
X89263260Y-71745068D01*
X90191684Y-71672000D01*
X196828317Y-71672000D01*
X197756739Y-71745068D01*
G36*
X160386002Y-80323154D02*
G01*
X151951157Y-88758000D01*
X151809834Y-88758000D01*
X151821874Y-88718310D01*
X151832049Y-88615000D01*
X151832049Y-87915000D01*
X151821874Y-87811690D01*
X151791739Y-87712350D01*
X151747723Y-87630000D01*
X151791739Y-87547650D01*
X151821874Y-87448310D01*
X151832049Y-87345000D01*
X151832049Y-86645000D01*
X151821874Y-86541690D01*
X151791739Y-86442350D01*
X151742804Y-86350798D01*
X151676948Y-86270552D01*
X151596702Y-86204696D01*
X151505150Y-86155761D01*
X151405810Y-86125626D01*
X151302500Y-86115451D01*
X149777500Y-86115451D01*
X149674190Y-86125626D01*
X149574850Y-86155761D01*
X149483298Y-86204696D01*
X149467087Y-86218000D01*
X149009155Y-86218000D01*
X148970999Y-86214242D01*
X148932843Y-86218000D01*
X148932834Y-86218000D01*
X148818681Y-86229243D01*
X148672216Y-86273673D01*
X148537233Y-86345823D01*
X148465390Y-86404783D01*
X148418920Y-86442920D01*
X148394592Y-86472564D01*
X147178566Y-87688591D01*
X147148921Y-87712920D01*
X147124593Y-87742564D01*
X147124591Y-87742566D01*
X147051823Y-87831234D01*
X147048951Y-87836608D01*
X146954913Y-87742570D01*
X146930580Y-87712920D01*
X146812266Y-87615823D01*
X146677284Y-87543673D01*
X146530819Y-87499243D01*
X146416666Y-87488000D01*
X146416663Y-87488000D01*
X146378500Y-87484241D01*
X146340337Y-87488000D01*
X146188913Y-87488000D01*
X146172702Y-87474696D01*
X146081150Y-87425761D01*
X145981810Y-87395626D01*
X145878500Y-87385451D01*
X144353500Y-87385451D01*
X144287000Y-87392001D01*
X144287000Y-86427843D01*
X145355844Y-85359000D01*
X152742837Y-85359000D01*
X152781000Y-85362759D01*
X152819163Y-85359000D01*
X152819166Y-85359000D01*
X152933319Y-85347757D01*
X153079784Y-85303327D01*
X153214766Y-85231177D01*
X153333080Y-85134080D01*
X153357413Y-85104430D01*
X159205330Y-79256514D01*
X159258045Y-79267000D01*
X159511955Y-79267000D01*
X159760987Y-79217465D01*
X159995570Y-79120297D01*
X160206690Y-78979232D01*
X160386001Y-78799921D01*
X160386002Y-80323154D01*
X160386002Y-80323154D01*
G37*
X160386002Y-80323154D02*
X151951157Y-88758000D01*
X151809834Y-88758000D01*
X151821874Y-88718310D01*
X151832049Y-88615000D01*
X151832049Y-87915000D01*
X151821874Y-87811690D01*
X151791739Y-87712350D01*
X151747723Y-87630000D01*
X151791739Y-87547650D01*
X151821874Y-87448310D01*
X151832049Y-87345000D01*
X151832049Y-86645000D01*
X151821874Y-86541690D01*
X151791739Y-86442350D01*
X151742804Y-86350798D01*
X151676948Y-86270552D01*
X151596702Y-86204696D01*
X151505150Y-86155761D01*
X151405810Y-86125626D01*
X151302500Y-86115451D01*
X149777500Y-86115451D01*
X149674190Y-86125626D01*
X149574850Y-86155761D01*
X149483298Y-86204696D01*
X149467087Y-86218000D01*
X149009155Y-86218000D01*
X148970999Y-86214242D01*
X148932843Y-86218000D01*
X148932834Y-86218000D01*
X148818681Y-86229243D01*
X148672216Y-86273673D01*
X148537233Y-86345823D01*
X148465390Y-86404783D01*
X148418920Y-86442920D01*
X148394592Y-86472564D01*
X147178566Y-87688591D01*
X147148921Y-87712920D01*
X147124593Y-87742564D01*
X147124591Y-87742566D01*
X147051823Y-87831234D01*
X147048951Y-87836608D01*
X146954913Y-87742570D01*
X146930580Y-87712920D01*
X146812266Y-87615823D01*
X146677284Y-87543673D01*
X146530819Y-87499243D01*
X146416666Y-87488000D01*
X146416663Y-87488000D01*
X146378500Y-87484241D01*
X146340337Y-87488000D01*
X146188913Y-87488000D01*
X146172702Y-87474696D01*
X146081150Y-87425761D01*
X145981810Y-87395626D01*
X145878500Y-87385451D01*
X144353500Y-87385451D01*
X144287000Y-87392001D01*
X144287000Y-86427843D01*
X145355844Y-85359000D01*
X152742837Y-85359000D01*
X152781000Y-85362759D01*
X152819163Y-85359000D01*
X152819166Y-85359000D01*
X152933319Y-85347757D01*
X153079784Y-85303327D01*
X153214766Y-85231177D01*
X153333080Y-85134080D01*
X153357413Y-85104430D01*
X159205330Y-79256514D01*
X159258045Y-79267000D01*
X159511955Y-79267000D01*
X159760987Y-79217465D01*
X159995570Y-79120297D01*
X160206690Y-78979232D01*
X160386001Y-78799921D01*
X160386002Y-80323154D01*
%TD*%
M02*
